<svg id="Layer_5" enable-background="new 0 0 64 64" height="512" viewBox="0 0 64 64" width="512" xmlns="http://www.w3.org/2000/svg" xmlns:xlink="http://www.w3.org/1999/xlink"><linearGradient id="SVGID_1_" gradientUnits="userSpaceOnUse" x1="32" x2="32" y1="63" y2="1"><stop offset="0" stop-color="#9f2fff"/><stop offset="1" stop-color="#0bb1d3"/></linearGradient><path d="m29 14v2.069c0 1.617 1.314 2.931 2.931 2.931h.139c1.616 0 2.93-1.314 2.93-2.931 0-1.348-.913-2.517-2.22-2.844l-2.046-.512c-2.198-.549-3.734-2.516-3.734-4.782 0-2.4 1.725-4.399 4-4.837v-2.094h2v2.094c2.275.437 4 2.436 4 4.837v1.069h-2v-1.069c0-1.617-1.314-2.931-2.931-2.931h-.139c-1.616 0-2.93 1.314-2.93 2.931 0 1.348.913 2.517 2.22 2.844l2.046.512c2.198.549 3.734 2.516 3.734 4.782 0 2.4-1.725 4.399-4 4.837v2.094h-2v-2.094c-2.275-.437-4-2.436-4-4.837v-2.069zm32 26c0 8.937-4.035 17.241-11.071 22.785l-.273.215h-35.312l-.272-.215c-7.037-5.544-11.072-13.848-11.072-22.785 0-12.482 8.187-23.711 20-27.569v-4.431h-4v-2h6v7.912l-.715.212c-11.354 3.382-19.285 14.022-19.285 25.876 0 8.205 3.654 15.839 10.04 21h16.655c-2.028-1.425-3.552-3.515-4.257-5.953-1.398.622-2.908.953-4.438.953-6.065 0-11-4.935-11-11s4.935-11 11-11c2.238 0 4.322.668 6.066 1.82.591-5.512 5.267-9.82 10.934-9.82 6.065 0 11 4.935 11 11 0 3.353-1.525 6.468-4.109 8.549 1.32 1.815 2.109 4.04 2.109 6.451 0 3.72-1.861 7.008-4.695 9h4.655c6.386-5.161 10.04-12.795 10.04-21 0-11.854-7.931-22.494-19.285-25.876l-.715-.212v-7.912h6v2h-4v4.431c11.813 3.858 20 15.087 20 27.569zm-30-3c0 .159.013.313.022.469 1.163 1.244 2.04 2.767 2.528 4.48 1.279-.569 2.685-.896 4.164-.934-.439-.503-.714-1.152-.714-1.869v-.146h2v.146c0 .47.384.854.854.854h.291c.471 0 .855-.384.855-.854 0-.325-.181-.618-.473-.764l-1.949-.975c-.974-.487-1.578-1.465-1.578-2.553 0-1.275.845-2.344 2-2.709v-2.145h2v2.145c1.155.366 2 1.435 2 2.709v.146h-2v-.146c0-.47-.384-.854-.854-.854h-.291c-.471 0-.855.384-.855.854 0 .325.181.618.473.764l1.949.975c.974.487 1.578 1.465 1.578 2.553 0 1.054-.58 1.966-1.432 2.46 1.51.52 2.871 1.357 4.005 2.436 2.153-1.703 3.427-4.273 3.427-7.042 0-4.963-4.037-9-9-9s-9 4.037-9 9zm-3.949 16.004c-.03-.331-.051-.665-.051-1.004 0-3.744 1.884-7.053 4.75-9.041-.937-4.068-4.516-6.959-8.75-6.959-4.963 0-9 4.037-9 9s4.037 9 9 9c1.408 0 2.79-.355 4.051-.996zm10.949 7.996c4.963 0 9-4.037 9-9s-4.037-9-9-9-9 4.037-9 9 4.037 9 9 9zm-29.928-28.194 1.914.582c.203-.668.444-1.345.715-2.011l-1.851-.754c-.295.722-.556 1.456-.778 2.183zm11.548-12.175-1.084-1.682c-3.677 2.369-6.692 5.686-8.722 9.59l1.775.922c1.869-3.596 4.646-6.649 8.031-8.83zm27.084-.826-1.18 1.615c.506.369 1.009.771 1.496 1.195l1.313-1.51c-.529-.459-1.077-.897-1.629-1.3zm6.909 7.693c-.349-.6-.725-1.19-1.119-1.756l-1.641 1.145c.363.521.71 1.063 1.029 1.615zm-5.199-3.567c.441.452.872.933 1.279 1.427l1.543-1.273c-.443-.536-.911-1.058-1.391-1.55zm-9.414 23.214v-2.145h-2v2.145c-1.155.366-2 1.435-2 2.709 0 1.088.604 2.065 1.578 2.553l1.949.975c.292.145.473.438.473.764 0 .47-.384.854-.854.854h-.291c-.471 0-.855-.384-.855-.854v-.146h-2v.146c0 1.275.845 2.344 2 2.709v2.145h2v-2.145c1.155-.366 2-1.435 2-2.709 0-1.088-.604-2.065-1.578-2.553l-1.949-.975c-.292-.145-.473-.438-.473-.764 0-.47.384-.854.854-.854h.291c.471 0 .855.384.855.854v.146h2v-.146c0-1.274-.845-2.343-2-2.709zm-15-7v-2.145h-2v2.145c-1.155.366-2 1.435-2 2.709 0 1.088.604 2.065 1.578 2.553l1.949.975c.292.145.473.438.473.764 0 .47-.384.854-.854.854h-.291c-.471 0-.855-.384-.855-.854v-.146h-2v.146c0 1.275.845 2.344 2 2.709v2.145h2v-2.145c1.155-.366 2-1.435 2-2.709 0-1.088-.604-2.065-1.578-2.553l-1.949-.975c-.292-.145-.473-.438-.473-.764 0-.47.384-.854.854-.854h.291c.471 0 .855.384.855.854v.146h2v-.146c0-1.274-.845-2.343-2-2.709z" fill="url(#SVGID_1_)"/></svg>