<svg id="Layer_5" enable-background="new 0 0 64 64" height="512" viewBox="0 0 64 64" width="512" xmlns="http://www.w3.org/2000/svg" xmlns:xlink="http://www.w3.org/1999/xlink"><linearGradient id="SVGID_1_" gradientUnits="userSpaceOnUse" x1="32" x2="32" y1="63" y2=".991"><stop offset="0" stop-color="#9f2fff"/><stop offset="1" stop-color="#0bb1d3"/></linearGradient><path d="m29 20.979v5.021h6v-5.021c1.246-.939 2-2.416 2-3.979 0-2.757-2.243-5-5-5s-5 2.243-5 5c0 1.563.754 3.04 2 3.979zm3-6.979c1.654 0 3 1.346 3 3 0 1.068-.562 2.033-1.503 2.581l-.497.289v4.13h-2v-4.13l-.497-.289c-.941-.548-1.503-1.513-1.503-2.581 0-1.654 1.346-3 3-3zm-2.32 17.508c.736.326 1.516.492 2.32.492s1.584-.166 2.32-.492c5.273-2.344 8.68-7.587 8.68-13.357v-10.151h-4.395c-2.16 0-4.252-.634-6.051-1.832l-.554-.37-.555.37c-1.798 1.198-3.89 1.832-6.05 1.832h-4.395v10.151c0 5.77 3.407 11.013 8.68 13.357zm-6.68-21.508h2.395c2.337 0 4.607-.627 6.605-1.818 1.998 1.191 4.268 1.818 6.605 1.818h2.395v8.151c0 4.98-2.941 9.506-7.493 11.528-.955.426-2.06.426-3.015 0-4.551-2.022-7.492-6.547-7.492-11.528zm29.629 11.885 1.074-2.366-5.222-5.222-1.481.673v-10.97h-8.395c-1.368 0-2.694-.401-3.833-1.16l-2.772-1.849-2.773 1.849c-1.139.759-2.464 1.16-3.832 1.16h-8.395v10.97l-1.481-.673-5.223 5.223 1.075 2.365c-1.956 2.855-3.31 6.122-3.943 9.512l-2.428.91v7.386l2.428.912c.634 3.389 1.988 6.655 3.943 9.511l-1.075 2.365 5.223 5.223 2.366-1.075c.991.68 2.04 1.271 3.115 1.8v4.571h22v-4.573c1.075-.529 2.124-1.12 3.115-1.8l2.365 1.075 5.222-5.222-1.074-2.366c1.956-2.856 3.31-6.122 3.943-9.511l2.429-.911v-7.386l-2.428-.91c-.634-3.389-1.988-6.655-3.943-9.511zm-27.629 12.671c-.591-.344-1.268-.556-2-.556-1.103 0-2 .897-2 2v10.515c0 1.845.709 3.581 2 4.899v1.313c-6.103-3.296-10-9.751-10-16.727 0-4.705 1.685-9.105 4.766-12.576 1.196 4.042 3.747 7.58 7.234 10.005zm-.535 15.495c-.945-.946-1.465-2.201-1.465-3.536v-10.515c1.103 0 2 .897 2 2v5 2.415l.535.534c.945.946 1.465 2.201 1.465 3.536v1.515h2v-1.515c0-1.845-.709-3.581-2-4.899v-1.586-5-3.354c.346.181.696.357 1.056.517.31.138.625.258.944.362v3.725c-.634.215-1.221.556-1.708 1.043l1.415 1.414c.456-.456 1.062-.707 1.707-.707h7.172c.645 0 1.251.251 1.707.707l1.415-1.414c-.487-.487-1.074-.828-1.708-1.043v-5.821c.707-.492 1.374-1.028 2-1.607v12.761c0 .771-.183 1.545-.528 2.235l-1.472 2.946v3.236h-14v-2.415zm12.535-11.051h-2v-3.475c.319-.104.634-.225.944-.362.36-.16.71-.336 1.056-.516zm-4 0h-2v-3.052c.331.034.664.052 1 .052s.669-.018 1-.052zm8 13.726v-2.49l1.261-2.522c.484-.967.739-2.049.739-3.13v-14.923c1.455-1.849 2.561-3.962 3.234-6.237 3.081 3.471 4.766 7.87 4.766 12.576 0 6.977-3.897 13.431-10 16.726zm-22-46.726h6.395c1.764 0 3.473-.518 4.942-1.496l1.663-1.108 1.664 1.108c1.468.978 3.177 1.496 4.941 1.496h6.395v12.151c0 6.56-3.874 12.52-9.868 15.184-1.986.883-4.279.883-6.264 0-5.994-2.664-9.868-8.624-9.868-15.184zm-.424 48.67-.47-.339-2.152.978-3.263-3.262.978-2.152-.339-.47c-2.07-2.876-3.463-6.235-4.028-9.716l-.093-.572-2.209-.829v-4.614l2.208-.829.093-.572c.564-3.481 1.957-6.841 4.028-9.717l.339-.47-.978-2.152 3.263-3.262 1.047.474v.985c0 .996.086 1.977.241 2.941-3.963 3.928-6.241 9.32-6.241 14.908 0 7.533 4.108 14.522 10.586 18.235-.364.497-.586 1.103-.586 1.765v.172c-.834-.456-1.652-.946-2.424-1.502zm22.424 6.33h-18v-5c0-.552.449-1 1-1h16c.551 0 1 .448 1 1zm16-22.692-2.209.829-.093.572c-.564 3.48-1.957 6.84-4.027 9.716l-.338.47.977 2.151-3.263 3.263-2.152-.978-.47.339c-.772.556-1.59 1.046-2.424 1.502v-.172c0-.662-.222-1.268-.586-1.765 6.477-3.713 10.585-10.702 10.585-18.235 0-5.588-2.278-10.981-6.241-14.908.155-.964.241-1.945.241-2.941v-.985l1.046-.475 3.263 3.263-.977 2.151.338.47c2.071 2.876 3.463 6.235 4.027 9.717l.093.572 2.21.829z" fill="url(#SVGID_1_)"/></svg>