<svg height="480pt" viewBox="0 0 480 480.00056" width="480pt" xmlns="http://www.w3.org/2000/svg" xmlns:xlink="http://www.w3.org/1999/xlink"><linearGradient id="a" gradientUnits="userSpaceOnUse" x1="95.72828" x2="403.16828" y1="392.272555" y2="84.832555"><stop offset="0" stop-color="#41dfd0"/><stop offset="1" stop-color="#ee83ef"/></linearGradient><path d="m472 288h-46.695312l-43.257813-14.398438-14.046875-35.136718v-26.464844c-.054688-18.300781-13.863281-33.632812-32.054688-35.597656 0-1.097656.054688-2.195313.054688-3.289063v-117.113281c0-3.535156-2.316406-6.648438-5.703125-7.664062l-160-48c-1.5-.449219-3.09375-.449219-4.59375 0l-160 48c-3.382813 1.015624-5.703125 4.128906-5.703125 7.664062v117.113281c0 3.710938.25 7.375.382812 11.0625.203126 5.402344.503907 10.769531.984376 16.105469.082031.910156.191406 1.765625.28125 2.664062 9.824218 101.574219 71.363281 190.894532 162.777343 236.253907 2.25 1.125 4.898438 1.125 7.152344 0 11.964844-6.007813 23.519531-12.8125 34.574219-20.367188 2.511718 3.460938 5.683594 6.386719 9.335937 8.609375-7.988281 9.527344-9.734375 22.816406-4.480469 34.085938 5.253907 11.265625 16.558594 18.46875 28.992188 18.472656h136c1.582031 0 3.125-.46875 4.441406-1.34375l45.957032-30.65625h45.601562c4.417969 0 8-3.582031 8-8v-144c0-4.417969-3.582031-8-8-8zm-173.144531-39.304688 9.328125 23.304688h-46.480469c16.988281-30.472656 26.011719-64.742188 26.242187-99.632812l32.054688-9.613282v10.359375c0 1.710938-.054688 3.414063-.085938 5.128907-14.296874 5.078124-23.867187 18.585937-23.914062 33.757812v21.832031c-.003906 5.09375.964844 10.136719 2.855469 14.863281zm-114.855469 55.304688c.007812 8.171875 3.160156 16.03125 8.800781 21.945312-2.96875 2.160157-5.878906 4.398438-8.945312 6.398438l-15.855469 10.144531-15.824219-10.167969c-35.472656-22.738281-62.445312-56.558593-76.726562-96.199218l196.320312-58.898438c-1.09375 33.566406-11 66.253906-28.722656 94.777344h-27.046875c-17.671875 0-32 14.328125-32 32zm-163.65625-82.101562c-.0625-.402344-.136719-.800782-.199219-1.1875l31.792969-9.511719c.941406 4.800781 2.085938 9.601562 3.367188 14.289062l-32.25 9.679688c-1.054688-4.589844-1.925782-8.96875-2.710938-13.269531zm-3.6875-32.136719 31.640625-9.496094c.222656 5.015625.589844 10 1.167969 14.941406l-31.570313 9.472657c-.078125-.71875-.140625-1.429688-.222656-2.152344-.40625-4.125-.777344-8.3125-1.015625-12.765625zm255.34375-93.3125-208 62.398437v-57.207031l104.273438-37.238281 103.726562 29.628906zm0 16.703125v15.296875l-206.910156 62.070312c-.503906-4.96875-.816406-9.972656-.945313-15.007812zm48 17.601562v15.292969l-32 9.601563v-15.296876zm0-16.707031-32 9.601563v-15.296876l32-9.597656zm-252.671875 92.503906 130.175781-39.046875 74.496094-22.351562v15.296875l-201.375 60.414062c-1.265625-4.71875-2.394531-9.480469-3.296875-14.3125zm-51.328125-144.597656 152-45.601563 152 45.601563v20.09375l-32 9.601563v-3.648438c0-3.570312-2.367188-6.707031-5.800781-7.6875l-112-32c-1.601563-.464844-3.316407-.414062-4.886719.152344l-112 40c-3.1875 1.136718-5.3125 4.152344-5.3125 7.535156v67.648438l-32 9.601562zm152 361.070313c-68.90625-35.394532-120.046875-97.789063-141.230469-172.304688l33.335938-10c15.382812 43.304688 44.726562 80.261719 83.414062 105.058594l20.152344 12.953125c2.636719 1.695312 6.019531 1.695312 8.65625 0l20.152344-12.953125.207031-.136719c-2.816406 13.273437 3.148438 26.863281 14.824219 33.777344-4.855469 5.757812-7.515625 13.050781-7.511719 20.582031.015625 1.113281.089844 2.222656.222656 3.328125-10.289062 7.277344-21.050781 13.859375-32.222656 19.695313zm205.601562 40.976562h-133.601562c-8.835938 0-16-7.164062-16-16-.015625-8.304688 6.386719-15.214844 14.671875-15.832031 4.300781-.445313 7.507813-4.160157 7.320313-8.480469-.167969-4.296875-3.699219-7.691406-8-7.6875h-5.992188c-8.835938 0-16-7.164062-16-16s7.164062-16 16-16c4.417969 0 8-3.582031 8-8s-3.582031-8-8-8h-8c-8.835938 0-16-7.164062-16-16s7.164062-16 16-16c4.417969 0 8-3.582031 8-8s-3.582031-8-8-8h-8c-8.835938 0-16-7.164062-16-16s7.164062-16 16-16h104c2.65625.003906 5.140625-1.3125 6.628906-3.515625 1.492188-2.199219 1.792969-4.992187.804688-7.460937l-13.714844-34.269532c-1.140625-2.835937-1.722656-5.863281-1.71875-8.921875v-21.832031c0-11.046875 8.953125-20 20-20s20 8.953125 20 20v28c0 1.019531.195312 2.027344.566406 2.976562l16 40c.882813 2.179688 2.675782 3.867188 4.90625 4.617188l42.527344 14.175781v133.949219zm90.398438-32h-32v-128h32zm-31.390625-316.917969-12.304687 10.230469c-3.195313-3.847656-6.628907-7.492188-10.28125-10.910156l10.9375-11.683594c4.136718 3.875 8.027343 8.003906 11.648437 12.363281zm31.199219 94.582031-16-.917968c.128906-2.234375.191406-4.488282.191406-6.753906 0-2.773438-.09375-5.519532-.28125-8.238282l15.960938-1.082031c.207031 3.082031.316406 6.191406.320312 9.320313 0 2.570312-.070312 5.128906-.214844 7.671874zm-65.320313-104.800781c-4.046875-2.925781-8.269531-5.597656-12.648437-8l7.71875-14.015625c4.96875 2.738282 9.757812 5.785156 14.34375 9.121094zm59.199219 138.167969-15.246094-4.796875c1.503906-4.765625 2.707032-9.621094 3.597656-14.539063l15.746094 2.867188c-1.015625 5.5625-2.382812 11.058594-4.089844 16.453125zm-85.421875-152.628906c-4.652344-1.84375-9.414063-3.394532-14.257813-4.640625l4-15.496094c5.496094 1.410156 10.894532 3.167969 16.167969 5.261719zm64.796875 161.757812 14.53125 6.6875c-1.410156 3.082032-2.945312 6.089844-4.570312 9.023438l-14-7.757813c1.453124-2.585937 2.789062-5.234375 4.015624-7.945312zm5.601562-123.382812c3.054688 4.769531 5.808594 9.730468 8.238282 14.847656l-14.445313 6.863281c-2.148437-4.507812-4.574219-8.878906-7.265625-13.085937zm14.558594 30.597656c1.777344 5.386719 3.210938 10.882812 4.289063 16.449219l-15.703125 3.046875c-.957032-4.902344-2.21875-9.742188-3.777344-14.488282zm-100.167968-7.957031 5.953124-14.847657 2.855469 1.140626c25.519531 10.121093 42.238281 34.835937 42.136719 62.289062h-16c.066406-20.90625-12.671875-39.722656-32.113281-47.421875zm0 0" fill="url(#a)"/></svg>