<svg id="Layer_5" enable-background="new 0 0 64 64" height="512" viewBox="0 0 64 64" width="512" xmlns="http://www.w3.org/2000/svg" xmlns:xlink="http://www.w3.org/1999/xlink"><linearGradient id="SVGID_1_" gradientUnits="userSpaceOnUse" x1="32" x2="32" y1="63" y2="1"><stop offset="0" stop-color="#9f2fff"/><stop offset="1" stop-color="#0bb1d3"/></linearGradient><path d="m43.051 5h-.102c-6.589 0-11.949 5.36-11.949 11.949 0 2.852 1.021 5.613 2.877 7.776l3.123 3.645v2.63c0 3.309 2.691 6 6 6s6-2.691 6-6v-2.63l3.123-3.645c1.856-2.163 2.877-4.924 2.877-7.776 0-6.589-5.36-11.949-11.949-11.949zm-.051 30c-2.206 0-4-1.794-4-4v-2h8v2c0 2.206-1.794 4-4 4zm-1.665-17h3.33l-.601 9h-2.129zm9.27 5.425-3.065 3.575h-1.471l.6-9h1.331c1.654 0 3-1.346 3-3s-1.346-3-3-3h-.129c-1.574 0-2.89 1.23-2.993 2.801l-.08 1.199h-3.596l-.08-1.198c-.103-1.572-1.419-2.802-2.993-2.802h-.129c-1.654 0-3 1.346-3 3s1.346 3 3 3h1.331l.6 9h-1.471l-3.065-3.575c-1.544-1.802-2.395-4.102-2.395-6.476 0-5.486 4.463-9.949 9.949-9.949h.102c5.486 0 9.949 4.463 9.949 9.949 0 2.374-.851 4.674-2.395 6.476zm-3.802-7.425.071-1.067c.034-.523.473-.933.997-.933h.129c.552 0 1 .448 1 1s-.448 1-1 1zm-7.606 0h-1.197c-.552 0-1-.448-1-1s.448-1 1-1h.129c.524 0 .963.41.997.934zm20.803-15h-34c-1.654 0-3 1.346-3 3v27h-19c-1.654 0-3 1.346-3 3v26c0 1.654 1.346 3 3 3h28c1.654 0 3-1.346 3-3v-19h25c1.654 0 3-1.346 3-3v-34c0-1.654-1.346-3-3-3zm-27 59c0 .552-.448 1-1 1h-28c-.552 0-1-.448-1-1v-26c0-.552.448-1 1-1h28c.552 0 1 .448 1 1zm28-22c0 .552-.448 1-1 1h-25v-5c0-1.654-1.346-3-3-3h-7v-27c0-.552.448-1 1-1h34c.552 0 1 .448 1 1zm-43-3c-4.963 0-9 4.037-9 9v.193c0 2.036.7 4.032 1.972 5.623l2.028 2.535v1.649c0 2.757 2.243 5 5 5s5-2.243 5-5v-1.649l2.028-2.534c1.272-1.591 1.972-3.588 1.972-5.624v-.193c0-4.963-4.037-9-9-9zm0 22c-1.654 0-3-1.346-3-3v-1h6v1c0 1.654-1.346 3-3 3zm-1-13c0-.552.448-1 1-1s1 .448 1 1-.448 1-1 1-1-.448-1-1zm8 .193c0 1.583-.545 3.137-1.534 4.373l-1.947 2.434h-2.519v-4.184c1.161-.414 2-1.514 2-2.816 0-1.654-1.346-3-3-3s-3 1.346-3 3c0 1.302.839 2.402 2 2.816v4.184h-2.519l-1.946-2.434c-.99-1.236-1.535-2.79-1.535-4.373v-.193c0-3.859 3.141-7 7-7s7 3.141 7 7zm32-1.193h2v7c0 2.757-2.243 5-5 5h-13.586l3.293 3.293-1.414 1.414-6.707-6.707h18.414c1.654 0 3-1.346 3-3zm-18 6v2h-2v-2zm4 0v2h-2v-2zm10 2h-8v-2h8v-6h2v6c0 1.103-.897 2-2 2zm-52-31c0-2.757 2.243-5 5-5h11.586l-3.293-3.293 1.414-1.414 6.707 6.707h-16.414c-1.654 0-3 1.346-3 3v7h-2zm18 1v-2h2v2zm-4 0v-2h2v2zm-8-2h6v2h-6v6h-2v-6c0-1.103.897-2 2-2zm-2 30h2v2h-2zm0 4h2v2h-2zm0 4h2v2h-2zm24-14h2v2h-2zm0-8h2v2h-2zm0 4h2v2h-2zm28-4h2v2h-2zm0-4h2v2h-2zm0-4h2v2h-2zm-30-18h2v2h-2zm0 4h2v2h-2zm0-8h2v2h-2z" fill="url(#SVGID_1_)"/></svg>