<svg id="Line" height="512" viewBox="0 0 64 64" width="512" xmlns="http://www.w3.org/2000/svg"><path d="m61.5 38a25 25 0 1 0 -25 25 25 25 0 0 0 25-25zm-12.71 10.88 2.83 2.83a1 1 0 0 1 -1.41 1.41l-2.83-2.83a1 1 0 0 1 1.41-1.41zm7.71-11.88a1 1 0 0 1 0 2h-4a1 1 0 0 1 0-2zm-21-19a1 1 0 0 1 2 0v4a1 1 0 0 1 -2 0zm-11.29 9.12-2.83-2.83a1 1 0 0 1 1.41-1.41l2.83 2.83a1 1 0 0 1 -1.41 1.41zm23.17 0a1 1 0 0 1 0-1.41l2.83-2.83a1 1 0 0 1 1.41 1.41l-2.83 2.83a1 1 0 0 1 -1.41 0zm-30.88 11.88a1 1 0 0 1 0-2h4a1 1 0 0 1 0 2zm19 7v-5.18a3 3 0 1 1 3.82-3.82h8.18a1 1 0 0 1 0 2h-8.18a3 3 0 0 1 -1.82 1.82v5.18a1 1 0 0 1 -2 0zm-14.12 7.12a1 1 0 0 1 0-1.41l2.83-2.83a1 1 0 0 1 1.41 1.41l-2.83 2.83a1 1 0 0 1 -1.41 0zm14.12 4.88v-4a1 1 0 0 1 2 0v4a1 1 0 0 1 -2 0z" fill="#c4a2fc"/><g fill="#151a6a"><path d="m49.5 5h-5v-1a3 3 0 0 0 -6 0v1h-22v-1a3 3 0 0 0 -6 0v1h-5a3 3 0 0 0 -3 3v26a1 1 0 0 0 .29.71l12 12a1 1 0 0 0 .71.29h34a3 3 0 0 0 3-3v-36a3 3 0 0 0 -3-3zm-9-1a1 1 0 0 1 2 0v4a1 1 0 0 1 -2 0zm-28 0a1 1 0 0 1 2 0v4a1 1 0 0 1 -2 0zm-8 4a1 1 0 0 1 1-1h5v1a3 3 0 0 0 6 0v-1h22v1a3 3 0 0 0 6 0v-1h5a1 1 0 0 1 1 1v7h-46zm10 35.59-8.59-8.59h8.59zm36 .41a1 1 0 0 1 -1 1h-33v-11a1 1 0 0 0 -1-1h-11v-16h46z"/><path d="m35.5 29h8a1 1 0 0 0 1-1v-6a1 1 0 0 0 -1-1h-8a1 1 0 0 0 -1 1v6a1 1 0 0 0 1 1zm1-6h6v4h-6z"/></g></svg>