<svg xmlns="http://www.w3.org/2000/svg" width="131" height="49" fill="none" viewBox="0 0 131 49">
    <path fill="#201C1D" d="M42.158 17.973c-2.554 0-5.405.984-6.003 4.222-.063.344.165.508.385.559l2.617.313c.243-.012.407-.275.454-.523.223-1.115 1.14-1.64 2.164-1.64.553 0 1.174.189 1.501.697.375.566.349 1.336.349 1.99v.383c-1.556.18-3.604.287-5.06.943-1.681.747-2.862 2.267-2.862 4.502 0 2.863 1.755 4.293 4.014 4.293 1.907 0 2.962-.448 4.433-1.99.488.727.644 1.056 1.535 1.816.099.056.212.08.325.067.113-.012.219-.06.303-.137v.035c.536-.49 1.51-1.378 2.06-1.85.218-.183.17-.484 0-.732-.491-.695-1.013-1.255-1.013-2.547V24.08c0-1.819.154-3.495-1.151-4.747-1.03-1.013-2.746-1.361-4.05-1.361zm35.18 0c-2.555 0-5.404.984-6.003 4.222-.064.344.163.508.384.559l2.618.313c.242-.012.408-.275.453-.523.225-1.115 1.14-1.64 2.165-1.64.554 0 1.174.189 1.5.697.375.566.315 1.336.315 1.99v.383c-1.556.18-3.569.287-5.026.943-1.682.747-2.861 2.267-2.861 4.502 0 2.863 1.755 4.293 4.014 4.293 1.905 0 2.959-.448 4.432-1.99.487.727.645 1.056 1.536 1.816.2.107.45.096.627-.07v.035c.536-.49 1.511-1.378 2.06-1.85.217-.183.167-.484 0-.732-.49-.695-1.012-1.255-1.012-2.547V24.08c0-1.819.117-3.495-1.186-4.747-1.032-1.013-2.712-1.361-4.016-1.361zm-19.789.14c-1.65 0-2.875.832-3.525 2.617h-.034v-1.85c-.01-.126-.063-.245-.153-.335-.09-.09-.21-.145-.336-.154h-2.513c-.139.003-.27.058-.368.156-.098.098-.154.23-.156.368V33.05c.012.125.067.243.157.332.089.09.206.145.332.157h2.687c.139-.002.271-.057.369-.155.098-.098.154-.23.155-.369v-7.504c0-1.636-.08-3.874 1.85-3.874 1.904 0 1.64 2.3 1.64 3.874v7.504c0 .267.218.506.49.524h2.686c.139-.002.271-.057.369-.155.098-.098.154-.23.155-.369v-7.504c0-.803-.032-1.972.245-2.687.276-.715.953-1.186 1.606-1.186.777 0 1.37.271 1.57 1.222.125.565.07 2.058.07 2.652v7.504c0 .267.217.506.488.524h2.687c.139-.002.271-.057.369-.155.098-.098.154-.23.155-.369v-8.934c0-1.518.153-3.241-.698-4.433-.752-1.07-1.98-1.536-3.106-1.536-1.579 0-3.048.834-3.699 2.618-.752-1.785-1.813-2.619-3.492-2.619zm45.685 0c-3.883 0-6.037 3.413-6.037 7.817 0 4.373 2.13 7.887 6.037 7.887 3.759 0 6.143-3.433 6.143-7.749 0-4.459-2.16-7.956-6.143-7.956zm15.321 0c-1.855 0-2.915.927-3.664 2.86h-.035V18.81c-.048-.219-.255-.37-.489-.384h-2.478c-.128-.003-.253.042-.35.126-.097.084-.159.2-.174.327v14.135c.002.132.054.259.144.355.09.097.213.157.345.168h2.652c.139-.002.271-.057.369-.155.097-.098.153-.23.155-.368v-7.608c0-.954.081-1.824.454-2.687.301-.685.883-1.117 1.535-1.117 1.852 0 1.675 2.257 1.675 3.804v7.678c.018.12.076.231.165.314.089.082.203.132.325.14h2.687c.263 0 .492-.201.523-.454v-8.9c0-1.368.004-3.269-.698-4.398-.751-1.218-1.941-1.673-3.141-1.673zm-32.248.244c-.273 0-.488.216-.49.524v2.023c.002.303.21.522.49.524h4.607l-5.27 7.783c-.322.502-.349 1.07-.349 1.396v2.06c0 .297.323.62.628.453 3.003-1.64 6.602-1.494 9.318-.035.33.18.664-.157.664-.453v-2.164c-.008-.16-.057-.315-.143-.45-.085-.134-.205-.244-.346-.319-1.542-.887-3.33-1.158-5.026-1.117l4.572-6.7c.423-.603.66-.965.664-1.257v-1.744c0-.3-.206-.524-.49-.524h-8.83zm16.927 2.652c.851 0 1.479.38 1.781 1.362.348 1.131.384 2.544.384 3.734 0 1.814-.085 4.816-2.165 4.816-2.103 0-2.094-3.717-2.094-5.444 0-1.724.115-4.468 2.094-4.468zm-59.645 5.165v.593c0 1.074.039 1.977-.49 2.932-.426.776-1.096 1.257-1.849 1.257-1.027 0-1.64-.834-1.64-2.024 0-2.348 2.04-2.758 3.979-2.758zm35.18 0v.593c0 1.074.038 1.977-.49 2.932-.426.776-1.093 1.257-1.85 1.257-1.028 0-1.64-.834-1.64-2.024.001-2.348 2.038-2.758 3.98-2.758z"/>
    <path fill="#000" d="M96.184 33.992v2.024h1.362v-2.024h-1.362zm-39.472.349v14.413h1.256v-1.29c.268.51.573.894.943 1.15.368.258.791.385 1.256.385.923 0 1.719-.471 2.408-1.43.69-.96 1.048-2.35 1.048-4.12 0-1.158-.149-2.117-.454-2.931-.305-.812-.712-1.416-1.222-1.815-.509-.399-1.087-.628-1.71-.628-.432-.004-.856.117-1.221.349-.363.232-.657.61-.943 1.082V34.34h-1.361zm12.913 3.386c-.947 0-1.698.28-2.233.837-.535.557-.803 1.275-.803 2.165 0 .517.116.953.314 1.361.197.408.482.735.837.977.358.243 1.07.561 2.129.907.733.236 1.17.437 1.361.593.277.23.42.53.42.943 0 .478-.166.877-.49 1.186-.323.312-.772.453-1.361.453-.59 0-1.076-.165-1.431-.523-.355-.359-.547-.904-.628-1.641l-1.361.28c.307 2.238 1.424 3.35 3.35 3.35 1.028 0 1.814-.292 2.408-.907.594-.616.907-1.447.907-2.444 0-.538-.095-1.005-.28-1.396-.183-.39-.437-.68-.768-.907-.331-.225-1.07-.527-2.199-.907-.82-.287-1.3-.497-1.465-.627-.278-.221-.419-.523-.419-.907 0-.393.13-.726.42-.977.288-.252.734-.384 1.326-.384 1.04 0 1.623.571 1.744 1.71l1.327-.21c-.091-.72-.249-1.29-.489-1.676-.24-.386-.595-.712-1.048-.942-.45-.23-.97-.314-1.568-.314zm8.342 0c-1.091 0-2.011.449-2.723 1.396-.711.947-1.047 2.318-1.047 4.119 0 1.734.342 3.093 1.047 4.013.705.92 1.618 1.362 2.757 1.362.906 0 1.657-.272 2.269-.838.613-.566 1.057-1.4 1.29-2.513l-1.395-.244c-.401 1.426-1.14 2.126-2.165 2.129-.652 0-1.185-.278-1.64-.873-.456-.596-.714-1.48-.769-2.652h6.003v-.49c0-1.76-.35-3.083-1.047-4.013-.695-.93-1.54-1.396-2.58-1.396zm8.271 0c-.326 0-.61.11-.872.348s-.559.732-.873 1.465v-1.605h-1.221V48.37h1.361v-5.443c0-.76.072-1.49.245-2.165.098-.386.283-.691.523-.907.24-.215.514-.313.803-.313.321 0 .64.128.978.384l.453-1.64c-.476-.38-.941-.56-1.397-.56zm16.682 0c-1.078 0-1.966.453-2.653 1.361-.684.907-1.047 2.27-1.047 4.083 0 1.8.366 3.163 1.047 4.083.68.92 1.531 1.362 2.582 1.362.868 0 1.614-.323 2.234-.977.62-.655.997-1.618 1.151-2.862l-1.326-.21c-.099.89-.331 1.53-.698 1.955-.368.422-.81.627-1.327.627-.659 0-1.22-.307-1.641-.942-.421-.636-.627-1.652-.627-3.072 0-1.375.222-2.368.663-3.002.441-.633 1.003-.977 1.675-.977.449 0 .832.175 1.152.524.321.349.535.903.663 1.606l1.327-.28c-.16-1.098-.513-1.928-1.082-2.477-.57-.55-1.261-.802-2.093-.802zm7.783 0c-1.091 0-2.012.449-2.723 1.396-.711.947-1.048 2.318-1.048 4.119 0 1.734.343 3.093 1.048 4.013.706.92 1.618 1.362 2.757 1.362.904 0 1.656-.272 2.269-.838.612-.566 1.056-1.4 1.291-2.513l-1.396-.244c-.401 1.426-1.108 2.126-2.129 2.129-.652 0-1.219-.278-1.675-.873-.456-.596-.713-1.48-.769-2.652h6.003v-.49c0-1.76-.35-3.083-1.047-4.013-.693-.93-1.54-1.396-2.581-1.396zm8.062 0c-.949 0-1.699.28-2.234.837-.536.557-.803 1.275-.803 2.165 0 .517.082.953.28 1.361.196.407.48.735.837.977.355.243 1.071.561 2.129.907.73.236 1.205.437 1.396.593.277.23.419.53.419.943 0 .478-.166.877-.489 1.186-.322.312-.772.453-1.362.453-.591 0-1.075-.165-1.43-.523-.356-.359-.585-.904-.664-1.641l-1.361.28c.307 2.238 1.421 3.35 3.35 3.35 1.029 0 1.849-.292 2.444-.907.595-.616.907-1.447.907-2.444 0-.538-.095-1.005-.28-1.396-.184-.39-.471-.68-.803-.907-.33-.225-1.036-.527-2.164-.907-.82-.287-1.335-.497-1.501-.627-.278-.221-.419-.523-.419-.907 0-.393.164-.726.454-.977.289-.252.737-.384 1.326-.384 1.041 0 1.623.571 1.745 1.71l1.327-.21c-.093-.72-.248-1.29-.489-1.676-.257-.404-.619-.73-1.048-.942-.448-.23-.971-.314-1.567-.314zm-31.131.209l3.037 10.435h1.29l3.037-10.435h-1.396l-1.78 6.387c-.216.771-.405 1.438-.524 1.989-.148-.694-.29-1.422-.489-2.129l-1.744-6.247h-1.431zm8.55 0V48.37h1.362V37.936h-1.362zm-44.741.14c-1.08 0-1.95.484-2.653 1.43-.704.947-1.082 2.318-1.082 4.119 0 1.734.348 3.059 1.048 3.978.699.919 1.629 1.396 2.757 1.396.896 0 1.627-.306 2.234-.873.605-.566 1.024-1.399 1.256-2.512l-1.361-.21c-.397 1.426-1.117 2.126-2.129 2.128-.647 0-1.19-.277-1.64-.872-.452-.596-.714-1.48-.769-2.652h5.932l.035-.49c0-1.76-.357-3.118-1.047-4.048-.69-.93-1.553-1.395-2.581-1.395zm-15.322.244l2.444 10.435h1.43l1.606-8.027.28 1.78 1.29 6.247h1.397l2.478-10.435h-1.291l-1.362 6.037-.453 2.024-.419-2.024-1.186-6.037h-1.396l-1.256 6.108-.42 2.164-.488-2.234-1.257-6.037h-1.397v-.001zm86.867.105v.489h1.326v3.49h.524v-3.49h1.327v-.49h-3.177zm3.7 0v3.978h.489v-3.385l1.151 3.385h.489l1.152-3.316v3.316h.524v-3.978h-.733l-.943 2.792c-.094.279-.163.481-.209.627l-.21-.593-.943-2.826h-.767zm-48.757.732c.678 0 1.236.329 1.675.978.302.444.497 1.12.559 2.023h-4.502c.042-.916.301-1.622.733-2.164.43-.542.927-.837 1.535-.837zm32.737 0c.676 0 1.237.329 1.675.978.302.444.497 1.12.559 2.023H108.4c.042-.916.301-1.622.733-2.164.43-.54.925-.837 1.535-.837zm-59.225.385c.67 0 1.208.328 1.64.977.298.444.497 1.121.559 2.023h-4.433c.042-.915.27-1.657.698-2.199.426-.54.931-.801 1.536-.801zm8.655 0c.605 0 1.12.336 1.535.977.416.642.593 1.632.593 3.002 0 1.334-.196 2.33-.627 3.002-.431.672-.945 1.012-1.501 1.012-.409 0-.78-.138-1.117-.42-.337-.28-.584-.684-.768-1.221-.185-.537-.28-1.364-.28-2.444 0-1.272.227-2.224.664-2.897.437-.672.945-1.011 1.5-1.011z"/>
    <path fill="#F7A80D" d="M16.56 28.479l-5.2 2.233 4.816 2.06 5.584-2.06-5.2-2.233zM8.742 31.27l-.174 10.051 7.608 3.35V34.237L8.742 31.27zm15.636 0l-6.875 2.617v9.842l6.875-2.792V31.27zM32.58 0l-5.236 2.234 4.851 2.059 5.584-2.06L32.58 0zm-7.26 2.967V13.02l6.491 1.885.21-9.145-6.7-2.792zm14.519.559l-6.143 2.618v9.877l6.143-2.792V3.526zM7.992 14.146l-5.2 2.234 4.816 2.06 5.584-2.06-5.2-2.233zM.174 16.94L0 26.99l7.608 3.35V19.905L.174 16.939zm15.636 0l-6.876 2.617v9.842l6.876-2.792v-9.667zm8.934-3.163l-5.2 2.233 4.816 2.06 5.584-2.06-5.2-2.233zm-7.818 2.792l-.174 10.051 7.608 3.35V19.536l-7.434-2.967zm15.636 0l-6.875 2.618v9.841l6.875-2.792v-9.667zM48.942 0l-5.2 2.234 4.816 2.059 5.584-2.06L48.942 0zm-7.818 2.792l-.174 10.051 7.608 3.35V5.76l-7.434-2.967zm15.636 0L49.885 5.41v9.841l6.875-2.792V2.792z"/>
</svg>
