<svg xmlns="http://www.w3.org/2000/svg" width="88" height="61" fill="none" viewBox="0 0 88 61">
    <path fill="#00A1E0" d="M36.237 6.648c2.808-2.927 6.718-4.741 11.042-4.741 5.749 0 10.764 3.205 13.434 7.963 2.321-1.037 4.89-1.614 7.593-1.614 10.368 0 18.773 8.479 18.773 18.937 0 10.46-8.405 18.938-18.773 18.938-1.242 0-2.48-.123-3.698-.369-2.351 4.195-6.833 7.03-11.977 7.03-2.154 0-4.19-.498-6.004-1.382-2.384 5.608-7.939 9.54-14.413 9.54-6.741 0-12.487-4.266-14.693-10.248-.963.204-1.962.311-2.987.311C6.507 51.013 0 44.439 0 36.328c0-5.436 2.924-10.182 7.268-12.721-.895-2.058-1.392-4.33-1.392-6.717C5.876 7.562 13.449 0 22.789 0c5.484 0 10.358 2.607 13.448 6.648z"/>
    <path fill="#fff" d="M12.613 31.608c-.054.142.02.172.038.197.163.12.33.205.497.3.888.472 1.727.61 2.604.61 1.786 0 2.895-.95 2.895-2.48v-.03c0-1.414-1.252-1.928-2.426-2.299l-.153-.05c-.886-.287-1.65-.535-1.65-1.118v-.031c0-.499.447-.866 1.14-.866.768 0 1.681.255 2.27.58 0 0 .172.112.235-.055.035-.09.332-.891.363-.978.034-.094-.026-.164-.086-.2-.672-.409-1.6-.688-2.56-.688l-.178.001c-1.635 0-2.776.988-2.776 2.403v.03c0 1.492 1.259 1.976 2.438 2.313l.19.058c.86.265 1.6.492 1.6 1.097v.03c0 .553-.48.965-1.257.965-.302 0-1.263-.006-2.301-.663-.126-.073-.199-.126-.296-.184-.05-.033-.178-.088-.234.08l-.353.978zm26.15 0c-.054.142.02.172.037.197.164.12.33.205.498.3.888.472 1.727.61 2.603.61 1.787 0 2.896-.95 2.896-2.48v-.03c0-1.414-1.252-1.928-2.427-2.299l-.152-.05c-.886-.287-1.65-.535-1.65-1.118v-.031c0-.499.446-.866 1.139-.866.769 0 1.682.255 2.27.58 0 0 .172.112.235-.055.035-.09.333-.891.364-.978.033-.094-.026-.164-.087-.2-.671-.409-1.599-.688-2.56-.688l-.178.001c-1.635 0-2.776.988-2.776 2.403v.03c0 1.492 1.26 1.976 2.439 2.313l.19.058c.86.265 1.601.492 1.601 1.097v.03c0 .553-.482.965-1.259.965-.301 0-1.263-.006-2.3-.663-.126-.073-.2-.124-.295-.184-.032-.021-.184-.08-.236.08l-.352.978zm17.852-2.996c0 .865-.161 1.545-.479 2.027-.314.476-.789.708-1.451.708-.664 0-1.136-.23-1.445-.708-.313-.48-.472-1.162-.472-2.027 0-.863.159-1.543.472-2.02.309-.47.781-.7 1.445-.7.662 0 1.137.23 1.452.7.317.477.478 1.157.478 2.02zm1.49-1.603c-.146-.495-.374-.931-.678-1.295-.304-.364-.688-.657-1.145-.87-.455-.213-.993-.32-1.597-.32-.606 0-1.144.107-1.6.32-.456.213-.84.506-1.145.87-.303.365-.531.802-.679 1.295-.145.493-.218 1.031-.218 1.603 0 .572.073 1.111.218 1.603.148.493.375.93.68 1.295.304.364.69.656 1.145.863.456.207.993.312 1.599.312.604 0 1.141-.105 1.597-.312.456-.207.841-.499 1.146-.863.303-.364.532-.8.678-1.296.146-.492.22-1.031.22-1.602 0-.57-.074-1.11-.22-1.603zm12.245 4.107c-.05-.145-.19-.09-.19-.09-.217.083-.448.16-.693.198-.25.038-.524.058-.818.058-.722 0-1.295-.214-1.705-.638-.412-.425-.643-1.11-.64-2.038.002-.845.205-1.48.571-1.964.364-.481.917-.728 1.655-.728.615 0 1.084.07 1.575.226 0 0 .118.05.174-.103.13-.363.227-.622.366-1.02.04-.113-.057-.161-.092-.175-.193-.076-.65-.198-.995-.25-.322-.05-.7-.076-1.119-.076-.626 0-1.184.107-1.662.32-.476.212-.88.505-1.2.87-.32.364-.564.8-.726 1.294-.161.493-.243 1.034-.243 1.605 0 1.237.334 2.237.992 2.969.66.734 1.651 1.108 2.944 1.108.764 0 1.548-.155 2.111-.378 0 0 .108-.052.06-.177l-.365-1.01zm2.609-3.332c.07-.48.203-.88.408-1.191.309-.473.78-.732 1.442-.732.663 0 1.1.26 1.415.732.208.311.298.728.334 1.19h-3.6zm5.02-1.056c-.127-.478-.44-.96-.647-1.181-.325-.35-.642-.594-.957-.73-.412-.177-.906-.293-1.447-.293-.63 0-1.201.105-1.665.323-.466.219-.856.517-1.163.887-.306.37-.537.81-.683 1.31-.148.498-.222 1.04-.222 1.612 0 .581.077 1.123.23 1.61.153.492.399.925.731 1.284.331.36.758.643 1.27.84.507.197 1.123.298 1.831.297 1.458-.005 2.226-.33 2.542-.505.056-.03.11-.086.042-.242l-.33-.924c-.05-.138-.19-.087-.19-.087-.36.134-.874.375-2.071.372-.783 0-1.364-.231-1.727-.593-.373-.37-.556-.913-.588-1.68l5.047.006s.133-.003.147-.132c.005-.054.173-1.037-.15-2.174zm-45.442 1.056c.072-.48.203-.88.408-1.191.309-.473.78-.732 1.442-.732.663 0 1.1.26 1.416.732.207.311.297.728.333 1.19h-3.6zm5.018-1.056c-.126-.478-.439-.96-.645-1.181-.325-.35-.642-.594-.957-.73-.412-.177-.906-.293-1.447-.293-.628 0-1.202.105-1.665.323-.465.219-.856.517-1.163.887-.306.37-.537.81-.683 1.31-.146.498-.222 1.04-.222 1.612 0 .581.077 1.123.23 1.61.153.492.399.925.731 1.284.331.36.758.643 1.27.84.507.197 1.123.298 1.831.297 1.458-.005 2.226-.33 2.542-.505.056-.03.11-.086.042-.242l-.328-.924c-.051-.138-.191-.087-.191-.087-.361.134-.874.375-2.073.372-.782 0-1.362-.231-1.726-.593-.373-.37-.556-.913-.588-1.68l5.048.006s.132-.003.146-.132c.005-.054.173-1.037-.152-2.174zm-15.928 4.36c-.197-.157-.225-.197-.292-.298-.099-.155-.15-.376-.15-.657 0-.444.147-.762.45-.977-.003.001.435-.378 1.464-.365.723.01 1.37.117 1.37.117v2.295s-.64.137-1.362.18c-1.027.063-1.484-.296-1.48-.294zm2.008-3.546c-.205-.015-.47-.024-.788-.024-.433 0-.85.055-1.243.16-.394.106-.749.271-1.054.49-.305.217-.555.502-.732.832-.178.332-.269.724-.269 1.163 0 .447.077.835.23 1.152.155.32.377.585.66.79.28.204.626.354 1.028.445.395.09.844.136 1.336.136.517 0 1.033-.042 1.533-.128.495-.084 1.103-.207 1.271-.245.119-.029.236-.059.354-.09.125-.032.115-.166.115-.166l-.002-4.615c0-1.013-.27-1.763-.803-2.228-.53-.464-1.31-.699-2.318-.699-.379 0-.988.052-1.352.126 0 0-1.103.213-1.557.568 0 0-.1.062-.045.2l.358.96c.044.125.165.083.165.083s.038-.015.083-.041c.971-.529 2.199-.513 2.199-.513.546 0 .965.11 1.248.327.275.21.415.53.415 1.202v.213c-.434-.062-.832-.098-.832-.098zm40.71-2.6c.037-.115-.043-.17-.077-.182-.085-.033-.514-.124-.846-.145-.633-.038-.985.068-1.3.21-.313.141-.66.37-.854.629v-.614c0-.086-.06-.154-.145-.154h-1.294c-.084 0-.145.068-.145.154v7.528c0 .084.07.154.154.154h1.326c.04 0 .08-.017.108-.046.028-.029.044-.068.044-.108v-3.761c0-.505.056-1.008.168-1.325.109-.313.258-.563.441-.743.185-.179.395-.304.624-.375.235-.072.494-.095.678-.095.264 0 .554.068.554.068.097.011.151-.048.184-.136.086-.231.332-.922.38-1.06z"/>
    <path fill="#fff" d="M51.898 21.452c-.161-.05-.307-.083-.498-.119-.194-.034-.425-.052-.686-.052-.913 0-1.633.258-2.138.767-.502.506-.843 1.276-1.014 2.29l-.063.34h-1.146s-.139-.004-.168.147l-.188 1.05c-.013.1.03.163.164.163h1.115l-1.13 6.317c-.09.508-.19.926-.304 1.244-.11.313-.218.547-.352.718-.129.164-.25.285-.462.356-.173.058-.374.086-.594.086-.121 0-.284-.02-.404-.045-.119-.024-.182-.05-.273-.088 0 0-.13-.05-.182.08-.041.108-.339.926-.375 1.026-.035.1.015.179.078.203.15.052.26.086.462.135.28.066.517.07.739.07.464 0 .888-.067 1.24-.193.352-.128.659-.35.932-.65.294-.325.479-.665.655-1.13.175-.46.325-1.03.444-1.695l1.138-6.434h1.662s.14.005.169-.147l.188-1.05c.012-.1-.03-.162-.165-.162h-1.614c.009-.036.082-.604.267-1.139.08-.227.228-.412.353-.538.125-.124.267-.212.424-.263.16-.052.342-.077.542-.077.15 0 .3.017.414.04.156.034.217.052.258.064.165.05.187.001.22-.078l.385-1.06c.04-.114-.058-.162-.093-.176zM29.35 32.368c0 .085-.06.153-.145.153h-1.338c-.085 0-.144-.068-.144-.153V21.596c0-.084.06-.152.144-.152h1.338c.084 0 .145.068.145.152v10.772z"/>
</svg>
