<svg xmlns="http://www.w3.org/2000/svg" width="200" height="47" fill="none" viewBox="0 0 200 47">
    <path fill="#5C4835" fill-rule="evenodd" d="M71.233 34.389c-.563 1.478-1.156 2.388-3.102 2.388-1.948 0-2.54-.91-3.097-2.388l-5.767-14.837c-.276-.718-.357-1.152-.357-1.674 0-1.841 1.43-2.79 2.983-2.79 1.59 0 2.27 1.15 2.542 2.027l3.656 11.327h.08l3.654-11.328c.281-.876.954-2.026 2.543-2.026h5.626c1.455 0 2.412.794 2.61 2.189 1.403-1.518 3.242-2.39 5.37-2.39 2.398 0 4.412.995 5.92 2.904 1.584-1.834 4.111-2.904 6.073-2.904 4.665 0 7.834 2.709 7.834 7.715v10.994c0 1.906-1.191 3.182-2.852 3.182-1.668 0-2.852-1.275-2.852-3.182v-9.991c0-2.31-1.286-3.944-3.371-3.944-2.118 0-3.402 1.636-3.402 3.944v9.99c0 1.907-1.197 3.183-2.852 3.183-1.669 0-2.85-1.275-2.85-3.182v-9.991c0-2.31-1.29-3.944-3.374-3.944-2.358 0-3.406 1.636-3.406 3.944v9.99c0 1.907-1.188 3.183-2.848 3.183-1.667 0-2.853-1.275-2.853-3.182V19.308l-5.908 15.08zm38.527-16.394c-.156-.521-.282-.99-.282-1.352 0-.682.482-1.556 1.676-1.556.754 0 1.468.273 1.95 1.797l4.493 14.491h.079l4.414-13.974c.482-1.518.793-2.314 2.075-2.314 1.268 0 1.588.796 2.063 2.314l4.418 13.974h.082l4.488-14.491c.482-1.524 1.199-1.797 1.946-1.797 1.198 0 1.67.873 1.67 1.555 0 .357-.119.83-.278 1.351l-5.803 16.95c-.473 1.353-1.031 1.833-2.026 1.833-.96 0-1.551-.48-1.982-1.834l-4.536-14.32h-.08l-4.534 14.32c-.436 1.354-1.028 1.834-1.982 1.834-.999 0-1.551-.48-2.034-1.834l-5.817-16.947zm34.042 7.937c0-3.61 1.513-7.842 5.814-7.842s5.816 4.23 5.816 7.842c0 3.597-1.515 7.838-5.816 7.838s-5.814-4.24-5.814-7.838zm14.929-9.155c0-1.219-.96-1.69-1.634-1.69-.718 0-1.623.471-1.623 1.69v1.113h-.085c-1.629-1.784-3.341-2.803-5.773-2.803-5.976 0-9.319 5.203-9.319 10.845 0 5.64 3.343 10.845 9.319 10.845 2.274 0 4.259-1.027 5.773-3.168h.085v1.468c0 1.227.905 1.7 1.623 1.7.674 0 1.634-.471 1.634-1.7v-18.3zm4.607.182c0-1.153.672-1.867 1.743-1.867 1.074 0 1.759.713 1.759 1.867v1.8h.081c.791-1.64 2.745-3.666 4.773-3.666 1.225 0 1.948.794 1.948 1.79 0 .997-.723 1.632-2.193 1.913-2.069.357-4.609 1.913-4.609 6.017v10.09c0 1.154-.685 1.873-1.759 1.873-1.071 0-1.743-.719-1.743-1.873V16.959zm14.762 7.708c.116-3.249 1.662-6.736 6.004-6.576 3.865 0 5.615 3.526 5.615 6.576H178.1zm13.172 2.629c1.507 0 1.95-.642 1.95-1.869 0-5.137-3.343-10.34-9.118-10.34-5.932 0-9.514 5.084-9.514 10.854 0 5.635 2.951 10.837 9.715 10.837 4.139 0 8.476-2.606 8.476-4.32 0-1.004-.629-1.56-1.272-1.56-1.311 0-2.507 2.874-7.169 2.874-3.932 0-6.239-2.835-6.239-6.475h13.171v-.001z" clip-rule="evenodd"/>
    <path fill="#698DBA" fill-rule="evenodd" d="M10.89 0c-.9.001-1.762.36-2.398.996-.636.636-.994 1.498-.996 2.398v25.118c0 .9.358 1.764.994 2.4.636.638 1.5.996 2.4.997h25.122c.9 0 1.764-.359 2.4-.996.638-.637.995-1.5.995-2.401V3.394c-.002-.9-.36-1.762-.996-2.398C37.773.36 36.91.002 36.011 0H10.89zM9.4 28.51V3.395c0-.195.04-.389.114-.569.075-.18.185-.344.323-.482.139-.138.303-.247.484-.321.18-.074.374-.112.57-.112h25.121c.82 0 1.49.664 1.49 1.484v25.118c0 .826-.67 1.494-1.49 1.494H10.89c-.823 0-1.49-.668-1.49-1.495z" clip-rule="evenodd"/>
    <path fill="#698DBA" fill-rule="evenodd" d="M18.39 7.508c-.897.001-1.758.358-2.393.993-.634.635-.992 1.496-.993 2.393V36.02c0 .898.357 1.76.992 2.395.635.636 1.496.994 2.394.995h25.122c.9 0 1.762-.357 2.398-.993.637-.636.995-1.498.995-2.398V10.895c-.002-.898-.36-1.76-.996-2.394-.636-.635-1.498-.992-2.397-.992H18.39zM16.902 36.02V10.894c.001-.393.158-.771.437-1.05.279-.277.657-.434 1.05-.433h25.122c.825 0 1.487.662 1.487 1.483V36.02c0 .826-.662 1.486-1.487 1.486H18.39c-.195 0-.388-.038-.569-.112-.18-.075-.344-.184-.482-.322s-.248-.302-.322-.483c-.075-.18-.113-.373-.113-.569z" clip-rule="evenodd"/>
    <path fill="#698DBA" fill-rule="evenodd" d="M3.392 15.012c-.9 0-1.761.358-2.397.994-.636.636-.994 1.498-.995 2.397v25.121c0 .446.087.887.258 1.299.17.411.42.785.735 1.1.315.315.689.565 1.1.735.412.17.854.258 1.299.257h25.12c.445 0 .886-.087 1.298-.257.411-.17.785-.42 1.1-.735.316-.315.566-.69.736-1.1.17-.412.259-.853.259-1.299V18.403c-.003-.9-.36-1.76-.997-2.396-.636-.636-1.497-.994-2.396-.995H3.392zm-1.49 28.511V18.402c0-.817.666-1.486 1.491-1.486h25.12c.822 0 1.49.669 1.49 1.486v25.121c0 .821-.668 1.492-1.49 1.492H3.392c-.395 0-.774-.158-1.054-.438s-.436-.658-.436-1.054z" clip-rule="evenodd"/>
    <path fill="#5C4835" fill-rule="evenodd" d="M195.931 15.45v.462h-1.102v3.162h-.554v-3.162h-1.095v-.463h2.751zm3.523 3.624l-.149-2.174c-.022-.293-.006-.635-.017-.995h-.022c-.09.342-.199.729-.314 1.045l-.745 2.072h-.427l-.729-2.122c-.094-.297-.184-.659-.274-.995h-.023c-.008.345 0 .657-.022.986l-.129 2.183h-.533l.276-3.625h.736l.699 1.959c.09.276.166.573.256.916h.023c.077-.343.158-.654.261-.922l.697-1.953h.709l.274 3.625h-.547z" clip-rule="evenodd"/>
</svg>
