<svg xmlns="http://www.w3.org/2000/svg" xmlns:xlink="http://www.w3.org/1999/xlink" width="1207" height="446" fill="none"><g opacity=".4"><path fill="#F4FAFF" d="M250.46 8.001h-11.614a5.807 5.807 0 00-5.807 5.807v11.614c0 3.207 2.6 5.807 5.807 5.807h11.614c3.207 0 5.807-2.6 5.807-5.807V13.808c0-3.207-2.6-5.807-5.807-5.807zm2.235 18.554s-.841-1.373-2.238-1.373c-1.35 0-2.148 1.373-4.874 1.373-6.061 0-8.934-4.964-8.934-4.964 5.462 3.53 9.194 1.029 9.194 1.029-2.466-1.398-7.697-8.09-7.697-8.09 4.56 3.804 6.528 4.803 6.528 4.803-1.183-.95-4.481-5.602-4.481-5.602 2.639 2.616 7.884 6.263 7.884 6.263 1.504-4.03-1.419-7.638-1.419-7.638 7.14 4.76 4.825 9.992 4.825 9.992s2.027 2.242 1.212 4.207zm-30.658 340.944c0 4.526 2.631 8.441 6.447 10.293l-5.456-14.949a11.397 11.397 0 00-.991 4.656zm19.161-.578c0-1.413-.509-2.393-.943-3.154-.58-.943-1.123-1.74-1.123-2.684 0-1.051.795-2.029 1.921-2.029.049 0 .098.006.147.01a11.39 11.39 0 00-7.723-3.004 11.422 11.422 0 00-9.557 5.156c.269.009.52.015.735.015 1.197 0 3.049-.147 3.049-.147.615-.035.688.869.071.943 0 0-.618.072-1.308.109l4.166 12.389 2.503-7.506-1.783-4.883a21.77 21.77 0 01-1.199-.109c-.617-.037-.544-.978.073-.943 0 0 1.888.147 3.012.147 1.195 0 3.05-.147 3.05-.147.614-.035.687.869.07.943 0 0-.617.072-1.308.109l4.135 12.294 1.141-3.81c.58-1.487.871-2.718.871-3.699zm-7.521 1.579l-3.433 9.974a11.441 11.441 0 007.031-.185 1.003 1.003 0 01-.082-.156l-3.516-9.633zm9.836-6.49c.05.366.078.756.078 1.178 0 1.16-.217 2.464-.871 4.097l-3.493 10.1a11.428 11.428 0 005.686-9.885 11.392 11.392 0 00-1.4-5.49z"/><path fill="#fff" d="M45.96 77.966c2.049 0 3.963-.186 5.743-.557 1.78-.372 3.184-.92 4.212-1.646v2.203c0 .596-.445 1.15-1.335 1.66-.89.509-2.1.913-3.629 1.211-1.53.298-3.193.447-4.99.447-1.798 0-3.461-.149-4.99-.447-1.53-.298-2.74-.702-3.63-1.212-.89-.51-1.335-1.063-1.335-1.659v-2.203c1.028.725 2.432 1.274 4.213 1.646 1.78.371 3.694.557 5.742.557zm0 9.955c2.049 0 3.963-.186 5.743-.558 1.78-.371 3.184-.92 4.212-1.646v2.204c0 .596-.445 1.149-1.335 1.659-.89.51-2.1.914-3.629 1.212-1.53.298-3.193.447-4.99.447-1.798 0-3.461-.15-4.99-.447-1.53-.298-2.74-.702-3.63-1.212-.89-.51-1.335-1.063-1.335-1.66v-2.203c1.028.726 2.432 1.275 4.213 1.646 1.78.372 3.694.558 5.742.558zm0-4.978c2.049 0 3.963-.185 5.743-.557 1.78-.371 3.184-.92 4.212-1.646v2.203c0 .597-.445 1.15-1.335 1.66-.89.51-2.1.913-3.629 1.212-1.53.298-3.193.447-4.99.447-1.798 0-3.461-.15-4.99-.448-1.53-.298-2.74-.702-3.63-1.211-.89-.51-1.335-1.063-1.335-1.66V80.74c1.028.726 2.432 1.275 4.213 1.646 1.78.372 3.694.557 5.742.557zm0-14.932c1.798 0 3.462.15 4.991.448 1.53.298 2.74.702 3.63 1.212.89.51 1.334 1.062 1.334 1.659v1.659c0 .596-.445 1.149-1.335 1.659-.89.51-2.1.914-3.629 1.212-1.53.298-3.193.447-4.99.447-1.798 0-3.461-.15-4.99-.447-1.53-.298-2.74-.702-3.63-1.212-.89-.51-1.335-1.063-1.335-1.66V71.33c0-.597.445-1.15 1.335-1.66.89-.51 2.1-.913 3.63-1.211 1.529-.299 3.192-.448 4.99-.448z"/><path fill="#F4FAFF" d="M818.682 413.613c-.25 0-.419.03-.594.071v.028h.03c.117.223.316.386.464.586.117.23.217.46.334.687l.03-.032c.204-.142.303-.369.303-.715-.086-.101-.099-.202-.173-.301-.087-.144-.273-.215-.39-.328l-.004.004zm-23.047 28.341h-2.009a108.091 108.091 0 00-.585-9.473h-.017l-3.056 9.473h-1.527l-3.034-9.473h-.022c-.223 2.842-.364 5.999-.422 9.473h-1.832c.12-4.223.416-8.184.889-11.879h2.492l2.893 8.73h.017l2.919-8.73h2.373c.525 4.328.832 8.291.928 11.879h-.007zm8.705-8.764c-.819 4.392-1.898 7.589-3.233 9.58-1.045 1.538-2.189 2.305-3.43 2.305-.332 0-.737-.099-1.227-.297v-1.061c.238.037.52.056.836.056.581 0 1.047-.161 1.403-.477.426-.387.639-.82.639-1.299 0-.333-.167-1.01-.499-2.028l-2.197-6.779h1.972l1.575 5.069c.356 1.151.505 1.955.445 2.412.866-2.285 1.469-4.783 1.809-7.481h1.907zm26.709 8.764h-5.7v-11.879h1.918v10.418h3.782v1.461zm-7.195.29l-2.201-1.074a4.74 4.74 0 00.552-.537c.938-1.087 1.404-2.703 1.404-4.84 0-3.931-1.556-5.898-4.67-5.898-1.525 0-2.717.498-3.575 1.497-.932 1.091-1.4 2.698-1.4 4.822 0 2.088.412 3.622 1.244 4.597.758.881 1.9 1.321 3.43 1.321.572 0 1.097-.071 1.571-.211l2.872 1.659.78-1.336h-.007zm-7.134-2.668c-.487-.773-.73-2.019-.73-3.729 0-2.992.919-4.489 2.752-4.489.96 0 1.669.358 2.117 1.074.486.777.729 2.01.729 3.701 0 3.015-.919 4.528-2.753 4.528-.964 0-1.668-.359-2.119-1.074l.004-.011zm-3.593-.913c0 1.009-.372 1.839-1.118 2.483-.745.644-1.74.967-2.999.967-1.177 0-2.306-.37-3.409-1.107l.514-1.022c.949.472 1.805.704 2.579.704.719 0 1.285-.156 1.696-.472.408-.316.651-.761.651-1.321 0-.709-.499-1.31-1.405-1.815a242.43 242.43 0 01-2.52-1.411c-.914-.66-1.369-1.367-1.369-2.529 0-.966.34-1.74 1.018-2.33.683-.597 1.56-.892 2.644-.892 1.109 0 2.123.292 3.034.881l-.462 1.022c-.78-.326-1.549-.494-2.306-.494-.613 0-1.087.147-1.417.443-.331.292-.537.666-.537 1.125 0 .705.507 1.311 1.443 1.826.852.462 2.572 1.439 2.572 1.439.939.656 1.404 1.354 1.404 2.509l-.013-.006zm20.332-12.57c-1.16-.03-2.059.086-2.811.404-.217.086-.564.086-.594.358.119.114.137.301.238.46.174.288.473.672.75.874.304.236.607.464.926.666.563.344 1.202.548 1.755.894.314.202.635.457.953.672.159.107.26.301.464.369v-.043c-.1-.128-.13-.315-.227-.459-.146-.144-.291-.273-.434-.415a6.95 6.95 0 00-1.506-1.45c-.464-.313-1.478-.751-1.669-1.278l-.028-.03c.317-.028.694-.142.997-.227.492-.129.943-.101 1.452-.228.23-.058.462-.129.694-.202v-.129c-.261-.258-.456-.608-.724-.848a19.101 19.101 0 00-2.393-1.768c-.455-.288-1.031-.473-1.51-.718-.173-.086-.464-.129-.564-.272-.26-.314-.411-.731-.595-1.105a37.192 37.192 0 01-1.186-2.498c-.26-.562-.418-1.123-.737-1.639-1.495-2.442-3.114-3.922-5.604-5.37-.535-.3-1.176-.429-1.855-.588-.361-.017-.723-.043-1.083-.058-.238-.101-.468-.374-.672-.505-.823-.515-2.956-1.632-3.562-.155-.39.933.578 1.852.914 2.325.249.328.563.704.737 1.074.102.249.13.504.232.764.229.632.448 1.336.752 1.927.158.301.331.616.535.887.117.157.316.23.362.488-.204.292-.217.717-.334 1.074-.52 1.626-.316 3.636.421 4.833.231.356.784 1.147 1.523.844.65-.258.507-1.074.693-1.794.044-.172.016-.285.104-.401v.032c.204.404.408.788.594 1.192.447.705 1.227 1.435 1.879 1.922.347.258.622.705 1.055.864v-.043h-.032c-.093-.125-.217-.185-.334-.286a7.341 7.341 0 01-.758-.859 18.82 18.82 0 01-1.619-2.616c-.239-.451-.438-.937-.629-1.381-.086-.172-.086-.43-.231-.516-.217.314-.536.587-.694.973-.275.619-.303 1.379-.407 2.17-.059.015-.031 0-.059.03-.464-.112-.622-.589-.795-.988-.434-1.021-.505-2.66-.13-3.834.102-.301.535-1.251.362-1.538-.091-.273-.377-.43-.535-.651a5.276 5.276 0 01-.521-.918c-.346-.803-.52-1.692-.897-2.495-.173-.372-.476-.761-.724-1.102-.275-.387-.578-.66-.797-1.117-.071-.157-.173-.417-.058-.589.03-.116.091-.161.203-.193.191-.155.726.047.915.133.535.215.986.417 1.434.717.204.142.423.415.683.486h.303c.464.101.986.03 1.42.157a9.257 9.257 0 012.084.988 12.827 12.827 0 014.519 4.91c.173.331.249.634.407.977.303.709.678 1.424.986 2.11.303.676.596 1.366 1.032 1.926.216.301 1.087.458 1.477.615.289.129.737.247.997.404.499.3.984.644 1.452.975.239.163.96.522 1.004.812z"/><path fill="#F4FAFF" fill-rule="evenodd" d="M623.855 264.697c2.835 0 5.2-2.017 5.743-4.697h2.378c-.569 3.983-3.988 7.045-8.121 7.045a8.193 8.193 0 01-6.855-3.701l-1.35 1.353V260h4.688l-1.631 1.634a5.858 5.858 0 005.148 3.063zm5.743-7.045h-2.227l1.631-1.634a5.856 5.856 0 00-10.89 1.634h-2.379c.569-3.983 3.988-7.045 8.122-7.045a8.191 8.191 0 016.854 3.701l1.35-1.352v4.696h-2.461zm-24.496-1.174a7.05 7.05 0 013.518-6.102c.123-5.729 4.798-10.336 10.546-10.336 3.79 0 7.113 2.002 8.973 5.008a7.622 7.622 0 019.295 4.634 7.047 7.047 0 015.174 6.796c0 3.883-3.149 7.044-7.033 7.044h-2.268c.366-.737.648-1.524.835-2.348h1.437c2.587 0 4.685-2.108 4.685-4.696a4.695 4.695 0 00-4.685-4.697h-.036a5.278 5.278 0 00-5.242-4.696 5.247 5.247 0 00-3.279 1.145c-1.018-3.38-4.15-5.842-7.856-5.842-4.531 0-8.204 3.68-8.204 8.219 0 .441.035.875.101 1.297a4.7 4.7 0 001.067 9.27h1.176v2.348h-1.172c-3.883 0-7.032-3.154-7.032-7.044z" clip-rule="evenodd"/><path fill="#F4FAFF" d="M1003.68 12.969a2.417 2.417 0 00-1.67-.533h-4.134v4.23h4.204c.58.017 1.16-.183 1.6-.562.22-.204.38-.451.49-.725.11-.273.16-.567.15-.862.01-.288-.04-.576-.15-.843a2.036 2.036 0 00-.49-.705zm-.58-2.73c.2-.173.35-.389.45-.63.1-.241.15-.502.13-.763a1.748 1.748 0 00-.51-1.442 2.24 2.24 0 00-1.42-.416h-3.874v3.735h3.874c.5.01 1-.161 1.39-.484h-.04zM1008.52 0h-15.483a3.872 3.872 0 00-3.871 3.871v15.485a3.872 3.872 0 003.871 3.872h15.483c1.03 0 2.01-.408 2.74-1.134a3.852 3.852 0 001.13-2.738V3.871c0-1.026-.4-2.011-1.13-2.737A3.879 3.879 0 001008.52 0zm-2.12 16.308c-.18.47-.49.884-.89 1.2a4.35 4.35 0 01-1.56.793c-.73.216-1.49.317-2.25.3h-6.224V5.052h6.584a4.676 4.676 0 012.9.832c.38.3.67.686.87 1.127.19.44.27.92.23 1.4.04.615-.12 1.227-.44 1.751-.36.506-.86.899-1.43 1.132a2.96 2.96 0 011.93 1.181c.45.682.68 1.487.65 2.303a3.7 3.7 0 01-.37 1.53z"/><path stroke="#F4FAFF" stroke-miterlimit="10" d="M119.075 288.272l-10.057-5.81.004-11.615 10.06-5.803 10.057 5.811-.005 11.614-10.059 5.803z"/><path stroke="#F4FAFF" stroke-miterlimit="10" d="M109.022 270.847v.004l10.053 5.807 10.059-5.803v-.003l-10.052-5.808-10.06 5.803z"/><path stroke="#F4FAFF" stroke-miterlimit="10" d="M109.021 270.851l-.003.002.196 11.607 10.153 5.637.003-.001-.195-11.607-10.154-5.638z"/><path fill="#004279" stroke="#F4FAFF" stroke-miterlimit="10" d="M119.076 283.008l-5.498-3.176.002-6.351 5.5-3.173 5.499 3.177-.002 6.351-5.501 3.172z"/><path fill="#004279" stroke="#fff" stroke-miterlimit="10" d="M113.58 273.481v.002l5.496 3.175 5.501-3.173v-.001l-5.497-3.176-5.5 3.173z"/><path fill="#004279" stroke="#fff" stroke-miterlimit="10" d="M113.579 273.483l-.001.001.106 6.347 5.552 3.082h.002l-.107-6.348-5.552-3.082z"/><path fill="#F4FAFF" d="M1177.2 331.056l1.86 20.876 8.33 2.351 8.39-2.351 1.86-20.876h-20.44zm14.7 16.353l-5.83 2.422-5.07-2.422.52-3.229h2.15l-.21 1.334 3.07 1.459 3.52-1.459.5-3.078h-8.77l.42-2.694h8.78l.27-1.733h-8.77l.43-2.695h10.92l-1.93 12.095zM140.868 160.626h2.397l-.225 2.449-2.172.569h-.003l-2.17-.569-.143-1.571h-1.957l.28 3.03 3.99 1.073.003-.002 3.992-1.071.533-5.794h-7.097l-.178-1.932h7.453l.174-1.886h-9.755l.526 5.704h4.352z"/><path fill="#F4FAFF" d="M140.635 147.025c-6.414 0-11.613 5.2-11.613 11.614 0 6.414 5.199 11.613 11.613 11.613 6.415 0 11.614-5.199 11.614-11.613s-5.199-11.614-11.614-11.614zm3.243 3.586h.731v1.465h1.028v.722h-1.759v-2.187zm-2.827 0h.762l.469.768.469-.768h.762v2.188h-.728v-1.085l-.503.778h-.012l-.504-.778v1.085h-.715v-2.188zm-2.339 0h2.019v.725h-.645v1.463h-.73v-1.463h-.644v-.725zm-2.449 0h.731v.723h.669v-.723h.731v2.188h-.731v-.733h-.669v.733h-.731v-2.188zm9.386 14.879l-4.699 1.304-4.695-1.305-1.046-11.731h11.486l-1.046 11.732zm263.004 253.372c0 8.724-7.072 15.795-15.795 15.795-8.723 0-15.795-7.071-15.795-15.795 0-8.723 7.072-15.794 15.795-15.794 8.723 0 15.795 7.071 15.795 15.794z"/><path fill="#004279" d="M390.063 423.59s-.813.473.579.633c1.687.193 2.549.165 4.408-.187 0 0 .488.307 1.171.572-4.167 1.786-9.431-.103-6.158-1.018zm-.508-2.33s-.913.675.481.819c1.801.186 3.224.201 5.687-.273 0 0 .34.346.876.534-5.038 1.474-10.65.117-7.044-1.08zm4.293-3.953c1.026 1.182-.27 2.245-.27 2.245s2.607-1.345 1.409-3.031c-1.118-1.571-1.975-2.352 2.667-5.045 0 0-7.287 1.82-3.806 5.831z"/><path fill="#004279" d="M399.358 425.314s.602.496-.663.88c-2.405.728-10.01.948-12.123.029-.76-.331.665-.789 1.113-.885.467-.102.734-.083.734-.083-.845-.595-5.459 1.168-2.344 1.673 8.496 1.378 15.487-.62 13.283-1.614zm-8.903-6.469s-3.869.919-1.37 1.253c1.055.141 3.158.109 5.117-.055 1.601-.135 3.209-.422 3.209-.422s-.565.241-.973.52c-3.929 1.034-11.518.553-9.333-.504 1.848-.893 3.35-.792 3.35-.792zm6.94 3.879c3.994-2.075 2.147-4.069.858-3.8-.316.065-.456.122-.456.122s.117-.183.341-.263c2.549-.896 4.51 2.644-.823 4.046 0 0 .061-.055.08-.105zm-2.407-15.595s2.212 2.212-2.098 5.614c-3.456 2.729-.788 4.285-.001 6.063-2.017-1.82-3.498-3.422-2.505-4.913 1.458-2.189 5.496-3.25 4.604-6.764z"/><path fill="#004279" d="M390.848 428.348c3.833.245 9.72-.136 9.859-1.95 0 0-.268.687-3.168 1.233-3.272.616-7.307.544-9.7.15 0 0 .489.405 3.009.567z"/><path fill="#fff" d="M925.504 404.068a15.78 15.78 0 00-2.649.226c-2.344.414-2.77 1.281-2.77 2.881v2.112h5.541v.703h-7.621c-1.61 0-3.02.968-3.461 2.81-.509 2.111-.532 3.428 0 5.632.393 1.64 1.334 2.809 2.945 2.809h1.905v-2.532c0-1.829 1.582-3.442 3.461-3.442h5.535c1.541 0 2.771-1.269 2.771-2.816v-5.277c0-1.501-1.267-2.629-2.771-2.88a17.253 17.253 0 00-2.886-.226zm-2.997 1.699c.572 0 1.04.475 1.04 1.059 0 .582-.468 1.053-1.04 1.053-.575 0-1.04-.471-1.04-1.053a1.05 1.05 0 011.04-1.059z"/><path fill="#fff" d="M931.851 409.99v2.461c0 1.908-1.617 3.513-3.461 3.513h-5.535c-1.516 0-2.771 1.298-2.771 2.816v5.277c0 1.502 1.306 2.385 2.771 2.816 1.754.516 3.436.609 5.535 0 1.395-.404 2.77-1.217 2.77-2.816v-2.112h-5.535v-.704h8.306c1.61 0 2.211-1.123 2.771-2.809.578-1.736.554-3.406 0-5.632-.398-1.603-1.159-2.809-2.771-2.809h-2.08v-.001zm-3.113 13.363c.575 0 1.04.47 1.04 1.052a1.05 1.05 0 01-1.04 1.06 1.052 1.052 0 01-1.039-1.06c0-.582.467-1.052 1.039-1.052zM448.183 17.803V29.42l-2.875 1.656V19.472l-7.19-4.154-7.193 4.154.018 11.607-2.871-1.66V17.812l10.065-5.81 10.046 5.801zm-8.622 13.272l-1.433.834-1.443-.825V19.472l-2.871 1.66.005 11.607 4.304 2.49 4.314-2.49V21.128l-2.876-1.66v11.607zM854.954 8.001l-10.812 3.856 1.649 14.297 9.163 5.075 9.163-5.075 1.649-14.297-10.812-3.856z"/><path fill="#DDD" d="M854.954 8.001v2.579-.012 20.661l9.163-5.075 1.649-14.297-10.812-3.856z"/><path fill="#0A478A" d="M854.954 10.568l-6.759 15.156h2.52l1.359-3.391h5.737l1.359 3.391h2.52l-6.736-15.156zm1.975 9.674h-3.949l1.974-4.75 1.975 4.75z"/><path fill="#fff" d="M1025.74 325.055l-11.57 11.566 3.58 3.58 15.15-15.146h-7.16zm-.08 10.666l-6.2 6.193 3.6 3.648 3.57-3.574 6.27-6.267h-7.24z"/><path fill="#A7A7A7" d="M1023.06 345.562l2.72 2.72h7.12l-6.27-6.294-3.57 3.574z"/><path fill="#DDD" d="M1019.42 341.955l3.58-3.581 3.63 3.614-3.57 3.574-3.64-3.607z"/><path fill="url(#prefix__paint0_linear)" fill-opacity=".8" d="M1023.06 345.562l2.97-.988.3-2.284-3.27 3.272z"/><path fill="#fff" fill-rule="evenodd" d="M10.47 216.136H5.324l-.708 2.669H0l5.494-16.166h4.925l5.497 16.166h-4.728l-.718-2.669zm-.946-3.496l-1.617-5.812-1.606 5.812h3.223zm4.552.816l4.3-.297c.091.772.282 1.359.567 1.765.464.655 1.13.979 1.995.979.644 0 1.14-.166 1.491-.501.347-.335.521-.722.521-1.163 0-.417-.163-.794-.497-1.125-.334-.331-1.103-.644-2.314-.937-1.982-.493-3.394-1.145-4.238-1.961-.851-.817-1.277-1.856-1.277-3.121 0-.831.218-1.618.654-2.356.435-.737 1.089-1.317 1.964-1.742.874-.422 2.073-.633 3.594-.633 1.869 0 3.295.384 4.275 1.152.98.768 1.563 1.991 1.75 3.666l-4.258.275c-.113-.727-.35-1.257-.715-1.588-.36-.328-.861-.494-1.498-.494-.527 0-.922.121-1.188.369a1.18 1.18 0 00-.398.9c0 .256.11.485.327.692.214.215.718.411 1.518.595 1.974.471 3.387.948 4.241 1.43.854.482 1.477 1.077 1.865 1.792.389.711.586 1.509.586 2.394a5.517 5.517 0 01-.78 2.864 4.984 4.984 0 01-2.174 1.991c-.93.452-2.104.678-3.52.678-2.485 0-4.207-.527-5.164-1.589-.96-1.057-1.5-2.401-1.627-4.035zm13.021-10.817h7.509c1.634 0 2.86.429 3.673 1.291.813.858 1.222 2.085 1.222 3.67 0 1.633-.443 2.909-1.331 3.828-.889.918-2.243 1.377-4.065 1.377h-2.47v6h-4.538v-16.166zm4.537 6.892h1.107c.87 0 1.48-.166 1.834-.501.35-.335.528-.764.528-1.283 0-.509-.153-.941-.46-1.291-.303-.354-.878-.531-1.722-.531h-1.287v3.606z" clip-rule="evenodd"/><path fill="#fff" d="M41.312 218.61v-13.766h1.838v1.956c.888-1.514 2.168-2.27 3.84-2.27.728 0 1.395.15 2.004.446.613.301 1.067.691 1.37 1.177.306.483.515 1.058.64 1.722.073.434.112 1.19.112 2.27v8.465h-2.048v-8.377c0-.946-.078-1.659-.236-2.133a2.19 2.19 0 00-.846-1.123c-.407-.284-.88-.425-1.427-.425-.873 0-1.621.319-2.258.947-.631.632-.946 1.827-.946 3.593v7.518h-2.043zm21.198-4.434l2.113.297c-.334 1.411-.95 2.504-1.85 3.283-.904.775-2.055 1.164-3.455 1.164-1.765 0-3.165-.619-4.196-1.859-1.036-1.239-1.552-2.978-1.552-5.217 0-2.319.524-4.115 1.567-5.394 1.047-1.279 2.4-1.92 4.068-1.92 1.614 0 2.932.628 3.952 1.88 1.024 1.253 1.536 3.018 1.536 5.288 0 .142-.004.35-.012.624h-8.997c.074 1.514.45 2.673 1.125 3.474.675.805 1.512 1.208 2.52 1.208.749 0 1.389-.226 1.92-.677.532-.447.95-1.164 1.26-2.151zm-6.713-3.774h6.736c-.09-1.155-.35-2.027-.772-2.602-.651-.899-1.497-1.35-2.532-1.35-.939 0-1.73.358-2.37 1.075-.64.717-.993 1.677-1.062 2.877zm15.86 6.12l.296 2.062a6.75 6.75 0 01-1.544.208c-.745 0-1.318-.133-1.73-.403a2.148 2.148 0 01-.86-1.058c-.167-.433-.252-1.354-.252-2.752v-7.921h-6.522v-1.814h6.522v-3.412l2.036-1.398v4.81h2.055v1.814h-2.055v8.049c0 .668.034 1.093.104 1.284.074.19.19.34.353.456.163.11.396.168.698.168.23 0 .528-.031.9-.093z"/><path fill="#fff" fill-rule="evenodd" d="M38.26 215.063c.9 0 1.629.74 1.629 1.652 0 .912-.73 1.652-1.63 1.652-.898 0-1.628-.74-1.628-1.652 0-.912.73-1.652 1.629-1.652z" clip-rule="evenodd"/><path fill="#fff" fill-rule="evenodd" stroke="#fff" stroke-width="1.102" d="M73.542 204.828h.823v.819h-.823v-.819z" clip-rule="evenodd"/><path fill="#fff" d="M236.084 229.862c0 .613.066 1.111.182 1.475.133.365.299.763.531 1.194a.72.72 0 01.116.381c0 .166-.1.332-.315.498l-1.045.696a.797.797 0 01-.431.149c-.165 0-.331-.083-.497-.232a5.178 5.178 0 01-.597-.779 13.072 13.072 0 01-.514-.978c-1.293 1.525-2.917 2.287-4.874 2.287-1.392 0-2.503-.397-3.315-1.193-.812-.796-1.227-1.857-1.227-3.183 0-1.409.497-2.553 1.509-3.415 1.011-.862 2.354-1.293 4.061-1.293.564 0 1.144.05 1.757.133.614.082 1.244.215 1.907.364v-1.21c0-1.26-.265-2.138-.779-2.652-.531-.514-1.426-.763-2.702-.763-.581 0-1.177.066-1.791.216-.613.149-1.21.331-1.79.563a4.751 4.751 0 01-.58.216 1.016 1.016 0 01-.266.049c-.232 0-.348-.165-.348-.513v-.813c0-.265.033-.464.116-.58.083-.116.232-.232.464-.348.581-.299 1.277-.547 2.089-.746a10.036 10.036 0 012.586-.315c1.973 0 3.415.448 4.344 1.343.911.895 1.376 2.254 1.376 4.078v5.371h.033zm-6.731 2.52c.547 0 1.111-.1 1.708-.299.597-.199 1.127-.563 1.575-1.061.265-.315.464-.663.563-1.061.1-.397.166-.878.166-1.442v-.696a13.81 13.81 0 00-1.525-.282 12.55 12.55 0 00-1.558-.099c-1.111 0-1.923.215-2.47.663-.548.447-.813 1.077-.813 1.906 0 .779.199 1.36.614 1.757.397.415.978.614 1.74.614zm13.312 1.79c-.298 0-.497-.05-.63-.166-.132-.099-.248-.331-.348-.646l-3.896-12.815c-.099-.331-.149-.547-.149-.663 0-.265.133-.414.398-.414h1.625c.315 0 .53.05.646.166.133.099.232.331.332.646l2.785 10.974 2.586-10.974c.083-.331.182-.547.315-.646.132-.1.364-.166.663-.166h1.326c.315 0 .531.05.663.166.133.099.249.331.315.646l2.619 11.107 2.868-11.107c.1-.331.216-.547.332-.646.133-.1.348-.166.646-.166h1.542c.265 0 .415.132.415.414 0 .083-.017.166-.034.265-.016.1-.049.233-.116.415l-3.995 12.814c-.099.332-.215.547-.348.647-.133.099-.348.166-.63.166h-1.426c-.315 0-.53-.05-.663-.166-.132-.116-.248-.332-.315-.663l-2.569-10.693-2.553 10.676c-.083.332-.182.547-.315.663-.133.116-.365.166-.663.166h-1.426zm21.302.448c-.862 0-1.724-.1-2.553-.299-.828-.199-1.475-.414-1.906-.663-.265-.149-.448-.315-.514-.464a1.174 1.174 0 01-.099-.464v-.846c0-.348.132-.513.381-.513a.94.94 0 01.298.049c.1.033.249.1.415.166a8.95 8.95 0 001.823.58 9.93 9.93 0 001.973.199c1.044 0 1.857-.182 2.42-.547.564-.365.862-.895.862-1.575 0-.464-.149-.845-.447-1.16-.299-.315-.862-.597-1.675-.862l-2.403-.746c-1.21-.382-2.106-.945-2.653-1.691-.547-.73-.829-1.542-.829-2.404 0-.696.15-1.31.448-1.84a4.237 4.237 0 011.194-1.359 5.246 5.246 0 011.724-.862 7.22 7.22 0 012.088-.282c.365 0 .746.016 1.111.066.381.05.73.116 1.078.182.331.083.646.166.945.266.298.099.53.199.696.298.232.133.398.265.497.414.1.133.149.315.149.548v.779c0 .348-.132.53-.381.53-.132 0-.348-.066-.63-.199-.945-.431-2.006-.646-3.183-.646-.945 0-1.691.149-2.205.464-.513.315-.779.796-.779 1.475 0 .464.166.862.498 1.177.331.315.945.63 1.823.912l2.354.746c1.194.381 2.056.912 2.57 1.592.514.679.762 1.458.762 2.32 0 .713-.149 1.36-.431 1.923a4.45 4.45 0 01-1.21 1.459c-.514.415-1.127.713-1.84.929a7.886 7.886 0 01-2.371.348z"/><path fill="#fff" fill-rule="evenodd" d="M267.101 242.676c-5.454 4.029-13.379 6.167-20.192 6.167-9.549 0-18.152-3.531-24.651-9.399-.514-.464-.05-1.094.564-.73 7.029 4.078 15.699 6.549 24.667 6.549 6.051 0 12.699-1.26 18.816-3.846.912-.415 1.691.596.796 1.259z" clip-rule="evenodd"/><path fill="#fff" fill-rule="evenodd" d="M269.372 240.09c-.696-.895-4.608-.431-6.382-.215-.531.066-.613-.398-.133-.746 3.117-2.188 8.239-1.558 8.836-.829.597.746-.166 5.868-3.083 8.322-.448.381-.879.182-.68-.315.663-1.641 2.139-5.338 1.442-6.217z" clip-rule="evenodd"/><path fill="#fff" d="M1149.8 208.36a5.268 5.268 0 00-4.88 3.267 5.253 5.253 0 00-.31 3.058c.21 1.027.71 1.97 1.45 2.71s1.69 1.244 2.71 1.448c1.03.205 2.09.1 3.06-.301.97-.4 1.79-1.079 2.38-1.949a5.298 5.298 0 00-.66-6.681 5.32 5.32 0 00-3.75-1.552zm7.6.469c1.34 0 2.41-1.079 2.41-2.411a2.405 2.405 0 00-2.41-2.411 2.412 2.412 0 000 4.822z"/><path fill="#fff" d="M1160.37 208.842l-.1-.222-.16.184c-.39.448-.89.792-1.45 1.001l-.16.057.06.158c.85 2.048.96 4.329.31 6.448a9.494 9.494 0 01-15.95 3.743 9.435 9.435 0 01-2.59-5.91 9.485 9.485 0 017.12-9.833c2.14-.55 4.42-.33 6.42.621l.15.072.06-.158c.24-.55.61-1.032 1.07-1.405l.19-.158-.21-.112a11.493 11.493 0 00-5.33-1.294c-2.51 0-4.95.813-6.96 2.317-2 1.504-3.47 3.617-4.18 6.025-.71 2.407-.61 4.979.26 7.33.88 2.35 2.49 4.354 4.6 5.711a11.64 11.64 0 007.11 1.815c2.5-.178 4.88-1.163 6.78-2.805a11.622 11.622 0 003.74-6.307c.54-2.451.26-5.01-.78-7.293v.015zm9.47-.245h-2.45v10.111h2.45v-10.111zm26.43 0h-2.45v10.111h2.45v-10.111zm-8.1-.237c-1.73 0-3.06 1.038-3.36 1.324l-.16-1.087h-2.04v10.111h2.45v-6.122c0-1.194 1.63-2.183 2.82-2.183 1.2 0 2.09 1.14 2.09 2.499v5.806h2.45v-5.564c-.01-2.651-1.15-4.784-4.25-4.784zm14.53 8.511c-1.84 0-3.06-1.441-3.06-3.219 0-1.777 1.22-3.218 3.06-3.218 1.57 0 2.53 1.522 2.53 1.522l1.77-1.187c-.51-.79-1.11-1.264-1.91-1.754-.7-.423-1.5-.65-2.32-.655-3.06 0-5.4 2.3-5.42 5.292.02 2.993 2.36 5.293 5.42 5.293a4.558 4.558 0 002.31-.656c.8-.488 1.4-.963 1.91-1.753l-1.77-1.187s-.95 1.522-2.52 1.522zm-26.47-8.511a5.246 5.246 0 00-3.76 1.51 5.165 5.165 0 00-1.14 1.714c-.27.642-.4 1.331-.4 2.026 0 2.867 2.15 5.335 5.33 5.335 2.89 0 5.26-2.212 5.26-5.274 0-3.505-2.75-5.311-5.29-5.311zm.03 2.079c1.52 0 2.95 1.232 2.95 3.218 0 1.943-1.43 3.211-2.96 3.211-1.68 0-3-1.353-3-3.227 0-1.832 1.31-3.202 3.02-3.202h-.01z"/><path fill="#F4FAFF" d="M986.903 220.81c1.519 0 2.531.28 3.037.841.505.56.626 1.523.361 2.886-.276 1.421-.808 2.434-1.597 3.042-.789.607-1.989.91-3.601.91h-2.431l1.492-7.679h2.739zm-9.739 15.453h3.997l.948-4.878h3.424c1.511 0 2.753-.158 3.729-.476.976-.317 1.862-.849 2.661-1.596a8.207 8.207 0 001.626-2.038c.415-.742.71-1.561.884-2.457.423-2.175.103-3.87-.957-5.083-1.06-1.214-2.747-1.821-5.059-1.821h-7.687l-3.566 18.349zm20.204-23.227h3.962l-.94 4.878h3.53c2.22 0 3.75.388 4.6 1.163.84.776 1.1 2.032.76 3.769l-1.66 8.539h-4.03l1.58-8.119c.18-.923.11-1.553-.2-1.889-.31-.336-.98-.504-1.99-.504h-3.17l-2.043 10.512h-3.965l3.566-18.349zm20.732 7.774c1.52 0 2.53.28 3.04.841.5.56.62 1.523.36 2.886-.28 1.421-.81 2.434-1.6 3.042-.79.607-1.99.91-3.6.91h-2.43l1.49-7.679h2.74zm-9.74 15.453h4l.95-4.878h3.42c1.51 0 2.75-.158 3.73-.476.98-.317 1.86-.849 2.66-1.596a8.317 8.317 0 001.63-2.038 8.22 8.22 0 00.88-2.457c.42-2.175.1-3.87-.96-5.083-1.06-1.214-2.74-1.821-5.05-1.821h-7.69l-3.57 18.349zM501.696 433.334a2.068 2.068 0 00-1.913 2.862 2.075 2.075 0 001.913 1.278 2.068 2.068 0 001.913-2.862 2.075 2.075 0 00-1.913-1.278zm-5.799 6.188l-.457-.116c-3.405-.86-5.358-2.321-5.358-4.006s1.953-3.145 5.358-4.006l.457-.115.129.453a22.71 22.71 0 001.319 3.463l.097.206-.097.206a22.566 22.566 0 00-1.319 3.463l-.129.452zm-.669-7.07c-2.588.727-4.176 1.839-4.176 2.948 0 1.108 1.588 2.22 4.176 2.948a24.281 24.281 0 011.144-2.948 23.895 23.895 0 01-1.144-2.948zm12.267 7.07l-.129-.454a22.56 22.56 0 00-1.32-3.462l-.097-.206.097-.206a22.531 22.531 0 001.32-3.463l.129-.453.458.115c3.404.861 5.357 2.321 5.357 4.007 0 1.686-1.953 3.146-5.357 4.006l-.458.116zm-.475-4.122a23.874 23.874 0 011.144 2.948c2.589-.728 4.176-1.84 4.176-2.948 0-1.109-1.588-2.22-4.176-2.948a23.895 23.895 0 01-1.144 2.948zm-11.799-2.953l-.128-.452c-.958-3.373-.667-5.791.796-6.635 1.435-.828 3.74.15 6.154 2.629l.33.337-.33.338a22.826 22.826 0 00-2.344 2.872l-.13.186-.228.02c-1.235.097-2.46.295-3.663.59l-.457.115zm1.835-6.416c-.259 0-.488.056-.682.167-.962.555-1.132 2.483-.469 5.084a24.46 24.46 0 013.129-.485 23.941 23.941 0 011.986-2.462c-1.51-1.47-2.94-2.304-3.964-2.304zm9.281 19.706c-.001 0-.001 0 0 0-1.379 0-3.151-1.038-4.988-2.925l-.329-.338.329-.338a22.89 22.89 0 002.343-2.872l.13-.187.227-.02a22.733 22.733 0 003.665-.589l.457-.115.129.453c.956 3.372.666 5.79-.797 6.633a2.302 2.302 0 01-1.166.298zm-3.964-3.272c1.509 1.47 2.939 2.305 3.963 2.305h.001c.258 0 .488-.057.681-.168.962-.554 1.133-2.483.469-5.085-1.031.23-2.077.392-3.13.485a23.827 23.827 0 01-1.984 2.463zm5.798-10.018l-.457-.115a22.717 22.717 0 00-3.665-.59l-.227-.02-.13-.186a22.731 22.731 0 00-2.343-2.872l-.329-.338.329-.337c2.413-2.478 4.717-3.456 6.154-2.629 1.463.844 1.754 3.262.797 6.634l-.129.453zm-3.814-1.65c1.106.101 2.156.264 3.13.485.664-2.601.493-4.529-.469-5.084-.956-.552-2.753.294-4.645 2.137a24.056 24.056 0 011.984 2.462zm-7.301 14.94a2.306 2.306 0 01-1.167-.298c-1.463-.843-1.754-3.26-.796-6.633l.127-.453.457.115c1.118.282 2.351.48 3.663.589l.228.02.129.187a22.906 22.906 0 002.345 2.872l.329.338-.329.338c-1.837 1.887-3.608 2.925-4.986 2.925zm-1.151-6.22c-.664 2.602-.493 4.531.469 5.085.955.545 2.751-.295 4.646-2.137a23.953 23.953 0 01-1.986-2.463 24.112 24.112 0 01-3.129-.485zm5.791.608c-.797 0-1.615-.035-2.435-.103l-.227-.019-.131-.187c-.464-.666-.9-1.351-1.307-2.053a29.646 29.646 0 01-1.128-2.157l-.097-.206.097-.206c.346-.734.723-1.453 1.128-2.156.401-.693.841-1.384 1.307-2.054l.131-.187.227-.019a28.707 28.707 0 014.871 0l.226.019.13.187a29.095 29.095 0 012.436 4.21l.098.206-.098.206a28.575 28.575 0 01-2.436 4.21l-.13.187-.226.019a29.6 29.6 0 01-2.436.103zm-2.126-1.049c1.432.107 2.82.107 4.253 0 .8-1.17 1.511-2.399 2.126-3.676a27.708 27.708 0 00-2.127-3.676 28.201 28.201 0 00-4.252 0 27.598 27.598 0 00-2.127 3.676 28.287 28.287 0 002.127 3.676zM621.104 73.54l9.215 1.335v-8.816h-9.215v7.481zm0-8.74h9.215v-8.818l-9.215 1.335v7.482zm10.474 10.257l12.365 1.791v-10.79h-12.365v9zm0-19.258v9h12.365V54.01l-12.365 1.79zM764.109 54.1v11.135h.006c.078.94.943 1.688 1.991 1.688h11.197c1.047 0 1.912-.748 1.991-1.688h.006V54.1h-15.191zm-.581 8.155c0 1.099-.765 1.997-1.7 1.997-.935 0-1.7-.898-1.7-1.997V55.72c0-1.099.765-1.997 1.7-1.997.935 0 1.7.898 1.7 1.997v6.536z"/><path fill="#F4FAFF" d="M770.616 70.367c0 1.099-.766 1.997-1.701 1.997s-1.7-.898-1.7-1.997v-6.536c0-1.099.765-1.997 1.7-1.997.935 0 1.701.898 1.701 1.997v6.536zm5.669 0c0 1.099-.766 1.997-1.701 1.997s-1.7-.898-1.7-1.997v-6.536c0-1.099.765-1.997 1.7-1.997.935 0 1.701.898 1.701 1.997v6.536zm7.069-8.112c0 1.099-.765 1.997-1.7 1.997-.935 0-1.701-.898-1.701-1.997V55.72c0-1.099.766-1.997 1.701-1.997s1.7.898 1.7 1.997v6.536zm-7.894-14.851l1.091-1.958c.089-.16.063-.346-.058-.414-.121-.067-.294.008-.383.168l-1.116 2.003a9.002 9.002 0 00-3.29-.61 8.97 8.97 0 00-3.312.62l-1.121-2.013c-.089-.16-.261-.235-.382-.168-.122.068-.148.254-.059.414l1.097 1.968c-2.282 1.07-3.818 3.083-3.818 5.388 0 .235.016.466.047.693h15.097c.031-.227.047-.458.047-.693 0-2.312-1.547-4.33-3.84-5.398zm-7.203 3.417a.664.664 0 110-1.327.664.664 0 010 1.327zm6.932 0a.664.664 0 110-1.327.664.664 0 010 1.327zm-265.561 6.331c-.029-2.895 2.36-4.283 2.467-4.353-1.343-1.964-3.435-2.233-4.18-2.264-1.779-.18-3.473 1.048-4.376 1.048-.901 0-2.295-1.022-3.771-.996-1.94.03-3.729 1.13-4.728 2.867-2.016 3.496-.516 8.678 1.448 11.516.96 1.387 2.106 2.948 3.608 2.891 1.448-.057 1.994-.936 3.745-.936 1.75 0 2.242.936 3.773.907 1.557-.028 2.545-1.414 3.497-2.806 1.102-1.612 1.556-3.172 1.583-3.251-.034-.016-3.035-1.166-3.066-4.623zm-2.879-8.495c.797-.968 1.337-2.311 1.19-3.65-1.15.047-2.542.765-3.367 1.731-.74.858-1.386 2.223-1.213 3.537 1.283.099 2.591-.653 3.39-1.618zm161.353 374.218h-9.987c-.665 0-1.2.536-1.2 1.2v17.59c0 .664.535 1.2 1.2 1.2h9.987c.665 0 1.2-.536 1.2-1.2v-17.59c0-.659-.54-1.2-1.2-1.2zm-6.808.923h3.63a.143.143 0 010 .287h-3.63a.143.143 0 110-.287zm-.442 17.931h-1.408a.383.383 0 010-.764h1.408a.382.382 0 110 .764zm3.05-.069a.487.487 0 01-.486.486h-.62a.487.487 0 01-.486-.486v-.62c0-.268.218-.486.486-.486h.62c.268 0 .486.218.486.486v.62zm2.871.069h-1.408a.383.383 0 010-.764h1.408a.382.382 0 110 .764zm1.909-1.864h-11.147v-14.808h11.147v14.808z"/><path fill="#F4FAFF" d="M656.172 441.665v-2.45h-8.703V420.55h14.599v1.586h1.393v-2.291c0-.981-.793-1.775-1.775-1.775h-13.831c-.981 0-1.78.794-1.78 1.775v20.074c0 .982.794 1.775 1.775 1.775h8.322c.005-.01 0-.019 0-.029zm-1.404-.546c-.347 0-.625-.278-.625-.625s.278-.624.625-.624.625.277.625.624-.278.625-.625.625zm-43.029-1.428c0-.242.193-.436.434-.436h6.252a.435.435 0 110 .872h-6.252a.434.434 0 01-.434-.436zm25.143-2.774h-43.344v-29.033h43.344v29.033zm8.618 2.987c0-.645-.522-1.169-1.165-1.169v-.083h-6.183a.906.906 0 00.536-.828v-30.849a.904.904 0 00-.904-.907h-45.149a.906.906 0 00-.903.907v30.849c0 .368.221.687.536.828h-6.005v.081a1.167 1.167 0 00-1.165 1.17c0 .647.522 1.171 1.165 1.171h58.072a1.168 1.168 0 001.165-1.17zM948.442 88.675l-4.259-4.258a1.312 1.312 0 01-.319-.42 1.307 1.307 0 01-.032-1.034 1.294 1.294 0 011.768-.678c.159.079.301.19.416.325l5.161 5.162a1.287 1.287 0 010 1.807l-5.161 5.161a1.289 1.289 0 01-2.136-.915 1.29 1.29 0 01.303-.891l4.259-4.259zm-22.183 0l4.259 4.259a1.286 1.286 0 01-.08 1.751 1.295 1.295 0 01-1.753.055l-5.161-5.161a1.29 1.29 0 010-1.807l5.161-5.162a1.29 1.29 0 011.833 1.807l-4.259 4.258zm9.756 10.633a1.295 1.295 0 01-1.55.895 1.29 1.29 0 01-.953-1.515l5.161-20.646a1.29 1.29 0 112.504.62l-5.162 20.646z"/><path fill="#fff" d="M54.17 351.684c-.092-.244-.185-.528-.278-.772-.743-2.111-1.3-4.994-1.626-8.039-.511-5.603 0-11.652 1.998-11.815 1.114-.081 1.997 1.787 2.554 3.329.744 2.112 1.301 4.994 1.627 8.04.51 5.603 0 11.652-1.998 11.815-.976.04-1.765-1.219-2.276-2.558zm1.905-17.946c-.697-1.705-1.393-2.314-1.812-2.274-1.254.081-2.183 4.791-1.532 11.369.278 3.045.836 5.846 1.579 7.957.79 2.315 1.626 3.086 2.09 3.046 1.255-.082 2.184-4.791 1.534-11.369-.28-3.045-.837-5.846-1.58-7.958-.093-.284-.186-.568-.279-.771z"/><path fill="#fff" d="M47.853 336.296c-.558-1.34-.883-2.761-.093-3.248 1.626-1.015 6.457 3.369 10.127 7.998 1.998 2.517 3.623 5.035 4.599 7.105.697 1.503 1.394 3.451.465 3.979-1.626 1.015-6.458-3.37-10.128-7.998-2.044-2.477-3.67-4.994-4.645-7.065a3.975 3.975 0 01-.325-.771zm14.54 12.789c-.093-.243-.186-.487-.325-.771-.976-2.03-2.602-4.507-4.553-7.024-4.32-5.441-8.455-8.527-9.477-7.918-.371.244-.418 1.3.604 3.492.976 2.03 2.602 4.507 4.553 7.024 4.32 5.441 8.455 8.526 9.477 7.917.325-.162.418-1.015-.279-2.72z"/><path fill="#98CEFB" d="M47.666 345.106l-8.176 2.558-.14 4.629 4.971-1.584 5.017-1.583-1.672-4.02z"/><path fill="#D7E9F9" d="M45.994 341.046l-5.017 1.543-4.971 1.583 3.484 3.492 8.176-2.558-1.672-4.06z"/><path fill="#fff" d="M69.965 338.082c1.115 2.639-4.46 6.821-12.403 9.338-7.944 2.477-15.284 2.355-16.399-.284 1.58 3.898 9.338 5.035 17.282 2.518 7.99-2.518 13.146-7.674 11.52-11.572z"/><path fill="#DCEFFF" d="M57.562 347.42c7.944-2.517 13.518-6.658 12.403-9.338l-28.802 9.054c1.115 2.639 8.455 2.761 16.399.284z"/><path fill="#33A2FF" d="M53.612 337.798c7.944-2.517 15.284-2.355 16.4.284-1.58-3.898-9.338-5.034-17.282-2.517-7.944 2.517-13.147 7.674-11.567 11.571-1.069-2.679 4.46-6.861 12.45-9.338z"/><path fill="#9AD1FF" d="M53.613 337.798c-7.944 2.517-13.519 6.659-12.404 9.338l28.803-9.054c-1.115-2.679-8.455-2.801-16.4-.284z"/><path fill="#fff" d="M54.308 350.75c-.603-1.746-1.114-4.019-1.44-6.496 3.67 4.588 8.409 8.892 10.035 7.917l-.28-.325c-1.021.609-5.156-2.476-9.476-7.917l-.418-.487c0-.203-.047-.406-.047-.609-.604-6.578.326-11.287 1.533-11.369l-.046-.406c-1.997.163-2.509 6.091-1.997 11.694-1.58-2.071-2.834-4.101-3.624-5.806-1.069-2.233-1.022-3.289-.604-3.492l-.279-.325c-.79.487-.418 1.908.093 3.248.093.244.232.528.325.772.883 1.908 2.37 4.182 4.135 6.496.325 2.801.836 5.359 1.533 7.308.093.244.186.528.279.772.557 1.339 1.347 2.598 2.276 2.558l-.046-.406c-.372-.041-1.162-.813-1.952-3.127z"/><path fill="#F4FAFF" d="M337.663 103.241c-.348 0-.702-.083-1.008-.24l-3.208-1.682c-.478-.24-.244-.323-.088-.369.639-.198.769-.239 1.45-.585.073-.037.167-.023.239.018l2.464 1.296a.337.337 0 00.297 0l9.602-4.914a.267.267 0 00.145-.23v-9.827a.27.27 0 00-.151-.235l-9.596-4.909a.337.337 0 00-.297 0l-9.591 4.914a.264.264 0 00-.151.235v9.822c0 .092.057.184.151.226l2.631 1.346c1.429.63 2.303-.111 2.303-.862v-9.698c0-.138.124-.244.28-.244h1.217c.151 0 .28.106.28.244v9.702c0 1.687-1.039 2.655-2.843 2.655-.556 0-.993 0-2.21-.535l-2.516-1.286c-.624-.318-1.008-.912-1.008-1.553v-9.822c0-.636.384-1.235 1.008-1.553l9.592-4.913a2.337 2.337 0 012.017 0l9.602 4.917c.624.319 1.008.913 1.008 1.554v9.822c0 .636-.384 1.23-1.008 1.553l-9.602 4.913c-.307.157-.655.24-1.009.24zm7.751-9.684c0-1.839-1.403-2.327-4.351-2.673-2.984-.35-3.285-.53-3.285-1.148 0-.511.254-1.193 2.464-1.193 1.97 0 2.698.378 2.999 1.557.026.111.141.194.271.194h1.248c.077 0 .15-.028.202-.078a.24.24 0 00.073-.19c-.192-2.032-1.716-2.977-4.793-2.977-2.74 0-4.372 1.023-4.372 2.743 0 1.862 1.627 2.378 4.252 2.608 3.145.272 3.39.683 3.39 1.231 0 .95-.863 1.355-2.885 1.355-2.543 0-3.099-.567-3.286-1.687-.021-.12-.135-.207-.276-.207h-1.242c-.156 0-.275.11-.275.244 0 1.434.878 3.144 5.084 3.144 3.036-.005 4.782-1.07 4.782-2.923z"/><path fill="url(#prefix__pattern0)" d="M1109.19 51.009h35.306v35.306h-35.306z"/><path fill="#F4FAFF" fill-rule="evenodd" d="M1122.48 411.67l-4.03-4.676-.79-.926h-9.53a2.31 2.31 0 00-2.31 2.316v2.942h1.43v-2.379a1.3 1.3 0 011.3-1.303l8.14-.007v3.86a2.612 2.612 0 002.61 2.601h2.82l-.14 11.135a1.317 1.317 0 01-1.3 1.3l-12.24-.006c-.65 0-1.18-.642-1.18-1.434v-.942h-1.44v1.405c0 1.412.95 2.561 2.11 2.561l13.17-.003c1.28 0 2.31-1.041 2.31-2.318v-13.048l-.93-1.078z" clip-rule="evenodd"/><path fill="#F4FAFF" d="M1112.85 423.665h-12.67v-11.966h12.67v11.966zm-11.45-1.205h10.23v-9.557h-10.23"/><path fill="#F4FAFF" d="M1110.39 421.201h-2.38l-1.62-2.195-1.7 2.195h-2.39l2.96-3.566-2.39-3.121h2.41l1.12 1.697 1.19-1.697h2.46l-2.51 3.121 2.85 3.566z"/></g><defs><linearGradient id="prefix__paint0_linear" x1="1023.19" x2="1025.54" y1="343.173" y2="344.022" gradientUnits="userSpaceOnUse"><stop/><stop offset="1" stop-opacity="0"/></linearGradient><pattern id="prefix__pattern0" width="1" height="1" patternContentUnits="objectBoundingBox"><use transform="scale(.00195)" xlink:href="#prefix__image0"/></pattern></defs></svg>