<svg width="48" height="48" viewBox="0 0 48 48" fill="none" xmlns="http://www.w3.org/2000/svg">
<path fill-rule="evenodd" clip-rule="evenodd" d="M2 0H46C47.1 0 48 0.9 48 2V38C48 39.1 47.1 40 46 40H41V38H46V2H2V38H7V40H2C0.9 40 0 39.1 0 38V2C0 0.9 0.9 0 2 0Z" fill="#37474F"/>
<path d="M46 9H2V11H46V9Z" fill="#37474F"/>
<path d="M6.5 7C7.32843 7 8 6.32843 8 5.5C8 4.67157 7.32843 4 6.5 4C5.67157 4 5 4.67157 5 5.5C5 6.32843 5.67157 7 6.5 7Z" fill="#37474F"/>
<path d="M11.5 7C12.3284 7 13 6.32843 13 5.5C13 4.67157 12.3284 4 11.5 4C10.6716 4 10 4.67157 10 5.5C10 6.32843 10.6716 7 11.5 7Z" fill="#37474F"/>
<path d="M16.5 7C17.3284 7 18 6.32843 18 5.5C18 4.67157 17.3284 4 16.5 4C15.6716 4 15 4.67157 15 5.5C15 6.32843 15.6716 7 16.5 7Z" fill="#37474F"/>
<path d="M41.5 7H30.5C29.7 7 29 6.3 29 5.5C29 4.7 29.7 4 30.5 4H41.5C42.3 4 43 4.7 43 5.5C43 6.3 42.3 7 41.5 7Z" fill="#37474F"/>
<path d="M37 38.9C37 36.6 35.5 34.7 33.4 34.2C33.8 33.6 34 32.8 34 32C34 29.8 32.2 28 30 28C27.8 28 26 29.8 26 32C26 32.7 26.2 33.3 26.5 33.8C25.1 32.7 23 32.7 21.6 33.8C21.9 33.3 22.1 32.6 22.1 32C22.1 29.8 20.3 28 18.1 28C15.9 28 14.1 29.8 14.1 32C14.1 32.8 14.3 33.5 14.7 34.2C12.5 34.7 11 36.7 11 38.9V43H17.1C17.1 43.3 17 43.6 17 43.9V48H31V43.9C31 43.6 31 43.3 30.9 43H37V38.9ZM30 30C31.1 30 32 30.9 32 32C32 33.1 31.1 34 30 34C28.9 34 28 33.1 28 32C28 30.9 28.9 30 30 30ZM22.2 36.1C22.3 35.8 22.5 35.6 22.7 35.5C23 35.2 23.5 35 24 35C24.5 35 25 35.2 25.3 35.5C25.5 35.7 25.7 35.9 25.8 36.1C25.9 36.4 26 36.7 26 37C26 38 25.3 38.8 24.4 39C24.1 39.1 23.8 39.1 23.6 39C22.7 38.8 22 38 22 37C22 36.7 22.1 36.4 22.2 36.1ZM18 30C19.1 30 20 30.9 20 32C20 33.1 19.1 34 18 34C16.9 34 16 33.1 16 32C16 30.9 16.9 30 18 30ZM18 41H13V38.9C13 37.3 14.3 36 15.9 36H20.1C20 36.3 20 36.7 20 37C20 37.8 20.2 38.5 20.6 39.2C19.6 39.5 18.6 40.1 18 41ZM29 46H19V43.9C19 43.5 19.1 43.1 19.3 42.7C19.4 42.4 19.6 42.1 19.9 41.8C20.5 41.3 21.2 41 22 41H26.2C27 41 27.7 41.3 28.3 41.8C28.6 42.1 28.7 42.3 28.9 42.7C29.1 43.1 29.2 43.5 29.2 43.9V46H29ZM35 41H30C29.3 40.1 28.4 39.5 27.3 39.2C27.7 38.6 27.9 37.8 27.9 37C27.9 36.7 27.9 36.3 27.8 36H32C33.6 36 34.9 37.3 34.9 38.9V41H35Z" fill="#2083D2"/>
<path fill-rule="evenodd" clip-rule="evenodd" d="M16.6757 15.2628C17.0829 15.636 17.1104 16.2686 16.7372 16.6757L11.2375 22.6757C10.882 23.0637 10.2866 23.1096 9.87569 22.781L7.37539 20.781C6.94411 20.436 6.87415 19.8067 7.21913 19.3754C7.56412 18.9441 8.1934 18.8742 8.62469 19.2191L10.3949 20.6351L15.2629 15.3243C15.636 14.9172 16.2686 14.8897 16.6757 15.2628Z" fill="#2083D2"/>
<path d="M22 17C22 16.4477 22.4477 16 23 16H40C40.5523 16 41 16.4477 41 17V17C41 17.5523 40.5523 18 40 18H23C22.4477 18 22 17.5523 22 17V17Z" fill="#2083D2"/>
<path d="M22 21C22 20.4477 22.4477 20 23 20H40C40.5523 20 41 20.4477 41 21V21C41 21.5523 40.5523 22 40 22H23C22.4477 22 22 21.5523 22 21V21Z" fill="#2083D2"/>
</svg>
