<svg xmlns="http://www.w3.org/2000/svg" width="71" height="100" fill="none" viewBox="0 0 71 100">
    <g clip-path="url(#prefix__clip0)">
        <path fill="#264DE4" d="M71 19.652l-6.468 72.305L35.457 100 6.46 91.968 0 19.652h71z"/>
        <path fill="#2965F1" d="M58.994 87.353l5.528-61.788H35.5v68.287l23.494-6.5z"/>
        <path fill="#EBEBEB" d="M14.813 52.386l.796 8.87H35.5v-8.87H14.813zM35.499 34.435H13.211l.808 8.869h21.48v-8.87zM35.501 84.648v-9.227l-.039.01-9.899-2.667-.633-7.074h-8.922l1.245 13.926L35.46 84.66l.041-.012z"/>
        <path fill="#000" d="M16.71 0h10.766v4.492h-6.263v4.492h6.263v4.493H16.711V0zM29.629 0h10.765v3.906h-6.263v.781h6.263v8.985H29.63V9.57h6.263v-.78H29.63V0zM42.547 0h10.765v3.906H47.05v.781h6.263v8.985H42.547V9.57h6.263v-.78h-6.263V0z"/>
        <path fill="#fff" d="M46.414 61.255l-1.032 11.503-9.913 2.67v9.227l18.222-5.039.133-1.498 2.089-23.35.217-2.382 1.604-17.951H35.47v8.869h12.524l-.808 9.082H35.469v8.87h10.945z"/>
    </g>
    <defs>
        <clipPath id="prefix__clip0">
            <path fill="#fff" d="M0 0H71V100H0z"/>
        </clipPath>
    </defs>
</svg>
