<svg xmlns="http://www.w3.org/2000/svg" width="48" height="47" fill="none" viewBox="0 0 48 47">
    <g clip-path="url(#prefix__clip0)">
        <path fill="#fff" d="M4.14 18.7c-.724 2-1.035 4.1-1.035 6.3 0 1.5.208 3 .518 4.4.621-.2 1.346-.3 2.071-.4-.31-1.2-.518-2.6-.518-4 0-2.1.414-4.1 1.036-6-.725 0-1.346-.1-2.071-.3zM23.814 7c2.174 0 4.245.4 6.213 1 0-.7.103-1.4.31-2-2.07-.7-4.245-1-6.523-1-2.278 0-4.452.4-6.523 1 .207.7.31 1.3.31 2 1.968-.6 4.039-1 6.213-1zM23.814 43c-2.278 0-4.452-.4-6.523-1.1-.103.7-.414 1.3-.621 1.9 2.174.8 4.66 1.2 7.144 1.2 2.382 0 4.66-.4 6.834-1.1-.207-.6-.414-1.3-.518-2-1.967.7-4.141 1.1-6.316 1.1zM43.797 30.4c.518-1.7.725-3.5.725-5.4 0-2.2-.414-4.3-1.035-6.3-.621.2-1.346.3-2.071.3.725 1.9 1.035 3.9 1.035 6 0 1.7-.31 3.4-.724 5 .724.1 1.346.2 2.07.4zM10.768 38.2l.311-.6c.207-.5.31-1 .31-1.6 0-2.2-1.863-4-4.141-4H7.04c-.932 0-1.864.4-2.485 1-.932.7-1.45 1.8-1.45 3 0 .8.207 1.6.725 2.2C1.657 38.7 0 40.6 0 42.9V47h14.496v-4.1c0-.3 0-.6-.104-.8-.31-1.9-1.76-3.4-3.624-3.9zm-4.866-3.7c.31-.3.828-.5 1.242-.5h.104c1.139 0 2.07.9 2.07 2 0 .3-.103.5-.206.8-.207.4-.518.8-.932 1-.31.1-.621.2-.932.2-1.139 0-2.07-.9-2.07-2 0-.6.206-1.1.724-1.5zM12.425 45H2.071v-2.1c0-1.6 1.346-2.9 3.003-2.9h4.348c1.45 0 2.692 1 3.003 2.5V45zM43.798 38.2c.414-.6.724-1.4.724-2.2 0-1.2-.517-2.3-1.45-3-.724-.6-1.552-1-2.484-1h-.207c-2.278 0-4.142 1.8-4.142 4 0 .6.104 1.1.31 1.5l.311.6c-1.863.5-3.417 2-3.727 3.9v5h14.496v-4.1c0-2.3-1.657-4.2-3.831-4.7zM40.38 34h.103c.518 0 .932.2 1.243.5.414.4.725.9.725 1.5 0 1.1-.932 2-2.071 2-.31 0-.621-.1-.932-.2-.414-.2-.725-.6-.932-1-.207-.3-.207-.5-.207-.8 0-1.1.932-2 2.07-2zm5.177 11H35.204v-2.1-.5c.207-1.4 1.553-2.4 3.002-2.4h4.35c1.656 0 3.002 1.3 3.002 2.9V45zM13.15 7.6c-.622-.7-1.553-1.2-2.485-1.5.518-.5.725-1.3.725-2.1 0-2.2-1.864-4-4.142-4C4.97 0 3.106 1.8 3.106 4c0 .8.207 1.6.725 2.2C1.657 6.7 0 8.6 0 10.9V15h14.496v-4.1c0-.3 0-.7-.104-1-.207-.8-.621-1.6-1.242-2.3zM7.248 2c1.139 0 2.07.9 2.07 2s-.931 2-2.07 2c-1.139 0-2.07-.9-2.07-2s.931-2 2.07-2zm5.177 11H2.071v-2.1C2.07 9.3 3.417 8 5.074 8h4.348c.829 0 1.657.4 2.278 1 .31.4.622.8.725 1.3 0 .2.103.4.103.6V13h-.103zM43.798 6.2c.517-.6.724-1.4.724-2.2 0-2.2-1.863-4-4.141-4s-4.142 1.8-4.142 4c0 .8.207 1.6.725 2.2-.932.2-1.76.7-2.485 1.4-.621.6-1.036 1.4-1.243 2.3-.103.3-.103.7-.103 1V15h14.496v-4.1c0-2.3-1.657-4.2-3.831-4.7zM40.38 2c1.139 0 2.07.9 2.07 2s-.931 2-2.07 2c-1.14 0-2.071-.9-2.071-2s.932-2 2.07-2zm5.177 11H35.204v-2.1c0-.2 0-.4.103-.6.104-.5.31-1 .725-1.3.518-.6 1.346-1 2.278-1h4.349c1.656 0 3.002 1.3 3.002 2.9V13h-.103z"/>
    </g>
    <defs>
        <clipPath id="prefix__clip0">
            <path fill="#fff" d="M0 0H47.629V47H0z"/>
        </clipPath>
    </defs>
</svg>
