<svg xmlns="http://www.w3.org/2000/svg" width="52" height="47" fill="none" viewBox="0 0 52 47">
    <g clip-path="url(#prefix__clip0)">
        <path fill="#fff" d="M19.983 38.2c.414-.6.725-1.4.725-2.2 0-1.2-.518-2.3-1.45-3-.724-.6-1.553-1-2.485-1h-.207c-2.278 0-4.141 1.8-4.141 4 0 .6.103 1.1.31 1.5l.31.6c-1.863.5-3.416 2-3.727 3.9v5h14.496v-4.1c0-2.3-1.657-4.2-3.83-4.7zM16.566 34h.104c.517 0 .932.2 1.242.5.415.4.725.9.725 1.5 0 1.1-.932 2-2.07 2-.311 0-.622-.1-.933-.2-.414-.2-.724-.6-.931-1-.104-.3-.208-.5-.208-.8 0-1.1.932-2 2.071-2zm5.177 11H11.39v-2.1-.5c.207-1.4 1.553-2.4 3.003-2.4h4.349c1.656 0 3.002 1.3 3.002 2.9V45zM7.248 18C3.21 18 0 21.1 0 25c0 5.3 7.248 13 7.248 13s7.248-7.8 7.248-13c0-3.9-3.21-7-7.248-7zm0 9.5c-1.45 0-2.589-1.1-2.589-2.5s1.14-2.5 2.589-2.5c1.45 0 2.588 1.1 2.588 2.5s-1.139 2.5-2.588 2.5zM31.788 20.2c-1.864.5-3.417 2-3.727 3.9-.104.2-.104.5-.104.8V29h14.496v-4.1c0-2.3-1.657-4.2-3.831-4.7.414-.6.725-1.4.725-2.2 0-1.2-.518-2.3-1.45-3-.725-.6-1.553-1-2.485-1h-.207c-2.278 0-4.142 1.8-4.142 4 0 .6.104 1.1.31 1.5.104.3.208.5.415.7zm8.594 4.7V27H30.028v-2.1-.5C30.235 23 31.58 22 33.03 22h4.348c1.657 0 3.003 1.3 3.003 2.9zM35.205 16h.104c.517 0 .931.2 1.242.5.414.4.725.9.725 1.5 0 1.1-.932 2-2.071 2-.31 0-.621-.1-.932-.2-.414-.2-.725-.6-.932-1-.207-.3-.207-.5-.207-.8 0-1.1.932-2 2.07-2zM44.523 0c-4.038 0-7.248 3.1-7.248 7 0 5.3 7.248 13 7.248 13s7.248-7.8 7.248-13c0-3.9-3.21-7-7.248-7zm0 9.5c-1.45 0-2.588-1.1-2.588-2.5s1.139-2.5 2.588-2.5c1.45 0 2.589 1.1 2.589 2.5s-1.14 2.5-2.589 2.5zM42.453 40.2V34c0-.6-.518-1-1.036-1-.517 0-1.035.4-1.035 1v6.2c-.932.3-1.553 1-1.967 1.8h-9.423c-.517 0-1.035.4-1.035 1s.518 1 1.035 1h9.526c.414 1.2 1.553 2 2.9 2 1.76 0 3.106-1.3 3.106-3 0-1.3-.932-2.4-2.071-2.8zM15.532 8.8V15c0 .6.517 1 1.035 1 .518 0 1.036-.4 1.036-1V9v-.2c.931-.3 1.553-1 1.967-1.8h9.422c.518 0 1.036-.4 1.036-1s-.518-1-1.036-1h-9.526c-.414-1.2-1.553-2-2.899-2-1.76 0-3.106 1.3-3.106 3 0 1.3.932 2.4 2.07 2.8z"/>
    </g>
    <defs>
        <clipPath id="prefix__clip0">
            <path fill="#fff" d="M0 0H51.771V47H0z"/>
        </clipPath>
    </defs>
</svg>
