<svg xmlns="http://www.w3.org/2000/svg" width="76" height="78" fill="none"><path fill="#2083D2" fill-opacity=".2" d="M56.05 6.138H25.358c-8.476 0-15.346 6.871-15.346 15.347v29.157c0 8.476 6.87 15.346 15.346 15.346H56.05c8.475 0 15.346-6.87 15.346-15.346V21.485c0-8.476-6.87-15.347-15.346-15.347z"/><path fill="#2083D2" d="M62.188 27.623C69.816 27.623 76 21.439 76 13.811 76 6.185 69.816 0 62.188 0c-7.627 0-13.811 6.184-13.811 13.812 0 7.627 6.184 13.811 13.811 13.811z"/><path fill="#fff" d="M2.378 55.353l33.147-34.086 17.875.52 1.976 2.493 1.143 16.212-33.88 35.854h-1.87L1.75 57.12l.628-1.767z"/><path fill="#004279" d="M37.524 41.737l.432-.431a.926.926 0 00-.07-1.224.921.921 0 00-1.224-.07l-.431.431a5.556 5.556 0 00-3.45-1.51 4.269 4.269 0 00-3.019 1.294 4.176 4.176 0 00-1.295 2.799 8.175 8.175 0 001.294 3.882l-3.235 3.235a8.235 8.235 0 01-1.294-3.45c0-.216-.216-.43-.431-.647-.216-.648-.431-.648-.862-.648a1.126 1.126 0 00-.863.432.946.946 0 00-.216 1.074c.286 1.64.951 3.19 1.94 4.528l-1.073 1.075a.924.924 0 00.07 1.223.92.92 0 001.223.07l.863-.862a6.107 6.107 0 003.45 1.51 4.264 4.264 0 003.019-1.294 3.789 3.789 0 001.293-2.804 6.841 6.841 0 00-1.51-3.882l3.018-3.019a7.74 7.74 0 01.863 2.373c0 .216.216.431.431.647.215.217.431.217.863.217a1.126 1.126 0 00.862-.431 1.214 1.214 0 00.216-1.294 3.455 3.455 0 00-.864-3.224zm-6.678 9.705a1.816 1.816 0 01-1.51.431 3.446 3.446 0 01-1.725-.648l3.018-3.018c.349.595.57 1.256.648 1.941-.045.458-.192.9-.431 1.294zm.862-6.685a4.956 4.956 0 01-.647-1.941 1.87 1.87 0 01.647-1.294 1.592 1.592 0 011.294-.432 2.335 2.335 0 011.51.648l-2.804 3.019zm-9.054 13.802a1.668 1.668 0 00-1.828-.363 1.667 1.667 0 00-1.036 1.549 1.692 1.692 0 00.492 1.187l3.45 3.45a1.563 1.563 0 002.155 0 1.687 1.687 0 000-2.373l-3.233-3.45zm-7.116-7.116a1.68 1.68 0 00-2.383 2.371l3.45 3.45a1.56 1.56 0 002.156 0 1.688 1.688 0 000-2.373l-3.223-3.448zm47.866-37.742a1.688 1.688 0 00-2.372 0l-6.906 6.906a8.494 8.494 0 00-4.314-1.075c-3.666-.216-5.607-.216-7.764-.216h-3.445a6.94 6.94 0 00-5.822 2.373L1.294 52.735a4.694 4.694 0 000 6.47l17.253 17.252a4.395 4.395 0 003.235 1.294 4.393 4.393 0 003.235-1.294l31.055-31.054c2.156-2.156 2.156-4.529 2.156-6.906l-.22-2.368c-.216-4.313-.216-6.038-.43-9.054a10.289 10.289 0 00-1.075-3.883l6.906-6.905a1.966 1.966 0 00-.005-2.586zM53.7 42.816L30.41 66.32l-.648-.647a1.68 1.68 0 00-2.315.052 1.677 1.677 0 00-.058 2.315l.648.647-5.391 5.39a1.308 1.308 0 01-1.725.001L3.666 56.837a1.635 1.635 0 01-.431-.862c.054-.324.204-.625.431-.863l5.388-5.395.432.431a1.56 1.56 0 002.156 0 1.688 1.688 0 000-2.373l-.432-.43 23.51-23.502a4.33 4.33 0 011.68-1.083 4.299 4.299 0 011.987-.21h3.45c2.156 0 4.097 0 7.763.216a6.387 6.387 0 012.156.431l-3.448 3.444a5.242 5.242 0 00-5.823.862 5.207 5.207 0 00-1.51 3.666 4.743 4.743 0 001.511 3.667 5.207 5.207 0 003.666 1.51 5.07 5.07 0 003.667-1.51 5.208 5.208 0 001.51-3.667 3.654 3.654 0 00-.648-2.156l3.45-3.451c.216.431.216 1.074.43 1.725.217 3.018.217 4.529.432 8.842l.216 2.373c-.216 2.156-.43 3.235-1.51 4.314zm-8.411-10.993a1.562 1.562 0 002.156.001l.431-.432c0 .216-.216.431-.43.648a1.97 1.97 0 01-2.588 0 1.592 1.592 0 01-.432-1.294c.046-.458.193-.9.432-1.294.216-.216.431-.431.647-.431l-.43.431a1.961 1.961 0 00.214 2.372z"/></svg>