<svg xmlns="http://www.w3.org/2000/svg" width="480" height="369" fill="none"><rect width="100" height="100" x="43" y="269" fill="#0F1658" rx="16"/><rect width="100" height="100" x="376" y="89" fill="#0F1658" rx="16"/><rect width="100" height="100" x="103" y="17" fill="#0F1658" rx="16"/><rect width="45" height="45" x="270" y="3" fill="#0F1658" rx="10"/><rect width="45" height="45" x="236" y="118" fill="#0F1658" rx="10"/><rect width="63" height="63" x="417" fill="#0F1658" rx="10"/><rect width="37" height="37" x="127.027" y="204" fill="#3B4C55" rx="4"/><path fill="#FF8F00" d="M410.711 90.195l13.372 1.702-8.16 10.729-5.212-12.431zm-325-2l13.372 1.702-8.16 10.729-5.212-12.431z"/><path fill="#06AAF5" d="M12.681 197.251l8.528 10.439-13.304 2.166 4.776-12.605z"/><path fill="#FFF9C4" d="M304.681 60.25l8.528 10.44-13.304 2.165 4.776-12.605zm115 238.001l8.528 10.439-13.304 2.166 4.776-12.605z"/><path fill="#FFD037" d="M161.003 171.543l-9.655 9.407-3.319-13.064 12.974 3.657z"/><path fill="#8CC440" d="M71.709 334.251l8.528 10.439-13.305 2.166 4.777-12.605zM341.681 159.25l8.528 10.44-13.304 2.165 4.776-12.605z"/><circle cx="155.027" cy="26" r="4" fill="#8CC440"/><circle cx="421" cy="200" r="4" fill="#8CC440"/><circle cx="54.027" cy="227" r="4" fill="#FF8F00"/><circle cx="284" cy="142" r="4" fill="#FF8F00"/><circle cx="188.027" cy="316" r="4" fill="#FF8F00"/><circle cx="191.027" cy="75" r="24" fill="#F06292"/><circle cx="191.027" cy="75" r="18" fill="#fff"/><path fill="#094786" d="M191 67l-8 2.853 1.22 10.578 6.78 3.755 6.78-3.755L199 69.853 191 67z"/><path fill="#093D73" d="M191 67v1.908-.009 15.287l6.78-3.755L199 69.853 191 67z"/><path fill="#fff" d="M191.001 68.899L186 80.113h1.865l1.005-2.51h4.245l1.005 2.51h1.865l-4.984-11.214zm1.461 7.158h-2.922l1.461-3.515 1.461 3.515z"/><circle cx="197" cy="136" r="24" fill="#7E57C2"/><circle cx="197" cy="136" r="18" fill="#fff"/><path fill="#094786" d="M202.364 136.24c-.025-2.489 2.029-3.682 2.121-3.743-1.154-1.688-2.953-1.919-3.593-1.946-1.53-.155-2.986.901-3.762.901-.775 0-1.974-.878-3.242-.856-1.669.025-3.207.971-4.065 2.465-1.733 3.006-.444 7.461 1.245 9.9.825 1.193 1.81 2.535 3.101 2.486 1.245-.049 1.715-.805 3.22-.805 1.505 0 1.927.805 3.244.78 1.339-.025 2.187-1.216 3.006-2.413.948-1.386 1.338-2.727 1.361-2.795-.029-.013-2.61-1.002-2.636-3.974z"/><path fill="#094786" d="M199.888 129.137c.685-.831 1.149-1.987 1.023-3.137-.988.04-2.185.657-2.895 1.488-.635.737-1.191 1.911-1.042 3.04 1.102.086 2.227-.561 2.914-1.391z"/><circle cx="141" cy="108" r="24" fill="#039BE5"/><circle cx="141" cy="108" r="18" fill="#fff"/><path fill="#094786" d="M134.818 107.045c0 .343.037.621.102.824.074.204.167.426.297.667a.403.403 0 01.064.213c0 .092-.055.185-.176.278l-.583.388a.439.439 0 01-.24.084c-.093 0-.186-.047-.278-.13a2.884 2.884 0 01-.334-.435 7.343 7.343 0 01-.287-.546c-.722.852-1.629 1.277-2.721 1.277-.778 0-1.398-.222-1.852-.666-.454-.445-.685-1.037-.685-1.778 0-.787.278-1.425.842-1.907.565-.481 1.315-.722 2.269-.722.314 0 .638.028.981.074.343.046.694.12 1.065.204v-.676c0-.704-.148-1.194-.435-1.481-.297-.287-.797-.426-1.51-.426-.324 0-.657.037-.999.12a7.399 7.399 0 00-1 .315 2.504 2.504 0 01-.324.12.55.55 0 01-.148.028c-.13 0-.195-.092-.195-.287v-.454c0-.148.019-.259.065-.324a.705.705 0 01.259-.194 5.355 5.355 0 011.167-.417c.453-.12.935-.175 1.444-.175 1.102 0 1.907.249 2.426.749.509.5.768 1.259.768 2.278v2.999h.018zm-3.758 1.408c.305 0 .62-.056.953-.167.334-.111.63-.315.88-.593a1.47 1.47 0 00.315-.592c.055-.222.092-.491.092-.805v-.389a7.63 7.63 0 00-.852-.158 6.973 6.973 0 00-.87-.055c-.62 0-1.074.12-1.379.37-.306.25-.454.602-.454 1.065 0 .435.111.759.343.981.222.232.546.343.972.343zm7.434.999c-.167 0-.278-.027-.352-.092-.074-.056-.139-.185-.194-.361l-2.176-7.157a1.585 1.585 0 01-.083-.37c0-.148.074-.231.222-.231h.907c.176 0 .296.027.361.092.074.056.13.185.185.361l1.556 6.129 1.444-6.129c.046-.185.102-.305.176-.361.074-.055.204-.092.37-.092h.741c.176 0 .296.027.37.092.074.056.139.185.176.361l1.463 6.203 1.601-6.203c.056-.185.121-.305.186-.361.074-.055.194-.092.361-.092h.861c.148 0 .231.074.231.231 0 .046-.009.093-.018.148a1.39 1.39 0 01-.065.232l-2.231 7.156c-.056.185-.121.306-.195.361a.588.588 0 01-.352.093h-.796c-.176 0-.296-.028-.37-.093-.074-.065-.139-.185-.176-.37l-1.435-5.972-1.426 5.963c-.046.185-.102.305-.176.37s-.203.092-.37.092h-.796zm11.896.25c-.481 0-.963-.055-1.425-.166-.463-.111-.824-.232-1.065-.371-.148-.083-.25-.175-.287-.259a.654.654 0 01-.056-.259v-.472c0-.195.074-.287.213-.287.056 0 .111.009.167.028.055.018.139.055.231.092.315.139.658.25 1.019.324.37.074.731.111 1.101.111.584 0 1.037-.101 1.352-.305a.997.997 0 00.481-.88.904.904 0 00-.249-.648c-.167-.176-.482-.333-.936-.481l-1.342-.417c-.676-.213-1.176-.527-1.481-.944a2.202 2.202 0 01-.463-1.342c0-.389.083-.732.25-1.028.167-.296.389-.556.666-.759.278-.213.593-.371.963-.482a4.042 4.042 0 011.167-.157c.203 0 .416.009.62.037.213.028.407.065.602.102.185.046.361.092.528.148.166.056.296.111.388.167.13.074.223.148.278.231a.497.497 0 01.083.306v.435c0 .194-.074.296-.213.296-.074 0-.194-.037-.351-.111-.528-.241-1.121-.361-1.778-.361-.528 0-.944.083-1.231.259-.287.176-.435.444-.435.824 0 .259.092.481.277.657.186.176.528.352 1.019.509l1.314.417c.667.213 1.148.509 1.435.889.287.379.426.815.426 1.296 0 .398-.083.759-.24 1.074a2.502 2.502 0 01-.676.815c-.287.231-.63.398-1.028.518-.416.13-.852.194-1.324.194z"/><path fill="#094786" fill-rule="evenodd" d="M152.139 114.202c-3.046 2.249-7.472 3.444-11.277 3.444-5.332 0-10.137-1.972-13.766-5.25-.287-.259-.028-.611.315-.407 3.925 2.277 8.767 3.657 13.775 3.657 3.38 0 7.092-.704 10.508-2.148.509-.231.945.333.445.704z" clip-rule="evenodd"/><path fill="#094786" fill-rule="evenodd" d="M153.405 112.758c-.388-.5-2.573-.241-3.564-.121-.296.037-.342-.222-.074-.416 1.74-1.222 4.601-.871 4.934-.463.334.416-.092 3.277-1.722 4.647-.249.213-.49.102-.379-.176.37-.916 1.194-2.981.805-3.471z" clip-rule="evenodd"/><circle cx="74" cy="42" r="24" fill="#F06292"/><circle cx="74" cy="42" r="18" fill="#fff"/><path fill="#094786" d="M82 37.662v9.335l-2.288 1.33v-9.323l-5.72-3.34-5.722 3.34.014 9.327L66 46.997V37.67L74.007 33 82 37.662zm-6.86 10.666l-1.14.67-1.147-.663v-9.331l-2.285 1.334.004 9.328 3.424 2 3.432-2v-9.332L75.14 39v9.328z"/><circle cx="43" cy="153" r="24" fill="#039BE5"/><circle cx="43" cy="153" r="18" fill="#fff"/><path fill="#094786" d="M36.819 152.045c0 .343.036.621.101.824.074.204.167.426.297.667a.403.403 0 01.064.213c0 .092-.055.185-.175.278l-.584.388a.439.439 0 01-.24.084c-.093 0-.186-.047-.278-.13a2.951 2.951 0 01-.334-.435 7.343 7.343 0 01-.287-.546c-.722.852-1.629 1.277-2.721 1.277-.778 0-1.398-.222-1.852-.666-.454-.445-.685-1.037-.685-1.778 0-.787.278-1.425.843-1.907.564-.481 1.314-.722 2.268-.722.314 0 .638.028.981.074.343.046.694.12 1.065.204v-.676c0-.704-.148-1.194-.435-1.481-.297-.287-.797-.426-1.51-.426-.324 0-.657.037-1 .12a7.49 7.49 0 00-1 .315 2.451 2.451 0 01-.323.12.55.55 0 01-.148.028c-.13 0-.195-.092-.195-.287v-.454c0-.148.019-.259.065-.324a.702.702 0 01.26-.194 5.327 5.327 0 011.166-.417c.453-.12.935-.175 1.444-.175 1.102 0 1.907.249 2.425.749.51.5.769 1.259.769 2.278v2.999h.019zm-3.76 1.408c.306 0 .621-.056.954-.167.334-.111.63-.315.88-.593a1.47 1.47 0 00.315-.592c.055-.222.092-.491.092-.805v-.389a7.63 7.63 0 00-.852-.158 6.973 6.973 0 00-.87-.055c-.62 0-1.074.12-1.38.37-.305.25-.453.602-.453 1.065 0 .435.111.759.343.981.222.232.546.343.972.343zm7.435.999c-.167 0-.278-.027-.352-.092-.074-.056-.139-.185-.194-.361l-2.176-7.157a1.641 1.641 0 01-.083-.37c0-.148.074-.231.222-.231h.907c.176 0 .296.027.361.092.074.056.13.185.185.361l1.556 6.129 1.444-6.129c.046-.185.102-.305.176-.361.074-.055.203-.092.37-.092h.74c.177 0 .297.027.371.092.074.056.139.185.176.361l1.463 6.203 1.601-6.203c.056-.185.12-.305.185-.361.075-.055.195-.092.362-.092h.86c.149 0 .232.074.232.231 0 .046-.01.093-.018.148a1.39 1.39 0 01-.065.232l-2.231 7.156c-.056.185-.12.306-.195.361a.588.588 0 01-.352.093h-.796c-.176 0-.296-.028-.37-.093-.074-.065-.139-.185-.176-.37l-1.435-5.972-1.426 5.963c-.046.185-.102.305-.176.37s-.203.092-.37.092h-.796zm11.896.25c-.481 0-.963-.055-1.425-.166-.463-.111-.824-.232-1.065-.371-.148-.083-.25-.175-.287-.259a.654.654 0 01-.056-.259v-.472c0-.195.074-.287.213-.287.056 0 .111.009.167.028.056.018.139.055.231.092.315.139.658.25 1.019.324.37.074.731.111 1.101.111.584 0 1.037-.101 1.352-.305a.997.997 0 00.481-.88.9.9 0 00-.25-.648c-.166-.176-.48-.333-.934-.481l-1.343-.417c-.676-.213-1.176-.527-1.481-.944a2.202 2.202 0 01-.463-1.342c0-.389.083-.732.25-1.028.166-.296.389-.556.666-.759.278-.213.593-.371.963-.482.37-.111.76-.157 1.167-.157.203 0 .416.009.62.037.213.028.407.065.602.102.185.046.36.092.528.148.166.056.296.111.388.167.13.074.222.148.278.231a.497.497 0 01.083.306v.435c0 .194-.074.296-.212.296-.075 0-.195-.037-.352-.111-.528-.241-1.12-.361-1.778-.361-.528 0-.944.083-1.231.259-.287.176-.435.444-.435.824 0 .259.092.481.278.657.185.176.527.352 1.018.509l1.315.417c.666.213 1.147.509 1.434.889.287.379.426.815.426 1.296 0 .398-.083.759-.24 1.074-.167.315-.39.592-.676.815-.287.231-.63.398-1.028.518-.416.13-.852.194-1.324.194z"/><path fill="#094786" fill-rule="evenodd" d="M54.139 159.202c-3.046 2.249-7.472 3.444-11.277 3.444-5.332 0-10.137-1.972-13.766-5.25-.287-.259-.028-.611.315-.407 3.925 2.277 8.767 3.657 13.776 3.657 3.379 0 7.091-.704 10.507-2.148.51-.231.944.333.445.704z" clip-rule="evenodd"/><path fill="#094786" fill-rule="evenodd" d="M55.405 157.758c-.389-.5-2.573-.241-3.564-.121-.296.037-.343-.222-.074-.416 1.74-1.222 4.601-.871 4.934-.463.334.416-.092 3.277-1.721 4.647-.25.213-.491.102-.38-.176.37-.916 1.194-2.981.805-3.471z" clip-rule="evenodd"/><circle cx="85" cy="101" r="24" fill="#FF8F00"/><circle cx="85" cy="101" r="18" fill="#fff"/><path fill="#094786" d="M77 106.683l6.456.935v-6.177H77v5.242zm0-6.124h6.456v-6.177L77 95.317v5.242zm7.338 7.186L93 109v-7.559h-8.662v6.304zm0-13.491v6.305H93V93l-8.662 1.254z"/><circle cx="139" cy="50" r="24" fill="#7E57C2"/><circle cx="139" cy="50" r="18" fill="#fff"/><path fill="#094786" d="M133.487 41.027h.932v1.02h1.019V39h-1.019v1.007h-.932V39h-1.018v3.047h1.018v-1.02zm3.288 1.02h1.019v-2.036h.896V39h-2.811v1.011h.896v2.036zm3.358-1.509l.701 1.083h.017l.701-1.083v1.51h1.015V39h-1.063l-.653 1.072-.653-1.072h-1.061v3.047h.996v-1.51zm5.392.502h-1.432V39h-1.019v3.047h2.451v-1.006zM131 43.385l1.457 16.338 6.539 1.815 6.544-1.814 1.46-16.34h-16zm12.84 5.343h-7.669l.183 2.052h7.303l-.549 6.154L139 58.072l-.003.001-4.105-1.139-.287-3.219h2.011l.149 1.67 2.232.603H139l2.235-.604.232-2.599h-6.945l-.541-6.06h10.037l-.178 2.003z"/><path fill="#263238" fill-rule="evenodd" d="M364.883 312.366A4.998 4.998 0 01368 317c0 2.756-2.238 5-4.999 5h-17.002a4.996 4.996 0 01-4.999-5 5.006 5.006 0 013.012-4.588 7 7 0 0113.082-3.859 5.502 5.502 0 017.789 3.813z" clip-rule="evenodd"/><circle cx="106.027" cy="165" r="24" fill="#8CC440"/><circle cx="106.027" cy="165" r="18" fill="#fff"/><path fill="#094786" d="M100.742 162.263v7.67h.005c.053.648.649 1.163 1.371 1.163h7.713c.721 0 1.317-.515 1.371-1.163h.004v-7.67h-10.464zm-.399 5.618c0 .756-.527 1.375-1.172 1.375-.644 0-1.171-.619-1.171-1.375v-4.503c0-.756.527-1.375 1.171-1.375.645 0 1.172.619 1.172 1.375v4.503z"/><path fill="#094786" d="M105.225 173.468c0 .757-.527 1.376-1.171 1.376s-1.171-.619-1.171-1.376v-4.502c0-.757.527-1.376 1.171-1.376s1.171.619 1.171 1.376v4.502zm3.903 0c0 .757-.527 1.376-1.171 1.376-.645 0-1.172-.619-1.172-1.376v-4.502c0-.757.527-1.376 1.172-1.376.644 0 1.171.619 1.171 1.376v4.502zm4.871-5.587c0 .756-.527 1.375-1.171 1.375s-1.172-.619-1.172-1.375v-4.503c0-.756.528-1.375 1.172-1.375.644 0 1.171.619 1.171 1.375v4.503zm-5.438-10.23l.752-1.349c.061-.11.043-.238-.04-.285-.084-.046-.202.006-.264.116l-.769 1.38a6.185 6.185 0 00-2.266-.421 6.18 6.18 0 00-2.281.427l-.773-1.386c-.061-.11-.18-.162-.263-.116-.083.047-.101.175-.04.285l.755 1.355c-1.571.738-2.63 2.124-2.63 3.712 0 .162.012.321.033.477h10.399c.021-.156.032-.315.032-.477 0-1.593-1.065-2.982-2.645-3.718zm-4.961 2.353a.457.457 0 11-.002-.914.457.457 0 01.002.914zm4.775 0a.457.457 0 11-.002-.914.457.457 0 01.002.914z"/><circle cx="71" cy="211" r="24" fill="#FF8F00"/><circle cx="71" cy="211" r="18" fill="#fff"/><path fill="#094786" d="M70.905 203c-.66.003-1.29.059-1.844.158-1.634.288-1.93.892-1.93 2.006v1.471h3.86v.49h-5.308c-1.122 0-2.104.674-2.411 1.956-.355 1.47-.37 2.388 0 3.923.274 1.142.93 1.956 2.05 1.956h1.328v-1.763c0-1.274 1.102-2.397 2.41-2.397h3.855c1.073 0 1.93-.884 1.93-1.962v-3.674c0-1.046-.882-1.832-1.93-2.006a11.969 11.969 0 00-2.01-.158zm-2.087 1.183c.398 0 .724.331.724.738a.73.73 0 01-.724.733.728.728 0 01-.724-.733c0-.407.324-.738.724-.738z"/><path fill="#094786" d="M75.328 207.125v1.714c0 1.328-1.126 2.447-2.41 2.447h-3.856c-1.055 0-1.93.903-1.93 1.961v3.675c0 1.045.91 1.661 1.93 1.961 1.222.359 2.393.424 3.855 0 .972-.281 1.93-.848 1.93-1.961v-1.471h-3.855v-.49h5.785c1.121 0 1.54-.783 1.93-1.957.402-1.209.385-2.372 0-3.922-.278-1.117-.807-1.957-1.93-1.957h-1.449zm-2.168 9.306c.4 0 .724.328.724.733a.731.731 0 01-.724.738.733.733 0 01-.724-.738.73.73 0 01.724-.733z"/><path stroke="#fff" stroke-dasharray="8 4" stroke-linecap="round" stroke-linejoin="round" stroke-width="2" d="M143 149v101a8 8 0 008 8h48m-2-90v30a2 2 0 002 2v0"/><path stroke="#fff" stroke-dasharray="8 4" stroke-linecap="round" stroke-linejoin="round" stroke-width="2" d="M154 133v104a8 8 0 008 8h37"/><path stroke="#fff" stroke-dasharray="8 4" stroke-linecap="round" stroke-linejoin="round" stroke-width="2" d="M167 133v91a8 8 0 008 8h24"/><path stroke="#fff" stroke-dasharray="8 4" stroke-linecap="round" stroke-linejoin="round" stroke-width="2" d="M180 164v47a8 8 0 008 8h11M79 245v64a8 8 0 008 8h112"/><path stroke="#fff" stroke-dasharray="8 4" stroke-linecap="round" stroke-linejoin="round" stroke-width="2" d="M105 197v89a8 8 0 008 8h86"/><path stroke="#fff" stroke-dasharray="8 4" stroke-linecap="round" stroke-linejoin="round" stroke-width="2" d="M92 231v67a8 8 0 008 8h99"/><path stroke="#fff" stroke-dasharray="8 4" stroke-linecap="round" stroke-linejoin="round" stroke-width="2" d="M119 193v82a8 8 0 008 8h72"/><path stroke="#fff" stroke-dasharray="8 4" stroke-linecap="round" stroke-linejoin="round" stroke-width="2" d="M132 181v82a8 8 0 008 8h59"/><path fill="#D0D2D5" d="M327.693 329.49l-46.49-.595.138-1.193 2.247-19.669h40.828l3.003 19.669.229 1.49.045.298z"/><path fill="#000" d="M327.648 329.192h-23.199l-23.246-.297.138-1.193h46.078l.229 1.49z" opacity=".1"/><path fill="#D0D2D5" d="M335.143 328h-61.69v1.49h61.69V328z"/><path fill="#fff" d="M394 189.895a3.882 3.882 0 00-3.861-3.895H217.861a3.877 3.877 0 00-3.861 3.898v104.428h180V189.895z"/><path fill="#fff" d="M214 293.282v12.231a3.861 3.861 0 003.861 3.861h172.278a3.861 3.861 0 003.861-3.861v-12.231H214z"/><path fill="#3B4C55" d="M387.445 192.554H221.453v93.874h165.992v-93.874z"/><rect width="33" height="3" x="335" y="210" fill="#E5E5E5" rx="1.5"/><rect width="33" height="3" x="247" y="262" fill="#E5E5E5" rx="1.5"/><rect width="33" height="3" x="335" y="217" fill="#E5E5E5" rx="1.5"/><rect width="33" height="3" x="247" y="269" fill="#E5E5E5" rx="1.5"/><path fill="#000" d="M308.918 309.374L327.465 328l-2.846-18.626h-15.701z" opacity=".1"/><path fill="#E0E0E0" d="M284.727 249.683c.973-1.832 1.599-3.392 1.4-3.484-.2-.093-1.151 1.317-2.124 3.149-.972 1.832-1.599 3.392-1.399 3.485.2.092 1.15-1.318 2.123-3.15z"/><path fill="#F55F44" d="M258.208 240.422l-1.833-1.414-5.046 5.71 1.833 1.415 5.046-5.711z"/><path fill="#000" d="M253.993 246.588l2.605.573 1.814-7.209-2.605-.572-1.814 7.208z" opacity=".05"/><path fill="#F55F44" d="M254.283 246.652l2.315.509 1.814-7.209-2.315-.509-1.814 7.209z"/><path fill="url(#prefix__paint0_linear)" d="M236.699 223.055L233 230.02l49.519 22.958 3.699-6.965-49.519-22.958z"/><path fill="#E5E5E5" d="M282.605 252.812c-.969-.434-50.229-23.287-49.519-22.958 2.734-3.899 3.522-6.634 3.522-6.634l49.52 22.958s-1.739 2.852-3.523 6.634z"/><path fill="#000" d="M262.348 235.152l-4.082-1.892-3.523 6.633 4.082 1.893 3.523-6.634z" opacity=".05"/><path fill="#F55F44" d="M262.169 235.07l-3.728-1.728-3.522 6.633 3.727 1.728 3.523-6.633z"/><path fill="#000" d="M261.461 234.741l-2.484-1.152-3.523 6.633 2.485 1.152 3.522-6.633z" opacity=".05"/><path fill="#F55F44" d="M261.282 234.658l-2.13-.987-3.522 6.633 2.13.988 3.522-6.634z"/><path fill="#6C63FF" d="M254.624 233.966l-2.71 3.799s.903 3.903 20.889 3.798c19.986-.106 21.567-3.798 21.567-3.798l-3.726-5.065-11.405-7.28-24.615 8.546z"/><path fill="#537D19" d="M254.624 233.966l-2.71 3.799s.903 3.903 20.889 3.798c19.986-.106 21.567-3.798 21.567-3.798l-3.726-5.065-11.405-7.28-24.615 8.546z"/><path fill="#6C63FF" d="M312.267 219.881l-35.568 14.666-43.359-14.666L273.086 203l19.51 8.406.699.301 18.972 8.174z"/><path fill="#8CC440" d="M312.267 219.881l-35.568 14.666-43.359-14.666L273.086 203l19.51 8.406.699.301 18.972 8.174z"/><path fill="#F5F5F5" d="M294.033 223.396l-.678.038-.757-12.028.699.301.736 11.689z"/><path fill="#8CC440" d="M255.076 219.828l-3.162 17.937s22.696-6.858 42.456 0l-2.936-18.992s-26.535-3.059-36.358 1.055z"/><path fill="#F5F5F5" d="M293.978 227.055c1.808 0 3.274-.944 3.274-2.11 0-1.165-1.466-2.11-3.274-2.11-1.809 0-3.275.945-3.275 2.11 0 1.166 1.466 2.11 3.275 2.11z"/><path fill="#3B4C55" d="M304.938 235.263h120.077v82.033H304.938z"/><path fill="#FFD037" fill-rule="evenodd" d="M347.766 257.294a.999.999 0 011.414 0l8.5 8.5a1 1 0 010 1.414l-8.5 8.5a1 1 0 01-1.414-1.414l7.792-7.793-7.792-7.793a.999.999 0 010-1.414zm-13.586 0a.999.999 0 00-1.414 0l-8.5 8.5a.999.999 0 000 1.414l8.5 8.5a1 1 0 001.414-1.414l-7.793-7.793 7.793-7.793a1 1 0 000-1.414zm11.615-5.24a1 1 0 01.625 1.268l-9 26.5a1 1 0 01-1.894-.643l9-26.5a1 1 0 011.269-.625z" clip-rule="evenodd"/><path fill="#fff" d="M355.576 324.86c0-.668.533-1.204 1.199-1.204h17.268a1.2 1.2 0 011.204 1.204c0 .667-.537 1.206-1.204 1.206h-17.268a1.203 1.203 0 01-1.199-1.206zm69.441-7.66H305.31v-80.184h119.707V317.2zm23.802 8.25a3.224 3.224 0 00-3.218-3.229v-.23h-17.076a2.503 2.503 0 001.481-2.286v-85.2A2.499 2.499 0 00427.51 232H302.815a2.501 2.501 0 00-2.493 2.505v85.199a2.51 2.51 0 001.48 2.286h-16.585v.224a3.224 3.224 0 00-3.217 3.232 3.226 3.226 0 003.217 3.234h160.384a3.225 3.225 0 003.218-3.23z"/><path fill="#3F3D56" d="M464.629 284.055h-.123c-.2 0-.361.162-.361.362v6.252c0 .2.161.362.361.362h.123c.2 0 .362-.162.362-.362v-6.252c0-.2-.162-.362-.362-.362zm-28.375-5.465h-.001a.237.237 0 00-.237.237v1.823c0 .131.106.237.237.237h.001a.237.237 0 00.237-.237v-1.823a.237.237 0 00-.237-.237zm.014 4.204h-.001a.268.268 0 00-.267.267v3.464c0 .147.12.267.267.267h.001c.148 0 .267-.12.267-.267v-3.464a.267.267 0 00-.267-.267zm-.004 5.396h-.002a.254.254 0 00-.254.254v3.523c0 .141.114.255.254.255h.002c.14 0 .254-.114.254-.255v-3.523a.254.254 0 00-.254-.254z"/><path fill="#fff" d="M461.673 271h-22.46a2.928 2.928 0 00-2.928 2.928v51.691a2.928 2.928 0 002.928 2.928h22.46a2.928 2.928 0 002.928-2.928v-51.691a2.928 2.928 0 00-2.928-2.928z"/><path fill="#212121" d="M451.264 272.718h-3.152a.402.402 0 000 .803h3.152a.402.402 0 100-.803zm1.456.858a.455.455 0 100-.91.455.455 0 000 .91z"/><path fill="#3B4C55" d="M460.604 272.5h-3.241v.39a1.852 1.852 0 01-1.848 1.851h-10.338a1.854 1.854 0 01-1.853-1.852v-.389h-3.04a2.254 2.254 0 00-2.249 2.249v50.05a2.253 2.253 0 001.388 2.078c.273.113.566.171.861.171h20.32a2.253 2.253 0 002.078-1.388c.113-.273.171-.566.171-.861v-50.051a2.249 2.249 0 00-2.249-2.248z"/><rect width="4.184" height="4.184" x="441.977" y="281.162" fill="#8CC440" fill-opacity=".5" rx="1"/><rect width="4.184" height="4.184" x="441.977" y="287.737" fill="#8CC440" fill-opacity=".5" rx="1"/><rect width="4.184" height="4.184" x="441.977" y="294.312" fill="#8CC440" fill-opacity=".5" rx="1"/><rect width="4.184" height="4.184" x="441.977" y="300.887" fill="#8CC440" fill-opacity=".5" rx="1"/><rect width="4.184" height="4.184" x="441.977" y="307.462" fill="#8CC440" fill-opacity=".5" rx="1"/><rect width="4.184" height="4.184" x="441.977" y="314.037" fill="#8CC440" fill-opacity=".5" rx="1"/><rect width="4.184" height="4.184" x="448.551" y="281.162" fill="#8CC440" fill-opacity=".5" rx="1"/><rect width="4.184" height="4.184" x="448.551" y="287.737" fill="#8CC440" fill-opacity=".5" rx="1"/><rect width="4.184" height="4.184" x="448.551" y="294.312" fill="#8CC440" fill-opacity=".5" rx="1"/><rect width="4.184" height="4.184" x="448.551" y="300.887" fill="#8CC440" fill-opacity=".5" rx="1"/><rect width="4.184" height="4.184" x="448.551" y="307.462" fill="#8CC440" fill-opacity=".5" rx="1"/><rect width="4.184" height="4.184" x="448.551" y="314.037" fill="#8CC440" fill-opacity=".5" rx="1"/><rect width="4.184" height="4.184" x="455.129" y="281.162" fill="#8CC440" fill-opacity=".5" rx="1"/><rect width="4.184" height="4.184" x="455.129" y="287.737" fill="#8CC440" fill-opacity=".5" rx="1"/><rect width="4.184" height="4.184" x="455.129" y="294.312" fill="#8CC440" fill-opacity=".5" rx="1"/><rect width="4.184" height="4.184" x="455.129" y="300.887" fill="#8CC440" fill-opacity=".5" rx="1"/><rect width="4.184" height="4.184" x="455.129" y="307.462" fill="#8CC440" fill-opacity=".5" rx="1"/><rect width="4.184" height="4.184" x="455.129" y="314.037" fill="#8CC440" fill-opacity=".5" rx="1"/><rect width="33" height="10" x="375.973" y="252" fill="#8CC440" rx="2"/><rect width="10" height="10" x="322.973" y="291" fill="#8CC440" rx="2"/><rect width="33" height="3" x="375.973" y="269" fill="#8CC440" rx="1.5"/><rect width="33" height="3" x="375.973" y="291" fill="#8CC440" rx="1.5"/><rect width="21" height="3" x="337.973" y="291" fill="#8CC440" rx="1.5"/><rect width="33" height="3" x="375.973" y="276" fill="#8CC440" rx="1.5"/><rect width="33" height="3" x="375.973" y="298" fill="#8CC440" rx="1.5"/><rect width="21" height="3" x="337.973" y="298" fill="#8CC440" rx="1.5"/><path fill="#06AAF5" d="M222.681 335.251l8.528 10.439-13.304 2.166 4.776-12.605z"/><path fill="#F06292" d="M12.681 25.25l8.528 10.44-13.304 2.166L12.68 25.25z"/><circle cx="24" cy="91" r="24" fill="#8CC440"/><circle cx="24" cy="91" r="18" fill="#fff"/><path fill="#094786" d="M15 96h1.339l1.414 3.31h.06L19.227 96h1.338v4.928h-1.053V97.72h-.042l-1.329 3.184h-.717l-1.328-3.196h-.043v3.22H15V96zm8.18 5c-.39 0-.727-.079-1.011-.238a1.664 1.664 0 01-.654-.669 2.081 2.081 0 01-.231-.999c0-.381.077-.715.23-1 .154-.288.372-.51.655-.67.284-.16.62-.24 1.01-.24s.725.08 1.008.24c.284.16.503.382.657.67.153.285.23.619.23 1 0 .379-.077.712-.23.999a1.665 1.665 0 01-.657.669c-.283.159-.619.238-1.008.238zm.004-.794a.684.684 0 00.444-.144.888.888 0 00.268-.4c.062-.168.093-.36.093-.575 0-.215-.031-.407-.093-.575a.902.902 0 00-.268-.4.68.68 0 00-.444-.146.695.695 0 00-.451.147.887.887 0 00-.273.399c-.06.168-.09.36-.09.575 0 .215.03.407.09.575a.896.896 0 00.273.4.706.706 0 00.451.144zm2.585.722v-3.696h1.035v.645h.04a.948.948 0 01.354-.52.95.95 0 01.571-.178 1.533 1.533 0 01.336.036v.91a2.003 2.003 0 00-.451-.056.878.878 0 00-.421.099.735.735 0 00-.291.27.752.752 0 00-.105.399v2.091h-1.068zm4.464.072c-.396 0-.737-.077-1.023-.231a1.616 1.616 0 01-.657-.659c-.154-.286-.23-.623-.23-1.013 0-.38.076-.714.23-1.001.154-.287.37-.511.65-.672.28-.16.61-.24.987-.24.254 0 .49.04.71.118a1.558 1.558 0 01.962.936c.092.234.138.508.138.823v.281h-3.251v-.635h2.246a.767.767 0 00-.1-.392.703.703 0 00-.279-.267.816.816 0 00-.408-.099.849.849 0 00-.431.108.764.764 0 00-.291.287.774.774 0 00-.108.397v.604c0 .182.035.34.105.474a.762.762 0 00.303.308c.13.072.285.108.464.108.119 0 .227-.016.326-.048s.183-.08.253-.145a.61.61 0 00.16-.236l.988.063c-.05.228-.152.427-.308.597-.154.168-.352.3-.596.394a2.34 2.34 0 01-.84.14z"/><circle cx="24.185" cy="82.473" r="1.419" fill="#094786"/><circle cx="24.185" cy="86.731" r="1.419" fill="#094786"/><circle cx="24.185" cy="90.989" r="1.419" fill="#094786"/><defs><linearGradient id="prefix__paint0_linear" x1="257.76" x2="261.072" y1="241.499" y2="234.355" gradientUnits="userSpaceOnUse"><stop stop-color="gray" stop-opacity=".25"/><stop offset=".535" stop-color="gray" stop-opacity=".12"/><stop offset="1" stop-color="gray" stop-opacity=".1"/></linearGradient></defs></svg>