<svg xmlns="http://www.w3.org/2000/svg" width="70" height="74" fill="none"><path fill="#2083D2" d="M.888 25.367a2.007 2.007 0 01.016-3.343L33.898.33a2.005 2.005 0 012.204 0l32.994 21.694a2.007 2.007 0 01.016 3.343L36.118 47.513a2.006 2.006 0 01-2.236 0L.888 25.367z"/><path fill="#004279" fill-rule="evenodd" d="M35 2.007L2.007 23.7 35 45.847l32.993-22.146L35 2.007zM.904 22.024a2.007 2.007 0 00-.016 3.343l32.994 22.146c.676.454 1.56.454 2.236 0l32.994-22.146a2.007 2.007 0 00-.016-3.343L36.102.33a2.005 2.005 0 00-2.204 0L.904 22.024z" clip-rule="evenodd"/><path fill="#004279" fill-rule="evenodd" d="M37.602 21.872a1.004 1.004 0 00-1.189 1.617l16.647 12.24v27.348a1.993 1.993 0 00-.735.738l-3.91 6.772c-.772 1.337.194 3.01 1.738 3.01h7.82c1.545 0 2.51-1.673 1.738-3.01l-3.91-6.772a1.993 1.993 0 00-.735-.738V35.22a1 1 0 00-.409-.808l-17.055-12.54zm16.461 42.946l3.91 6.772h-7.82l3.91-6.772z" clip-rule="evenodd"/><path fill="#004279" fill-rule="evenodd" d="M2.894 24.3l32.112 21.753 32.098-21.226v20.898c0 .666-.33 1.288-.882 1.661L36.131 67.771a2.005 2.005 0 01-2.269-.013L3.757 46.88a2.006 2.006 0 01-.863-1.648V24.3zm2.007 3.783v17.148L35.006 66.11l30.091-20.385V28.56L34.992 48.468 4.901 28.083z" clip-rule="evenodd"/></svg>