<svg width="48" height="48" viewBox="0 0 48 48" fill="none" xmlns="http://www.w3.org/2000/svg">
<path d="M46 0H2C0.9 0 0 0.9 0 2V46C0 47.1 0.9 48 2 48H46C47.1 48 48 47.1 48 46V2C48 0.9 47.1 0 46 0ZM46 46H2V2H46V46Z" fill="#37474F"/>
<path d="M46 9H2V11H46V9Z" fill="#37474F"/>
<path d="M6.5 7C7.32843 7 8 6.32843 8 5.5C8 4.67157 7.32843 4 6.5 4C5.67157 4 5 4.67157 5 5.5C5 6.32843 5.67157 7 6.5 7Z" fill="#37474F"/>
<path d="M11.5 7C12.3284 7 13 6.32843 13 5.5C13 4.67157 12.3284 4 11.5 4C10.6716 4 10 4.67157 10 5.5C10 6.32843 10.6716 7 11.5 7Z" fill="#37474F"/>
<path d="M16.5 7C17.3284 7 18 6.32843 18 5.5C18 4.67157 17.3284 4 16.5 4C15.6716 4 15 4.67157 15 5.5C15 6.32843 15.6716 7 16.5 7Z" fill="#37474F"/>
<path d="M41.5 7H30.5C29.7 7 29 6.3 29 5.5C29 4.7 29.7 4 30.5 4H41.5C42.3 4 43 4.7 43 5.5C43 6.3 42.3 7 41.5 7Z" fill="#37474F"/>
<path d="M26.3629 33.0208C25.1913 34.1924 23.2918 34.1924 22.1203 33.0208C20.9487 31.8492 20.9487 29.9497 22.1203 28.7782C23.2918 27.6066 32.0198 23.1213 32.0198 23.1213C32.0198 23.1213 27.5345 31.8492 26.3629 33.0208Z" fill="#2083D2"/>
<path fill-rule="evenodd" clip-rule="evenodd" d="M33.7479 38C35.1652 36.0298 36 33.6124 36 31C36 24.3726 30.6274 19 24 19C17.3726 19 12 24.3726 12 31C12 33.6124 12.8348 36.0298 14.2521 38H11.873C10.6818 35.9408 10 33.55 10 31C10 23.268 16.268 17 24 17C31.732 17 38 23.268 38 31C38 33.55 37.3182 35.9408 36.1271 38H33.7479Z" fill="#2083D2"/>
</svg>
