<svg width="48" height="50" viewBox="0 0 48 50" fill="none" xmlns="http://www.w3.org/2000/svg">
<path fill-rule="evenodd" clip-rule="evenodd" d="M2 0H46C47.1 0 48 0.9 48 2V38C48 39.1 47.1 40 46 40H35V38H46V2H2V38H13V40H2C0.9 40 0 39.1 0 38V2C0 0.9 0.9 0 2 0Z" fill="#37474F"/>
<path d="M46 9H2V11H46V9Z" fill="#37474F"/>
<path d="M6.5 7C7.32843 7 8 6.32843 8 5.5C8 4.67157 7.32843 4 6.5 4C5.67157 4 5 4.67157 5 5.5C5 6.32843 5.67157 7 6.5 7Z" fill="#37474F"/>
<path d="M11.5 7C12.3284 7 13 6.32843 13 5.5C13 4.67157 12.3284 4 11.5 4C10.6716 4 10 4.67157 10 5.5C10 6.32843 10.6716 7 11.5 7Z" fill="#37474F"/>
<path d="M16.5 7C17.3284 7 18 6.32843 18 5.5C18 4.67157 17.3284 4 16.5 4C15.6716 4 15 4.67157 15 5.5C15 6.32843 15.6716 7 16.5 7Z" fill="#37474F"/>
<path d="M41.5 7H30.5C29.7 7 29 6.3 29 5.5C29 4.7 29.7 4 30.5 4H41.5C42.3 4 43 4.7 43 5.5C43 6.3 42.3 7 41.5 7Z" fill="#37474F"/>
<path fill-rule="evenodd" clip-rule="evenodd" d="M16.6757 15.2628C17.0829 15.636 17.1104 16.2686 16.7372 16.6757L11.2375 22.6757C10.882 23.0637 10.2866 23.1096 9.87569 22.781L7.37539 20.781C6.94411 20.436 6.87415 19.8067 7.21913 19.3754C7.56412 18.9441 8.1934 18.8742 8.62469 19.2191L10.3949 20.6351L15.2629 15.3243C15.636 14.9172 16.2686 14.8897 16.6757 15.2628Z" fill="#2083D2"/>
<rect x="22" y="16" width="19" height="2" rx="1" fill="#2083D2"/>
<rect x="22" y="20" width="19" height="2" rx="1" fill="#2083D2"/>
<path d="M23.0489 28.9271C23.3483 28.0057 24.6517 28.0057 24.9511 28.9271L26.4697 33.6008C26.6035 34.0128 26.9875 34.2918 27.4207 34.2918H32.335C33.3037 34.2918 33.7065 35.5314 32.9228 36.1008L28.947 38.9894C28.5966 39.244 28.4499 39.6954 28.5838 40.1074L30.1024 44.7812C30.4017 45.7025 29.3472 46.4686 28.5635 45.8992L24.5878 43.0106C24.2373 42.756 23.7627 42.756 23.4122 43.0106L19.4365 45.8992C18.6528 46.4686 17.5983 45.7025 17.8976 44.7812L19.4162 40.1074C19.5501 39.6954 19.4034 39.244 19.053 38.9894L15.0772 36.1008C14.2935 35.5314 14.6963 34.2918 15.665 34.2918H20.5793C21.0125 34.2918 21.3965 34.0128 21.5303 33.6008L23.0489 28.9271Z" fill="#2083D2"/>
</svg>
