<svg xmlns="http://www.w3.org/2000/svg" width="48" height="47" fill="none" viewBox="0 0 48 47">
    <g fill="#fff" clip-path="url(#prefix__clip0)">
        <path d="M23.815 46C10.665 46 0 35.7 0 23S10.665 0 23.815 0c13.15 0 23.814 10.3 23.814 23h-2.07c0-11.6-9.734-21-21.744-21C11.804 2 2.07 11.4 2.07 23s9.733 21 21.744 21v2z"/>
        <path d="M45.558 33h-1.035v-2c0-2.8-2.278-5-5.177-5-2.9 0-5.177 2.2-5.177 5v2h-1.036c-1.139 0-2.07.9-2.07 2v10c0 1.1.931 2 2.07 2h12.425c1.14 0 2.071-.9 2.071-2V35c0-1.1-.932-2-2.07-2zm-6.212 9c-1.14 0-2.071-.9-2.071-2s.932-2 2.07-2c1.14 0 2.072.9 2.072 2s-.932 2-2.071 2zm3.106-9H36.24v-2c0-1.7 1.346-3 3.106-3 1.76 0 3.106 1.3 3.106 3v2zM28.991 16h-4.659c.828.8 1.346 1.8 1.45 3h3.21v2h-3.21c-.415 2.4-2.382 4.3-4.763 4.9l5.902 5.7-1.45 1.4-7.455-7.2-1.45-1.3 1.036-1 .414-.4.932.9c.207 0 .414.1.725.1 1.967 0 3.52-1.3 4.038-3h-7.145v-2h7.145c-.414-1.7-2.071-3-4.038-3h-3.107v-2h12.425V16z"/>
    </g>
    <defs>
        <clipPath id="prefix__clip0">
            <path fill="#fff" d="M0 0H47.629V47H0z"/>
        </clipPath>
    </defs>
</svg>
