<svg xmlns="http://www.w3.org/2000/svg" width="400" height="411" fill="none" viewBox="0 0 400 411">
    <rect width="100" height="100" x="158" y="311" fill="#007EC7" rx="16"/>
    <rect width="100" height="100" x="300" y="110" fill="#007EC7" rx="16"/>
    <rect width="100" height="100" x="53" y="53" fill="#007EC7" rx="16"/>
    <rect width="45" height="45" x="179" fill="#007EC7" rx="10"/>
    <rect width="45" height="45" x="73" y="330" fill="#007EC7" rx="10"/>
    <rect width="45" height="45" x="298" y="364" fill="#007EC7" rx="10"/>
    <rect width="45" height="45" x="186" y="154" fill="#007EC7" rx="10"/>
    <rect width="63" height="63" x="293" y="35" fill="#007EC7" rx="10"/>
    <rect width="37" height="37" x="77.027" y="240" fill="#007EC7" rx="4"/>
    <path fill="#FF8F00" d="M360.711 126.196l13.372 1.703-8.16 10.729-5.212-12.432zM35.711 124.196l13.372 1.703-8.16 10.729-5.212-12.432z"/>
    <path fill="#FFF9C4" d="M254.681 96.25l8.528 10.439-13.304 2.166 4.776-12.605zM369.681 334.25l8.528 10.439-13.304 2.166 4.776-12.605z"/>
    <path fill="#FFD037" d="M111.003 207.543l-9.655 9.407-3.32-13.064 12.975 3.657z"/>
    <path fill="#8CC440" d="M21.709 370.25l8.528 10.439-13.305 2.166 4.777-12.605zM291.681 195.25l8.528 10.439-13.304 2.166 4.776-12.605z"/>
    <circle cx="105.027" cy="62" r="4" fill="#8CC440"/>
    <circle cx="371" cy="236" r="4" fill="#8CC440"/>
    <circle cx="4.027" cy="263" r="4" fill="#FF8F00"/>
    <circle cx="234" cy="178" r="4" fill="#FF8F00"/>
    <circle cx="138.027" cy="352" r="4" fill="#FF8F00"/>
    <path fill="#0074BD" fill-rule="evenodd" d="M356.822 180.251C382.177 190.565 400 215.485 400 244.588 400 282.845 368.995 314 330.749 314H95.251C56.924 314 26 282.923 26 244.588c0-28.471 17.172-53.008 41.72-63.698-.109-1.891-.164-3.796-.164-5.714 0-53.669 43.411-97.176 96.963-97.176 36.191 0 67.751 19.872 84.41 49.322 10.068-4.916 21.378-7.675 33.33-7.675 36.689 0 67.321 25.991 74.563 60.604z" clip-rule="evenodd"/>
    <path fill="#007EC7" stroke="#fff" stroke-width="6" d="M284.667 188.538l.327 1.564 1.48.6c12.057 4.894 20.526 16.716 20.526 30.52 0 18.147-14.742 32.926-32.922 32.926H151.922c-18.222 0-32.922-14.739-32.922-32.926 0-13.498 8.158-25.143 19.837-30.217l1.92-.835-.121-2.09c-.053-.921-.08-1.849-.08-2.784 0-26.121 21.175-47.296 47.296-47.296 17.649 0 33.045 9.666 41.175 24.008l1.39 2.452 2.534-1.235c4.822-2.35 10.24-3.669 15.975-3.669 17.583 0 32.269 12.429 35.741 28.982z"/>
    <path fill="#06AAF5" d="M172.681 371.25l8.528 10.439-13.304 2.166 4.776-12.605z"/>
    <path fill="#F06292" d="M282.681 391.25l8.528 10.439-13.304 2.166 4.776-12.605z"/>
    <circle cx="300" cy="295" r="15" fill="#007EC7" stroke="#fff" stroke-width="2"/>
    <path fill="#fff" d="M294.742 292.262v7.67h.005c.053.648.649 1.163 1.371 1.163h7.713c.721 0 1.317-.515 1.371-1.163h.004v-7.67h-10.464zM294.343 297.882c0 .757-.527 1.376-1.172 1.376-.644 0-1.171-.619-1.171-1.376v-4.502c0-.757.527-1.376 1.171-1.376.645 0 1.172.619 1.172 1.376v4.502z"/>
    <path fill="#fff" d="M299.225 303.468c0 .757-.527 1.376-1.171 1.376s-1.171-.619-1.171-1.376v-4.502c0-.757.527-1.376 1.171-1.376s1.171.619 1.171 1.376v4.502zM303.128 303.468c0 .757-.527 1.376-1.171 1.376-.645 0-1.172-.619-1.172-1.376v-4.502c0-.757.527-1.376 1.172-1.376.644 0 1.171.619 1.171 1.376v4.502zM307.999 297.882c0 .757-.527 1.376-1.171 1.376s-1.172-.619-1.172-1.376v-4.502c0-.757.528-1.376 1.172-1.376.644 0 1.171.619 1.171 1.376v4.502zM302.561 287.651l.752-1.349c.061-.11.043-.238-.04-.285-.084-.046-.202.006-.264.116l-.769 1.38c-.685-.27-1.454-.421-2.266-.421-.818 0-1.591.153-2.281.427l-.773-1.386c-.061-.11-.18-.162-.263-.116-.083.047-.101.175-.04.285l.755 1.355c-1.571.738-2.63 2.124-2.63 3.712 0 .162.012.321.033.477h10.399c.021-.156.032-.315.032-.477 0-1.593-1.065-2.982-2.645-3.718zm-4.961 2.353c-.253 0-.458-.204-.458-.457s.205-.458.458-.458.458.205.458.458-.205.457-.458.457zm4.775 0c-.253 0-.458-.204-.458-.457s.205-.458.458-.458c.252 0 .457.205.457.458s-.205.457-.457.457z"/>
    <circle cx="113" cy="293" r="15" fill="#007EC7" stroke="#fff" stroke-width="2"/>
    <path fill="#fff" d="M117.364 292.24c-.025-2.489 2.029-3.683 2.121-3.743-1.154-1.688-2.953-1.92-3.593-1.946-1.53-.156-2.986.901-3.762.901-.775 0-1.974-.878-3.242-.856-1.669.025-3.207.97-4.065 2.464-1.733 3.006-.444 7.461 1.245 9.901.825 1.192 1.81 2.534 3.101 2.485 1.245-.049 1.715-.805 3.22-.805 1.505 0 1.927.805 3.244.78 1.339-.024 2.187-1.215 3.006-2.413.948-1.385 1.338-2.727 1.361-2.794-.029-.014-2.61-1.002-2.636-3.974z"/>
    <path fill="#fff" d="M114.888 285.137c.685-.831 1.149-1.987 1.023-3.137-.988.04-2.185.657-2.895 1.488-.635.737-1.191 1.911-1.042 3.04 1.102.086 2.227-.561 2.914-1.391z"/>
    <circle cx="309" cy="126" r="15" fill="#007EC7" stroke="#fff" stroke-width="2"/>
    <path fill="#fff" d="M304.018 124.495c0 .274.03.497.082.661.06.163.134.341.238.534.037.06.052.119.052.171 0 .075-.045.149-.141.223l-.468.312c-.067.045-.134.067-.193.067-.075 0-.149-.037-.223-.104-.104-.111-.193-.23-.268-.349-.074-.126-.148-.268-.23-.438-.579.683-1.307 1.025-2.183 1.025-.624 0-1.122-.179-1.486-.535-.364-.357-.55-.832-.55-1.426 0-.632.223-1.144.676-1.53.453-.387 1.055-.58 1.82-.58.253 0 .513.023.787.06.275.037.557.096.855.163v-.542c0-.564-.119-.958-.35-1.188-.237-.231-.638-.342-1.21-.342-.26 0-.528.03-.802.096-.275.067-.543.149-.803.253-.118.052-.208.082-.26.097-.052.014-.089.022-.118.022-.104 0-.156-.074-.156-.23v-.364c0-.119.015-.208.052-.26.037-.052.104-.104.208-.156.26-.134.572-.245.935-.334.364-.097.751-.142 1.159-.142.884 0 1.53.201 1.946.602.409.401.617 1.01.617 1.827v2.407h.014zm-3.015 1.129c.245 0 .498-.045.765-.134.267-.089.505-.253.706-.475.118-.142.208-.298.252-.476.045-.178.074-.393.074-.646v-.312c-.215-.052-.445-.096-.683-.126-.238-.03-.468-.045-.698-.045-.498 0-.862.097-1.107.297-.245.201-.364.483-.364.854 0 .35.089.61.275.788.178.185.438.275.78.275zm5.964.802c-.134 0-.223-.023-.282-.075-.06-.044-.112-.148-.156-.289l-1.746-5.742c-.044-.148-.066-.245-.066-.297 0-.119.059-.185.178-.185h.728c.141 0 .237.022.289.074.06.044.104.148.149.29l1.248 4.917 1.158-4.917c.038-.149.082-.246.142-.29.059-.045.163-.074.297-.074h.594c.141 0 .238.022.297.074.059.044.111.148.141.29l1.174 4.976 1.285-4.976c.044-.149.096-.246.148-.29.06-.045.156-.074.29-.074h.691c.118 0 .185.059.185.185 0 .037-.007.075-.015.119-.007.045-.022.104-.052.186l-1.79 5.741c-.044.149-.096.245-.156.29-.059.044-.156.074-.282.074h-.639c-.141 0-.237-.022-.297-.074-.059-.052-.111-.149-.141-.297l-1.151-4.791-1.144 4.783c-.037.149-.082.245-.141.297-.059.052-.163.075-.297.075h-.639zm9.544.2c-.386 0-.772-.044-1.143-.133-.372-.09-.661-.186-.855-.297-.118-.067-.2-.142-.23-.208-.03-.067-.044-.142-.044-.208v-.379c0-.156.059-.23.17-.23.045 0 .09.007.134.022.045.015.112.044.186.074.252.111.527.201.817.26.297.059.587.089.884.089.468 0 .832-.082 1.084-.245.253-.163.386-.401.386-.706 0-.208-.067-.378-.2-.519-.134-.142-.386-.268-.75-.387l-1.077-.334c-.543-.171-.944-.423-1.189-.758-.245-.326-.371-.69-.371-1.076 0-.312.067-.587.2-.825.134-.238.312-.446.535-.609.223-.171.476-.297.773-.386.297-.089.609-.126.935-.126.164 0 .335.007.498.029.171.023.327.052.483.082.148.037.29.074.423.119.134.044.238.089.312.133.104.06.178.119.223.186.045.06.067.141.067.245v.349c0 .156-.06.238-.171.238-.059 0-.156-.03-.282-.089-.424-.193-.899-.29-1.426-.29-.424 0-.758.067-.988.208-.23.141-.349.357-.349.661 0 .208.074.386.223.528.148.141.423.282.817.408l1.054.334c.535.171.921.409 1.152.713.23.305.341.654.341 1.04 0 .32-.067.609-.193.862-.134.252-.312.475-.542.653-.23.186-.505.32-.825.416-.334.104-.683.156-1.062.156z"/>
    <path fill="#fff" fill-rule="evenodd" d="M317.917 130.234c-2.444 1.805-5.994 2.763-9.047 2.763-4.278 0-8.133-1.582-11.045-4.211-.23-.208-.022-.49.253-.327 3.149 1.827 7.034 2.934 11.052 2.934 2.711 0 5.689-.565 8.43-1.723.409-.186.758.267.357.564z" clip-rule="evenodd"/>
    <path fill="#fff" fill-rule="evenodd" d="M318.936 129.076c-.312-.401-2.065-.193-2.859-.097-.238.03-.275-.178-.06-.334 1.396-.98 3.692-.698 3.959-.371.267.334-.074 2.629-1.382 3.728-.2.171-.393.082-.304-.141.297-.735.958-2.391.646-2.785z" clip-rule="evenodd"/>
    <circle cx="170" cy="75" r="15" fill="#007EC7" stroke="#fff" stroke-width="2"/>
    <path fill="#fff" d="M178 70.662v9.335l-2.288 1.33v-9.323l-5.719-3.34-5.723 3.34.014 9.327L162 79.997V70.67L170.007 66 178 70.662zm-6.86 10.666l-1.14.67-1.148-.663v-9.331l-2.284 1.334.004 9.328 3.424 2 3.432-2v-9.332L171.14 72v9.328z"/>
    <circle cx="75" cy="171" r="15" fill="#007EC7" stroke="#fff" stroke-width="2"/>
    <path fill="#fff" d="M69.487 162.027h.932v1.02h1.019V160h-1.02v1.007h-.93V160h-1.02v3.047h1.02v-1.02zM72.775 163.047h1.019v-2.036h.896V160h-2.811v1.011h.896v2.036zM76.133 161.538l.701 1.083h.017l.7-1.083v1.509h1.016V160h-1.063l-.653 1.072-.653-1.072h-1.061v3.047h.996v-1.509zM81.525 162.041h-1.432V160h-1.019v3.047h2.451v-1.006zM67 164.383l1.457 16.339 6.54 1.815 6.543-1.814 1.46-16.34H67zm12.84 5.343h-7.67l.184 2.052h7.303l-.55 6.154L75 179.07l-.003.001-4.105-1.139-.287-3.219h2.011l.15 1.67 2.231.603H75l2.235-.604.232-2.599h-6.945l-.541-6.06H80.018l-.178 2.003z"/>
    <circle cx="355" cy="210" r="15" fill="#007EC7" stroke="#fff" stroke-width="2"/>
    <path fill="#fff" d="M355 201l-8 2.853 1.22 10.578 6.78 3.755 6.78-3.755 1.22-10.578-8-2.853z"/>
    <path fill="#fff" d="M355 201v1.908-.009V218.186l6.78-3.755 1.22-10.578-8-2.853z"/>
    <path fill="#007EC7" d="M355.001 202.898L350 214.112h1.865l1.005-2.509h4.245l1.005 2.509h1.865l-4.984-11.214zm1.461 7.158h-2.922l1.461-3.514 1.461 3.514z"/>
    <circle cx="347" cy="379" r="15" fill="#007EC7" stroke="#fff" stroke-width="2"/>
    <path fill="#fff" d="M346.905 371c-.66.003-1.29.059-1.844.158-1.634.288-1.93.892-1.93 2.006v1.471h3.859v.49h-5.307c-1.122 0-2.104.674-2.411 1.956-.355 1.47-.37 2.388 0 3.923.274 1.142.929 1.956 2.051 1.956h1.327v-1.763c0-1.274 1.102-2.397 2.411-2.397h3.854c1.073 0 1.93-.884 1.93-1.962v-3.674c0-1.046-.882-1.832-1.93-2.006-.663-.111-1.351-.161-2.01-.158zm-2.087 1.183c.398 0 .724.331.724.738 0 .405-.326.733-.724.733-.4 0-.724-.328-.724-.733 0-.407.324-.738.724-.738z"/>
    <path fill="#fff" d="M351.328 375.125v1.714c0 1.328-1.126 2.447-2.411 2.447h-3.855c-1.055 0-1.929.903-1.929 1.961v3.675c0 1.045.909 1.661 1.929 1.961 1.222.359 2.393.424 3.855 0 .972-.281 1.93-.848 1.93-1.961v-1.471h-3.855v-.49h5.784c1.122 0 1.54-.783 1.93-1.957.403-1.209.386-2.372 0-3.922-.277-1.117-.807-1.957-1.93-1.957h-1.448zm-2.168 9.306c.4 0 .724.328.724.733 0 .407-.324.738-.724.738-.398 0-.724-.331-.724-.738 0-.405.326-.733.724-.733z"/>
    <circle cx="69" cy="375" r="15" fill="#007EC7" stroke="#fff" stroke-width="2"/>
    <path fill="#fff" d="M61 380.683l6.456.935v-6.177H61v5.242zm0-6.124h6.456v-6.177l-6.456.935v5.242zm7.338 7.186L77 383v-7.559h-8.662v6.304zm0-13.491v6.305H77V367l-8.662 1.254zM257.573 255.548h-1.053v-28.85c0-4.429-1.76-8.676-4.891-11.807-3.131-3.132-7.379-4.891-11.807-4.891h-61.124c-2.193 0-4.364.432-6.39 1.271s-3.867 2.069-5.417 3.62c-1.551 1.55-2.781 3.391-3.62 5.417s-1.271 4.197-1.271 6.39v158.276c0 2.193.432 4.364 1.271 6.39s2.069 3.867 3.62 5.417c1.55 1.551 3.391 2.781 5.417 3.62s4.197 1.271 6.39 1.271h61.124c4.428 0 8.675-1.759 11.807-4.89 3.131-3.132 4.891-7.379 4.891-11.808V276.085h1.053v-20.537z"/>
    <path fill="#007EC7" d="M240.888 214.344h-7.979c.367.899.507 1.875.408 2.842-.099.966-.434 1.893-.976 2.7-.542.806-1.274 1.467-2.131 1.924-.858.457-1.814.696-2.786.696h-35.017c-.971 0-1.928-.239-2.785-.696-.858-.457-1.59-1.118-2.132-1.924-.541-.807-.877-1.734-.976-2.7-.099-.967.041-1.943.408-2.842h-7.452c-3.307 0-6.479 1.314-8.818 3.652-2.338 2.339-3.652 5.51-3.652 8.818v158.044c0 1.637.323 3.259.949 4.772.627 1.513 1.545 2.887 2.703 4.045s2.533 2.077 4.046 2.703c1.513.627 3.134.95 4.772.95h61.418c1.638 0 3.259-.323 4.772-.95 1.513-.626 2.888-1.545 4.045-2.703 1.158-1.158 2.077-2.532 2.704-4.045.626-1.513.949-3.135.949-4.772V226.814c0-1.638-.323-3.26-.949-4.772-.627-1.513-1.546-2.888-2.704-4.046-1.157-1.158-2.532-2.076-4.045-2.703-1.513-.627-3.134-.949-4.772-.949z"/>
    <path stroke="#fff" stroke-linecap="round" stroke-linejoin="round" stroke-width="3" d="M191 359h38M191 369h38M191 379h38"/>
    <rect width="69" height="80" x="176" y="262" fill="#0C92DB" rx="6"/>
    <path stroke="#fff" stroke-linecap="round" stroke-linejoin="round" stroke-width="3" d="M198.5 321.5V282m0 39.5l-6.5-6m6.5 6l6.5-6M223.5 282v39.5m0-39.5l6.5 6m-6.5-6l-6.5 6"/>
    <path fill="#06AAF5" d="M198.681 179.25l8.528 10.439-13.304 2.166 4.776-12.605z"/>
</svg>
