<svg xmlns="http://www.w3.org/2000/svg" width="431" height="374" fill="none"><rect width="75" height="75" x="87" y="279" fill="#2E3792" rx="16"/><rect width="100" height="100" x="331" y="116" fill="#2E3792" rx="16"/><rect width="100" height="100" x="78" y="10" fill="#2E3792" rx="16"/><rect width="45" height="45" x="293" fill="#2E3792" rx="10"/><rect width="63" height="63" x="296" y="273" fill="#2E3792" rx="10"/><rect width="37" height="37" x="102.027" y="197" fill="#2E3792" rx="4"/><path fill="#FF8F00" d="M385.711 83.196l13.372 1.703-8.16 10.729-5.212-12.432zm-359-23L40.083 61.9l-8.16 10.729-5.212-12.432z"/><path fill="#FFF9C4" d="M219.681 1.25l8.528 10.439-13.304 2.166 4.776-12.605zm-140 264l8.528 10.439-13.304 2.166 4.776-12.605zm315 26l8.528 10.439-13.304 2.166 4.776-12.605z"/><path fill="#FFD037" d="M331.003 76.543l-9.655 9.407-3.319-13.065 12.974 3.658z"/><path fill="#8CC440" d="M46.709 327.25l8.528 10.439-13.305 2.166 4.777-12.605zm221.972-24l8.528 10.439-13.304 2.166 4.776-12.605z"/><circle cx="130.027" cy="19" r="4" fill="#8CC440"/><circle cx="344" cy="20" r="4" fill="#8CC440"/><circle cx="415" cy="213" r="4" fill="#8CC440"/><circle cx="33" cy="153" r="4" fill="#FF8F00"/><circle cx="256" cy="105" r="4" fill="#FF8F00"/><circle cx="196" cy="300" r="4" fill="#FF8F00"/><path fill="#2E3792" d="M268.961 191.184h120.077v82.033H268.961z"/><path fill="#fff" d="M319.604 280.778c0-.668.532-1.204 1.198-1.204h17.269a1.2 1.2 0 011.203 1.204c0 .667-.536 1.206-1.203 1.206h-17.269a1.202 1.202 0 01-1.198-1.206zm69.44-7.66H269.338v-80.184h119.706v80.184zm23.803 8.25a3.224 3.224 0 00-3.219-3.229v-.23h-17.076a2.502 2.502 0 001.482-2.286v-85.2a2.499 2.499 0 00-2.497-2.505H266.842a2.501 2.501 0 00-2.493 2.505v85.199a2.51 2.51 0 001.48 2.286h-16.585v.224a3.223 3.223 0 00-3.217 3.232 3.226 3.226 0 003.217 3.234h160.384a3.226 3.226 0 003.219-3.23z"/><mask id="a" width="204" height="203" x="196" y="71" maskUnits="userSpaceOnUse"><path fill="#2E3792" d="M196 71h203.122v202.533H196V71z"/></mask><g mask="url(#a)"><path fill="#FFC09D" d="M339.682 164.393s-16.903 41.52-13.894 28.184c1.99-8.831-10.875-20.565-19.771-27.459-4.528-3.533-8.025-5.776-8.025-5.776s31.734-36.998 29.485-21.037a24.036 24.036 0 001.731 12.882c3.503 8.326 10.474 13.206 10.474 13.206zm-107.973 58.982c-.895-.23-2.355-.083-3.869.241a58.098 58.098 0 00-7.542 2.291s-12.44 1.501-10.562-11.546c1.395-9.726 12.458-6.194 17.998-3.78a41.593 41.593 0 013.133 1.525l.842 11.269z"/><path fill="#000" d="M231.711 223.376c-.895-.23-2.355-.083-3.869.241-1.354-3.415-.323-11.51-.106-13.035a41.353 41.353 0 013.133 1.525l.842 11.269z" opacity=".1"/><path fill="#fff" d="M231.764 210.917l-3.256-.589s-1.666 11.187.512 14.13h3.744l-1-13.541z"/><path fill="#4C4C78" d="M297.062 231.331s-9.95-5.952-11.14 1.56c-1.189 7.513-2.755 20.348-2.755 20.348l-2.755 16.338-3.568 32.735.5 5.57s10.598-3.568 13.082-2.314c2.485 1.254 4.51-13.771 4.51-13.771l4.122-15.526.624-32.923-2.62-12.017z"/><path fill="#0398DC" d="M297.062 231.331s-9.95-5.952-11.14 1.56c-1.189 7.513-2.755 20.348-2.755 20.348l-2.755 16.338-3.568 32.735.5 5.57s10.598-3.568 13.082-2.314c2.485 1.254 4.51-13.771 4.51-13.771l4.122-15.526.624-32.923-2.62-12.017z"/><path fill="#4C4C78" d="M291.698 192.766s-10.327 11.645-26.006 13.989c-15.679 2.343-35.025 3.102-35.025 3.102s-4.881 8.732 2.161 18.028l39.446-.871s8.732-1.896 15.497 0l3.927-34.248z"/><path fill="#03A9F4" d="M291.698 192.766s-10.327 11.645-26.006 13.989c-15.679 2.343-35.025 3.102-35.025 3.102s-4.881 8.732 2.161 18.028l39.446-.871s8.732-1.896 15.497 0l3.927-34.248z"/><path fill="#000" d="M327.536 150.828c-3.85 8.243-10.545 14.319-20.253 14.319-.43 0-.848 0-1.266-.029-4.528-3.533-8.025-5.776-8.025-5.776s31.734-36.998 29.485-21.037c-.694 4.887-1.489 8.855.059 12.523z" opacity=".1"/><path fill="#FFC09D" d="M331.466 140.202a24.196 24.196 0 01-14.947 22.339 24.194 24.194 0 01-31.592-31.623 24.191 24.191 0 0122.353-14.926 24.142 24.142 0 0124.186 24.21z"/><path fill="#fff" d="M346.253 288.04s-53.954 4.763-55.932-2.125c-1.978-6.889 5.505-25.541 5.505-25.541l-2.437-26.041-.089-.995s6.759-28.172 6.512-30.421c-.235-2.025 10.88-25.664 13.165-30.498.271-.559.412-.865.412-.865l.43.247.188.112 2.644 1.543 10.438-2.473 12.582-6.588 1.178 72.07 5.404 51.575z"/><path fill="#000" d="M318.209 172.425s-3.691-1.001-5.133 2.69a38.432 38.432 0 01-2.002 4.634l-1.437 8.572-2.632 13.541-1.943 59.907.878 10.639 4.822-8.573.877-55.997v-6.965a50.414 50.414 0 014.015-17.486l.671-1.572 4.192-5.387-2.308-4.003z" opacity=".1"/><path fill="#FF8F00" d="M317.46 171.671s-3.698-1.001-5.134 2.69a38.017 38.017 0 01-2.008 4.634l-1.437 8.578-2.631 13.541-1.938 59.907.878 10.645 4.822-8.602.877-55.962v-6.983a50.701 50.701 0 014.015-17.486l.677-1.572 4.192-5.381-2.313-4.009z"/><path fill="#000" d="M333.233 156.211s-12.77 13.541-17.28 15.149c0 0 2.255 10.268 4.51 12.269 0 0 13.4-13.665 15.773-14.771l1.99-4.87-4.993-7.777z" opacity=".1"/><path fill="#F5F5F5" d="M333.233 155.438s-12.77 13.541-17.28 15.148c0 0 2.255 10.268 4.51 12.27 0 0 13.4-13.665 15.773-14.772l1.99-4.863-4.993-7.783z"/><path fill="#000" d="M314.133 171.555l-.129.353-4.092 10.969-7.319 20.694s-.064.212-.194.589c-1.213 3.768-7.73 24.216-9.014 30.156l-.088-.995s6.759-28.172 6.512-30.421c-.236-2.025 10.88-25.664 13.164-30.497.365-.248.648-.46.842-.619l.318-.229z" opacity=".1"/><path fill="#03A9F4" d="M313.388 171.547l-4.227 11.328-7.318 20.695s-.065.211-.195.588c-1.283 4.016-8.601 26.936-9.19 31.128-.666 4.604-9.868 29.491-9.868 29.491l-5.257 43.091c-4.711-3.656 1.978-38.858 1.978-38.858s7.512-52.205 9.29-69.574c1.778-17.368 11.369-22.443 11.369-22.443 4.428-.224 8.42-2.179 10.875-3.68a23.063 23.063 0 002.543-1.766z"/><path fill="#000" d="M331.47 140.201a24.14 24.14 0 01-3.203 12.057c-3.768.666-7.777-.07-10.598-2.561-1.931-1.701-3.179-4.027-4.839-5.999a36.461 36.461 0 00-3.456-3.409 10.977 10.977 0 00-2.726-1.984 3.695 3.695 0 00-3.268-.036c-1.33.742-1.766 2.397-2.537 3.715a4.96 4.96 0 01-2.773 2.42 2.94 2.94 0 01-3.315-1.124c-.819-1.407-.218-3.603-1.59-4.463a8.692 8.692 0 00-1.118-.459c-1.767-.801-1.973-3.174-2.126-5.117-.076-.953-.282-2.031-1.083-2.543-.801-.512-1.855-.253-2.809-.236a3.595 3.595 0 01-.841-.064 24.188 24.188 0 0127.124-13.858 24.194 24.194 0 0119.181 23.661h-.023z" opacity=".1"/><path fill="#000" d="M283.702 108.739a8.07 8.07 0 00-3.256 5.852c-.045.385-.015.774.088 1.148.164.396.361.778.589 1.142 1.236 2.455-.654 5.364-.412 8.101a5.389 5.389 0 005.299 4.711c.953 0 2.001-.283 2.808.235.807.518 1.007 1.59 1.083 2.543.153 1.943.348 4.316 2.12 5.117.382.13.755.283 1.118.459 1.378.86.778 3.062 1.596 4.463a2.94 2.94 0 003.315 1.124 4.945 4.945 0 002.767-2.414c.759-1.324 1.213-2.943 2.543-3.715a3.684 3.684 0 013.268.03 10.982 10.982 0 012.726 1.99 35.531 35.531 0 013.456 3.409c1.66 1.966 2.908 4.292 4.84 5.993 3.638 3.197 9.208 3.533 13.694 1.69a4.161 4.161 0 001.702-1.083c.409-.57.674-1.231.771-1.925.455-2.217.586-4.488.388-6.742-.158-1.766-.518-3.532-.394-5.299.124-1.895.801-3.726.895-5.622.165-3.356-1.501-6.541-3.533-9.197-1.224-1.583-2.602-3.049-3.662-4.745-.924-1.472-1.595-3.091-2.584-4.516-2.32-3.326-6.229-5.299-10.221-5.988-3.992-.688-8.096-.265-12.093.401-3.486.589-6.995 1.425-10.527 1.631-3.091.217-5.582-.825-8.384 1.207z"/><path fill="#000" d="M313.388 171.547l-4.227 11.328-7.318 20.695s-.065.211-.195.588v.03l9.209-30.887a22.815 22.815 0 002.531-1.754zm68.637 134.644c-4.51 5.257-24.14 6.199-24.14 6.199l-19.429-30.615s-4.598-3.191-13.235-17.563c-8.637-14.371-8.354-25.44-7.872-33.706.483-8.266 5.888-32.023 5.888-32.023.842-5.346 12.953-38.858 12.953-38.858 1.271 2.538 3.638 4.657 6.405 6.406 7.478 4.71 17.916 6.641 17.916 6.641 16.815 2.443 13.713 19.812 13.713 19.812s.188 67.513-.848 75.591c-1.037 8.077 8.649 38.116 8.649 38.116z" opacity=".1"/><path fill="#03A9F4" d="M382.771 306.191c-4.504 5.257-24.139 6.199-24.139 6.199l-19.429-30.615s-4.598-3.191-13.241-17.563c-8.643-14.371-8.349-25.44-7.872-33.706.477-8.266 5.887-32.023 5.887-32.023.842-5.346 12.953-38.858 12.953-38.858 1.266 2.538 3.633 4.657 6.406 6.406 7.477 4.71 17.916 6.641 17.916 6.641 16.809 2.443 13.706 19.812 13.706 19.812s.189 67.513-.848 75.591c-1.036 8.077 8.661 38.116 8.661 38.116z"/><path fill="#000" d="M340.529 176.238l-4.227 1.572 2.814 1.972-21.018 50.704c.488-8.242 5.887-32.022 5.887-32.022.842-5.346 12.953-38.859 12.953-38.859 1.266 2.538 3.633 4.658 6.406 6.406l-2.815 10.227zm5.069 90.33l21.501-5.541 2.82 8.732-21.972 5.357-2.349-8.548z" opacity=".1"/><path fill="#000" d="M357.895 179.811s-9.767 9.191-6.082 29.674c3.686 20.482 9.58 42.72 9.58 42.72l-15.897 44.039s11.081 11.552 16.527 12.953l15.867-35.214s7.418-12.205 5.446-31.357c-1.973-19.153-9.108-50.145-9.108-50.145s.005-18.864-16.333-12.67z" opacity=".1"/><path fill="#03A9F4" d="M358.645 179.807s-9.773 9.191-6.099 29.674c3.674 20.483 9.573 42.72 9.573 42.72l-15.896 44.039s11.08 11.552 16.526 12.953l15.897-35.214s7.418-12.205 5.446-31.357c-1.973-19.152-9.108-50.145-9.108-50.145s0-18.864-16.339-12.67z"/></g><circle cx="117" cy="108" r="23" fill="#424BA5" stroke="#929BF5" stroke-width="2"/><path fill="#fff" d="M125.654 110.245a.51.51 0 00-.457-.914l-.915.458a1.568 1.568 0 00-.296.193l-1.441 1.201a.512.512 0 00.654.785l1.441-1.201a.513.513 0 01.099-.065l.915-.457z"/><path fill="#fff" fill-rule="evenodd" d="M113.1 112.852h-2.994a.51.51 0 00-.51-.511H106a1 1 0 00-1 1v5.66a1 1 0 001 1h3.596a.51.51 0 00.51-.511h2.429l.227.221c.191.186.446.29.712.29h7.443c.277 0 .541-.112.734-.311l7.432-7.672c.912-.942.08-2.5-1.21-2.266a1.356 1.356 0 00-.677.34l-6.263 5.824h-2.137l-.944-1.532h2.26a1.532 1.532 0 000-3.064h-4.581a1.02 1.02 0 00-.602.197l-1.829 1.335zm15.25-1.545a.328.328 0 00-.458-.467l-6.264 5.824a1.023 1.023 0 01-.695.273h-2.137c-.354 0-.683-.184-.869-.485l-.944-1.532a1.021 1.021 0 01.869-1.557h2.26a.511.511 0 000-1.022h-4.581l-1.828 1.336a1.027 1.027 0 01-.603.196h-2.994v4.596h2.429c.266 0 .522.104.712.29l.227.221h7.443l7.433-7.673zm-22.329 2.056h3.064v5.617h-3.064v-5.617z" clip-rule="evenodd"/><path fill="#fff" d="M120.704 96a4.626 4.626 0 00-3.447 1.57A4.626 4.626 0 00113.81 96c-2.359 0-4.212 1.818-4.212 4.132 0 2.833 2.591 5.143 6.518 8.644l.031.027 1.11.984 1.111-.992.01-.008c1.745-1.553 3.228-2.872 4.338-4.106h-1.45c-1.08 1.124-2.431 2.303-3.932 3.499l-.077.075-.076-.075c-4.009-3.244-6.562-5.876-6.562-8.048 0-1.502 1.532-3.11 3.064-3.11 1.179 0 2.658.502 3.064 1.531h1.021c.398-1.03 1.884-1.532 3.064-1.532 1.532 0 3.064 1.609 3.064 3.111 0 .465-.129.961-.367 1.485h1.145c.159-.485.243-.976.243-1.485 0-2.314-1.854-4.132-4.213-4.132z"/><path fill="#fff" d="M122.169 102.638l-.935-1.868a1 1 0 00-1.791.005l-1.42 2.885-1.17-2.194a1 1 0 00-1.76-.009l-.644 1.181h-.766a.511.511 0 000 1.022h.696a1 1 0 00.868-.504l.734-1.284 1.148 2.297a1 1 0 001.789 0l1.403-2.807.935 1.765a.999.999 0 00.884.533h5.841a.51.51 0 000-1.022h-5.812z"/><circle cx="115" cy="226" r="23" fill="#424BA5" stroke="#929BF5" stroke-width="2"/><path fill="#fff" fill-rule="evenodd" d="M111.128 215.021h6.638c.564 0 1.021.458 1.021 1.022v.51h-8.681v-.51c0-.564.458-1.022 1.022-1.022zm9.702 1.532h-1.021v-.51a2.043 2.043 0 00-2.043-2.043h-6.638a2.043 2.043 0 00-2.043 2.043v.51h-1.021a3.064 3.064 0 00-3.064 3.064v12.766a3.064 3.064 0 003.064 3.064h1.021v.51c0 1.129.915 2.043 2.043 2.043h6.638a2.043 2.043 0 002.043-2.043v-.51h1.021a3.064 3.064 0 003.064-3.064v-1.532h1.021a.511.511 0 00.511-.511v-2.553a.51.51 0 00-.511-.51h-1.021v-1.532h1.021a.511.511 0 00.511-.511v-3.064a.51.51 0 00-.511-.51h-1.021v-2.043a3.064 3.064 0 00-3.064-3.064zm-10.724 19.404v-.51h8.681v.51c0 .564-.457 1.022-1.021 1.022h-6.638a1.023 1.023 0 01-1.022-1.022zm10.724-18.383h-12.766a2.043 2.043 0 00-2.043 2.043v12.766c0 1.128.915 2.043 2.043 2.043h12.766a2.043 2.043 0 002.042-2.043v-12.766a2.043 2.043 0 00-2.042-2.043zm3.064 10.724v1.532h.51v-1.532h-.51zm.51-3.575h-.51v-2.042h.51v2.042zm-15.83-4.595h11.745v11.744h-11.745v-11.744zm-1.021 12.766v-13.788h13.787v13.788h-13.787z" clip-rule="evenodd"/><path fill="#fff" fill-rule="evenodd" d="M115.53 224.214h3.259a.51.51 0 110 1.021h-3.064l-.533 1.068a.511.511 0 01-.925-.024l-1.35-3.086-1.379 1.838a.512.512 0 01-.408.204h-1.022a.51.51 0 110-1.021h.766l1.739-2.318a.51.51 0 01.886.127l1.205 3.212.37-.739a.51.51 0 01.456-.282zm-5.422 3.574a.51.51 0 000 1.022h5.617a.511.511 0 000-1.022h-5.617zm7.149.511c0-.282.229-.511.511-.511h1.021a.511.511 0 010 1.022h-1.021a.511.511 0 01-.511-.511zm-5.617 1.532a.51.51 0 100 1.021h4.085a.51.51 0 100-1.021h-4.085z" clip-rule="evenodd"/><circle cx="80" cy="168" r="23" fill="#424BA5" stroke="#929BF5" stroke-width="2"/><path fill="#fff" d="M74.126 178.469a1.532 1.532 0 11-3.064 0 1.532 1.532 0 013.064 0zm7.149 0a1.532 1.532 0 11-3.064 0 1.532 1.532 0 013.064 0z"/><path fill="#fff" fill-rule="evenodd" d="M74.128 157.021h4.085a.51.51 0 01.51.511v.511h1.022v-.511c0-.846-.686-1.532-1.532-1.532h-4.085c-.846 0-1.532.686-1.532 1.532v.511h1.021v-.511c0-.282.229-.511.51-.511zm-.511 2.043h-1.021v2.553h-1.532A3.064 3.064 0 0068 164.681v10.723c0 1.336.855 2.473 2.048 2.892.024-.354.12-.689.273-.988a2.047 2.047 0 01-1.3-1.904v-10.723c0-1.128.915-2.043 2.043-2.043h10.213c1.128 0 2.042.915 2.042 2.043v10.723c0 .866-.539 1.606-1.3 1.904.154.299.25.634.273.988a3.066 3.066 0 002.048-2.892v-10.723a3.063 3.063 0 00-3.063-3.064h-1.532v-2.553h-1.022v2.553h-5.106v-2.553zm7.66 19.404c0-.392-.148-.75-.39-1.021h-2.284c-.243.271-.39.629-.39 1.021h3.064zm-6.34-1.021h2.467a2.538 2.538 0 00-.212 1.021h-2.043c0-.363-.076-.708-.213-1.021zm-3.483 0c-.243.271-.39.629-.39 1.021h3.064c0-.392-.148-.75-.39-1.021h-2.284z" clip-rule="evenodd"/><path fill="#fff" d="M71.574 166.214c0-.282.229-.511.51-.511h8.171a.51.51 0 010 1.021h-8.17a.51.51 0 01-.51-.51zm0 6.125c0-.282.229-.511.51-.511h8.171a.51.51 0 010 1.021h-8.17a.51.51 0 01-.51-.51zm0-3.063a.51.51 0 01.51-.51h8.171a.51.51 0 110 1.021h-8.17a.51.51 0 01-.51-.511zm16.852.767a.766.766 0 011.532 0v5.107a.766.766 0 01-1.532 0v-5.107z"/><path fill="#fff" fill-rule="evenodd" d="M85.871 158.555h1.532v7.149c-.392 0-.75.147-1.021.39v-6.518h-.51v-1.021zm4.596 9.191h-2.553a.511.511 0 00-.511.511v8.681c0 .282.229.51.51.51h2.553a.51.51 0 00.512-.51v-8.681a.512.512 0 00-.511-.511zm-4.085 9.192c0 .667.426 1.234 1.021 1.444v1.619h1.021v-1.531h1.532v1.531h1.022v-1.619a1.53 1.53 0 001.02-1.444v-8.681c0-.846-.685-1.532-1.531-1.532h-2.553c-.846 0-1.532.686-1.532 1.532v8.681z" clip-rule="evenodd"/><circle cx="222" cy="167" r="23" fill="#424BA5" stroke="#929BF5" stroke-width="2"/><path fill="#fff" d="M232 171v-2l-8.5-5v-5.5c0-.83-.67-1.5-1.5-1.5s-1.5.67-1.5 1.5v5.5l-8.5 5v2l8.5-2.5v5.5l-2.5 1.5v1.5l4-1 4 1v-1.5l-2.5-1.5v-5.5l8.5 2.5z"/><circle cx="39" cy="108" r="23" fill="#424BA5" stroke="#929BF5" stroke-width="2"/><path fill="#fff" d="M31 102h18v-2H31c-1.1 0-2 .9-2 2v11h-2v3h14v-3H31v-11zm19 2h-6c-.55 0-1 .45-1 1v10c0 .55.45 1 1 1h6c.55 0 1-.45 1-1v-10c0-.55-.45-1-1-1zm-1 9h-4v-7h4v7z"/><circle cx="185" cy="226" r="23" fill="#424BA5" stroke="#929BF5" stroke-width="2"/><path fill="#fff" d="M193 216h-16c-1.1 0-2 .9-2 2v18l4-4h14c1.1 0 2-.9 2-2v-12c0-1.1-.9-2-2-2zm0 14h-14l-2 2v-14h16v12zm-13-7h2v2h-2v-2zm4 0h2v2h-2v-2zm4 0h2v2h-2v-2z"/><circle cx="151" cy="167" r="23" fill="#424BA5" stroke="#929BF5" stroke-width="2"/><path fill="#fff" d="M158.35 165.04A7.49 7.49 0 00151 159c-2.89 0-5.4 1.64-6.65 4.04A5.994 5.994 0 00139 169c0 3.31 2.69 6 6 6h13c2.76 0 5-2.24 5-5 0-2.64-2.05-4.78-4.65-4.96zM158 173h-13c-2.21 0-4-1.79-4-4 0-2.05 1.53-3.76 3.56-3.97l1.07-.11.5-.95A5.469 5.469 0 01151 161c2.62 0 4.88 1.86 5.39 4.43l.3 1.5 1.53.11A2.98 2.98 0 01161 170c0 1.65-1.35 3-3 3zm-11-5h2.55v3h2.9v-3H155l-4-4-4 4z"/><circle cx="150" cy="279" r="23" fill="#424BA5" stroke="#929BF5" stroke-width="2"/><path fill="#fff" d="M150 267h-10.5c-2.49 0-4.5 2.01-4.5 4.5v12c0 2.49 2.01 4.5 4.5 4.5l-1.5 1.5v1.5h1.5l3-3.045 3 .045v-7H137v-12h16v4h2v-2c0-2.49-2.51-4-5-4zm-10.5 15c.825 0 1.5.675 1.5 1.5s-.675 1.5-1.5 1.5-1.5-.675-1.5-1.5.675-1.5 1.5-1.5zm23.355-6.51c-.21-.6-.78-.99-1.455-.99h-10.785c-.69 0-1.245.39-1.47.99L147 281.655l.015 8.265c0 .57.465 1.08 1.035 1.08h.93c.57 0 1.02-.57 1.02-1.14V288h12v1.86c0 .57.465 1.14 1.035 1.14h.915c.57 0 1.035-.51 1.035-1.08l.015-2.055v-6.21l-2.145-6.165zm-12.24.51H161.4l1.545 4.5H149.07l1.545-4.5zm-.615 9c-.825 0-1.5-.675-1.5-1.5s.675-1.5 1.5-1.5 1.5.675 1.5 1.5-.675 1.5-1.5 1.5zm12 0c-.825 0-1.5-.675-1.5-1.5s.675-1.5 1.5-1.5 1.5.675 1.5 1.5-.675 1.5-1.5 1.5z"/><circle cx="234" cy="46" r="23" fill="#424BA5" stroke="#929BF5" stroke-width="2"/><path fill="#fff" fill-rule="evenodd" d="M232.5 56.5a1 1 0 011 1v.5h1v-.5a1 1 0 011-1H246v-20h-2v1h1v18h-9.5c-.364 0-.706.097-1 .268V39h-1v16.768a1.993 1.993 0 00-1-.268H223v-18h1v-1h-2v20h10.5z" clip-rule="evenodd"/><path fill="#fff" fill-rule="evenodd" d="M224 54.5h8.5a1 1 0 011 1V57h1V36a2 2 0 00-2-2H224v20.5zm8.5-19.5H225v18.5h8.5V36a1 1 0 00-1-1z" clip-rule="evenodd"/><path fill="#fff" fill-rule="evenodd" d="M244 54.5h-8.5a1 1 0 00-1 1V57h-1V36a2 2 0 012-2h8.5v20.5zM235.5 35h7.5v18.5h-8.5V36a1 1 0 011-1z" clip-rule="evenodd"/><path fill="#fff" fill-rule="evenodd" d="M240 39.5l2 1V34h-4v6.5l2-1zm-1-.618l1-.5 1 .5V35h-2v3.882z" clip-rule="evenodd"/><path fill="#fff" d="M236 51a.5.5 0 01.5-.5h4.5a.5.5 0 010 1h-4.5a.5.5 0 01-.5-.5zm-9.5 0a.5.5 0 01.5-.5h4.5a.5.5 0 010 1H227a.5.5 0 01-.5-.5zm9.5-2a.5.5 0 01.5-.5h4.5a.5.5 0 010 1h-4.5a.5.5 0 01-.5-.5zm-9.5 0a.5.5 0 01.5-.5h4.5a.5.5 0 010 1H227a.5.5 0 01-.5-.5zm9.5-2a.5.5 0 01.5-.5h4.5a.5.5 0 010 1h-4.5a.5.5 0 01-.5-.5zm-9.5 0a.5.5 0 01.5-.5h4.5a.5.5 0 010 1H227a.5.5 0 01-.5-.5zm9.5-2a.5.5 0 01.5-.5h4.5a.5.5 0 010 1h-4.5a.5.5 0 01-.5-.5zm-9.5 0a.5.5 0 01.5-.5h4.5a.5.5 0 010 1H227a.5.5 0 01-.5-.5zm0-4a.5.5 0 01.5-.5h4.5a.5.5 0 010 1H227a.5.5 0 01-.5-.5zm1.5-2a.5.5 0 01.5-.5h1.5a.5.5 0 010 1h-1.5a.5.5 0 01-.5-.5z"/><circle cx="154" cy="46" r="23" fill="#424BA5" stroke="#929BF5" stroke-width="2"/><path fill="#fff" d="M149 42.07l1.43 1.43a5.05 5.05 0 013.57-1.48c1.39 0 2.66.57 3.57 1.48l1.43-1.43a7.052 7.052 0 00-5-2.07c-1.95 0-3.72.79-5 2.07zm5-6.07c-3.02 0-5.76 1.23-7.75 3.21l1.41 1.41A8.95 8.95 0 01154 38c2.47 0 4.72 1 6.34 2.62l1.41-1.41A10.963 10.963 0 00154 36zm2.86 9.01l-5.72-.01c-.63 0-1.14.51-1.14 1.14v9.71c0 .63.51 1.14 1.14 1.14h5.71c.63 0 1.14-.51 1.14-1.14v-9.71c.01-.63-.5-1.13-1.13-1.13zM157 55h-6v-8h6v8z"/><circle cx="78" cy="46" r="23" fill="#424BA5" stroke="#929BF5" stroke-width="2"/><path fill="#fff" fill-rule="evenodd" d="M89.49 55.959H67.02v1.021h22.47v-1.02zM66 54.937v3.064h24.51v-3.063H66zm21.447-19.916H69.064v2.043h18.383V35.02zM68.043 34v4.085h20.425V34H68.044z" clip-rule="evenodd"/><path fill="#fff" fill-rule="evenodd" d="M76.722 47.275h-4.595v7.66h4.596v-7.66zm-5.616-1.021v9.702h6.638v-9.702h-6.638zm13.279 1.021H80.81v3.064h3.575v-3.064zm-4.596-1.021v5.106h5.617v-5.106H79.79zM67.021 41.15l2.043-3.064h-1.021L66 41.15h1.021zm0 0a2.043 2.043 0 004.021.511h-1.98V40.64h4.086v.51h.002a2.043 2.043 0 004.021.511h-1.98v-1.022h4.086v.588a2.041 2.041 0 004.019.434H81.32V40.64h4.085v.58a2.044 2.044 0 004.02.441h-1.98V40.64h1.705l-1.702-2.554h1.021l2.043 3.064h-.513.512a3.064 3.064 0 01-6.086.511h-.086a3.064 3.064 0 01-6.043 0h-.082a3.064 3.064 0 01-6.043 0h-.086A3.064 3.064 0 0166 41.15h1.021zm5.617-3.064h-1.021v1.532h1.021v-1.532zm5.108 0h1.021v1.532h-1.02v-1.532zm7.146 0h-1.02v1.532h1.02v-1.532z" clip-rule="evenodd"/><path fill="#fff" d="M68.043 43.703h1.021v11.234h-1.021V43.703zm19.402 0h1.022v11.234h-1.022V43.703z"/><circle cx="187" cy="106" r="23" fill="#424BA5" stroke="#929BF5" stroke-width="2"/><path fill="#fff" stroke="#0C64A9" stroke-width=".75" d="M195.304 101.575h.652l-.328-.564a10.009 10.009 0 00-5.399-4.438l-.907-.31.456.843a18.388 18.388 0 011.623 4.187l.072.282h3.831zm-7.996-5.34l-.308-.446-.308.446a17.256 17.256 0 00-2.343 4.857l-.145.483h5.592l-.145-.483a17.256 17.256 0 00-2.343-4.857zm-9.96 12.256l.071.284h4.772l-.051-.42c-.095-.785-.165-1.561-.165-2.355s.07-1.57.165-2.355l.051-.42h-4.772l-.071.284a10.265 10.265 0 00-.323 2.491c0 .864.125 1.699.323 2.491zm1.348 1.934h-.65l.325.563a9.96 9.96 0 005.4 4.439l.907.31-.456-.843a18.406 18.406 0 01-1.623-4.187l-.072-.282h-3.831zm3.54-8.85h.291l.072-.282a18.388 18.388 0 011.623-4.187l.456-.843-.907.31a9.964 9.964 0 00-5.4 4.439l-.325.563h4.19zm4.456 14.19l.308.446.308-.446a17.243 17.243 0 002.343-4.857l.145-.483h-5.592l.145.483a17.243 17.243 0 002.343 4.857zm3.116-6.99h.327l.045-.324c.108-.799.195-1.61.195-2.451s-.087-1.664-.196-2.451l-.044-.324h-6.27l-.044.324c-.109.787-.196 1.61-.196 2.451s.087 1.652.195 2.451l.045.324h5.943zm-.03 6.119l-.456.843.907-.31a10.009 10.009 0 005.399-4.438l.328-.564h-4.483l-.072.282a18.406 18.406 0 01-1.623 4.187zm2.082-6.539l-.051.42h4.772l.071-.284c.198-.792.323-1.627.323-2.491 0-.864-.125-1.699-.323-2.491l-.071-.284h-4.772l.051.42c.095.785.165 1.561.165 2.355s-.07 1.57-.165 2.355zM175.375 106c0-6.417 5.197-11.625 11.613-11.625 6.429 0 11.637 5.208 11.637 11.625s-5.208 11.625-11.637 11.625c-6.416 0-11.613-5.208-11.613-11.625z"/><path stroke="#2AB7F6" stroke-dasharray="4 4" d="M224 135.5V161"/><path fill="#06AAF5" d="M39.681 177.25l8.528 10.439-13.304 2.166 4.776-12.605z"/><path fill="#FFC09D" d="M80.17 244.726l5.302-.919s10.837-5.001 11.494-1.214c.657 3.788-9.685 7.142-9.685 7.142l-11.13-1.19 4.019-3.819z"/><path fill="#575A89" d="M49.334 206.383l7.427 33.824 24.796 3.502.95 9.979-31.976.084-15.992-29.217 14.795-18.172z"/><path fill="#CFD8DC" d="M49.334 206.383l7.427 33.824 24.796 3.502.95 9.979-31.976.084-15.992-29.217 14.795-18.172z"/><path fill="#FFC09D" d="M87.076 216.19l3.783-3.827s5.922-10.362 8.655-7.659c2.734 2.702-3.74 11.437-3.74 11.437l-9.755 5.491 1.056-5.442z"/><path fill="#000" d="M34.949 195.687l-4.659-1.135a11.985 11.985 0 01-9.292-4.393 11.98 11.98 0 01-2.478-9.975 15.674 15.674 0 1131.351-.04 12.458 12.458 0 01-14.922 15.543z"/><path fill="#1565C0" d="M62.344 273.32l-3.792 41.519-6.868 40.755-11.532.015 1.488-39.979 6.089-48.442 14.615 6.132z"/><path fill="#000" d="M50.147 353.289l7.694 4.603s12.303 1.522 10.001 5.369c-2.302 3.847-29.212 1.574-29.214.037-.002-1.538.756-9.995 2.294-9.997l9.225-.012z"/><path fill="#1565C0" d="M28.304 269.73s.216 5.936 5.61 15.155l-.734 28.446-27.632 35.4 10.005 8.444 33.779-38.482 8.398-46.139-10.776-10.749-18.65 7.925z"/><path fill="#000" d="M7.856 348.73s-9.224 1.55-7.682 5.392c1.543 3.842 5.409 21.519 15.4 19.2 0 0 4.613-.006 3.072-3.079a55.75 55.75 0 00-3.082-5.377l-.013-9.995-7.695-6.141z"/><path fill="#FFC09D" d="M39.94 196.466c-6.368 0-11.531-5.163-11.531-11.532s5.163-11.532 11.532-11.532 11.532 5.163 11.532 11.532-5.163 11.532-11.532 11.532z"/><path fill="#FFC09D" d="M34.566 192.631l.016 13.069 12.3-.015-1.553-13.068-10.763.014z"/><path fill="#CFD8DC" d="M26.987 274.9l7.63-1.277a70.754 70.754 0 0129.27 1.232l-3.452-34.361-.449-4.479-.962-9.592s3.326-12.639-1.557-16.908c-5.96-5.213-11.237-9.363-11.237-9.363l-11.652.933c-6.514 12.988-5.103 29.314-.708 46.901L26.987 274.9z"/><path fill="#CFD8DC" d="M39.706 202.867l25.681 23.232 22.224-11.541 4.666 5.71-19.63 17.297a9.233 9.233 0 01-9.397.806l-25.043-12.119 1.499-23.385z"/><path fill="#000" d="M17.68 176.439a7.44 7.44 0 110-14.881 7.44 7.44 0 01.001 14.881zm13.248-7.221l10.03-1.847 7.715 4.835a11.706 11.706 0 015.39 11.419l-7.726-1.958-1.73-4.338a12.652 12.652 0 01-4.509 4.378c-4.377 2.513-5.392 7.854-5.91 13.613l-8.462-4.602-5.392-8.45 10.594-13.05z"/><path fill="#000" d="M40.403 219.27l20.03 21.223-.448-4.479-19.582-16.744z" opacity=".2"/></svg>