<svg xmlns="http://www.w3.org/2000/svg" width="418" height="428" fill="none" viewBox="0 0 418 428">
    <rect width="61" height="61" x="341" y="304" fill="#E8E9EF" rx="8"/>
    <rect width="61" height="61" x="35" y="339" fill="#E8E9EF" rx="8"/>
    <rect width="100" height="100" x="295" y="111" fill="#E8E9EF" rx="16"/>
    <rect width="100" height="100" x="22" y="39" fill="#E8E9EF" rx="16"/>
    <rect width="45" height="45" x="189" y="25" fill="#E8E9EF" rx="10"/>
    <rect width="45" height="45" x="155" y="140" fill="#E8E9EF" rx="10"/>
    <rect width="63" height="63" x="336" y="22" fill="#E8E9EF" rx="10"/>
    <rect width="37" height="37" x="13" y="213" fill="#E8E9EF" rx="4"/>
    <path fill="#FF8F00" d="M329.711 112.194l13.372 1.703-8.16 10.729-5.212-12.432zM4.711 110.194l13.372 1.703-8.16 10.729-5.212-12.432z"/>
    <path fill="#06AAF5" d="M378.681 334.25l8.528 10.44-13.304 2.165 4.776-12.605z"/>
    <path fill="#FFF9C4" d="M223.681 82.25l8.528 10.44-13.304 2.165 4.776-12.605z"/>
    <path fill="#FF8F00" d="M144.681 161.25l8.528 10.44-13.304 2.165 4.776-12.605z"/>
    <path fill="#FFD037" d="M80.003 193.543l-9.655 9.407-3.32-13.064 12.975 3.657z"/>
    <path fill="#8CC440" d="M7.681 339.25l8.528 10.44-13.304 2.165L7.68 339.25zM306.681 373.25l8.528 10.44-13.304 2.165 4.776-12.605zM260.681 181.25l8.528 10.44-13.304 2.165 4.776-12.605z"/>
    <circle cx="74.027" cy="48" r="4" fill="#8CC440"/>
    <circle cx="340" cy="222" r="4" fill="#8CC440"/>
    <circle cx="26" cy="246" r="4" fill="#FF8F00"/>
    <circle cx="414" cy="239" r="4" fill="#FF8F00"/>
    <circle cx="212" cy="183" r="4" fill="#FF8F00"/>
    <circle cx="107.027" cy="338" r="4" fill="#FF8F00"/>
    <circle cx="68" cy="285" r="24" fill="#F06292"/>
    <circle cx="68" cy="285" r="18" fill="#fff"/>
    <path fill="#094786" d="M67.973 277l-8 2.797 1.22 10.373 6.78 3.682 6.78-3.682 1.22-10.373-8-2.797z"/>
    <path fill="#093D73" d="M67.973 277v1.871-.009 14.99l6.78-3.682 1.22-10.373-8-2.797z"/>
    <path fill="#fff" d="M67.974 278.862l-5.001 10.996h1.864l1.006-2.461h4.245l1.005 2.461h1.865l-4.984-10.996zm1.46 7.019h-2.921l1.46-3.446 1.462 3.446z"/>
    <circle cx="212" cy="142" r="24" fill="#7E57C2"/>
    <circle cx="212" cy="142" r="18" fill="#fff"/>
    <path fill="#094786" d="M217.364 142.041c-.025-2.44 2.029-3.611 2.121-3.67-1.154-1.655-2.953-1.882-3.593-1.908-1.53-.153-2.986.883-3.762.883-.775 0-1.974-.861-3.242-.839-1.669.024-3.207.952-4.065 2.416-1.733 2.948-.444 7.316 1.245 9.709.825 1.169 1.81 2.485 3.101 2.437 1.245-.048 1.715-.79 3.22-.79 1.505 0 1.927.79 3.244.765 1.339-.024 2.187-1.192 3.006-2.366.948-1.358 1.338-2.674 1.361-2.74-.029-.014-2.61-.983-2.636-3.897z"/>
    <path fill="#094786" d="M214.888 135.076c.685-.815 1.149-1.948 1.023-3.076-.988.039-2.185.644-2.895 1.459-.635.723-1.191 1.874-1.042 2.981 1.102.084 2.227-.55 2.914-1.364z"/>
    <circle cx="216" cy="24" r="24" fill="#039BE5"/>
    <circle cx="216" cy="24" r="18" fill="#fff"/>
    <path fill="#094786" d="M209.818 18.767c0 .336.038.608.102.808.074.2.167.418.297.654.046.072.064.145.064.209 0 .09-.055.181-.176.272l-.583.381c-.083.055-.166.082-.24.082-.093 0-.186-.045-.278-.127-.13-.136-.241-.282-.334-.427-.092-.154-.185-.327-.287-.535-.722.835-1.629 1.252-2.721 1.252-.778 0-1.398-.218-1.852-.653-.454-.436-.685-1.017-.685-1.743 0-.772.278-1.398.842-1.87.565-.472 1.315-.708 2.269-.708.314 0 .638.027.981.072.343.046.694.118 1.065.2v-.663c0-.69-.148-1.17-.435-1.452-.297-.282-.797-.418-1.51-.418-.324 0-.657.036-.999.118-.343.082-.676.182-1 .309-.148.063-.259.1-.324.118-.065.018-.111.027-.148.027-.13 0-.195-.09-.195-.281v-.445c0-.145.019-.254.065-.318.046-.063.13-.127.259-.19.324-.164.713-.3 1.167-.409.453-.118.935-.172 1.444-.172 1.102 0 1.907.245 2.426.735.509.49.768 1.234.768 2.233v2.941h.018zm-3.758 1.38c.305 0 .62-.054.953-.163.334-.11.63-.309.88-.581.148-.173.259-.363.315-.581.055-.218.092-.481.092-.79v-.381c-.268-.064-.555-.118-.852-.155-.296-.036-.583-.054-.87-.054-.62 0-1.074.118-1.379.363-.306.245-.454.59-.454 1.044 0 .427.111.744.343.962.222.227.546.336.972.336zm7.434.98c-.167 0-.278-.027-.352-.09-.074-.055-.139-.182-.194-.354l-2.176-7.018c-.056-.181-.083-.3-.083-.363 0-.145.074-.227.222-.227h.907c.176 0 .296.028.361.091.074.055.13.182.185.354l1.556 6.01 1.444-6.01c.046-.181.102-.3.176-.354.074-.054.204-.09.37-.09h.741c.176 0 .296.027.37.09.074.055.139.182.176.354l1.463 6.082 1.601-6.082c.056-.181.121-.3.186-.354.074-.054.194-.09.361-.09h.861c.148 0 .231.072.231.226 0 .046-.009.091-.018.146-.01.054-.028.127-.065.226l-2.231 7.018c-.056.181-.121.3-.195.354-.074.054-.194.09-.352.09h-.796c-.176 0-.296-.027-.37-.09-.074-.064-.139-.182-.176-.363l-1.435-5.856-1.426 5.847c-.046.181-.102.3-.176.363s-.203.09-.37.09h-.796zm11.896.246c-.481 0-.963-.055-1.425-.164-.463-.109-.824-.227-1.065-.363-.148-.082-.25-.172-.287-.254-.037-.082-.056-.173-.056-.254v-.463c0-.19.074-.282.213-.282.056 0 .111.01.167.027.055.019.139.055.231.091.315.137.658.245 1.019.318.37.073.731.109 1.101.109.584 0 1.037-.1 1.352-.3.315-.2.482-.49.482-.862 0-.254-.084-.463-.25-.635-.167-.173-.482-.327-.935-.473l-1.343-.408c-.676-.209-1.176-.517-1.481-.926-.306-.4-.463-.844-.463-1.316 0-.382.083-.717.25-1.008.167-.29.389-.545.666-.744.278-.21.593-.363.963-.472.371-.11.759-.155 1.167-.155.203 0 .416.01.62.037.213.027.407.063.602.1.185.045.361.09.528.145.166.054.296.109.388.163.13.073.223.145.278.227.056.073.083.173.083.3v.426c0 .191-.074.29-.212.29-.075 0-.195-.035-.352-.108-.528-.236-1.121-.354-1.778-.354-.528 0-.944.082-1.231.254-.287.172-.435.436-.435.808 0 .254.092.472.277.644.186.173.528.345 1.019.5l1.314.408c.667.21 1.148.5 1.435.872.287.372.426.799.426 1.27 0 .391-.083.745-.24 1.054-.167.308-.389.58-.676.799-.287.227-.63.39-1.028.508-.416.127-.852.19-1.324.19z"/>
    <path fill="#094786" fill-rule="evenodd" d="M227.139 25.784c-3.046 2.206-7.472 3.377-11.277 3.377-5.332 0-10.137-1.933-13.766-5.147-.287-.254-.028-.599.315-.4 3.925 2.234 8.767 3.587 13.776 3.587 3.379 0 7.091-.69 10.507-2.107.509-.226.945.327.445.69z" clip-rule="evenodd"/>
    <path fill="#094786" fill-rule="evenodd" d="M228.405 24.368c-.388-.49-2.573-.236-3.564-.118-.296.037-.342-.217-.074-.408 1.74-1.198 4.601-.853 4.934-.454.334.409-.092 3.214-1.722 4.557-.249.209-.49.1-.379-.172.37-.899 1.194-2.923.805-3.405z" clip-rule="evenodd"/>
    <circle cx="125" cy="93" r="24" fill="#F06292"/>
    <circle cx="125" cy="93" r="18" fill="#fff"/>
    <path fill="#094786" d="M133 88.572v9.153l-2.288 1.305v-9.143l-5.719-3.274-5.723 3.274.014 9.146L117 97.725V88.58L125.007 84 133 88.572zm-6.86 10.458l-1.14.657-1.148-.65v-9.15l-2.284 1.308.004 9.147 3.424 1.962 3.432-1.962v-9.15l-2.288-1.309v9.147z"/>
    <circle cx="351" cy="187" r="24" fill="#FF8F00"/>
    <circle cx="351" cy="187" r="18" fill="#fff"/>
    <path fill="#094786" d="M343 192.417l6.456.916v-6.056H343v5.14zm0-6.005h6.456v-6.057l-6.456.917v5.14zm7.338 7.047l8.662 1.23v-7.412h-8.662v6.182zm0-13.229v6.182H359V179l-8.662 1.23z"/>
    <circle cx="301" cy="93" r="24" fill="#7E57C2"/>
    <circle cx="301" cy="93" r="18" fill="#fff"/>
    <path fill="#094786" d="M295.487 83.988h.932v1h1.019V82h-1.019v.987h-.932V82h-1.018v2.988h1.018v-1zM298.775 84.988h1.019v-1.996h.896V82h-2.811v.992h.896v1.996zM302.133 83.508l.701 1.062h.017l.701-1.062v1.48h1.015V82h-1.063l-.653 1.052-.653-1.052h-1.061v2.988h.996v-1.48zM307.525 84.001h-1.432V82h-1.019v2.988h2.451v-.987zM293 86.3l1.457 16.021 6.539 1.779 6.544-1.779L309 86.299h-16zm12.84 5.239H298.171l.183 2.012h7.303l-.549 6.034-4.108 1.116-.003.001-4.105-1.117-.287-3.156h2.011l.149 1.637 2.232.592.003-.001 2.235-.592.232-2.548h-6.945l-.541-5.942H306.018l-.178 1.964z"/>
    <path fill="#263238" fill-rule="evenodd" d="M283.883 334.366c1.83.743 3.117 2.538 3.117 4.634 0 2.756-2.238 5-4.999 5h-17.002c-2.767 0-4.999-2.239-4.999-5 0-2.051 1.24-3.818 3.012-4.588-.008-.137-.012-.274-.012-.412 0-3.866 3.134-7 7-7 2.613 0 4.891 1.431 6.094 3.553.727-.354 1.543-.553 2.406-.553 2.649 0 4.86 1.872 5.383 4.366z" clip-rule="evenodd"/>
    <circle cx="68" cy="172" r="24" fill="#8CC440"/>
    <circle cx="68" cy="172" r="18" fill="#fff"/>
    <path fill="#094786" d="M62.715 169.141v7.521h.004c.054.635.65 1.14 1.372 1.14h7.712c.722 0 1.318-.505 1.372-1.14h.004v-7.521H62.715zM62.315 174.65c0 .742-.527 1.349-1.17 1.349-.645 0-1.172-.607-1.172-1.349v-4.415c0-.742.527-1.349 1.171-1.349s1.171.607 1.171 1.349v4.415z"/>
    <path fill="#094786" d="M67.198 180.129c0 .742-.527 1.349-1.171 1.349s-1.171-.607-1.171-1.349v-4.415c0-.742.527-1.349 1.17-1.349.645 0 1.172.607 1.172 1.349v4.415zM71.1 180.129c0 .742-.526 1.349-1.17 1.349-.645 0-1.172-.607-1.172-1.349v-4.415c0-.742.527-1.349 1.171-1.349s1.172.607 1.172 1.349v4.415zM75.972 174.65c0 .742-.527 1.349-1.172 1.349-.644 0-1.171-.607-1.171-1.349v-4.415c0-.742.527-1.349 1.171-1.349.645 0 1.172.607 1.172 1.349v4.415zM70.534 164.618l.752-1.322c.06-.108.043-.234-.04-.279-.084-.046-.203.005-.264.113l-.769 1.353c-.686-.264-1.454-.413-2.266-.413-.818 0-1.592.151-2.282.419l-.772-1.359c-.061-.108-.18-.159-.263-.113-.084.045-.102.171-.04.279l.755 1.329c-1.572.724-2.63 2.083-2.63 3.64 0 .158.011.314.032.468h10.4c.02-.154.032-.31.032-.468 0-1.562-1.065-2.925-2.645-3.647zm-4.962 2.309c-.252 0-.457-.201-.457-.449s.205-.449.458-.449c.252 0 .457.201.457.449s-.205.449-.457.449zm4.775 0c-.252 0-.457-.201-.457-.449s.205-.449.457-.449c.253 0 .458.201.458.449s-.205.449-.458.449z"/>
    <circle cx="214" cy="404" r="24" fill="#FF8F00"/>
    <circle cx="214" cy="404" r="18" fill="#fff"/>
    <path fill="#094786" d="M213.905 396c-.66.003-1.29.058-1.844.155-1.634.282-1.93.875-1.93 1.967v1.442h3.859v.481h-5.307c-1.122 0-2.104.661-2.411 1.918-.355 1.442-.37 2.341 0 3.846.274 1.121.929 1.919 2.051 1.919h1.327v-1.729c0-1.249 1.102-2.351 2.411-2.351h3.854c1.073 0 1.93-.866 1.93-1.923v-3.603c0-1.026-.882-1.796-1.93-1.968-.663-.108-1.351-.157-2.01-.154zm-2.087 1.16c.398 0 .724.325.724.723 0 .398-.326.719-.724.719-.4 0-.724-.321-.724-.719 0-.398.324-.723.724-.723z"/>
    <path fill="#094786" d="M218.328 400.045v1.68c0 1.303-1.126 2.399-2.411 2.399h-3.855c-1.055 0-1.929.887-1.929 1.923v3.604c0 1.025.909 1.629 1.929 1.923 1.222.352 2.393.416 3.855 0 .972-.276 1.93-.831 1.93-1.923v-1.442h-3.855v-.481h5.784c1.122 0 1.54-.767 1.93-1.919.403-1.185.386-2.325 0-3.846-.277-1.094-.807-1.918-1.93-1.918h-1.448zm-2.168 9.125c.4 0 .724.321.724.719 0 .399-.324.723-.724.723-.398 0-.724-.324-.724-.723 0-.398.326-.719.724-.719z"/>
    <path fill="#F3F4F8" d="M117.762 224.44H303.704V351.47H117.762z"/>
    <path fill="#333" d="M196.181 350c0-1.014.825-1.829 1.855-1.829h26.741c1.033 0 1.863.813 1.863 1.829 0 1.013-.83 1.831-1.863 1.831h-26.741c-1.027-.002-1.855-.82-1.855-1.831zm107.529-11.631H118.343V216.616H303.71v121.753zm36.859 12.527c0-2.708-2.233-4.903-4.983-4.903v-.349h-26.443c1.348-.592 2.294-1.919 2.294-3.471V212.804c0-2.102-1.727-3.804-3.866-3.804H114.479c-2.127 0-3.861 1.702-3.861 3.804v129.367c0 1.543.944 2.879 2.292 3.471H87.228v.34c-2.75-.002-4.982 2.197-4.982 4.908 0 2.712 2.231 4.91 4.982 4.91h248.358c2.754-.003 4.983-2.197 4.983-4.904z"/>
    <path fill="#333" d="M184.504 237.61c-1.072-.364-2.235.209-2.599 1.281l-13.937 41.035c-.363 1.072.21 2.235 1.281 2.599 1.072.364 2.235-.21 2.599-1.281l13.937-41.036c.363-1.071-.21-2.235-1.281-2.598zM163.813 245.844c.8-.8 2.097-.8 2.897 0 .8.8.8 2.097 0 2.897l-11.714 11.714 11.714 11.714c.8.8.8 2.097 0 2.897-.8.8-2.097.8-2.897 0l-13.162-13.163c-.8-.8-.8-2.097 0-2.897l13.162-13.162zM189.938 245.844c-.8-.8-2.097-.8-2.897 0-.8.8-.8 2.097 0 2.897l11.714 11.714-11.714 11.714c-.8.8-.8 2.097 0 2.897.8.8 2.097.8 2.897 0l13.163-13.163c.8-.8.8-2.097 0-2.897l-13.163-13.162z"/>
    <rect width="51.101" height="15.485" x="231.07" y="238" fill="#333" rx="2"/>
    <rect width="15.485" height="15.485" x="149" y="298.392" fill="#333" rx="2"/>
    <rect width="51.101" height="4.646" x="231.07" y="264.325" fill="#333" rx="2.323"/>
    <rect width="51.101" height="4.646" x="231.07" y="298.392" fill="#333" rx="2.323"/>
    <rect width="32.519" height="4.646" x="172.227" y="298.392" fill="#333" rx="2.323"/>
    <rect width="51.101" height="4.646" x="231.07" y="275.165" fill="#333" rx="2.323"/>
    <rect width="51.101" height="4.646" x="231.07" y="309.232" fill="#333" rx="2.323"/>
    <rect width="32.519" height="4.646" x="172.227" y="309.232" fill="#333" rx="2.323"/>
    <path fill="#06AAF5" d="M141.681 357.251l8.528 10.439-13.304 2.166 4.776-12.605z"/>
    <path fill="#F06292" d="M313.681 22.25l8.528 10.44-13.304 2.165 4.776-12.605z"/>
    <circle cx="368" cy="285" r="24" fill="#8CC440"/>
    <circle cx="368" cy="285" r="18" fill="#fff"/>
    <path fill="#094786" d="M359 290h1.339l1.413 3.311h.061l1.413-3.311h1.339v4.928h-1.053v-3.208h-.042l-1.329 3.184h-.717l-1.329-3.196h-.042v3.22H359V290zM367.179 295c-.389 0-.726-.079-1.01-.238-.283-.161-.501-.384-.654-.669-.154-.287-.231-.62-.231-.999 0-.381.077-.715.231-1.001.153-.287.371-.51.654-.669.284-.16.621-.24 1.01-.24.39 0 .725.08 1.008.24.284.159.503.382.657.669.153.286.23.62.23 1.001 0 .379-.077.712-.23.999-.154.285-.373.508-.657.669-.283.159-.618.238-1.008.238zm.005-.794c.177 0 .325-.048.444-.144.119-.098.208-.231.268-.4.062-.168.093-.36.093-.575 0-.215-.031-.407-.093-.575-.06-.168-.149-.302-.268-.399-.119-.098-.267-.147-.444-.147-.179 0-.329.049-.451.147-.12.097-.211.231-.273.399-.06.168-.091.36-.091.575 0 .215.031.407.091.575.062.169.153.302.273.4.122.096.272.144.451.144zM369.769 294.928v-3.696h1.035v.645h.04c.07-.23.188-.403.354-.52.165-.119.356-.178.571-.178.054 0 .111.003.173.01.062.006.116.015.163.026v.91c-.05-.015-.119-.028-.208-.039s-.17-.017-.243-.017c-.157 0-.298.033-.421.099-.122.064-.219.154-.291.269-.07.116-.105.249-.105.4v2.091h-1.068zM374.233 295c-.396 0-.737-.077-1.023-.231-.284-.156-.503-.375-.657-.659-.154-.286-.231-.623-.231-1.013 0-.38.077-.714.231-1.001.154-.287.37-.511.649-.672.281-.16.61-.24.988-.24.254 0 .491.039.71.118.22.077.412.193.576.349.166.155.294.351.386.587.092.234.138.508.138.823v.281h-3.251v-.635h2.246c0-.148-.034-.278-.101-.392-.066-.114-.159-.203-.278-.267-.117-.066-.253-.099-.408-.099-.162 0-.306.036-.432.108-.123.071-.22.166-.29.287-.071.118-.106.251-.108.397v.604c0 .182.035.34.105.474.072.133.173.235.303.308.131.072.285.108.464.108.119 0 .228-.016.326-.048.099-.032.183-.08.253-.145.071-.064.124-.142.161-.235l.987.062c-.05.228-.152.427-.308.597-.154.168-.353.3-.597.394-.242.093-.522.14-.839.14z"/>
    <circle cx="368.185" cy="276.473" r="1.419" fill="#094786"/>
    <circle cx="368.185" cy="280.731" r="1.419" fill="#094786"/>
    <circle cx="368.185" cy="284.989" r="1.419" fill="#094786"/>
</svg>
