<svg xmlns="http://www.w3.org/2000/svg" width="418" height="353" fill="none"><rect width="75" height="75" x="5" y="267" fill="#DC4700" rx="16"/><rect width="100" height="100" x="318" y="212" fill="#DC4700" rx="16"/><rect width="100" height="100" x="35" y="43" fill="#DC4700" rx="16"/><rect width="45" height="45" x="280" fill="#DC4700" rx="10"/><rect width="63" height="63" x="355" y="41" fill="#DC4700" rx="10"/><rect width="37" height="37" x="201.027" y="309" fill="#DC4700" rx="4"/><path fill="#FF8F00" d="M393.711 153.196l13.372 1.703-8.16 10.729-5.212-12.432zm-337-79L70.083 75.9l-8.16 10.729-5.212-12.432z"/><path fill="#FFF9C4" d="M18.681 200.25l8.528 10.439-13.304 2.166 4.776-12.605zm229 136l8.528 10.439-13.304 2.166 4.776-12.605zm112-53l8.528 10.439-13.304 2.166 4.776-12.605z"/><path fill="#FFD037" d="M224.003 31.543l-9.655 9.407-3.319-13.065 12.974 3.658z"/><path fill="#8CC440" d="M33.709 327.25l8.528 10.439-13.305 2.166 4.777-12.605zm297.972-206l8.528 10.439-13.304 2.166 4.776-12.605z"/><circle cx="105" cy="31" r="4" fill="#8CC440"/><circle cx="374" cy="58" r="4" fill="#8CC440"/><circle cx="402" cy="253" r="4" fill="#8CC440"/><circle cx="4" cy="153" r="4" fill="#FF8F00"/><circle cx="294" cy="57" r="4" fill="#FF8F00"/><circle cx="249" cy="325" r="4" fill="#FF8F00"/><path fill="#FA6514" d="M325.496 327.276c49.127 0 88.953-1.389 88.953-3.103 0-1.713-39.826-3.103-88.953-3.103-49.128 0-88.953 1.39-88.953 3.103 0 1.714 39.825 3.103 88.953 3.103zm-23.289-183.175c5.661-5.058 14.549-6.089 22.638-5.686 25.409 1.265 48.346 13.563 68.186 27.472 7.182 5.036 14.254 10.463 18.916 17.397 9.491 14.116 6.676 33.672-6.521 45.301-4.49 3.957-9.934 6.99-15.521 9.678-9.936 4.781-20.656 8.619-31.933 9.711-8.042.779-16.182.146-24.177-.941-22.336-3.037-44.26-9.751-62.636-21.24-8.06-5.039-15.656-11.303-18.978-19.454-3.322-8.152-1.196-18.481 7.034-23.306 3.403-1.996 7.473-2.897 11.457-3.743 5.865-1.246 11.823-2.474 17.116-5.006 5.466-2.616 11.939-7.674 10.856-13.464-1.161-6.212-2.093-11.667 3.563-16.719z"/><path fill="url(#prefix__paint0_linear)" d="M360.775 210.009c-.388-.749-2.436-5.408-2.436-5.408l-3.432-8.889s-2.436-3.748-2.436-4.444c0-.696-4.428-3.48-4.428-3.48s-3.599-1.071-3.875-1.178c-.277-.107-4.54-1.517-4.54-1.517s-1.678-2.206-1.917-1.63v.002l-.027-.042a5.703 5.703 0 01-.64-2.063l-.025-.199a8.205 8.205 0 003.606-6.76 8.222 8.222 0 00-.071-1.051.78.78 0 01.095-.05c.069-.03.051-.054.001-.079l.052-.027c.092-.039.03-.069-.058-.105l.005-.003c.125-.054-.033-.09-.16-.147l-.02-.112a.725.725 0 00.05-.22l.034.017a.94.94 0 00-.002-.419.798.798 0 01-.029.082.696.696 0 00-.322-.634l-.02-.017.235-2.402c3.461-.164 4.069-6.05 3.279-6.377-.789-.327 0-1.036 0-2.453 0-1.417-2.611-2.997-2.611-2.997s-1.094.545-2.794-2.181c-1.701-2.725-7.956-3.161-8.381-2.452-.425.708-3.219 1.635-6.863 2.67-3.644 1.036-2.976 5.342-2.368 6.268.5.766.793 1.649.85 2.562 0 .545 1.154 2.834 1.154 2.834-.364.793.562 5.139.836 6.374l-.012.114-.008.01a.702.702 0 00-.091.472.859.859 0 00.061.448 8.165 8.165 0 002.898 6.094l.013.226c.051 1.009.08 2.202.027 3.343l-.011.174a1.31 1.31 0 00-.926.73c-.343.66-2.336 1.677-2.336 1.677s-3.488.161-3.82.803c-.332.643-5.37 2.785-5.37 2.785s-2.657 1.553-2.269 3.32c.202.923-.366 2.358-.955 3.517a16.729 16.729 0 00-3.822-.952l2.823 2.698-.094.145-1.606 5.676s-.553 1.981-1.107 2.463c-.554.482.498 4.873.498 4.873s-.609 3.105-1.107 3.909c-.498.803.775 2.784.775 2.784l2.547 5.783 6.753 1.713 1.177.251c-.022.138-.046.276-.07.413-.325 1.842-.753 3.537-1.273 3.995-1.273 1.124-1.218 6.158-1.218 6.158l.056 7.121s.442 8.782.221 9.103c-.14.203.141.534.881.831a31.69 31.69 0 00-.062.403c-.208 1.456-.301 3.118.177 3.853.208.397.322.837.333 1.285 0 .696 1.051 2.142 1.051 2.142s-.83 5.944.554 7.978c1.384 2.035 2.546 5.73 1.882 6.587 0 0-1.162 2.516-.609 3.641.554 1.124 0 1.767-.719 2.034-.72.268-.658 2.464-.658 2.464l1.322 10.441s.719 2.142.111 2.892c-.609.749-.609 4.497.332 5.783.941 1.285-1.329 3.641-1.329 3.641s-1.384 1.981.83 2.623c0 0 .443.108-.387.964-.83.857-.996 1.928-.443 2.303.115.069.235.128.359.178-.02.127-.043.258-.069.398-.212 1.118-.613 2.574-1.342 3.279a23.36 23.36 0 00-3.624 4.828c-.76 1.439-1.092 2.786-.251 3.418 1.993 1.5 4.54 1.981 6.034 1.392 1.495-.589 3.598-2.409 3.598-2.409l.499-2.088s-.332-1.286 1.328-1.767c1.661-.482 3.211-2.196 3.211-2.196v-2.776c.402-.229.79-.483 1.163-.758 0 0 .775-2.731 0-3.641-.775-.91-1.052-1.232-.056-1.821.997-.589 1.132-1.874.401-2.998-.733-1.125-1.895-2.785-.899-5.141s1.362-9.584 1.362-9.584-.465-4.927 0-6.051c.465-1.125-.532-3.374-.532-3.374s.332-2.784.941-4.069c.609-1.285 1.108-8.085 1.108-8.085s1.107-2.892 1.107-4.766-1.716-6.372.83-7.55c0 0 1.107.964.664 4.819 0 0 1.274 4.498 1.274 5.89 0 1.392.941 6.426.941 6.426s.11 1.606.498 2.195c.387.589 0 2.195 0 2.195s1.439 1.339 1.052 2.196c-.388.857.066 2.789.066 2.789l-.343 11.99s-.997 5.14 1.328 8.246c0 0-.83 4.551-1.328 4.872-.498.322 1.827 3.106 1.827 3.106s-.645 1.804.664 1.892v2.981a6.382 6.382 0 001.827 2.035c1.218.856.719 3.801.719 3.801s1.55 3.749 5.647 2.945c4.096-.803 4.65-1.178 4.428-2.516a28.64 28.64 0 00-.511-2.35c-.441-1.72-1.116-3.795-1.924-4.819-1.274-1.613-2.325-4.986-2.325-4.986s-.499-1.125 0-1.5c.498-.374.276-1.07.276-1.07s.485-1.393.049-2.249c-.436-.857.837-2.624.837-2.624l-.387-8.246.387-11.995s-1.716-1.981-.996-3.159c.719-1.178-.831-2.838-.831-2.838s-.166-.053.277-1.392a3.333 3.333 0 00-.111-2.41s-.941-3.319.72-5.836c0 0 .72-3.32.941-5.033.153-1.191 1.11-5.64 1.679-8.242l.092-.423c.82.045 1.44.097 1.44.097s-1.273-8.835 0-10.656c1.273-1.82-.997-15.742-.997-15.742s-.542-2.433-.876-4.916a19.63 19.63 0 01-.054-.424 26.755 26.755 0 013.089-.068c2.658.16 5.259-.857 5.315-1.874.055-1.018 1.494-5.034 1.716-5.944.221-.91.387-4.016 0-4.766z"/><path fill="#4C495A" d="M328.254 313.402v4.923s-1.48 1.694-3.066 2.17c-1.586.477-1.269 1.747-1.269 1.747l-.475 2.065s-2.009 1.799-3.436 2.382c-1.428.582-3.859.105-5.762-1.377-.804-.624-.487-1.956.239-3.379a23.054 23.054 0 013.461-4.773c.696-.696 1.078-2.136 1.281-3.241.151-.828.199-1.47.199-1.47l8.828.953z"/><path fill="#000" d="M328.254 316.93v1.267s-1.48 1.719-3.066 2.202c-1.586.484-1.269 1.773-1.269 1.773l-.475 2.094s-2.009 1.827-3.436 2.417c-1.428.591-3.859.108-5.762-1.396-.804-.634-.487-1.985.239-3.429-.034 1.517.408 3.221 2.562 3.16a10.814 10.814 0 006.397-2.363s-.053-3.545 2.378-4.35a7.38 7.38 0 002.432-1.375z" opacity=".1"/><path fill="#4C495A" d="M348.007 326.126c-4.015.803-5.534-2.943-5.534-2.943s.488-2.944-.706-3.8a6.336 6.336 0 01-1.79-2.034v-4.924L344.86 309l2.644 2.308.178.154s1.03 3.372 2.278 4.984c.793 1.023 1.455 3.097 1.887 4.816.249.989.423 1.861.501 2.349.217 1.338-.326 1.712-4.341 2.515z"/><path fill="#000" d="M348.007 326.125c-4.015.82-5.534-3.008-5.534-3.008s.488-3.008-.706-3.883a6.437 6.437 0 01-1.79-2.078v-1.949c.774.825 2.235 2.422 2.55 3.097.434.93.488 4.321 2.496 4.922 2.007.602 5.914 1.149 6.24-.382a8.546 8.546 0 01.584-1.689c.249 1.01.423 1.901.501 2.399.217 1.368-.326 1.75-4.341 2.571zm-28.521-13.676l8.767.971v2.65c-.989.602-2.406 1.24-3.202.585-1.176-.966-4.672-2.194-5.762-2.709.149-.843.197-1.497.197-1.497zm28.076-.528c-1.229-.433-3.419 1.46-6.303 2.65a2.953 2.953 0 01-1.282.29v-2.399l4.807-3.462 2.602 2.332c.041.202.099.399.176.589z" opacity=".1"/><path fill="#233843" d="M350.664 252.967s-.168.785-.408 1.925c-.546 2.592-1.465 7.024-1.611 8.211-.213 1.707-.904 5.014-.904 5.014-1.594 2.507-.691 5.815-.691 5.815.324.761.361 1.614.107 2.4-.425 1.334-.266 1.387-.266 1.387s1.488 1.654.797 2.828c-.691 1.173.957 3.147.957 3.147l-.372 11.95.372 8.215s-1.223 1.761-.804 2.614c.419.854-.047 2.241-.047 2.241s.213.693-.265 1.067c-.479.373 0 1.493 0 1.493-1.223-.427-3.401 1.441-6.271 2.614-2.87 1.174-1.913-1.6-1.913-1.6s-2.233-2.774-1.754-3.094c.478-.32 1.275-4.855 1.275-4.855-2.232-3.094-1.275-8.215-1.275-8.215l.329-11.945s-.436-1.925-.064-2.779c.372-.853-1.009-2.187-1.009-2.187s.372-1.6 0-2.187c-.372-.587-.479-2.187-.479-2.187s-.903-5.015-.903-6.402c0-1.387-1.222-5.868-1.222-5.868.425-3.841-.638-4.801-.638-4.801-2.445 1.174-.797 5.655-.797 7.522s-1.063 4.748-1.063 4.748-.478 6.775-1.063 8.055c-.585 1.28-.904 4.054-.904 4.054s.957 2.241.511 3.361c-.447 1.12 0 6.028 0 6.028s-.351 7.202-1.308 9.549c-.956 2.347.16 4.001.863 5.121.702 1.121.572 2.401-.384 2.988-.957.587-.691.907.053 1.814.744.906 0 3.627 0 3.627s-3.029 2.401-4.358 1.334c-1.329-1.067-5.58-2.454-6.112-2.828-.531-.373-.372-1.44.425-2.294.798-.853.372-.96.372-.96-2.125-.64-.797-2.614-.797-2.614s2.179-2.347 1.276-3.627c-.904-1.281-.904-5.015-.319-5.762.584-.747-.106-2.88-.106-2.88l-1.27-10.403s-.059-2.187.632-2.454c.691-.267 1.222-.907.691-2.027-.532-1.12.584-3.628.584-3.628.638-.853-.478-4.534-1.807-6.561-1.328-2.027-.531-7.949-.531-7.949s-1.01-1.44-1.01-2.134a3 3 0 00-.319-1.28c-.459-.732-.37-2.388-.17-3.839.194-1.404.489-2.616.489-2.616l33.481.854z"/><path fill="#FDC2CC" d="M340.321 192.765l-10.419 2.46s-5.129-4.385-3.86-6.737c.436-.809.628-2.188.694-3.647.05-1.14.023-2.331-.026-3.338-.074-1.457-.192-2.532-.192-2.532s10.682-6.095 10.312 0a15.729 15.729 0 00.07 3.045c.076.719.283 1.417.611 2.06.571 1.028 1.276 1.043 1.276 1.043l1.534 7.646z"/><path fill="#000" d="M336.875 181.964a8.134 8.134 0 01-5.165 1.528 8.141 8.141 0 01-4.987-2.037c-.074-1.443-.192-2.509-.192-2.509s10.643-6.04 10.274 0a15.454 15.454 0 00.07 3.018z" opacity=".1"/><path fill="#FDC2CC" d="M332.048 183.159a8.275 8.275 0 100-16.55 8.275 8.275 0 000 16.55z"/><path fill="#000" d="M340.321 192.715l-10.419 2.51s-5.129-4.474-3.86-6.875c.436-.825.628-2.232.694-3.721a5.52 5.52 0 001.897 3.285c2.38 1.637 2.01 3.656 2.01 3.656l4.283-.164c-.264-1.801 1.322-2.783 1.851-3.001.529-.218.265-1.201.265-1.201l.469-3.356c.571 1.049 1.276 1.065 1.276 1.065l1.534 7.802zm10.343 60.294l-.41 2.021c-1.162-.065-2.698-.112-3.381.051-1.175.281-5.874.393-5.874.393l-11.641.432v-.377a32.734 32.734 0 00-4.005.281c-1.976.28-5.073-.112-7.049-.449a7.3 7.3 0 01-1.773-.501c.195-1.474.492-2.747.492-2.747l33.641.896z" opacity=".1"/><path fill="#fff" d="M349.882 219.245c-.169 1-.045 2.656.169 4.292.324 2.48.848 4.912.848 4.912s2.195 13.911.964 15.731c-1.231 1.819 0 10.647 0 10.647s-3.694-.321-4.871-.053c-1.178.267-5.889.374-5.889.374l-11.669.414v-.36c-1.342.011-2.683.1-4.015.268-1.98.267-5.085-.108-7.065-.429-1.981-.321-2.784-.963-2.57-1.284.214-.321-.214-9.096-.214-9.096l-.053-7.116s-.054-5.03 1.177-6.154c.503-.458.917-2.151 1.231-3.991.452-2.665.696-5.64.696-5.64l-8.136-21.777-.161-.428s2.356-3.639 1.981-5.404c-.375-1.766 2.194-3.318 2.194-3.318s4.872-2.14 5.193-2.782c.321-.642 3.693-.803 3.693-.803s1.927-1.016 2.259-1.676a1.27 1.27 0 01.897-.73 5.39 5.39 0 001.93 3.262c2.408 1.605 2.034 3.585 2.034 3.585l4.336-.16c-.268-1.766 1.338-2.729 1.873-2.943.535-.214.268-1.177.268-1.177l.501-3.465c.231-.576 1.854 1.628 1.854 1.628s4.122 1.409 4.389 1.516c.268.107 3.747 1.177 3.747 1.177s4.283 2.782 4.283 3.478c0 .695 2.355 4.441 2.355 4.441l-.079.424c-.544 2.949-3.758 20.337-4.15 22.637z"/><path fill="#FDC2CC" d="M332.66 210.745s-9.21-2.455-10.115-3.043c-.905-.587-6.229 2.83.266 7.474 0 0 7.942 1.655 10.067 0 2.124-1.655-.218-4.431-.218-4.431z"/><path fill="#000" d="M352.672 195.914l1.114.054 3.288 8.903s1.962 4.666 2.333 5.416c.372.751.213 3.862 0 4.774-.212.912-1.591 4.934-1.644 5.953-.053 1.019-2.545 2.038-5.091 1.877-2.546-.161-8.486.644-8.486.644s-6.343-.671-10.236 1.34c0 0-2.492-5.202-2.227-14.909 0 0 4.402-.268 5.516.161 1.113.429 6.523 1.662 7.212 1.019.69-.644 3.819 1.18 3.819 1.18a2.751 2.751 0 000-2.253c-.53-1.287-1.432-5.31-.265-6.597 1.167-1.287 4.667-7.562 4.667-7.562z" opacity=".1"/><path fill="#000" d="M350.097 223.643c-2.681.18-5.68.579-5.68.579s-6.46-.671-10.425 1.341c0 0-2.539-5.202-2.269-14.91 0 0 4.484-.268 5.618.161 1.134.429 6.644 1.663 7.346 1.019.702-.643 3.889 1.18 3.889 1.18a2.706 2.706 0 000-2.253c-.54-1.287-1.458-5.309-.27-6.596s4.753-7.562 4.753-7.562l1.055.049c-.549 2.956-3.792 20.384-4.188 22.691-.17 1.001-.045 2.662.171 4.301z" opacity=".1"/><path fill="#fff" d="M352.931 196.258l1.127.053 3.329 8.797s1.987 4.61 2.362 5.352c.376.742.215 3.816 0 4.717-.214.9-1.61 4.875-1.664 5.882-.054 1.007-2.577 2.014-5.154 1.855-2.577-.159-8.591.636-8.591.636s-6.422-.663-10.362 1.324c0 0-2.523-5.14-2.255-14.732 0 0 4.456-.265 5.584.159 1.127.424 6.604 1.643 7.302 1.007.698-.636 3.866 1.166 3.866 1.166a2.66 2.66 0 000-2.226c-.537-1.272-1.45-5.246-.269-6.518 1.181-1.272 4.725-7.472 4.725-7.472z"/><path fill="#DFE6F5" d="M341.681 215.789l1.331.824 7.416-11.977-1.331-.824-7.416 11.977z"/><path fill="#DFE6F5" d="M354.23 203.012c1.311-2.117 1.17-4.578-.315-5.497-1.484-.92-3.751.051-5.061 2.168-1.311 2.117-1.17 4.578.315 5.497 1.484.919 3.751-.051 5.061-2.168z"/><path fill="#000" d="M353.473 202.545c.941-1.52.84-3.286-.226-3.946-1.066-.66-2.693.037-3.633 1.556-.941 1.52-.84 3.286.226 3.946 1.066.66 2.692-.037 3.633-1.556z" opacity=".1"/><path fill="#53526B" d="M337.892 221.91l1.331.824 4.614-7.452-1.331-.824-4.614 7.452z"/><path fill="#FDC2CC" d="M329.984 222.463l3.283-.922s16.2.434 10.764-6.29c0 0-2.852-2.766-8.826-.542-5.974 2.223-7.643 2.494-7.643 2.494l2.422 5.26z"/><path fill="#000" d="M327.565 194.535a.689.689 0 100-1.378.689.689 0 000 1.378zm11.031-.343a.69.69 0 100-1.378.69.69 0 000 1.378z" opacity=".1"/><path fill="#fff" d="M327.565 194.191c.38 0 .689-.232.689-.518 0-.285-.309-.517-.689-.517-.381 0-.69.232-.69.517 0 .286.309.518.69.518z"/><path fill="#000" d="M328.6 203.5a.689.689 0 100-1.378.689.689 0 000 1.378zm10.343-.691a.69.69 0 100-1.38.69.69 0 000 1.38z" opacity=".1"/><path fill="#fff" d="M328.6 203.153a.69.69 0 100-1.378.69.69 0 000 1.378z"/><path fill="#000" d="M338.596 233.495c.381 0 .689-.231.689-.517 0-.286-.308-.517-.689-.517-.381 0-.69.231-.69.517 0 .286.309.517.69.517zm-8.274 0c.381 0 .69-.231.69-.517 0-.286-.309-.517-.69-.517-.38 0-.689.231-.689.517 0 .286.309.517.689.517z" opacity=".1"/><path fill="#fff" d="M338.596 233.496a.688.688 0 100-1.379.69.69 0 000 1.379z"/><path fill="#000" d="M331.014 244.528a.69.69 0 100-1.378.69.69 0 000 1.378zm7.929-.688a.69.69 0 100-1.38.69.69 0 000 1.38z" opacity=".1"/><path fill="#fff" d="M331.014 244.184a.69.69 0 100-1.378.69.69 0 000 1.378zm-.692-10.688a.69.69 0 10.002-1.378.69.69 0 00-.002 1.378zm8.621 9.996a.69.69 0 10.002-1.378.69.69 0 00-.002 1.378zm-.347-49.645c.381 0 .689-.232.689-.517 0-.286-.308-.518-.689-.518-.381 0-.69.232-.69.518 0 .285.309.517.69.517zm.347 8.617c.381 0 .69-.232.69-.517 0-.286-.309-.517-.69-.517-.38 0-.689.231-.689.517 0 .285.309.517.689.517z"/><path fill="#000" d="M339.977 224.531s.084 14.332.336 16.894c0 0 .092-16.218-.336-16.894zm2.765 6.551c-.214 0 4.258 17.321 4.465 18.562.208 1.241-3.219-18.562-4.465-18.562zm3.442-2.758c0 .158 2.618 9.164 3.927 9.638 1.309.474-3.927-9.638-3.927-9.638zm10.341-17.586s-5.69.205-5.858.868c-.167.663 5.858-.868 5.858-.868zm-9.651 69.301s-3.987 1.615-3.387 1.72c.601.104 3.387-1.72 3.387-1.72zm-8.27-2.368c-.16-.353 2.752 1.434 2.752 1.654 0 .221-2.527-1.158-2.752-1.654zm3.787 5.48s2.891-.154 3.094 1.025c.203 1.18-3.094-1.025-3.094-1.025zm-22.067.166s3.497-.388 3.779 0c.282.388-3.779 0-3.779 0zm1.356 20.167s.174 2.735-.468 3.378c-.642.644.468-3.378.468-3.378zm-.321 5.674c1.055.149 6.605-1.2 6.551 0-.054 1.199-6.551 0-6.551 0zm25.169-3.231s-1.736-.296-1.313 1.006l1.313-1.006zm-34.96-106.536h-1.018l-1.554 5.633s-.536 1.967-1.072 2.445c-.536.478.482 4.836.482 4.836s-.589 3.082-1.071 3.879c-.483.797.75 2.763.75 2.763l2.465 5.74 6.538 1.7s11.522 2.498 12.058 2.87c.536.372 1.018-.16 1.393-3.614.375-3.454 1.393-10.15 2.197-10.469 0 0-6.431.691-6.966.585-.536-.106-3.109.053-3.109.053s-3.376-.213-3.912.106.697-1.543.697-1.543a5.078 5.078 0 000-2.602c-.375-1.435-.59-17.696-7.878-12.382z" opacity=".1"/><path fill="#000" d="M332.393 215.862c-.793.319-1.797 7.014-2.167 10.469-.37 3.454-.845 3.985-1.374 3.613-.429-.302-8.003-2.006-10.834-2.636.446-2.646.687-5.601.687-5.601l-8.033-21.628h.845c7.188-5.314 7.399 10.947 7.769 12.382a5.144 5.144 0 010 2.602s-1.215 1.862-.687 1.543c.529-.319 3.858-.107 3.858-.107s2.537-.159 3.066-.053c.528.107 6.87-.584 6.87-.584z" opacity=".1"/><path fill="#fff" d="M311.509 199.735h-1.004l-1.533 5.633s-.529 1.966-1.057 2.445c-.529.478.475 4.835.475 4.835s-.581 3.083-1.057 3.88c-.476.797.74 2.763.74 2.763l2.432 5.739 6.45 1.701s11.366 2.497 11.894 2.869c.529.372 1.005-.159 1.375-3.613.37-3.454 1.374-10.15 2.167-10.469 0 0-6.343.691-6.872.585-.529-.107-3.066.053-3.066.053s-3.331-.213-3.86.106c-.528.319.688-1.543.688-1.543a5.166 5.166 0 000-2.602c-.37-1.435-.582-17.696-7.772-12.382z"/><path fill="#000" d="M314.807 219.016s-2.877 5.4-3.4 4.776c-.523-.623 3.4-4.776 3.4-4.776zm-2.758-3.106s-3.157 2.137-1.671 2.694c1.485.557 1.671-2.694 1.671-2.694zm2.416-2.758c.22.048 4.081.706 4.137.993.055.286-4.137-.993-4.137-.993zm25.814-39.101a.546.546 0 00-.362.57c-.216.191-.519-.034-.695-.279-.178-.242-.38-.542-.649-.508a2.363 2.363 0 00-.371.155c-.424.136-.782-.364-1.019-.802l-1.24-2.301c-.829.483-1.808-.024-2.631-.524-.822-.499-1.801-1.008-2.632-.525-1.219.706-1.263 3.061-2.526 3.642-.407.187-.88.146-1.257.404-.373.255-.575.746-.742 1.216a1.29 1.29 0 01-.415.687.906.906 0 01-.429.104 1.83 1.83 0 01-1.102-.155.932.932 0 01-.381-1.106.453.453 0 01.034-.061 3.97 3.97 0 00.364-.526c.127-.338-.055-.732-.015-1.097.066-.626.725-.955.838-1.57.046-.24-.003-.498.042-.74a.766.766 0 01.025-.094l-.387.268c.434-.508.652-1.214.97-1.831a5.613 5.613 0 013.43-2.801c1.382-.404 2.842-.294 4.236.049 1.327.331 2.597.856 3.771 1.559.419.225.792.529 1.098.895.256.379.474.783.651 1.206.411.855 1.534 1.646.64 1.765-.744.1-.066.624.324.977.088.069.164.152.225.246a.88.88 0 01-.047.853c-.15.192.46.23.252.324z" opacity=".1"/><path fill="#865A61" d="M340.279 173.707a.551.551 0 00-.362.57c-.216.191-.519-.034-.695-.279-.178-.242-.38-.542-.649-.508a2.363 2.363 0 00-.371.155c-.424.136-.782-.363-1.019-.802l-1.24-2.301c-.829.483-1.808-.023-2.631-.523-.822-.5-1.801-1.008-2.632-.526-1.219.707-1.263 3.061-2.526 3.642-.407.187-.88.147-1.257.404-.373.255-.575.746-.742 1.217a1.298 1.298 0 01-.415.687.918.918 0 01-.429.104 1.83 1.83 0 01-1.102-.156.932.932 0 01-.381-1.106.524.524 0 01.034-.061 3.97 3.97 0 00.364-.526c.127-.338-.055-.731-.015-1.097.066-.625.725-.955.838-1.57.046-.24-.003-.498.042-.74a.766.766 0 01.025-.094l-.387.268c.434-.508.652-1.214.97-1.831a5.624 5.624 0 013.43-2.801c1.382-.404 2.842-.294 4.236.049 1.327.331 2.597.857 3.771 1.559.419.226.792.529 1.098.895.256.38.474.784.651 1.206.411.855 1.534 1.647.64 1.766-.744.1-.066.623.324.976.088.069.164.153.225.247a.893.893 0 01-.047.853c-.151.191.46.229.252.323z"/><path fill="#000" d="M339.965 172.208l-.086.886s-9.007-11.184-16.013 1.444l-.093-.412c.138-.163.261-.336.37-.519.128-.335-.056-.724-.015-1.085.066-.619.734-.945.848-1.552.047-.238-.003-.492.042-.732a.755.755 0 01.026-.093l-.393.265c.44-.502.662-1.201.984-1.81.357-.668.849-1.258 1.446-1.734s1.287-.828 2.027-1.036c1.399-.4 2.878-.29 4.291.048 1.343.328 2.63.848 3.819 1.542.424.223.802.523 1.111.885.26.375.481.775.66 1.193.416.845 1.554 1.627.648 1.745-.754.099-.067.616.328.965z" opacity=".1"/><path fill="#000" d="M340.12 173.597a.418.418 0 00-.093.172.424.424 0 00-.008.197c-.218.192-.523-.034-.7-.28-.179-.243-.382-.544-.653-.51a2.43 2.43 0 00-.373.156c-.427.137-.787-.365-1.026-.804l-1.248-2.309c-.834.485-1.82-.023-2.648-.524-.828-.502-1.813-1.012-2.65-.527-1.226.708-1.271 3.07-2.543 3.652-.409.188-.885.147-1.265.405-.375.256-.578.749-.747 1.221-.062.268-.208.51-.418.689a.923.923 0 01-.431.104c-.377.065-.764.01-1.109-.155a.996.996 0 01-.416-.587.965.965 0 00.416 1.013c.345.166.732.22 1.109.156a.923.923 0 00.431-.104c.21-.18.356-.421.418-.69.169-.471.372-.964.747-1.22.38-.258.856-.217 1.265-.405 1.272-.583 1.317-2.944 2.543-3.653.837-.484 1.822.026 2.65.527.828.502 1.814 1.009 2.648.525l1.248 2.309c.239.439.599.94 1.026.804.12-.063.245-.115.373-.156.271-.034.474.267.653.51.177.245.482.471.7.279a.547.547 0 01.365-.571c.166-.075-.188-.115-.264-.224zm-.697-2.133a.771.771 0 01.201-.051c.397-.053.399-.236.242-.499a.623.623 0 01-.242.072c-.428.058-.387.254-.201.478zm.817 1.789a.962.962 0 00-.002-.417.622.622 0 01-.108.235c-.067.084.015.139.11.182zm-16.018-.616c-.005.024-.01.048-.012.074-.009.192.005.384.041.573a2.036 2.036 0 00-.029-.647zm.866-2.602c-.1.19-.22.37-.358.535l.345-.237c-.002-.1.003-.199.013-.298z" opacity=".1"/><path fill="#fff" d="M323.913 174.536s-1.278-5.787-.871-6.715c0 0-1.103-2.293-1.103-2.839a5.474 5.474 0 00-.813-2.566c-.581-.928-1.219-5.242 2.264-6.279 3.483-1.037 6.154-1.965 6.56-2.675.407-.71 6.387-.273 8.012 2.457 1.626 2.73 2.671 2.184 2.671 2.184s2.496 1.583 2.496 3.002c0 1.42-.754 2.13 0 2.457.755.328.175 6.224-3.135 6.388l-.29 3.112s-8.883-11.411-15.791 1.474z"/><path fill="#000" d="M324.288 157.301s-.626 4.389.519 5.861l-.519-5.861zm3.619-1.035s-2.168 4.916-1.641 5.861l1.641-5.861zm1.725-1.727s-1.59 6.384-.827 6.896l.827-6.896zm2.415 1.727s-1.991 4.241-1.188 4.827l1.188-4.827zm3.103.687s-2.097 3.221-1.666 3.793l1.666-3.793zm3.793 3.106s-2.096.629-1.666 1.379l1.666-1.379zm2.066 3.445s-2.059.902-1.676 1.379l1.676-1.379zm-17.927 4.263s11.789-4.445 16.894 1.943c0 0-6.196-4.89-16.894-1.943z" opacity=".1"/><path fill="#53526B" d="M318.602 207.563l1.711-1.649 4.839 4.557-1.711 1.649-4.451-4.19-.388-.367z"/><path fill="#DFE6F5" d="M307.914 196.949s7.143.616 13.791 8.194l-2.771 2.839-11.02-11.033z"/><path fill="#FDC2CC" d="M329.483 210.531s-6.964-2.558-7.649-3.17c-.684-.611-4.709 2.948.202 7.785 0 0 6.005 1.724 7.611 0 1.607-1.723-.164-4.615-.164-4.615z"/><path fill="#fff" d="M295.116 137.628h-1.378V99.86a21.855 21.855 0 00-6.403-15.457 21.888 21.888 0 00-7.092-4.74A21.866 21.866 0 00271.878 78H191.86a21.853 21.853 0 00-15.457 6.403A21.857 21.857 0 00170 99.86v207.202a21.853 21.853 0 006.403 15.458 21.852 21.852 0 0015.457 6.402h80.018a21.848 21.848 0 0015.457-6.402 21.87 21.87 0 006.403-15.458V164.513h1.378v-26.885z"/><path fill="#D23D00" d="M272.76 83.688h-10.446a7.742 7.742 0 01.534 3.72 7.75 7.75 0 01-7.714 6.964h-45.842a7.756 7.756 0 01-7.181-10.684h-9.755a16.327 16.327 0 00-15.082 10.077 16.31 16.31 0 00-1.243 6.247v206.899a16.313 16.313 0 004.782 11.543 16.32 16.32 0 0011.543 4.781h80.404a16.335 16.335 0 0011.543-4.781 16.311 16.311 0 003.538-5.296 16.313 16.313 0 001.243-6.247V100.012a16.324 16.324 0 00-16.324-16.324z"/><path fill="#FF6F1E" d="M266.964 116.004h-68.816a8 8 0 00-8 8v56.748a8 8 0 008 8h68.816a8 8 0 008-8v-56.748a8 8 0 00-8-8z"/><path fill="#32B903" d="M215.319 203.924a6.206 6.206 0 100-12.412 6.206 6.206 0 000 12.412z"/><path fill="#fff" d="M218.421 197.203h-2.586v-2.586h-1.034v2.586h-2.586v1.034h2.586v2.586h1.034v-2.586h2.586v-1.034z"/><path fill="#32B903" d="M248.073 203.924a6.206 6.206 0 100-12.412 6.206 6.206 0 000 12.412z"/><path fill="#fff" d="M251.176 198.237v-1.034h-6.206v1.034h6.206z"/><path fill="#0A0A0A" d="M235.72 125.078h-6.702a.893.893 0 00-.629.26.893.893 0 00-.26.629v2.942a.888.888 0 00.889.888h1.11v4.408h4.481v-4.408h1.111a.889.889 0 00.889-.888v-2.942a.89.89 0 00-.889-.889z"/><path fill="#233843" d="M242.435 152.005a34.461 34.461 0 01-5.994-20.43.733.733 0 00-.568-.726v-1.271h-7.078v1.254h-.098a.737.737 0 00-.278.055.737.737 0 00-.392.394.718.718 0 00-.053.331c.557 7.774-1.326 14.745-5.65 20.914-.249.355-.376.78-.362 1.213l.774 23.943a2.073 2.073 0 002.055 2.001h16.011a2.076 2.076 0 002.056-2.036l.299-23.247a4.196 4.196 0 00-.722-2.395z"/><path fill="#000" d="M234.323 126.039a1.916 1.916 0 11-3.835 0" opacity=".2"/><path fill="#FFB9B9" d="M239.899 159.958h-1.939a5.085 5.085 0 00-5.03-4.313 5.086 5.086 0 00-5.029 4.313h-1.939a1.438 1.438 0 00-1.086.499 1.448 1.448 0 00-.29.539 1.449 1.449 0 00-.038.611l2.106 13.689h12.093l2.558-13.643a1.44 1.44 0 00-.305-1.178 1.433 1.433 0 00-1.101-.517z"/><path fill="#FF6F1E" d="M266.964 218.406h-68.816a8 8 0 00-8 8v56.748a8 8 0 008 8h68.816a8 8 0 008-8v-56.748a8 8 0 00-8-8z"/><path fill="#32B903" d="M215.319 306.322a6.206 6.206 0 100-12.412 6.206 6.206 0 000 12.412z"/><path fill="#fff" d="M218.421 299.601h-2.586v-2.585h-1.034v2.585h-2.586v1.035h2.586v2.586h1.034v-2.586h2.586v-1.035z"/><path fill="#32B903" d="M248.073 306.322a6.206 6.206 0 100-12.412 6.206 6.206 0 000 12.412z"/><path fill="#fff" d="M251.176 300.636v-1.034h-6.206v1.034h6.206zm-1.921-30.55h.047a7.947 7.947 0 007.438-4.982 26.007 26.007 0 00-5.918-28.073 26.001 26.001 0 10-28.72 42.316 7.883 7.883 0 008.747-1.622 25.912 25.912 0 0118.406-7.639z"/><path fill="#F9A825" d="M235.896 262.217a8.587 8.587 0 100-17.174 8.587 8.587 0 000 17.174z"/><rect width="97" height="42" x="53.5" y="86.5" fill="#D23D00" stroke="#fff" rx="7.5"/><path fill="#FF6F1E" d="M78 124c8.837 0 16-7.163 16-16s-7.163-16-16-16-16 7.163-16 16 7.163 16 16 16z"/><path fill="#231F20" d="M85 114.5a2 2 0 01-2 2H73a2 2 0 01-2-2v-10a2 2 0 012-2h10a2 2 0 012 2v10z" opacity=".2"/><path fill="#fff" d="M73 114.5a1 1 0 01-1-1v-10a1 1 0 011-1h10a1 1 0 011 1v10a1 1 0 01-1 1H73z"/><path fill="#fff" d="M83 103.5v10H73v-10h10zm0-2H73a2 2 0 00-2 2v10a2 2 0 002 2h10a2 2 0 002-2v-10a2 2 0 00-2-2z"/><path fill="#231F20" d="M78.227 112.5c-.309 0-.603-.144-.794-.393l-3.06-4a1 1 0 011.589-1.214l2.094 2.737c1.155-2.078 3.663-5.892 7.653-8.47a1 1 0 111.085 1.68c-5.104 3.298-7.624 9.001-7.65 9.058a.995.995 0 01-.917.602z" opacity=".2"/><path fill="#233843" d="M78.228 111.5c-.31 0-.604-.144-.795-.393l-3.06-4a1 1 0 011.59-1.215l2.094 2.738c1.154-2.078 3.662-5.892 7.652-8.47a1 1 0 011.086 1.68c-5.104 3.298-7.625 9.002-7.65 9.059a.998.998 0 01-.917.601z"/><rect width="40" height="6" x="103" y="97" fill="#fff" rx="3"/><rect width="26" height="6" x="103" y="110" fill="#fff" rx="3"/><rect width="97" height="42" x="53.5" y="145.5" fill="#D23D00" stroke="#fff" rx="7.5"/><path fill="#FF6F1E" d="M78 183c8.837 0 16-7.163 16-16s-7.163-16-16-16-16 7.163-16 16 7.163 16 16 16z"/><path fill="#231F20" d="M85 173.5a2 2 0 01-2 2H73a2 2 0 01-2-2v-10a2 2 0 012-2h10a2 2 0 012 2v10z" opacity=".2"/><path fill="#fff" d="M73 173.5a1 1 0 01-1-1v-10a1 1 0 011-1h10a1 1 0 011 1v10a1 1 0 01-1 1H73z"/><path fill="#fff" d="M83 162.5v10H73v-10h10zm0-2H73a2 2 0 00-2 2v10a2 2 0 002 2h10a2 2 0 002-2v-10a2 2 0 00-2-2z"/><path fill="#231F20" d="M78.227 171.5c-.309 0-.603-.144-.794-.393l-3.06-4a1 1 0 011.589-1.214l2.094 2.737c1.155-2.078 3.663-5.892 7.653-8.47a1 1 0 111.085 1.68c-5.104 3.298-7.624 9.001-7.65 9.058a.995.995 0 01-.917.602z" opacity=".2"/><path fill="#233843" d="M78.228 170.5c-.31 0-.604-.144-.795-.393l-3.06-4a1 1 0 011.59-1.215l2.094 2.738c1.154-2.078 3.662-5.892 7.652-8.47a1 1 0 111.086 1.68c-5.104 3.298-7.625 9.002-7.65 9.059a.998.998 0 01-.917.601z"/><rect width="40" height="6" x="103" y="156" fill="#fff" rx="3"/><rect width="26" height="6" x="103" y="169" fill="#fff" rx="3"/><rect width="97" height="42" x="53.5" y="204.5" fill="#D23D00" stroke="#fff" rx="7.5"/><path fill="#FF6F1E" d="M78 242c8.837 0 16-7.163 16-16s-7.163-16-16-16-16 7.163-16 16 7.163 16 16 16z"/><path fill="#231F20" d="M85 232.5a2 2 0 01-2 2H73a2 2 0 01-2-2v-10a2 2 0 012-2h10a2 2 0 012 2v10z" opacity=".2"/><path fill="#fff" d="M73 232.5a1 1 0 01-1-1v-10a1 1 0 011-1h10a1 1 0 011 1v10a1 1 0 01-1 1H73z"/><path fill="#fff" d="M83 221.5v10H73v-10h10zm0-2H73a2 2 0 00-2 2v10a2 2 0 002 2h10a2 2 0 002-2v-10a2 2 0 00-2-2z"/><path fill="#231F20" d="M78.227 230.5c-.309 0-.603-.144-.794-.393l-3.06-4a1 1 0 011.589-1.214l2.094 2.737c1.155-2.078 3.663-5.892 7.653-8.47a1 1 0 111.085 1.68c-5.104 3.298-7.624 9.001-7.65 9.058a.995.995 0 01-.917.602z" opacity=".2"/><path fill="#233843" d="M78.228 229.5c-.31 0-.604-.144-.795-.393l-3.06-4a1 1 0 011.59-1.215l2.094 2.738c1.154-2.078 3.662-5.892 7.652-8.47a1 1 0 111.086 1.68c-5.104 3.298-7.625 9.002-7.65 9.059a.998.998 0 01-.917.601z"/><rect width="40" height="6" x="103" y="215" fill="#fff" rx="3"/><rect width="26" height="6" x="103" y="228" fill="#fff" rx="3"/><rect width="96" height="33" x="53" y="274" fill="#32B903" stroke="#fff" stroke-width="2" rx="16.5"/><path fill="#fff" d="M87.242 290.909c0 1.11-.211 2.055-.632 2.834-.418.779-.988 1.374-1.71 1.785-.72.407-1.528.611-2.426.611-.905 0-1.717-.205-2.436-.616-.72-.411-1.288-1.006-1.706-1.785-.417-.779-.626-1.722-.626-2.829 0-1.11.209-2.055.626-2.834.418-.779.986-1.372 1.706-1.78.719-.411 1.53-.616 2.436-.616.898 0 1.707.205 2.426.616.722.408 1.292 1.001 1.71 1.78.421.779.632 1.724.632 2.834zm-2.183 0c0-.719-.108-1.326-.323-1.82-.212-.493-.512-.868-.9-1.123s-.842-.383-1.362-.383c-.52 0-.975.128-1.362.383-.388.255-.69.63-.905 1.123-.212.494-.319 1.101-.319 1.82 0 .719.107 1.326.319 1.82.215.494.517.868.905 1.123.387.255.841.383 1.362.383.52 0 .974-.128 1.362-.383.388-.255.688-.629.9-1.123.215-.494.323-1.101.323-1.82zM88.836 296v-10.182h4.017c.77 0 1.425.138 1.969.413.547.272.963.658 1.248 1.158.288.497.432 1.082.432 1.755 0 .676-.145 1.258-.437 1.745-.292.484-.714.855-1.268 1.114-.55.258-1.216.388-1.998.388h-2.69v-1.73h2.342c.41 0 .752-.057 1.024-.17a1.21 1.21 0 00.606-.507c.136-.225.204-.505.204-.84 0-.338-.068-.623-.204-.855a1.245 1.245 0 00-.611-.527c-.272-.123-.615-.184-1.03-.184h-1.45V296h-2.153zm5.499-4.634l2.53 4.634H94.49l-2.476-4.634h2.322zm7.298 4.634h-3.61v-10.182h3.64c1.024 0 1.906.204 2.645.612a4.125 4.125 0 011.705 1.745c.401.759.602 1.667.602 2.724 0 1.061-.201 1.972-.602 2.735a4.13 4.13 0 01-1.715 1.754c-.743.408-1.631.612-2.665.612zm-1.457-1.844h1.368c.636 0 1.171-.113 1.605-.339.438-.228.766-.581.985-1.058.222-.481.333-1.101.333-1.86 0-.752-.111-1.367-.333-1.844a2.155 2.155 0 00-.98-1.054c-.434-.226-.969-.338-1.606-.338h-1.372v6.493zm8.033 1.844v-10.182h6.861v1.775h-4.708v2.426h4.355v1.775h-4.355v2.431h4.728V296h-6.881zm8.572 0v-10.182h4.017c.769 0 1.426.138 1.969.413.547.272.963.658 1.248 1.158.288.497.433 1.082.433 1.755 0 .676-.146 1.258-.438 1.745-.292.484-.714.855-1.268 1.114-.55.258-1.216.388-1.998.388h-2.69v-1.73h2.342c.411 0 .752-.057 1.024-.17.272-.112.474-.281.606-.507.136-.225.204-.505.204-.84 0-.338-.068-.623-.204-.855a1.245 1.245 0 00-.611-.527c-.272-.123-.615-.184-1.029-.184h-1.452V296h-2.153zm5.499-4.634l2.531 4.634h-2.377l-2.476-4.634h2.322zm11.434 16.777c-.591 0-1.096.209-1.515.628a2.065 2.065 0 00-.628 1.515v15l-2.527-3.382c-.458-.603-1.055-.904-1.792-.904-.58 0-1.077.212-1.49.636a2.086 2.086 0 00-.619 1.507c0 .48.145.909.435 1.289l6.429 8.571c.424.57.993.854 1.707.854h12.02c.246 0 .466-.075.662-.226.195-.151.321-.343.376-.577l1.54-6.161a13.34 13.34 0 00.402-3.248v-3.633c0-.457-.156-.854-.468-1.188a1.5 1.5 0 00-1.139-.503c-.446 0-.826.157-1.138.469a1.55 1.55 0 00-.469 1.139h-.536v-1.022c0-.535-.178-.99-.535-1.364a1.778 1.778 0 00-1.34-.561c-.513 0-.954.184-1.322.553a1.801 1.801 0 00-.553 1.322v1.072h-.535v-1.507c0-.614-.207-1.141-.62-1.582a2.005 2.005 0 00-1.523-.661c-.592 0-1.097.209-1.515.627a2.064 2.064 0 00-.628 1.515v1.608h-.536v-9.543c0-.614-.206-1.141-.619-1.582a2.006 2.006 0 00-1.524-.661zm0-2.143c1.194 0 2.207.432 3.039 1.297.831.865 1.247 1.895 1.247 3.089v3.683c.246-.022.424-.033.536-.033 1.105 0 2.07.385 2.896 1.155a4.006 4.006 0 011.657-.352c1.261 0 2.288.486 3.081 1.457.301-.078.613-.117.937-.117 1.049 0 1.937.376 2.662 1.13a3.76 3.76 0 011.088 2.703v3.633c0 1.295-.156 2.55-.469 3.767l-1.54 6.161a3.115 3.115 0 01-1.138 1.749 3.132 3.132 0 01-1.976.678h-12.02a4.204 4.204 0 01-1.917-.46 4.348 4.348 0 01-1.515-1.248l-6.428-8.571a4.188 4.188 0 01-.854-2.578c0-1.172.416-2.179 1.247-3.022.832-.843 1.833-1.264 3.005-1.264.793 0 1.518.195 2.177.586v-9.157c0-1.183.418-2.193 1.255-3.03.837-.837 1.847-1.256 3.03-1.256zm2.143 23.571v-6.428h-.536v6.428h.536zm4.286 0v-6.428h-.536v6.428h.536zm4.286 0v-6.428h-.536v6.428h.536z"/><defs><linearGradient id="prefix__paint0_linear" x1="333.597" x2="333.597" y1="326.931" y2="152.473" gradientUnits="userSpaceOnUse"><stop stop-color="gray" stop-opacity=".25"/><stop offset=".535" stop-color="gray" stop-opacity=".12"/><stop offset="1" stop-color="gray" stop-opacity=".1"/></linearGradient></defs></svg>