<svg xmlns="http://www.w3.org/2000/svg" width="418" height="376" fill="none"><rect width="75" height="75" x="5" y="284" fill="#004D91" rx="16"/><rect width="100" height="100" x="318" y="229" fill="#004D91" rx="16"/><rect width="100" height="100" x="35" y="60" fill="#004D91" rx="16"/><rect width="45" height="45" x="280" y="17" fill="#39963D" rx="10"/><rect width="63" height="63" x="355" y="58" fill="#004D91" rx="10"/><rect width="37" height="37" x="201.027" y="326" fill="#004D91" rx="4"/><path fill="#FF8F00" d="M372.711 100.196l13.372 1.703-8.16 10.729-5.212-12.432zm-316-9L70.083 92.9l-8.16 10.729-5.212-12.432z"/><path fill="#FFF9C4" d="M149.681 222.25l8.528 10.439-13.304 2.166 4.776-12.605zm-83 60l8.528 10.439-13.304 2.166 4.776-12.605zm315 26l8.528 10.439-13.304 2.166 4.776-12.605z"/><path fill="#FFD037" d="M224.003 48.543l-9.655 9.407-3.319-13.065 12.974 3.658z"/><path fill="#8CC440" d="M33.709 344.25l8.528 10.439-13.305 2.166 4.777-12.605zm239.972-122l8.528 10.439-13.304 2.166 4.776-12.605z"/><circle cx="77.027" cy="36" r="4" fill="#8CC440"/><circle cx="371" cy="37" r="4" fill="#8CC440"/><circle cx="402" cy="270" r="4" fill="#8CC440"/><circle cx="4" cy="170" r="4" fill="#FF8F00"/><circle cx="247" cy="132" r="4" fill="#FF8F00"/><circle cx="223" cy="317" r="4" fill="#FF8F00"/><circle cx="214.5" cy="188.5" r="47.5" fill="#14397D"/><path fill="#FFFFFB" d="M251 189.001c0 4.176-.72 8.28-2.088 12.024h-67.896A36.96 36.96 0 01179 189.001c0-4.248.72-8.28 2.016-12.024h67.896c1.368 3.744 2.088 7.776 2.088 12.024z"/><path fill="#0D8943" d="M248.91 201.023a34.588 34.588 0 01-2.736 5.976 35.857 35.857 0 01-31.176 18c-13.32 0-24.984-7.2-31.176-18a34.588 34.588 0 01-2.736-5.976h67.824z"/><path fill="#F58722" d="M248.911 176.976h-67.895a34.588 34.588 0 012.736-5.976c6.264-10.8 17.928-18 31.248-18s24.984 7.2 31.175 18a34.588 34.588 0 012.736 5.976z"/><path fill="#333493" d="M215 179.496c5.184 0 9.504 4.248 9.504 9.504.072 5.184-4.32 9.576-9.504 9.504-5.256 0-9.504-4.32-9.504-9.504a9.495 9.495 0 019.504-9.504zm-5.4 3.168c-.072.072-.216.144-.288.216-.288.288-.72.504-.504 1.008 0 .072-.216.36-.288.36-.504-.072-.576.36-.792.648-.144.216-.36.432-.072.792.072.072-.144.432-.216.504-.432.072-.432.432-.504.72-.072.288-.288.576.072.864.072.072.072.432 0 .432-.576.288-.36.72-.36 1.152 0 .216 0 .36.288.504.288.144.288.36.072.576-.288.36-.072 1.224.36 1.44.144.072.288.36.288.432-.36.504.072.864.288 1.224.072.144.288.144.36.216.144.144.432.288.432.36-.144.432.144.648.432.936.216.216.36.432.72.288.072 0 .36.216.36.288-.072.504.36.576.648.792.216.144.432.36.72.072.072-.072.432.072.432.144.144.576.576.504 1.008.648.216.072.36.072.576-.144.072-.072.504-.072.504 0 .216.504.648.288.936.36.288 0 .576.072.72-.288 0-.072.432-.144.432-.072.288.432.72.144 1.008.072.288-.072.504-.072.576-.432 0-.072.36-.288.432-.216.504.36.864-.072 1.224-.288.144-.072.144-.288.216-.36.144-.144.288-.432.36-.36.432.144.648-.144.936-.432.216-.216.432-.36.288-.72 0-.072.216-.36.288-.36.504.072.576-.36.792-.648.144-.216.36-.432.072-.72-.072-.072.072-.432.144-.432.576-.144.504-.576.648-1.008.072-.216.144-.36-.144-.504-.216-.144-.144-.432.072-.576.432-.288.432-1.224 0-1.512-.216-.144-.288-.432-.072-.576.36-.288.144-.576.072-.864-.072-.288-.072-.648-.504-.72-.072 0-.288-.36-.216-.432.36-.504-.072-.864-.288-1.224-.072-.144-.288-.216-.432-.216-.288-.072-.504-.144-.36-.432.144-.36-.072-.576-.288-.792-.216-.216-.432-.576-.864-.36-.072 0-.36-.216-.36-.288.072-.504-.36-.576-.648-.792-.216-.144-.432-.288-.72-.072-.216.144-.432 0-.504-.216-.216-.504-1.008-.72-1.44-.36-.216.144-.432.144-.576-.072-.288-.432-1.224-.36-1.512 0-.072.144-.432.144-.504.144-.288-.36-.576-.216-.864-.144-.288.072-.648.144-.72.504 0 .072-.36.144-.576.144-.144 0-.36-.072-.504 0-.216.072-.432.216-.648.36-.072.072-.144.144-.144.216-.072.288-.36.36-.864.216z"/><path fill="#333493" d="M213.703 190.01c-.144 0-.288 0-.36.072-1.368 1.152-3.024 1.728-4.536 2.52 0 0-.072 0-.144-.144 1.44-.864 2.88-1.656 4.32-2.52.072-.072.216-.072.36-.144.072-.072.144-.144.144-.216-.072 0-.216-.072-.288-.072-1.512.72-3.168.864-4.752 1.224h-.288v-.144c1.728-.504 3.456-1.008 5.328-1.512-.144-.072-.288-.144-.432-.072-1.728.36-3.384-.072-5.04-.072 0 0-.072 0-.144-.072 1.008-.072 1.944-.144 2.88-.144h2.736c-1.872-.504-3.6-1.008-5.328-1.512 0-.072 0-.072.072-.144.864.144 1.656.288 2.52.504.864.216 1.656.504 2.448.72h.36c-.072-.072-.144-.216-.288-.288-1.656-.648-3.024-1.8-4.464-2.664 0-.072.072-.072.072-.144 1.656.864 3.24 1.8 4.896 2.664-1.296-1.296-2.52-2.592-3.744-3.888l.144-.144c1.296 1.224 2.736 2.232 3.744 3.744.072 0 .072-.072.144-.072 0-.144 0-.288-.072-.36-1.152-1.368-1.728-3.024-2.52-4.536 0 0 0-.072.144-.144.864 1.44 1.656 2.88 2.52 4.32.072.072.072.216.144.36.072.072.144.144.216.144 0-.072.072-.216.072-.288-.792-1.656-.936-3.528-1.368-5.256 0 0 0-.072.072-.144.576 1.872 1.08 3.672 1.656 5.688.072-.216.144-.36.072-.432-.36-1.728 0-3.456.072-5.184l.072-.072c.072 1.008.144 1.944.144 2.88v2.736c.576-1.944 1.08-3.744 1.656-5.616.072 0 .144 0 .216.072-.432 1.656-.864 3.24-1.296 4.896-.072.144-.144.36-.216.504 0 .072.072.144.072.216.072 0 .144-.072.216-.072.072-.144.072-.216.144-.36.864-1.44 1.656-2.88 2.52-4.32.072 0 .072.072.144.072l-.648 1.296c-.576 1.152-1.08 2.376-1.944 3.312-.072.072 0 .216-.072.36.072-.072.216-.072.288-.144.936-1.44 2.376-2.376 3.6-3.528 0 0 .072 0 .072-.072l.072.072c-1.224 1.296-2.52 2.592-3.816 3.96.072 0 .216 0 .288-.072 1.296-1.152 2.952-1.728 4.464-2.52.072 0 .144-.072.216-.072 0 .072.072.072.072.144-1.44.864-2.88 1.656-4.32 2.52-.144.072-.288.072-.36.144-.072.072-.072.144-.144.216.072 0 .144.072.216.072h.072c1.656-.792 3.528-.936 5.328-1.368 0 .072 0 .072.072.144-1.872.576-3.672 1.08-5.616 1.656.216 0 .432.072.576.072 1.728-.36 3.384.072 5.112.144-.648.072-1.224.072-1.872.144-.648.072-1.296.072-1.944.072-.576 0-1.152-.288-1.8-.072 1.944.576 3.816 1.08 5.688 1.656 0 .072 0 .072-.072.144-1.728-.504-3.6-.576-5.256-1.368-.072-.072-.144-.072-.216-.072-.072 0-.144.072-.144.072 0 .072 0 .144.072.144.144.072.216.072.36.144 1.44.864 2.88 1.656 4.392 2.52-.072.072-.072.144-.144.216-1.656-.864-3.24-1.8-4.968-2.736.072.144.144.288.216.36 1.368 1.008 2.376 2.376 3.528 3.6 0 0 0 .072.072.216-.72-.648-1.44-1.224-2.016-1.8-.576-.576-1.152-1.224-1.728-1.872-.072-.072-.216-.144-.36-.216.936 1.728 1.8 3.312 2.736 4.968-.072.072-.144.072-.216.144-.864-1.44-1.656-2.88-2.52-4.32-.072-.072-.072-.216-.144-.288-.072-.072-.144-.072-.216-.144 0 .072-.072.216-.072.288.216.576.432 1.152.576 1.728.288 1.224.504 2.448.792 3.672h-.144c-.504-1.8-1.08-3.672-1.656-5.544 0 .144-.144.216-.072.36.36 1.728-.072 3.384-.072 5.112 0 0 0 .072-.072.216-.072-1.08-.072-2.016-.144-2.952-.144-.936.144-1.8 0-2.664-.576 1.872-1.08 3.744-1.656 5.544-.072 0-.072 0-.144-.072.432-1.728.576-3.528 1.296-5.184 0-.072.072-.144.072-.144 0-.072 0-.216-.072-.288-.072.072-.216.144-.216.216-.432 1.152-1.152 2.16-1.8 3.168-.288.432-.576.936-.936 1.368-.072 0-.072-.072-.144-.072.936-1.584 1.872-3.24 2.736-4.824 0 0-.072-.072-.072 0-1.296 1.296-2.592 2.52-3.888 3.744l-.144-.144c1.224-1.296 2.232-2.736 3.744-3.744.144-.144.072-.144.072-.216z"/><rect width="120" height="120" x="90" y="256" fill="#14397D" rx="10"/><rect width="120" height="120" x="10" y="128" fill="#14397D" rx="10"/><rect width="120" height="120" x="298" y="128" fill="#14397D" rx="10"/><rect width="120" height="120" x="231" fill="#14397D" rx="10"/><rect width="120" height="120" x="90" fill="#14397D" rx="10"/><path fill="#fff" fill-rule="evenodd" d="M273 51a3 3 0 013-3h6a3 3 0 013 3v3h-4v-2h-4v14h4v-4h-2v-4h6v9a3 3 0 01-3 3h-6a3 3 0 01-3-3V51zm18 1v2h-4v-3a3 3 0 013-3h6a3 3 0 013 3v5.382a3 3 0 01-1.658 2.683L291 62.236V66h4v-2h4v3a3 3 0 01-3 3h-6a3 3 0 01-3-3v-5.382a3 3 0 011.658-2.683L295 55.764V52h-4zm13-4a3 3 0 00-3 3v16a3 3 0 003 3h7v-4h-6v-5h6v-4h-6v-5h6v-4h-7zm1-15.1c0-2.3-1.5-4.2-3.6-4.7.4-.6.6-1.4.6-2.2 0-2.2-1.8-4-4-4s-4 1.8-4 4c0 .7.2 1.3.5 1.8-1.4-1.1-3.5-1.1-4.9 0 .3-.5.5-1.2.5-1.8 0-2.2-1.8-4-4-4s-4 1.8-4 4c0 .8.2 1.5.6 2.2-2.2.5-3.7 2.5-3.7 4.7V37h6.1c0 .15-.025.3-.05.45-.025.15-.05.3-.05.45V42h3.23l.653-2H287v-2.1c0-.4.1-.8.3-1.2.1-.3.3-.6.6-.9.6-.5 1.3-.8 2.1-.8h4.2c.8 0 1.5.3 2.1.8.3.3.4.5.6.9.2.4.3.8.3 1.2V40h-2.083l.653 2H299v-4.1c0-.3 0-.6-.1-.9h6.1v-4.1zM294 43l-1-3-.5-1.5L294 37h-4l1.5 1.5-.5 1.5-1 3 2 2 2-2zm4-19c1.1 0 2 .9 2 2s-.9 2-2 2-2-.9-2-2 .9-2 2-2zm-7.8 6.1c.1-.3.3-.5.5-.6.3-.3.8-.5 1.3-.5s1 .2 1.3.5c.2.2.4.4.5.6.1.3.2.6.2.9 0 1-.7 1.8-1.6 2-.3.1-.6.1-.8 0-.9-.2-1.6-1-1.6-2 0-.3.1-.6.2-.9zM286 24c1.1 0 2 .9 2 2s-.9 2-2 2-2-.9-2-2 .9-2 2-2zm0 11h-5v-2.1c0-1.6 1.3-2.9 2.9-2.9h4.2c-.1.3-.1.7-.1 1 0 .8.2 1.5.6 2.2-1 .3-2 .9-2.6 1.8zm16.9 0H298c-.7-.9-1.6-1.5-2.7-1.8.4-.6.6-1.4.6-2.2 0-.3 0-.7-.1-1h4.2c1.6 0 2.9 1.3 2.9 2.9V35z" clip-rule="evenodd"/><path fill="#fff" d="M254.214 94V82.364h7.841v2.028h-5.38v2.773h4.977v2.028h-4.977v2.779h5.403V94h-7.864zm9.752 0v-8.727h2.307v1.54h.102c.182-.512.485-.915.909-1.21.424-.296.932-.444 1.523-.444.598 0 1.108.15 1.528.449.421.295.701.697.841 1.204h.091c.178-.5.5-.9.966-1.198.47-.303 1.025-.455 1.665-.455.814 0 1.475.26 1.983.778.511.516.767 1.247.767 2.194V94h-2.415v-5.392c0-.485-.129-.849-.386-1.091a1.358 1.358 0 00-.966-.364c-.44 0-.783.14-1.029.42-.246.277-.369.643-.369 1.098V94h-2.347v-5.443c0-.428-.123-.77-.369-1.023-.242-.254-.562-.38-.96-.38-.269 0-.512.068-.727.204-.213.132-.381.32-.506.563a1.782 1.782 0 00-.188.84V94h-2.42zm14.594 3.273v-12h2.386v1.466h.108c.106-.235.259-.474.46-.716.205-.246.47-.451.796-.614.329-.167.738-.25 1.227-.25.636 0 1.223.167 1.761.5.538.33.968.828 1.29 1.494.322.663.483 1.495.483 2.495 0 .973-.157 1.795-.472 2.466-.31.666-.734 1.172-1.272 1.517a3.275 3.275 0 01-1.796.511c-.469 0-.869-.078-1.199-.233a2.487 2.487 0 01-.801-.585 3.002 3.002 0 01-.477-.722h-.074v4.67h-2.42zm2.369-7.637c0 .52.072.972.216 1.358.144.387.352.688.625.904.273.212.604.318.994.318.394 0 .727-.108 1-.324.273-.22.479-.523.62-.909.143-.39.215-.84.215-1.347 0-.503-.07-.947-.21-1.33-.14-.382-.346-.681-.619-.897-.273-.216-.608-.324-1.006-.324-.394 0-.727.104-1 .313-.269.208-.475.504-.619.886-.144.383-.216.833-.216 1.352zm10.176-7.272V94h-2.42V82.364h2.42zm5.882 11.806c-.882 0-1.646-.187-2.29-.562a3.852 3.852 0 01-1.483-1.58c-.348-.678-.522-1.464-.522-2.358 0-.901.174-1.689.522-2.363a3.81 3.81 0 011.483-1.58c.644-.379 1.408-.568 2.29-.568.883 0 1.644.19 2.284.568.644.375 1.14.902 1.489 1.58.348.674.523 1.462.523 2.364 0 .893-.175 1.68-.523 2.357a3.84 3.84 0 01-1.489 1.58c-.64.375-1.401.563-2.284.563zm.012-1.874c.401 0 .736-.114 1.005-.342.269-.23.472-.545.608-.943.14-.397.21-.85.21-1.358 0-.507-.07-.96-.21-1.358-.136-.397-.339-.712-.608-.943-.269-.23-.604-.346-1.005-.346-.406 0-.747.115-1.023.346-.273.231-.479.546-.619.944-.137.397-.205.85-.205 1.357 0 .508.068.96.205 1.358.14.398.346.713.619.944.276.227.617.34 1.023.34zm7.055 4.96a4.82 4.82 0 01-.864-.074 3.563 3.563 0 01-.659-.17l.546-1.813c.428.132.788.166 1.079.102.296-.06.529-.288.699-.682l.142-.369-3.131-8.977h2.546l1.807 6.409h.091l1.824-6.41 2.562.012-3.392 9.66c-.163.465-.384.87-.665 1.215a2.747 2.747 0 01-1.051.807c-.424.193-.936.29-1.534.29zm11.561-3.085c-.898 0-1.67-.182-2.318-.546a3.734 3.734 0 01-1.489-1.557c-.348-.674-.522-1.471-.522-2.392 0-.898.174-1.686.522-2.364a3.873 3.873 0 011.472-1.585c.636-.379 1.382-.568 2.238-.568.576 0 1.112.093 1.608.278.5.182.936.457 1.307.824.375.368.667.83.875 1.387.209.553.313 1.2.313 1.943v.665h-7.37v-1.5h5.091c0-.349-.075-.657-.227-.927a1.626 1.626 0 00-.631-.63 1.799 1.799 0 00-.926-.233c-.367 0-.693.085-.977.256-.28.166-.5.392-.659.676-.159.28-.241.593-.244.937v1.426c0 .432.079.805.238 1.12.163.314.392.556.688.727.295.17.646.256 1.051.256.269 0 .515-.038.738-.114a1.55 1.55 0 00.574-.34c.159-.152.281-.338.364-.558l2.239.148a3.068 3.068 0 01-.699 1.41c-.349.397-.8.707-1.353.93-.549.22-1.183.33-1.903.33zm9.563 0c-.898 0-1.671-.182-2.319-.546a3.726 3.726 0 01-1.488-1.557c-.349-.674-.523-1.471-.523-2.392 0-.898.174-1.686.523-2.364a3.87 3.87 0 011.471-1.585c.637-.379 1.383-.568 2.239-.568.576 0 1.112.093 1.608.278.5.182.936.457 1.307.824.375.368.666.83.875 1.387.208.553.312 1.2.312 1.943v.665h-7.369v-1.5h5.091c0-.349-.076-.657-.227-.927a1.633 1.633 0 00-.631-.63 1.802 1.802 0 00-.926-.233 1.86 1.86 0 00-.978.256c-.28.166-.5.392-.659.676-.159.28-.24.593-.244.937v1.426c0 .432.08.805.239 1.12.163.314.392.556.687.727.296.17.646.256 1.051.256.269 0 .515-.038.739-.114.223-.076.415-.19.574-.34.159-.152.28-.338.363-.558l2.239.148a3.058 3.058 0 01-.699 1.41c-.348.397-.799.707-1.352.93-.549.22-1.184.33-1.903.33z"/><rect width="120" height="120" x="231" y="256" fill="#14397D" rx="10"/><path fill="#fff" d="M245.222 340v-11.636h7.841v2.028h-5.38v2.773h4.977v2.028h-4.977v2.779h5.403V340h-7.864zm12.968.142c-.663 0-1.264-.17-1.802-.511-.534-.345-.958-.851-1.272-1.517-.311-.671-.466-1.493-.466-2.466 0-1 .161-1.832.483-2.495.322-.666.75-1.164 1.284-1.494a3.294 3.294 0 011.767-.5c.489 0 .896.083 1.222.25.329.163.594.368.795.614.205.242.36.481.466.716h.074v-4.375h2.415V340h-2.387v-1.398h-.102a3.14 3.14 0 01-.483.722c-.205.235-.472.43-.801.585-.326.155-.724.233-1.193.233zm.767-1.926c.39 0 .719-.106.988-.318.273-.216.481-.517.625-.904.148-.386.222-.839.222-1.358 0-.519-.072-.969-.216-1.352-.144-.382-.352-.678-.625-.886-.273-.209-.604-.313-.994-.313-.398 0-.733.108-1.006.324-.273.216-.479.515-.619.898-.14.382-.211.826-.211 1.329 0 .508.071.957.211 1.347.144.386.35.689.619.909.273.216.608.324 1.006.324zm11.785-1.932v-5.011h2.421V340h-2.324v-1.585h-.091a2.583 2.583 0 01-.983 1.233c-.455.31-1.01.466-1.665.466-.583 0-1.096-.133-1.54-.398a2.732 2.732 0 01-1.039-1.131c-.247-.488-.372-1.074-.375-1.755v-5.557h2.42v5.125c.004.515.142.922.415 1.221.273.3.638.449 1.096.449.292 0 .565-.066.819-.199a1.56 1.56 0 00.613-.602c.159-.265.237-.593.233-.983zm8.3 3.886c-.894 0-1.663-.189-2.307-.568a3.84 3.84 0 01-1.477-1.591c-.341-.678-.512-1.458-.512-2.341 0-.893.173-1.678.517-2.352a3.846 3.846 0 011.483-1.585c.641-.383 1.402-.574 2.285-.574.761 0 1.428.138 2 .415a3.335 3.335 0 011.357 1.165c.334.5.518 1.087.552 1.761h-2.284c-.065-.436-.235-.786-.512-1.051-.273-.269-.631-.404-1.074-.404-.375 0-.702.103-.983.307-.276.201-.492.495-.647.881-.156.386-.233.854-.233 1.403 0 .557.075 1.031.227 1.421.155.39.373.687.653.892.281.204.608.307.983.307.277 0 .525-.057.745-.171.223-.113.407-.278.551-.494.147-.22.244-.483.29-.79h2.284c-.038.667-.22 1.254-.546 1.761a3.294 3.294 0 01-1.335 1.182c-.568.284-1.241.426-2.017.426zm7.936-.005c-.557 0-1.053-.097-1.489-.29a2.404 2.404 0 01-1.034-.869c-.25-.387-.375-.868-.375-1.444 0-.484.089-.892.267-1.221.178-.33.421-.595.728-.796.306-.2.655-.352 1.045-.454a8.043 8.043 0 011.239-.216c.507-.053.916-.102 1.227-.148.311-.049.536-.121.676-.216a.473.473 0 00.21-.42v-.034c0-.36-.113-.638-.341-.835-.223-.197-.541-.296-.954-.296-.436 0-.782.097-1.04.29a1.327 1.327 0 00-.511.716l-2.239-.182a3.04 3.04 0 01.671-1.375c.333-.39.763-.689 1.289-.898.531-.212 1.144-.318 1.841-.318.485 0 .949.057 1.392.171.447.113.843.289 1.188.528.348.239.623.545.824.92.2.372.301.817.301 1.336V340h-2.296v-1.21h-.068c-.14.272-.328.513-.562.721a2.587 2.587 0 01-.847.483 3.49 3.49 0 01-1.142.171zm.693-1.671c.356 0 .671-.07.943-.21a1.67 1.67 0 00.642-.579c.156-.243.233-.518.233-.824v-.926c-.075.049-.18.094-.312.136a5.628 5.628 0 01-.438.108c-.163.03-.325.059-.488.085l-.443.063a3 3 0 00-.745.198 1.183 1.183 0 00-.494.37.895.895 0 00-.176.568c0 .329.119.581.358.756.242.17.549.255.92.255zm10.742-7.221v1.818h-5.256v-1.818h5.256zm-4.063-2.091h2.421v8.136c0 .224.034.398.102.523a.569.569 0 00.284.256c.125.049.269.073.432.073.113 0 .227-.009.341-.028l.261-.051.381 1.801a7.07 7.07 0 01-.512.131 4.065 4.065 0 01-.801.096c-.583.023-1.094-.055-1.534-.233a2.145 2.145 0 01-1.017-.829c-.242-.375-.362-.849-.358-1.421v-8.454zM299.989 340v-8.727h2.421V340h-2.421zm1.222-9.852c-.36 0-.669-.12-.926-.358a1.153 1.153 0 01-.387-.87c0-.333.129-.619.387-.858.257-.242.564-.363.92-.363.364 0 .673.121.926.363.258.239.387.525.387.858 0 .338-.129.627-.387.87-.253.238-.56.358-.92.358zm7.081 10.022c-.883 0-1.646-.187-2.29-.562a3.852 3.852 0 01-1.483-1.58c-.348-.678-.523-1.464-.523-2.358 0-.901.175-1.689.523-2.363a3.81 3.81 0 011.483-1.58c.644-.379 1.407-.568 2.29-.568.882 0 1.644.189 2.284.568.644.375 1.14.902 1.489 1.58.348.674.522 1.462.522 2.363 0 .894-.174 1.68-.522 2.358a3.84 3.84 0 01-1.489 1.58c-.64.375-1.402.562-2.284.562zm.011-1.875c.402 0 .737-.113 1.006-.34.269-.232.472-.546.608-.944.14-.397.21-.85.21-1.358 0-.507-.07-.96-.21-1.358-.136-.397-.339-.712-.608-.943-.269-.231-.604-.346-1.006-.346-.405 0-.746.115-1.022.346-.273.231-.48.546-.62.943a4.19 4.19 0 00-.204 1.358c0 .508.068.961.204 1.358.14.398.347.712.62.944.276.227.617.34 1.022.34zm8.279-3.34V340h-2.421v-8.727h2.307v1.539h.102c.193-.507.517-.909.972-1.204.454-.299 1.006-.449 1.653-.449.606 0 1.135.133 1.586.398.45.265.801.644 1.051 1.136.25.489.375 1.072.375 1.75V340h-2.421v-5.125c.004-.534-.132-.951-.409-1.25-.276-.303-.657-.455-1.142-.455-.326 0-.614.071-.864.211-.246.14-.439.344-.579.613-.136.265-.207.586-.21.961zm10.021 5.21c-.557 0-1.053-.097-1.489-.29a2.404 2.404 0 01-1.034-.869c-.25-.387-.375-.868-.375-1.444 0-.484.089-.892.267-1.221.178-.33.421-.595.728-.796.306-.2.655-.352 1.045-.454a8.043 8.043 0 011.239-.216c.507-.053.916-.102 1.227-.148.311-.049.536-.121.676-.216a.473.473 0 00.21-.42v-.034c0-.36-.113-.638-.341-.835-.223-.197-.541-.296-.954-.296-.436 0-.782.097-1.04.29a1.327 1.327 0 00-.511.716l-2.239-.182a3.04 3.04 0 01.671-1.375c.333-.39.763-.689 1.289-.898.531-.212 1.144-.318 1.841-.318.485 0 .949.057 1.392.171.447.113.843.289 1.188.528.348.239.623.545.824.92.2.372.301.817.301 1.336V340h-2.296v-1.21h-.068c-.14.272-.328.513-.562.721a2.587 2.587 0 01-.847.483 3.49 3.49 0 01-1.142.171zm.693-1.671c.356 0 .671-.07.943-.21a1.67 1.67 0 00.642-.579c.156-.243.233-.518.233-.824v-.926c-.075.049-.18.094-.312.136a5.628 5.628 0 01-.438.108c-.163.03-.325.059-.488.085l-.443.063a3 3 0 00-.745.198 1.183 1.183 0 00-.494.37.895.895 0 00-.176.568c0 .329.119.581.358.756.242.17.549.255.92.255zm8.52-10.13V340h-2.42v-11.636h2.42zm-91.235 20V360h-2.46v-11.636h2.46zm4.399 6.591V360h-2.42v-8.727h2.306v1.539h.103c.193-.507.517-.909.971-1.204.455-.299 1.006-.449 1.654-.449.606 0 1.134.133 1.585.398.451.265.801.644 1.051 1.136.25.489.375 1.072.375 1.75V360h-2.42v-5.125c.003-.534-.133-.951-.409-1.25-.277-.303-.658-.455-1.142-.455-.326 0-.614.071-.864.211-.246.14-.44.344-.58.613-.136.265-.206.586-.21.961zm14.794-1.194l-2.216.137a1.148 1.148 0 00-.244-.512 1.303 1.303 0 00-.494-.369 1.678 1.678 0 00-.722-.142c-.375 0-.691.08-.949.239-.257.155-.386.363-.386.625 0 .208.083.384.25.528.166.144.452.26.858.347l1.579.318c.849.174 1.481.454 1.898.841.417.386.625.894.625 1.522a2.38 2.38 0 01-.506 1.506c-.333.432-.791.769-1.375 1.011-.579.239-1.248.358-2.005.358-1.156 0-2.076-.24-2.762-.721a2.813 2.813 0 01-1.199-1.977l2.381-.125c.072.352.246.621.523.806.276.182.631.273 1.062.273.425 0 .765-.081 1.023-.244.261-.167.394-.381.398-.642a.668.668 0 00-.279-.54c-.181-.144-.462-.254-.841-.33l-1.511-.301c-.852-.17-1.487-.466-1.903-.886-.413-.421-.62-.956-.62-1.608 0-.561.152-1.044.455-1.449.307-.405.737-.718 1.29-.937.557-.22 1.208-.33 1.954-.33 1.103 0 1.97.233 2.603.699.636.466 1.007 1.1 1.113 1.903zm6.365-2.488v1.818h-5.255v-1.818h5.255zm-4.062-2.091h2.42v8.136c0 .224.034.398.102.523a.57.57 0 00.285.256c.125.049.268.073.431.073.114 0 .228-.009.341-.028l.262-.051.38 1.801a7.018 7.018 0 01-.511.131c-.22.053-.487.085-.801.096-.584.023-1.095-.055-1.534-.233a2.136 2.136 0 01-1.017-.829c-.243-.375-.362-.849-.358-1.421v-8.454zM271.716 360v-8.727h2.42V360h-2.42zm1.222-9.852c-.36 0-.669-.12-.927-.358a1.155 1.155 0 01-.386-.87c0-.333.129-.619.386-.858a1.3 1.3 0 01.921-.363c.363 0 .672.121.926.363.258.239.386.525.386.858 0 .338-.128.627-.386.87a1.299 1.299 0 01-.92.358zm7.779 1.125v1.818h-5.255v-1.818h5.255zm-4.062-2.091h2.42v8.136c0 .224.034.398.103.523a.565.565 0 00.284.256c.125.049.269.073.431.073.114 0 .228-.009.341-.028l.262-.051.38 1.801a7.018 7.018 0 01-.511.131c-.22.053-.487.085-.801.096-.583.023-1.095-.055-1.534-.233a2.136 2.136 0 01-1.017-.829c-.243-.375-.362-.849-.358-1.421v-8.454zm11.236 7.102v-5.011h2.42V360h-2.324v-1.585h-.091a2.577 2.577 0 01-.983 1.233c-.454.31-1.009.466-1.664.466-.584 0-1.097-.133-1.54-.398a2.734 2.734 0 01-1.04-1.131c-.246-.488-.371-1.074-.375-1.755v-5.557h2.42v5.125c.004.515.143.922.415 1.221.273.3.639.449 1.097.449.292 0 .564-.066.818-.199.254-.136.458-.337.614-.602.159-.265.236-.593.233-.983zm6.845 3.881c-.557 0-1.053-.097-1.489-.29a2.404 2.404 0 01-1.034-.869c-.25-.387-.375-.868-.375-1.444 0-.484.089-.892.267-1.221.178-.33.421-.595.727-.796.307-.2.656-.352 1.046-.454a8.052 8.052 0 011.238-.216c.508-.053.917-.102 1.228-.148.31-.049.536-.121.676-.216a.473.473 0 00.21-.42v-.034c0-.36-.114-.638-.341-.835-.223-.197-.541-.296-.954-.296-.436 0-.783.097-1.04.29a1.327 1.327 0 00-.511.716l-2.239-.182c.114-.53.337-.989.67-1.375.334-.39.764-.689 1.29-.898.53-.212 1.144-.318 1.841-.318.485 0 .949.057 1.392.171.447.113.843.289 1.188.528.348.239.623.545.823.92.201.372.302.817.302 1.336V360h-2.296v-1.21h-.068c-.14.272-.328.513-.563.721a2.582 2.582 0 01-.846.483 3.49 3.49 0 01-1.142.171zm.693-1.671c.356 0 .67-.07.943-.21a1.67 1.67 0 00.642-.579c.156-.243.233-.518.233-.824v-.926c-.076.049-.18.094-.312.136a5.628 5.628 0 01-.438.108 21.7 21.7 0 01-.488.085l-.444.063a3.003 3.003 0 00-.744.198 1.183 1.183 0 00-.494.37.895.895 0 00-.176.568c0 .329.119.581.358.756.242.17.549.255.92.255zm10.741-7.221v1.818h-5.255v-1.818h5.255zm-4.062-2.091h2.42v8.136c0 .224.035.398.103.523a.569.569 0 00.284.256c.125.049.269.073.432.073.113 0 .227-.009.341-.028l.261-.051.381 1.801a7.21 7.21 0 01-.512.131c-.22.053-.487.085-.801.096-.583.023-1.095-.055-1.534-.233a2.136 2.136 0 01-1.017-.829c-.243-.375-.362-.849-.358-1.421v-8.454zM307.747 360v-8.727h2.421V360h-2.421zm1.222-9.852c-.36 0-.669-.12-.926-.358a1.153 1.153 0 01-.387-.87c0-.333.129-.619.387-.858.257-.242.564-.363.92-.363.364 0 .672.121.926.363.258.239.387.525.387.858 0 .338-.129.627-.387.87-.254.238-.56.358-.92.358zm7.081 10.022c-.883 0-1.646-.187-2.29-.562a3.845 3.845 0 01-1.483-1.58c-.348-.678-.523-1.464-.523-2.358 0-.901.175-1.689.523-2.363a3.803 3.803 0 011.483-1.58c.644-.379 1.407-.568 2.29-.568.882 0 1.644.189 2.284.568a3.79 3.79 0 011.488 1.58c.349.674.523 1.462.523 2.363 0 .894-.174 1.68-.523 2.358a3.831 3.831 0 01-1.488 1.58c-.64.375-1.402.562-2.284.562zm.011-1.875c.402 0 .737-.113 1.006-.34.269-.232.471-.546.608-.944.14-.397.21-.85.21-1.358 0-.507-.07-.96-.21-1.358-.137-.397-.339-.712-.608-.943-.269-.231-.604-.346-1.006-.346-.405 0-.746.115-1.023.346-.272.231-.479.546-.619.943a4.19 4.19 0 00-.205 1.358c0 .508.069.961.205 1.358.14.398.347.712.619.944.277.227.618.34 1.023.34zm8.278-3.34V360h-2.42v-8.727h2.307v1.539h.102c.193-.507.517-.909.972-1.204.454-.299 1.005-.449 1.653-.449.606 0 1.135.133 1.585.398.451.265.801.644 1.051 1.136.25.489.375 1.072.375 1.75V360h-2.42v-5.125c.004-.534-.133-.951-.409-1.25-.277-.303-.657-.455-1.142-.455-.326 0-.614.071-.864.211-.246.14-.439.344-.579.613-.137.265-.207.586-.211.961zm14.795-1.194l-2.216.137a1.15 1.15 0 00-.245-.512 1.296 1.296 0 00-.494-.369 1.675 1.675 0 00-.722-.142c-.375 0-.691.08-.948.239-.258.155-.387.363-.387.625 0 .208.083.384.25.528.167.144.453.26.858.347l1.58.318c.848.174 1.481.454 1.897.841.417.386.625.894.625 1.522 0 .572-.168 1.074-.505 1.506-.334.432-.792.769-1.375 1.011-.58.239-1.248.358-2.006.358-1.155 0-2.076-.24-2.761-.721a2.81 2.81 0 01-1.199-1.977l2.38-.125c.072.352.247.621.523.806.277.182.631.273 1.063.273.424 0 .765-.081 1.022-.244.262-.167.394-.381.398-.642a.667.667 0 00-.278-.54c-.182-.144-.462-.254-.841-.33l-1.512-.301c-.852-.17-1.486-.466-1.903-.886-.413-.421-.619-.956-.619-1.608 0-.561.151-1.044.454-1.449.307-.405.737-.718 1.29-.937.557-.22 1.208-.33 1.955-.33 1.102 0 1.969.233 2.602.699.636.466 1.007 1.1 1.114 1.903z"/><path fill="#fff" fill-rule="evenodd" d="M272 294a3 3 0 00-3 3v16a3 3 0 003 3h6a3 3 0 003-3v-6a3 3 0 00-3-3h-3v4h2v4h-4v-14h4v2h4v-3a3 3 0 00-3-3h-6zm15 6v-2h4v3.764l-6.342 3.171a3 3 0 00-1.658 2.683V313a3 3 0 003 3h6a3 3 0 003-3v-3h-4v2h-4v-3.764l6.342-3.171a3 3 0 001.658-2.683V297a3 3 0 00-3-3h-6a3 3 0 00-3 3v3h4zm10-3a3 3 0 013-3h7v4h-6v5h6v4h-6v5h6v4h-7a3 3 0 01-3-3v-16zm12-3v22h4v-22h-4zm-18-15l9-4.5-9-4.5-9 4.5 9 4.5zm0 2l13-6.5-13-6.5-13 6.5 13 6.5z" clip-rule="evenodd"/><path fill="#fff" d="M301 276l2-1v6l-1 1-1-1v-5zm0 7l1-1 1 1-1.032 1-.968-1z"/><path fill="#fff" fill-rule="evenodd" d="M300 278v8.618l-9 4.5-9-4.5V278l2 1v6.382l7 3.5 7-3.5v-6.247l2-1.135z" clip-rule="evenodd"/><path fill="#fff" d="M116.822 88.182c0 1.269-.241 2.348-.722 3.239-.477.89-1.129 1.57-1.954 2.04-.822.465-1.747.698-2.773.698-1.034 0-1.962-.235-2.784-.705-.822-.47-1.472-1.15-1.949-2.04-.477-.89-.716-1.967-.716-3.232 0-1.27.239-2.349.716-3.239.477-.89 1.127-1.568 1.949-2.034.822-.47 1.75-.705 2.784-.705 1.026 0 1.951.235 2.773.705.825.466 1.477 1.144 1.954 2.034.481.89.722 1.97.722 3.239zm-2.495 0c0-.822-.123-1.515-.369-2.08-.242-.564-.585-.992-1.028-1.284-.443-.291-.962-.437-1.557-.437s-1.114.145-1.557.437c-.443.292-.788.72-1.034 1.284-.242.565-.364 1.258-.364 2.08 0 .822.122 1.515.364 2.08.246.564.591.992 1.034 1.284.443.291.962.437 1.557.437s1.114-.146 1.557-.438c.443-.291.786-.72 1.028-1.284.246-.564.369-1.257.369-2.08zm8.914-2.91v1.819h-5.256v-1.818h5.256zm-4.063-2.09h2.421v8.136c0 .224.034.398.102.523a.569.569 0 00.284.256c.125.049.269.074.432.074.114 0 .227-.01.341-.029l.261-.051.381 1.801a6.219 6.219 0 01-.512.13 3.984 3.984 0 01-.801.097c-.583.023-1.094-.055-1.534-.233a2.141 2.141 0 01-1.017-.83c-.242-.374-.362-.848-.358-1.42v-8.454zm8.247 5.772V94h-2.42V82.364h2.352v4.448h.103c.196-.515.515-.918.954-1.21.439-.295.991-.443 1.653-.443.607 0 1.135.133 1.586.398.454.261.807.638 1.057 1.13.253.49.378 1.074.375 1.756V94h-2.421v-5.125c.004-.538-.133-.956-.409-1.256-.273-.299-.655-.448-1.148-.448-.329 0-.621.07-.875.21-.25.14-.447.344-.591.613-.14.266-.212.585-.216.96zm11.542 5.217c-.898 0-1.671-.182-2.319-.546a3.726 3.726 0 01-1.488-1.557c-.349-.674-.523-1.471-.523-2.392 0-.898.174-1.686.523-2.364a3.87 3.87 0 011.471-1.585c.637-.379 1.383-.568 2.239-.568.576 0 1.112.093 1.608.278.5.182.936.457 1.307.824.375.368.666.83.875 1.387.208.553.312 1.2.312 1.943v.665h-7.369v-1.5h5.091c0-.349-.076-.657-.227-.927a1.633 1.633 0 00-.631-.63 1.802 1.802 0 00-.926-.233c-.368 0-.693.085-.977.256-.281.166-.5.392-.66.676-.159.28-.24.593-.244.937v1.426c0 .432.08.805.239 1.12.163.314.392.556.687.727.296.17.646.256 1.051.256.269 0 .516-.038.739-.114a1.55 1.55 0 00.574-.34c.159-.152.28-.338.364-.558l2.238.148a3.049 3.049 0 01-.699 1.41c-.348.397-.799.707-1.352.93-.549.22-1.184.33-1.903.33zm5.585-.171v-8.727h2.346v1.523h.091c.159-.542.426-.951.801-1.228.375-.28.807-.42 1.296-.42a3.457 3.457 0 01.761.085v2.148a3.1 3.1 0 00-.471-.091 4.164 4.164 0 00-.551-.04 1.94 1.94 0 00-.955.233 1.72 1.72 0 00-.659.636 1.84 1.84 0 00-.239.944V94h-2.42zm18.011-7.875a2.552 2.552 0 00-.335-.733 2.275 2.275 0 00-1.233-.892 2.959 2.959 0 00-.869-.12c-.595 0-1.118.148-1.568.444-.447.295-.796.725-1.046 1.29-.25.56-.375 1.246-.375 2.056 0 .811.123 1.5.369 2.069.247.568.595 1.001 1.046 1.3.451.296.983.444 1.596.444.557 0 1.033-.099 1.427-.296.397-.2.7-.483.909-.846.212-.364.318-.794.318-1.29l.5.074h-3v-1.852h4.869v1.466c0 1.022-.216 1.901-.648 2.636a4.402 4.402 0 01-1.784 1.693c-.757.394-1.625.591-2.602.591-1.091 0-2.049-.24-2.875-.722-.826-.484-1.47-1.172-1.932-2.062-.458-.894-.687-1.954-.687-3.182 0-.943.136-1.784.409-2.522a5.382 5.382 0 011.159-1.887 5.01 5.01 0 011.733-1.176 5.614 5.614 0 012.142-.404c.659 0 1.273.097 1.841.29.568.19 1.072.459 1.511.807.443.349.805.763 1.085 1.245a4.2 4.2 0 01.54 1.579h-2.5zm8.354 8.046c-.883 0-1.646-.188-2.29-.563a3.852 3.852 0 01-1.483-1.58c-.348-.678-.523-1.464-.523-2.358 0-.901.175-1.689.523-2.363a3.81 3.81 0 011.483-1.58c.644-.379 1.407-.568 2.29-.568.882 0 1.644.19 2.284.568.644.375 1.14.902 1.489 1.58.348.674.522 1.462.522 2.364 0 .893-.174 1.68-.522 2.357a3.84 3.84 0 01-1.489 1.58c-.64.375-1.402.563-2.284.563zm.011-1.876c.402 0 .737-.113 1.006-.34.269-.231.472-.546.608-.944.14-.397.21-.85.21-1.358 0-.507-.07-.96-.21-1.358-.136-.397-.339-.712-.608-.943-.269-.23-.604-.346-1.006-.346-.405 0-.746.115-1.022.346-.273.231-.48.546-.62.944a4.18 4.18 0 00-.204 1.357c0 .508.068.96.204 1.358.14.398.347.713.62.944.276.227.617.34 1.022.34zm13.698-7.022L181.575 94h-2.728l-3.051-8.727h2.557l1.812 6.244h.091l1.807-6.244h2.563zm5.88 0v1.818h-5.255v-1.818h5.255zm-4.062-2.091h2.42v8.136c0 .224.034.398.103.523a.565.565 0 00.284.256c.125.049.269.074.432.074.113 0 .227-.01.34-.029l.262-.051.38 1.801a6.176 6.176 0 01-.511.13c-.22.054-.487.086-.801.097-.583.023-1.095-.055-1.534-.233a2.132 2.132 0 01-1.017-.83c-.243-.374-.362-.848-.358-1.42v-8.454zm7.054 10.966c-.375 0-.697-.133-.966-.398a1.327 1.327 0 01-.398-.966c0-.371.133-.69.398-.955.269-.265.591-.397.966-.397.364 0 .682.132.954.397.273.266.41.584.41.955 0 .25-.065.48-.194.688a1.468 1.468 0 01-.494.494c-.205.121-.43.182-.676.182z"/><path fill="#fff" fill-rule="evenodd" d="M130 51a3 3 0 013-3h6a3 3 0 013 3v3h-4v-2h-4v14h4v-4h-2v-4h6v9a3 3 0 01-3 3h-6a3 3 0 01-3-3V51zm28 0a3 3 0 013-3h6a3 3 0 013 3v3h-4v-2h-4v14h4v-4h-2v-4h6v9a3 3 0 01-3 3h-6a3 3 0 01-3-3V51zm-10 3v-2h4v3.764l-6.342 3.17A3.003 3.003 0 00144 61.618V67a3 3 0 003 3h6a3 3 0 003-3v-3h-4v2h-4v-3.764l6.342-3.17A3.003 3.003 0 00156 56.382V51a3 3 0 00-3-3h-6a3 3 0 00-3 3v3h4zm7-32h-6v5h1a7.002 7.002 0 00-6.71 5H137v11h26V32h-6.29a7.002 7.002 0 00-6.71-5h1v-2h4v-3zm-5 7a5 5 0 00-5 5h-6v7h22v-7h-6a5 5 0 00-5-5zm0 4a2 2 0 00-2 2v5h4v-5a2 2 0 00-2-2zm7 4h2v3h-2v-3zm-11 3v-4h-2v4h2zm10-4v4h-2v-4h2zm-13 1h-2v3h2v-3z" clip-rule="evenodd"/><path fill="#fff" d="M123.339 328.364V340h-2.46v-11.636h2.46zm4.399 6.591V340h-2.421v-8.727h2.307v1.539h.103c.193-.507.517-.909.971-1.204.455-.299 1.006-.449 1.654-.449.606 0 1.134.133 1.585.398.451.265.801.644 1.051 1.136.25.489.375 1.072.375 1.75V340h-2.421v-5.125c.004-.534-.132-.951-.409-1.25-.276-.303-.657-.455-1.142-.455-.325 0-.613.071-.863.211-.247.14-.44.344-.58.613-.136.265-.206.586-.21.961zm12.175-3.682v1.818h-5.256v-1.818h5.256zm-4.063-2.091h2.421v8.136c0 .224.034.398.102.523a.569.569 0 00.284.256c.125.049.269.073.432.073.113 0 .227-.009.341-.028l.261-.051.381 1.801a7.07 7.07 0 01-.512.131 4.065 4.065 0 01-.801.096c-.583.023-1.094-.055-1.534-.233a2.145 2.145 0 01-1.017-.829c-.242-.375-.362-.849-.358-1.421v-8.454zm9.523 10.988c-.898 0-1.671-.181-2.318-.545a3.734 3.734 0 01-1.489-1.557c-.348-.674-.523-1.471-.523-2.392 0-.898.175-1.685.523-2.364a3.866 3.866 0 011.472-1.585c.636-.379 1.382-.568 2.238-.568.576 0 1.112.093 1.608.279.5.181.936.456 1.307.823.375.368.667.83.875 1.387.208.553.313 1.2.313 1.943v.665h-7.37v-1.5h5.091c0-.349-.076-.658-.227-.926a1.629 1.629 0 00-.631-.631 1.802 1.802 0 00-.926-.233c-.367 0-.693.085-.977.256-.281.166-.5.392-.659.676-.159.28-.241.593-.245.937v1.426c0 .432.08.805.239 1.12.163.314.392.557.688.727.295.17.645.256 1.051.256.269 0 .515-.038.738-.114.224-.076.415-.189.574-.341.159-.151.28-.337.364-.557l2.238.148a3.049 3.049 0 01-.698 1.409c-.349.398-.8.708-1.353.932-.549.22-1.183.329-1.903.329zm5.585-.17v-8.727h2.347v1.522h.091c.159-.541.426-.95.801-1.227.375-.28.807-.42 1.295-.42.121 0 .252.007.392.022.14.016.263.036.37.063v2.148a3.117 3.117 0 00-.472-.091 4.164 4.164 0 00-.551-.04c-.356 0-.674.078-.955.233a1.72 1.72 0 00-.659.636 1.838 1.838 0 00-.238.943V340h-2.421zm8.967-5.045V340h-2.42v-8.727h2.307v1.539h.102c.193-.507.517-.909.972-1.204.454-.299 1.005-.449 1.653-.449.606 0 1.135.133 1.585.398.451.265.801.644 1.051 1.136.25.489.375 1.072.375 1.75V340h-2.42v-5.125c.004-.534-.133-.951-.409-1.25-.277-.303-.657-.455-1.142-.455-.326 0-.614.071-.864.211-.246.14-.439.344-.579.613-.137.265-.207.586-.211.961zm10.022 5.21c-.557 0-1.053-.097-1.489-.29a2.399 2.399 0 01-1.034-.869c-.25-.387-.375-.868-.375-1.444 0-.484.089-.892.267-1.221.178-.33.421-.595.727-.796.307-.2.656-.352 1.046-.454a8.052 8.052 0 011.238-.216c.508-.053.917-.102 1.228-.148.31-.049.536-.121.676-.216a.473.473 0 00.21-.42v-.034c0-.36-.114-.638-.341-.835-.223-.197-.542-.296-.954-.296-.436 0-.783.097-1.04.29a1.334 1.334 0 00-.512.716l-2.238-.182c.113-.53.337-.989.67-1.375.334-.39.764-.689 1.29-.898.53-.212 1.144-.318 1.841-.318.485 0 .949.057 1.392.171.447.113.843.289 1.188.528.348.239.623.545.823.92.201.372.302.817.302 1.336V340h-2.296v-1.21h-.068c-.14.272-.328.513-.563.721a2.582 2.582 0 01-.846.483 3.49 3.49 0 01-1.142.171zm.693-1.671c.356 0 .67-.07.943-.21a1.67 1.67 0 00.642-.579 1.5 1.5 0 00.233-.824v-.926c-.076.049-.18.094-.312.136a5.628 5.628 0 01-.438.108c-.163.03-.326.059-.489.085l-.443.063a3.003 3.003 0 00-.744.198 1.183 1.183 0 00-.494.37.895.895 0 00-.176.568c0 .329.119.581.357.756.243.17.55.255.921.255zm8.52-10.13V340h-2.421v-11.636h2.421zm-68.026 25.818c0 1.269-.24 2.348-.721 3.238-.478.891-1.129 1.571-1.955 2.04-.822.466-1.746.699-2.773.699-1.034 0-1.962-.235-2.784-.704-.822-.47-1.471-1.15-1.949-2.04-.477-.89-.715-1.968-.715-3.233 0-1.269.238-2.349.715-3.239.478-.89 1.127-1.568 1.949-2.034.822-.47 1.75-.704 2.784-.704 1.027 0 1.951.234 2.773.704.826.466 1.477 1.144 1.955 2.034.481.89.721 1.97.721 3.239zm-2.494 0c0-.822-.123-1.515-.369-2.08-.243-.564-.586-.992-1.029-1.284-.443-.291-.962-.437-1.557-.437-.594 0-1.113.146-1.556.437-.444.292-.788.72-1.035 1.284-.242.565-.363 1.258-.363 2.08 0 .822.121 1.515.363 2.079.247.565.591.993 1.035 1.284.443.292.962.438 1.556.438.595 0 1.114-.146 1.557-.438.443-.291.786-.719 1.029-1.284.246-.564.369-1.257.369-2.079zm4.271 5.818v-8.727h2.347v1.522h.091c.159-.541.426-.95.801-1.227.375-.28.807-.42 1.295-.42.122 0 .252.007.392.022a2.8 2.8 0 01.37.063v2.148a3.117 3.117 0 00-.472-.091 4.153 4.153 0 00-.551-.04c-.356 0-.674.078-.955.233a1.72 1.72 0 00-.659.636 1.838 1.838 0 00-.238.943V360h-2.421zm10.073 3.398c-.784 0-1.457-.106-2.017-.318-.557-.213-1-.499-1.33-.858a2.612 2.612 0 01-.642-1.199l2.239-.301c.068.159.176.308.324.448.147.144.342.262.585.353.246.091.545.136.897.136.527 0 .961-.125 1.302-.375.344-.25.517-.661.517-1.233v-1.596h-.103a2.305 2.305 0 01-.477.687 2.399 2.399 0 01-.818.528c-.333.137-.731.205-1.193.205a3.583 3.583 0 01-1.79-.455c-.534-.306-.96-.774-1.278-1.403-.315-.633-.472-1.432-.472-2.398 0-.988.161-1.814.483-2.477.322-.663.75-1.159 1.284-1.489a3.323 3.323 0 011.767-.494c.489 0 .898.083 1.227.25.33.163.595.368.796.614.204.242.362.481.471.716h.091v-1.466h2.404v8.812c0 .728-.182 1.335-.546 1.824-.363.493-.867.864-1.511 1.114-.64.25-1.377.375-2.21.375zm.051-5.341c.39 0 .719-.097.988-.29.273-.197.481-.477.625-.841.148-.367.222-.807.222-1.318s-.072-.955-.216-1.33c-.144-.378-.352-.672-.625-.88-.273-.209-.604-.313-.994-.313-.398 0-.733.108-1.006.324-.273.212-.479.508-.619.886a3.78 3.78 0 00-.21 1.313c0 .504.07.939.21 1.307.144.363.35.646.619.846.273.197.608.296 1.006.296zm8.63 2.108c-.556 0-1.053-.097-1.488-.29a2.399 2.399 0 01-1.034-.869c-.25-.387-.375-.868-.375-1.444 0-.484.089-.892.267-1.221.178-.33.42-.595.727-.796.307-.2.655-.352 1.046-.454a8.01 8.01 0 011.238-.216c.508-.053.917-.102 1.227-.148.311-.049.536-.121.677-.216a.473.473 0 00.21-.42v-.034c0-.36-.114-.638-.341-.835-.224-.197-.542-.296-.955-.296-.435 0-.782.097-1.039.29a1.334 1.334 0 00-.512.716l-2.238-.182c.113-.53.337-.989.67-1.375.333-.39.763-.689 1.29-.898.53-.212 1.144-.318 1.841-.318.485 0 .949.057 1.392.171a3.61 3.61 0 011.187.528c.349.239.623.545.824.92.201.372.301.817.301 1.336V360h-2.295v-1.21h-.068a2.48 2.48 0 01-.563.721 2.592 2.592 0 01-.846.483c-.33.114-.711.171-1.143.171zm.694-1.671c.356 0 .67-.07.943-.21a1.67 1.67 0 00.642-.579 1.5 1.5 0 00.233-.824v-.926c-.076.049-.18.094-.313.136a5.486 5.486 0 01-.437.108c-.163.03-.326.059-.489.085l-.443.063a3.003 3.003 0 00-.744.198 1.193 1.193 0 00-.495.37.901.901 0 00-.176.568c0 .329.12.581.358.756.243.17.549.255.921.255zm8.52-3.539V360h-2.421v-8.727h2.307v1.539h.102c.193-.507.517-.909.972-1.204.454-.299 1.005-.449 1.653-.449.606 0 1.135.133 1.585.398.451.265.802.644 1.052 1.136.25.489.375 1.072.375 1.75V360h-2.421v-5.125c.004-.534-.132-.951-.409-1.25-.277-.303-.657-.455-1.142-.455-.326 0-.614.071-.864.211-.246.14-.439.344-.579.613-.137.265-.207.586-.21.961zm7.532 5.045v-8.727h2.421V360h-2.421zm1.222-9.852c-.36 0-.669-.12-.926-.358a1.153 1.153 0 01-.387-.87c0-.333.129-.619.387-.858.257-.242.564-.363.92-.363.364 0 .672.121.926.363.258.239.387.525.387.858 0 .338-.129.627-.387.87-.254.238-.56.358-.92.358zm3.092 9.852v-1.443l4.273-5.29v-.062h-4.125v-1.932h7.04v1.574l-4.012 5.159v.062h4.159V360h-7.335zm11.675.165c-.557 0-1.053-.097-1.489-.29a2.404 2.404 0 01-1.034-.869c-.25-.387-.375-.868-.375-1.444 0-.484.089-.892.267-1.221.178-.33.421-.595.727-.796.307-.2.656-.352 1.046-.454a8.043 8.043 0 011.239-.216c.507-.053.916-.102 1.227-.148.31-.049.536-.121.676-.216a.473.473 0 00.21-.42v-.034c0-.36-.113-.638-.341-.835-.223-.197-.541-.296-.954-.296-.436 0-.782.097-1.04.29a1.327 1.327 0 00-.511.716l-2.239-.182c.114-.53.337-.989.67-1.375.334-.39.764-.689 1.29-.898.53-.212 1.144-.318 1.841-.318.485 0 .949.057 1.392.171.447.113.843.289 1.188.528.348.239.623.545.823.92.201.372.302.817.302 1.336V360h-2.296v-1.21h-.068c-.14.272-.328.513-.563.721a2.582 2.582 0 01-.846.483 3.49 3.49 0 01-1.142.171zm.693-1.671c.356 0 .67-.07.943-.21a1.67 1.67 0 00.642-.579c.156-.243.233-.518.233-.824v-.926c-.076.049-.18.094-.312.136a5.628 5.628 0 01-.438.108 21.7 21.7 0 01-.488.085l-.444.063a3.003 3.003 0 00-.744.198 1.183 1.183 0 00-.494.37.895.895 0 00-.176.568c0 .329.119.581.358.756.242.17.549.255.92.255zm10.742-7.221v1.818h-5.256v-1.818h5.256zm-4.063-2.091h2.42v8.136c0 .224.035.398.103.523a.569.569 0 00.284.256c.125.049.269.073.432.073.113 0 .227-.009.341-.028l.261-.051.381 1.801a7.21 7.21 0 01-.512.131 4.065 4.065 0 01-.801.096c-.583.023-1.095-.055-1.534-.233a2.136 2.136 0 01-1.017-.829c-.242-.375-.362-.849-.358-1.421v-8.454zM177.411 360v-8.727h2.421V360h-2.421zm1.222-9.852c-.36 0-.669-.12-.926-.358a1.153 1.153 0 01-.387-.87c0-.333.129-.619.387-.858.257-.242.564-.363.92-.363.364 0 .672.121.926.363.258.239.387.525.387.858 0 .338-.129.627-.387.87-.254.238-.56.358-.92.358zm7.081 10.022c-.883 0-1.646-.187-2.29-.562a3.852 3.852 0 01-1.483-1.58c-.348-.678-.523-1.464-.523-2.358 0-.901.175-1.689.523-2.363a3.81 3.81 0 011.483-1.58c.644-.379 1.407-.568 2.29-.568.882 0 1.644.189 2.284.568.644.375 1.14.902 1.489 1.58.348.674.522 1.462.522 2.363 0 .894-.174 1.68-.522 2.358a3.84 3.84 0 01-1.489 1.58c-.64.375-1.402.562-2.284.562zm.011-1.875c.402 0 .737-.113 1.006-.34.269-.232.471-.546.608-.944.14-.397.21-.85.21-1.358 0-.507-.07-.96-.21-1.358-.137-.397-.339-.712-.608-.943-.269-.231-.604-.346-1.006-.346-.405 0-.746.115-1.023.346-.272.231-.479.546-.619.943a4.19 4.19 0 00-.204 1.358c0 .508.068.961.204 1.358.14.398.347.712.619.944.277.227.618.34 1.023.34zm8.279-3.34V360h-2.421v-8.727h2.307v1.539h.102c.193-.507.517-.909.972-1.204.454-.299 1.005-.449 1.653-.449.606 0 1.135.133 1.585.398.451.265.802.644 1.052 1.136.25.489.375 1.072.375 1.75V360h-2.421v-5.125c.004-.534-.132-.951-.409-1.25-.277-.303-.657-.455-1.142-.455-.326 0-.614.071-.864.211-.246.14-.439.344-.579.613-.137.265-.207.586-.21.961z"/><path fill="#fff" fill-rule="evenodd" d="M130 297a3 3 0 013-3h6a3 3 0 013 3v3h-4v-2h-4v14h4v-4h-2v-4h6v9a3 3 0 01-3 3h-6a3 3 0 01-3-3v-16zm18 1v2h-4v-3a3 3 0 013-3h6a3 3 0 013 3v5.382a3 3 0 01-1.658 2.683L148 308.236V312h4v-2h4v3a3 3 0 01-3 3h-6a3 3 0 01-3-3v-5.382a3 3 0 011.658-2.683l6.342-3.171V298h-4zm13-4a3 3 0 00-3 3v16a3 3 0 003 3h6a3 3 0 003-3v-16a3 3 0 00-3-3h-6zm1 18v-14h4v14h-4zm-12.001-38a2 2 0 10.001-3.999A2 2 0 00150 274zm4-2c0 .806-.238 1.557-.649 2.185a5.002 5.002 0 013.649 4.815v4h-14v-4a5.002 5.002 0 013.649-4.815 4 4 0 117.351-2.185zm-6 4h4a3 3 0 013 3v2h-10v-2a3 3 0 013-3zm-11.919 8a1 1 0 00-.781 1.625l2.4 3a1 1 0 00.781.375h22.039a1 1 0 00.781-.375l2.4-3a1 1 0 00-.781-1.625H136.08zm3.919-6.402l1.303-2.258-1.732-1-1.535 2.66h-.036v6h2v-5.402z" clip-rule="evenodd"/><path fill="#fff" d="M341.591 214.438h-2.489a2.427 2.427 0 00-.278-.858c-.14-.254-.32-.47-.54-.648a2.362 2.362 0 00-.761-.409 2.904 2.904 0 00-.926-.142c-.603 0-1.127.149-1.574.449-.447.295-.794.727-1.04 1.295-.246.564-.369 1.25-.369 2.057 0 .829.123 1.526.369 2.091.25.564.598.99 1.045 1.278.447.288.964.432 1.552.432.329 0 .634-.044.914-.131a2.42 2.42 0 00.756-.38c.22-.171.402-.377.545-.62a2.41 2.41 0 00.307-.829l2.489.011a4.493 4.493 0 01-.483 1.546 4.661 4.661 0 01-1.028 1.323c-.428.387-.94.694-1.535.921-.59.223-1.259.335-2.005.335-1.038 0-1.966-.235-2.784-.704-.815-.47-1.459-1.15-1.932-2.04-.47-.89-.705-1.968-.705-3.233 0-1.269.239-2.349.716-3.239.478-.89 1.125-1.568 1.943-2.034.819-.47 1.739-.704 2.762-.704.674 0 1.299.094 1.875.284a4.765 4.765 0 011.54.829c.447.36.81.801 1.09 1.324.285.523.466 1.121.546 1.796zM343.31 222v-8.727h2.42V222h-2.42zm1.221-9.852c-.36 0-.668-.12-.926-.358a1.155 1.155 0 01-.386-.87c0-.333.129-.619.386-.858a1.3 1.3 0 01.921-.363c.363 0 .672.121.926.363.257.239.386.525.386.858 0 .338-.129.627-.386.87a1.3 1.3 0 01-.921.358zm7.78 1.125v1.818h-5.256v-1.818h5.256zm-4.062-2.091h2.42v8.136c0 .224.034.398.102.523a.569.569 0 00.284.256c.125.049.269.073.432.073.114 0 .227-.009.341-.028l.261-.051.381 1.801a7.018 7.018 0 01-.511.131c-.22.053-.487.085-.801.096-.584.023-1.095-.055-1.534-.233a2.136 2.136 0 01-1.017-.829c-.243-.375-.362-.849-.358-1.421v-8.454zM353.888 222v-8.727h2.42V222h-2.42zm1.221-9.852a1.32 1.32 0 01-.926-.358 1.155 1.155 0 01-.386-.87c0-.333.129-.619.386-.858a1.3 1.3 0 01.921-.363c.363 0 .672.121.926.363.257.239.386.525.386.858 0 .338-.129.627-.386.87a1.3 1.3 0 01-.921.358zm3.093 9.852v-1.443l4.272-5.29v-.062h-4.125v-1.932h7.04v1.574l-4.011 5.159v.062h4.159V222h-7.335zm12.913.17c-.898 0-1.67-.181-2.318-.545a3.734 3.734 0 01-1.489-1.557c-.348-.674-.522-1.471-.522-2.392 0-.898.174-1.685.522-2.364a3.866 3.866 0 011.472-1.585c.636-.379 1.382-.568 2.238-.568.576 0 1.112.093 1.608.279.5.181.936.456 1.307.823.375.368.667.83.875 1.387.209.553.313 1.2.313 1.943v.665h-7.37v-1.5h5.091c0-.349-.075-.658-.227-.926a1.622 1.622 0 00-.631-.631 1.799 1.799 0 00-.926-.233c-.367 0-.693.085-.977.256-.28.166-.5.392-.659.676-.159.28-.241.593-.244.937v1.426c0 .432.079.805.238 1.12.163.314.392.557.688.727.295.17.646.256 1.051.256.269 0 .515-.038.738-.114a1.474 1.474 0 00.938-.898l2.239.148a3.06 3.06 0 01-.699 1.409c-.349.398-.8.708-1.353.932-.549.22-1.183.329-1.903.329zm8.006-5.215V222H376.7v-8.727h2.307v1.539h.102c.194-.507.517-.909.972-1.204.455-.299 1.006-.449 1.653-.449.606 0 1.135.133 1.586.398.45.265.801.644 1.051 1.136.25.489.375 1.072.375 1.75V222h-2.421v-5.125c.004-.534-.132-.951-.409-1.25-.276-.303-.657-.455-1.142-.455-.326 0-.613.071-.863.211-.247.14-.44.344-.58.613-.136.265-.206.586-.21.961z"/><path fill="#fff" fill-rule="evenodd" d="M339 179a3 3 0 013-3h6a3 3 0 013 3v3h-4v-2h-4v14h4v-4h-2v-4h6v9a3 3 0 01-3 3h-6a3 3 0 01-3-3v-16zm18 1v2h-4v-3a3 3 0 013-3h6a3 3 0 013 3v5.382a3 3 0 01-1.658 2.683L357 190.236V194h4v-2h4v3a3 3 0 01-3 3h-6a3 3 0 01-3-3v-5.382a3 3 0 011.658-2.683l6.342-3.171V180h-4zm13-4a3 3 0 00-3 3v16a3 3 0 003 3h6a3 3 0 003-3v-5h-4v4h-4v-14h4v4h4v-5a3 3 0 00-3-3h-6z" clip-rule="evenodd"/><path fill="#fff" d="M372 160.9c0-2.3-1.5-4.2-3.6-4.7.4-.6.6-1.4.6-2.2 0-2.2-1.8-4-4-4s-4 1.8-4 4c0 .7.2 1.3.5 1.8-1.4-1.1-3.5-1.1-4.9 0 .3-.5.5-1.2.5-1.8 0-2.2-1.8-4-4-4s-4 1.8-4 4c0 .8.2 1.5.6 2.2-2.2.5-3.7 2.5-3.7 4.7v4.1h6.1c0 .3-.1.6-.1.9v4.1h14v-4.1c0-.3 0-.6-.1-.9h6.1v-4.1zm-7-8.9c1.1 0 2 .9 2 2s-.9 2-2 2-2-.9-2-2 .9-2 2-2zm-7.8 6.1c.1-.3.3-.5.5-.6.3-.3.8-.5 1.3-.5s1 .2 1.3.5c.2.2.4.4.5.6.1.3.2.6.2.9 0 1-.7 1.8-1.6 2-.3.1-.6.1-.8 0-.9-.2-1.6-1-1.6-2 0-.3.1-.6.2-.9zM353 152c1.1 0 2 .9 2 2s-.9 2-2 2-2-.9-2-2 .9-2 2-2zm0 11h-5v-2.1c0-1.6 1.3-2.9 2.9-2.9h4.2c-.1.3-.1.7-.1 1 0 .8.2 1.5.6 2.2-1 .3-2 .9-2.6 1.8zm11 5h-10v-2.1c0-.4.1-.8.3-1.2.1-.3.3-.6.6-.9.6-.5 1.3-.8 2.1-.8h4.2c.8 0 1.5.3 2.1.8.3.3.4.5.6.9.2.4.3.8.3 1.2v2.1h-.2zm6-5h-5c-.7-.9-1.6-1.5-2.7-1.8.4-.6.6-1.4.6-2.2 0-.3 0-.7-.1-1h4.2c1.6 0 2.9 1.3 2.9 2.9v2.1h.1zM35.011 222v-11.636h4.66c.855 0 1.57.127 2.142.38.572.254 1.001.606 1.29 1.057.287.447.431.962.431 1.546 0 .454-.09.854-.273 1.198a2.332 2.332 0 01-.75.841 3.07 3.07 0 01-1.08.461v.113c.444.019.859.144 1.245.375.39.231.707.555.949.972.242.413.364.905.364 1.477 0 .618-.154 1.169-.46 1.654-.304.481-.753.861-1.347 1.142-.595.28-1.328.42-2.199.42h-4.972zm2.46-2.011h2.006c.686 0 1.186-.131 1.5-.392.315-.266.472-.618.472-1.057 0-.322-.078-.606-.233-.852a1.575 1.575 0 00-.665-.58c-.284-.14-.623-.21-1.017-.21h-2.062v3.091zm0-4.756h1.825c.337 0 .636-.059.897-.176a1.49 1.49 0 00.625-.512c.156-.219.233-.483.233-.789 0-.421-.15-.76-.449-1.017-.295-.258-.716-.387-1.261-.387h-1.87v2.881zm13.67 3.051v-5.011h2.42V222h-2.324v-1.585h-.09a2.585 2.585 0 01-.984 1.233c-.454.31-1.01.466-1.664.466-.584 0-1.097-.133-1.54-.398a2.734 2.734 0 01-1.04-1.131c-.246-.488-.371-1.074-.375-1.755v-5.557h2.42v5.125c.004.515.142.922.415 1.221.273.3.639.449 1.097.449.291 0 .564-.066.818-.199.254-.136.458-.337.614-.602.159-.265.236-.593.233-.983zm11.617-2.523l-2.215.137a1.15 1.15 0 00-.245-.512 1.303 1.303 0 00-.494-.369 1.672 1.672 0 00-.722-.142c-.375 0-.69.08-.949.239-.257.155-.386.363-.386.625 0 .208.084.384.25.528.167.144.453.26.858.347l1.58.318c.848.174 1.48.454 1.897.841.417.386.625.894.625 1.522 0 .572-.168 1.074-.505 1.506-.334.432-.792.769-1.375 1.011-.58.239-1.248.358-2.006.358-1.155 0-2.076-.24-2.761-.721a2.815 2.815 0 01-1.2-1.977l2.382-.125c.071.352.246.621.522.806.277.182.63.273 1.063.273.424 0 .765-.081 1.022-.244.262-.167.394-.381.398-.642a.667.667 0 00-.278-.54c-.182-.144-.462-.254-.841-.33l-1.511-.301c-.853-.17-1.487-.466-1.904-.886-.413-.421-.62-.956-.62-1.608 0-.561.152-1.044.455-1.449.307-.405.737-.718 1.29-.937.557-.22 1.208-.33 1.955-.33 1.102 0 1.97.233 2.602.699.636.466 1.008 1.1 1.113 1.903zM64.481 222v-8.727h2.421V222h-2.42zm1.222-9.852c-.36 0-.668-.12-.926-.358a1.152 1.152 0 01-.386-.87c0-.333.128-.619.386-.858.258-.242.564-.363.92-.363.364 0 .673.121.927.363.257.239.386.525.386.858 0 .338-.129.627-.386.87a1.299 1.299 0 01-.92.358zm5.558 4.807V222h-2.42v-8.727h2.307v1.539h.102c.193-.507.517-.909.972-1.204.454-.299 1.005-.449 1.653-.449.606 0 1.135.133 1.585.398.451.265.801.644 1.051 1.136.25.489.375 1.072.375 1.75V222h-2.42v-5.125c.004-.534-.133-.951-.41-1.25-.276-.303-.656-.455-1.141-.455-.326 0-.614.071-.864.211-.246.14-.44.344-.58.613-.136.265-.206.586-.21.961zm11.51 5.215c-.897 0-1.67-.181-2.318-.545a3.734 3.734 0 01-1.489-1.557c-.348-.674-.522-1.471-.522-2.392 0-.898.174-1.685.523-2.364a3.858 3.858 0 011.471-1.585c.636-.379 1.383-.568 2.239-.568.576 0 1.112.093 1.608.279.5.181.935.456 1.306.823.376.368.667.83.876 1.387.208.553.312 1.2.312 1.943v.665h-7.37v-1.5H84.5c0-.349-.076-.658-.228-.926a1.62 1.62 0 00-.63-.631 1.805 1.805 0 00-.927-.233c-.367 0-.693.085-.977.256-.28.166-.5.392-.659.676-.159.28-.24.593-.244.937v1.426c0 .432.08.805.238 1.12.163.314.392.557.688.727.295.17.646.256 1.051.256.269 0 .515-.038.739-.114a1.472 1.472 0 00.937-.898l2.239.148a3.06 3.06 0 01-.699 1.409c-.349.398-.8.708-1.352.932-.55.22-1.184.329-1.904.329zm12.847-6.409l-2.216.137c-.038-.19-.12-.36-.244-.512a1.3 1.3 0 00-.495-.369c-.2-.095-.44-.142-.721-.142-.375 0-.691.08-.95.239-.257.155-.386.363-.386.625 0 .208.084.384.25.528.167.144.453.26.859.347l1.579.318c.849.174 1.481.454 1.898.841.416.386.625.894.625 1.522a2.38 2.38 0 01-.506 1.506c-.333.432-.792.769-1.375 1.011-.58.239-1.248.358-2.006.358-1.155 0-2.075-.24-2.761-.721a2.813 2.813 0 01-1.199-1.977l2.38-.125c.073.352.247.621.524.806.276.182.63.273 1.062.273.424 0 .765-.081 1.023-.244.261-.167.394-.381.397-.642a.665.665 0 00-.278-.54c-.182-.144-.462-.254-.84-.33l-1.512-.301c-.852-.17-1.487-.466-1.904-.886-.412-.421-.619-.956-.619-1.608 0-.561.152-1.044.455-1.449.306-.405.736-.718 1.29-.937.556-.22 1.208-.33 1.954-.33 1.102 0 1.97.233 2.602.699.637.466 1.008 1.1 1.114 1.903zm8.984 0l-2.216.137a1.148 1.148 0 00-.244-.512 1.303 1.303 0 00-.494-.369 1.678 1.678 0 00-.722-.142c-.375 0-.691.08-.949.239-.257.155-.386.363-.386.625 0 .208.083.384.25.528.167.144.453.26.858.347l1.579.318c.849.174 1.481.454 1.898.841.417.386.625.894.625 1.522 0 .572-.168 1.074-.506 1.506-.333.432-.791.769-1.375 1.011-.579.239-1.248.358-2.005.358-1.156 0-2.076-.24-2.762-.721a2.817 2.817 0 01-1.199-1.977l2.381-.125c.072.352.246.621.523.806.276.182.631.273 1.062.273.425 0 .766-.081 1.023-.244.262-.167.394-.381.398-.642a.668.668 0 00-.279-.54c-.181-.144-.462-.254-.84-.33l-1.512-.301c-.852-.17-1.486-.466-1.903-.886-.413-.421-.62-.956-.62-1.608 0-.561.152-1.044.455-1.449.307-.405.737-.718 1.29-.937.557-.22 1.208-.33 1.954-.33 1.103 0 1.97.233 2.603.699.636.466 1.007 1.1 1.113 1.903z"/><path fill="#fff" fill-rule="evenodd" d="M53 176a3 3 0 00-3 3v16a3 3 0 003 3h6a3 3 0 003-3v-9h-6v4h2v4h-4v-14h4v2h4v-3a3 3 0 00-3-3h-6zm15 6v-2h4v3.764l-6.342 3.171A3 3 0 0064 189.618V195a3 3 0 003 3h6a3 3 0 003-3v-3h-4v2h-4v-3.764l6.342-3.171A3 3 0 0076 184.382V179a3 3 0 00-3-3h-6a3 3 0 00-3 3v3h4zm14 2.982V180h4v3.956a1 1 0 01-.991 1l-3.009.026zm0 4.026V194h4v-3.98a1 1 0 00-.996-1L82 189.008zM80.243 198H78v-22h9a3 3 0 013 3v4.956c0 1.139-.381 2.19-1.024 3.032A4.974 4.974 0 0190 190.02V195a3 3 0 01-3 3h-6.757zM73 152h-6v2h6v-2zm2 2v-2a2 2 0 00-2-2h-6a2 2 0 00-2 2v2h-5v13a2 2 0 002 2h16a2 2 0 002-2v-13h-5zm3 5.512V156H62v3.512l8 2.4 8-2.4zM62 161.6l8 2.4 8-2.4v5.4H62v-5.4z" clip-rule="evenodd"/><path stroke="#14397D" stroke-width="2" d="M180.5 165.5h-29V120m29 91h-29v45.5m96-91h29V120m-29 91h29v45.5m-104-68.5H129m169.5 0H255"/></svg>