<svg xmlns="http://www.w3.org/2000/svg" width="420" height="354" fill="none" viewBox="0 0 420 354">
    <rect width="75" height="75" x="76" y="279" fill="#0C64A9" rx="16"/>
    <rect width="100" height="100" x="320" y="116" fill="#0C64A9" rx="16"/>
    <rect width="100" height="100" x="67" y="10" fill="#0C64A9" rx="16"/>
    <rect width="45" height="45" x="282" fill="#0C64A9" rx="10"/>
    <rect width="63" height="63" x="285" y="273" fill="#0C64A9" rx="10"/>
    <rect width="37" height="37" x="91.027" y="197" fill="#0C64A9" rx="4"/>
    <path fill="#FF8F00" d="M374.711 83.194l13.372 1.703-8.16 10.729-5.212-12.432zM49.711 81.194l13.372 1.703-8.16 10.729-5.212-12.432z"/>
    <path fill="#FFF9C4" d="M208.681 1.25l8.528 10.44-13.304 2.166 4.776-12.605zM383.681 291.251l8.528 10.439-13.304 2.166 4.776-12.605z"/>
    <path fill="#FFD037" d="M278.003 339.543l-9.655 9.407-3.319-13.064 12.974 3.657z"/>
    <path fill="#8CC440" d="M35.709 327.251l8.528 10.439-13.305 2.166 4.777-12.605zM387.681 202.251l8.528 10.439-13.304 2.166 4.776-12.605z"/>
    <circle cx="119.027" cy="19" r="4" fill="#8CC440"/>
    <circle cx="330" cy="330" r="4" fill="#8CC440"/>
    <circle cx="406" cy="151" r="4" fill="#8CC440"/>
    <circle cx="18.027" cy="220" r="4" fill="#FF8F00"/>
    <circle cx="313.027" cy="40" r="4" fill="#FF8F00"/>
    <circle cx="152.027" cy="309" r="4" fill="#FF8F00"/>
    <path fill="#0C64A9" d="M150.961 162.264H271.038V244.29700000000003H150.961z"/>
    <circle cx="106" cy="115" r="23" fill="#0C64A9" stroke="#2AB7F6" stroke-width="2"/>
    <path fill="#fff" d="M114.654 117.244c.252-.126.354-.433.228-.685-.126-.252-.433-.355-.685-.229l-.915.458c-.106.053-.205.118-.296.193l-1.441 1.201c-.216.181-.245.503-.065.719.181.217.503.246.719.066l1.441-1.201c.03-.025.063-.047.099-.065l.915-.457z"/>
    <path fill="#fff" fill-rule="evenodd" d="M102.1 119.851h-2.994c0-.282-.228-.511-.51-.511H95c-.552 0-1 .448-1 1V126c0 .552.448 1 1 1h3.596c.282 0 .51-.229.51-.511h2.429l.227.221c.191.186.446.29.712.29h7.443c.277 0 .541-.112.734-.311l7.432-7.672c.912-.942.08-2.5-1.21-2.265-.253.046-.488.163-.677.339l-6.263 5.824h-2.137l-.944-1.532h2.26c.846 0 1.532-.686 1.532-1.532s-.686-1.532-1.532-1.532h-4.581c-.216 0-.427.069-.602.197l-1.829 1.335zm15.25-1.545c.221-.228.019-.607-.294-.55-.062.012-.119.04-.164.083l-6.264 5.824c-.189.175-.437.273-.695.273h-2.137c-.354 0-.683-.184-.869-.485l-.944-1.532c-.419-.681.07-1.557.869-1.557h2.26c.282 0 .511-.229.511-.511 0-.282-.229-.511-.511-.511h-4.581l-1.828 1.336c-.175.127-.386.196-.603.196h-2.994v4.596h2.429c.266 0 .522.104.712.29l.227.221h7.443l7.433-7.673zm-22.329 2.056h3.064v5.617h-3.064v-5.617z" clip-rule="evenodd"/>
    <path fill="#fff" d="M109.704 103c-1.333 0-2.612.609-3.447 1.57-.835-.961-2.114-1.57-3.447-1.57-2.359 0-4.212 1.818-4.212 4.132 0 2.833 2.591 5.143 6.518 8.644l.031.027 1.11.984 1.111-.992.01-.008c1.745-1.553 3.228-2.872 4.338-4.106h-1.45c-1.08 1.124-2.431 2.303-3.932 3.499l-.077.075-.076-.075c-4.009-3.244-6.562-5.876-6.562-8.048 0-1.502 1.532-3.111 3.064-3.111 1.179 0 2.658.503 3.064 1.532h1.021c.398-1.029 1.884-1.532 3.064-1.532 1.532 0 3.064 1.609 3.064 3.111 0 .465-.129.961-.367 1.485h1.145c.159-.485.243-.976.243-1.485 0-2.314-1.854-4.132-4.213-4.132z"/>
    <path fill="#fff" d="M111.169 109.638l-.935-1.868c-.37-.74-1.426-.737-1.791.005l-1.42 2.885-1.17-2.194c-.374-.702-1.379-.707-1.76-.009l-.644 1.181h-.766c-.282 0-.511.229-.511.511 0 .282.229.511.511.511h.696c.359 0 .69-.193.868-.504l.734-1.284 1.148 2.297c.368.737 1.42.737 1.789 0l1.403-2.807.935 1.765c.173.328.513.533.884.533h5.841c.282 0 .51-.229.51-.511 0-.282-.228-.511-.51-.511h-5.812z"/>
    <circle cx="80" cy="211" r="23" fill="#0C64A9" stroke="#2AB7F6" stroke-width="2"/>
    <path fill="#fff" fill-rule="evenodd" d="M76.128 200.021h6.638c.564 0 1.021.458 1.021 1.022v.51h-8.68v-.51c0-.564.457-1.022 1.02-1.022zm9.702 1.532h-1.022v-.51c0-1.129-.914-2.043-2.042-2.043h-6.638c-1.128 0-2.043.914-2.043 2.043v.51h-1.021c-1.692 0-3.064 1.372-3.064 3.064v12.766c0 1.692 1.372 3.064 3.064 3.064h1.021v.51c0 1.129.915 2.043 2.043 2.043h6.638c1.128 0 2.042-.914 2.042-2.043v-.51h1.022c1.692 0 3.064-1.372 3.064-3.064v-1.532h1.02c.283 0 .511-.229.511-.511v-2.553c0-.282-.228-.51-.51-.51h-1.021v-1.532h1.02c.283 0 .511-.229.511-.511v-3.064c0-.282-.228-.51-.51-.51h-1.021v-2.043c0-1.692-1.372-3.064-3.064-3.064zm-10.724 19.404v-.51h8.681v.51c0 .564-.457 1.022-1.021 1.022h-6.638c-.564 0-1.022-.458-1.022-1.022zm10.724-18.383H73.064c-1.128 0-2.043.915-2.043 2.043v12.766c0 1.128.915 2.043 2.043 2.043H85.83c1.128 0 2.042-.915 2.042-2.043V204.617c0-1.128-.914-2.043-2.042-2.043zm3.064 10.724v1.532h.51v-1.532h-.51zm.51-3.575h-.51v-2.042h.51v2.042zm-15.83-4.595H85.32v11.744H73.574v-11.744zm-1.02 12.766v-13.788H86.34v13.788H72.553z" clip-rule="evenodd"/>
    <path fill="#fff" fill-rule="evenodd" d="M80.53 209.213h3.259c.282 0 .51.228.51.511 0 .282-.228.51-.51.51h-3.064l-.533 1.068c-.194.387-.751.373-.925-.024l-1.35-3.086-1.379 1.838c-.096.128-.248.204-.408.204h-1.022c-.282 0-.51-.228-.51-.51 0-.283.228-.511.51-.511h.766l1.739-2.318c.242-.323.745-.251.886.127l1.205 3.212.37-.739c.086-.173.263-.282.456-.282zm-5.422 3.574c-.282 0-.51.229-.51.511 0 .282.228.511.51.511h5.617c.282 0 .511-.229.511-.511 0-.282-.229-.511-.51-.511h-5.618zm7.15.511c0-.282.228-.511.51-.511h1.021c.282 0 .51.229.51.511 0 .282-.228.511-.51.511h-1.021c-.282 0-.51-.229-.51-.511zm-5.618 1.532c-.282 0-.51.229-.51.511 0 .282.228.51.51.51h4.085c.282 0 .511-.228.511-.51 0-.282-.229-.511-.51-.511H76.64z" clip-rule="evenodd"/>
    <circle cx="343" cy="212" r="23" fill="#0C64A9" stroke="#2AB7F6" stroke-width="2"/>
    <path fill="#fff" d="M337.126 222.468c0 .846-.686 1.532-1.532 1.532s-1.532-.686-1.532-1.532.686-1.531 1.532-1.531 1.532.685 1.532 1.531zM344.275 222.468c0 .846-.686 1.532-1.532 1.532s-1.532-.686-1.532-1.532.686-1.531 1.532-1.531 1.532.685 1.532 1.531z"/>
    <path fill="#fff" fill-rule="evenodd" d="M337.128 201.021h4.085c.282 0 .51.229.51.511v.511h1.022v-.511c0-.846-.686-1.532-1.532-1.532h-4.085c-.846 0-1.532.686-1.532 1.532v.511h1.021v-.511c0-.282.229-.511.511-.511zm-.511 2.043h-1.021v2.553h-1.532c-1.692 0-3.064 1.372-3.064 3.064v10.723c0 1.336.855 2.473 2.048 2.892.024-.354.12-.689.273-.988-.761-.298-1.3-1.038-1.3-1.904v-10.723c0-1.128.915-2.043 2.043-2.043h10.213c1.128 0 2.042.915 2.042 2.043v10.723c0 .866-.539 1.606-1.3 1.904.154.299.25.634.273.988 1.193-.419 2.048-1.556 2.048-2.892v-10.723c0-1.692-1.371-3.064-3.063-3.064h-1.532v-2.553h-1.022v2.553h-5.106v-2.553zm7.66 19.404c0-.392-.148-.75-.39-1.021h-2.284c-.243.271-.39.629-.39 1.021h3.064zm-6.341-1.021h2.468c-.137.313-.213.658-.213 1.021h-2.042c0-.363-.076-.708-.213-1.021zm-3.482 0c-.243.271-.39.629-.39 1.021h3.064c0-.392-.148-.75-.39-1.021h-2.284z" clip-rule="evenodd"/>
    <path fill="#fff" d="M334.574 210.213c0-.282.229-.511.511-.511h8.17c.282 0 .511.229.511.511 0 .282-.229.51-.511.51h-8.17c-.282 0-.511-.228-.511-.51zM334.574 216.341c0-.282.229-.511.511-.511h8.17c.282 0 .511.229.511.511 0 .282-.229.51-.511.51h-8.17c-.282 0-.511-.228-.511-.51zM334.574 213.276c0-.282.229-.51.511-.51h8.17c.282 0 .511.228.511.51 0 .282-.229.511-.511.511h-8.17c-.282 0-.511-.229-.511-.511zM351.426 214.042c0-.423.343-.766.766-.766s.766.343.766.766v5.107c0 .423-.343.766-.766.766s-.766-.343-.766-.766v-5.107z"/>
    <path fill="#fff" fill-rule="evenodd" d="M348.871 202.553h1.532v7.149c-.392 0-.75.147-1.021.39v-6.518h-.511v-1.021zm4.596 9.191h-2.553c-.282 0-.511.229-.511.511v8.681c0 .282.229.51.511.51h2.553c.282 0 .51-.228.51-.51v-8.681c0-.282-.228-.511-.51-.511zm-4.085 9.192c0 .667.426 1.234 1.021 1.444V224h1.021v-1.532h1.532V224h1.021v-1.62c.595-.21 1.022-.777 1.022-1.444v-8.681c0-.846-.686-1.532-1.532-1.532h-2.553c-.846 0-1.532.686-1.532 1.532v8.681z" clip-rule="evenodd"/>
    <circle cx="394" cy="268" r="23" fill="#0C64A9" stroke="#2AB7F6" stroke-width="2"/>
    <path fill="#fff" d="M404 272v-2l-8.5-5v-5.5c0-.83-.67-1.5-1.5-1.5s-1.5.67-1.5 1.5v5.5l-8.5 5v2l8.5-2.5v5.5l-2.5 1.5v1.5l4-1 4 1v-1.5l-2.5-1.5v-5.5l8.5 2.5z"/>
    <circle cx="24" cy="268" r="23" fill="#0C64A9" stroke="#2AB7F6" stroke-width="2"/>
    <path fill="#fff" d="M16 262h18v-2H16c-1.1 0-2 .9-2 2v11h-2v3h14v-3H16v-11zm19 2h-6c-.55 0-1 .45-1 1v10c0 .55.45 1 1 1h6c.55 0 1-.45 1-1v-10c0-.55-.45-1-1-1zm-1 9h-4v-7h4v7z"/>
    <circle cx="318" cy="295" r="23" fill="#0C64A9" stroke="#2AB7F6" stroke-width="2"/>
    <path fill="#fff" d="M326 285h-16c-1.1 0-2 .9-2 2v18l4-4h14c1.1 0 2-.9 2-2v-12c0-1.1-.9-2-2-2zm0 14h-14l-2 2v-14h16v12zm-13-7h2v2h-2v-2zm4 0h2v2h-2v-2zm4 0h2v2h-2v-2z"/>
    <circle cx="216" cy="298" r="23" fill="#0C64A9" stroke="#2AB7F6" stroke-width="2"/>
    <path fill="#fff" d="M223.35 296.04c-.68-3.45-3.71-6.04-7.35-6.04-2.89 0-5.4 1.64-6.65 4.04-3.01.32-5.35 2.87-5.35 5.96 0 3.31 2.69 6 6 6h13c2.76 0 5-2.24 5-5 0-2.64-2.05-4.78-4.65-4.96zM223 304h-13c-2.21 0-4-1.79-4-4 0-2.05 1.53-3.76 3.56-3.97l1.07-.11.5-.95c.95-1.83 2.81-2.97 4.87-2.97 2.62 0 4.88 1.86 5.39 4.43l.3 1.5 1.53.11c1.56.1 2.78 1.41 2.78 2.96 0 1.65-1.35 3-3 3zm-11-5h2.55v3h2.9v-3H220l-4-4-4 4z"/>
    <circle cx="119" cy="295" r="23" fill="#0C64A9" stroke="#2AB7F6" stroke-width="2"/>
    <path fill="#fff" d="M119 283h-10.5c-2.49 0-4.5 2.01-4.5 4.5v12c0 2.49 2.01 4.5 4.5 4.5l-1.5 1.5v1.5h1.5l3-3.045 3 .045v-7H106v-12h16v4h2v-2c0-2.49-2.51-4-5-4zm-10.5 15c.825 0 1.5.675 1.5 1.5s-.675 1.5-1.5 1.5-1.5-.675-1.5-1.5.675-1.5 1.5-1.5zm23.355-6.51c-.21-.6-.78-.99-1.455-.99h-10.785c-.69 0-1.245.39-1.47.99L116 297.655l.015 8.265c0 .57.465 1.08 1.035 1.08h.93c.57 0 1.02-.57 1.02-1.14V304h12v1.86c0 .57.465 1.14 1.035 1.14h.915c.57 0 1.035-.51 1.035-1.08l.015-2.055v-6.21l-2.145-6.165zm-12.24.51H130.4l1.545 4.5H118.07l1.545-4.5zm-.615 9c-.825 0-1.5-.675-1.5-1.5s.675-1.5 1.5-1.5 1.5.675 1.5 1.5-.675 1.5-1.5 1.5zm12 0c-.825 0-1.5-.675-1.5-1.5s.675-1.5 1.5-1.5 1.5.675 1.5 1.5-.675 1.5-1.5 1.5zM201.604 251.86c0-.668.532-1.204 1.198-1.204h17.269c.667 0 1.203.535 1.203 1.204 0 .667-.536 1.206-1.203 1.206h-17.269c-.663-.002-1.198-.54-1.198-1.206zm69.44-7.66H151.338v-80.184h119.706V244.2zm23.803 8.25c0-1.784-1.442-3.229-3.219-3.229v-.23h-17.076c.871-.39 1.482-1.263 1.482-2.286v-85.2c0-1.384-1.115-2.505-2.497-2.505H148.842c-1.373 0-2.493 1.121-2.493 2.505v85.199c0 1.016.61 1.896 1.48 2.286h-16.585v.224c-1.776-.002-3.217 1.447-3.217 3.232 0 1.786 1.441 3.234 3.217 3.234h160.384c1.779-.002 3.219-1.447 3.219-3.23z"/>
    <circle cx="321" cy="116" r="23" fill="#0C64A9" stroke="#2AB7F6" stroke-width="2"/>
    <path fill="#fff" fill-rule="evenodd" d="M319.5 126.5c.552 0 1 .448 1 1v.5h1v-.5c0-.552.448-1 1-1H333v-20h-2v1h1v18h-9.5c-.364 0-.706.097-1 .268V109h-1v16.768c-.294-.171-.636-.268-1-.268H310v-18h1v-1h-2v20h10.5z" clip-rule="evenodd"/>
    <path fill="#fff" fill-rule="evenodd" d="M311 124.5h8.5c.552 0 1 .448 1 1v1.5h1v-21c0-1.105-.895-2-2-2H311v20.5zm8.5-19.5H312v18.5h8.5V106c0-.552-.448-1-1-1z" clip-rule="evenodd"/>
    <path fill="#fff" fill-rule="evenodd" d="M331 124.5h-8.5c-.552 0-1 .448-1 1v1.5h-1v-21c0-1.105.895-2 2-2h8.5v20.5zm-8.5-19.5h7.5v18.5h-8.5V106c0-.552.448-1 1-1z" clip-rule="evenodd"/>
    <path fill="#fff" fill-rule="evenodd" d="M327 109.5l2 1V104h-4v6.5l2-1zm-1-.618l1-.5 1 .5V105h-2v3.882z" clip-rule="evenodd"/>
    <path fill="#fff" d="M323 121c0-.276.224-.5.5-.5h4.5c.276 0 .5.224.5.5s-.224.5-.5.5h-4.5c-.276 0-.5-.224-.5-.5zM313.5 121c0-.276.224-.5.5-.5h4.5c.276 0 .5.224.5.5s-.224.5-.5.5H314c-.276 0-.5-.224-.5-.5zM323 119c0-.276.224-.5.5-.5h4.5c.276 0 .5.224.5.5s-.224.5-.5.5h-4.5c-.276 0-.5-.224-.5-.5zM313.5 119c0-.276.224-.5.5-.5h4.5c.276 0 .5.224.5.5s-.224.5-.5.5H314c-.276 0-.5-.224-.5-.5zM323 117c0-.276.224-.5.5-.5h4.5c.276 0 .5.224.5.5s-.224.5-.5.5h-4.5c-.276 0-.5-.224-.5-.5zM313.5 117c0-.276.224-.5.5-.5h4.5c.276 0 .5.224.5.5s-.224.5-.5.5H314c-.276 0-.5-.224-.5-.5zM323 115c0-.276.224-.5.5-.5h4.5c.276 0 .5.224.5.5s-.224.5-.5.5h-4.5c-.276 0-.5-.224-.5-.5zM313.5 115c0-.276.224-.5.5-.5h4.5c.276 0 .5.224.5.5s-.224.5-.5.5H314c-.276 0-.5-.224-.5-.5zM313.5 111c0-.276.224-.5.5-.5h4.5c.276 0 .5.224.5.5s-.224.5-.5.5H314c-.276 0-.5-.224-.5-.5zM315 109c0-.276.224-.5.5-.5h1.5c.276 0 .5.224.5.5s-.224.5-.5.5h-1.5c-.276 0-.5-.224-.5-.5z"/>
    <circle cx="213" cy="112" r="23" fill="#0C64A9" stroke="#2AB7F6" stroke-width="2"/>
    <path fill="#fff" stroke="#0C64A9" stroke-width=".75" d="M221.304 107.575h.652l-.328-.564c-1.196-2.056-3.103-3.652-5.399-4.438l-.907-.31.456.843c.705 1.304 1.246 2.715 1.623 4.187l.072.282h3.831zm-7.996-5.34l-.308-.446-.308.446c-1.018 1.471-1.816 3.102-2.343 4.857l-.145.483H215.796l-.145-.483c-.527-1.755-1.325-3.386-2.343-4.857zm-9.96 12.256l.071.284h4.772l-.051-.42c-.095-.785-.165-1.561-.165-2.355s.07-1.57.165-2.355l.051-.42h-4.772l-.071.284c-.198.792-.323 1.627-.323 2.491 0 .864.125 1.699.323 2.491zm1.348 1.934h-.65l.325.563c1.197 2.07 3.105 3.653 5.4 4.439l.907.31-.456-.843c-.705-1.304-1.246-2.715-1.623-4.187l-.072-.282h-3.831zm3.54-8.85h.291l.072-.282c.377-1.472.918-2.883 1.623-4.187l.456-.843-.907.31c-2.295.786-4.203 2.369-5.4 4.439l-.325.563h4.19zm4.456 14.19l.308.446.308-.446c1.018-1.471 1.816-3.102 2.343-4.857l.145-.483H210.204l.145.483c.527 1.755 1.325 3.386 2.343 4.857zm3.116-6.99h.327l.045-.324c.108-.799.195-1.61.195-2.451s-.087-1.664-.196-2.451l-.044-.324h-6.27l-.044.324c-.109.787-.196 1.61-.196 2.451s.087 1.652.195 2.451l.045.324h5.943zm-.03 6.119l-.456.843.907-.31c2.296-.786 4.203-2.382 5.399-4.438l.328-.564H217.473l-.072.282c-.377 1.472-.918 2.883-1.623 4.187zm2.082-6.539l-.051.42h4.772l.071-.284c.198-.792.323-1.627.323-2.491 0-.864-.125-1.699-.323-2.491l-.071-.284h-4.772l.051.42c.095.785.165 1.561.165 2.355s-.07 1.57-.165 2.355zM201.375 112c0-6.417 5.197-11.625 11.613-11.625 6.429 0 11.637 5.208 11.637 11.625s-5.208 11.625-11.637 11.625c-6.416 0-11.613-5.208-11.613-11.625z"/>
    <circle cx="270" cy="50" r="23" fill="#0C64A9" stroke="#2AB7F6" stroke-width="2"/>
    <path fill="#fff" d="M265 46.07l1.43 1.43c.91-.91 2.18-1.48 3.57-1.48 1.39 0 2.66.57 3.57 1.48l1.43-1.43c-1.28-1.28-3.05-2.07-5-2.07-1.95 0-3.72.79-5 2.07zm5-6.07c-3.02 0-5.76 1.23-7.75 3.21l1.41 1.41C265.28 43 267.53 42 270 42c2.47 0 4.72 1 6.34 2.62l1.41-1.41C275.76 41.23 273.02 40 270 40zm2.86 9.01l-5.72-.01c-.63 0-1.14.51-1.14 1.14v9.71c0 .63.51 1.14 1.14 1.14h5.71c.63 0 1.14-.51 1.14-1.14v-9.71c.01-.63-.5-1.13-1.13-1.13zM273 59h-6v-8h6v8z"/>
    <circle cx="156" cy="51" r="23" fill="#0C64A9" stroke="#2AB7F6" stroke-width="2"/>
    <path fill="#fff" fill-rule="evenodd" d="M167.489 60.958h-22.468v1.021h22.468v-1.021zM144 59.937V63h24.511v-3.063H144zM165.447 40.021h-18.383v2.043h18.383V40.02zM146.043 39v4.085h20.426V39h-20.426z" clip-rule="evenodd"/>
    <path fill="#fff" fill-rule="evenodd" d="M154.722 52.276h-4.595v7.66h4.595v-7.66zm-5.617-1.021v9.702h6.639v-9.702h-6.639zM162.385 52.276h-3.575v3.064h3.575v-3.064zm-4.596-1.021v5.106h5.617v-5.106h-5.617zM145.021 46.149l2.043-3.064h-1.021L144 46.149h1.021zm6.129 0c0 1.128.915 2.042 2.043 2.042.951 0 1.751-.65 1.978-1.531h-1.98v-1.022h4.086v.588c.04 1.092.938 1.965 2.041 1.965.951 0 1.751-.65 1.978-1.531h-1.976v-1.022h4.085v.58c.037 1.096.937 1.973 2.042 1.973.952 0 1.751-.65 1.978-1.531h-1.98v-1.022h1.705l-1.702-2.553h1.021l2.043 3.064h-.001c0 1.692-1.372 3.064-3.064 3.064-1.518 0-2.779-1.104-3.022-2.553h-.086c-.243 1.449-1.503 2.553-3.021 2.553s-2.779-1.104-3.022-2.553h-.082c-.243 1.449-1.503 2.553-3.021 2.553s-2.779-1.104-3.022-2.553h-.086c-.243 1.449-1.503 2.553-3.021 2.553-1.692 0-3.064-1.372-3.064-3.064h1.021c0 1.128.915 2.042 2.043 2.042.952 0 1.751-.65 1.978-1.531h-1.98v-1.022h4.086v.51h.002zm-.512-3.064h-1.021v1.532h1.021v-1.532zm5.108 0h1.021v1.532h-1.021v-1.532zm7.146 0h-1.021v1.532h1.021v-1.532z" clip-rule="evenodd"/>
    <path fill="#fff" d="M146.043 48.702h1.021v11.234h-1.021V48.702zM165.445 48.702h1.022v11.234h-1.022V48.702z"/>
    <path stroke="#2AB7F6" stroke-dasharray="4 4" d="M213 135.5V161"/>
    <path fill="#06AAF5" d="M60.681 165.251l8.528 10.439-13.304 2.166 4.776-12.605z"/>
    <path fill="#fff" d="M197.511 188.727h-4.216V212h4.216v-23.273zm11.998 23.614c5.113 0 8.363-3.602 8.363-9 0-5.409-3.25-9.023-8.363-9.023-5.114 0-8.364 3.614-8.364 9.023 0 5.398 3.25 9 8.364 9zm.022-3.296c-2.829 0-4.216-2.522-4.216-5.715 0-3.194 1.387-5.75 4.216-5.75 2.784 0 4.171 2.556 4.171 5.75 0 3.193-1.387 5.715-4.171 5.715zm9.71-16.784h7.194V212h4.181v-19.739h7.194v-3.534h-18.569v3.534zM167.636 215.131h3.597V225h2.091v-9.869h3.596v-1.767h-9.284v1.767zm13.581 10.039c2.034 0 3.432-.994 3.796-2.511l-1.921-.216c-.278.739-.96 1.125-1.846 1.125-1.33 0-2.21-.875-2.228-2.369h6.08v-.631c0-3.062-1.841-4.409-3.989-4.409-2.5 0-4.13 1.835-4.13 4.529 0 2.738 1.608 4.482 4.238 4.482zm-2.193-5.358c.063-1.113.887-2.051 2.114-2.051 1.182 0 1.977.864 1.988 2.051h-4.102zm11.621 5.358c2.193 0 3.591-1.301 3.739-3.153h-1.966c-.177.938-.853 1.477-1.756 1.477-1.284 0-2.114-1.074-2.114-2.858 0-1.761.847-2.818 2.114-2.818.989 0 1.597.637 1.756 1.477h1.966c-.143-1.892-1.62-3.136-3.75-3.136-2.557 0-4.171 1.847-4.171 4.511 0 2.642 1.574 4.5 4.182 4.5zm7.484-5.284c0-1.261.784-1.988 1.887-1.988 1.079 0 1.716.687 1.716 1.863V225h2.056v-5.557c0-2.108-1.193-3.284-3.005-3.284-1.341 0-2.194.608-2.597 1.597h-.102v-4.392h-2.012V225h2.057v-5.114zm9.813 0c0-1.261.761-1.988 1.846-1.988 1.063 0 1.699.699 1.699 1.863V225h2.057v-5.557c.006-2.091-1.187-3.284-2.989-3.284-1.306 0-2.204.625-2.602 1.597h-.102v-1.483h-1.966V225h2.057v-5.114zm11.5 5.284c2.557 0 4.182-1.801 4.182-4.5 0-2.704-1.625-4.511-4.182-4.511-2.557 0-4.182 1.807-4.182 4.511 0 2.699 1.625 4.5 4.182 4.5zm.011-1.647c-1.415 0-2.108-1.262-2.108-2.858 0-1.597.693-2.875 2.108-2.875 1.392 0 2.085 1.278 2.085 2.875 0 1.596-.693 2.858-2.085 2.858zm7.973-10.159h-2.057V225h2.057v-11.636zm5.922 11.806c2.557 0 4.182-1.801 4.182-4.5 0-2.704-1.625-4.511-4.182-4.511-2.557 0-4.182 1.807-4.182 4.511 0 2.699 1.625 4.5 4.182 4.5zm.011-1.647c-1.414 0-2.108-1.262-2.108-2.858 0-1.597.694-2.875 2.108-2.875 1.392 0 2.086 1.278 2.086 2.875 0 1.596-.694 2.858-2.086 2.858zm9.712 4.897c2.358 0 4.097-1.079 4.097-3.278v-8.869h-2.029v1.443h-.113c-.313-.631-.966-1.557-2.506-1.557-2.017 0-3.602 1.58-3.602 4.449 0 2.847 1.585 4.267 3.596 4.267 1.495 0 2.193-.801 2.512-1.443h.102v1.653c0 1.25-.852 1.779-2.023 1.779-1.239 0-1.784-.586-2.034-1.063l-1.852.449c.375 1.188 1.63 2.17 3.852 2.17zm.017-5.159c-1.358 0-2.074-1.056-2.074-2.664 0-1.586.705-2.75 2.074-2.75 1.324 0 2.051 1.096 2.051 2.75 0 1.664-.738 2.664-2.051 2.664zm7.466 4.995c1.602 0 2.528-.83 3.023-2.199l3.505-9.773-2.198-.011-2.018 6.591h-.09l-2.012-6.591h-2.182l3.165 8.909-.176.471c-.392.966-.983 1.04-1.881.785l-.477 1.596c.278.119.778.222 1.341.222z"/>
    <path stroke="#2AB7F6" stroke-dasharray="4 4" d="M129.5 116h61M237 116h61M230.5 97l25-28.5M196 97l-25-28.5M147 211.5h-44M320 211.5h-44M39.5 251L64 227.5M44 280l52 11.5m47 4h50m47 1.5h55m45.5-5.5L374 280m6-31l-22-18.5m-143.5 44v-19m-83.5 19l21-19m155 19l-27-19m-188-64l10-54m236 52l-12.5-50M310 95l-24.5-27m-168 27L143 70m36.5-20.5h67"/>
</svg>
