<svg xmlns="http://www.w3.org/2000/svg" width="480" height="337" fill="none"><path fill="#8CC440" d="M0 0h480v337H0z"/><path fill="#78B02C" d="M95.057 53.818h15.17L126.25 92.91h.682l16.022-39.09h15.171V112h-11.932V74.13h-.483l-15.057 37.586h-8.125l-15.057-37.727h-.483V112H95.057V53.818zm85.504 0V112H168.26V53.818h12.301zm41.683 16.733c-.227-2.292-1.203-4.072-2.926-5.34-1.723-1.27-4.062-1.904-7.017-1.904-2.008 0-3.703.284-5.085.852-1.383.55-2.443 1.316-3.182 2.301-.72.985-1.08 2.103-1.08 3.353-.038 1.041.18 1.95.654 2.727.492.776 1.165 1.449 2.017 2.017.852.549 1.837 1.032 2.954 1.449 1.118.397 2.311.738 3.58 1.022l5.227 1.25c2.538.569 4.868 1.326 6.989 2.273 2.121.947 3.958 2.112 5.511 3.494a14.527 14.527 0 013.608 4.887c.871 1.875 1.316 4.024 1.335 6.449-.019 3.56-.928 6.647-2.727 9.261-1.78 2.595-4.356 4.612-7.727 6.051-3.352 1.421-7.396 2.131-12.131 2.131-4.697 0-8.788-.72-12.273-2.159-3.465-1.44-6.174-3.57-8.125-6.392-1.931-2.841-2.945-6.355-3.039-10.54h11.903c.133 1.95.691 3.58 1.676 4.886 1.004 1.288 2.339 2.264 4.006 2.926 1.685.644 3.589.966 5.71.966 2.083 0 3.892-.303 5.426-.909 1.553-.606 2.756-1.449 3.608-2.528.852-1.08 1.279-2.32 1.279-3.722 0-1.307-.389-2.405-1.165-3.295-.758-.89-1.875-1.648-3.352-2.273-1.459-.625-3.249-1.193-5.37-1.705l-6.335-1.59c-4.905-1.194-8.778-3.06-11.619-5.597-2.841-2.538-4.252-5.956-4.233-10.256-.019-3.522.918-6.6 2.812-9.233 1.913-2.632 4.536-4.687 7.87-6.164 3.333-1.478 7.121-2.216 11.363-2.216 4.318 0 8.087.738 11.307 2.216 3.239 1.477 5.758 3.532 7.557 6.164 1.799 2.633 2.727 5.682 2.784 9.148h-11.79zm52.422 0c-.227-2.292-1.203-4.072-2.926-5.34-1.724-1.27-4.063-1.904-7.017-1.904-2.008 0-3.703.284-5.085.852-1.383.55-2.444 1.316-3.182 2.301-.72.985-1.08 2.103-1.08 3.353-.038 1.041.18 1.95.654 2.727.492.776 1.164 1.449 2.017 2.017.852.549 1.837 1.032 2.954 1.449 1.118.397 2.311.738 3.58 1.022l5.227 1.25c2.538.569 4.867 1.326 6.989 2.273 2.121.947 3.958 2.112 5.511 3.494a14.527 14.527 0 013.608 4.887c.871 1.875 1.316 4.024 1.335 6.449-.019 3.56-.928 6.647-2.727 9.261-1.78 2.595-4.356 4.612-7.727 6.051-3.353 1.421-7.396 2.131-12.131 2.131-4.697 0-8.788-.72-12.273-2.159-3.466-1.44-6.174-3.57-8.125-6.392-1.932-2.841-2.945-6.355-3.039-10.54h11.903c.132 1.95.691 3.58 1.676 4.886 1.004 1.288 2.339 2.264 4.006 2.926 1.685.644 3.589.966 5.71.966 2.083 0 3.892-.303 5.426-.909 1.553-.606 2.756-1.449 3.608-2.528.852-1.08 1.278-2.32 1.278-3.722 0-1.307-.388-2.405-1.164-3.295-.758-.89-1.875-1.648-3.353-2.273-1.458-.625-3.248-1.193-5.369-1.705l-6.335-1.59c-4.905-1.194-8.779-3.06-11.619-5.597-2.841-2.538-4.252-5.956-4.233-10.256-.019-3.522.918-6.6 2.812-9.233 1.913-2.632 4.536-4.687 7.869-6.164 3.334-1.478 7.122-2.216 11.364-2.216 4.318 0 8.087.738 11.307 2.216 3.239 1.477 5.757 3.532 7.557 6.164 1.799 2.633 2.727 5.682 2.784 9.148h-11.79zm33.161-16.733V112h-12.302V53.818h12.302zm63.586 29.092c0 6.344-1.202 11.742-3.608 16.192-2.386 4.451-5.644 7.851-9.772 10.199-4.11 2.33-8.732 3.494-13.864 3.494-5.171 0-9.811-1.174-13.921-3.522-4.109-2.349-7.358-5.748-9.744-10.2-2.386-4.45-3.579-9.838-3.579-16.164 0-6.345 1.193-11.742 3.579-16.193 2.386-4.45 5.635-7.841 9.744-10.17 4.11-2.35 8.75-3.523 13.921-3.523 5.132 0 9.754 1.174 13.864 3.522 4.128 2.33 7.386 5.72 9.772 10.17 2.406 4.452 3.608 9.85 3.608 16.194zm-12.471 0c0-4.11-.616-7.577-1.847-10.399-1.212-2.822-2.926-4.962-5.142-6.42-2.216-1.458-4.811-2.188-7.784-2.188-2.974 0-5.568.73-7.784 2.188-2.216 1.458-3.94 3.598-5.171 6.42-1.212 2.822-1.818 6.288-1.818 10.398 0 4.11.606 7.576 1.818 10.398 1.231 2.822 2.955 4.962 5.171 6.42 2.216 1.459 4.81 2.188 7.784 2.188 2.973 0 5.568-.729 7.784-2.188 2.216-1.458 3.93-3.598 5.142-6.42 1.231-2.822 1.847-6.288 1.847-10.398zm70.248-29.092V112h-10.625l-25.312-36.62h-.426V112h-12.302V53.818h10.796l25.113 36.591h.512V53.82h12.244z"/><path fill="#96CE4A" d="M71.236 94.62a3.797 3.797 0 100-7.596 3.797 3.797 0 000 7.597zm19.22 0a3.797 3.797 0 100-7.596 3.797 3.797 0 000 7.597zm19.219 0a3.797 3.797 0 100-7.596 3.797 3.797 0 000 7.597zm19.219 0a3.797 3.797 0 100-7.596 3.797 3.797 0 000 7.597zm19.219 0a3.797 3.797 0 100-7.596 3.797 3.797 0 000 7.597zm19.22 0a3.797 3.797 0 100-7.596 3.797 3.797 0 000 7.597zm19.22 0a3.796 3.796 0 100-7.594 3.796 3.796 0 000 7.595zm19.219 0a3.797 3.797 0 100-7.596 3.797 3.797 0 000 7.597zm19.219 0a3.797 3.797 0 100-7.596 3.797 3.797 0 000 7.597zm19.22 0a3.797 3.797 0 100-7.596 3.797 3.797 0 000 7.597zM71.236 114.08a3.797 3.797 0 100-7.594 3.797 3.797 0 000 7.594zm19.22 0a3.797 3.797 0 100-7.594 3.797 3.797 0 000 7.594zm19.219 0a3.797 3.797 0 100-7.594 3.797 3.797 0 000 7.594z"/><path fill="#FBD44C" d="M128.894 114.08a3.797 3.797 0 100-7.594 3.797 3.797 0 000 7.594z"/><path fill="#96CE4A" d="M148.113 114.08a3.797 3.797 0 100-7.594 3.797 3.797 0 000 7.594zm19.22 0a3.797 3.797 0 100-7.594 3.797 3.797 0 000 7.594zm19.22 0c2.097 0 3.796-1.7 3.796-3.797a3.796 3.796 0 10-3.796 3.797zm19.219 0a3.797 3.797 0 100-7.594 3.797 3.797 0 000 7.594zm19.219 0a3.797 3.797 0 100-7.594 3.797 3.797 0 000 7.594zm19.22 0a3.797 3.797 0 100-7.594 3.797 3.797 0 000 7.594zM71.236 133.541a3.797 3.797 0 100-7.594 3.797 3.797 0 000 7.594zm19.22 0a3.797 3.797 0 100-7.594 3.797 3.797 0 000 7.594zm19.219 0a3.797 3.797 0 100-7.594 3.797 3.797 0 000 7.594zm19.219 0a3.797 3.797 0 100-7.594 3.797 3.797 0 000 7.594zm19.219 0a3.797 3.797 0 100-7.594 3.797 3.797 0 000 7.594zm19.22 0a3.797 3.797 0 100-7.594 3.797 3.797 0 000 7.594zm19.22 0a3.796 3.796 0 100-7.592 3.796 3.796 0 000 7.592zm19.219 0a3.797 3.797 0 100-7.594 3.797 3.797 0 000 7.594zm19.219 0a3.797 3.797 0 100-7.594 3.797 3.797 0 000 7.594zm19.22 0a3.797 3.797 0 100-7.594 3.797 3.797 0 000 7.594zM71.236 153.002a3.797 3.797 0 100-7.594 3.797 3.797 0 000 7.594zm19.22 0a3.797 3.797 0 100-7.594 3.797 3.797 0 000 7.594zm19.219 0a3.797 3.797 0 100-7.594 3.797 3.797 0 000 7.594zm19.219 0a3.797 3.797 0 100-7.594 3.797 3.797 0 000 7.594zm19.219 0a3.797 3.797 0 100-7.594 3.797 3.797 0 000 7.594zm19.22 0a3.797 3.797 0 100-7.594 3.797 3.797 0 000 7.594zm19.22 0c2.097 0 3.796-1.7 3.796-3.797a3.796 3.796 0 10-3.796 3.797zm19.219 0a3.797 3.797 0 100-7.594 3.797 3.797 0 000 7.594zm19.219 0a3.797 3.797 0 100-7.594 3.797 3.797 0 000 7.594zm19.22 0a3.797 3.797 0 100-7.594 3.797 3.797 0 000 7.594zM71.236 172.463a3.797 3.797 0 100-7.594 3.797 3.797 0 000 7.594z"/><path fill="#FBD44C" d="M90.456 172.463a3.797 3.797 0 100-7.594 3.797 3.797 0 000 7.594z"/><path fill="#96CE4A" d="M109.675 172.463a3.797 3.797 0 100-7.594 3.797 3.797 0 000 7.594zm19.219 0a3.797 3.797 0 100-7.594 3.797 3.797 0 000 7.594zm19.219 0a3.797 3.797 0 100-7.594 3.797 3.797 0 000 7.594zm19.22 0a3.797 3.797 0 100-7.594 3.797 3.797 0 000 7.594zm19.22 0c2.097 0 3.796-1.7 3.796-3.797a3.796 3.796 0 10-3.796 3.797zm19.219 0a3.797 3.797 0 100-7.594 3.797 3.797 0 000 7.594zm19.219 0a3.797 3.797 0 100-7.594 3.797 3.797 0 000 7.594zm19.22 0a3.797 3.797 0 100-7.594 3.797 3.797 0 000 7.594zm-172.975 19.46a3.797 3.797 0 100-7.594 3.797 3.797 0 000 7.594zm19.22 0a3.797 3.797 0 100-7.594 3.797 3.797 0 000 7.594zm19.219 0a3.797 3.797 0 100-7.594 3.797 3.797 0 000 7.594zm19.219 0a3.797 3.797 0 100-7.594 3.797 3.797 0 000 7.594zm19.219 0a3.797 3.797 0 100-7.594 3.797 3.797 0 000 7.594zm19.22 0a3.797 3.797 0 100-7.594 3.797 3.797 0 000 7.594zm19.22 0a3.796 3.796 0 100-7.592 3.796 3.796 0 000 7.592zm19.219 0a3.797 3.797 0 100-7.594 3.797 3.797 0 000 7.594zm19.219 0a3.797 3.797 0 100-7.594 3.797 3.797 0 000 7.594zm19.22 0a3.797 3.797 0 100-7.594 3.797 3.797 0 000 7.594zM71.236 211.384a3.797 3.797 0 100-7.594 3.797 3.797 0 000 7.594zm19.22 0a3.797 3.797 0 100-7.594 3.797 3.797 0 000 7.594z"/><path fill="#FBD44C" d="M109.675 211.384a3.797 3.797 0 100-7.594 3.797 3.797 0 000 7.594z"/><path fill="#96CE4A" d="M128.894 211.384a3.797 3.797 0 100-7.594 3.797 3.797 0 000 7.594zm19.219 0a3.797 3.797 0 100-7.594 3.797 3.797 0 000 7.594zm19.22 0a3.797 3.797 0 100-7.594 3.797 3.797 0 000 7.594zm19.22 0c2.097 0 3.796-1.7 3.796-3.797a3.796 3.796 0 10-3.796 3.797zm19.219 0a3.797 3.797 0 100-7.594 3.797 3.797 0 000 7.594zm19.219 0a3.797 3.797 0 100-7.594 3.797 3.797 0 000 7.594zm19.22 0a3.797 3.797 0 100-7.594 3.797 3.797 0 000 7.594zm-172.975 19.46a3.797 3.797 0 100-7.594 3.797 3.797 0 000 7.594zm19.22 0a3.797 3.797 0 100-7.594 3.797 3.797 0 000 7.594zm19.219 0a3.797 3.797 0 100-7.594 3.797 3.797 0 000 7.594zm19.219 0a3.797 3.797 0 100-7.594 3.797 3.797 0 000 7.594zm19.219 0a3.797 3.797 0 100-7.594 3.797 3.797 0 000 7.594zm19.22 0a3.797 3.797 0 100-7.594 3.797 3.797 0 000 7.594zm19.22 0c2.097 0 3.796-1.7 3.796-3.797a3.796 3.796 0 10-3.796 3.797zm19.219 0a3.797 3.797 0 100-7.594 3.797 3.797 0 000 7.594zm19.219 0a3.797 3.797 0 100-7.594 3.797 3.797 0 000 7.594zm19.22 0a3.797 3.797 0 100-7.594 3.797 3.797 0 000 7.594zM71.236 250.305a3.797 3.797 0 100-7.594 3.797 3.797 0 000 7.594zm19.22 0a3.797 3.797 0 100-7.594 3.797 3.797 0 000 7.594zm19.219 0a3.797 3.797 0 100-7.594 3.797 3.797 0 000 7.594zm19.219 0a3.797 3.797 0 100-7.594 3.797 3.797 0 000 7.594zm19.219 0a3.797 3.797 0 100-7.594 3.797 3.797 0 000 7.594zm19.22 0a3.797 3.797 0 100-7.594 3.797 3.797 0 000 7.594zm19.22 0c2.097 0 3.796-1.7 3.796-3.797a3.796 3.796 0 10-3.796 3.797zm19.219 0a3.797 3.797 0 100-7.594 3.797 3.797 0 000 7.594zm19.219 0a3.797 3.797 0 100-7.594 3.797 3.797 0 000 7.594zm19.22 0a3.797 3.797 0 100-7.594 3.797 3.797 0 000 7.594zM71.236 269.766a3.797 3.797 0 100-7.594 3.797 3.797 0 000 7.594zm19.22 0a3.797 3.797 0 100-7.594 3.797 3.797 0 000 7.594zm19.219 0a3.797 3.797 0 100-7.594 3.797 3.797 0 000 7.594zm19.219 0a3.797 3.797 0 100-7.594 3.797 3.797 0 000 7.594zm19.219 0a3.797 3.797 0 100-7.594 3.797 3.797 0 000 7.594zm19.22 0a3.797 3.797 0 100-7.594 3.797 3.797 0 000 7.594zm19.22 0c2.097 0 3.796-1.7 3.796-3.797a3.796 3.796 0 10-3.796 3.797zm19.219 0a3.797 3.797 0 100-7.594 3.797 3.797 0 000 7.594zm19.219 0a3.797 3.797 0 100-7.594 3.797 3.797 0 000 7.594zm19.22 0a3.797 3.797 0 100-7.594 3.797 3.797 0 000 7.594z"/><path fill="#2F2E41" d="M182.394 144.867l1.566 20.988 37.904.94 16.603 37.904 9.084-3.759s-10.337-35.711-15.036-46.988c-4.699-11.278-22.555-3.133-22.555-3.133l-1.566-3.132-26-2.82z"/><path fill="#22560F" d="M207.922 237.696l45.062-78.961h-90.172l-45.11 78.132L162.812 315h90.22l45.026-77.986-90.136.682z"/><path fill="#FFB9B9" d="M238.78 202.193l4.386 13.471 5.952-5.013-3.133-10.65-7.205 2.192z"/><path fill="#2F2E41" d="M241.286 213.157s.627 10.025 1.566 10.651c.94.627 8.145-.626 8.145-.626s2.165.481 10.964-1.88c9.892-2.654-1.253-6.578-1.253-6.578s-7.205-4.699-10.337-6.892c-3.133-2.193-5.326 2.506-5.326 2.506.627 1.88-3.759 2.819-3.759 2.819zm-70.895-152.46a14.82 14.82 0 00-2.901 7.617c-.338 3.36-1.322 8.735-4.184 11.56-4.362 4.303-5.816 7.53-5.816 7.53l1.454 1.615c0-3.228 1.939-3.766 1.939-3.766l-.485 3.766c13.085 12.373 42.161 1.076 42.161 1.076l-.969-9.684c2.423 1.076 3.393 8.608 3.393 8.608l3.876-1.076s-6.784-11.835-11.146-22.595c-4.361-10.759-11.146-8.07-11.146-8.07-7.996-4.273-13.277-.31-16.176 3.42z"/><path fill="#FFB9B9" d="M215.913 66.24l4.699-30.7s-5.012-12.217 3.446-13.47c8.458-1.253 2.819 14.723 2.819 14.723l-2.819 29.446h-8.145zm-3.76 144.411c1.567 2.506 1.88 15.349 1.88 15.349l10.964-6.891-3.133-11.277-9.711 2.819z"/><path fill="#2F2E41" d="M196.804 143.301s-13.784 0-21.302 4.385c-2.416 1.41-3.118 3.952-2.957 6.754.421 7.318 6.398 13.097 13.714 13.55l21.195 1.311c-3.132 8.771 4.073 42.916 4.073 42.916l11.277-1.566s-1.566-11.591-1.253-12.217c.313-.627 3.132-25.061 1.253-37.904-1.88-12.844-27.567-7.519-27.567-7.519l1.567-9.71z"/><path fill="#FBD44C" d="M315.115 228.853l.084-.146-45.109-78.133h-.049l-45.062 78.962 90.136-.683z"/><path fill="#2F2E41" d="M213.406 223.181s-.94 9.085-.626 10.338c.313 1.253 13.157 1.879 24.747-1.566 11.591-3.446-1.566-7.205-1.566-7.205s-7.832-5.326-10.024-7.205c-2.193-1.88-5.326 2.506-5.326 2.506-.626 2.819-7.205 3.132-7.205 3.132z"/><path fill="#FFB9B9" d="M194.153 78.695c.997-6.147-3.178-11.94-9.326-12.938-6.147-.997-11.94 3.178-12.938 9.326-.997 6.148 3.178 11.94 9.326 12.938 6.148.997 11.94-3.178 12.938-9.326z"/><path fill="#FFB9B9" d="M178.322 85.349c4.072 5.952-.94 9.397-.94 9.397l-2.193 16.29s23.495 2.193 27.567-.94c4.072-3.133-4.699-13.47-7.831-14.41-3.133-.94-3.759-13.783-3.759-13.783l-12.844 3.446z"/><path fill="#CD63FF" d="M178.935 93.077l-12.361-1.934-1.409 13.314s.626 29.759 0 35.085c-.627 5.325 10.651 11.277 10.651 11.277s16.289-1.253 19.422-2.82c3.132-1.566 13.156 1.567 13.156 1.567a8.48 8.48 0 003.29-.47c1.879-.627-4.856-45.266-4.856-45.266l-5.952-13.783-7.205 2.82-2.193 10.337-12.543-10.127z"/><path fill="#CD63FF" d="M205.576 103.517l12.53-15.976 8.771-21.615-12.217-4.699-5.012 17.856-8.771 10.65-.314 1.88 5.013 11.904z"/><path fill="#FFB9B9" d="M166.092 127.836l31.035 1.168s11.565-6.372 13.775 1.888c2.209 8.26-14.306 4.479-14.306 4.479l-29.576.557-.928-8.092z"/><path fill="#CD63FF" d="M168.768 125.602l14.41.939 1.879 9.711s-17.542-.313-24.434-.626c-6.892-.313 0-29.446.94-38.218.94-8.77 5.638-6.265 5.638-6.265l2.82 2.193-1.253 32.266z"/><path fill="#000" d="M171.274 122.469l12.53 5.012-13.783-2.82-.94-17.855 2.193 15.663z" opacity=".15"/><path fill="#2F2E41" d="M194.929 73.136l-20.69.493-2.463-10.345h23.153v9.852z"/><path fill="#fff" d="M347.268 155.308c-.735-.859-1.103-2.116-1.103-3.772 0-1.64.368-2.89 1.103-3.749a3.798 3.798 0 013.052-1.288 3.867 3.867 0 013.087 1.288c.743.859 1.114 2.109 1.114 3.749 0 1.656-.371 2.913-1.114 3.772a3.86 3.86 0 01-3.087 1.288 3.798 3.798 0 01-3.052-1.288zm4.375-1.335a5.237 5.237 0 00.418-2.437 5.06 5.06 0 00-.43-2.402 1.408 1.408 0 00-1.311-.755 1.367 1.367 0 00-1.277.755 5.197 5.197 0 00-.418 2.402 5.27 5.27 0 00.418 2.426 1.373 1.373 0 001.277.754 1.4 1.4 0 00.77-.178c.235-.131.427-.327.553-.565zm-1.485 9.285l9.563-16.527h2.576l-9.586 16.527h-2.553zm8.878-1.126c-.735-.859-1.103-2.124-1.102-3.795 0-1.64.367-2.886 1.102-3.737a4.342 4.342 0 016.151 0c.735.851 1.103 2.105 1.103 3.76 0 1.656-.368 2.914-1.103 3.772a4.323 4.323 0 01-3.075 1.289 4.315 4.315 0 01-3.076-1.289zm4.375-1.346c.33-.764.473-1.595.418-2.426a5.073 5.073 0 00-.429-2.402 1.484 1.484 0 00-2.043-.552 1.48 1.48 0 00-.545.552 5.197 5.197 0 00-.418 2.402 5.255 5.255 0 00.418 2.426 1.496 1.496 0 002.599 0zM70.413 297.872c-.735-.859-1.102-2.116-1.102-3.772 0-1.64.367-2.89 1.102-3.749a3.804 3.804 0 013.052-1.288 3.867 3.867 0 013.088 1.288c.742.859 1.114 2.109 1.114 3.749 0 1.656-.371 2.913-1.114 3.772a3.868 3.868 0 01-3.087 1.288 3.807 3.807 0 01-3.053-1.288zm4.376-1.335a5.262 5.262 0 00.418-2.437 5.075 5.075 0 00-.43-2.403 1.412 1.412 0 00-1.312-.754 1.366 1.366 0 00-1.276.754 5.188 5.188 0 00-.418 2.403 5.24 5.24 0 00.418 2.425 1.363 1.363 0 001.277.755 1.41 1.41 0 001.323-.743zm-1.486 9.285l9.563-16.527h2.577l-9.587 16.527h-2.553zm8.879-1.126c-.736-.859-1.103-2.124-1.103-3.795 0-1.64.368-2.886 1.103-3.737a4.338 4.338 0 016.15 0c.736.851 1.103 2.104 1.104 3.76 0 1.656-.368 2.913-1.103 3.772a4.315 4.315 0 01-6.151 0zm4.375-1.346c.33-.764.472-1.596.418-2.426a5.071 5.071 0 00-.43-2.402 1.48 1.48 0 00-1.294-.755 1.485 1.485 0 00-1.294.755 5.21 5.21 0 00-.418 2.402c-.054.83.09 1.662.418 2.426a1.498 1.498 0 002.6 0zm179.942-100.626l-.584-.156 12.736-47.91h46.287v.604h-45.823l-12.616 47.462z"/><path fill="#fff" d="M331.319 161.299a6.337 6.337 0 116.338-6.338 6.346 6.346 0 01-6.338 6.338zm0-12.073a5.734 5.734 0 105.734 5.735 5.741 5.741 0 00-5.734-5.735z"/><path fill="#FBD44C" d="M331.319 157.375a2.414 2.414 0 100-4.829 2.414 2.414 0 000 4.829z"/><path fill="#fff" d="M173.233 249.759l.583.155-12.736 47.91h-54.169v-.603h53.705l12.617-47.462zm-72.851 41.426a6.334 6.334 0 014.482 10.819 6.34 6.34 0 01-9.752-.96 6.341 6.341 0 01-1.068-3.521 6.346 6.346 0 016.338-6.338zm0 12.072a5.736 5.736 0 004.055-9.789 5.74 5.74 0 00-8.823.869 5.733 5.733 0 004.768 8.92z"/><path fill="#FBD44C" d="M100.382 299.938a2.415 2.415 0 100-4.83 2.415 2.415 0 000 4.83z"/></svg>