<svg xmlns="http://www.w3.org/2000/svg" width="418" height="346" fill="none" viewBox="0 0 418 346">
    <rect width="75" height="75" x="5" y="267" fill="#007EC7" rx="16"/>
    <rect width="100" height="100" x="318" y="212" fill="#007EC7" rx="16"/>
    <rect width="100" height="100" x="35" y="43" fill="#007EC7" rx="16"/>
    <rect width="45" height="45" x="280" fill="#007EC7" rx="10"/>
    <rect width="63" height="63" x="355" y="41" fill="#007EC7" rx="10"/>
    <rect width="37" height="37" x="201.027" y="309" fill="#007EC7" rx="4"/>
    <path fill="#FF8F00" d="M372.711 83.196l13.372 1.703-8.16 10.729-5.212-12.432zM56.711 74.196L70.083 75.9l-8.16 10.729-5.212-12.432z"/>
    <path fill="#FFF9C4" d="M149.681 205.25l8.528 10.439-13.304 2.166 4.776-12.605zM66.681 265.25l8.528 10.439-13.304 2.166 4.776-12.605zM381.681 291.25l8.528 10.439-13.304 2.166 4.776-12.605z"/>
    <path fill="#FFD037" d="M224.003 31.543l-9.655 9.407-3.319-13.065 12.974 3.658z"/>
    <path fill="#8CC440" d="M33.709 327.25l8.528 10.439-13.305 2.166 4.777-12.605zM297.681 131.25l8.528 10.439-13.304 2.166 4.776-12.605z"/>
    <circle cx="77.027" cy="19" r="4" fill="#8CC440"/>
    <circle cx="371" cy="20" r="4" fill="#8CC440"/>
    <circle cx="402" cy="253" r="4" fill="#8CC440"/>
    <circle cx="4" cy="153" r="4" fill="#FF8F00"/>
    <circle cx="247" cy="115" r="4" fill="#FF8F00"/>
    <circle cx="223" cy="300" r="4" fill="#FF8F00"/>
    <circle cx="202" cy="178" r="122" stroke="#20A6EF" stroke-width="2"/>
    <circle cx="202" cy="178" r="101" stroke="#20A6EF" stroke-width="2"/>
    <circle cx="202" cy="178" r="77" stroke="#20A6EF" stroke-width="2"/>
    <circle cx="202" cy="178" r="55" stroke="#20A6EF" stroke-width="2"/>
    <path fill="#007EC7" d="M141.938 132.266H262.015V214.29899999999998H141.938z"/>
    <path fill="#fff" d="M192.576 221.86c0-.668.533-1.204 1.199-1.204h17.268c.667 0 1.204.535 1.204 1.204 0 .667-.537 1.206-1.204 1.206h-17.268c-.664-.002-1.199-.54-1.199-1.206zm69.441-7.66H142.31v-80.184h119.707V214.2zm23.802 8.25c0-1.784-1.442-3.229-3.218-3.229v-.23h-17.076c.87-.39 1.481-1.263 1.481-2.286v-85.2c0-1.384-1.115-2.505-2.496-2.505H139.815c-1.373 0-2.493 1.121-2.493 2.505v85.199c0 1.016.61 1.896 1.48 2.286h-16.585v.224c-1.776-.002-3.217 1.447-3.217 3.232 0 1.786 1.441 3.234 3.217 3.234h160.384c1.779-.002 3.218-1.447 3.218-3.23z"/>
    <path fill="#fff" d="M288.5 197.429c2.572 0 4.975-.232 7.21-.696 2.236-.464 3.999-1.149 5.29-2.056v2.752c0 .744-.559 1.434-1.676 2.071-1.118.637-2.637 1.141-4.558 1.513-1.92.372-4.009.558-6.266.558-2.257 0-4.346-.186-6.266-.558-1.921-.372-3.44-.876-4.558-1.513-1.117-.637-1.676-1.327-1.676-2.071v-2.752c1.291.907 3.054 1.592 5.29 2.056 2.235.464 4.638.696 7.21.696zm0 12.428c2.572 0 4.975-.232 7.21-.696 2.236-.464 3.999-1.149 5.29-2.055v2.751c0 .745-.559 1.435-1.676 2.072-1.118.636-2.637 1.14-4.558 1.513-1.92.372-4.009.558-6.266.558-2.257 0-4.346-.186-6.266-.558-1.921-.373-3.44-.877-4.558-1.513-1.117-.637-1.676-1.327-1.676-2.072v-2.751c1.291.906 3.054 1.591 5.29 2.055 2.235.464 4.638.696 7.21.696zm0-6.214c2.572 0 4.975-.232 7.21-.696 2.236-.464 3.999-1.149 5.29-2.055v2.751c0 .744-.559 1.435-1.676 2.071-1.118.637-2.637 1.141-4.558 1.513-1.92.373-4.009.559-6.266.559-2.257 0-4.346-.186-6.266-.559-1.921-.372-3.44-.876-4.558-1.513-1.117-.636-1.676-1.327-1.676-2.071v-2.751c1.291.906 3.054 1.591 5.29 2.055 2.235.464 4.638.696 7.21.696zm0-18.643c2.257 0 4.346.186 6.266.558 1.921.373 3.44.877 4.558 1.513 1.117.637 1.676 1.327 1.676 2.072v2.071c0 .745-.559 1.435-1.676 2.072-1.118.636-2.637 1.141-4.558 1.513-1.92.372-4.009.558-6.266.558-2.257 0-4.346-.186-6.266-.558-1.921-.372-3.44-.877-4.558-1.513-1.117-.637-1.676-1.327-1.676-2.072v-2.071c0-.745.559-1.435 1.676-2.072 1.118-.636 2.637-1.14 4.558-1.513 1.92-.372 4.009-.558 6.266-.558z"/>
    <circle cx="261" cy="287" r="23" fill="#0C64A9" stroke="#2AB7F6" stroke-width="2"/>
    <path fill="#fff" d="M269 277h-16c-1.1 0-2 .9-2 2v18l4-4h14c1.1 0 2-.9 2-2v-12c0-1.1-.9-2-2-2zm0 14h-14l-2 2v-14h16v12zm-13-7h2v2h-2v-2zm4 0h2v2h-2v-2zm4 0h2v2h-2v-2z"/>
    <circle cx="141" cy="287" r="23" fill="#0C64A9" stroke="#2AB7F6" stroke-width="2"/>
    <path fill="#fff" d="M148.35 285.04c-.68-3.45-3.71-6.04-7.35-6.04-2.89 0-5.4 1.64-6.65 4.04-3.01.32-5.35 2.87-5.35 5.96 0 3.31 2.69 6 6 6h13c2.76 0 5-2.24 5-5 0-2.64-2.05-4.78-4.65-4.96zM148 293h-13c-2.21 0-4-1.79-4-4 0-2.05 1.53-3.76 3.56-3.97l1.07-.11.5-.95c.95-1.83 2.81-2.97 4.87-2.97 2.62 0 4.88 1.86 5.39 4.43l.3 1.5 1.53.11c1.56.1 2.78 1.41 2.78 2.96 0 1.65-1.35 3-3 3zm-11-5h2.55v3h2.9v-3H145l-4-4-4 4z"/>
    <circle cx="70" cy="142" r="23" fill="#0C64A9" stroke="#2AB7F6" stroke-width="2"/>
    <path fill="#fff" fill-rule="evenodd" d="M69 133.049c-.329-.032-.662-.049-1-.049-.338 0-.671.017-1 .049-5.053.502-9 4.766-9 9.951 0 5.523 4.477 10 10 10 5.185 0 9.449-3.947 9.95-9 .033-.329.05-.663.05-1 0-.337-.017-.671-.05-1H69v-8.951zM67 143v1H75.938c-.492 3.946-3.858 7-7.938 7-4.418 0-8-3.582-8-8 0-4.08 3.054-7.446 7-7.938V143z" clip-rule="evenodd"/>
    <path fill="#fff" d="M81 140c0-5.523-4.477-10-10-10v10h10z"/>
    <circle cx="141" cy="68" r="23" fill="#0C64A9" stroke="#2AB7F6" stroke-width="2"/>
    <path fill="#fff" stroke="#0C64A9" stroke-width=".25" d="M149.304 63.325h.217l-.109-.188c-1.167-2.005-3.026-3.561-5.264-4.327l-.302-.104.152.281c.715 1.323 1.263 2.753 1.645 4.244l.024.094h3.637zm-8.201-4.948l-.103-.149-.103.149c-1.003 1.45-1.789 3.058-2.309 4.787l-.048.161h4.92l-.048-.161c-.52-1.729-1.306-3.337-2.309-4.787zm-9.512 12.053l.023.095h4.295l-.017-.14c-.096-.79-.167-1.576-.167-2.385 0-.809.071-1.595.167-2.385l.017-.14h-4.295l-.023.095c-.194.776-.316 1.59-.316 2.43 0 .84.122 1.654.316 2.43zm1.105 2.245h-.217l.109.188c1.167 2.017 3.027 3.561 5.264 4.327l.302.104-.152-.281c-.715-1.323-1.263-2.753-1.645-4.244l-.024-.094h-3.637zm3.54-9.35h.097l.024-.094c.382-1.49.93-2.921 1.645-4.244l.152-.28-.302.103c-2.237.766-4.097 2.31-5.264 4.327l-.109.188h3.757zm4.661 14.298l.103.149.103-.149c1.003-1.45 1.789-3.058 2.309-4.787l.048-.161h-4.92l.048.161c.52 1.729 1.306 3.337 2.309 4.787zm2.911-7.098h.109l.015-.108c.108-.794.193-1.593.193-2.417 0-.824-.085-1.635-.193-2.417l-.015-.108h-5.834l-.015.108c-.108.782-.193 1.593-.193 2.417 0 .824.085 1.623.193 2.417l.015.108h5.725zm.19 6.488l-.152.28.302-.103c2.238-.766 4.097-2.322 5.264-4.327l.109-.188h-3.854l-.024.094c-.382 1.49-.93 2.921-1.645 4.244zm2.11-6.628l-.017.14h4.295l.023-.095c.194-.776.316-1.59.316-2.43 0-.84-.122-1.654-.316-2.43l-.023-.095h-4.295l.017.14c.096.79.167 1.576.167 2.385 0 .809-.071 1.595-.167 2.385zM129.125 68c0-6.555 5.308-11.875 11.863-11.875 6.567 0 11.887 5.32 11.887 11.875s-5.32 11.875-11.887 11.875c-6.555 0-11.863-5.32-11.863-11.875z"/>
    <circle cx="261" cy="68" r="23" fill="#0C64A9" stroke="#2AB7F6" stroke-width="2"/>
    <path fill="#fff" d="M251 73H256V78H251zM258 68H263V78H258zM265 58H270V78H265z"/>
    <path fill="#fff" fill-rule="evenodd" d="M257 58h6v6h-2v-2.586l-8.293 8.293-1.414-1.414L259.586 60H257v-2z" clip-rule="evenodd"/>
    <path stroke="#fff" stroke-linecap="round" stroke-linejoin="round" stroke-width="2" d="M171.5 225v19.5c0 4.418-3.582 8-8 8H75M204 131.5V112c0-4.418 3.582-8 8-8h88.5M225 226v9c0 4.418 3.582 8 8 8h88M138.5 174.5H119c-4.418 0-8-3.582-8-8V78"/>
    <circle cx="70" cy="214" r="23" fill="#0C64A9" stroke="#2AB7F6" stroke-width="2"/>
    <path fill="#fff" d="M74.55 215c.75 0 1.41-.41 1.75-1.03l3.58-6.49c.37-.66-.11-1.48-.87-1.48h-14.8l-.94-2H60v2h2l3.6 7.59-1.35 2.44c-.73 1.34.23 2.97 1.75 2.97h12v-2H66l1.1-2h7.45zm-9.39-7h12.15l-2.76 5h-7.02l-2.37-5zm.84 12c-1.1 0-1.99.9-1.99 2s.89 2 1.99 2 2-.9 2-2-.9-2-2-2zm10 0c-1.1 0-1.99.9-1.99 2s.89 2 1.99 2 2-.9 2-2-.9-2-2-2z"/>
    <circle cx="336" cy="142" r="23" fill="#0C64A9" stroke="#2AB7F6" stroke-width="2"/>
    <path fill="#fff" d="M342.98 146H326v2h20v-2h-3.02zm2.02-1c-.27-4.07-3.25-7.4-7.16-8.21.1-.24.16-.51.16-.79 0-1.1-.9-2-2-2s-2 .9-2 2c0 .28.06.55.16.79-3.91.81-6.89 4.14-7.16 8.21h18zm-9-6.42c2.95 0 5.47 1.83 6.5 4.41h-13c1.03-2.58 3.55-4.41 6.5-4.41z"/>
    <circle cx="336" cy="214" r="23" fill="#0C64A9" stroke="#2AB7F6" stroke-width="2"/>
    <rect width="18" height="2" x="326" y="222" fill="#fff" rx="1"/>
    <rect width="18" height="2" x="326" y="224" fill="#fff" rx="1" transform="rotate(-90 326 224)"/>
    <path fill="#fff" fill-rule="evenodd" d="M343.376 211.002c.266-.021.526.094.709.313l1.673 2c.337.402.32 1.035-.038 1.413-.357.379-.92.36-1.256-.043l-.928-1.108-1.882 3c-.154.245-.397.399-.664.421-.266.021-.526-.094-.709-.313l-1.682-2.01-1.916 3.817c-.139.277-.387.463-.668.501-.28.038-.56-.076-.754-.308l-1.862-2.226-1.863 2.226c-.336.403-.899.422-1.256.043-.358-.378-.375-1.011-.038-1.413l2.509-3c.168-.201.403-.315.648-.315s.479.114.647.315l1.682 2.01 1.916-3.817c.139-.277.387-.463.667-.501.281-.038.561.076.755.308l1.764 2.108 1.882-3c.154-.245.397-.399.664-.421z" clip-rule="evenodd"/>
    <path fill="#fff" d="M333.278 211.045V212h-1.473v-.965c-.944-.18-1.744-.73-1.805-1.7h1.082c.055.525.452.935 1.462.935 1.082 0 1.325-.49 1.325-.795 0-.415-.243-.805-1.474-1.07-1.369-.3-2.307-.81-2.307-1.835 0-.86.767-1.42 1.717-1.605V204h1.473v.975c1.027.225 1.54.93 1.573 1.695h-1.082c-.027-.555-.353-.935-1.225-.935-.828 0-1.324.34-1.324.82 0 .42.358.695 1.473.955 1.115.26 2.307.695 2.307 1.955-.006.915-.762 1.415-1.722 1.58zM160 155H241V201H160z"/>
    <g clip-path="url(#prefix__clip0)">
        <path fill="url(#prefix__paint0_linear)" d="M163.941 159.152v35.462h36.921l36.139-35.458h-73.06v-.004z"/>
        <path fill="#1870C5" d="M210.706 190.989v2.645h.407v-1.148h.457l.737 1.148h.458l-.788-1.148c.394-.048.712-.273.712-.749 0-.521-.326-.748-.966-.748h-1.017zm.407.35h.559c.275 0 .585.043.585.373 0 .413-.314.45-.662.45h-.482v-.823zm.508-1.323c-1.29 0-2.391.975-2.391 2.295 0 1.329 1.101 2.32 2.391 2.32.31.001.617-.059.902-.175.286-.117.546-.288.763-.504.218-.216.39-.472.506-.754.115-.282.173-.583.169-.887 0-1.32-1.067-2.295-2.34-2.295zm0 .374c1.053 0 1.882.834 1.882 1.921 0 1.105-.829 1.921-1.882 1.921-1.071 0-1.932-.816-1.932-1.921 0-1.086.861-1.921 1.932-1.921z"/>
        <path fill="#fff" fill-rule="evenodd" d="M207.718 176.119h-1.584v-5.682h1.584c2.114 0 3.797.683 3.797 2.805 0 2.191-1.683 2.877-3.797 2.877zm-17.044 4.063c-.786.002-1.567-.133-2.304-.401l2.281-7.058h.049l2.234 7.077c-.725.253-1.489.382-2.258.382h-.002zm16.624-14.361h-7.191v16.777l-6.282-16.777h-6.227l-5.368 14.026c-.567-3.535-4.3-4.759-7.234-5.672-1.934-.611-3.993-1.508-3.974-2.502.016-.813 1.105-1.566 3.255-1.454 1.448.072 2.726.187 5.262 1.39l2.498-4.27c-2.314-1.16-5.521-1.888-8.144-1.894h-.017c-3.06 0-5.611.979-7.193 2.582-1.099 1.121-1.694 2.539-1.721 4.117-.04 2.162.771 3.697 2.469 4.924 1.437 1.033 3.271 1.698 4.89 2.196 1.998.605 3.629 1.133 3.61 2.258-.016.409-.172.793-.474 1.097-.497.507-1.261.694-2.318.717-2.038.04-3.549-.271-5.956-1.667l-2.221 4.33c2.482 1.383 5.286 2.115 8.14 2.125h.376c2.522-.048 4.56-.755 6.188-2.039l.264-.226-.72 1.897h6.531l1.097-3.272c1.147.381 2.454.595 3.837.595 1.35 0 2.624-.2 3.751-.564l1.055 3.241h10.655v-6.778h2.325c5.615 0 8.94-2.804 8.94-7.51 0-5.238-3.229-7.64-10.104-7.64" clip-rule="evenodd"/>
    </g>
    <defs>
        <linearGradient id="prefix__paint0_linear" x1="200.446" x2="200.446" y1="159.172" y2="194.608" gradientUnits="userSpaceOnUse">
            <stop stop-color="#00B8F1"/>
            <stop offset=".22" stop-color="#06A5E5"/>
            <stop offset=".794" stop-color="#1870C5"/>
            <stop offset="1" stop-color="#1D61BC"/>
        </linearGradient>
        <clipPath id="prefix__clip0">
            <path fill="#fff" d="M157 157H237V197H157z"/>
        </clipPath>
    </defs>
</svg>
