<svg xmlns="http://www.w3.org/2000/svg" width="413" height="353" fill="none"><rect width="75" height="75" y="267" fill="#3C49A7" rx="16"/><rect width="100" height="100" x="313" y="212" fill="#3C49A7" rx="16"/><rect width="100" height="100" x="30" y="43" fill="#3C49A7" rx="16"/><rect width="45" height="45" x="275" fill="#3C49A7" rx="10"/><rect width="63" height="63" x="350" y="75" fill="#3C49A7" rx="10"/><rect width="37" height="37" x="196.027" y="309" fill="#3C49A7" rx="4"/><path fill="#FF8F00" d="M361.711 169.196l13.372 1.703-8.16 10.729-5.212-12.432zm-310-95.004l13.372 1.703-8.16 10.729-5.212-12.432z"/><path fill="#FFF9C4" d="M13.681 200.25l8.528 10.439-13.304 2.166 4.776-12.605zm229 136l8.528 10.439-13.304 2.166 4.776-12.605zm112-53l8.528 10.439-13.304 2.166 4.776-12.605z"/><path fill="#FFD037" d="M219.003 31.543l-9.655 9.407-3.319-13.065 12.974 3.658z"/><path fill="#8CC440" d="M28.709 327.25l8.528 10.439-13.305 2.166 4.777-12.605zm297.972-206l8.528 10.439-13.304 2.166 4.776-12.605z"/><circle cx="100" cy="31" r="4" fill="#8CC440"/><circle cx="369" cy="58" r="4" fill="#8CC440"/><circle cx="397" cy="253" r="4" fill="#8CC440"/><circle cx="289" cy="57" r="4" fill="#FF8F00"/><circle cx="244" cy="325" r="4" fill="#FF8F00"/><circle cx="24" cy="133" r="4" fill="#FF8F00"/><path fill="#0AB2FF" d="M194 173v154.352l-52.308-7.289-63.587 12.972-.512.105L27 319.205v-134.2L79.522 173l57.454 12.005 2.184-.461L194 173z"/><path fill="#E9F4FE" d="M185.21 181.43v138.104l-46.801-6.522-56.893 11.607-.459.092-45.268-12.466V192.17l46.996-10.74 51.403 10.74 1.955-.412 49.067-10.328z"/><path fill="#3CD0E1" d="M141.692 320.063l-63.587 12.972L79.523 173l57.454 12.005 2.184-.461 2.532 135.519z" opacity=".1"/><g stroke="#0AB2FF" stroke-miterlimit="10" stroke-width="3" opacity=".8"><path d="M135.344 202.586l.025 44.912h18.651v-18.436h31.943l3.751-4.811m-158.21-7.408h69.351l4.288-1.929h1.715v43.304h30.012l1.287 3.859v19.508h23.152v24.118m-45.293 0v-47.484m73.696 34.761h-73.696m55.242-90.394v103.115M31.29 283.863h158.424M50.57 305.701V202.586m36.824 0v103.115m-55.89-77.068l122.517.429M67.16 202.773v102.929" opacity=".3"/><path d="M31.29 252.496h56.106l28.621 31.368m6.202-81.278v55.631m-6.203 9.963h73.696" opacity=".3"/></g><path fill="#FF6F1E" d="M138.047 267.755h-21.652v-9.433l20.473-.107 1.286 3.644-.107 5.896z"/><path fill="#D74700" d="M127.327 218.875a11.85 11.85 0 00-11.85 11.851c0 6.545 11.85 27.809 11.85 27.809s11.851-21.256 11.851-27.809a11.848 11.848 0 00-11.851-11.851zm0 16.906a5.21 5.21 0 01-4.816-3.219 5.21 5.21 0 013.799-7.108 5.214 5.214 0 016.231 5.113 5.212 5.212 0 01-5.214 5.212v.002z"/><path fill="#E1510A" d="M127.327 218.875a11.85 11.85 0 00-11.85 11.851c0 6.545 11.85 27.809 11.85 27.809s11.851-21.256 11.851-27.809a11.848 11.848 0 00-11.851-11.851zm0 16.906a5.21 5.21 0 01-4.816-3.219 5.21 5.21 0 013.799-7.108 5.214 5.214 0 016.231 5.113 5.212 5.212 0 01-5.214 5.212v.002z"/><path fill="#FF6F1E" d="M127.327 220.59a11.848 11.848 0 00-11.85 11.851c0 6.545 11.85 27.809 11.85 27.809s11.851-21.256 11.851-27.809a11.848 11.848 0 00-11.851-11.851zm0 16.906a5.21 5.21 0 01-4.816-3.219 5.211 5.211 0 013.799-7.108 5.214 5.214 0 016.231 5.113 5.214 5.214 0 01-5.214 5.212v.002z"/><path fill="#fff" d="M290.116 137.628h-1.378V99.86a21.855 21.855 0 00-6.403-15.457 21.888 21.888 0 00-7.092-4.74A21.866 21.866 0 00266.878 78H186.86a21.853 21.853 0 00-15.457 6.403A21.857 21.857 0 00165 99.86v207.202a21.853 21.853 0 006.403 15.458 21.852 21.852 0 0015.457 6.402h80.018a21.848 21.848 0 0015.457-6.402 21.87 21.87 0 006.403-15.458V164.513h1.378v-26.885z"/><path fill="#1E2B89" d="M267.728 83.688h-10.445a7.762 7.762 0 01-3.534 9.773 7.755 7.755 0 01-3.647.911h-45.841a7.77 7.77 0 01-3.647-.91 7.759 7.759 0 01-3.534-9.774h-9.755A16.325 16.325 0 00171 100.012v206.899c0 2.144.422 4.266 1.243 6.247a16.311 16.311 0 008.834 8.835 16.336 16.336 0 006.248 1.242h80.403a16.327 16.327 0 0015.082-10.077 16.313 16.313 0 001.243-6.247V100.012a16.32 16.32 0 00-16.325-16.324z"/><rect width="91" height="67" x="183" y="109" fill="#4653B1" rx="10"/><path fill="#fff" d="M257.725 199.776a4 4 0 01-4-4v-3.227a1.549 1.549 0 10-3.098 0v3.227a4 4 0 01-4 4h-37.601a4 4 0 01-4-4v-3.227a1.548 1.548 0 10-3.097 0v3.227a4 4 0 01-4 4H187a4 4 0 00-4 4v39.838a4 4 0 004 4h81.654a4 4 0 004-4v-39.838a4 4 0 00-4-4h-10.929zm-54.248 11.185a4.818 4.818 0 01-4.132-7.295c.855-1.427 2.584-.359 2.584 1.305v2.032a1.548 1.548 0 103.097 0v-2.032c0-1.664 1.729-2.732 2.584-1.305a4.818 4.818 0 01-4.132 7.295h-.001zm48.699 0a4.816 4.816 0 01-4.133-7.295c.856-1.427 2.584-.359 2.584 1.305v2.032a1.549 1.549 0 103.098 0v-2.032c0-1.664 1.728-2.732 2.584-1.305a4.818 4.818 0 01-4.133 7.295z"/><path fill="#EBEBEB" d="M198.788 215.867h-7.487a4 4 0 00-4 4v3.702a4 4 0 004 4h7.487a4 4 0 004-4v-3.702a4 4 0 00-4-4zm21.855 0h-7.487a4 4 0 00-4 4v3.702a4 4 0 004 4h7.487a4 4 0 004-4v-3.702a4 4 0 00-4-4zm21.856 0h-7.487a4 4 0 00-4 4v3.702a4 4 0 004 4h7.487a4 4 0 004-4v-3.702a4 4 0 00-4-4zm21.851 0h-7.487a4 4 0 00-4 4v3.702a4 4 0 004 4h7.487a4 4 0 004-4v-3.702a4 4 0 00-4-4zm-65.562 15.141h-7.487a4 4 0 00-4 4v3.701a4 4 0 004 4h7.487a4 4 0 004-4v-3.701a4 4 0 00-4-4zm21.855 0h-7.487a4 4 0 00-4 4v3.701a4 4 0 004 4h7.487a4 4 0 004-4v-3.701a4 4 0 00-4-4z"/><path fill="#FF6F1E" d="M216.06 239.5c-.309 0-.604-.144-.795-.393l-3.059-4a1 1 0 111.589-1.215l2.094 2.738c1.154-2.078 3.662-5.892 7.652-8.47a1 1 0 111.086 1.68c-5.104 3.298-7.625 9.002-7.65 9.059a1 1 0 01-.917.601zm-22-15c-.309 0-.604-.144-.795-.393l-3.059-4a1 1 0 111.589-1.215l2.094 2.738c1.154-2.078 3.662-5.892 7.652-8.47a1 1 0 111.086 1.68c-5.104 3.298-7.625 9.002-7.65 9.059a1 1 0 01-.917.601z"/><path fill="#EBEBEB" d="M242.499 231.008h-7.487a4 4 0 00-4 4v3.701a4 4 0 004 4h7.487a4 4 0 004-4v-3.701a4 4 0 00-4-4zm21.851 0h-7.487a4 4 0 00-4 4v3.701a4 4 0 004 4h7.487a4 4 0 004-4v-3.701a4 4 0 00-4-4z"/><path fill="#fff" d="M229.323 126.039a1.916 1.916 0 11-3.835 0" opacity=".2"/><path fill="#6C63FF" d="M304.752 136.475l-8.205.318.409 10.55 8.205-.319-.409-10.549z"/><path fill="#FFB9B9" d="M267.738 173.422s-11.363-5.429-11.181-.741c.182 4.689 11.454 7.774 11.454 7.774l-.273-7.033z"/><path fill="#000" d="M273.971 213.095s-5.361 13.121-7.341 22.59c-1.981 9.468-4.998 22.499-1.117 31.74 3.88 9.241 14.912 36.401 15.025 39.331.114 2.931-.945 5.907 1.4 5.816 2.344-.091 15.102-4.108 15.62-5.889.518-1.781-4.353-6.288-4.353-6.288l-12.027-37.687 12.548-24.552 9.051 36.628 1.773 45.716s8.701-2.686 9.964-.387c0 0 3.898-5.434 4.393-7.801.495-2.367-1.841-47.473-1.841-47.473s7.986-51.377 1.539-51.127-31.699-15.206-44.634-.617z"/><path fill="#000" d="M281.845 310.227s-5.947 13.144-6.51 13.753c-.564.608-4.439 6.628-1.508 6.515 2.93-.114 9.85-3.317 14.943-8.21 5.093-4.894 11.807-13.372 11.199-13.935-.609-.563-4.78-2.162-4.78-2.162l-13.344 4.039zm23.763 7.297s-.359 5.883-1.44 8.273c-1.082 2.39-.945 5.907 1.985 5.793 2.931-.114 10.504-1.581 10.504-1.581s.45-3.54-.159-4.103c-.608-.563-3.203-6.919-2.099-8.723 1.104-1.804-8.791.341-8.791.341z"/><path fill="#FFB9B9" d="M309.946 126.586s6.247 9.736 8.683 11.99c2.435 2.253-4.416 7.215-4.416 7.215l-12.263 1.649s.154-11.158-.477-12.308c-.632-1.149 8.473-8.546 8.473-8.546z"/><path fill="#5C38E9" d="M299.284 139.327s2.526 4.598 4.87 4.507c2.345-.091 14.471-5.257 14.989-7.038.518-1.781 4.016 12.757 4.016 12.757l-29.671 52.218-7.238-5.002 3.507-30.659 2.88-16.547 6.647-10.236z"/><path fill="#0AB2FF" d="M320.239 186.059c-1.184 2.476-1.923 5.058-1.821 7.701.005.118.009.235.02.352.281 5.424 2.279 11.698 2.996 16.26.52 3.273.372 5.662-1.543 6.223-4.644 1.354.677 2.322-17.288 8.301-17.964 5.98-21.099.818-21.144-.354-.046-1.172 2.544-10.077 1.935-10.64-.609-.564-8.519 7.374-10.909 6.292-2.389-1.081-.272-7.033-.272-7.033s5.383-12.535 5.27-15.465c-.114-2.931 8.155-16.752 8.155-16.752l5.624-36.61s2.162-4.78 5.07-5.48c2.908-.699 5.32.968 5.32.968l-4.865 10.754-5.134 18.982.859 7.011s5.969-12.558 9.89-17.406c3.921-4.848 12.281-16.325 12.281-16.325s1.951-6.585.478-8.553c-1.473-1.973 6.146-2.269 9.394 5.823 1.722 4.288 4.518 10.684 6.269 16.638 1.56 5.275 2.297 10.206.751 13.025-2.362 4.306-8.306 9.966-11.336 16.288z"/><path fill="#000" d="M331.575 169.775c-2.363 4.306-8.306 9.966-11.337 16.288-.791-2.852-1.756-5.802-1.756-5.802s-3.704-19.813 7.25-24.934a7.335 7.335 0 015.092 1.423c1.56 5.275 2.297 10.206.751 13.025z" opacity=".1"/><path fill="#0AB2FF" d="M288.093 168.523l-9.287 2.708-12.894.5-1.326 11.204 21.19 1.527s5.293-14.88 2.317-15.939z"/><path fill="#FFB9B9" d="M303.235 206.195s-12.423 2.062-9.588 5.8c2.836 3.739 13.842-.192 13.842-.192l-4.254-5.608z"/><path fill="#000" d="M318.439 194.113c.28 5.425 2.279 11.698 2.996 16.261-3.958 3.745-7.722 7.049-9.14 7.104-2.93.114-7.642-.29-9.377.364-1.736.654-2.754-10.459-2.754-10.459s1.036-3.562 5.656-5.502c3.119-1.312 9.097-4.872 12.619-7.768z" opacity=".1"/><path fill="#0AB2FF" d="M325.596 151.805s9.919-1.558 9.383 14.898c-.536 16.456 1.045 26.96-2.944 30.049-3.989 3.09-16.946 17.093-19.877 17.207-2.93.113-7.642-.291-9.377.363-1.736.654-2.754-10.459-2.754-10.459s1.036-3.562 5.657-5.502c4.62-1.94 15.506-8.819 15.415-11.163-.091-2.344-2.753-10.459-2.753-10.459s-3.704-19.813 7.25-24.934z"/><path fill="#FFB9B9" d="M301.201 141.007c7.126 0 12.903-5.778 12.903-12.904 0-7.127-5.777-12.904-12.903-12.904-7.127 0-12.904 5.777-12.904 12.904 0 7.126 5.777 12.904 12.904 12.904z"/><path fill="#000" d="M292.509 109.606a2.489 2.489 0 01-1.085.544.776.776 0 01-.897-.621c-.295.612-.628 1.265-1.231 1.579-.603.314-1.535.051-1.622-.623a2.845 2.845 0 01-.655 1.382c-.374.356-1.052.446-1.378.046.264 1.442.101 2.926.184 4.39.082 1.464.473 3.016 1.579 3.979 1.613 1.404 4.039 1.058 6.161.792.321-.068.654-.049.966.053.795.338.759 1.444.769 2.308a6.417 6.417 0 005.616 6.09 3.213 3.213 0 002.39-.583c.602-.51.91-1.343 1.601-1.726 1.123-.625 2.485.286 3.306 1.274.821.988 1.63 2.204 2.902 2.384 1.683.24 2.964-1.475 3.593-3.053a17.815 17.815 0 00-.354-13.834c-3.513-7.657-15.513-8.868-21.845-4.381z"/><path fill="url(#prefix__paint0_linear)" d="M280.761 144.389c-1.713 12.361-27.141 38.213-27.141 38.213s-19.225-32.04-17.512-44.402a22.543 22.543 0 0116.636-18.765 22.545 22.545 0 0127.519 16.161c.743 2.87.912 5.858.498 8.793z"/><path fill="#FF6F1E" d="M279.298 144.777c-1.607 11.595-25.458 35.843-25.458 35.843s-18.033-30.053-16.426-41.648a21.154 21.154 0 018.172-13.995 21.15 21.15 0 0123.484-1.386 21.15 21.15 0 019.762 12.937c.696 2.692.855 5.495.466 8.249z"/><path fill="#fff" d="M269.057 141.648c.804-5.798-3.233-11.147-9.016-11.949-5.783-.801-11.122 3.249-11.926 9.046-.803 5.797 3.233 11.147 9.016 11.948 5.783.802 11.123-3.248 11.926-9.045z"/><path fill="#0AB2FF" d="M205.468 123.968c-1.551.571-4.275 1.041-7.428 1.419-8.572 1.029-20.319 1.394-20.319 1.394s-60.389 5.008-105.649-13.619c0 0-6.583-3.451-.476-8.096.94-.694 1.94-1.304 2.988-1.823l.074-.074a15.85 15.85 0 012.243-1.729c2.345-1.516 6.304-3.313 11.124-2.499l118.872 19.226s4.341 3.669-1.429 5.801z"/><path fill="#0AB2FF" d="M181.781 115.253l24.885-17.655 10.968 1.897-10.739 18.671s-24.828.199-25.114-2.913z"/><path fill="#0094E1" d="M119 104l49.701-13.375 7.989 1.67-22.391 10.072L147 108.5l-28-4.5zm79.04 21.387c-8.572 1.029-20.319 1.394-20.319 1.394s-60.389 5.009-105.649-13.619c0 0-6.583-3.451-.476-8.096l.02.086s9.767 6.601 56.428 12.111l69.996 8.124z"/><path fill="#0094E1" d="M190.072 125.003l22.161 9.049 5.567-.618-13.255-9.963s-16.034-3.421-14.473 1.532z"/><path fill="#3C49A7" d="M79.654 106.116c-1.057.017-3.48-1.756-4.986-2.95a15.843 15.843 0 012.243-1.728c1.215.931 3.375 2.439 4.577 2.381 1.735-.072-.242 2.268-1.834 2.297z"/><path fill="#0AB2FF" d="M180.332 156.281l-14.229.745-40.004-26.974-7.426-5.009-3.607-2.433c6.768-5.715 34.378 2.167 34.378 2.167.529.446.697 1.187.674 2.006-.047 1.534-.767 3.334-1.045 3.982-.067.158-.108.242-.108.242l31.367 25.274z"/><path fill="#7BC4FF" d="M133.474 142.299l-2.469 1.562 1.496-2.719a2.44 2.44 0 00-1.489-.532h-.04a2.654 2.654 0 01-.511-.038l-.835.53.357-.651a2.969 2.969 0 01-1.46-1.111l-1.494.953.943-1.718c-.873-1.049-2.051-1.692-3.348-1.692-1.554 0-2.939.924-3.832 2.365a2.867 2.867 0 01-2.54 1.365h-.083c-1.716 0-3.107 1.945-3.107 4.345 0 2.4 1.391 4.345 3.107 4.345a2.316 2.316 0 001.081-.271 4.487 4.487 0 013.761-.073 3.93 3.93 0 003.197 0 4.49 4.49 0 013.726.071c.331.173.698.264 1.071.265 1.716 0 3.107-1.944 3.107-4.345a5.526 5.526 0 00-.638-2.651z"/><path fill="#000" d="M128.827 148.656a4.608 4.608 0 00-2.662.289 3.912 3.912 0 01-3.195 0 4.478 4.478 0 00-3.761.073c-.334.177-.705.27-1.083.272-1.524 0-2.792-1.537-3.056-3.563.305-.221.564-.5.762-.82.894-1.44 2.278-2.364 3.832-2.364 1.555 0 2.925.905 3.817 2.334a2.938 2.938 0 002.532 1.392h.039c1.213-.003 2.264.968 2.775 2.387z" opacity=".03"/><path fill="#7BC4FF" d="M203.161 140.233l-2.468 1.562 1.495-2.719a2.435 2.435 0 00-1.489-.532h-.039a2.828 2.828 0 01-.512-.038l-.835.53.358-.651a2.981 2.981 0 01-1.461-1.111l-1.494.952.943-1.717c-.873-1.05-2.051-1.693-3.348-1.693-1.554 0-2.938.924-3.832 2.366a2.874 2.874 0 01-2.54 1.365h-.082c-1.716 0-3.107 1.945-3.107 4.345 0 2.4 1.391 4.345 3.107 4.345a2.33 2.33 0 001.081-.272 4.485 4.485 0 013.76-.073 3.916 3.916 0 003.198 0 4.497 4.497 0 013.725.072c.331.172.699.263 1.072.265 1.716 0 3.107-1.945 3.107-4.345a5.524 5.524 0 00-.639-2.651z"/><path fill="#000" d="M198.519 146.59a4.603 4.603 0 00-2.663.289 3.907 3.907 0 01-3.195 0 4.493 4.493 0 00-1.888-.378 4.488 4.488 0 00-1.873.451 2.344 2.344 0 01-1.082.271c-1.524 0-2.793-1.536-3.056-3.562.305-.221.563-.5.762-.821.893-1.44 2.278-2.363 3.832-2.363 1.554 0 2.924.904 3.816 2.333a2.936 2.936 0 002.54 1.392h.04c1.205-.003 2.255.969 2.767 2.388z" opacity=".03"/><path fill="#7BC4FF" d="M219.411 58.416l-2.468 1.563 1.495-2.72a2.435 2.435 0 00-1.489-.532h-.039a2.74 2.74 0 01-.512-.038l-.835.53.358-.65a2.983 2.983 0 01-1.461-1.112l-1.494.953.943-1.718c-.873-1.05-2.051-1.692-3.348-1.692-1.554 0-2.938.924-3.832 2.365a2.87 2.87 0 01-2.54 1.366h-.082c-1.716 0-3.107 1.944-3.107 4.344 0 2.4 1.391 4.345 3.107 4.345.377 0 .748-.094 1.081-.271a4.486 4.486 0 013.76-.073 3.92 3.92 0 003.198.008 4.482 4.482 0 013.725.071c.331.173.699.264 1.072.265 1.716 0 3.107-1.944 3.107-4.345a5.524 5.524 0 00-.639-2.659z"/><path fill="#000" d="M214.769 64.773a4.595 4.595 0 00-2.663.29 3.922 3.922 0 01-3.195 0 4.478 4.478 0 00-3.761.072c-.333.177-.705.27-1.082.272-1.524 0-2.793-1.537-3.056-3.562.305-.222.563-.5.762-.821.893-1.44 2.278-2.364 3.832-2.364 1.554 0 2.924.905 3.816 2.334a2.933 2.933 0 002.54 1.392h.04c1.205-.003 2.255.968 2.767 2.387z" opacity=".03"/><path fill="#7BC4FF" d="M101.243 82.546l-1.231.779.746-1.356a1.2 1.2 0 00-.742-.266h-.02c-.085 0-.17-.006-.255-.02l-.416.264.178-.318a1.49 1.49 0 01-.729-.553l-.744.476.476-.856a2.153 2.153 0 00-.74-.61 2.155 2.155 0 00-.93-.234c-.775 0-1.465.46-1.905 1.179a1.438 1.438 0 01-1.27.682h-.041c-.856 0-1.55.97-1.55 2.168 0 1.197.694 2.166 1.55 2.166.188 0 .373-.046.54-.135a2.235 2.235 0 011.876-.036 1.953 1.953 0 001.587 0 2.239 2.239 0 011.859.036c.165.086.348.131.534.132.855 0 1.549-.97 1.549-2.167a2.765 2.765 0 00-.322-1.331z"/><path fill="#000" d="M98.927 85.717a2.276 2.276 0 00-1.329.144 1.94 1.94 0 01-1.595-.005 2.248 2.248 0 00-1.877.038c-.166.089-.35.135-.538.135-.76 0-1.394-.766-1.525-1.776.151-.111.28-.25.38-.41.445-.719 1.136-1.179 1.905-1.179.77 0 1.458.456 1.905 1.165a1.47 1.47 0 001.27.694h.021c.599 0 1.127.486 1.383 1.194z" opacity=".03"/><path fill="#7BC4FF" d="M210.778 160.174l-1.23.78.746-1.356a1.219 1.219 0 00-.743-.267h-.019a1.464 1.464 0 01-.256-.019l-.416.264.178-.318a1.486 1.486 0 01-.729-.554l-.744.477.476-.856a2.177 2.177 0 00-1.67-.845c-.775 0-1.465.461-1.905 1.18a1.427 1.427 0 01-1.27.681h-.041c-.856 0-1.55.971-1.55 2.168s.694 2.167 1.55 2.167c.188 0 .373-.047.54-.135a2.23 2.23 0 011.876-.036 1.955 1.955 0 001.587 0 2.229 2.229 0 011.859.036c.165.086.348.131.534.132.855 0 1.549-.97 1.549-2.167a2.771 2.771 0 00-.322-1.332z"/><path fill="#000" d="M208.462 163.346a2.276 2.276 0 00-1.329.144 1.955 1.955 0 01-1.595-.005 2.264 2.264 0 00-.943-.187 2.259 2.259 0 00-.934.225c-.165.088-.35.135-.538.135-.76 0-1.394-.766-1.525-1.776a1.49 1.49 0 00.381-.41c.444-.719 1.135-1.179 1.905-1.179s1.457.456 1.905 1.165a1.459 1.459 0 001.27.694h.02c.599 0 1.127.486 1.383 1.194z" opacity=".03"/><path fill="#7BC4FF" d="M96.48 164.299l-1.23.78.747-1.356a1.219 1.219 0 00-.743-.267h-.02a1.46 1.46 0 01-.255-.019l-.416.264.178-.318a1.486 1.486 0 01-.729-.554l-.744.477.476-.856a2.168 2.168 0 00-1.67-.845c-.775 0-1.465.461-1.905 1.18a1.427 1.427 0 01-1.27.681h-.041c-.856 0-1.55.971-1.55 2.168s.694 2.167 1.55 2.167c.188 0 .373-.047.54-.135a2.23 2.23 0 011.876-.036 1.955 1.955 0 001.588 0 2.232 2.232 0 011.858.036c.165.086.348.131.534.132.855 0 1.55-.97 1.55-2.167a2.784 2.784 0 00-.323-1.332z"/><path fill="#000" d="M94.165 167.475a2.277 2.277 0 00-1.329.144 1.944 1.944 0 01-1.595-.005 2.246 2.246 0 00-1.876.038 1.152 1.152 0 01-.539.135c-.76 0-1.393-.766-1.525-1.776.151-.111.28-.25.38-.41.445-.719 1.136-1.179 1.906-1.179s1.457.455 1.905 1.165a1.459 1.459 0 001.27.694h.02c.599 0 1.127.486 1.383 1.194z" opacity=".03"/><path fill="#7BC4FF" d="M153.314 66.416l-2.469 1.563 1.496-2.72a2.44 2.44 0 00-1.489-.532h-.04a2.736 2.736 0 01-.511-.038l-.835.53.357-.65a2.983 2.983 0 01-1.461-1.112l-1.493.953.943-1.718c-.874-1.05-2.051-1.692-3.348-1.692-1.555 0-2.939.924-3.833 2.365a2.866 2.866 0 01-2.539 1.366h-.083c-1.716 0-3.107 1.944-3.107 4.344 0 2.4 1.391 4.345 3.107 4.345.377 0 .748-.094 1.081-.271a4.486 4.486 0 013.761-.073 3.92 3.92 0 003.197.008 4.49 4.49 0 013.726.071c.331.173.698.264 1.071.265 1.716 0 3.107-1.944 3.107-4.345a5.523 5.523 0 00-.638-2.659z"/><path fill="#000" d="M148.671 72.773a4.592 4.592 0 00-2.662.29 3.927 3.927 0 01-3.196 0 4.474 4.474 0 00-3.76.072 2.34 2.34 0 01-1.083.272c-1.524 0-2.792-1.537-3.056-3.562.305-.222.564-.5.762-.821.894-1.44 2.278-2.364 3.832-2.364 1.554 0 2.924.905 3.816 2.334a2.936 2.936 0 002.54 1.392h.04c1.205-.003 2.256.968 2.767 2.388z" opacity=".03"/><path fill="#7BC4FF" d="M244.172 101.694l-1.23.779.746-1.355a1.204 1.204 0 00-.743-.267h-.019a1.555 1.555 0 01-.255-.019l-.416.263.177-.317a1.479 1.479 0 01-.728-.554l-.745.476.477-.856a2.174 2.174 0 00-1.67-.844c-.775 0-1.466.46-1.905 1.179a1.438 1.438 0 01-1.27.682h-.042c-.855 0-1.549.971-1.549 2.168s.694 2.167 1.549 2.167c.189-.001.374-.047.54-.135a2.225 2.225 0 011.876-.037 1.96 1.96 0 001.588 0 2.25 2.25 0 01.933-.184c.321.007.637.082.926.221.165.085.348.13.533.132.856 0 1.55-.97 1.55-2.167a2.76 2.76 0 00-.323-1.332z"/><path fill="#000" d="M235.13 96.83a2.276 2.276 0 00-1.329.145 1.935 1.935 0 01-1.587-.005 2.232 2.232 0 00-1.877.038 1.16 1.16 0 01-.538.135c-.76 0-1.394-.767-1.526-1.777.152-.11.281-.25.381-.41.445-.718 1.135-1.179 1.905-1.179s1.458.456 1.905 1.165a1.46 1.46 0 001.262.694h.021c.598 0 1.127.486 1.383 1.194z" opacity=".03"/><rect width="71" height="25" x="192" y="278" fill="#FF6F1E" rx="12.5"/><path fill="#fff" d="M210.759 295v-8.727h3.494c.642 0 1.177.095 1.606.285.429.191.752.455.968.793.216.335.324.721.324 1.159 0 .341-.069.641-.205.899a1.767 1.767 0 01-.562.631 2.304 2.304 0 01-.81.345v.085a2.001 2.001 0 011.645 1.01c.182.31.272.679.272 1.108 0 .463-.115.876-.345 1.24-.227.361-.564.646-1.01.857-.446.21-.995.315-1.649.315h-3.728zm1.845-1.509h1.504c.514 0 .889-.098 1.125-.294a.983.983 0 00.354-.792c0-.242-.059-.455-.175-.639a1.188 1.188 0 00-.499-.435 1.707 1.707 0 00-.762-.158h-1.547v2.318zm0-3.566h1.368c.252 0 .477-.044.673-.132.199-.091.355-.219.469-.384.116-.165.174-.362.174-.592a.958.958 0 00-.336-.763c-.222-.193-.537-.29-.946-.29h-1.402v2.161zm14.108.711c0 .952-.18 1.762-.541 2.429a3.752 3.752 0 01-1.466 1.53c-.617.35-1.31.524-2.08.524-.775 0-1.471-.176-2.088-.528-.616-.352-1.103-.862-1.461-1.53-.358-.668-.537-1.476-.537-2.425 0-.951.179-1.761.537-2.429.358-.667.845-1.176 1.461-1.525.617-.352 1.313-.529 2.088-.529.77 0 1.463.177 2.08.529.619.349 1.108.858 1.466 1.525.361.668.541 1.478.541 2.429zm-1.871 0c0-.616-.092-1.136-.277-1.559-.182-.424-.439-.745-.771-.963-.332-.219-.722-.328-1.168-.328-.446 0-.835.109-1.167.328-.333.218-.591.539-.776.963-.182.423-.273.943-.273 1.559 0 .617.091 1.137.273 1.56.185.423.443.744.776.963.332.219.721.328 1.167.328.446 0 .836-.109 1.168-.328.332-.219.589-.54.771-.963.185-.423.277-.943.277-1.56zm11.258 0c0 .952-.181 1.762-.541 2.429a3.752 3.752 0 01-1.466 1.53c-.617.35-1.31.524-2.08.524-.775 0-1.472-.176-2.088-.528a3.762 3.762 0 01-1.462-1.53c-.358-.668-.537-1.476-.537-2.425 0-.951.179-1.761.537-2.429.358-.667.846-1.176 1.462-1.525.616-.352 1.313-.529 2.088-.529.77 0 1.463.177 2.08.529.619.349 1.108.858 1.466 1.525.36.668.541 1.478.541 2.429zm-1.871 0c0-.616-.092-1.136-.277-1.559-.182-.424-.439-.745-.771-.963a2.076 2.076 0 00-1.168-.328c-.446 0-.835.109-1.168.328-.332.218-.59.539-.775.963-.182.423-.273.943-.273 1.559 0 .617.091 1.137.273 1.56.185.423.443.744.775.963.333.219.722.328 1.168.328.446 0 .835-.109 1.168-.328.332-.219.589-.54.771-.963.185-.423.277-.943.277-1.56zm3.238 4.364v-8.727h1.845v3.848h.115l3.14-3.848h2.212l-3.239 3.907 3.277 4.82h-2.207l-2.391-3.588-.907 1.108V295h-1.845z"/><defs><linearGradient id="prefix__paint0_linear" x1="21832.3" x2="23357.2" y1="29203.2" y2="18201.2" gradientUnits="userSpaceOnUse"><stop stop-color="gray" stop-opacity=".25"/><stop offset=".535" stop-color="gray" stop-opacity=".12"/><stop offset="1" stop-color="gray" stop-opacity=".1"/></linearGradient></defs></svg>