<svg xmlns="http://www.w3.org/2000/svg" width="418" height="366" fill="none" viewBox="0 0 418 366">
    <path fill="#0063A9" d="M5 283c0-8.837 7.163-16 16-16h43c8.837 0 16 7.163 16 16v43c0 8.837-7.163 16-16 16H21c-8.837 0-16-7.163-16-16v-43zM318 228c0-8.837 7.163-16 16-16h68c8.837 0 16 7.163 16 16v68c0 8.837-7.163 16-16 16h-68c-8.837 0-16-7.163-16-16v-68zM35 59c0-8.837 7.163-16 16-16h68c8.837 0 16 7.163 16 16v68c0 8.837-7.163 16-16 16H51c-8.837 0-16-7.163-16-16V59zM280 10c0-5.523 4.477-10 10-10h25c5.523 0 10 4.477 10 10v25c0 5.523-4.477 10-10 10h-25c-5.523 0-10-4.477-10-10V10zM355 85c0-5.523 4.477-10 10-10h43c5.523 0 10 4.477 10 10v43c0 5.523-4.477 10-10 10h-43c-5.523 0-10-4.477-10-10V85zM201.027 313c0-2.209 1.791-4 4-4h29c2.209 0 4 1.791 4 4v29c0 2.209-1.791 4-4 4h-29c-2.209 0-4-1.791-4-4v-29z"/>
    <path fill="#FF8F00" d="M366.713 169.194l13.372 1.703-8.161 10.729-5.211-12.432zM56.713 74.194l13.372 1.703-8.16 10.729-5.212-12.432z"/>
    <path fill="#FFF9C4" d="M21.68 225.249l8.527 10.439-13.304 2.166 4.777-12.605zM247.68 336.249l8.527 10.439-13.304 2.166 4.777-12.605zM308.68 273.249l8.527 10.439-13.304 2.166 4.777-12.605z"/>
    <path fill="#FFD037" d="M262.004 15.544l-9.655 9.407-3.319-13.064 12.974 3.657z"/>
    <path fill="#8CC440" d="M110.68 325.249l8.527 10.439-13.304 2.166 4.777-12.605zM331.68 121.249l8.527 10.439-13.304 2.166 4.777-12.605zM132 18c0 2.21-1.791 4-4 4s-4-1.79-4-4 1.791-4 4-4 4 1.79 4 4zM378 58c0 2.21-1.791 4-4 4s-4-1.79-4-4 1.791-4 4-4 4 1.79 4 4zM394 220c0 2.209-1.791 4-4 4s-4-1.791-4-4 1.791-4 4-4 4 1.791 4 4z"/>
    <path fill="#FF8F00" d="M296 49c0 2.21-1.791 4-4 4s-4-1.79-4-4 1.791-4 4-4 4 1.79 4 4zM253 325c0 2.209-1.791 4-4 4s-4-1.791-4-4 1.791-4 4-4 4 1.791 4 4zM91 187c0 2.209-1.79 4-4 4s-4-1.791-4-4 1.79-4 4-4 4 1.791 4 4z"/>
    <path fill="#fff" fill-opacity=".3" fill-rule="evenodd" d="M138.494 22.743L139.5 16l1.006 6.743 4.435 29.725 36.532 15.565 4.664 1.987h-3.855v3.353h3.358c.549 0 .995.444.995.993 0 .549-.446.993-.995.993h-3.358v2.733h3.358c.549 0 .995.444.995.993 0 .549-.446.993-.995.993h-8.706c-.549 0-.995-.444-.995-.993 0-.549.446-.993.995-.993h3.358v-2.733h-3.358c-.549 0-.995-.444-.995-.993 0-.549.446-.993.995-.993h3.358V70.02h-32.733l7.886 52.863 51.846 18.045 5.709 1.987h-7.089v3.477h3.358c.55 0 .995.445.995.994 0 .548-.445.993-.995.993h-3.358v2.732h3.358c.55 0 .995.445.995.994 0 .548-.445.993-.995.993h-8.706c-.549 0-.994-.445-.994-.993 0-.549.445-.994.994-.994h3.358v-2.732h-3.358c-.549 0-.994-.445-.994-.993 0-.549.445-.994.994-.994h3.358v-3.477h-45.487l12.542 84.072h7.45v15.026h22.137c.55 0 .995.445.995.994 0 .548-.445.993-.995.993H79.307c-.55 0-.995-.445-.995-.993 0-.549.446-.994.995-.994h21.515v-15.026h6.972l.263-.224 12.509-83.848H72.591v3.477h3.358c.55 0 .995.445.995.994 0 .548-.445.993-.995.993h-3.358v2.732h3.358c.55 0 .995.445.995.994 0 .548-.445.993-.995.993h-8.705c-.55 0-.995-.445-.995-.993 0-.549.445-.994.995-.994h3.358v-2.732h-3.358c-.55 0-.995-.445-.995-.993 0-.549.445-.994.995-.994h3.358v-3.477H66l5.709-1.987 51.846-18.045 2.702-18.113c-.041-.11-.064-.228-.064-.352 0-.228.077-.438.207-.606l5.041-33.792H99.703v3.353h3.358c.549 0 .995.444.995.993 0 .549-.446.993-.995.993h-3.358v2.733h3.358c.549 0 .995.444.995.993 0 .549-.446.993-.995.993h-8.706c-.55 0-.995-.444-.995-.993 0-.549.446-.993.995-.993h3.358v-2.733h-3.358c-.55 0-.995-.444-.995-.993 0-.549.446-.993.995-.993h3.358V70.02h-4.85l4.664-1.987 36.532-15.565 4.435-29.725zm-30.767 206.231h68.71v12.915h-73.625v-12.915h4.915zm61.237-1.987h-58.101l51.56-43.845 6.541 43.845zm-12.542-84.072l5.466 36.637-37.736-36.637h32.27zm-.296-1.987h-31.512l16.181-21.04 12.86 4.476 2.471 16.564zm-33.066-1.241l15.257-19.838-12.972 4.515-2.285 15.323zm30.263-17.542l-11.251-3.916 8.934-11.617 2.317 15.533zm-7.776-52.125l4.395 29.458-15.643-29.458h11.248zm-17.078 33.405l4.675-31.337 16.641 31.337h-21.316zm20.952 1.987h-21.248l-2.496 16.733 13.823-4.812.593.207 9.328-12.128zm10.761 75.255l-37.766-36.666-5.47 36.666h43.236zm-49.821 44.136l6.289-42.149h43.279l-49.568 42.149zm23.354-170.028l-31.118 13.258h29.14l1.978-13.258zm.034 13.258l2.115-14.173 3.636-1.55 3.636 1.55 2.115 14.173h-11.502zm13.514 0h29.14l-31.118-13.258 1.978 13.258zm-4.471-16.48L139.5 50.15l-3.292 1.403 3.292-22.068 3.292 22.068zm-65.038 89.375l45.469-15.825-2.36 15.825H77.754zm78.022-15.825l2.361 15.825h43.109l-45.47-15.825z" clip-rule="evenodd"/>
    <path fill="#fff" fill-opacity=".3" fill-rule="evenodd" d="M72.494 49.743L73.5 43l1.006 6.743 4.434 29.725 36.533 15.565 4.664 1.987h-3.855v3.353h3.358c.549 0 .995.444.995.993 0 .549-.446.993-.995.993h-3.358v2.733h3.358c.549 0 .995.444.995.993 0 .549-.446.993-.995.993h-8.706c-.549 0-.995-.444-.995-.993 0-.549.446-.993.995-.993h3.358v-2.733h-3.358c-.549 0-.995-.444-.995-.993 0-.549.446-.993.995-.993h3.358V97.02H81.559l7.886 52.863 51.846 18.045 5.709 1.987h-7.089v3.477h3.358c.55 0 .995.445.995.994 0 .548-.445.993-.995.993h-3.358v2.732h3.358c.55 0 .995.445.995.994 0 .548-.445.993-.995.993h-8.706c-.549 0-.994-.445-.994-.993 0-.549.445-.994.994-.994h3.358v-2.732h-3.358c-.549 0-.994-.445-.994-.993 0-.549.445-.994.994-.994h3.358v-3.477H92.434l12.542 84.072h7.45v15.026h22.137c.55 0 .995.445.995.994 0 .548-.445.993-.995.993H13.307c-.55 0-.995-.445-.995-.993 0-.549.446-.994.995-.994h21.515v-15.026h6.972l.263-.224 12.51-83.848H6.59v3.477H9.95c.55 0 .995.445.995.994 0 .548-.445.993-.995.993H6.591v2.732H9.95c.55 0 .995.445.995.994 0 .548-.445.993-.995.993H1.244c-.55 0-.995-.445-.995-.993 0-.549.445-.994.995-.994h3.358v-2.732H1.244c-.55 0-.995-.445-.995-.993 0-.549.445-.994.995-.994h3.358v-3.477H0l5.709-1.987 51.846-18.045 2.702-18.113c-.041-.11-.064-.228-.064-.352 0-.228.077-.438.207-.606L65.44 97.02H33.703v3.353h3.358c.55 0 .995.444.995.993 0 .549-.446.993-.995.993h-3.358v2.733h3.358c.55 0 .995.444.995.993 0 .549-.446.993-.995.993h-8.706c-.55 0-.995-.444-.995-.993 0-.549.446-.993.995-.993h3.358v-2.733h-3.358c-.55 0-.995-.444-.995-.993 0-.549.446-.993.995-.993h3.358V97.02h-4.85l4.664-1.987 36.532-15.565 4.435-29.725zM41.727 255.974h68.71v12.915H36.812v-12.915h4.915zm61.237-1.987H44.863l51.56-43.845 6.541 43.845zm-12.542-84.072l5.466 36.637-37.736-36.637h32.27zm-.296-1.987H58.614l16.182-21.04 12.858 4.476 2.472 16.564zm-33.067-1.241l15.258-19.838-12.971 4.515-2.286 15.323zm30.264-17.542l-11.25-3.916 8.933-11.617 2.317 15.533zM79.547 97.02l4.395 29.458L68.299 97.02h11.248zM62.47 130.425l4.675-31.338 16.641 31.338H62.47zm20.952 1.987H62.172l-2.496 16.733 13.823-4.812.593.207 9.328-12.128zm10.76 75.255l-37.765-36.666-5.47 36.666h43.236zm-49.82 44.136l6.289-42.149h43.28L44.36 251.803zM67.715 81.775L36.597 95.033h29.14l1.978-13.258zm.034 13.258l2.115-14.173 3.636-1.55 3.636 1.55 2.115 14.173H67.749zm13.514 0h29.14L79.285 81.775l1.978 13.258zm-4.47-16.48L73.5 77.15l-3.292 1.403L73.5 56.485l3.292 22.068zm-65.039 89.375l45.47-15.825-2.361 15.825H11.753zm78.022-15.825l2.362 15.825h43.108l-45.47-15.825z" clip-rule="evenodd"/>
    <path fill="#fff" d="M295.116 142.628h-1.378V104.86c0-2.871-.566-5.714-1.664-8.366-1.099-2.652-2.709-5.062-4.739-7.091-2.03-2.03-4.44-3.64-7.092-4.74-2.652-1.098-5.494-1.663-8.365-1.663H191.86c-2.871 0-5.714.565-8.366 1.664-2.652 1.099-5.062 2.709-7.091 4.739-2.03 2.03-3.64 4.44-4.739 7.091-1.099 2.652-1.664 5.495-1.664 8.366v207.202c0 2.871.565 5.714 1.664 8.366 1.099 2.652 2.709 5.062 4.739 7.092 2.029 2.029 4.439 3.64 7.091 4.738 2.652 1.099 5.495 1.664 8.366 1.664h80.018c2.871 0 5.713-.565 8.365-1.664 2.652-1.098 5.062-2.709 7.092-4.738 2.03-2.03 3.64-4.44 4.739-7.092 1.098-2.652 1.664-5.495 1.664-8.366V169.513h1.378v-26.885z"/>
    <path fill="#004F95" d="M272.728 88.688h-10.445c.481 1.177.664 2.455.534 3.72-.13 1.265-.569 2.48-1.278 3.535-.709 1.055-1.668 1.92-2.79 2.518-1.122.598-2.375.911-3.647.911h-45.841c-1.272 0-2.524-.313-3.647-.91-1.122-.599-2.08-1.464-2.79-2.52-.709-1.055-1.148-2.269-1.278-3.534-.129-1.265.054-2.543.534-3.72h-9.755c-2.144 0-4.267.422-6.248 1.242-1.98.82-3.78 2.023-5.296 3.539-1.516 1.516-2.718 3.315-3.538 5.296-.821 1.98-1.243 4.103-1.243 6.247v206.899c0 2.144.422 4.266 1.243 6.247.82 1.981 2.022 3.78 3.538 5.296 1.516 1.516 3.316 2.718 5.296 3.539 1.981.82 4.104 1.242 6.248 1.242h80.403c2.144 0 4.267-.422 6.247-1.242 1.981-.821 3.781-2.023 5.296-3.539 1.516-1.516 2.719-3.315 3.539-5.296.821-1.981 1.243-4.103 1.243-6.247V105.012c0-4.33-1.72-8.482-4.782-11.543-3.061-3.062-7.213-4.781-11.543-4.781z"/>
    <path fill="#0277BD" d="M188 124c0-5.523 4.477-10 10-10h71c5.523 0 10 4.477 10 10v47c0 5.523-4.477 10-10 10h-71c-5.523 0-10-4.477-10-10v-47zM188 197c0-4.418 3.582-8 8-8h75c4.418 0 8 3.582 8 8s-3.582 8-8 8h-75c-4.418 0-8-3.582-8-8zM188 231c0-4.418 3.582-8 8-8h4c4.418 0 8 3.582 8 8s-3.582 8-8 8h-4c-4.418 0-8-3.582-8-8zM188 255c0-4.418 3.582-8 8-8h4c4.418 0 8 3.582 8 8s-3.582 8-8 8h-4c-4.418 0-8-3.582-8-8zM188 279c0-4.418 3.582-8 8-8h4c4.418 0 8 3.582 8 8s-3.582 8-8 8h-4c-4.418 0-8-3.582-8-8zM223 231c0-4.418 3.582-8 8-8h4c4.418 0 8 3.582 8 8s-3.582 8-8 8h-4c-4.418 0-8-3.582-8-8zM223 255c0-4.418 3.582-8 8-8h4c4.418 0 8 3.582 8 8s-3.582 8-8 8h-4c-4.418 0-8-3.582-8-8zM223 279c0-4.418 3.582-8 8-8h4c4.418 0 8 3.582 8 8s-3.582 8-8 8h-4c-4.418 0-8-3.582-8-8zM258 231c0-4.418 3.582-8 8-8h4c4.418 0 8 3.582 8 8s-3.582 8-8 8h-4c-4.418 0-8-3.582-8-8zM258 255c0-4.418 3.582-8 8-8h4c4.418 0 8 3.582 8 8s-3.582 8-8 8h-4c-4.418 0-8-3.582-8-8zM258 279c0-4.418 3.582-8 8-8h4c4.418 0 8 3.582 8 8s-3.582 8-8 8h-4c-4.418 0-8-3.582-8-8z"/>
    <path fill="#fff" fill-rule="evenodd" d="M254.585 171c3.138-4.41 4.986-9.82 4.986-15.667 0-14.832-11.896-26.857-26.571-26.857s-26.571 12.025-26.571 26.857c0 5.847 1.848 11.257 4.986 15.667h-5.268c-2.637-4.609-4.147-9.959-4.147-15.667C202 138.028 215.879 124 233 124c17.121 0 31 14.028 31 31.333 0 5.708-1.51 11.058-4.147 15.667h-5.268zm-16.351-13.382c-2.594 2.622-6.8 2.622-9.394 0-2.594-2.622-2.594-6.873 0-9.495 2.594-2.623 16.66-7.401 16.66-7.401s-4.671 14.274-7.266 16.896z" clip-rule="evenodd"/>
    <path fill="#fff" d="M234.323 131.039c0 .509-.202.996-.562 1.356-.359.359-.847.561-1.356.561-.508 0-.996-.202-1.355-.561-.36-.36-.562-.847-.562-1.356" opacity=".2"/>
    <path fill="#fff" fill-rule="evenodd" d="M191 56.5h43V79h-2V58.5h-41v-2zM151 255h-20v104h2V257h18v-2z" clip-rule="evenodd"/>
    <path fill="#fff" d="M151.666 138.821c-4.818 8.685-4.412 18.899.232 26.959l-5.067 8.776c-8.875-11.376-10.49-27.449-2.832-40.713.673-1.165 1.4-2.278 2.176-3.339l5.491 8.317zM132.049 131.562c-8.939 15.481-6.649 34.365 4.342 47.22l-4.786 8.289c-15.261-15.691-18.943-40.179-7.458-60.072 1.781-3.085 3.84-5.909 6.128-8.46l5.238 7.934c-1.261 1.584-2.421 3.282-3.464 5.089z"/>
    <path fill="#fff" fill-rule="evenodd" d="M256 75V63h67v2h-65v10h-2zM226 342v20h84v-2h-82v-18h-2z" clip-rule="evenodd"/>
    <path fill="#0063A9" d="M348.955 339.737c22.706 0 41.112-3.773 41.112-8.427s-18.406-8.427-41.112-8.427c-22.705 0-41.111 3.773-41.111 8.427s18.406 8.427 41.111 8.427z"/>
    <path fill="#FFB8B8" d="M305.38 206.33l-5.399-.936s-11.035-5.092-11.704-1.236c-.669 3.857 9.862 7.273 9.862 7.273l11.334-1.212-4.093-3.889z"/>
    <path fill="#575A89" d="M336.785 167.281l-7.563 34.443-25.25 3.566-.968 10.161 32.561.086 16.285-29.752-15.065-18.504z"/>
    <path fill="#C12E7E" d="M336.785 167.281l-7.563 34.443-25.25 3.566-.968 10.161 32.561.086 16.285-29.752-15.065-18.504z" opacity=".2"/>
    <path fill="#FFB8B8" d="M298.352 177.271l-3.853-3.896s-6.03-10.552-8.814-7.8c-2.783 2.752 3.81 11.647 3.81 11.647l9.933 5.591-1.076-5.542z"/>
    <path fill="#2F2E41" d="M351.435 156.39l4.743-1.156c1.811.002 3.599-.398 5.235-1.171 1.637-.774 3.081-1.902 4.228-3.302 1.147-1.4 1.968-3.038 2.405-4.795.436-1.756.477-3.588.118-5.363.005-4.233-1.671-8.295-4.661-11.292-2.99-2.998-7.048-4.685-11.281-4.69-4.234-.005-8.296 1.671-11.293 4.661-2.997 2.99-4.684 7.048-4.69 11.281-.613 2.136-.655 4.394-.121 6.551.533 2.156 1.624 4.135 3.163 5.738 1.538 1.602 3.471 2.773 5.604 3.394s4.391.671 6.55.144zM323.535 235.443l3.861 42.28 6.994 41.5 11.742.014-1.514-40.71-6.201-49.328-14.882 6.244z"/>
    <path fill="#2F2E41" d="M335.955 316.879l-7.834 4.687s-12.528 1.55-10.184 5.467c2.343 3.918 29.746 1.603 29.748.038.002-1.566-.77-10.178-2.336-10.18l-9.394-.012zM358.195 231.793s-.22 6.045-5.712 15.432l.747 28.967 28.137 36.046-10.188 8.599-34.396-39.186-8.553-46.982 10.974-10.946 18.991 8.07z"/>
    <path fill="#2F2E41" d="M379.019 312.234s9.393 1.578 7.822 5.49c-1.571 3.913-5.507 21.913-15.682 19.552 0 0-4.697-.006-3.127-3.135.943-1.883 1.991-3.711 3.138-5.477l.013-10.177 7.836-6.253z"/>
    <path fill="#FFB8B8" d="M346.348 157.189c6.486 0 11.743-5.258 11.743-11.743s-5.257-11.743-11.743-11.743c-6.485 0-11.743 5.258-11.743 11.743s5.258 11.743 11.743 11.743z"/>
    <path fill="#FFB8B8" d="M351.82 153.279l-.017 13.309-12.526-.016 1.582-13.306 10.961.013z"/>
    <path fill="#C12E7E" d="M359.54 237.052l-7.771-1.3c-9.913-1.666-20.066-1.239-29.804 1.255l3.515-34.99.457-4.561.98-9.767s-3.388-12.87 1.585-17.218c6.069-5.308 11.443-9.533 11.443-9.533l11.864.949c6.634 13.226 5.196 29.85.722 47.759l7.009 27.406z"/>
    <path fill="#C12E7E" d="M346.587 163.703l-26.151 23.657-22.63-11.753-4.751 5.815 19.99 17.614c1.373.984 2.987 1.58 4.671 1.725 1.684.144 3.375-.168 4.897-.904l25.501-12.342-1.527-23.812z"/>
    <path fill="#2F2E41" d="M369.018 136.793c4.184 0 7.576-3.392 7.576-7.576 0-4.184-3.392-7.576-7.576-7.576-4.185 0-7.577 3.392-7.577 7.576 0 4.184 3.392 7.576 7.577 7.576z"/>
    <path fill="#2F2E41" d="M362.026 125.144c.001-1.121.251-2.227.731-3.24.48-1.013 1.179-1.906 2.047-2.615.867-.71 1.881-1.218 2.969-1.489 1.088-.27 2.222-.295 3.32-.074-.969-.458-2.025-.705-3.097-.725-1.072-.019-2.136.189-3.121.611-.986.423-1.87 1.049-2.595 1.839-.725.79-1.275 1.725-1.611 2.743-.337 1.017-.454 2.095-.343 3.162.111 1.066.447 2.097.986 3.024.539.926 1.268 1.728 2.14 2.352.872.624 1.867 1.055 2.918 1.266-1.3-.612-2.399-1.582-3.168-2.796-.769-1.214-1.177-2.621-1.176-4.058zM355.528 129.439l-10.214-1.88-7.855 4.923c-1.931 1.21-3.475 2.949-4.448 5.01-.973 2.061-1.334 4.358-1.041 6.618l7.867-1.994 1.762-4.417c1.131 1.848 2.71 3.381 4.591 4.457 4.458 2.559 5.491 7.998 6.018 13.863l8.617-4.686 5.491-8.605-10.788-13.289z"/>
    <path fill="#000" d="M345.877 180.406l-20.397 21.612.457-4.561 19.94-17.051z" opacity=".2"/>
    <path fill="#00C24E" d="M190 311c0-4.971 4.029-9 9-9h68c4.971 0 9 4.029 9 9s-4.029 9-9 9h-68c-4.971 0-9-4.029-9-9z"/>
    <path fill="#fff" d="M221.758 316.001v-8.728h3.494c.642 0 1.178.096 1.607.286.429.19.751.454.967.793.216.335.324.721.324 1.159 0 .341-.068.64-.205.899-.136.255-.324.466-.562.63-.236.162-.506.277-.81.346v.085c.333.014.644.108.933.281.293.173.53.416.712.729.182.309.273.679.273 1.108 0 .463-.115.876-.345 1.24-.228.361-.564.646-1.01.856-.446.211-.996.316-1.649.316h-3.729zm1.845-1.509h1.504c.514 0 .889-.098 1.125-.294.236-.199.354-.463.354-.792 0-.242-.058-.455-.175-.64-.116-.184-.282-.329-.498-.434-.213-.105-.468-.158-.763-.158h-1.547v2.318zm0-3.567h1.368c.253 0 .477-.044.673-.132.199-.091.355-.218.469-.383.116-.165.175-.362.175-.593 0-.315-.113-.569-.337-.762-.222-.193-.537-.29-.946-.29h-1.402v2.16zM231.537 307.273v8.728h-1.846v-8.728h1.846zM233.055 316.001v-8.728h1.845v7.206h3.741v1.522h-5.586zM239.863 316.001v-8.728h1.845v7.206h3.742v1.522h-5.587z"/>
    <path fill="#004F95" d="M200 256c0 14.359-11.641 26-26 26s-26-11.641-26-26 11.641-26 26-26 26 11.641 26 26z"/>
    <path fill="#fff" fill-rule="evenodd" d="M204 256c0 16.569-13.431 30-30 30-16.569 0-30-13.431-30-30 0-16.569 13.431-30 30-30 16.569 0 30 13.431 30 30zm-30 26c14.359 0 26-11.641 26-26s-11.641-26-26-26-26 11.641-26 26 11.641 26 26 26z" clip-rule="evenodd"/>
    <path fill="#fff" d="M184 242h-19v16.364h4.509L168.864 272l13.204-15.806h-5.939L184 242z"/>
    <path fill="#004F95" d="M160 291.5c0 2.485-2.015 4.5-4.5 4.5s-4.5-2.015-4.5-4.5 2.015-4.5 4.5-4.5 4.5 2.015 4.5 4.5z"/>
    <path fill="#fff" fill-rule="evenodd" d="M155.5 295c1.933 0 3.5-1.567 3.5-3.5s-1.567-3.5-3.5-3.5-3.5 1.567-3.5 3.5 1.567 3.5 3.5 3.5zm0 1c2.485 0 4.5-2.015 4.5-4.5s-2.015-4.5-4.5-4.5-4.5 2.015-4.5 4.5 2.015 4.5 4.5 4.5z" clip-rule="evenodd"/>
    <path fill="#004F95" d="M151 301.5c0 1.381-1.119 2.5-2.5 2.5s-2.5-1.119-2.5-2.5 1.119-2.5 2.5-2.5 2.5 1.119 2.5 2.5z"/>
    <path fill="#fff" fill-rule="evenodd" d="M148.5 303c.828 0 1.5-.672 1.5-1.5s-.672-1.5-1.5-1.5-1.5.672-1.5 1.5.672 1.5 1.5 1.5zm0 1c1.381 0 2.5-1.119 2.5-2.5s-1.119-2.5-2.5-2.5-2.5 1.119-2.5 2.5 1.119 2.5 2.5 2.5z" clip-rule="evenodd"/>
    <path fill="#004F95" d="M145 308.5c0 .828-.672 1.5-1.5 1.5s-1.5-.672-1.5-1.5.672-1.5 1.5-1.5 1.5.672 1.5 1.5z"/>
    <path fill="#fff" fill-rule="evenodd" d="M143.5 309c.276 0 .5-.224.5-.5s-.224-.5-.5-.5-.5.224-.5.5.224.5.5.5zm0 1c.828 0 1.5-.672 1.5-1.5s-.672-1.5-1.5-1.5-1.5.672-1.5 1.5.672 1.5 1.5 1.5z" clip-rule="evenodd"/>
    <path fill="#fff" d="M329 63.5c0 2.485-2.015 4.5-4.5 4.5s-4.5-2.015-4.5-4.5 2.015-4.5 4.5-4.5 4.5 2.015 4.5 4.5zM196 57.5c0 2.485-2.015 4.5-4.5 4.5s-4.5-2.015-4.5-4.5 2.015-4.5 4.5-4.5 4.5 2.015 4.5 4.5zM136 358.5c0 2.485-2.015 4.5-4.5 4.5s-4.5-2.015-4.5-4.5 2.015-4.5 4.5-4.5 4.5 2.015 4.5 4.5zM314 361.5c0 2.485-2.015 4.5-4.5 4.5s-4.5-2.015-4.5-4.5 2.015-4.5 4.5-4.5 4.5 2.015 4.5 4.5z"/>
</svg>
