<svg xmlns="http://www.w3.org/2000/svg" width="476" height="336" fill="none" viewBox="0 0 476 336">
    <path fill="#2479BD" d="M0 0H476V336H0z" transform="matrix(-1 0 0 1 476 0)"/>
    <path fill="#388DD1" d="M170.568 90.818l14.063 44.205h.539l14.091-44.205h13.637L192.841 149h-15.852l-20.086-58.182h13.665zM232.202 90.818V149H219.9V90.818h12.302zM273.885 107.551c-.227-2.292-1.203-4.072-2.926-5.341-1.724-1.269-4.063-1.903-7.017-1.903-2.008 0-3.703.284-5.086.852-1.382.549-2.443 1.316-3.181 2.301-.72.985-1.08 2.102-1.08 3.352-.038 1.042.18 1.951.653 2.728.493.776 1.165 1.449 2.018 2.017.852.549 1.837 1.032 2.954 1.449 1.118.397 2.311.738 3.58 1.022l5.227 1.25c2.538.569 4.867 1.326 6.989 2.273 2.121.947 3.958 2.112 5.511 3.494 1.553 1.383 2.756 3.012 3.608 4.887.871 1.875 1.316 4.024 1.335 6.449-.019 3.56-.928 6.647-2.727 9.261-1.78 2.595-4.356 4.612-7.727 6.051-3.353 1.421-7.396 2.131-12.131 2.131-4.697 0-8.788-.72-12.273-2.159-3.466-1.44-6.174-3.57-8.125-6.392-1.932-2.841-2.945-6.354-3.04-10.54h11.904c.132 1.951.691 3.579 1.676 4.886 1.004 1.288 2.339 2.264 4.006 2.926 1.685.644 3.589.966 5.71.966 2.083 0 3.892-.303 5.426-.909 1.553-.606 2.756-1.449 3.608-2.528.852-1.08 1.278-2.32 1.278-3.722 0-1.307-.388-2.405-1.164-3.295-.758-.89-1.875-1.648-3.353-2.273-1.458-.625-3.248-1.193-5.369-1.704l-6.335-1.591c-4.906-1.194-8.779-3.059-11.62-5.597-2.841-2.538-4.251-5.956-4.233-10.256-.018-3.522.919-6.6 2.813-9.233 1.913-2.632 4.536-4.687 7.869-6.164 3.334-1.478 7.121-2.216 11.364-2.216 4.318 0 8.087.738 11.307 2.216 3.238 1.477 5.757 3.532 7.557 6.164 1.799 2.633 2.727 5.682 2.784 9.148h-11.79zM307.045 90.818V149h-12.301V90.818h12.301zM421.378 90.818V149h-10.625l-25.313-36.619h-.426V149h-12.301V90.818h10.795l25.114 36.591h.511v-36.59h12.245z"/>
    <path fill="#FBBEBE" d="M45.899 299.723h2.274v4.874H45.9v-4.874zM28.189 299.886h2.274v4.874H28.19v-4.874z"/>
    <path fill="#2F2E41" d="M27.945 302.242l2.762-.325 7.15-32.983 7.798 33.145 2.762-.325c.456-14.997-.876-30.001-2.03-42.487l-16.492-1.382c-3.107 12.305-3.235 27.618-1.95 44.357z"/>
    <path fill="#FBBEBE" d="M29.66 259.837s3.841 4.008 1.67 5.01c-2.17 1.002-3.507-4.509-3.507-4.509l1.837-.501zM49.32 260.162s3.841 4.008 1.67 5.01c-2.171 1.002-3.507-4.509-3.507-4.509l1.837-.501zM37.612 231.158c-2.512 0-4.55-2.037-4.55-4.55 0-2.512 2.038-4.549 4.55-4.549 2.513 0 4.55 2.037 4.55 4.549 0 2.513-2.037 4.55-4.55 4.55z"/>
    <path fill="#FBBEBE" d="M32.332 236.113l8.124.813c-.751-3.381-.933-6.539 0-9.261h-5.687c.309 2.268-.846 5.252-2.437 8.448z"/>
    <path fill="#6398FF" d="M30.057 259.673c3.036 3.651 9.415 2.43 16.735-.163-2.077-6.781-1.755-13.934.112-21.328.101-.398.06-.818-.119-1.188-.178-.369-.482-.664-.856-.831l-5.96-2.649-2.276.487-3.899-.975-5.535 1.133c-.45.092-.852.342-1.134.705-.281.363-.423.815-.4 1.274.463 9.076 1.282 17.475 3.332 23.535z"/>
    <path fill="#6398FF" d="M28.432 262.597l1.463-2.437-2.763-10.399 1.463-15.598c-.944.095-1.832.486-2.538 1.119-.706.633-1.193 1.474-1.39 2.401l-2.218 10.458c-.334 1.577-.134 3.22.57 4.669l5.413 9.787zM47.442 260.81l3.33.569-2.123-20.791c-.02-1.038-.346-2.046-.937-2.9-.59-.853-1.419-1.514-2.382-1.899l-1.056 13.729 3.168 11.292z"/>
    <path fill="#2F2E41" d="M46.764 306.301l6.13 1.077c.279.049.565.01.82-.11.203-.096.379-.239.513-.419.133-.179.221-.388.255-.609.034-.222.013-.448-.06-.659-.074-.211-.198-.401-.363-.553l-2.626-2.43-.685-1.196c-.192-.347-.467-.641-.8-.856-.333-.215-.713-.345-1.108-.379-1.171-.081-1.558.81-1.313 2.483-.889.654-1.03.554-1.628-.327l-.272 2.758c.031.3.159.581.364.801.205.22.476.367.773.419zM29.054 306.301l6.13 1.077c.279.049.565.01.82-.11.203-.096.379-.239.513-.419.133-.179.221-.388.255-.609.034-.222.013-.448-.06-.659-.074-.211-.198-.401-.363-.553l-2.626-2.43-.684-1.196c-.193-.347-.468-.641-.8-.856-.334-.215-.714-.345-1.11-.379-1.17-.081-1.556.81-1.312 2.483-.889.654-1.03.554-1.628-.327l-.272 2.758c.031.3.159.581.364.801.205.22.476.367.773.419zM41.224 224.016c-2.05-1.173-4.103-.423-6.16 2.778l-.42 3.41c-3.088-2.925-2.932-6.916.53-8.539.34-.16.67-.341 1.04-.277.733-.393 1.587-.492 2.39-.276.802.215 1.492.729 1.928 1.436.64.11 1.557 1.381 1.524 2.029l-.832-.561z"/>
    <path fill="#FBBEBE" d="M35.257 227.583c-.314 0-.57-.327-.57-.731 0-.404.256-.731.57-.731.314 0 .568.327.568.731 0 .404-.254.731-.569.731z"/>
    <path fill="#E6E6E6" d="M298.761 150.045H66.422v148.799h232.339V150.045z"/>
    <path fill="#fff" d="M170.844 170.026H86.967v86.189h83.877v-86.189zM286.093 171.698h-83.878v104.681h83.878V171.698z"/>
    <path fill="#1065A9" d="M284.975 309.663c8.298 0 15.025-.961 15.025-2.146 0-1.186-6.727-2.147-15.025-2.147s-15.025.961-15.025 2.147c0 1.185 6.727 2.146 15.025 2.146zM134.755 309.712c8.298 0 15.025-.961 15.025-2.147 0-1.185-6.727-2.146-15.025-2.146s-15.026.961-15.026 2.146c0 1.186 6.728 2.147 15.026 2.147zM73.484 307.719c19.045 0 34.483-.74 34.483-1.652 0-.912-15.438-1.651-34.483-1.651-19.045 0-34.484.739-34.484 1.651s15.439 1.652 34.484 1.652z"/>
    <path fill="#FF9B63" d="M298.661 149.913H66.323v9.871H298.66v-9.871z"/>
    <path fill="#E6E6E6" d="M73.658 156.789c1.01 0 1.83-.819 1.83-1.83 0-1.01-.82-1.829-1.83-1.829-1.01 0-1.83.819-1.83 1.829 0 1.011.82 1.83 1.83 1.83zM80.602 156.789c1.01 0 1.83-.819 1.83-1.83 0-1.01-.82-1.829-1.83-1.829-1.01 0-1.83.819-1.83 1.829 0 1.011.82 1.83 1.83 1.83zM87.546 156.789c1.01 0 1.83-.819 1.83-1.83 0-1.01-.82-1.829-1.83-1.829-1.01 0-1.83.819-1.83 1.829 0 1.011.82 1.83 1.83 1.83z"/>
    <path fill="#3F3D56" d="M267.6 199.776h-.508v-13.919c0-1.058-.208-2.105-.613-3.083-.405-.977-.998-1.865-1.747-2.613-.748-.748-1.636-1.342-2.613-1.747-.978-.404-2.025-.613-3.083-.613h-29.49c-1.058 0-2.105.209-3.083.613-.977.405-1.865.999-2.613 1.747-.748.748-1.342 1.636-1.747 2.613-.404.978-.613 2.025-.613 3.083v76.362c0 1.058.209 2.105.613 3.083.405.977.999 1.865 1.747 2.613.748.749 1.636 1.342 2.613 1.747.978.405 2.025.613 3.083.613h29.49c1.058 0 2.105-.208 3.083-.613.977-.405 1.865-.998 2.613-1.747.749-.748 1.342-1.636 1.747-2.613.405-.978.613-2.025.613-3.083v-52.535h.508v-9.908z"/>
    <path fill="#fff" d="M259.031 179.897h-3.85c.177.434.245.905.197 1.372-.048.466-.21.913-.471 1.302s-.615.708-1.028.928c-.414.221-.875.336-1.344.336h-16.894c-.469 0-.931-.115-1.344-.336-.414-.22-.767-.539-1.028-.928-.262-.389-.424-.836-.471-1.302-.048-.467.019-.938.196-1.372h-3.595c-.79 0-1.572.156-2.302.458-.73.303-1.393.746-1.952 1.305-.559.558-1.002 1.221-1.304 1.951-.303.73-.458 1.513-.458 2.303v76.249c0 .79.155 1.573.458 2.303.302.729.745 1.393 1.304 1.951.559.559 1.222 1.002 1.952 1.304.73.303 1.512.458 2.302.458h29.632c.79 0 1.572-.155 2.302-.458.73-.302 1.393-.745 1.952-1.304.558-.558 1.002-1.222 1.304-1.951.302-.73.458-1.513.458-2.303v-76.249c0-1.596-.634-3.126-1.762-4.254-1.129-1.129-2.659-1.763-4.254-1.763z"/>
    <path fill="#E6E6E6" d="M158.113 224.47H99.814v2.659h58.299v-2.659z"/>
    <path fill="#FF9B63" d="M158.113 233.056H99.814v2.659h58.299v-2.659z"/>
    <path fill="#E6E6E6" d="M158.113 241.642H99.814v2.659h58.299v-2.659zM261.562 230.272h-34.034v2.659h34.034v-2.659zM261.562 238.528h-34.034v2.659h34.034v-2.659zM261.562 246.783h-34.034v2.66h34.034v-2.66z"/>
    <path fill="#3F3D56" d="M265.121 288.076v-5.673h-5.673v5.673h5.673z"/>
    <path fill="#FF9B63" d="M255.982 288.076v-5.673h-5.672v5.673h5.672z"/>
    <path fill="#3F3D56" d="M246.843 288.076v-5.673h-5.672v5.673h5.672zM237.704 288.076v-5.673h-5.672v5.673h5.672zM228.565 288.076v-5.673h-5.672v5.673h5.672z"/>
    <path fill="#FF9B63" d="M253.669 195.811h-18.908v18.908h18.908v-18.908z"/>
    <path fill="#A0616A" d="M121.448 240.921l-.244.489-.735-3.671s-.979-3.916.979-3.916 1.469 3.916 1.469 3.916v2.692l-1.469.49zM153.56 240.42l.245.489.734-3.671s.979-3.916-.979-3.916-1.469 3.916-1.469 3.916v2.692l1.469.49z"/>
    <path fill="#2F2E41" d="M132.217 268.444l-2.937 18.111 1.468 17.621 3.427-1.468-.49-13.216 3.427-10.524.734 12.482-1.468 12.971 4.405.49 3.182-26.677-.245-9.056-11.503-.734z"/>
    <path fill="#2F2E41" d="M132.217 301.974l-1.713 2.692v6.015c0 .174.062.341.174.473.112.132.268.22.439.247.84.138 2.302.236 2.813-.617.735-1.223.245-3.915.245-3.915s.979-1.958.49-3.427c-.49-1.468-.979-1.713-.979-1.713l-1.469.245zM139.559 304.421l.49.734s.734.735.245 1.224c-.36.381-.687.79-.979 1.224 0 0-2.692.734-2.692-.245v-3.181l2.936.244z"/>
    <path fill="#A0616A" d="M138.677 248.525c1.792 0 3.245-1.453 3.245-3.245 0-1.791-1.453-3.244-3.245-3.244-1.791 0-3.244 1.453-3.244 3.244 0 1.792 1.453 3.245 3.244 3.245z"/>
    <path fill="#A0616A" d="M136.5 246.295l-.245 4.65 4.406.245-.245-4.65-3.916-.245z"/>
    <path fill="#2CCEF1" d="M141.272 251.312l-.694-1.697s-3.221-1.24-4.2-.016l-.49 1.468-3.916-.979-2.202 4.895 1.957 13.95s5.14 6.608 11.993.245l1.958-13.216-1.469-5.139-2.937.489z"/>
    <path fill="#2CCEF1" d="M143.72 251.802l.49-.979 4.895-2.937 2.987-8.843 2.311.991-2.606 10.544-7.098 6.608-.979-5.384zM132.461 250.578l-.489-.49-5.14-3.181-3.671-7.343-2.936.979 3.181 9.056 7.832 6.363 1.223-5.384z"/>
    <path fill="#2F2E41" d="M141.085 240.313l.53-.266-.795-.265v-.265s-3.978-1.591-4.509 1.061c-.684.92-1.054 2.036-1.054 3.182 0 1.147.37 2.263 1.054 3.183v.796l4.244.53.53-1.591s2.652-4.774 0-6.365zM133.607 50.098l-12.806 5.07 1.55 15.503-3.1 17.054 3.1 3.359 11.465-38.79-.209-2.196z"/>
    <path fill="#FFB8B8" d="M164.726 87.466l1.551.775s6.201 2.842 4.392 4.392c-1.808 1.55-6.718-1.55-6.718-1.55l-1.033-1.292 1.808-2.325z"/>
    <path fill="#2F2E41" d="M119.368 87.08l4.792 32.167 7.235 22.479 3.875-1.808-3.617-30.748 10.336-8.785-.776-12.92-21.845-.385z"/>
    <path fill="#2F2E41" d="M135.788 140.693s-4.393-2.325-4.651 1.034l.517 3.359s-1.551 5.943 3.617 4.651c5.168-1.292 1.55-5.168 1.55-5.168l-1.033-3.876zM138.629 97.543l3.359 2.842s0 17.57-2.325 20.154c-2.326 2.584-17.054 15.761-17.57 16.278-.517.517-2.843-5.168-2.843-5.168l13.953-16.278-1.033-10.077 6.459-7.751z"/>
    <path fill="#2F2E41" d="M120.801 130.875s-4.135-.775-4.135 2.067c-.051 2.247-.224 4.49-.516 6.718 0 0-1.034 9.044 2.325 7.752 3.359-1.292 4.651-10.336 4.651-10.336-.313-.751-.855-1.385-1.55-1.808-1.034-.517-.775-4.393-.775-4.393z"/>
    <path fill="#FFB8B8" d="M133.72 48.708l-.775 9.56 2.067 3.617 5.685-5.426.516-7.234-7.493-.517z"/>
    <path fill="#FFB8B8" d="M138.372 51.81c-3.425 0-6.202-2.777-6.202-6.202s2.777-6.201 6.202-6.201c3.424 0 6.201 2.776 6.201 6.201s-2.777 6.201-6.201 6.201z"/>
    <path fill="#F0F0F0" d="M135.788 58.01l-2.584-7.493-4.651 5.168-8.527 32.814 6.46 3.876 2.842-4.134.517 5.426 12.661-2.584 1.033-34.623-2.582-3.638-5.169 5.188z"/>
    <path fill="#2F2E41" d="M139.405 94.7l1.55-41.858 3.359 2.584 6.202 4.134-4.135 14.728-1.291 15.503-5.685 4.91z"/>
    <path fill="#2F2E41" d="M148.707 59.819l1.809-.259 5.168 15.245 10.335 12.92-3.876 4.134-11.885-11.628-4.393-9.56 2.842-10.852z"/>
    <path fill="#FFB8B8" d="M120.488 87.703l.353 1.697s1.613 6.628-.725 6.17c-2.337-.46-2.947-6.234-2.947-6.234l.374-1.611 2.945-.022z"/>
    <path fill="#2F2E41" d="M138.047 35.193l-1.82-.91v.91l-1.214-.607v1.517s-4.55 3.337-3.64 7.28c.91 3.945.91 4.248.91 4.248s1.151-7.5 5.701-6.287c4.551 1.214 4.917 1.433 6.131 4.77l.329 1.432s5.131-11.747-6.397-12.353zM122.61 55.168h-2.067l-3.359 18.087v15.761l4.134-.775 3.359-23.771-2.067-9.302z"/>
    <path fill="#FF9B63" d="M86.505 273H40.168v32.201h46.337V273z"/>
    <path fill="#fff" d="M63.336 279.283c-1.942 0-3.84.575-5.454 1.654-1.615 1.079-2.873 2.612-3.616 4.406-.743 1.794-.938 3.768-.559 5.672.379 1.905 1.314 3.654 2.687 5.027 1.373 1.373 3.122 2.308 5.027 2.687 1.904.378 3.878.184 5.672-.559 1.794-.743 3.327-2.001 4.406-3.616 1.078-1.614 1.654-3.512 1.654-5.454-.008-2.601-1.044-5.094-2.884-6.933-1.84-1.84-4.332-2.877-6.933-2.884zm0 2.945c.582 0 1.152.173 1.636.496.484.324.862.784 1.085 1.322.223.538.281 1.13.167 1.702-.113.571-.394 1.096-.806 1.508-.412.412-.936.692-1.508.806-.57.113-1.163.055-1.701-.168s-.998-.6-1.322-1.085c-.324-.484-.496-1.053-.496-1.636.002-.78.313-1.528.865-2.08.552-.551 1.3-.863 2.08-.865zm0 14.178c-1.164-.005-2.308-.294-3.335-.842-1.026-.548-1.904-1.338-2.555-2.301.047-1.964 3.926-3.044 5.89-3.044 1.963 0 5.843 1.08 5.89 3.044-.653.963-1.53 1.752-2.556 2.3-1.027.547-2.17.837-3.334.843z"/>
    <path fill="#E6E6E6" d="M157.965 179.933h-58.12v33.353h58.12v-33.353z"/>
    <path fill="#FFB8B8" d="M272.889 246.086l.269-1.737s1.57-3.568.329-3.76c-1.241-.193-2.276 3.204-2.276 3.204l.454 3.628 1.224-1.335z"/>
    <path fill="#575A89" d="M285.592 255.932l-11.089-2.227-1.289-8.077-3.264-.252.159 10.443 9.635 5.051 5.848-4.938z"/>
    <path fill="#7963FF" d="M285.592 255.932l-11.089-2.227-1.289-8.077-3.264-.252.159 10.443 9.635 5.051 5.848-4.938z" opacity=".2"/>
    <path fill="#FF9B63" d="M255.423 243.95h34.035v-2.659h-34.035v2.659z"/>
    <path fill="#FFB8B8" d="M270.722 245.49l.002-1.757s1.009-3.766-.246-3.767c-1.256-.002-1.762 3.513-1.762 3.513l1 3.517 1.006-1.506z"/>
    <path fill="#2F2E41" d="M285.157 250.524l1.522-.371c.58.001 1.154-.127 1.679-.375.525-.249.988-.61 1.356-1.059.368-.45.631-.975.771-1.538.14-.564.153-1.151.038-1.72.001-.673-.131-1.339-.387-1.96-.257-.622-.633-1.187-1.108-1.663-.475-.476-1.039-.853-1.66-1.112-.62-.258-1.286-.391-1.958-.392-.673-.001-1.339.131-1.96.387-.622.257-1.187.633-1.663 1.108-.476.475-.853 1.039-1.112 1.66-.258.621-.391 1.286-.392 1.959-.197.685-.21 1.409-.039 2.101.171.691.521 1.326 1.015 1.84.493.514 1.113.89 1.797 1.089.684.199 1.409.215 2.101.046zM276.208 275.88l1.239 13.561 2.243 13.311 3.766.005-.486-13.058-1.989-15.822-4.773 2.003z"/>
    <path fill="#2F2E41" d="M280.193 302l-2.513 1.503s-4.018.497-3.266 1.754c.751 1.256 9.541.514 9.541.012.001-.503-.247-3.265-.749-3.266l-3.013-.003zM287.326 274.708s-.071 1.939-1.832 4.95l.239 9.291 9.025 11.562-3.267 2.758-11.033-12.569-2.743-15.069 3.52-3.511 6.091 2.588z"/>
    <path fill="#2F2E41" d="M294.005 300.51s3.013.506 2.509 1.761-1.767 7.029-5.03 6.272c0 0-1.507-.002-1.003-1.006.303-.604.639-1.19 1.006-1.757l.005-3.264 2.513-2.006z"/>
    <path fill="#FFB8B8" d="M283.526 250.779c2.08 0 3.767-1.686 3.767-3.766s-1.687-3.767-3.767-3.767-3.766 1.687-3.766 3.767 1.686 3.766 3.766 3.766z"/>
    <path fill="#FFB8B8" d="M285.281 249.526l-.006 4.269-4.017-.005.507-4.268 3.516.004z"/>
    <path fill="#7963FF" d="M280.255 252.282l1.218-.299 3.804.306s2.006 2.011 1.755 2.513c-.252.502-1.523 12.804-1.523 12.804l2.249 8.791-8.036.492-4.017-.507.773-15.818s-1.752-4.271.509-5.524c1.278-.67 2.393-1.611 3.268-2.758z"/>
    <path fill="#7963FF" d="M284.774 253.292l-11.299-.516-2.501-7.787-3.265.246 1.745 10.298 10.291 3.528 5.029-5.769z"/>
    <path fill="#2F2E41" d="M290.797 244.238c1.342 0 2.43-1.088 2.43-2.43s-1.088-2.43-2.43-2.43-2.43 1.088-2.43 2.43 1.088 2.43 2.43 2.43z"/>
    <path fill="#2F2E41" d="M288.554 240.502c.001-.36.081-.715.235-1.039.154-.325.378-.612.656-.839.279-.228.604-.391.953-.478.349-.086.712-.094 1.065-.024-.311-.146-.65-.226-.994-.232-.343-.006-.685.061-1.001.196-.316.135-.6.337-.832.59-.233.253-.409.553-.517.879-.108.327-.145.673-.11 1.015.036.342.143.672.316.97.173.297.407.554.687.754.28.2.599.339.936.406-.417-.196-.77-.507-1.016-.897-.247-.389-.378-.84-.378-1.301zM286.47 241.88l-3.276-.604-2.519 1.579c-.62.389-1.115.946-1.427 1.607-.312.662-.428 1.398-.334 2.123l2.523-.639.565-1.417.673 1.103 2.73 4.773 2.764-1.503 1.762-2.76-3.461-4.262z"/>
    <path fill="#fff" d="M100.01 179.647l-.328.572 58.119 33.353.329-.573-58.12-33.352z"/>
    <path fill="#fff" d="M157.802 179.649L99.68 212.997l.329.573 58.122-33.348-.329-.573zM235.141 195.55l-.467.467 18.823 18.823.467-.467-18.823-18.823z"/>
    <path fill="#fff" d="M253.497 195.55l-18.823 18.823.467.467 18.823-18.823-.467-.467z"/>
    <path fill="#FFD363" d="M334.906 146.247h9.584c0 1.004-.398 1.966-1.108 2.676-.709.709-1.672 1.108-2.675 1.108h-2.018c-1.003 0-1.966-.399-2.675-1.108-.71-.71-1.108-1.672-1.108-2.676zM346.73 137.777v-3.516c0-4.249 4.62-8.267 7.618-11.134 4.225-4.039 6.445-9.465 6.445-15.821 0-5.585-2.214-10.941-6.158-14.896-3.943-3.954-9.294-6.184-14.878-6.2-5.585-.015-10.948 2.185-14.913 6.117-3.966 3.933-6.21 9.277-6.241 14.861v.118c0 6.129 2.316 11.923 6.446 15.821 2.981 2.814 7.618 6.841 7.618 11.134v3.516M344.386 144.602h-9.376c-.218 0-.427-.086-.582-.241-.154-.154-.24-.363-.24-.581 0-.218.086-.428.24-.582.155-.154.364-.241.582-.241h9.376c.218 0 .427.087.581.241.154.154.241.364.241.582 0 .218-.087.427-.241.581-.154.155-.363.241-.581.241zM317.886 87.919c-.199 0-.391-.072-.541-.203l-7.063-6.166c-.081-.07-.148-.157-.196-.254-.048-.097-.077-.202-.084-.31-.007-.108.007-.216.041-.318.034-.103.089-.197.16-.279.071-.081.157-.148.254-.196.097-.048.202-.076.31-.084.108-.007.216.007.319.042.102.035.197.089.278.16l7.063 6.165c.126.11.216.257.257.419.041.162.031.333-.028.49-.059.157-.164.292-.302.387-.137.096-.301.147-.468.147zM360.338 87.918c-.167 0-.331-.05-.468-.146-.138-.095-.243-.23-.302-.387s-.068-.328-.027-.49c.041-.163.13-.309.256-.419l7.063-6.165c.165-.143.379-.216.597-.2.217.014.42.115.563.279.144.164.216.379.201.596-.014.218-.115.42-.279.564l-7.063 6.165c-.15.131-.342.203-.541.203zM346.73 141.683h-14.063c-.218 0-.428-.087-.582-.241-.154-.154-.241-.363-.241-.581 0-.219.087-.428.241-.582.154-.154.364-.241.582-.241h14.063c.218 0 .427.087.582.241.154.154.241.363.241.582 0 .218-.087.427-.241.581-.155.154-.364.241-.582.241z"/>
    <path fill="#fff" d="M339.698 138.599c-.108 0-.215-.021-.315-.063-.1-.041-.19-.102-.267-.178-.076-.076-.137-.167-.178-.267-.041-.1-.063-.207-.063-.315v-18.751c0-.218.087-.427.241-.581.155-.155.364-.241.582-.241.218 0 .427.086.582.241.154.154.24.363.24.581v18.751c0 .108-.021.215-.062.315-.042.1-.102.191-.178.267-.077.076-.168.137-.267.178-.1.042-.207.063-.315.063z"/>
    <path fill="#fff" d="M339.698 119.848c-2.657 0-5.92-2.404-6.057-2.507-.087-.064-.16-.145-.216-.238-.055-.092-.091-.195-.107-.302-.016-.107-.01-.216.016-.32.026-.105.073-.204.138-.29.064-.087.145-.16.238-.216.092-.055.195-.092.302-.107.107-.016.216-.01.321.016.104.026.203.073.289.138.818.606 3.324 2.181 5.076 2.181 1.753 0 4.259-1.575 5.077-2.182.086-.064.185-.111.29-.137.104-.027.213-.032.32-.016.107.015.21.052.302.107.093.056.174.129.238.216.065.086.112.185.138.29.026.104.032.213.016.32-.016.107-.052.21-.108.302-.055.093-.128.174-.215.238-.138.103-3.4 2.507-6.058 2.507z"/>
    <path fill="#FFD363" d="M339.698 79.708c-.218 0-.427-.086-.582-.24-.154-.155-.241-.364-.241-.582V64.823c0-.219.087-.428.241-.582.155-.154.364-.241.582-.241.218 0 .427.087.582.24.154.155.24.364.24.583v14.063c0 .218-.086.427-.24.582-.155.154-.364.24-.582.24z"/>
</svg>
