<svg width="48" height="48" viewBox="0 0 48 48" fill="none" xmlns="http://www.w3.org/2000/svg">
<path fill-rule="evenodd" clip-rule="evenodd" d="M2 0H46C47.1 0 48 0.9 48 2V38C48 39.1 47.1 40 46 40H34V38H46V2H2V38H14V40H2C0.9 40 0 39.1 0 38V2C0 0.9 0.9 0 2 0Z" fill="#37474F"/>
<path d="M46 9H2V11H46V9Z" fill="#37474F"/>
<path d="M27.3232 41.3987C27.092 41.1687 26.9379 41.1687 26.7838 41.3987C26.6296 41.5521 26.4755 41.7054 26.3984 41.7821C26.0131 41.3987 25.6278 41.0154 25.2425 40.6321C26.1673 39.7121 27.092 38.7921 28.0168 37.8721H28.1709C28.6333 38.0254 29.0957 38.0254 29.558 37.9488C31.6388 37.5654 32.4094 35.4955 31.7929 33.9622C31.6388 33.6555 31.4076 33.5788 31.1764 33.8088C30.7911 34.1922 30.4057 34.5755 29.9434 34.8822C29.8663 34.9588 29.7892 35.0355 29.7122 35.1121C29.4039 34.8055 29.0957 34.4988 28.8645 34.2688C29.3269 33.8088 29.7892 33.3488 30.2516 32.8122C30.5599 32.5055 30.4828 32.2755 30.0975 32.1989C28.9415 31.8155 27.8627 31.9689 27.015 32.8122C26.0902 33.6555 25.859 34.6522 26.1673 35.8021C26.1673 35.9555 26.1673 36.0321 26.0902 36.1088C25.2425 36.9521 24.3177 37.8721 23.47 38.7154L23.393 38.7921C22.0829 37.4888 20.6957 36.1088 19.3857 34.8055C19.4627 34.7288 19.5398 34.6522 19.6169 34.5755C19.771 34.4222 19.771 34.2688 19.6169 34.1155C19.0003 33.5022 18.4609 32.9655 17.8444 32.3522C17.6132 32.1222 17.1508 32.1222 16.8426 32.3522C16.6884 32.5055 16.5343 32.6588 16.3802 32.8888C16.149 33.1188 16.149 33.5788 16.3802 33.8855C16.9967 34.4988 17.5361 35.0355 18.1527 35.6488C18.3068 35.8021 18.4609 35.8021 18.6921 35.6488C18.7692 35.5721 18.8462 35.4955 18.9233 35.4188C20.3104 36.7988 21.6205 38.1021 22.9306 39.4054C22.0058 40.3254 21.0811 41.2454 20.2334 42.0887C20.0022 42.0887 19.9251 42.0887 19.848 42.0887C19.4627 42.0121 19.0774 41.9354 18.6921 42.0121C16.4573 42.242 15.5325 44.4654 16.2261 46.0753C16.3802 46.382 16.6114 46.4587 16.8426 46.2287C17.305 45.7687 17.6903 45.3853 18.1527 44.9253C18.1527 44.8487 18.2297 44.8487 18.2297 44.8487C18.538 45.1553 18.8462 45.462 19.0774 45.692L19.0004 45.7687C18.615 46.2287 18.1527 46.6887 17.7673 47.1486C17.5361 47.3786 17.6132 47.6086 17.9215 47.762C18.2297 47.9153 18.4609 47.9153 18.7692 47.992C21.1581 48.1453 22.4682 46.0753 21.9288 44.1587L24.626 41.2454L24.703 41.1687C25.0884 41.5521 25.4737 41.9354 25.859 42.3187C25.7049 42.3954 25.6278 42.5487 25.4737 42.702C25.2425 42.932 25.2425 43.0854 25.4737 43.3154C26.8608 44.6953 28.325 46.152 29.7122 47.532C29.9434 47.762 30.1746 47.8386 30.4828 47.9153C31.0223 47.992 31.6388 47.6853 31.87 47.2253C32.1011 46.6887 32.0241 46.0753 31.6388 45.692C30.1746 44.2354 28.7104 42.7787 27.3232 41.3987Z" fill="#2083D2"/>
<path d="M6.5 7C7.32843 7 8 6.32843 8 5.5C8 4.67157 7.32843 4 6.5 4C5.67157 4 5 4.67157 5 5.5C5 6.32843 5.67157 7 6.5 7Z" fill="#37474F"/>
<path d="M11.5 7C12.3284 7 13 6.32843 13 5.5C13 4.67157 12.3284 4 11.5 4C10.6716 4 10 4.67157 10 5.5C10 6.32843 10.6716 7 11.5 7Z" fill="#37474F"/>
<path d="M16.5 7C17.3284 7 18 6.32843 18 5.5C18 4.67157 17.3284 4 16.5 4C15.6716 4 15 4.67157 15 5.5C15 6.32843 15.6716 7 16.5 7Z" fill="#37474F"/>
<path d="M41.5 7H30.5C29.7 7 29 6.3 29 5.5C29 4.7 29.7 4 30.5 4H41.5C42.3 4 43 4.7 43 5.5C43 6.3 42.3 7 41.5 7Z" fill="#37474F"/>
<path fill-rule="evenodd" clip-rule="evenodd" d="M18.2413 17.1768C18.5457 16.9271 19.0202 16.9439 19.3011 17.2145L23.8011 21.5478C24.0663 21.8032 24.0663 22.1968 23.8011 22.4522L19.3011 26.7855C19.0202 27.0561 18.5457 27.0729 18.2413 26.8232C17.9369 26.5735 17.9179 26.1517 18.1989 25.8811L22.2293 22L18.1989 18.1189C17.9179 17.8483 17.9369 17.4265 18.2413 17.1768Z" fill="#2083D2"/>
<path fill-rule="evenodd" clip-rule="evenodd" d="M11.7587 17.1767C11.4543 16.927 10.9798 16.9439 10.6989 17.2144L6.1989 21.5478C5.9337 21.8031 5.9337 22.1968 6.1989 22.4521L10.6989 26.7855C10.9798 27.056 11.4543 27.0729 11.7587 26.8231C12.0631 26.5734 12.0821 26.1516 11.8011 25.8811L7.77068 21.9999L11.8011 18.1188C12.0821 17.8482 12.0631 17.4265 11.7587 17.1767Z" fill="#2083D2"/>
<path fill-rule="evenodd" clip-rule="evenodd" d="M16.4706 16.0124C16.8308 16.0774 17.0614 16.3804 16.9856 16.6893L14.3191 27.5462C14.2432 27.855 13.8897 28.0526 13.5294 27.9876C13.1692 27.9226 12.9386 27.6196 13.0144 27.3107L15.6809 16.4538C15.7568 16.145 16.1103 15.9474 16.4706 16.0124Z" fill="#2083D2"/>
<rect x="30" y="16" width="12" height="2" rx="1" fill="#2083D2"/>
<rect x="30" y="20" width="12" height="2" rx="1" fill="#2083D2"/>
<rect x="30" y="24" width="12" height="2" rx="1" fill="#2083D2"/>
</svg>
