<svg xmlns="http://www.w3.org/2000/svg" width="143" height="48" fill="none" viewBox="0 0 143 48">
    <path fill="#478AFF" d="M24 13.073c-2.163 0-4.278.641-6.077 1.843-1.798 1.202-3.2 2.91-4.028 4.908-.828 1.999-1.044 4.198-.622 6.32.422 2.121 1.463 4.07 2.993 5.6 1.53 1.53 3.478 2.57 5.6 2.993 2.122.422 4.32.205 6.32-.623 1.998-.827 3.706-2.23 4.908-4.028 1.202-1.798 1.843-3.913 1.843-6.076-.003-2.9-1.157-5.68-3.207-7.73-2.05-2.05-4.83-3.204-7.73-3.207zM39.705 14.042c2.751 0 4.982-2.23 4.982-4.982 0-2.752-2.23-4.982-4.982-4.982-2.752 0-4.982 2.23-4.982 4.982 0 2.752 2.23 4.982 4.982 4.982z"/>
    <path fill="#478AFF" d="M45.838 14.068l-.209-.457-.326.379c-.817.927-1.85 1.638-3.007 2.07l-.327.117.131.327c1.76 4.231 1.982 8.945.63 13.324-1.353 4.378-4.196 8.145-8.036 10.646-3.84 2.502-8.433 3.58-12.985 3.049-4.552-.532-8.774-2.64-11.933-5.96-3.16-3.319-5.058-7.64-5.365-12.212-.307-4.572.996-9.108 3.684-12.82 2.687-3.712 6.589-6.366 11.029-7.501 4.44-1.136 9.137-.681 13.276 1.284l.307.147.134-.326c.488-1.135 1.248-2.132 2.214-2.903l.391-.326L35 2.674C31.601.908 27.826-.01 23.996 0c-5.184 0-10.23 1.68-14.38 4.788-4.15 3.108-7.183 7.476-8.644 12.45-1.46 4.976-1.271 10.29.54 15.148 1.812 4.858 5.148 8.999 9.51 11.802 4.361 2.804 9.513 4.12 14.685 3.751 5.172-.369 10.085-2.403 14.005-5.797 3.92-3.394 6.634-7.967 7.738-13.033 1.103-5.066.537-10.353-1.615-15.07l.003.03zM65.408 13.562h-5.06v20.895h5.06V13.562zM120.018 13.562h-5.061v20.895h5.061V13.562zM103.273 13.073c-3.559 0-6.308 2.145-6.938 2.736l-.326-2.247h-4.212v20.895h5.06v-12.65c0-2.47 3.37-4.513 5.835-4.513s4.316 2.357 4.316 5.165v11.998h5.06V22.96c-.016-5.479-2.38-9.886-8.795-9.886zM133.303 30.66c-3.804 0-6.318-2.977-6.318-6.65 0-3.673 2.514-6.65 6.318-6.65 3.245 0 5.224 3.143 5.224 3.143l3.666-2.451c-1.061-1.633-2.285-2.612-3.957-3.624-1.443-.876-3.096-1.344-4.783-1.355-6.331 0-11.166 4.753-11.195 10.937.029 6.183 4.864 10.937 11.195 10.937 1.681-.015 3.326-.483 4.763-1.355 1.672-1.009 2.896-1.991 3.957-3.624l-3.666-2.452s-1.959 3.144-5.204 3.144zM78.604 13.073c-1.436-.024-2.862.24-4.194.776-1.332.536-2.544 1.333-3.564 2.344-1.02 1.01-1.827 2.215-2.375 3.542s-.825 2.75-.815 4.187c0 5.925 4.434 11.025 11.023 11.025 5.965 0 10.852-4.57 10.852-10.898 0-7.245-5.684-10.976-10.927-10.976zm.062 4.296c3.137 0 6.108 2.547 6.108 6.65 0 4.016-2.958 6.635-6.121 6.635-3.478 0-6.204-2.795-6.204-6.667 0-3.787 2.707-6.618 6.233-6.618h-.016z"/>
</svg>
