<svg xmlns="http://www.w3.org/2000/svg" width="67" height="60" fill="none" viewBox="0 0 67 60">
    <path fill="#61DAFB" d="M67 29.84c0-4.439-5.558-8.645-14.08-11.253C54.886 9.9 54.012 2.99 50.16.778 49.273.26 48.236.014 47.102.014v3.045c.628 0 1.134.123 1.557.355 1.857 1.065 2.663 5.121 2.035 10.338-.15 1.284-.396 2.636-.697 4.015-2.676-.655-5.599-1.16-8.672-1.488-1.843-2.527-3.755-4.821-5.68-6.829 4.451-4.138 8.63-6.405 11.47-6.405V0c-3.755 0-8.671 2.677-13.642 7.32C28.502 2.704 23.585.055 19.83.055V3.1c2.827 0 7.02 2.253 11.471 6.364-1.912 2.008-3.824 4.288-5.64 6.815-3.086.328-6.009.833-8.686 1.502-.314-1.366-.546-2.69-.71-3.96-.642-5.217.15-9.273 1.994-10.352.41-.246.942-.355 1.57-.355V.068c-1.147 0-2.184.246-3.086.765-3.837 2.212-4.698 9.11-2.717 17.767C5.53 21.224 0 25.416 0 29.84c0 4.438 5.558 8.645 14.08 11.253-1.966 8.686-1.092 15.596 2.759 17.808.888.52 1.925.765 3.073.765 3.755 0 8.672-2.676 13.643-7.32 4.97 4.616 9.887 7.266 13.643 7.266 1.147 0 2.185-.246 3.086-.765 3.838-2.212 4.698-9.11 2.718-17.767C61.469 38.47 67 34.265 67 29.84zm-17.781-9.11c-.505 1.763-1.134 3.579-1.844 5.395-.56-1.092-1.147-2.185-1.789-3.277-.628-1.093-1.297-2.158-1.966-3.196 1.939.287 3.81.642 5.599 1.079zm-6.255 14.545c-1.065 1.844-2.158 3.592-3.291 5.217-2.035.178-4.097.273-6.173.273-2.062 0-4.124-.095-6.145-.26-1.134-1.624-2.24-3.359-3.306-5.189-1.037-1.789-1.98-3.605-2.84-5.435.847-1.83 1.803-3.66 2.827-5.45 1.065-1.843 2.158-3.59 3.291-5.216 2.035-.177 4.097-.273 6.173-.273 2.062 0 4.124.096 6.145.26 1.134 1.624 2.24 3.359 3.305 5.189 1.038 1.789 1.98 3.605 2.841 5.435-.86 1.83-1.803 3.66-2.827 5.45zm4.411-1.775c.738 1.83 1.366 3.66 1.885 5.435-1.79.437-3.674.806-5.627 1.093.67-1.052 1.339-2.13 1.967-3.237.628-1.092 1.215-2.198 1.775-3.291zM33.527 48.072c-1.27-1.311-2.54-2.773-3.796-4.37 1.229.054 2.485.095 3.755.095 1.284 0 2.554-.027 3.797-.095-1.23 1.597-2.5 3.059-3.756 4.37zm-10.16-8.044c-1.94-.287-3.81-.642-5.6-1.079.506-1.762 1.134-3.578 1.844-5.394.56 1.092 1.147 2.185 1.79 3.277.641 1.093 1.297 2.158 1.966 3.196zm10.092-28.42c1.27 1.311 2.54 2.773 3.797 4.37-1.23-.054-2.486-.095-3.756-.095-1.284 0-2.554.027-3.797.095 1.23-1.597 2.5-3.059 3.756-4.37zm-10.106 8.044c-.67 1.052-1.338 2.13-1.966 3.237-.629 1.092-1.216 2.185-1.776 3.277-.737-1.83-1.366-3.66-1.884-5.435 1.788-.423 3.673-.792 5.626-1.079zM10.993 36.75c-4.834-2.062-7.961-4.766-7.961-6.91s3.127-4.862 7.962-6.91c1.174-.506 2.458-.956 3.783-1.38.778 2.677 1.802 5.463 3.072 8.317-1.256 2.84-2.267 5.613-3.031 8.276-1.352-.423-2.636-.887-3.824-1.393zm7.348 19.516c-1.857-1.065-2.663-5.121-2.035-10.338.15-1.284.396-2.636.697-4.015 2.676.655 5.599 1.16 8.672 1.488 1.843 2.527 3.755 4.821 5.68 6.828-4.451 4.139-8.63 6.406-11.47 6.406-.615-.014-1.134-.137-1.544-.37zm32.394-10.407c.642 5.217-.15 9.273-1.994 10.352-.41.246-.942.355-1.57.355-2.828 0-7.02-2.253-11.472-6.364 1.912-2.007 3.824-4.288 5.64-6.814 3.086-.328 6.009-.834 8.686-1.503.314 1.38.56 2.704.71 3.974zm5.258-9.109c-1.175.506-2.459.956-3.783 1.38-.779-2.677-1.803-5.463-3.073-8.317 1.256-2.84 2.267-5.613 3.032-8.276 1.352.423 2.636.887 3.837 1.393 4.835 2.062 7.962 4.766 7.962 6.91-.014 2.144-3.14 4.862-7.975 6.91z"/>
    <path fill="#61DAFB" d="M33.484 36.081c3.447 0 6.241-2.794 6.241-6.241 0-3.447-2.794-6.241-6.24-6.241-3.448 0-6.242 2.794-6.242 6.24 0 3.448 2.794 6.242 6.241 6.242z"/>
</svg>
