<svg xmlns="http://www.w3.org/2000/svg" width="228" height="58" fill="none" viewBox="0 0 228 58">
    <path fill="#CCC" d="M61.646 18.738l14.37 18.801V18.737h2.874v23.34h-3.038L61.482 23.11v18.967h-2.874v-23.34h3.038zM102.209 41.163c-1.894.72-3.937 1.077-6.126 1.077-8.506 0-12.76-4.052-12.76-12.16 0-7.67 4.105-11.507 12.315-11.507 2.356 0 4.546.328 6.57.982v2.61c-2.024-.761-4.105-1.143-6.241-1.143-6.404 0-9.605 3.021-9.605 9.059 0 6.474 3.151 9.712 9.46 9.712 1.005 0 2.122-.131 3.349-.393v-7.932h3.038v9.695zM107.055 33.068v-14.33h3.036v14.33c0 4.482 2.245 6.726 6.735 6.726 4.488 0 6.733-2.244 6.733-6.727V18.738h3.037v14.33c0 6.117-3.256 9.174-9.77 9.174-6.514 0-9.771-3.057-9.771-9.174zM147.339 39.63v2.447h-15.323v-23.34h3.036V39.63h12.287zM160.245 15.659l11.676 26.419h-3.366l-3.039-7.346h-7.766l.837-2.446h5.912l-4.385-10.578-8.392 20.37h-3.153l11.676-26.42zM175.124 42.077v-23.34h10.018c4.467 0 6.7 1.867 6.7 5.598 0 3.037-2.183 5.284-6.552 6.74l8.063 11.002h-4.007l-7.471-10.494V29.61c4.488-.71 6.732-2.423 6.732-5.142 0-2.154-1.248-3.233-3.743-3.233h-6.702v20.843h-3.038zM204.736 18.738v16.615c0 4.483-2.655 6.724-7.966 6.724v-2.448c3.285 0 4.928-1.427 4.928-4.276V18.737h3.038zM210.153 41.261v-2.775c2.465.87 5.124 1.307 7.982 1.307 4.04 0 6.061-1.47 6.061-4.41 0-2.498-1.491-3.752-4.468-3.752h-3.023c-4.915 0-7.375-2.12-7.375-6.365 0-4.46 3.15-6.693 9.447-6.693 2.736 0 5.281.33 7.636.981v2.775c-2.356-.871-4.9-1.307-7.636-1.307-4.271 0-6.406 1.415-6.406 4.244 0 2.502 1.445 3.753 4.334 3.753h3.023c5.002 0 7.505 2.124 7.505 6.365 0 4.571-3.032 6.857-9.099 6.857-2.857 0-5.516-.328-7.981-.98z"/>
    <path fill="#000" d="M62.417 17.975l14.37 18.802V17.975h2.874v23.34h-3.038l-14.37-18.967v18.967h-2.874v-23.34h3.038zM102.975 40.4c-1.893.72-3.935 1.078-6.125 1.078-8.506 0-12.76-4.053-12.76-12.16 0-7.67 4.106-11.507 12.317-11.507 2.354 0 4.544.328 6.568.98v2.612c-2.024-.762-4.105-1.144-6.24-1.144-6.404 0-9.605 3.021-9.605 9.059 0 6.474 3.152 9.712 9.458 9.712 1.007 0 2.125-.13 3.351-.393v-7.932h3.037l-.001 9.695zM107.822 32.305V17.974h3.036v14.33c0 4.483 2.245 6.725 6.735 6.725 4.488 0 6.733-2.243 6.733-6.725v-14.33h3.038v14.33c0 6.117-3.257 9.173-9.771 9.173-6.514 0-9.771-3.055-9.771-9.172zM148.104 38.866v2.447h-15.321v-23.34h3.037v20.893h12.284zM161.013 14.894l11.676 26.42h-3.368l-3.038-7.345h-7.767l.839-2.447h5.91l-4.383-10.578-8.393 20.37h-3.152l11.676-26.42zM175.895 41.315v-23.34h10.018c4.467 0 6.698 1.865 6.698 5.598 0 3.035-2.181 5.284-6.55 6.74l8.063 11.002h-4.009l-7.47-10.495v-1.975c4.489-.71 6.733-2.421 6.733-5.142 0-2.154-1.249-3.231-3.745-3.231h-6.7v20.843h-3.038z"/>
    <path fill="#A6120D" d="M205.503 17.974V34.59c0 4.484-2.655 6.723-7.966 6.723v-2.447c3.285 0 4.927-1.427 4.927-4.277V17.974h3.039zM210.92 40.497v-2.775c2.465.87 5.124 1.308 7.982 1.308 4.04 0 6.06-1.47 6.06-4.409 0-2.5-1.49-3.753-4.467-3.753h-3.023c-4.915 0-7.374-2.121-7.374-6.366 0-4.46 3.148-6.693 9.446-6.693 2.736 0 5.281.33 7.636.981v2.775c-2.356-.871-4.9-1.307-7.636-1.307-4.271 0-6.406 1.416-6.406 4.245 0 2.5 1.443 3.753 4.334 3.753h3.023c5.001 0 7.505 2.122 7.505 6.365 0 4.57-3.032 6.856-9.099 6.856-2.857 0-5.517-.328-7.981-.98z"/>
    <path fill="#000" d="M182.862 53.772l-1.115-3.37h-.793l1.539 4.259c-.036.092-.095.233-.174.424-.08.19-.128.295-.14.316-.041.062-.092.114-.154.157-.061.042-.156.063-.284.063-.042 0-.09-.004-.145-.011-.054-.008-.142-.029-.263-.062v.634c.077.02.143.034.196.042.053.008.129.012.228.012.404 0 .688-.116.854-.348.166-.232.45-.875.854-1.93.171-.448.383-1.028.638-1.739.339-.946.558-1.551.656-1.817h-.773l-1.124 3.37zm-4.142.284c-.504 0-.849-.227-1.033-.683-.099-.242-.148-.558-.148-.947 0-.538.12-.924.361-1.159.24-.234.52-.351.84-.351.366 0 .644.143.833.429.189.286.283.646.283 1.081 0 .49-.094.884-.283 1.182-.189.299-.473.448-.853.448zm-1.823.483h.645v-.529c.148.2.287.343.418.433.218.152.486.228.803.228.568 0 1.011-.216 1.331-.65.321-.432.48-.975.48-1.63 0-.69-.161-1.212-.486-1.566-.324-.354-.746-.53-1.266-.53-.25 0-.481.051-.695.156-.213.104-.396.255-.55.454v-2.06h-.68v5.694z"/>
    <path fill="#B3B3B3" d="M4.334 45.306l23.122 12.63 23.241-12.801L55.03 9.423 27.427 0 0 9.593l4.334 35.713z"/>
    <path fill="#A6120D" d="M27.36 54.918l20.894-11.492 4.038-31.94L27.36 3.038v51.881z"/>
    <path fill="#DD1B16" d="M27.362 54.919V3.036L3.077 11.64 6.79 43.58l20.57 11.34z"/>
    <path fill="#F2F2F2" d="M34.224 30.656l-6.862 3.19h-7.233l-3.4 8.452-6.325.116L27.362 4.921l6.862 25.735zm-.663-1.605l-6.154-12.108-5.047 11.9h5.001l6.2.208z"/>
    <path fill="#B3B3B3" d="M33.134 28.852h-5.76l-.013 4.986 7.964.008 3.723 8.57 6.051.111L27.361 4.921l.045 12.022 5.728 11.909z"/>
    <path fill="#000" d="M204.421 51.547c0 1.835-1.444 3.187-3.217 3.187-1.773 0-3.217-1.352-3.217-3.187 0-1.848 1.444-3.187 3.217-3.187 1.773 0 3.217 1.34 3.217 3.187zm-1.408 0c0-1.146-.837-1.931-1.809-1.931s-1.809.785-1.809 1.931c0 1.135.837 1.931 1.809 1.931s1.809-.797 1.809-1.93zM211.361 51.547c0 1.835-1.444 3.187-3.217 3.187-1.773 0-3.217-1.352-3.217-3.187 0-1.846 1.444-3.187 3.217-3.187 1.773 0 3.217 1.34 3.217 3.187zm-1.408 0c0-1.146-.837-1.931-1.809-1.931s-1.809.785-1.809 1.931c0 1.135.837 1.931 1.809 1.931s1.809-.797 1.809-1.93zM218.011 48.553v5.722c0 2.353-1.397 3.315-3.048 3.315-1.554 0-2.49-1.034-2.843-1.879l1.226-.507c.219.519.754 1.131 1.615 1.131 1.057 0 1.712-.648 1.712-1.868v-.458h-.049c-.315.386-.922.724-1.689.724-1.603 0-3.072-1.388-3.072-3.174 0-1.8 1.469-3.199 3.072-3.199.765 0 1.373.338 1.689.713h.049v-.519h1.338v-.001zm-1.238 3.006c0-1.123-.753-1.943-1.712-1.943-.971 0-1.785.82-1.785 1.943 0 1.11.814 1.92 1.785 1.92.959 0 1.712-.81 1.712-1.92zM220.212 45.199v9.34h-1.374v-9.34h1.374zM225.568 52.596l1.093.724c-.352.52-1.203 1.413-2.672 1.413-1.821 0-3.182-1.4-3.182-3.187 0-1.896 1.372-3.187 3.025-3.187 1.664 0 2.478 1.316 2.744 2.027l.146.362-4.287 1.765c.328.64.839.965 1.554.965.718 0 1.215-.35 1.579-.882zm-3.364-1.147l2.865-1.182c-.157-.398-.631-.676-1.19-.676-.715 0-1.711.628-1.675 1.858zM192.786 50.718v-1.352h4.585c.044.236.068.514.068.816 0 1.015-.28 2.27-1.179 3.163-.875.905-1.992 1.388-3.473 1.388-2.744 0-5.051-2.221-5.051-4.949 0-2.727 2.307-4.949 5.051-4.949 1.518 0 2.6.592 3.412 1.364l-.96.954c-.582-.543-1.372-.965-2.453-.965-2.004 0-3.571 1.604-3.571 3.596s1.567 3.597 3.571 3.597c1.3 0 2.04-.519 2.514-.99.385-.383.638-.928.738-1.674l-3.252.001z"/>
</svg>
