<svg width="442" height="345" viewBox="0 0 442 345" fill="none" xmlns="http://www.w3.org/2000/svg">
<path d="M30.6024 345C41.5272 345 49.2916 340.023 49.2916 330.492V291.894H38.7649V298.314H38.3667C36.9482 295.204 33.8375 291.396 27.4419 291.396C19.0554 291.396 11.9629 297.916 11.9629 310.931C11.9629 323.648 18.8563 329.571 27.4668 329.571C33.5638 329.571 36.9731 326.51 38.3667 323.349H38.8147V330.342C38.8147 335.344 35.4551 337.385 30.8512 337.385C26.1727 337.385 23.8086 335.344 22.9375 333.279L13.1326 334.598C14.4017 340.371 20.2997 345 30.6024 345ZM30.8263 321.607C25.6252 321.607 22.7882 317.476 22.7882 310.882C22.7882 304.386 25.5754 299.832 30.8263 299.832C35.9777 299.832 38.8644 304.187 38.8644 310.882C38.8644 317.626 35.9279 321.607 30.8263 321.607ZM75.1479 330.865C84.6044 330.865 90.9752 326.261 92.4683 319.169L82.6633 318.522C81.5933 321.433 78.8558 322.951 75.322 322.951C70.0214 322.951 66.6618 319.442 66.6618 313.744V313.719H92.6923V310.807C92.6923 297.817 84.8284 291.396 74.7248 291.396C63.4764 291.396 56.1849 299.384 56.1849 311.18C56.1849 323.3 63.3769 330.865 75.1479 330.865ZM66.6618 307.149C66.8858 302.794 70.1956 299.31 74.899 299.31C79.5029 299.31 82.6882 302.595 82.7131 307.149H66.6618ZM116.881 330.865C128.478 330.865 135.695 322.926 135.695 311.155C135.695 299.31 128.478 291.396 116.881 291.396C105.284 291.396 98.0676 299.31 98.0676 311.155C98.0676 322.926 105.284 330.865 116.881 330.865ZM116.931 322.653C111.581 322.653 108.843 317.75 108.843 311.081C108.843 304.411 111.581 299.484 116.931 299.484C122.182 299.484 124.919 304.411 124.919 311.081C124.919 317.75 122.182 322.653 116.931 322.653ZM159.809 345C170.734 345 178.498 340.023 178.498 330.492V291.894H167.972V298.314H167.574C166.155 295.204 163.044 291.396 156.649 291.396C148.262 291.396 141.17 297.916 141.17 310.931C141.17 323.648 148.063 329.571 156.674 329.571C162.771 329.571 166.18 326.51 167.574 323.349H168.021V330.342C168.021 335.344 164.662 337.385 160.058 337.385C155.38 337.385 153.015 335.344 152.144 333.279L142.339 334.598C143.609 340.371 149.506 345 159.809 345ZM160.033 321.607C154.832 321.607 151.995 317.476 151.995 310.882C151.995 304.386 154.782 299.832 160.033 299.832C165.184 299.832 168.071 304.187 168.071 310.882C168.071 317.626 165.135 321.607 160.033 321.607ZM186.935 330.118H197.536V308.493C197.536 303.789 200.97 300.554 205.649 300.554C207.117 300.554 209.133 300.803 210.128 301.126V291.72C209.182 291.496 207.864 291.346 206.793 291.346C202.513 291.346 199.004 293.835 197.611 298.563H197.212V291.894H186.935V330.118ZM225.414 330.84C231.063 330.84 234.721 328.376 236.588 324.818H236.887V330.118H246.94V304.337C246.94 295.229 239.226 291.396 230.715 291.396C221.557 291.396 215.535 295.776 214.066 302.744L223.871 303.54C224.593 301.002 226.858 299.136 230.665 299.136C234.274 299.136 236.339 300.952 236.339 304.088V304.237C236.339 306.701 233.726 307.024 227.082 307.671C219.516 308.368 212.722 310.907 212.722 319.442C212.722 327.008 218.123 330.84 225.414 330.84ZM228.45 323.524C225.19 323.524 222.851 322.006 222.851 319.094C222.851 316.108 225.315 314.639 229.048 314.117C231.362 313.793 235.145 313.246 236.414 312.4V316.456C236.414 320.463 233.104 323.524 228.45 323.524ZM255.165 344.453H265.766V323.996H266.09C267.558 327.182 270.768 330.74 276.94 330.74C285.65 330.74 292.444 323.847 292.444 311.056C292.444 297.916 285.352 291.396 276.965 291.396C270.569 291.396 267.508 295.204 266.09 298.314H265.617V291.894H255.165V344.453ZM265.542 311.006C265.542 304.187 268.429 299.832 273.581 299.832C278.831 299.832 281.619 304.386 281.619 311.006C281.619 317.675 278.782 322.304 273.581 322.304C268.479 322.304 265.542 317.825 265.542 311.006ZM310.113 308.02C310.138 303.092 313.149 300.206 317.479 300.206C321.784 300.206 324.323 302.968 324.298 307.671V330.118H334.899V305.78C334.924 296.821 329.648 291.396 321.685 291.396C315.886 291.396 312.004 294.134 310.262 298.638H309.814V279.152H299.512V330.118H310.113V308.02ZM343.242 330.118H353.843V291.894H343.242V330.118ZM348.568 286.966C351.728 286.966 354.316 284.553 354.316 281.591C354.316 278.655 351.728 276.241 348.568 276.241C345.432 276.241 342.844 278.655 342.844 281.591C342.844 284.553 345.432 286.966 348.568 286.966ZM379.606 330.865C389.785 330.865 396.18 324.892 396.678 316.108H386.674C386.052 320.189 383.364 322.478 379.731 322.478C374.778 322.478 371.568 318.322 371.568 311.006C371.568 303.789 374.803 299.658 379.731 299.658C383.613 299.658 386.101 302.221 386.674 306.029H396.678C396.23 297.194 389.536 291.396 379.557 291.396C367.96 291.396 360.793 299.434 360.793 311.155C360.793 322.777 367.835 330.865 379.606 330.865ZM435.27 302.794C434.324 295.751 428.65 291.396 418.994 291.396C409.214 291.396 402.769 295.925 402.794 303.291C402.769 309.015 406.377 312.723 413.843 314.216L420.462 315.535C423.797 316.207 425.315 317.427 425.365 319.343C425.315 321.607 422.852 323.225 419.144 323.225C415.361 323.225 412.847 321.607 412.2 318.497L401.773 319.044C402.769 326.361 408.99 330.865 419.119 330.865C429.023 330.865 436.116 325.813 436.141 318.273C436.116 312.748 432.507 309.438 425.091 307.92L418.173 306.527C414.614 305.755 413.295 304.536 413.32 302.694C413.295 300.405 415.884 298.912 419.168 298.912C422.852 298.912 425.041 300.927 425.564 303.391L435.27 302.794Z" fill="#E5E5E5" fill-opacity="0.75"/>
<path d="M325.853 81.0952C343.616 81.0952 358.016 66.6951 358.016 48.9318C358.016 31.1684 343.616 16.7684 325.853 16.7684C308.089 16.7684 293.689 31.1684 293.689 48.9318C293.689 66.6951 308.089 81.0952 325.853 81.0952Z" fill="#FFA552"/>
<path d="M356.986 71.1015H93.0414V278.222H356.986V71.1015Z" fill="#6C63FF"/>
<path d="M356.986 71.1015H93.0414V278.222H356.986V71.1015Z" fill="#AEBAFF"/>
<path d="M411.546 99.5137H38.0699V279.458H411.546V99.5137Z" fill="#858585"/>
<path d="M334.134 49.6894H115.895V293.458H334.134V49.6894Z" fill="#5A71F7"/>
<path d="M99.424 123.808H53.3056V153.456H99.424V123.808Z" fill="white"/>
<path d="M99.424 174.044H53.3056V203.692H99.424V174.044Z" fill="white"/>
<path d="M99.424 224.28H53.3056V253.928H99.424V224.28Z" fill="white"/>
<path d="M190.013 73.5722H143.895V103.22H190.013V73.5722Z" fill="white"/>
<path d="M190.013 123.808H143.895V153.456H190.013V123.808Z" fill="white"/>
<path d="M190.013 174.044H143.895V203.692H190.013V174.044Z" fill="white"/>
<path d="M260.015 103.22H306.133V73.5722L260.015 73.5722V103.22Z" fill="white"/>
<path d="M260.015 153.456H306.133V123.808L260.015 123.808V153.456Z" fill="white"/>
<path d="M260.015 203.692H306.133V174.044H260.015V203.692Z" fill="white"/>
<path d="M393.016 123.808H346.897V153.456H393.016V123.808Z" fill="white"/>
<path d="M393.016 174.044H346.897V203.692H393.016V174.044Z" fill="white"/>
<path d="M393.016 224.28H346.897V253.928H393.016V224.28Z" fill="white"/>
<path d="M245.19 214.398H204.836V293.458H245.19V214.398Z" fill="#8EE3F5"/>
<path d="M190.013 73.5722H143.895V82.6311H190.013V73.5722Z" fill="#2D3878"/>
<path d="M306.133 73.5722H260.015V82.6311H306.133V73.5722Z" fill="#2D3878"/>
<path d="M306.133 123.808H260.015V132.867H306.133V123.808Z" fill="#2D3878"/>
<path d="M306.133 174.044H260.015V183.103H306.133V174.044Z" fill="#2D3878"/>
<path d="M190.013 123.808H143.895V132.867H190.013V123.808Z" fill="#2D3878"/>
<path d="M190.013 174.044H143.895V183.103H190.013V174.044Z" fill="#2D3878"/>
<path d="M99.424 123.808H53.3056V130.808H99.424V123.808Z" fill="#2D3878"/>
<path d="M99.424 174.044H53.3056V181.044H99.424V174.044Z" fill="#2D3878"/>
<path d="M99.424 224.28H53.3056V231.28H99.424V224.28Z" fill="#2D3878"/>
<path d="M393.016 123.808H346.897V130.808H393.016V123.808Z" fill="#2D3878"/>
<path d="M393.016 174.044H346.897V181.044H393.016V174.044Z" fill="#2D3878"/>
<path d="M393.016 224.28H346.897V231.28H393.016V224.28Z" fill="#2D3878"/>
<path d="M37.308 267.764C37.8784 266.761 38.1729 265.622 38.1613 264.466C38.1613 261.486 36.3346 259.069 34.0722 259.069C31.8097 259.069 29.9831 261.486 29.9831 264.466C29.9714 265.622 30.266 266.761 30.8364 267.764C30.2769 268.772 29.9831 269.908 29.9831 271.062C29.9831 272.217 30.2769 273.353 30.8364 274.361C30.2769 275.368 29.9831 276.504 29.9831 277.659C29.9831 278.814 30.2769 279.949 30.8364 280.957C30.2769 281.965 29.9831 283.1 29.9831 284.255C29.9831 285.41 30.2769 286.546 30.8364 287.553C30.2656 288.557 29.971 289.695 29.9831 290.852C29.9831 293.831 31.8097 296.246 34.0722 296.246C36.3346 296.246 38.1613 293.831 38.1613 290.852C38.1728 289.696 37.8783 288.558 37.308 287.556C37.8675 286.548 38.1613 285.413 38.1613 284.258C38.1613 283.103 37.8675 281.967 37.308 280.96C37.8675 279.952 38.1613 278.816 38.1613 277.661C38.1613 276.507 37.8675 275.371 37.308 274.363C37.8675 273.355 38.1613 272.22 38.1613 271.065C38.1613 269.91 37.8675 268.775 37.308 267.767V267.764Z" fill="#3F3D56"/>
<path d="M34.0722 263.53C36.3307 263.53 38.1616 261.033 38.1616 257.954C38.1616 254.874 36.3307 252.377 34.0722 252.377C31.8136 252.377 29.9827 254.874 29.9827 257.954C29.9827 261.033 31.8136 263.53 34.0722 263.53Z" fill="#3F3D56"/>
<path d="M34.0722 256.839C36.3307 256.839 38.1616 254.508 38.1616 251.634C38.1616 248.759 36.3307 246.429 34.0722 246.429C31.8136 246.429 29.9827 248.759 29.9827 251.634C29.9827 254.508 31.8136 256.839 34.0722 256.839Z" fill="#3F3D56"/>
<path d="M19.2448 206.822C18.6951 206.109 18.1939 205.359 17.7447 204.576L28.3404 202.811L16.8802 202.898C15.781 200.47 15.1814 197.841 15.1182 195.17C15.0549 192.499 15.5293 189.844 16.5122 187.365L31.886 195.459L17.7061 184.883C19.0304 182.545 20.8156 180.51 22.9501 178.905C25.0845 177.299 27.5224 176.157 30.1114 175.551C32.7003 174.945 35.3846 174.887 37.9966 175.381C40.6086 175.875 43.0921 176.911 45.2919 178.423C47.4916 179.935 49.3604 181.891 50.7814 184.169C52.2023 186.447 53.145 188.998 53.5504 191.663C53.9558 194.327 53.8152 197.048 53.1375 199.655C52.4597 202.262 51.2594 204.699 49.6115 206.814C50.4696 207.922 51.2079 209.12 51.814 210.388L38.0612 217.646L52.7274 212.652C53.7568 215.741 54.0113 219.042 53.4677 222.257C52.9241 225.471 51.5996 228.497 49.614 231.061C51.8564 233.952 53.2516 237.426 53.6402 241.084C54.0287 244.742 53.395 248.437 51.8113 251.746C50.2276 255.056 47.758 257.847 44.6848 259.799C41.6117 261.751 38.0591 262.787 34.4333 262.787C30.8075 262.787 27.2549 261.751 24.1817 259.799C21.1086 257.847 18.6389 255.056 17.0552 251.746C15.4716 248.437 14.8378 244.742 15.2263 241.084C15.6149 237.426 17.0101 233.952 19.2525 231.061C16.5756 227.605 15.1205 223.337 15.1205 218.941C15.1205 214.546 16.5756 210.278 19.2525 206.822H19.2448Z" fill="#8CC440"/>
<path opacity="0.1" d="M53.7714 219.205C53.778 223.576 52.321 227.82 49.6362 231.252C51.8802 234.126 53.2764 237.578 53.6653 241.214C54.0541 244.85 53.4198 248.523 51.835 251.813C50.2502 255.103 47.7788 257.876 44.7035 259.817C41.6281 261.758 38.073 262.787 34.4446 262.787C30.8162 262.787 27.261 261.758 24.1857 259.817C21.1104 257.876 18.639 255.103 17.0541 251.813C15.4693 248.523 14.8351 244.85 15.2239 241.214C15.6128 237.578 17.009 234.126 19.253 231.252C16.6446 227.936 53.7714 217.018 53.7714 219.205Z" fill="black"/>
<path d="M417.46 248.752C430.806 248.752 441.625 237.933 441.625 224.587C441.625 211.241 430.806 200.422 417.46 200.422C404.114 200.422 393.295 211.241 393.295 224.587C393.295 237.933 404.114 248.752 417.46 248.752Z" fill="#8CC440"/>
<path opacity="0.2" d="M435.485 208.276C437.745 213.579 438.052 219.516 436.35 225.025C434.648 230.534 431.049 235.256 426.195 238.348C421.341 241.44 415.549 242.701 409.854 241.904C404.159 241.107 398.932 238.306 395.107 233.999C396.488 237.239 398.555 240.139 401.164 242.499C403.773 244.858 406.862 246.62 410.218 247.663C413.574 248.706 417.115 249.005 420.597 248.539C424.079 248.073 427.419 246.853 430.384 244.964C433.349 243.074 435.87 240.561 437.771 237.598C439.672 234.635 440.908 231.293 441.393 227.803C441.878 224.313 441.601 220.759 440.581 217.388C439.561 214.016 437.822 210.907 435.485 208.276Z" fill="black"/>
<path d="M417.46 224.587H417.524L418.669 293.458H416.252L417.46 224.587Z" fill="#3F3D56"/>
<path d="M422.053 262.124L421.494 261.062L417.482 263.174L418.041 264.236L422.053 262.124Z" fill="#3F3D56"/>
<path d="M395.554 263.848C404.394 263.848 411.56 256.682 411.56 247.842C411.56 239.003 404.394 231.837 395.554 231.837C386.715 231.837 379.549 239.003 379.549 247.842C379.549 256.682 386.715 263.848 395.554 263.848Z" fill="#8CC440"/>
<path opacity="0.2" d="M407.493 237.039C408.99 240.551 409.193 244.483 408.066 248.132C406.939 251.781 404.555 254.909 401.34 256.957C398.125 259.005 394.289 259.839 390.517 259.312C386.745 258.784 383.283 256.928 380.749 254.076C381.664 256.222 383.033 258.143 384.761 259.706C386.489 261.268 388.535 262.436 390.758 263.126C392.98 263.817 395.326 264.015 397.632 263.706C399.939 263.397 402.151 262.589 404.115 261.338C406.079 260.087 407.748 258.422 409.007 256.46C410.266 254.497 411.085 252.283 411.406 249.972C411.727 247.661 411.544 245.307 410.868 243.074C410.193 240.84 409.041 238.781 407.493 237.039Z" fill="black"/>
<path d="M395.554 247.842H395.596L396.354 293.458H394.753L395.554 247.842Z" fill="#3F3D56"/>
<path d="M398.596 272.704L398.226 272L395.568 273.4L395.939 274.103L398.596 272.704Z" fill="#3F3D56"/>
<path d="M54.0753 263.848C62.9148 263.848 70.0807 256.682 70.0807 247.842C70.0807 239.003 62.9148 231.837 54.0753 231.837C45.2357 231.837 38.0699 239.003 38.0699 247.842C38.0699 256.682 45.2357 263.848 54.0753 263.848Z" fill="#8CC440"/>
<path opacity="0.2" d="M66.014 237.039C67.511 240.551 67.7141 244.483 66.5869 248.132C65.4597 251.781 63.0757 254.909 59.8609 256.957C56.6461 259.005 52.8099 259.839 49.0379 259.312C45.2659 258.784 41.8038 256.928 39.2704 254.076C40.1849 256.222 41.5537 258.143 43.2819 259.706C45.01 261.268 47.0562 262.436 49.2788 263.126C51.5013 263.817 53.847 264.015 56.1533 263.706C58.4597 263.397 60.6715 262.589 62.6356 261.338C64.5997 260.087 66.2691 258.422 67.5281 256.46C68.7871 254.497 69.6056 252.283 69.927 249.972C70.2483 247.661 70.0648 245.307 69.3892 243.074C68.7135 240.84 67.5618 238.781 66.014 237.039Z" fill="black"/>
<path d="M54.0746 247.842H54.1167L54.8749 293.458H53.2743L54.0746 247.842Z" fill="#3F3D56"/>
<path d="M57.1193 272.704L56.7489 272L54.0913 273.4L54.4617 274.103L57.1193 272.704Z" fill="#3F3D56"/>
<path d="M49.8627 46.9965L63.2494 48.7009L55.0801 59.4419L49.8627 46.9965Z" fill="#FF8F00"/>
<path d="M4.78246 129.144L13.3198 139.595L0.000372407 141.763L4.78246 129.144Z" fill="#06AAF5"/>
<path d="M282.092 -3.4979e-06L290.63 10.4509L277.31 12.6191L282.092 -3.4979e-06Z" fill="#FFE820"/>
<path d="M425.252 146.163L433.789 156.614L420.47 158.782L425.252 146.163Z" fill="#8CC440"/>
<circle cx="175.291" cy="36.7907" r="4.00447" fill="#8CC440"/>
<circle cx="380.521" cy="84.8444" r="4.00447" fill="#FF8F00"/>
</svg>
