<svg xmlns="http://www.w3.org/2000/svg" width="310" height="168" fill="none"><g opacity=".5"><path fill="#F4FAFF" d="M66.081 147H56.027A5.027 5.027 0 0051 152.027v10.054a5.026 5.026 0 005.027 5.027h10.054a5.026 5.026 0 005.027-5.027v-10.054A5.027 5.027 0 0066.081 147zm1.935 16.062s-.728-1.188-1.937-1.188c-1.169 0-1.86 1.188-4.22 1.188-5.247 0-7.734-4.297-7.734-4.297 4.729 3.055 7.96.89 7.96.89-2.135-1.21-6.664-7.004-6.664-7.004 3.948 3.294 5.651 4.159 5.651 4.159-1.024-.822-3.879-4.85-3.879-4.85 2.285 2.265 6.826 5.422 6.826 5.422 1.302-3.489-1.229-6.612-1.229-6.612 6.18 4.121 4.177 8.65 4.177 8.65s1.755 1.941 1.05 3.642zM241 152.903a9.9 9.9 0 005.581 8.911l-4.723-12.942a9.865 9.865 0 00-.858 4.031zm16.588-.5c0-1.224-.441-2.072-.817-2.731-.502-.816-.972-1.506-.972-2.323 0-.91.688-1.757 1.663-1.757.042 0 .085.006.127.008a9.867 9.867 0 00-6.686-2.6 9.89 9.89 0 00-8.273 4.464c.232.007.45.013.636.013 1.037 0 2.64-.128 2.64-.128.532-.029.595.753.062.817 0 0-.536.062-1.133.094l3.606 10.725 2.168-6.498-1.544-4.227c-.533-.032-1.038-.094-1.038-.094-.534-.032-.471-.846.063-.817 0 0 1.635.128 2.607.128 1.035 0 2.641-.128 2.641-.128.531-.029.595.753.061.817 0 0-.535.062-1.133.094l3.58 10.644.988-3.299c.502-1.288.754-2.353.754-3.202zm-6.511 1.367l-2.972 8.634a9.888 9.888 0 002.798.402 9.867 9.867 0 003.288-.562.822.822 0 01-.071-.135l-3.043-8.339zm8.514-5.619c.044.317.069.655.069 1.02 0 1.004-.189 2.133-.754 3.547l-3.025 8.743a9.893 9.893 0 004.923-8.557c0-1.723-.44-3.341-1.213-4.753zm-137.815-13.083c-.216 0-.362.026-.514.061v.025h.026c.102.193.274.334.402.507.101.199.187.398.289.595l.026-.028c.176-.122.263-.319.263-.619-.075-.087-.087-.175-.151-.26-.075-.125-.236-.186-.337-.285l-.004.004zm-19.951 24.535h-1.739a93.951 93.951 0 00-.507-8.201h-.015l-2.645 8.201h-1.323l-2.626-8.201h-.019a134.861 134.861 0 00-.366 8.201H91c.103-3.656.36-7.085.77-10.283h2.157l2.504 7.557h.015l2.527-7.557h2.054c.454 3.747.721 7.178.803 10.283h-.005zm7.536-7.587c-.71 3.803-1.644 6.57-2.799 8.294-.905 1.331-1.895 1.995-2.97 1.995-.287 0-.638-.086-1.062-.257v-.918c.206.031.45.048.724.048.503 0 .906-.139 1.214-.413.369-.335.553-.71.553-1.125 0-.288-.144-.874-.431-1.755l-1.902-5.869h1.707l1.364 4.389c.307.996.437 1.692.384 2.088.751-1.979 1.272-4.141 1.567-6.477h1.651zm23.121 7.587h-4.933V149.32h1.66v9.018h3.273v1.265zm-6.228.251l-1.906-.93c.169-.141.332-.294.478-.465.813-.941 1.216-2.339 1.216-4.189 0-3.403-1.347-5.107-4.043-5.107-1.32 0-2.352.432-3.095 1.297-.807.944-1.212 2.335-1.212 4.174 0 1.808.356 3.135 1.077 3.98.656.762 1.645 1.143 2.97 1.143.495 0 .949-.061 1.36-.182l2.485 1.436.676-1.157h-.006zm-6.176-2.31c-.422-.669-.632-1.748-.632-3.228 0-2.59.795-3.886 2.383-3.886.831 0 1.444.31 1.832.93.421.673.631 1.74.631 3.204 0 2.61-.796 3.92-2.383 3.92-.835 0-1.444-.311-1.834-.93l.003-.01zm-3.11-.79c0 .874-.323 1.592-.968 2.15-.646.558-1.507.837-2.597.837-1.018 0-1.996-.32-2.951-.958l.445-.885c.822.409 1.563.61 2.232.61.623 0 1.113-.136 1.469-.409.353-.274.563-.659.563-1.144 0-.614-.431-1.134-1.215-1.571a191.509 191.509 0 01-2.182-1.222c-.792-.571-1.186-1.183-1.186-2.189 0-.837.295-1.506.882-2.017.591-.517 1.351-.772 2.289-.772.96 0 1.838.253 2.626.762l-.4.885c-.675-.282-1.341-.427-1.996-.427-.531 0-.941.126-1.227.383-.287.253-.465.576-.465.974 0 .61.439 1.135 1.25 1.581.737.4 2.226 1.246 2.226 1.246.813.567 1.216 1.171 1.216 2.172l-.011-.006zm17.601-10.882c-1.004-.026-1.783.074-2.434.35-.187.074-.487.074-.514.31.104.099.119.261.207.398.15.249.409.582.649.757.262.205.525.402.801.576.488.298 1.041.475 1.519.774.272.175.55.396.826.582.137.093.225.26.401.32v-.037c-.086-.112-.112-.274-.197-.398-.125-.125-.251-.236-.375-.359a5.992 5.992 0 00-1.304-1.255c-.401-.272-1.279-.651-1.444-1.107l-.025-.026c.274-.024.601-.123.863-.197.426-.111.816-.087 1.257-.197.199-.05.4-.112.601-.175v-.111c-.225-.224-.394-.527-.627-.735a16.676 16.676 0 00-2.071-1.53c-.394-.249-.893-.409-1.308-.621-.15-.075-.401-.112-.487-.237-.226-.271-.357-.632-.516-.955a33.01 33.01 0 01-1.026-2.163c-.226-.487-.363-.973-.638-1.419-1.295-2.114-2.696-3.395-4.852-4.649-.463-.26-1.018-.372-1.606-.509-.313-.015-.626-.037-.938-.05-.206-.088-.405-.324-.581-.437-.713-.447-2.559-1.414-3.084-.134-.338.807.501 1.603.791 2.012.216.284.488.61.638.929.088.216.113.437.201.662.199.547.388 1.157.651 1.669.137.26.287.533.463.767.102.136.274.199.314.423-.177.253-.188.621-.289.929-.451 1.408-.274 3.149.364 4.184.2.309.679.993 1.318.731.563-.223.439-.93.601-1.553.037-.148.013-.247.09-.347v.028c.176.349.353.682.514 1.032.386.61 1.062 1.242 1.626 1.664.301.223.539.61.914.747v-.037h-.028c-.081-.108-.188-.16-.289-.247a6.529 6.529 0 01-.657-.744 16.307 16.307 0 01-1.401-2.265c-.206-.39-.379-.811-.544-1.195-.075-.149-.075-.372-.201-.447-.187.272-.463.508-.6.843-.238.535-.263 1.193-.353 1.878-.05.013-.026 0-.05.026-.402-.097-.539-.51-.689-.856-.375-.883-.437-2.302-.113-3.319.089-.26.464-1.082.314-1.331-.079-.236-.327-.372-.464-.564a4.618 4.618 0 01-.45-.794c-.3-.695-.45-1.465-.777-2.161-.15-.321-.412-.658-.626-.954-.238-.334-.501-.57-.69-.966-.062-.136-.151-.361-.051-.51.026-.1.079-.139.176-.167.165-.134.629.041.792.115.463.186.853.361 1.242.621.176.123.366.359.591.42h.262c.402.088.854.026 1.229.136a8.104 8.104 0 011.805.855 11.112 11.112 0 013.911 4.251c.15.287.216.549.353.846.263.614.587 1.233.854 1.827.262.585.516 1.182.893 1.668.187.26.941.396 1.279.531.25.112.638.214.863.35.432.26.852.558 1.257.844.206.141.831.452.869.703z"/><path fill="#F4FAFF" fill-rule="evenodd" d="M152.235 92.345a5.078 5.078 0 004.972-4.066h2.059c-.493 3.449-3.453 6.099-7.031 6.099a7.09 7.09 0 01-5.934-3.204l-1.169 1.171V88.28h4.059l-1.413 1.415a5.071 5.071 0 004.457 2.651zm4.972-6.098h-1.928l1.412-1.415a5.069 5.069 0 00-4.456-2.651 5.077 5.077 0 00-4.972 4.066h-2.059c.492-3.448 3.453-6.1 7.031-6.1a7.094 7.094 0 015.934 3.204l1.168-1.17v4.066h-2.13zM136 85.23a6.1 6.1 0 013.046-5.282c.106-4.96 4.153-8.948 9.13-8.948a9.123 9.123 0 017.768 4.335 6.6 6.6 0 018.047 4.012 6.1 6.1 0 014.479 5.883c0 3.361-2.726 6.099-6.089 6.099h-1.963c.316-.64.561-1.32.723-2.033h1.244a4.064 4.064 0 004.055-4.066 4.064 4.064 0 00-4.055-4.066h-.031a4.57 4.57 0 00-4.539-4.065c-1.072 0-2.059.37-2.838.99a7.108 7.108 0 00-6.801-5.056c-3.923 0-7.103 3.185-7.103 7.115 0 .382.03.757.088 1.123a4.068 4.068 0 00-3.132 3.96 4.064 4.064 0 004.056 4.065h1.018v2.033h-1.015A6.093 6.093 0 01136 85.23z" clip-rule="evenodd"/><path fill="#F4FAFF" d="M245.568 42.227a2.092 2.092 0 00-1.45-.46h-3.577v3.66h3.636a2.054 2.054 0 001.391-.485 1.814 1.814 0 00.553-1.374c.009-.25-.036-.5-.132-.73a1.734 1.734 0 00-.421-.61zm-.503-2.363a1.502 1.502 0 00.503-1.206 1.533 1.533 0 00-.444-1.248 1.959 1.959 0 00-1.232-.36h-3.351v3.233h3.351a1.84 1.84 0 001.206-.419h-.033zM249.757 31h-13.406c-.888 0-1.741.353-2.369.982a3.347 3.347 0 00-.982 2.37v13.405a3.35 3.35 0 003.351 3.351h13.406c.889 0 1.741-.353 2.37-.981a3.354 3.354 0 00.981-2.37V34.35c0-.889-.353-1.74-.981-2.37a3.354 3.354 0 00-2.37-.981zm-1.835 14.118a2.526 2.526 0 01-.771 1.039c-.399.317-.857.55-1.349.687a6.443 6.443 0 01-1.952.26h-5.387v-11.73h5.697a4.042 4.042 0 012.514.72 2.557 2.557 0 01.955 2.187 2.586 2.586 0 01-.386 1.516 2.802 2.802 0 01-1.24.98 2.568 2.568 0 011.676 1.023 3.412 3.412 0 01.243 3.318z"/><path stroke="#F4FAFF" stroke-miterlimit="10" d="M105.707 118.108l-8.706-5.03.004-10.054L105.714 98l8.706 5.03-.004 10.055-8.709 5.023z"/><path stroke="#F4FAFF" stroke-miterlimit="10" d="M97.004 103.024v.003l8.702 5.027 8.709-5.024v-.002L105.713 98l-8.71 5.024z"/><path stroke="#F4FAFF" stroke-miterlimit="10" d="M97.002 103.027l-.002.001.17 10.049 8.789 4.88.003-.001-.169-10.049-8.79-4.88z"/><path fill="#004279" stroke="#F4FAFF" stroke-miterlimit="10" d="M105.708 113.552l-4.76-2.751.001-5.497 4.762-2.748 4.761 2.751-.002 5.498-4.762 2.747z"/><path fill="#004279" stroke="#fff" stroke-miterlimit="10" d="M100.951 105.304v.001l4.759 2.749 4.761-2.747v-.001l-4.758-2.75-4.762 2.748z"/><path fill="#004279" stroke="#fff" stroke-miterlimit="10" d="M100.949 105.305l-.001.001.092 5.495 4.807 2.668h.001l-.093-5.495-4.806-2.669z"/><path fill="#F4FAFF" d="M186 100l1.609 18.073 7.213 2.035 7.265-2.035L203.695 100H186zm12.731 14.157l-5.052 2.097-4.385-2.097.446-2.795h1.866l-.182 1.155 2.652 1.263 3.053-1.263.429-2.665h-7.593l.366-2.332h7.597l.238-1.5h-7.591l.371-2.333h9.456l-1.671 10.47zm76.525 5.618h2.075l-.195 2.12-1.88.492h-.002l-1.879-.492-.124-1.36h-1.694l.242 2.623 3.455.929.002-.001 3.456-.928.462-5.016h-6.144l-.155-1.672h6.452l.151-1.633h-8.445l.455 4.938h3.768z"/><path fill="#F4FAFF" d="M275.054 108c-5.553 0-10.054 4.502-10.054 10.055s4.501 10.053 10.054 10.053c5.554 0 10.054-4.5 10.054-10.053 0-5.553-4.501-10.055-10.054-10.055zm2.807 3.104h.633v1.269h.89v.625h-1.522v-1.894h-.001zm-2.447 0h.66l.405.665.406-.665h.661v1.894h-.631v-.938l-.436.673h-.01l-.436-.673v.938h-.619v-1.894zm-2.025 0h1.748v.629h-.558v1.265h-.633v-1.265h-.557v-.629zm-2.12 0h.633v.626h.579v-.626h.633v1.894h-.633v-.634h-.579v.634h-.633v-1.894zm8.126 12.882l-4.069 1.128-4.064-1.129-.906-10.156h9.944l-.905 10.157zM30.347 16.674c0 7.551-6.122 13.673-13.673 13.673C9.122 30.347 3 24.225 3 16.674 3 9.122 9.122 3 16.674 3c7.551 0 13.673 6.122 13.673 13.674z"/><path fill="#004279" d="M14.255 20.767s-.704.41.502.548c1.46.166 2.206.142 3.815-.162 0 0 .423.265 1.014.495-3.607 1.546-8.164-.09-5.33-.881zm-.44-2.017s-.79.584.416.709c1.56.16 2.792.174 4.923-.237 0 0 .295.3.759.463-4.362 1.275-9.22.1-6.098-.936zm3.715-3.423c.89 1.023-.233 1.944-.233 1.944s2.257-1.165 1.22-2.624c-.968-1.36-1.71-2.037 2.309-4.367 0 0-6.308 1.575-3.295 5.047z"/><path fill="#004279" d="M22.302 22.259s.52.43-.574.761c-2.082.631-8.667.822-10.496.026-.657-.287.576-.683.964-.767.404-.087.635-.071.635-.071-.73-.515-4.726 1.011-2.029 1.449 7.355 1.192 13.407-.538 11.5-1.398zm-7.708-5.6s-3.35.795-1.186 1.084c.913.122 2.734.095 4.43-.047 1.386-.117 2.777-.366 2.777-.366s-.488.21-.842.45c-3.4.895-9.971.48-8.08-.436 1.6-.773 2.9-.685 2.9-.685zm6.008 3.358c3.457-1.796 1.859-3.523.743-3.29-.273.056-.395.106-.395.106s.101-.16.295-.228c2.207-.776 3.905 2.289-.712 3.503 0 0 .053-.048.07-.091zM18.517 6.516s1.915 1.915-1.816 4.86c-2.991 2.363-.682 3.71 0 5.25-1.747-1.577-3.029-2.963-2.169-4.254 1.262-1.895 4.758-2.814 3.985-5.856z"/><path fill="#004279" d="M14.933 24.885c3.319.213 8.415-.118 8.536-1.688 0 0-.232.595-2.743 1.068-2.832.533-6.326.47-8.398.13 0 0 .424.35 2.605.49z"/><path fill="#fff" d="M47.826 110c-.82.004-1.603.074-2.293.196-2.03.359-2.398 1.109-2.398 2.494v1.828h4.797v.609h-6.597c-1.395 0-2.616.838-2.997 2.432-.44 1.828-.46 2.968 0 4.876.34 1.42 1.155 2.432 2.55 2.432h1.649v-2.192c0-1.583 1.37-2.98 2.996-2.98h4.792c1.334 0 2.399-1.098 2.399-2.438v-4.568c0-1.299-1.097-2.276-2.399-2.493-.824-.137-1.68-.2-2.5-.196zm-2.594 1.471c.495 0 .9.411.9.917a.907.907 0 01-.9.911.905.905 0 01-.9-.911c0-.506.402-.917.9-.917z"/><path fill="#fff" d="M53.322 115.127v2.13c0 1.652-1.4 3.042-2.997 3.042h-4.792c-1.312 0-2.398 1.123-2.398 2.438v4.568c0 1.3 1.13 2.065 2.398 2.437 1.519.447 2.975.528 4.792 0 1.208-.349 2.398-1.053 2.398-2.437v-1.829h-4.791v-.609h7.19c1.394 0 1.914-.972 2.399-2.432.5-1.503.48-2.948 0-4.876-.345-1.387-1.003-2.432-2.399-2.432h-1.8zm-2.695 11.568c.497 0 .9.408.9.911a.91.91 0 01-.9.918.911.911 0 01-.9-.918c0-.503.405-.911.9-.911zM282.411 12.022v10.056l-2.49 1.434V13.467l-6.224-3.597-6.227 3.597.016 10.048L265 22.078V12.03L273.713 7l8.698 5.022zm-7.465 11.49l-1.241.722-1.248-.715V13.467l-2.486 1.437.004 10.049 3.726 2.155 3.735-2.155V14.9l-2.49-1.437v10.049zM86.36 1L77 4.338l1.428 12.377 7.932 4.393 7.933-4.393 1.428-12.377L86.36 1z"/><path fill="#DDD" d="M86.36 1v2.232-.01 17.886l7.933-4.393 1.428-12.377L86.36 1z"/><path fill="#0A478A" d="M86.36 3.222l-5.852 13.12h2.182l1.176-2.935h4.967l1.177 2.936h2.181L86.36 3.222zm1.709 8.375h-3.418l1.709-4.112 1.709 4.112z"/><path fill="#fff" d="M297.013 144L287 154.013l3.099 3.1L303.212 144h-6.199zm-.069 9.234l-5.362 5.362 3.111 3.157 3.094-3.093 5.425-5.426h-6.268z"/><path fill="#A7A7A7" d="M294.693 161.753l2.355 2.355h6.164l-5.426-5.448-3.093 3.093z"/><path fill="#DDD" d="M291.547 158.631l3.099-3.1 3.14 3.129-3.093 3.093-3.146-3.122z"/><path fill="url(#prefix__paint0_linear)" fill-opacity=".8" d="M294.693 161.753l2.576-.855.256-1.977-2.832 2.832z"/><path fill="#fff" fill-rule="evenodd" d="M18.064 87.94H13.61l-.613 2.31H9l4.756-13.994h4.264l4.76 13.994h-4.093l-.622-2.31zm-.819-3.027l-1.4-5.03-1.39 5.03h2.79zm3.94.707l3.723-.257c.08.668.244 1.176.492 1.528.4.567.978.847 1.727.847.556 0 .986-.143 1.29-.433.3-.29.451-.626.451-1.007 0-.362-.141-.688-.43-.974-.29-.287-.955-.557-2.004-.812-1.715-.426-2.938-.99-3.669-1.697-.736-.707-1.105-1.606-1.105-2.701 0-.72.189-1.401.566-2.04.377-.639.943-1.14 1.7-1.509.758-.365 1.795-.547 3.112-.547 1.618 0 2.852.332 3.701.997.849.665 1.353 1.724 1.515 3.174l-3.687.238c-.097-.63-.303-1.089-.618-1.376-.313-.283-.746-.427-1.297-.427-.457 0-.799.105-1.029.32-.23.212-.344.472-.344.779 0 .221.094.42.283.6.185.185.622.354 1.314.514 1.71.407 2.932.821 3.672 1.238.74.417 1.279.932 1.614 1.551a4.26 4.26 0 01.507 2.073c0 .896-.227 1.723-.675 2.48a4.326 4.326 0 01-1.882 1.723c-.805.39-1.822.586-3.047.586-2.152 0-3.643-.456-4.47-1.375-.832-.915-1.3-2.079-1.41-3.493zm11.273-9.364h6.5c1.415 0 2.476.371 3.18 1.117.705.743 1.058 1.805 1.058 3.177 0 1.415-.383 2.519-1.152 3.314-.77.795-1.942 1.193-3.519 1.193h-2.139v5.194h-3.928V76.255zm3.928 5.966h.958c.754 0 1.282-.143 1.588-.433.304-.29.457-.662.457-1.112 0-.44-.133-.814-.398-1.117-.262-.307-.76-.46-1.491-.46h-1.114v3.122z" clip-rule="evenodd"/><path fill="#fff" d="M44.764 90.082V78.164h1.591v1.693c.77-1.31 1.877-1.965 3.324-1.965.631 0 1.209.13 1.736.387.53.26.923.598 1.185 1.019.265.418.446.916.554 1.49.063.376.097 1.03.097 1.966v7.328h-1.773V82.83c0-.82-.067-1.436-.204-1.846a1.895 1.895 0 00-.732-.973 2.1 2.1 0 00-1.236-.368c-.755 0-1.403.276-1.954.82-.547.547-.819 1.582-.819 3.11v6.509h-1.77zm18.35-3.839l1.83.257c-.288 1.222-.822 2.168-1.601 2.843-.782.67-1.78 1.007-2.991 1.007-1.528 0-2.74-.536-3.633-1.609-.896-1.072-1.343-2.578-1.343-4.516 0-2.008.454-3.563 1.357-4.67.906-1.107 2.078-1.663 3.521-1.663 1.397 0 2.539.544 3.422 1.628.886 1.084 1.329 2.613 1.329 4.578 0 .123-.003.303-.01.54h-7.789c.064 1.31.39 2.314.974 3.008.584.697 1.309 1.046 2.182 1.046.648 0 1.202-.196 1.662-.587.46-.387.822-1.007 1.09-1.862zm-5.81-3.267h5.831c-.077-1-.302-1.755-.668-2.253-.564-.778-1.296-1.168-2.192-1.168-.813 0-1.498.31-2.052.93-.554.621-.86 1.453-.92 2.49zm13.73 5.298l.256 1.785c-.497.119-.944.18-1.336.18-.645 0-1.142-.115-1.498-.349a1.87 1.87 0 01-.745-.915c-.144-.376-.218-1.172-.218-2.383v-6.857h-5.646v-1.571h5.646V75.21L69.255 74v4.164h1.78v1.57h-1.78v6.97c0 .578.03.946.09 1.11a.852.852 0 00.306.395c.142.096.343.145.605.145.198 0 .457-.026.779-.08z"/><path fill="#fff" fill-rule="evenodd" d="M42.122 87.011c.779 0 1.41.64 1.41 1.43 0 .79-.631 1.43-1.41 1.43a1.42 1.42 0 01-1.41-1.43c0-.79.632-1.43 1.41-1.43z" clip-rule="evenodd"/><path fill="#fff" fill-rule="evenodd" stroke="#fff" stroke-width="1.102" d="M72.666 78.15h.713v.71h-.713v-.71z" clip-rule="evenodd"/><path fill="#fff" d="M234.16 81.371c0 .532.058.962.158 1.278.115.316.258.66.459 1.033.072.115.101.23.101.33 0 .144-.086.287-.273.43l-.904.603a.681.681 0 01-.373.13c-.144 0-.287-.072-.431-.201a4.417 4.417 0 01-.516-.675 11.013 11.013 0 01-.445-.847c-1.12 1.32-2.526 1.98-4.22 1.98-1.205 0-2.167-.344-2.87-1.032-.703-.69-1.062-1.608-1.062-2.756 0-1.22.431-2.21 1.306-2.956.876-.746 2.038-1.12 3.516-1.12.488 0 .991.043 1.522.115a19.64 19.64 0 011.65.316V76.95c0-1.09-.23-1.851-.675-2.296-.459-.445-1.234-.66-2.339-.66-.502 0-1.019.057-1.55.186-.531.13-1.047.287-1.55.488-.229.1-.402.158-.502.187a.87.87 0 01-.23.043c-.201 0-.301-.144-.301-.445v-.703c0-.23.029-.402.1-.502.072-.1.201-.201.402-.302.503-.258 1.105-.473 1.808-.646a8.734 8.734 0 012.239-.272c1.708 0 2.957.387 3.76 1.162.79.775 1.192 1.952 1.192 3.53v4.65h.028zm-5.826 2.182a4.66 4.66 0 001.478-.258 3.202 3.202 0 001.363-.919c.23-.273.402-.574.488-.918.086-.345.144-.761.144-1.249v-.603c-.417-.1-.861-.186-1.321-.244a10.887 10.887 0 00-1.349-.086c-.961 0-1.665.187-2.138.574-.474.388-.703.933-.703 1.65 0 .675.172 1.177.531 1.522.344.359.846.53 1.507.53zm11.524 1.55c-.259 0-.431-.043-.546-.144-.114-.086-.215-.287-.301-.56l-3.373-11.093c-.086-.287-.129-.474-.129-.574 0-.23.115-.359.345-.359h1.406c.273 0 .459.043.56.144.115.086.201.287.287.56l2.411 9.5 2.239-9.5c.072-.288.158-.474.272-.56.115-.087.316-.144.574-.144h1.149c.272 0 .459.043.574.144.114.086.215.287.272.56l2.268 9.615 2.483-9.616c.086-.287.186-.473.287-.56.114-.086.301-.143.559-.143h1.335c.23 0 .359.115.359.359 0 .072-.015.143-.029.23-.014.086-.043.2-.1.358l-3.459 11.094c-.086.287-.187.474-.301.56-.115.086-.302.143-.546.143h-1.234c-.273 0-.459-.043-.574-.143-.115-.1-.215-.287-.273-.574l-2.224-9.257-2.21 9.242c-.072.287-.158.474-.273.574-.115.1-.316.144-.574.144h-1.234zm18.441.387a9.512 9.512 0 01-2.21-.258c-.717-.172-1.277-.359-1.65-.574-.23-.13-.388-.273-.445-.402a1.007 1.007 0 01-.086-.402v-.732c0-.301.115-.445.33-.445a.83.83 0 01.258.043c.086.03.215.087.359.144a7.833 7.833 0 001.579.502 8.596 8.596 0 001.707.172c.905 0 1.608-.157 2.096-.473.488-.316.746-.775.746-1.363a1.4 1.4 0 00-.387-1.005c-.259-.273-.747-.517-1.45-.746l-2.081-.646c-1.048-.33-1.823-.818-2.296-1.464-.474-.631-.718-1.335-.718-2.08 0-.604.129-1.135.388-1.594.258-.46.603-.861 1.033-1.177a4.56 4.56 0 011.493-.746 6.258 6.258 0 011.808-.244c.316 0 .646.014.961.057.331.043.632.1.933.158.287.072.56.144.818.23.259.086.46.172.603.258.201.115.345.23.431.359.086.115.129.273.129.474v.674c0 .302-.115.46-.33.46-.115 0-.302-.058-.546-.173-.818-.373-1.736-.56-2.755-.56-.818 0-1.464.13-1.909.402-.445.273-.674.69-.674 1.278 0 .401.143.746.43 1.018.287.273.818.546 1.579.79l2.038.646c1.033.33 1.779.789 2.224 1.377.445.589.66 1.263.66 2.01 0 .617-.129 1.176-.373 1.664a3.86 3.86 0 01-1.047 1.263c-.445.36-.976.617-1.593.804-.646.2-1.321.301-2.053.301z"/><path fill="#fff" fill-rule="evenodd" d="M261.012 92.465c-4.722 3.487-11.582 5.339-17.48 5.339-8.267 0-15.715-3.057-21.341-8.137-.445-.402-.043-.948.488-.632 6.085 3.53 13.591 5.669 21.355 5.669 5.238 0 10.993-1.09 16.289-3.33.789-.358 1.464.517.689 1.091z" clip-rule="evenodd"/><path fill="#fff" fill-rule="evenodd" d="M262.978 90.226c-.603-.775-3.99-.373-5.526-.186-.459.057-.531-.345-.114-.646 2.698-1.895 7.132-1.35 7.649-.718.517.646-.144 5.08-2.669 7.205-.388.33-.761.158-.589-.273.574-1.42 1.851-4.621 1.249-5.382z" clip-rule="evenodd"/><path fill="#fff" d="M172.054 152.476a4.582 4.582 0 104.582 4.582 4.59 4.59 0 00-4.582-4.582zm6.579.407a2.088 2.088 0 10-.002-4.176 2.088 2.088 0 00.002 4.176z"/><path fill="#fff" d="M181.203 152.894l-.088-.192-.137.159a3.143 3.143 0 01-1.259.867l-.137.049.055.137a8.216 8.216 0 01.263 5.581 8.222 8.222 0 01-13.805 3.241 8.216 8.216 0 01-.704-10.486 8.22 8.22 0 0110.182-2.605l.129.062.056-.137a3.15 3.15 0 01.927-1.216l.164-.137-.187-.097a9.94 9.94 0 00-4.609-1.12 10.054 10.054 0 109.148 5.881l.002.013zm8.198-.212h-2.12v8.753h2.12v-8.753zm22.878 0h-2.12v8.753h2.12v-8.753zm-7.015-.206c-1.491 0-2.643.899-2.907 1.147l-.137-.941h-1.764v8.753h2.12v-5.3c0-1.034 1.412-1.89 2.444-1.89 1.033 0 1.808.987 1.808 2.164v5.026h2.12v-4.817c-.007-2.295-.997-4.142-3.684-4.142zm12.58 7.368c-1.593 0-2.646-1.247-2.646-2.786 0-1.538 1.053-2.786 2.646-2.786 1.36 0 2.189 1.317 2.189 1.317l1.536-1.027c-.445-.684-.958-1.094-1.658-1.518a3.913 3.913 0 00-2.004-.568c-2.652 0-4.677 1.992-4.69 4.582.013 2.591 2.038 4.582 4.69 4.582a3.915 3.915 0 001.996-.567c.7-.423 1.213-.835 1.657-1.519l-1.536-1.027s-.82 1.317-2.18 1.317zm-22.915-7.368a4.514 4.514 0 00-4.586 4.545c0 2.483 1.858 4.619 4.618 4.619 2.499 0 4.546-1.915 4.546-4.565 0-3.035-2.381-4.599-4.578-4.599zm.026 1.8c1.315 0 2.559 1.067 2.559 2.786 0 1.683-1.239 2.78-2.564 2.78-1.457 0-2.599-1.171-2.599-2.793 0-1.587 1.134-2.773 2.611-2.773h-.007z"/><path fill="#F4FAFF" d="M183.431 6.73c1.315 0 2.191.243 2.629.728.438.485.542 1.319.313 2.5-.239 1.229-.7 2.106-1.383 2.632-.683.526-1.722.788-3.117.788h-2.105l1.292-6.648h2.371zM175 20.108h3.46l.821-4.223h2.964c1.308 0 2.384-.137 3.228-.412a6.115 6.115 0 002.304-1.382 7.102 7.102 0 001.408-1.764 7.117 7.117 0 00.765-2.127c.366-1.883.089-3.35-.828-4.4-.918-1.051-2.379-1.577-4.38-1.577h-6.655L175 20.108zM192.491 0h3.433l-.82 4.223h3.058c1.924 0 3.252.336 3.982 1.007.731.672.95 1.76.658 3.263l-1.437 7.392h-3.487l1.365-7.028c.156-.8.099-1.345-.171-1.636-.27-.291-.844-.436-1.723-.436h-2.743l-1.769 9.1h-3.433L192.491 0zm17.949 6.73c1.315 0 2.191.243 2.629.728.438.485.542 1.319.313 2.5-.239 1.229-.7 2.106-1.383 2.632-.683.526-1.722.788-3.117.788h-2.105l1.292-6.648h2.371zm-8.431 13.378h3.46l.821-4.223h2.964c1.308 0 2.384-.137 3.228-.412a6.111 6.111 0 002.303-1.382 7.106 7.106 0 001.409-1.764 7.089 7.089 0 00.764-2.127c.366-1.883.09-3.35-.828-4.4-.918-1.051-2.378-1.577-4.38-1.577h-6.654l-3.087 15.885zM50.054 48.153a1.797 1.797 0 00-1.267.525 1.793 1.793 0 102.923 1.953 1.793 1.793 0 00-1.656-2.478zm-5.02 5.357l-.396-.1C41.691 52.665 40 51.4 40 49.942c0-1.459 1.69-2.723 4.638-3.468l.396-.1.111.392c.299 1.029.68 2.032 1.142 2.998l.085.179-.085.178a19.56 19.56 0 00-1.142 2.998l-.111.391zm-.58-6.12c-2.24.629-3.614 1.592-3.614 2.552s1.374 1.922 3.615 2.552a20.94 20.94 0 01.99-2.552 20.62 20.62 0 01-.99-2.552zm10.62 6.12l-.11-.393c-.3-1.028-.681-2.03-1.144-2.997l-.084-.178.084-.179c.462-.966.845-1.969 1.143-2.997l.111-.393.397.1c2.947.745 4.637 2.01 4.637 3.469 0 1.46-1.69 2.723-4.637 3.468l-.396.1zm-.41-3.568c.401.87.734 1.726.99 2.552 2.24-.63 3.615-1.593 3.615-2.552 0-.96-1.375-1.922-3.615-2.552a21.004 21.004 0 01-.99 2.552zm-10.215-2.556l-.111-.392c-.83-2.92-.578-5.014.69-5.744 1.242-.717 3.236.13 5.327 2.276l.285.292-.285.292a19.911 19.911 0 00-2.03 2.486l-.112.162-.197.017c-1.07.084-2.13.255-3.172.51l-.395.1zm1.589-5.556c-.225 0-.424.05-.591.145-.833.48-.98 2.15-.407 4.402.893-.199 1.798-.34 2.71-.42a20.83 20.83 0 011.718-2.132c-1.307-1.272-2.544-1.995-3.43-1.995zm8.034 17.06c-.001 0-.001 0 0 0-1.194 0-2.728-.898-4.319-2.532l-.285-.292.285-.293a19.681 19.681 0 002.029-2.487l.113-.161.196-.017c1.07-.084 2.13-.255 3.173-.51l.395-.1.113.392c.827 2.92.576 5.013-.69 5.743a2 2 0 01-1.01.258zm-3.432-2.832c1.307 1.273 2.544 1.995 3.43 1.995h.002c.223 0 .423-.049.59-.145.832-.48.98-2.15.406-4.402-.893.199-1.798.339-2.71.42a20.696 20.696 0 01-1.718 2.132zm5.02-8.672l-.396-.1a19.57 19.57 0 00-3.173-.511l-.196-.017-.113-.162a19.656 19.656 0 00-2.029-2.486l-.285-.292.285-.292c2.09-2.145 4.084-2.992 5.328-2.276 1.267.73 1.518 2.824.69 5.743l-.112.392zm-3.302-1.43c.957.088 1.866.23 2.71.42.575-2.251.426-3.92-.407-4.4-.827-.479-2.383.254-4.021 1.85a20.78 20.78 0 011.718 2.13zm-6.32 12.935a1.992 1.992 0 01-1.01-.258c-1.268-.73-1.52-2.823-.69-5.743l.11-.392.396.1c.967.244 2.035.415 3.17.51l.198.017.112.161a19.689 19.689 0 002.03 2.487l.284.292-.285.293c-1.59 1.634-3.123 2.533-4.316 2.533zm-.997-5.385c-.575 2.252-.427 3.922.406 4.402.827.472 2.382-.256 4.021-1.85a20.949 20.949 0 01-1.719-2.132c-.91-.08-1.816-.221-2.709-.42zm5.013.526c-.69 0-1.398-.03-2.108-.089l-.197-.017-.113-.161a25.538 25.538 0 01-1.131-1.778 25.66 25.66 0 01-.977-1.867l-.084-.178.084-.179a25.303 25.303 0 012.108-3.644l.113-.162.197-.017a24.95 24.95 0 014.217 0l.196.017.112.162a25.123 25.123 0 012.11 3.644l.084.179-.085.178a24.75 24.75 0 01-2.109 3.645l-.112.161-.196.017c-.71.059-1.42.09-2.109.09zm-1.84-.908c1.24.093 2.44.093 3.682 0a24.436 24.436 0 001.84-3.182 23.913 23.913 0 00-1.841-3.182 24.33 24.33 0 00-3.682 0 23.735 23.735 0 00-1.84 3.182 24.436 24.436 0 001.84 3.182zM142 38.908l7.977 1.156V32.43H142v6.477zm0-7.567h7.977v-7.633L142 24.863v6.478zm9.068 8.88l10.704 1.551v-9.34h-10.704v7.79zm0-16.671v7.791h10.704V22l-10.704 1.55zm31.377 28.321v9.64h.006c.067.814.816 1.461 1.723 1.461h9.694c.906 0 1.655-.647 1.723-1.461h.006v-9.64h-13.152zm-.501 7.06c0 .951-.662 1.73-1.472 1.73-.809 0-1.472-.779-1.472-1.73v-5.658c0-.951.662-1.729 1.472-1.729.81 0 1.472.778 1.472 1.729v5.658z"/><path fill="#F4FAFF" d="M188.08 65.954c0 .95-.662 1.729-1.472 1.729-.809 0-1.472-.778-1.472-1.729v-5.658c0-.951.663-1.73 1.472-1.73.81 0 1.472.779 1.472 1.73v5.658zm4.907 0c0 .95-.663 1.729-1.472 1.729-.81 0-1.473-.778-1.473-1.729v-5.658c0-.951.663-1.73 1.473-1.73.809 0 1.472.779 1.472 1.73v5.658zm6.121-7.023c0 .951-.662 1.73-1.472 1.73-.809 0-1.472-.779-1.472-1.73v-5.658c0-.951.663-1.729 1.472-1.729.81 0 1.472.778 1.472 1.729v5.658zm-6.836-12.857l.945-1.694c.077-.139.054-.3-.051-.359-.105-.058-.254.007-.331.146l-.966 1.734a7.766 7.766 0 00-2.848-.53 7.772 7.772 0 00-2.867.538l-.971-1.742c-.077-.139-.226-.204-.331-.146-.105.059-.128.22-.051.358l.95 1.704c-1.975.927-3.306 2.67-3.306 4.665 0 .203.015.403.041.6h13.07a4.58 4.58 0 00.041-.6c0-2.002-1.339-3.748-3.325-4.674zm-6.235 2.959a.575.575 0 110-1.15.575.575 0 010 1.15zm6.001 0a.576.576 0 110-1.152.576.576 0 010 1.152zm-80.581 4.481c-.025-2.507 2.044-3.709 2.136-3.77-1.162-1.7-2.974-1.932-3.618-1.959-1.541-.156-3.007.907-3.789.907-.779 0-1.987-.884-3.264-.862-1.68.025-3.229.978-4.094 2.482-1.745 3.027-.446 7.513 1.254 9.97.832 1.2 1.823 2.552 3.124 2.503 1.253-.05 1.726-.811 3.241-.811 1.516 0 1.941.81 3.267.785 1.348-.024 2.203-1.224 3.027-2.43.955-1.394 1.348-2.745 1.371-2.814-.03-.013-2.628-1.009-2.655-4.001zm-2.491-7.355c.69-.837 1.157-2 1.03-3.159-.995.04-2.2.662-2.915 1.498-.64.742-1.2 1.924-1.05 3.062 1.11.086 2.243-.565 2.935-1.401z"/><path fill="#fff" d="M15.725 161.858c-.08-.211-.161-.457-.242-.668-.643-1.828-1.126-4.323-1.407-6.959-.443-4.851 0-10.088 1.729-10.229.965-.07 1.73 1.547 2.212 2.882.643 1.828 1.126 4.324 1.407 6.96.443 4.851 0 10.088-1.729 10.228-.844.035-1.528-1.054-1.97-2.214zm1.648-15.536c-.603-1.476-1.206-2.003-1.568-1.968-1.086.07-1.89 4.147-1.327 9.841.241 2.637.724 5.062 1.367 6.89.684 2.003 1.408 2.671 1.81 2.636 1.086-.07 1.89-4.148 1.327-9.842-.241-2.636-.724-5.061-1.367-6.889a6.762 6.762 0 00-.242-.668z"/><path fill="#fff" d="M10.255 148.536c-.483-1.159-.764-2.39-.08-2.811 1.407-.879 5.59 2.917 8.767 6.924 1.729 2.179 3.136 4.358 3.981 6.151.603 1.3 1.207 2.988.402 3.445-1.407.878-5.59-2.918-8.767-6.925-1.77-2.144-3.177-4.323-4.022-6.116-.12-.211-.2-.422-.281-.668zm12.588 11.072a7.23 7.23 0 00-.282-.667c-.844-1.758-2.252-3.902-3.941-6.081-3.74-4.71-7.32-7.382-8.204-6.854-.322.211-.362 1.124.522 3.023.845 1.757 2.253 3.901 3.942 6.08 3.74 4.71 7.32 7.382 8.204 6.854.282-.14.362-.878-.241-2.355z"/><path fill="#98CEFB" d="M10.095 156.164l-7.078 2.214-.121 4.007 4.303-1.371 4.344-1.37-1.448-3.48z"/><path fill="#D7E9F9" d="M8.647 152.649l-4.344 1.336L0 155.355l3.016 3.023 7.078-2.214-1.447-3.515z"/><path fill="#fff" d="M29.399 150.083c.965 2.285-3.861 5.905-10.738 8.084-6.877 2.144-13.231 2.039-14.197-.246 1.368 3.375 8.084 4.359 14.96 2.179 6.918-2.179 11.382-6.643 9.975-10.017z"/><path fill="#DCEFFF" d="M18.66 158.167c6.878-2.179 11.704-5.764 10.739-8.084l-24.935 7.838c.966 2.285 7.32 2.39 14.197.246z"/><path fill="#33A2FF" d="M15.242 149.837c6.877-2.179 13.232-2.039 14.197.246-1.367-3.374-8.084-4.358-14.96-2.179-6.878 2.179-11.382 6.643-10.015 10.017-.925-2.32 3.861-5.94 10.778-8.084z"/><path fill="#9AD1FF" d="M15.242 149.837c-6.877 2.179-11.703 5.764-10.738 8.084l24.934-7.838c-.965-2.32-7.319-2.425-14.196-.246z"/><path fill="#fff" d="M15.845 161.05c-.523-1.512-.965-3.48-1.247-5.624 3.178 3.972 7.28 7.698 8.687 6.854l-.241-.281c-.885.527-4.464-2.144-8.204-6.854l-.362-.422c0-.176-.04-.352-.04-.527-.523-5.694.281-9.772 1.327-9.842l-.04-.351c-1.73.14-2.172 5.272-1.73 10.122-1.367-1.792-2.453-3.55-3.137-5.026-.925-1.933-.884-2.847-.523-3.023l-.24-.281c-.685.422-.363 1.652.08 2.812.08.211.2.457.281.668.764 1.652 2.051 3.62 3.58 5.624.28 2.425.723 4.639 1.327 6.327.08.21.16.456.24.667.483 1.16 1.167 2.25 1.972 2.215l-.04-.352c-.323-.035-1.006-.703-1.69-2.706z"/><path fill="#F4FAFF" d="M299.05 59.108c-.302 0-.608-.072-.874-.207l-2.776-1.457c-.414-.207-.212-.279-.077-.319.554-.171.666-.207 1.256-.507a.225.225 0 01.207.017l2.133 1.12a.29.29 0 00.257 0l8.312-4.253a.232.232 0 00.126-.2v-8.506a.234.234 0 00-.13-.204l-8.308-4.25a.29.29 0 00-.257 0l-8.303 4.254a.23.23 0 00-.131.204v8.503c0 .08.05.16.131.195l2.277 1.165c1.238.547 1.994-.095 1.994-.746v-8.395c0-.12.108-.212.243-.212h1.053c.13 0 .243.092.243.212v8.4c0 1.46-.9 2.297-2.462 2.297-.482 0-.86 0-1.913-.462l-2.178-1.114c-.54-.275-.873-.79-.873-1.344v-8.503c0-.55.333-1.07.873-1.345l8.303-4.254a2.033 2.033 0 011.747 0l8.312 4.258c.54.275.873.79.873 1.345v8.503c0 .55-.333 1.065-.873 1.344l-8.312 4.254a1.935 1.935 0 01-.873.207zm6.71-8.383c0-1.592-1.215-2.015-3.767-2.314-2.583-.303-2.844-.46-2.844-.994 0-.443.22-1.033 2.133-1.033 1.706 0 2.336.327 2.597 1.349.022.095.121.167.234.167h1.08c.067 0 .13-.024.175-.068a.202.202 0 00.063-.163c-.166-1.76-1.485-2.578-4.149-2.578-2.372 0-3.785.886-3.785 2.374 0 1.612 1.409 2.06 3.681 2.258 2.723.236 2.935.591 2.935 1.066 0 .822-.747 1.173-2.498 1.173-2.201 0-2.682-.49-2.844-1.46-.018-.104-.117-.18-.239-.18h-1.076c-.135 0-.238.096-.238.212 0 1.24.761 2.72 4.402 2.72 2.628-.003 4.14-.925 4.14-2.529z"/></g><defs><linearGradient id="prefix__paint0_linear" x1="294.805" x2="296.842" y1="159.686" y2="160.42" gradientUnits="userSpaceOnUse"><stop/><stop offset="1" stop-opacity="0"/></linearGradient></defs></svg>