<svg xmlns="http://www.w3.org/2000/svg" width="96" height="96" fill="none" viewBox="0 0 96 96">
    <path fill="#000" d="M20.324 0h4.313v4.275h3.975V0h4.312v12.938h-4.312V8.625h-3.938v4.313h-4.35V0zm18.3 4.313h-3.806V0h11.944v4.313h-3.825v8.625h-4.313V4.312zM48.656 0h4.518l2.775 4.556L58.724 0h4.519v12.938H58.93V6.524l-3.018 4.65-3.019-4.65v6.412h-4.237V0zM65.38 0h4.313v8.662h6.112v4.275H65.38"/>
    <path fill="#E44D26" d="M20.176 88.313l-6.188-69.45h68.025l-6.187 69.412L47.945 96"/>
    <path fill="#F16529" d="M48 90.094V24.563h27.806L70.5 83.813"/>
    <path fill="#EBEBEB" d="M26.625 33.056H48v8.513H35.962l.788 8.718H48v8.494H28.95l-2.325-25.725zm2.7 30h8.55l.6 6.806L48 72.412V81.3l-17.475-4.875"/>
    <path fill="#fff" d="M69.298 33.056H47.961v8.513h20.55l.787-8.513zm-1.556 17.232H47.961V58.8h10.5l-.994 11.063-9.506 2.55v8.85l17.437-4.838"/>
</svg>
