<svg xmlns="http://www.w3.org/2000/svg" width="48" height="48" fill="none" viewBox="0 0 48 48">
    <path fill="#37474F" fill-rule="evenodd" d="M2 0h44c1.1 0 2 .9 2 2v37c0 1.1-.9 2-2 2H32v-2h14V2H2v37h13v2H2c-1.1 0-2-.9-2-2V2C0 .9.9 0 2 0z" clip-rule="evenodd"/>
    <path fill="#37474F" d="M46 9H2v2h44V9zM6.5 7C7.328 7 8 6.328 8 5.5S7.328 4 6.5 4 5 4.672 5 5.5 5.672 7 6.5 7zM11.5 7c.828 0 1.5-.672 1.5-1.5S12.328 4 11.5 4 10 4.672 10 5.5 10.672 7 11.5 7zM16.5 7c.828 0 1.5-.672 1.5-1.5S17.328 4 16.5 4 15 4.672 15 5.5 15.672 7 16.5 7zM41.5 7h-11c-.8 0-1.5-.7-1.5-1.5S29.7 4 30.5 4h11c.8 0 1.5.7 1.5 1.5S42.3 7 41.5 7z"/>
    <rect width="12" height="2" x="30" y="16" fill="#2083D2" rx="1"/>
    <rect width="12" height="2" x="30" y="20" fill="#2083D2" rx="1"/>
    <rect width="12" height="2" x="30" y="24" fill="#2083D2" rx="1"/>
    <path fill="#2083D2" d="M7 18H11V27H7zM13 17H17V27H13zM19 14H23V27H19zM24.94 46.09V48h-2.67v-1.93c-1.71-.36-3.16-1.46-3.27-3.4h1.96c.1 1.05.82 1.87 2.65 1.87 1.96 0 2.4-.98 2.4-1.59 0-.83-.44-1.61-2.67-2.14-2.48-.6-4.18-1.62-4.18-3.67 0-1.72 1.39-2.84 3.11-3.21V32h2.67v1.95c1.86.45 2.79 1.86 2.85 3.39h-1.96c-.05-1.11-.64-1.87-2.22-1.87-1.5 0-2.4.68-2.4 1.64 0 .84.65 1.39 2.67 1.91s4.18 1.39 4.18 3.91c-.01 1.83-1.38 2.83-3.12 3.16z"/>
</svg>
