<svg xmlns="http://www.w3.org/2000/svg" width="64" height="78" fill="none" viewBox="0 0 64 78">
    <path fill="#999" d="M35.312 6.788C40.47.033 47.642 0 47.642 0s1.066 6.35-4.058 12.468c-5.472 6.533-11.691 5.464-11.691 5.464s-1.168-5.138 3.42-11.144zM32.55 22.38c2.654 0 7.579-3.625 13.99-3.625 11.034 0 15.375 7.802 15.375 7.802s-8.49 4.313-8.49 14.778C53.423 53.14 64 57.21 64 57.21s-7.393 20.675-17.38 20.675c-4.586 0-8.152-3.07-12.985-3.07C28.71 74.814 23.823 78 20.64 78 11.52 78 0 58.387 0 42.622 0 27.11 9.751 18.974 18.898 18.974c5.946 0 10.56 3.407 13.651 3.407z"/>
</svg>
