<svg xmlns="http://www.w3.org/2000/svg" width="48" height="48" fill="none" viewBox="0 0 48 48">
    <path fill="#37474F" fill-rule="evenodd" d="M2 0h44c1.1 0 2 .9 2 2v37c0 1.1-.9 2-2 2H36v-2h10V2H2v37h10v2H2c-1.1 0-2-.9-2-2V2C0 .9.9 0 2 0z" clip-rule="evenodd"/>
    <path fill="#37474F" d="M46 9H2v2h44V9zM6.5 7C7.328 7 8 6.328 8 5.5S7.328 4 6.5 4 5 4.672 5 5.5 5.672 7 6.5 7zM11.5 7c.828 0 1.5-.672 1.5-1.5S12.328 4 11.5 4 10 4.672 10 5.5 10.672 7 11.5 7zM16.5 7c.828 0 1.5-.672 1.5-1.5S17.328 4 16.5 4 15 4.672 15 5.5 15.672 7 16.5 7zM41.5 7h-11c-.8 0-1.5-.7-1.5-1.5S29.7 4 30.5 4h11c.8 0 1.5.7 1.5 1.5S42.3 7 41.5 7z"/>
    <rect width="12" height="2" x="30" y="16" fill="#2083D2" rx="1"/>
    <rect width="12" height="2" x="30" y="20" fill="#2083D2" rx="1"/>
    <rect width="12" height="2" x="30" y="24" fill="#2083D2" rx="1"/>
    <rect width="18" height="2" x="5" y="24" fill="#2083D2" rx="1"/>
    <path fill="#2083D2" d="M16 38H20V48H16zM22 36H26V48H22zM28 33H32V48H28z"/>
    <path fill="#2083D2" fill-rule="evenodd" d="M20.047 14.002c.3-.02.593.094.799.313l1.882 2c.379.402.36 1.035-.043 1.413-.402.379-1.035.36-1.413-.043l-1.043-1.108-2.118 3c-.173.245-.447.4-.747.42-.3.022-.592-.093-.798-.312l-1.893-2.01-2.155 3.817c-.157.276-.435.462-.75.5-.316.039-.631-.075-.85-.307L8.825 19.46l-2.096 2.226c-.378.402-1.011.422-1.413.043-.403-.378-.422-1.011-.043-1.413l2.823-3c.19-.201.453-.315.729-.315.275 0 .539.114.728.315l1.892 2.01 2.156-3.817c.156-.276.435-.462.75-.5.316-.039.63.075.849.307l1.984 2.108 2.118-3c.173-.245.447-.4.747-.42z" clip-rule="evenodd"/>
</svg>
