<svg xmlns="http://www.w3.org/2000/svg" width="48" height="48" fill="none" viewBox="0 0 48 48">
    <path fill="#37474F" fill-rule="evenodd" d="M2 0h44c1.1 0 2 .9 2 2v37c0 1.1-.9 2-2 2h-9v-2h9V2H2v37h9v2H2c-1.1 0-2-.9-2-2V2C0 .9.9 0 2 0z" clip-rule="evenodd"/>
    <path fill="#37474F" d="M46 9H2v2h44V9zM6.5 7C7.328 7 8 6.328 8 5.5S7.328 4 6.5 4 5 4.672 5 5.5 5.672 7 6.5 7zM11.5 7c.828 0 1.5-.672 1.5-1.5S12.328 4 11.5 4 10 4.672 10 5.5 10.672 7 11.5 7zM16.5 7c.828 0 1.5-.672 1.5-1.5S17.328 4 16.5 4 15 4.672 15 5.5 15.672 7 16.5 7zM41.5 7h-11c-.8 0-1.5-.7-1.5-1.5S29.7 4 30.5 4h11c.8 0 1.5.7 1.5 1.5S42.3 7 41.5 7z"/>
    <rect width="12" height="2" x="30" y="16" fill="#2083D2" rx="1"/>
    <rect width="12" height="2" x="30" y="20" fill="#2083D2" rx="1"/>
    <rect width="12" height="2" x="30" y="24" fill="#2083D2" rx="1"/>
    <path fill="#2083D2" d="M7 18H11V27H7zM13 17H17V27H13zM19 14H23V27H19zM24.828 42.226c-.704.704-1.846.704-2.55 0-.705-.704-.705-1.846 0-2.55.704-.705 5.95-3.4 5.95-3.4s-2.696 5.246-3.4 5.95z"/>
    <path fill="#2083D2" fill-rule="evenodd" d="M27.876 48C30.336 46.635 32 44.012 32 41c0-4.418-3.582-8-8-8s-8 3.582-8 8c0 3.012 1.665 5.635 4.124 7h-3.265C15.09 46.196 14 43.725 14 41c0-5.523 4.477-10 10-10s10 4.477 10 10c0 2.725-1.09 5.196-2.859 7h-3.265z" clip-rule="evenodd"/>
</svg>
