<svg xmlns="http://www.w3.org/2000/svg" width="47" height="47" fill="none" viewBox="0 0 47 47">
    <path fill="#8CC440" d="M23 9h-7c-1.66 0-3 1.34-3 3v8c0 1.66 1.34 3 3 3l-1 1v1h1l2-2.03 2 .03v-5h-5v-7.02l9 .02v2h2v-1c0-1.66-1.34-3-3-3zm-7 10c.55 0 1 .45 1 1s-.45 1-1 1-1-.45-1-1 .45-1 1-1zm15.57-4.34c-.14-.4-.52-.66-.97-.66h-7.19c-.46 0-.83.26-.98.66L21 18.77l.01 5.51c0 .38.31.72.69.72h.62c.38 0 .68-.38.68-.76V23h8v1.24c0 .38.31.76.69.76h.61c.38 0 .69-.34.69-.72l.01-1.37v-4.14l-1.43-4.11zm-8.16.34h7.19l1.03 3h-9.25l1.03-3zM23 21c-.55 0-1-.45-1-1s.45-1 1-1 1 .45 1 1-.45 1-1 1zm8 0c-.55 0-1-.45-1-1s.45-1 1-1 1 .45 1 1-.45 1-1 1z"/>
    <path fill="#fff" d="M39.673 27.895c.485-.247.681-.848.44-1.342-.243-.494-.832-.694-1.317-.447l-1.758.896c-.203.103-.393.23-.568.379l-2.767 2.35c-.417.354-.473.985-.126 1.41.347.424.965.48 1.381.127l2.768-2.351c.058-.05.122-.092.19-.126l1.757-.896z"/>
    <path fill="#fff" fill-rule="evenodd" d="M15.56 33H9.808c0-.552-.448-1-1-1H1c-.552 0-1 .448-1 1v13c0 .552.448 1 1 1h7.809c.552 0 1-.448 1-1h4.665l.436.433c.366.364.857.567 1.368.567h14.297c.53 0 1.04-.22 1.409-.608L46.26 31.366c1.753-1.844.154-4.895-2.323-4.436-.487.09-.939.321-1.301.665L30.605 39H26.5l-1.813-3h4.34c1.626 0 2.943-1.343 2.943-3s-1.317-3-2.943-3H20.23c-.416 0-.821.135-1.157.385L15.56 33zm29.291-3.025c.426-.448.038-1.188-.563-1.077-.119.022-.228.078-.316.161L31.94 40.465c-.363.344-.84.535-1.335.535H26.5c-.68 0-1.313-.36-1.67-.95l-1.813-3c-.806-1.333.134-3.05 1.67-3.05h4.34c.542 0 .981-.448.981-1s-.439-1-.98-1h-8.8l-3.513 2.615c-.335.25-.74.385-1.157.385H9.81v9h4.665c.51 0 1.002.203 1.368.567l.436.433h14.297l14.277-15.025zM1.962 34h5.886v11H1.962V34zM42.8 10.09l3.697-2.134-.907 9.36-8.56-3.894 4.032-2.328C37.168 5.592 30.753 2 23.5 2 11.626 2 2 11.626 2 23.5c0 2.266.35 4.45 1 6.5H.91C.319 27.936 0 25.755 0 23.5 0 10.521 10.521 0 23.5 0c7.994 0 15.056 3.991 19.3 10.09z" clip-rule="evenodd"/>
</svg>
