<svg xmlns="http://www.w3.org/2000/svg" width="258" height="40" fill="none" viewBox="0 0 258 40">
    <path fill="#000" d="M12.36 12.629c3.694 0 6.762 1.906 8.222 3.961v-3.455h5.629V38.78h-4.05c-.212.001-.422-.04-.617-.12-.196-.08-.373-.2-.523-.349-.15-.15-.268-.327-.349-.523-.08-.195-.121-.405-.12-.616v-1.847c-1.43 2.085-4.498 3.991-8.191 3.991C5.33 39.316 0 33.3 0 25.973s5.302-13.344 12.36-13.344zm.984 5.123c-4.557 0-7.655 3.604-7.655 8.22 0 4.617 3.068 8.221 7.655 8.221 4.557 0 7.655-3.604 7.655-8.22 0-4.617-3.038-8.221-7.655-8.221zm19.27-4.617h5.66v3.485c1.549-2.561 4.468-3.991 7.804-3.991 5.957 0 9.8 4.2 9.8 10.723V38.78h-4.052c-.211.001-.42-.04-.616-.12-.196-.08-.373-.2-.523-.349-.15-.15-.268-.327-.348-.523-.081-.195-.122-.405-.121-.616V24.275c0-4.05-2.055-6.523-5.332-6.523-3.753 0-6.612 2.919-6.612 8.4V38.78h-4.05c-.212.001-.422-.04-.617-.12-.196-.08-.373-.2-.523-.349-.15-.15-.268-.327-.349-.523-.08-.195-.121-.405-.12-.616V13.135zm40.092-.506c3.693 0 6.761 1.906 8.22 3.961V.328h5.63V38.81h-4.05c-.212.001-.422-.04-.617-.12-.196-.081-.374-.2-.523-.349-.15-.15-.268-.327-.349-.523-.08-.195-.121-.405-.12-.616v-1.847c-1.43 2.055-4.528 3.962-8.221 3.962-7.03 0-12.36-6.017-12.36-13.344.029-7.327 5.36-13.344 12.39-13.344zm1.012 5.123c-4.557 0-7.654 3.604-7.654 8.22 0 4.617 3.068 8.221 7.654 8.221 4.558 0 7.655-3.604 7.655-8.22 0-4.617-3.097-8.221-7.655-8.221zm19.242-4.617h5.63v4.557c.493-1.402 1.407-2.617 2.617-3.48 1.21-.864 2.657-1.334 4.143-1.345.74-.002 1.478.068 2.204.209v5.808c-.912-.308-1.867-.469-2.829-.477-3.247 0-6.166 2.71-6.166 7.864v12.51h-4.05c-.212 0-.421-.04-.617-.121-.195-.08-.373-.2-.523-.349-.15-.15-.268-.327-.348-.523-.08-.195-.122-.405-.12-.616V13.135h.059zm29.845 26.181c-7.596 0-13.434-5.897-13.434-13.343 0-7.447 5.838-13.344 13.434-13.344 7.595 0 13.433 5.897 13.433 13.344 0 7.446-5.838 13.343-13.433 13.343zm0-5.242c4.527 0 7.684-3.544 7.684-8.101s-3.187-8.102-7.684-8.102c-4.558 0-7.745 3.545-7.745 8.102s3.187 8.101 7.745 8.101zm20.819-26.538c-.999 0-1.957-.397-2.664-1.104-.706-.707-1.103-1.665-1.103-2.664 0-1 .397-1.958 1.103-2.664C141.667.397 142.625 0 143.624 0c1 0 1.958.397 2.665 1.104.706.706 1.103 1.665 1.103 2.664 0 1-.397 1.957-1.103 2.664-.707.707-1.665 1.104-2.665 1.104zm-2.799 5.6h5.629V38.78h-4.051c-.211.001-.421-.04-.616-.12-.196-.08-.374-.2-.523-.349-.15-.15-.268-.327-.349-.523-.08-.195-.121-.405-.12-.616.03 0 .03-24.037.03-24.037zm22.636-.507c3.694 0 6.762 1.906 8.221 3.961V.328h5.629V38.81h-4.05c-.212.001-.421-.04-.617-.12-.195-.081-.373-.2-.523-.349-.149-.15-.268-.327-.348-.523-.081-.195-.122-.405-.121-.616v-1.847c-1.429 2.055-4.527 3.962-8.22 3.962-7.03 0-12.361-6.017-12.361-13.344.029-7.327 5.361-13.344 12.39-13.344zm1.043 5.123c-4.557 0-7.655 3.604-7.655 8.22 0 4.617 3.068 8.221 7.655 8.221 4.557 0 7.655-3.604 7.655-8.22 0-4.617-3.098-8.221-7.655-8.221z"/>
    <path fill="#3DDC84" d="M239.591 29.194c-.565 0-1.118-.168-1.588-.482-.47-.314-.837-.76-1.053-1.283-.217-.523-.273-1.098-.163-1.652.11-.555.383-1.064.783-1.464.399-.4.909-.672 1.464-.783.554-.11 1.129-.053 1.652.163.522.216.969.583 1.283 1.053.314.47.482 1.023.482 1.589 0 .758-.302 1.485-.838 2.021-.536.536-1.263.838-2.022.838zm-31.483 0c-.565 0-1.118-.168-1.588-.482-.47-.314-.837-.76-1.053-1.283-.217-.523-.273-1.098-.163-1.652.11-.555.383-1.064.783-1.464.399-.4.909-.672 1.464-.783.554-.11 1.129-.053 1.652.163.522.216.969.583 1.283 1.053.314.47.482 1.023.482 1.589 0 .758-.302 1.485-.838 2.021-.536.536-1.263.838-2.022.838zm32.496-17.156l5.719-9.86c.077-.134.127-.283.146-.437.02-.155.008-.311-.033-.461-.041-.15-.112-.29-.207-.413-.096-.123-.215-.225-.35-.302-.135-.076-.285-.125-.439-.144-.154-.019-.311-.007-.461.035-.149.042-.289.114-.411.21-.123.096-.224.215-.3.351l-5.779 9.978c-4.589-2.097-9.578-3.174-14.624-3.157-5.052-.012-10.048 1.054-14.655 3.127L203.402.987c-.075-.135-.177-.255-.3-.351-.122-.096-.262-.167-.411-.21-.15-.041-.307-.053-.461-.035-.154.02-.303.068-.439.145-.135.076-.254.179-.35.301-.095.123-.166.263-.207.413-.041.15-.053.307-.033.46.019.155.069.304.146.439l5.689 9.859c-4.919 2.683-9.091 6.55-12.139 11.251-3.047 4.702-4.874 10.09-5.315 15.675h68.417c-.428-5.578-2.243-10.96-5.281-15.658-3.038-4.697-7.202-8.56-12.114-11.238z"/>
</svg>
