<svg xmlns="http://www.w3.org/2000/svg" width="48" height="48" fill="none" viewBox="0 0 48 48">
    <path fill="#004279" d="M46 0H2C.9 0 0 .9 0 2v44c0 1.1.9 2 2 2h24v-2H2V2h44v23h2V2c0-1.1-.9-2-2-2z"/>
    <path fill="#004279" d="M38 28c-5.5 0-10 4.5-10 10s4.5 10 10 10 10-4.5 10-10-4.5-10-10-10zm0 18c-4.4 0-8-3.6-8-8s3.6-8 8-8 8 3.6 8 8-3.6 8-8 8z"/>
    <path fill="#004279" d="M42 40.6c0 1.6-1.2 2.5-2.7 2.8V45H37v-1.7c-1.5-.3-2.8-1.3-2.9-3h1.7c.1.9.7 1.6 2.3 1.6 1.7 0 2.1-.9 2.1-1.4 0-.7-.4-1.4-2.3-1.9-2.2-.5-3.7-1.4-3.7-3.2 0-1.5 1.2-2.5 2.7-2.8V31h2.3v1.7c1.6.4 2.4 1.6 2.5 3H40c0-1-.6-1.6-1.9-1.6-1.3 0-2.1.6-2.1 1.4 0 .7.6 1.2 2.3 1.7 1.8.4 3.7 1.2 3.7 3.4z"/>
    <path fill="#2083D2" d="M32 18.9c0-2.3-1.5-4.2-3.6-4.7.4-.6.6-1.4.6-2.2 0-2.2-1.8-4-4-4s-4 1.8-4 4c0 .7.2 1.3.5 1.8-1.4-1.1-3.5-1.1-4.9 0 .3-.5.5-1.2.5-1.8 0-2.2-1.8-4-4-4s-4 1.8-4 4c0 .8.2 1.5.6 2.2-2.2.5-3.7 2.5-3.7 4.7V23h6.1c0 .3-.1.6-.1.9V28h14v-4.1c0-.3 0-.6-.1-.9H32v-4.1zM25 10c1.1 0 2 .9 2 2s-.9 2-2 2-2-.9-2-2 .9-2 2-2zm-7.8 6.1c.1-.3.3-.5.5-.6.3-.3.8-.5 1.3-.5s1 .2 1.3.5c.2.2.4.4.5.6.1.3.2.6.2.9 0 1-.7 1.8-1.6 2-.3.1-.6.1-.8 0-.9-.2-1.6-1-1.6-2 0-.3.1-.6.2-.9zM13 10c1.1 0 2 .9 2 2s-.9 2-2 2-2-.9-2-2 .9-2 2-2zm0 11H8v-2.1c0-1.6 1.3-2.9 2.9-2.9h4.2c-.1.3-.1.7-.1 1 0 .8.2 1.5.6 2.2-1 .3-2 .9-2.6 1.8zm11 5H14v-2.1c0-.4.1-.8.3-1.2.1-.3.3-.6.6-.9.6-.5 1.3-.8 2.1-.8h4.2c.8 0 1.5.3 2.1.8.3.3.4.5.6.9.2.4.3.8.3 1.2V26H24zm6-5h-5c-.7-.9-1.6-1.5-2.7-1.8.4-.6.6-1.4.6-2.2 0-.3 0-.7-.1-1H27c1.6 0 2.9 1.3 2.9 2.9V21h.1z"/>
</svg>
