<svg xmlns="http://www.w3.org/2000/svg" width="48" height="47" fill="none" viewBox="0 0 48 47">
    <path fill="#fff" fill-rule="evenodd" d="M44 9.4L24 2.129 4 9.401V45h40V9.4zM24 0l22 8v39H2V8l22-8z" clip-rule="evenodd"/>
    <path fill="#fff" d="M0 45h48v2H0v-2z"/>
    <path fill="#fff" fill-rule="evenodd" d="M29 32H19v13h10V32zm-12-2v17h14V30H17z" clip-rule="evenodd"/>
    <path fill="#fff" d="M46 8h2v2h-2V8zM0 8h2v2H0V8zM35 37h5v5h-5v-5zM35 30h5v5h-5v-5zM33 18h7v3h-7v-3zM33 13h7v3h-7v-3zM8 37h5v5H8v-5zM8 30h5v5H8v-5zM8 18h7v3H8v-3zM8 13h7v3H8v-3zM2 25h44v2H2v-2z"/>
    <path fill="#8CC440" d="M25.556 21.09V23H22.61v-1.93c-1.887-.36-3.488-1.46-3.609-3.4h2.163c.11 1.05.905 1.87 2.925 1.87 2.164 0 2.65-.98 2.65-1.59 0-.83-.486-1.61-2.948-2.14-2.737-.6-4.613-1.62-4.613-3.67 0-1.72 1.534-2.84 3.432-3.21V7h2.947v1.95c2.053.45 3.08 1.86 3.146 3.39h-2.163c-.056-1.11-.707-1.87-2.45-1.87-1.656 0-2.65.68-2.65 1.64 0 .84.718 1.39 2.947 1.91 2.23.52 4.614 1.39 4.614 3.91-.011 1.83-1.523 2.83-3.444 3.16z"/>
</svg>
