<svg xmlns="http://www.w3.org/2000/svg" width="48" height="48" fill="none" viewBox="0 0 48 48">
    <path fill="#333" fill-rule="evenodd" d="M24 26c3.291 0 6.273-1.325 8.441-3.47.416.536.833 1.072 1.238 1.585C31.164 26.523 27.755 28 24 28c-7.732 0-14-6.268-14-14S16.268 0 24 0c7.053 0 12.888 5.215 13.858 12h-2.024C34.882 6.325 29.946 2 24 2c-6.627 0-12 5.373-12 12s5.373 12 12 12zm16.894 1.553c.247.494.047 1.095-.447 1.342l-1.792.896c-.07.034-.134.077-.193.126l-2.822 2.351c-.424.354-1.055.297-1.408-.128-.354-.424-.297-1.055.128-1.408l2.822-2.351c.177-.148.371-.276.578-.38l1.793-.895c.494-.247 1.095-.047 1.341.447zM10 34h5.863l3.581-2.615c.343-.25.756-.385 1.18-.385h8.97c1.657 0 3 1.343 3 3s-1.343 3-3 3H25.17l1.849 3H31.2l12.267-11.405c.369-.344.83-.574 1.325-.665 2.527-.459 4.156 2.592 2.37 4.436L32.608 47.392c-.377.389-.895.608-1.437.608H16.596c-.522 0-1.022-.203-1.396-.567L14.756 47H10c0 .553-.448 1-1 1H1c-.552 0-1-.447-1-1V34c0-.552.448-1 1-1h8c.552 0 1 .448 1 1zm35.151-4.102c.613-.111 1.009.63.575 1.077L31.171 46H16.596l-.445-.433c-.373-.363-.874-.567-1.395-.567H10v-9h5.863c.424 0 .837-.135 1.18-.385L20.622 33h8.972c.552 0 1 .448 1 1 0 .553-.448 1-1 1h-4.426c-1.565 0-2.524 1.717-1.703 3.05l1.85 3c.363.59 1.008.95 1.702.95H31.2c.506 0 .992-.191 1.362-.535L44.83 30.059c.09-.083.202-.139.322-.16zM8 35H2v11h6V35z" clip-rule="evenodd"/>
    <path fill="#2083D2" fill-rule="evenodd" d="M25.556 22v-1.91c1.92-.33 3.433-1.33 3.444-3.16 0-2.52-2.384-3.39-4.614-3.91s-2.947-1.07-2.947-1.91c0-.96.994-1.64 2.65-1.64 1.743 0 2.394.76 2.45 1.87h2.163c-.066-1.53-1.093-2.94-3.146-3.39V6H22.61v1.93c-1.898.37-3.432 1.49-3.432 3.21 0 2.05 1.876 3.07 4.613 3.67 2.462.53 2.947 1.31 2.947 2.14 0 .61-.485 1.59-2.649 1.59-2.02 0-2.814-.82-2.925-1.87H19c.121 1.94 1.722 3.04 3.61 3.4V22h2.946zM35 14h4v4h3l-5 7-5-7h3v-4z" clip-rule="evenodd"/>
</svg>
