<svg xmlns="http://www.w3.org/2000/svg" width="69" height="96" fill="none" viewBox="0 0 69 96">
    <g clip-path="url(#prefix__clip0)">
        <path fill="#264DE4" d="M68.16 18.867L61.95 88.28l-27.912 7.722-27.835-7.71L0 18.866h68.16z"/>
        <path fill="#2965F1" d="M56.633 83.859l5.306-59.316h-27.86v65.555l22.553-6.239z"/>
        <path fill="#EBEBEB" d="M14.219 50.29l.764 8.513H34.08V50.29h-19.86zM34.08 33.059H12.684l.775 8.514H34.08V33.06zM34.081 81.262v-8.858l-.037.01-9.504-2.56-.607-6.791h-8.566l1.196 13.368 17.479 4.842.039-.01z"/>
        <path fill="#000" d="M16.04 0h10.334v4.313H20.36v4.312h6.013v4.313H16.039V0zM28.441 0h10.335v3.75h-6.013v.75h6.013v8.625H28.441V9.187h6.013v-.75h-6.013V0zM40.844 0h10.335v3.75h-6.013v.75h6.013v8.625H40.844V9.187h6.013v-.75h-6.013V0z"/>
        <path fill="#fff" d="M44.558 58.806l-.99 11.043-9.517 2.563v8.858l17.493-4.837.128-1.439 2.005-22.416.208-2.286 1.54-17.233H34.052v8.514h12.023l-.776 8.72H34.051v8.514h10.507z"/>
    </g>
    <defs>
        <clipPath id="prefix__clip0">
            <path fill="#fff" d="M0 0H68.16V96H0z"/>
        </clipPath>
    </defs>
</svg>
