<svg xmlns="http://www.w3.org/2000/svg" width="48" height="48" fill="none" viewBox="0 0 48 48">
    <path fill="#fff" fill-rule="evenodd" d="M21 45c1.105 0 2 .895 2 2v1h2v-1c0-1.105.895-2 2-2h21V5h-4v2h2v36H27c-.729 0-1.412.195-2 .535V10h-2v33.535c-.588-.34-1.271-.535-2-.535H2V7h2V5H0v40h21z" clip-rule="evenodd"/>
    <path fill="#fff" fill-rule="evenodd" d="M4 41h17c1.105 0 2 .895 2 2v3h2V4c0-2.21-1.79-4-4-4H4v41zM21 2H6v37h17V4c0-1.105-.895-2-2-2z" clip-rule="evenodd"/>
    <path fill="#fff" fill-rule="evenodd" d="M44 41H27c-1.105 0-2 .895-2 2v3h-2V4c0-2.21 1.79-4 4-4h17v41zM27 2h15v37H25V4c0-1.105.895-2 2-2z" clip-rule="evenodd"/>
    <path fill="#8CC440" fill-rule="evenodd" d="M36 11l4 2V0h-8v13l4-2zm-2-1.236l2-1 2 1V2h-4v7.764z" clip-rule="evenodd"/>
    <path fill="#8CC440" d="M28 34c0-.552.448-1 1-1h9c.552 0 1 .448 1 1s-.448 1-1 1h-9c-.552 0-1-.448-1-1zM9 34c0-.552.448-1 1-1h9c.552 0 1 .448 1 1s-.448 1-1 1h-9c-.552 0-1-.448-1-1zM28 30c0-.552.448-1 1-1h9c.552 0 1 .448 1 1s-.448 1-1 1h-9c-.552 0-1-.448-1-1zM9 30c0-.552.448-1 1-1h9c.552 0 1 .448 1 1s-.448 1-1 1h-9c-.552 0-1-.448-1-1zM28 26c0-.552.448-1 1-1h9c.552 0 1 .448 1 1s-.448 1-1 1h-9c-.552 0-1-.448-1-1zM9 26c0-.552.448-1 1-1h9c.552 0 1 .448 1 1s-.448 1-1 1h-9c-.552 0-1-.448-1-1zM28 22c0-.552.448-1 1-1h9c.552 0 1 .448 1 1s-.448 1-1 1h-9c-.552 0-1-.448-1-1zM9 22c0-.552.448-1 1-1h9c.552 0 1 .448 1 1s-.448 1-1 1h-9c-.552 0-1-.448-1-1zM9 14c0-.552.448-1 1-1h9c.552 0 1 .448 1 1s-.448 1-1 1h-9c-.552 0-1-.448-1-1zM12 10c0-.552.448-1 1-1h3c.552 0 1 .448 1 1s-.448 1-1 1h-3c-.552 0-1-.448-1-1z"/>
</svg>
