<svg xmlns="http://www.w3.org/2000/svg" width="48" height="48" fill="none" viewBox="0 0 48 48">
    <path fill="#333" fill-rule="evenodd" d="M44 2H4c-1.105 0-2 .895-2 2v25h44V4c0-1.105-.895-2-2-2zM2 36v-5h44v5c0 1.105-.895 2-2 2H4c-1.105 0-2-.895-2-2zm29 4h13c2.21 0 4-1.79 4-4V4c0-2.21-1.79-4-4-4H4C1.79 0 0 1.79 0 4v32c0 2.21 1.79 4 4 4h13v6h-3c-.552 0-1 .448-1 1s.448 1 1 1h20c.552 0 1-.448 1-1s-.448-1-1-1h-3v-6zm-2 0H19v6h10v-6zm5-5.5c0 .828-.672 1.5-1.5 1.5s-1.5-.672-1.5-1.5.672-1.5 1.5-1.5 1.5.672 1.5 1.5zm3.5 1.5c.828 0 1.5-.672 1.5-1.5s-.672-1.5-1.5-1.5-1.5.672-1.5 1.5.672 1.5 1.5 1.5zm6.5-1.5c0 .828-.672 1.5-1.5 1.5s-1.5-.672-1.5-1.5.672-1.5 1.5-1.5 1.5.672 1.5 1.5z" clip-rule="evenodd"/>
    <path fill="#2083D2" fill-rule="evenodd" d="M24.675 6.073L24.002 4l-.674 2.073h-2.18l1.764 1.281-.674 2.073 1.764-1.281 1.763 1.281-.674-2.073 1.764-1.281h-2.18zm-10 6L14.002 10l-.674 2.073h-2.18l1.764 1.281-.674 2.073 1.764-1.281 1.763 1.281-.674-2.073 1.764-1.281h-2.18zM24.002 18c1.104 0 2-.895 2-2s-.896-2-2-2c-1.105 0-2 .895-2 2s.895 2 2 2zm4-2c0 .739-.2 1.431-.55 2.025 1.997.224 3.55 1.918 3.55 3.975v5h-14v-5c0-2.057 1.552-3.751 3.55-3.975-.35-.594-.55-1.286-.55-2.025 0-2.21 1.79-4 4-4 2.209 0 4 1.79 4 4zm-7 4h6c1.104 0 2 .895 2 2v3h-10v-3c0-1.105.895-2 2-2zm13-10l.673 2.073h2.18l-1.764 1.281.674 2.073-1.763-1.281-1.764 1.281.674-2.073-1.764-1.281h2.18L34.002 10z" clip-rule="evenodd"/>
</svg>
