<svg xmlns="http://www.w3.org/2000/svg" width="48" height="49" fill="none" viewBox="0 0 48 49">
    <path fill="#333" fill-rule="evenodd" d="M2 0h44c1.1 0 2 .9 2 2v35c0 1.1-.9 2-2 2H32v-2h14V2H2v35h13v2H2c-1.1 0-2-.9-2-2V2C0 .9.9 0 2 0z" clip-rule="evenodd"/>
    <rect width="16" height="2" x="26" y="15" fill="#2083D2" rx="1"/>
    <rect width="16" height="2" x="26" y="19" fill="#2083D2" rx="1"/>
    <rect width="16" height="2" x="26" y="23" fill="#2083D2" rx="1"/>
    <path fill="#333" d="M46 2H2v5h44V2z"/>
    <path fill="#2083D2" d="M14 10l-9 4v6c0 5.55 3.84 10.74 9 12 5.16-1.26 9-6.45 9-12v-6l-9-4zm-2 16l-4-4 1.41-1.41L12 23.17l6.59-6.59L20 18l-8 8zM29.5 42h-.79l-.28-.27c.98-1.14 1.57-2.62 1.57-4.23 0-3.59-2.91-6.5-6.5-6.5S17 33.91 17 37.5s2.91 6.5 6.5 6.5c1.61 0 3.09-.59 4.23-1.57l.27.28v.79l5 4.99L34.49 47l-4.99-5zm-6 0c-2.49 0-4.5-2.01-4.5-4.5s2.01-4.5 4.5-4.5 4.5 2.01 4.5 4.5-2.01 4.5-4.5 4.5z"/>
    <path fill="#fff" d="M3.5 5C4.328 5 5 4.328 5 3.5S4.328 2 3.5 2 2 2.672 2 3.5 2.672 5 3.5 5zM8.5 5c.828 0 1.5-.672 1.5-1.5S9.328 2 8.5 2 7 2.672 7 3.5 7.672 5 8.5 5zM13.5 5c.828 0 1.5-.672 1.5-1.5S14.328 2 13.5 2 12 2.672 12 3.5 12.672 5 13.5 5zM44.5 5h-11c-.8 0-1.5-.7-1.5-1.5S32.7 2 33.5 2h11c.8 0 1.5.7 1.5 1.5S45.3 5 44.5 5z"/>
</svg>
