<svg xmlns="http://www.w3.org/2000/svg" width="48" height="48" fill="none" viewBox="0 0 48 48">
    <path fill="#004279" d="M46 0H2C.9 0 0 .9 0 2v44c0 1.1.9 2 2 2h24v-2H2V2h44v23h2V2c0-1.1-.9-2-2-2z"/>
    <path fill="#004279" d="M46 32c-.8 0-1.5.5-1.8 1.1-.1 0-.2-.1-.2-.1 0-1.1-.9-2-2-2s-2 .9-2 2v-1c0-1.1-.9-2-2-2s-2 .9-2 2v-8c0-1.1-.9-2-2-2s-2 .9-2 2v15.5c-1.9-1-3-1.3-4-1.5h-1c-1.5 0-3 .6-3 2.5l4 1.8.5.2 3.2 3.2c1.5 1.5 3.5 2.3 5.7 2.3H44c2.2 0 4-1.8 4-4V34c0-1.1-.9-2-2-2z"/>
    <path fill="#2083D2" d="M11.2 20h2.7l-1.8 3H8l3.7-6H9l5.4-8.8 2 3.3-4.2 7-1 1.5zM13 27h3v.5c0 .8-.7 1.5-1.5 1.5s-1.5-.7-1.5-1.5V27z"/>
    <path fill="#2083D2" d="M26 25h-5v3.5c0 .8-.7 1.5-1.5 1.5s-1.5-.7-1.5-1.5V25h-5l1-1.6 2.7-4.4H14l4-6.5 1.4-2.3 5.4 8.8h-2.5l3.7 6zM24 34h-7c-.5 0-1-.5-1-1s.4-1 1-1h7c.5 0 1 .5 1 1s-.4 1-1 1zM13 34h-3c-.5 0-1-.5-1-1s.4-1 1-1h3c.5 0 1 .5 1 1s-.4 1-1 1z"/>
</svg>
