<svg xmlns="http://www.w3.org/2000/svg" width="152" height="59" fill="none" viewBox="0 0 152 59">
    <path fill="#000" d="M11.467 18.343c-.294 0-.368-.149-.22-.372l1.543-2.008c.147-.223.514-.372.808-.372h26.24c.294 0 .368.223.22.446l-1.249 1.934c-.147.223-.514.446-.735.446l-26.607-.074zM.368 25.185c-.294 0-.367-.148-.22-.372l1.543-2.008c.147-.223.515-.372.809-.372h33.516c.294 0 .441.224.368.447l-.588 1.785c-.074.297-.368.446-.662.446l-34.766.074zm17.788 6.843c-.294 0-.368-.223-.221-.447l1.029-1.859c.147-.223.441-.446.735-.446h14.7c.294 0 .441.223.441.52l-.147 1.785c0 .298-.294.521-.514.521l-16.024-.074zm76.293-15.024c-4.63 1.19-7.79 2.083-12.348 3.273-1.102.297-1.176.371-2.131-.744-1.103-1.265-1.911-2.083-3.455-2.826-4.63-2.306-9.114-1.637-13.303 1.115-4.998 3.273-7.571 8.107-7.498 14.131.074 5.95 4.117 10.859 9.923 11.677 4.998.67 9.188-1.116 12.495-4.909.662-.818 1.25-1.71 1.985-2.751H65.93c-1.543 0-1.91-.967-1.396-2.232.955-2.305 2.72-6.173 3.748-8.107.22-.446.735-1.19 1.838-1.19h26.754c-.147 2.009-.147 4.017-.441 6.025-.808 5.355-2.793 10.264-6.027 14.577-5.292 7.066-12.201 11.454-20.948 12.644-7.203.967-13.892-.446-19.772-4.909-5.439-4.165-8.526-9.669-9.334-16.51-.956-8.108 1.396-15.396 6.247-21.793C51.82 7.56 58.728 3.171 67.18 1.61c6.91-1.265 13.525-.447 19.478 3.644 3.896 2.603 6.689 6.173 8.526 10.487.442.67.148 1.041-.734 1.264z"/>
    <path fill="#000" d="M118.778 58.136c-6.689-.149-12.79-2.083-17.935-6.545-4.336-3.793-7.056-8.627-7.938-14.354-1.323-8.405.956-15.842 5.954-22.461 5.365-7.14 11.834-10.859 20.58-12.42 7.497-1.34 14.553-.596 20.948 3.792 5.806 4.016 9.408 9.446 10.364 16.586 1.249 10.04-1.617 18.221-8.453 25.213-4.851 4.983-10.805 8.106-17.64 9.52-1.985.371-3.969.446-5.88.669zm17.493-30.047c-.074-.967-.074-1.711-.221-2.455-1.323-7.363-8.011-11.528-14.994-9.892-6.835 1.562-11.245 5.95-12.862 12.942-1.323 5.8 1.47 11.676 6.762 14.056 4.042 1.785 8.085 1.562 11.98-.446 5.807-3.05 8.967-7.81 9.335-14.205z"/>
</svg>
