<svg xmlns="http://www.w3.org/2000/svg" width="48" height="48" fill="none" viewBox="0 0 48 48">
    <path fill="#004279" d="M46 0H2C.9 0 0 .9 0 2v44c0 1.1.9 2 2 2h24v-2H2V2h44v23h2V2c0-1.1-.9-2-2-2z"/>
    <path fill="#004279" d="M46.7 31.6l-2.3-2.3c-.4-.4-1-.4-1.4 0l-1.8 1.8 3.8 3.8 1.8-1.8c.3-.5.3-1.1-.1-1.5zm-6.6.6L29 43.3V47h3.8l11.1-11.1-3.8-3.7z"/>
    <path fill="#2083D2" d="M24 10H9.5c.8 0 1.5.7 1.5 1.5V31c0 1 .8 1.8 1.7 2H13.6c.1 0 .2-.2.2-.5V30H26V12c0-1.1-.9-2-2-2zm-5.5 3c1.4 0 2.5 1.1 2.5 2.5S19.9 18 18.5 18 16 16.9 16 15.5s1.1-2.5 2.5-2.5zm4 14h-8c-.3 0-.5-.2-.5-.5s.2-.5.5-.5h8c.3 0 .5.2.5.5s-.2.5-.5.5zm0-3h-8c-.3 0-.5-.2-.5-.5s.2-.5.5-.5h8c.3 0 .5.2.5.5s-.2.5-.5.5zm0-3h-8c-.3 0-.5-.2-.5-.5s.2-.5.5-.5h8c.3 0 .5.2.5.5s-.2.5-.5.5z"/>
    <path fill="#2083D2" d="M28 31v1.5c0 .8-.6 1.5-1.3 1.5H14v-.1c.4-.1.7-.5.8-.9 0-.2.1-.3.1-.5V31H28zM10 12.5V14H7v-1.5c0-.8.7-1.5 1.5-1.5s1.5.7 1.5 1.5z"/>
</svg>
