<svg xmlns="http://www.w3.org/2000/svg" width="69" height="96" fill="none" viewBox="0 0 69 96">
    <path fill="#000" d="M6.336 0h4.312v4.275h3.975V0h4.313v12.938h-4.313V8.625h-3.937v4.313h-4.35V0zm18.3 4.313H20.83V0h11.943v4.313h-3.825v8.625h-4.312V4.312zM34.667 0h4.519l2.775 4.556L44.736 0h4.519v12.938h-4.313V6.524l-3.019 4.65-3.018-4.65v6.412h-4.238V0zm16.725 0h4.313v8.662h6.112v4.275H51.392"/>
    <path fill="#E44D26" d="M6.188 88.313L0 18.863h68.025l-6.188 69.413L33.957 96"/>
    <path fill="#F16529" d="M34.012 90.094V24.563h27.806l-5.306 59.25"/>
    <path fill="#EBEBEB" d="M12.637 33.055h21.375v8.512H21.974l.788 8.719h11.25v8.494h-19.05l-2.325-25.725zm2.7 30h8.55l.6 6.806 9.525 2.55v8.887l-17.475-4.875"/>
    <path fill="#fff" d="M55.31 33.055H33.973v8.512h20.55l.787-8.512zm-1.556 17.23H33.973v8.513h10.5l-.994 11.063-9.506 2.55v8.85l17.437-4.838"/>
</svg>
