<svg xmlns="http://www.w3.org/2000/svg" width="48" height="47" fill="none" viewBox="0 0 48 47">
    <path fill="#fff" d="M40.447 27.895c.494-.247.694-.848.447-1.342-.246-.494-.847-.694-1.341-.447l-1.793.896c-.206.103-.4.23-.578.379l-2.822 2.351c-.425.354-.482.984-.128 1.408.353.425.984.482 1.408.128l2.822-2.351c.06-.05.124-.092.193-.126l1.792-.896z"/>
    <path fill="#fff" fill-rule="evenodd" d="M15.863 33H10c0-.552-.448-1-1-1H1c-.552 0-1 .448-1 1v13c0 .553.448 1 1 1h8c.552 0 1-.447 1-1h4.756l.444.433c.374.364.874.567 1.396.567H31.17c.541 0 1.06-.22 1.437-.608l14.555-15.026c1.786-1.844.157-4.895-2.37-4.436-.496.09-.956.321-1.325.665L31.2 39h-4.183l-1.849-3h4.426c1.656 0 3-1.343 3-3s-1.344-3-3-3h-8.971c-.424 0-.837.135-1.18.385L15.863 33zm29.863-3.025c.434-.448.038-1.188-.575-1.077-.12.022-.232.078-.322.162L32.563 40.465c-.37.344-.856.535-1.362.535h-4.183c-.694 0-1.339-.36-1.703-.95l-1.849-3c-.82-1.333.138-3.05 1.703-3.05h4.426c.552 0 1-.447 1-1 0-.552-.448-1-1-1h-8.971l-3.582 2.615c-.342.25-.755.385-1.18.385H10v9h4.756c.52 0 1.021.204 1.395.567l.445.433H31.17l14.555-15.025zM2 34h6v11H2V34z" clip-rule="evenodd"/>
    <path fill="#8CC440" d="M30.75 0C28.14 0 25.635 1.192 24 3.075 22.365 1.192 19.86 0 17.25 0 12.63 0 9 3.56 9 8.093c0 5.547 5.074 10.07 12.766 16.927l.059.053L24 27l2.175-1.942.019-.017C29.613 22 32.516 19.417 34.69 17h-2.84c-2.115 2.201-4.76 4.511-7.7 6.853L24 24l-.15-.147C16 17.5 11 12.345 11 8.093 11 5.15 14 2 17 2c2.31 0 5.205.984 6 3h2c.78-2.016 3.69-3 6-3 3 0 6 3.15 6 6.093 0 .909-.251 1.882-.718 2.907h2.242c.313-.949.476-1.912.476-2.907C39 3.56 35.37 0 30.75 0z"/>
    <path fill="#8CC440" d="M33.618 13l-2.694-5.387c-.37-.74-1.426-.737-1.791.005L25.5 15l-3.128-5.864c-.374-.702-1.379-.707-1.76-.008L18.5 13H17c-.552 0-1 .448-1 1s.448 1 1 1h1.92c.358 0 .69-.192.868-.504L21.5 11.5l3.106 6.211c.368.737 1.42.737 1.788 0L30 10.5l2.1 3.968c.174.327.514.532.884.532H45c.552 0 1-.448 1-1s-.448-1-1-1H33.618z"/>
</svg>
