<svg xmlns="http://www.w3.org/2000/svg" width="69" height="96" fill="none" viewBox="0 0 69 96">
    <path fill="#E6A329" d="M68.198 18.813H0l6.394 69.33L34.095 96l27.702-7.856 6.401-69.332z"/>
    <path fill="#F1BF22" d="M34.098 24.46v65.665l22.444-6.36 5.46-59.304H34.099z"/>
    <path fill="#fff" d="M51.95 32.969H17.438l-2.404 25.958.05-.161h29.319l-.957 10.982-9.354 2.692-9.492-2.734-.569-6.647h-8.617l1.23 13.283 17.448 4.953 17.457-4.953 2.404-26.07H22.838l.4-8.686h21.588l.322 4.976h8.694L51.95 32.97z"/>
    <path fill="#EBEBEB" d="M34.1 32.969H17.44l-2.404 25.958.05-.161h19.016v-8.467H24.05l.4-8.686h9.65v-8.644zm-10.049 30.09h-8.636l1.23 13.275 17.448 4.946v-8.832l-9.492-2.742-.55-6.647z"/>
    <path fill="#231F20" d="M27.462 8.586H21.39v4.359h10.414V0h-4.343v8.586zM46.8.07H36.217V4.6c1.413 1.413 2.15 2.093 4.232 4.14h-4.232v4.132H46.8V8.748l-4.232-4.14H46.8V.069z"/>
</svg>
