<svg xmlns="http://www.w3.org/2000/svg" width="281" height="39" fill="none" viewBox="0 0 281 39">
    <path fill="#0DADEA" d="M0 5.366l15.993-2.198v15.433H.001L0 5.366zm15.993 15.21v15.258L.003 33.64.001 20.578h15.992v-.001zm1.769-17.65L39.042 0v18.601h-21.28V2.925zm21.28 17.65V39l-21.28-2.923V20.576h21.28z"/>
    <path fill="#00ADEF" d="M75.169 31.03h-3.697V16.736c0-1.172.073-2.603.22-4.299h-.063c-.23.966-.434 1.658-.61 2.081L64.313 31.03h-2.569l-6.72-16.388c-.188-.482-.387-1.217-.595-2.203h-.062c.084.884.126 2.326.126 4.328V31.03h-3.447V8.942h5.247l5.906 14.71c.449 1.13.741 1.973.877 2.526h.078c.386-1.16.7-2.023.94-2.588L70.11 8.942h5.06L75.17 31.03zm6.94-19.085c-.595 0-1.106-.19-1.527-.57-.423-.38-.635-.863-.635-1.448s.212-1.073.635-1.464c.423-.39.932-.585 1.527-.585.615 0 1.139.196 1.567.585.427.391.642.877.642 1.464 0 .554-.215 1.03-.642 1.425-.43.396-.952.593-1.567.593zm1.8 19.085h-3.633V15.256h3.634V31.03zm16.245-.724c-1.283.73-2.804 1.094-4.558 1.094-2.382 0-4.303-.732-5.765-2.195-1.462-1.462-2.194-3.36-2.194-5.692 0-2.598.787-4.684 2.358-6.261 1.572-1.577 3.673-2.365 6.305-2.365 1.462 0 2.752.252 3.869.756v3.326c-1.119-.82-2.308-1.232-3.571-1.232-1.535 0-2.793.512-3.775 1.533-.981 1.021-1.473 2.359-1.473 4.012 0 1.633.461 2.922 1.386 3.866.924.945 2.164 1.417 3.72 1.417 1.306 0 2.537-.456 3.696-1.37l.002 3.111zm12.922-11.645c-.439-.34-1.07-.508-1.895-.508-1.076 0-1.975.477-2.695 1.433-.721.954-1.082 2.254-1.082 3.896v7.548h-3.634V15.256h3.634v3.25h.062c.355-1.109.901-1.974 1.637-2.595.736-.62 1.559-.932 2.467-.932.659 0 1.16.099 1.505.293l.001 3.39zm9.712 12.739c-2.474 0-4.45-.737-5.929-2.21-1.478-1.474-2.217-3.428-2.217-5.861 0-2.65.769-4.72 2.311-6.208 1.541-1.49 3.615-2.234 6.227-2.234 2.507 0 4.458.724 5.858 2.172 1.4 1.449 2.098 3.456 2.098 6.023 0 2.516-.754 4.531-2.263 6.045-1.508 1.516-3.536 2.273-6.085 2.273zm.172-13.663c-1.42 0-2.543.488-3.367 1.462-.825.976-1.237 2.321-1.237 4.036 0 1.653.418 2.955 1.253 3.904.835.95 1.953 1.425 3.353 1.425 1.432 0 2.531-.468 3.297-1.401.767-.936 1.152-2.265 1.152-3.99 0-1.735-.383-3.076-1.152-4.02-.768-.944-1.867-1.416-3.299-1.416zm10.888 12.8v-3.31c1.359 1.016 2.857 1.524 4.495 1.524 2.194 0 3.289-.636 3.289-1.91 0-.36-.093-.664-.281-.916-.187-.252-.44-.475-.76-.67-.32-.193-.695-.369-1.128-.523-.434-.155-.916-.329-1.449-.524-.609-.235-1.203-.507-1.778-.817-.528-.288-.966-.613-1.316-.977-.345-.356-.613-.778-.79-1.24-.178-.462-.266-1.002-.266-1.618 0-.76.183-1.43.549-2.01.366-.58.855-1.068 1.471-1.462.617-.396 1.316-.693 2.1-.893.793-.202 1.609-.303 2.427-.3 1.482 0 2.809.22 3.978.66v3.127c-1.128-.76-2.422-1.14-3.884-1.14-.46 0-.875.047-1.245.138-.371.092-.688.22-.949.385-.26.164-.464.36-.61.593-.146.227-.222.492-.22.762 0 .338.073.626.22.863.146.236.362.444.65.624.286.18.632.344 1.034.492.402.149.864.312 1.387.485.633.252 1.252.535 1.856.848.549.288 1.017.613 1.403.977.381.356.684.787.892 1.264.209.477.314 1.045.314 1.702 0 .801-.188 1.498-.565 2.095-.375.596-.878 1.088-1.503 1.478-.627.39-1.35.68-2.169.87-.821.19-1.685.284-2.593.284-1.756.002-3.275-.285-4.559-.86zm21.962.863c-2.475 0-4.452-.737-5.93-2.21-1.478-1.474-2.216-3.428-2.216-5.861 0-2.65.77-4.72 2.312-6.208 1.539-1.49 3.615-2.234 6.225-2.234 2.507 0 4.458.724 5.858 2.172 1.4 1.449 2.1 3.456 2.1 6.023 0 2.516-.754 4.531-2.263 6.045-1.51 1.516-3.539 2.273-6.086 2.273zm.172-13.663c-1.421 0-2.544.488-3.369 1.462-.826.976-1.238 2.321-1.238 4.036 0 1.653.419 2.955 1.254 3.904.835.95 1.953 1.425 3.353 1.425 1.43 0 2.529-.468 3.297-1.401.768-.936 1.151-2.265 1.151-3.99 0-1.735-.383-3.076-1.151-4.02-.768-.944-1.867-1.416-3.297-1.416zm20.959-7.147c-.49-.277-1.049-.416-1.676-.416-1.766 0-2.647.98-2.647 2.942v2.142h3.728v2.803h-3.712v12.97h-3.635V18.06h-2.74v-2.803h2.74V12.7c0-1.664.554-2.975 1.661-3.935s2.491-1.44 4.151-1.44c.899 0 1.608.096 2.13.292v2.973zm10.479 20.271c-.709.35-1.645.525-2.804.525-3.111 0-4.667-1.47-4.667-4.405v-8.919h-2.679V15.26h2.679v-3.65l3.635-1.017v4.667h3.838v2.803h-3.838v7.886c0 .934.171 1.602.517 2.002.345.4.919.601 1.722.601.616 0 1.149-.174 1.597-.524v2.834zm30.828.17h-4.088l-2.02-5.624h-8.834l-1.943 5.623h-4.073l8.411-22.088h4.198l8.349 22.088zm-7.096-8.611l-3.116-8.81c-.094-.289-.194-.75-.297-1.387h-.062c-.094.585-.199 1.048-.314 1.386l-3.085 8.811h6.874zm21.632-5.669l-8.662 11.49h8.631v2.79H219.03V29.69l8.851-11.645h-8.004v-2.789h12.907v1.495zm17.058 14.28h-3.633v-2.497h-.062c-1.054 1.91-2.694 2.866-4.918 2.866-3.791 0-5.686-2.239-5.686-6.717v-9.427h3.634v9.058c0 2.834 1.112 4.251 3.337 4.251 1.075 0 1.96-.389 2.655-1.17.695-.78 1.042-1.801 1.042-3.065v-9.074h3.634l-.003 15.774zm14.052-12.37c-.439-.34-1.071-.508-1.896-.508-1.075 0-1.974.477-2.695 1.433-.72.954-1.081 2.254-1.081 3.896v7.548h-3.634V15.256h3.634v3.25h.062c.354-1.109.9-1.974 1.636-2.595.737-.62 1.559-.932 2.467-.932.657 0 1.16.099 1.503.293l.004 3.39zm16.181 5.453h-10.934c.041 1.457.498 2.582 1.371 3.374.871.79 2.069 1.185 3.595 1.185 1.713 0 3.284-.503 4.714-1.509v2.88c-1.461.904-3.394 1.356-5.796 1.356-2.361 0-4.21-.717-5.553-2.15-1.342-1.432-2.012-3.447-2.012-6.045 0-2.454.738-4.455 2.218-6 1.477-1.545 3.313-2.318 5.506-2.318 2.194 0 3.889.693 5.09 2.079 1.201 1.386 1.802 3.31 1.802 5.776l-.001 1.372zm-3.509-2.526c-.016-1.284-.318-2.283-.924-2.996-.606-.713-1.441-1.07-2.507-1.07-1.043 0-1.929.376-2.655 1.125-.725.75-1.172 1.73-1.339 2.942h7.425v-.001z"/>
</svg>
