<svg xmlns="http://www.w3.org/2000/svg" width="188" height="54" fill="none" viewBox="0 0 188 54">
    <path fill="#8E714E" fill-rule="evenodd" d="M174.314 22.036c-.168.033-.337.404-.337.607-.034 1.35-.068 4.927-.068 7.356 0 .068.101.203.203.203.506.033 1.72.067 2.767.067 1.451 0 2.294-.202 2.767-.405 1.214-.607 1.788-1.923 1.788-3.375 0-3.272-2.295-4.52-5.703-4.52-.236-.035-.91-.035-1.417.067zm8.706 15.083c0-3.34-2.463-5.197-6.917-5.197-.203 0-1.62-.033-1.958.034-.101.034-.236.102-.236.203 0 2.395-.034 6.209.068 7.693.067.641.54 1.552 1.114 1.822.607.338 1.99.405 2.935.405 2.666 0 4.994-1.485 4.994-4.96zM167.431 20.18c.337 0 1.349.101 3.947.101 2.464 0 4.421-.067 6.817-.067 2.935 0 6.984 1.046 6.984 5.432 0 2.16-1.518 3.88-3.509 4.724-.101.034-.101.101 0 .135 2.834.709 5.332 2.463 5.332 5.77 0 3.24-2.025 5.298-4.961 6.58-1.788.776-4.015 1.046-6.276 1.046-1.721 0-6.344-.202-8.908-.134-.27-.102.236-1.317.472-1.519.608-.034 1.08-.068 1.721-.27.912-.236 1.012-.506 1.147-1.89.068-1.18.068-5.365.068-8.334 0-4.083.034-6.85 0-8.2-.034-1.045-.405-1.383-1.147-1.586-.574-.1-1.519-.236-2.295-.337-.169-.169.405-1.316.608-1.45zM147.96 41.168c.811.64 2.397.91 3.814.91 1.822 0 3.644-.336 5.399-1.923 1.788-1.619 3.037-4.116 3.037-8.097 0-3.814-1.451-6.918-4.421-8.74-1.687-1.046-3.847-1.485-6.344-1.485-.742 0-1.451.034-1.889.236-.102.068-.337.372-.337.54-.068.675-.068 5.871-.068 8.908 0 3.139 0 7.525.068 8.031 0 .507.235 1.283.742 1.62h-.001zm-7.659-20.988c.641 0 3.104.101 4.285.101 2.126 0 3.645-.1 7.66-.1 3.374 0 6.209.91 8.233 2.63 2.463 2.127 3.746 5.062 3.746 8.639 0 5.095-2.328 8.031-4.657 9.718-2.328 1.721-5.365 2.733-9.684 2.733-2.294 0-6.242-.067-9.516-.101h-.033c-.169-.304.27-1.485.539-1.518.878-.102 1.114-.136 1.553-.304.708-.27.844-.641.945-1.89.101-2.328.067-5.129.067-8.3 0-2.261.034-6.682-.034-8.1-.101-1.18-.607-1.484-1.619-1.686-.506-.101-1.181-.236-2.126-.337-.135-.237.472-1.283.641-1.485z" clip-rule="evenodd"/>
    <path fill="#442D22" fill-rule="evenodd" d="M99.471 42.483c-.843-.101-1.45-.235-2.193-.573-.101-.068-.27-.405-.27-.54-.067-1.181-.067-4.555-.067-6.816 0-1.822-.304-3.408-1.08-4.522-.912-1.282-2.227-2.024-3.915-2.024-1.484 0-3.475 1.012-5.129 2.43-.033.033-.303.27-.27-.102 0-.371.068-1.113.102-1.62.034-.472-.236-.708-.236-.708-1.08.54-4.117 1.248-5.23 1.35-.81.168-1.013.944-.169 1.214h.034c.91.27 1.518.574 1.99.878.338.27.304.64.304.945.034 2.53.034 6.41-.067 8.536-.034.844-.27 1.148-.878 1.283l.068-.034c-.473.101-.844.202-1.418.27-.202.202-.202 1.282 0 1.518.371 0 2.329-.101 3.949-.101 2.227 0 3.374.101 3.947.101.237-.27.304-1.282.17-1.518-.642-.034-1.114-.101-1.553-.236-.607-.136-.776-.439-.81-1.148-.067-1.788-.067-5.567-.067-8.132 0-.708.202-1.046.404-1.248.776-.675 2.025-1.148 3.139-1.148 1.08 0 1.788.338 2.328.777.742.607.978 1.484 1.08 2.125.168 1.451.1 4.32.1 6.817 0 1.35-.1 1.687-.606 1.855-.237.102-.844.237-1.553.304-.236.236-.168 1.282 0 1.519.979 0 2.126-.102 3.813-.102 2.092 0 3.442.102 3.982.102.168-.203.236-1.181.101-1.452zm9.347-12.889c-1.788 0-2.902 1.383-2.902 3.542 0 2.194.979 4.725 3.746 4.725.472 0 1.35-.203 1.754-.675.641-.607 1.08-1.822 1.08-3.105 0-2.8-1.383-4.487-3.678-4.487zm-.236 14.914c-.675 0-1.148.203-1.451.371-1.417.91-2.058 1.788-2.058 2.835 0 .978.371 1.754 1.181 2.43.978.843 2.328 1.248 4.049 1.248 3.442 0 4.96-1.856 4.96-3.678 0-1.283-.641-2.126-1.957-2.598-.945-.405-2.666-.608-4.724-.608zm.236 8.773c-2.058 0-3.543-.438-4.825-1.417-1.249-.945-1.789-2.362-1.789-3.34 0-.27.068-1.013.675-1.688.371-.405 1.182-1.18 3.105-2.497.067-.033.101-.067.101-.135 0-.067-.068-.135-.135-.168-1.586-.608-2.058-1.586-2.194-2.126v-.068c-.033-.202-.101-.404.203-.607.236-.169.574-.371.945-.607.573-.338 1.181-.709 1.552-1.013.068-.067.068-.134.068-.202s-.068-.135-.136-.169c-2.361-.776-3.542-2.53-3.542-5.163 0-1.72.776-3.273 2.159-4.251.945-.742 3.307-1.654 4.859-1.654h.101c1.586.034 2.464.372 3.712.81.675.236 1.316.337 2.194.337 1.315 0 1.889-.404 2.361-.876.034.067.102.236.136.674.033.439-.102 1.08-.439 1.552-.27.372-.877.642-1.485.642h-.169c-.607-.068-.877-.136-.877-.136l-.135.068c-.034.068 0 .135.034.236l.034.068c.067.304.202 1.214.202 1.45 0 2.768-1.113 3.982-2.295 4.893-1.147.844-2.463 1.384-3.948 1.519-.033 0-.168 0-.472.034-.168 0-.405.034-.439.034h-.033c-.27.067-.945.404-.945.978 0 .506.304 1.113 1.755 1.215.303.033.607.033.944.067 1.924.135 4.32.304 5.433.675 1.552.573 2.531 1.957 2.531 3.61 0 2.498-1.788 4.826-4.758 6.277-1.451.641-2.902.979-4.488.979zm19.233-23.518c-.708 0-1.349.168-1.822.505-1.315.81-1.99 2.43-1.99 4.792 0 4.42 2.227 7.525 5.399 7.525.945 0 1.687-.27 2.328-.81.978-.81 1.485-2.43 1.485-4.69 0-4.387-2.194-7.323-5.399-7.323h-.001zm.608 14.442c-5.736 0-7.794-4.218-7.794-8.166 0-2.767 1.113-4.893 3.34-6.412 1.586-.978 3.476-1.518 5.163-1.518 4.386 0 7.457 3.138 7.457 7.66 0 3.07-1.215 5.5-3.543 6.985-1.114.742-3.037 1.45-4.623 1.45zm-60.13-14.443c-.709 0-1.35.169-1.823.506-1.315.81-1.99 2.43-1.99 4.792 0 4.42 2.227 7.525 5.399 7.525.945 0 1.687-.27 2.328-.81.978-.81 1.485-2.43 1.485-4.69 0-4.387-2.16-7.323-5.4-7.323zm.607 14.443c-5.736 0-7.794-4.218-7.794-8.166 0-2.767 1.113-4.893 3.34-6.412 1.586-.978 3.476-1.518 5.163-1.518 4.387 0 7.457 3.138 7.457 7.66 0 3.07-1.215 5.5-3.543 6.985-1.08.742-3.003 1.45-4.623 1.45zm-38.568-.338c-.068-.101-.136-.405-.102-.776 0-.27.068-.439.102-.506.708-.102 1.08-.203 1.484-.304.675-.169.945-.54.979-1.383.101-2.025.101-5.872.067-8.537v-.068c0-.304 0-.675-.37-.945-.54-.337-1.182-.64-2.025-.877-.304-.101-.506-.27-.473-.472 0-.203.203-.439.642-.507 1.113-.1 4.014-.81 5.162-1.316.068.068.169.27.169.54l-.034.371c-.034.372-.067.81-.067 1.249 0 .135.135.236.27.236.067 0 .135-.034.202-.067 2.16-1.688 4.117-2.295 5.129-2.295 1.653 0 2.936.776 3.914 2.396.068.101.135.135.236.135.068 0 .169-.034.203-.101 1.99-1.519 3.982-2.43 5.297-2.43 3.138 0 4.994 2.328 4.994 6.276 0 1.114 0 2.565-.033 3.881 0 1.18-.034 2.26-.034 3.037 0 .168.236.708.607.81.473.236 1.114.337 1.957.472h.034c.068.236-.067 1.113-.202 1.282-.203 0-.507 0-.844-.033-.854-.045-1.709-.068-2.564-.068-2.092 0-3.172.034-4.218.101-.067-.27-.101-1.08 0-1.282.607-.101.91-.203 1.282-.304.675-.202.844-.506.878-1.383 0-.641.134-6.108-.068-7.424-.203-1.35-1.215-2.935-3.442-2.935-.844 0-2.16.337-3.442 1.315-.067.068-.135.237-.135.338v.034c.135.708.135 1.519.135 2.767v2.193c0 1.519-.034 2.936 0 4.015 0 .743.44.912.81 1.047.203.033.337.067.506.1.304.068.608.136 1.08.237.068.135.068.574-.034.945-.034.202-.101.303-.135.337-1.147-.033-2.328-.067-4.049-.067-.506 0-1.383.034-2.126.034-.607 0-1.18.033-1.518.033-.034-.067-.102-.303-.102-.675 0-.303.068-.54.136-.607.168-.034.303-.067.472-.067.405-.068.742-.136 1.08-.203.574-.168.776-.472.81-1.215.1-1.687.202-6.512-.034-7.727-.405-1.957-1.518-2.935-3.307-2.935-1.046 0-2.362.506-3.442 1.316-.169.134-.303.472-.303.775v1.991c0 2.43 0 5.467.033 6.783.034.404.169.877.945 1.046.169.033.439.101.776.135l.607.1c.068.203.034 1.013-.1 1.283-.338 0-.743-.033-1.216-.033-.708-.034-1.62-.068-2.631-.068-1.181 0-2.025.034-2.7.068-.472-.068-.843-.068-1.248-.068z" clip-rule="evenodd"/>
    <path fill="#fff" fill-rule="evenodd" d="M12.821 51.965l-1.383-.473s.169-7.052-2.362-7.558c-1.687-1.958.27-83.009 6.344-.27 0 0-2.092 1.045-2.463 2.834-.405 1.755-.136 5.467-.136 5.467z" clip-rule="evenodd"/>
    <path fill="#A6A385" fill-rule="evenodd" d="M12.821 51.965l-1.383-.473s.169-7.052-2.362-7.558c-1.687-1.958.27-83.009 6.344-.27 0 0-2.092 1.045-2.463 2.834-.405 1.755-.136 5.467-.136 5.467z" clip-rule="evenodd"/>
    <path fill="#fff" fill-rule="evenodd" d="M13.563 45.15s12.114-7.964 9.28-24.532C20.11 8.572 13.665 4.624 12.956 3.106c-.776-1.08-1.518-2.97-1.518-2.97l.506 33.507c0 .034-1.046 10.258 1.62 11.507" clip-rule="evenodd"/>
    <path fill="#499D4A" fill-rule="evenodd" d="M13.563 45.15s12.114-7.964 9.28-24.532C20.11 8.572 13.665 4.624 12.956 3.106c-.776-1.08-1.518-2.97-1.518-2.97l.506 33.507c0 .034-1.046 10.258 1.62 11.507" clip-rule="evenodd"/>
    <path fill="#fff" fill-rule="evenodd" d="M10.726 45.587S-.646 37.826.029 24.16C.669 10.494 8.7 3.78 10.253 2.565 11.265 1.485 11.299 1.08 11.367 0c.708 1.519.573 22.71.674 25.206.304 9.617-.54 18.56-1.315 20.38z" clip-rule="evenodd"/>
    <path fill="#58AA50" fill-rule="evenodd" d="M10.726 45.587S-.646 37.826.029 24.16C.669 10.494 8.7 3.78 10.253 2.565 11.265 1.485 11.299 1.08 11.367 0c.708 1.519.573 22.71.674 25.206.304 9.617-.54 18.56-1.315 20.38z" clip-rule="evenodd"/>
</svg>
