<svg xmlns="http://www.w3.org/2000/svg" width="48" height="48" fill="none" viewBox="0 0 48 48">
    <path fill="#2083D2" d="M42.5 37h-.79l-.28-.27c.98-1.14 1.57-2.62 1.57-4.23 0-3.59-2.91-6.5-6.5-6.5S30 28.91 30 32.5s2.91 6.5 6.5 6.5c1.61 0 3.09-.59 4.23-1.57l.27.28v.79l5 4.99L47.49 42l-4.99-5zm-6 0c-2.49 0-4.5-2.01-4.5-4.5s2.01-4.5 4.5-4.5 4.5 2.01 4.5 4.5-2.01 4.5-4.5 4.5z"/>
    <path fill="#333" fill-rule="evenodd" d="M2 0h20c1.1 0 2 .9 2 2v5h-2V5H2v29h10v1.085c-.583.206-1 .762-1 1.415s.417 1.209 1 1.415V39H2c-1.1 0-2-.9-2-2V2C0 .9.9 0 2 0zm7 2h6v1H9V2z" clip-rule="evenodd"/>
    <path fill="#333" fill-rule="evenodd" d="M16 9h20c1.1 0 2 .9 2 2v13h-2V14H16v29h20v-2h2v5c0 1.1-.9 2-2 2H16c-1.1 0-2-.9-2-2V11c0-1.1.9-2 2-2zm12 36.5c0 .828-.672 1.5-1.5 1.5s-1.5-.672-1.5-1.5.672-1.5 1.5-1.5 1.5.672 1.5 1.5zM23 11h6v1h-6v-1z" clip-rule="evenodd"/>
    <path fill="#2083D2" fill-rule="evenodd" d="M21 18v3h10v-3H21zm-1-2c-.552 0-1 .448-1 1v5c0 .552.448 1 1 1h12c.552 0 1-.448 1-1v-5c0-.552-.448-1-1-1H20z" clip-rule="evenodd"/>
    <path fill="#2083D2" d="M19 28c0-.552.448-1 1-1h7c.552 0 1 .448 1 1s-.448 1-1 1h-7c-.552 0-1-.448-1-1zM19 32c0-.552.448-1 1-1h7c.552 0 1 .448 1 1s-.448 1-1 1h-7c-.552 0-1-.448-1-1zM19 36c0-.552.448-1 1-1h7c.552 0 1 .448 1 1s-.448 1-1 1h-7c-.552 0-1-.448-1-1zM19 40c0-.552.448-1 1-1h7c.552 0 1 .448 1 1s-.448 1-1 1h-7c-.552 0-1-.448-1-1z"/>
    <path fill="#2083D2" fill-rule="evenodd" d="M12 12c-.49 0-.96.06-1.41.17L8.41 10 7 11.41l1.62 1.63c-.74.51-1.36 1.18-1.81 1.96H4v2h2.09c-.05.33-.09.66-.09 1v1H4v2h2v1c0 .34.04.67.09 1H4v2h2.81c1.04 1.79 2.97 3 5.19 3v-5h-2v-2h2v-2h-2v-2h2v-5z" clip-rule="evenodd"/>
</svg>
