<svg xmlns="http://www.w3.org/2000/svg" width="48" height="48" fill="none" viewBox="0 0 48 48">
    <g clip-path="url(#prefix__clip0)">
        <path fill="#004279" d="M46 0H2C.9 0 0 .9 0 2v44c0 1.1.9 2 2 2h24v-2H2V2h44v23h2V2c0-1.1-.9-2-2-2z"/>
        <path fill="#004279" d="M48 37.7c-.1 2.1-.8 4-1.9 5.5l-1.4-1.6c.8-1.1 1.2-2.5 1.3-4 .1-4.1-3.2-7.6-7.3-7.7-4.1-.1-7.6 3.2-7.7 7.3 0 1.7.5 3.3 1.4 4.5L31 43.3c-1.3-1.7-2.1-3.8-2-6.1.1-5.3 4.5-9.4 9.7-9.3 5.2.2 9.4 4.6 9.3 9.8z"/>
        <path fill="#2083D2" d="M24 18v-2.3c0-.9-.8-1.7-1.7-1.7H9.7c-.9 0-1.7.8-1.7 1.7v10.7c0 .7.4 1.3 1 1.5v10.4c0 1 .8 1.7 1.7 1.7h10.6c.9 0 1.7-.8 1.7-1.7V27.9c.6-.3 1-.8 1-1.5V26c1.1 0 2-.9 2-2v-4c0-1.1-.9-2-2-2zM13 37c-.5 0-1-.5-1-1s.5-1 1-1 1 .5 1 1-.5 1-1 1zm0-3c-.5 0-1-.5-1-1s.5-1 1-1 1 .5 1 1-.5 1-1 1zm0-3c-.5 0-1-.5-1-1s.5-1 1-1 1 .5 1 1-.5 1-1 1zm1.5-6h-3c-.3 0-.5-.2-.5-.5s.2-.5.5-.5h3c.3 0 .5.2.5.5s-.2.5-.5.5zM16 37c-.5 0-1-.5-1-1s.5-1 1-1 1 .5 1 1-.5 1-1 1zm0-3c-.5 0-1-.5-1-1s.5-1 1-1 1 .5 1 1-.5 1-1 1zm0-3c-.5 0-1-.5-1-1s.5-1 1-1 1 .5 1 1-.5 1-1 1zm3 6c-.5 0-1-.5-1-1s.5-1 1-1 1 .5 1 1-.5 1-1 1zm0-3c-.5 0-1-.5-1-1s.5-1 1-1 1 .5 1 1-.5 1-1 1zm0-3c-.5 0-1-.5-1-1s.5-1 1-1 1 .5 1 1-.5 1-1 1zm1.5-6h-3c-.3 0-.5-.2-.5-.5s.2-.5.5-.5h3c.3 0 .5.2.5.5s-.2.5-.5.5zm.5-4c0 .5-.5 1-1 1h-8c-.5 0-1-.5-1-1v-4c0-.5.5-1 1-1h8c.5 0 1 .5 1 1v4zm4 2.5c0 .3-.2.5-.5.5s-.5-.2-.5-.5v-3c0-.3.2-.5.5-.5s.5.2.5.5v3zM20 11c0 .5.5 1 1 1v1H11v-1c.5 0 1-.5 1-1s-.5-1-1-1V9h10v1c-.5 0-1 .5-1 1z"/>
        <path fill="#004279" d="M39.5 40c-.7.7-1.8.7-2.5 0s-.7-1.8 0-2.5 4.6-2 4.6-2-1.4 3.8-2.1 4.5zM43 43h-9c-.6 0-1 .4-1 1s.4 1 1 1h9c.6 0 1-.4 1-1s-.4-1-1-1zM42 46h-7c-.6 0-1 .4-1 1s.4 1 1 1h7c.6 0 1-.4 1-1s-.4-1-1-1z"/>
    </g>
    <defs>
        <clipPath id="prefix__clip0">
            <path fill="#fff" d="M0 0H48V48H0z"/>
        </clipPath>
    </defs>
</svg>
