<svg xmlns="http://www.w3.org/2000/svg" width="165" height="86" fill="none" viewBox="0 0 165 86">
    <path fill="#0C0E0F" fill-rule="evenodd" d="M128.848 5.434c-.933 0-1.707.621-1.707 1.552 0 1.086.775 1.708 1.707 1.708.931 0 1.707-.622 1.707-1.708.001-.93-.775-1.552-1.707-1.552zm0 .155c.183-.001.365.035.535.104.17.07.324.173.454.303s.232.284.302.454c.07.17.106.352.105.536 0 .931-.621 1.553-1.396 1.553-.933 0-1.553-.622-1.553-1.553.001-.776.621-1.397 1.553-1.397zm.775 2.484l-.465-.931c.311-.155.465-.311.465-.466 0-.311-.31-.62-.775-.62h-.778v2.017h.312v-.776h.466l.465.776h.31zm-1.241-1.087v-.621h.466c.31 0 .465.155.465.155 0 .31-.156.466-.465.466h-.466z" clip-rule="evenodd"/>
    <path fill="#A1C677" fill-rule="evenodd" d="M58.371 79.947h25.615v-.466H58.37v.466z" clip-rule="evenodd"/>
    <path fill="#A4C67F" fill-rule="evenodd" d="M58.371 79.481h25.615v-.465H58.37v.465z" clip-rule="evenodd"/>
    <path fill="#A9C983" fill-rule="evenodd" d="M58.371 79.015h25.615v-.62H58.37v.62z" clip-rule="evenodd"/>
    <path fill="#AECC8B" fill-rule="evenodd" d="M58.371 78.395h25.615v-.465H58.37v.465z" clip-rule="evenodd"/>
    <path fill="#B1CF92" fill-rule="evenodd" d="M58.371 77.927h25.615v-.466H58.37v.466z" clip-rule="evenodd"/>
    <path fill="#B6D296" fill-rule="evenodd" d="M58.371 77.462h25.615v-.466H58.37v.466z" clip-rule="evenodd"/>
    <path fill="#B9D29B" fill-rule="evenodd" d="M58.371 76.996h25.615v-.621H58.37v.62z" clip-rule="evenodd"/>
    <path fill="#BDD4A0" fill-rule="evenodd" d="M58.371 76.376h25.615v-.466H58.37v.466z" clip-rule="evenodd"/>
    <path fill="#C4D9A8" fill-rule="evenodd" d="M58.371 75.908h25.615v-.467H58.37v.467z" clip-rule="evenodd"/>
    <path fill="#C5DAAD" fill-rule="evenodd" d="M58.371 75.444h25.615v-.463H58.37v.463z" clip-rule="evenodd"/>
    <path fill="#C8DAB2" fill-rule="evenodd" d="M58.371 74.978h25.615v-.622H58.37v.622z" clip-rule="evenodd"/>
    <path fill="#CEDEB9" fill-rule="evenodd" d="M58.371 74.359h25.615v-.465H58.37v.465z" clip-rule="evenodd"/>
    <path fill="#D2E0BE" fill-rule="evenodd" d="M58.371 73.892h25.615v-.466H58.37v.466z" clip-rule="evenodd"/>
    <path fill="#D6E2C4" fill-rule="evenodd" d="M58.371 73.427h25.615v-.466H58.37v.466z" clip-rule="evenodd"/>
    <path fill="#DAE7CB" fill-rule="evenodd" d="M58.371 72.962h25.615v-.466H58.37v.466z" clip-rule="evenodd"/>
    <path fill="#DCE8D0" fill-rule="evenodd" d="M58.371 72.496h25.615v-.621H58.37v.62z" clip-rule="evenodd"/>
    <path fill="#E2EBD6" fill-rule="evenodd" d="M58.371 71.873h25.615v-.467H58.37v.467z" clip-rule="evenodd"/>
    <path fill="#E5EBDC" fill-rule="evenodd" d="M58.371 71.407h25.615v-.466H58.37v.466z" clip-rule="evenodd"/>
    <path fill="#ECEEE0" fill-rule="evenodd" d="M58.371 70.942h25.615v-.465H58.37v.465z" clip-rule="evenodd"/>
    <path fill="#F0F1E8" fill-rule="evenodd" d="M58.371 70.476h25.615v-.62H58.37v.62z" clip-rule="evenodd"/>
    <path fill="#F2F2EE" fill-rule="evenodd" d="M58.371 69.856h25.615v-.465H58.37v.465z" clip-rule="evenodd"/>
    <path fill="#F7F8F6" fill-rule="evenodd" d="M58.371 69.39h25.615v-.464H58.37v.465z" clip-rule="evenodd"/>
    <path fill="#fff" fill-rule="evenodd" d="M58.371 68.923h25.615v-.466H58.37v.466z" clip-rule="evenodd"/>
    <path fill="#F3D23D" fill-rule="evenodd" d="M84.14 79.327h.467v-23.44h-.466v23.44zm.467 0h.466v-23.44h-.466v23.44z" clip-rule="evenodd"/>
    <path fill="#F3D43F" fill-rule="evenodd" d="M85.074 79.323h.464v-23.44h-.464v23.44z" clip-rule="evenodd"/>
    <path fill="#F3D244" fill-rule="evenodd" d="M85.535 79.323h.62v-23.44h-.62v23.44z" clip-rule="evenodd"/>
    <path fill="#F3D44A" fill-rule="evenodd" d="M86.156 79.327h.467v-23.44h-.467v23.44z" clip-rule="evenodd"/>
    <path fill="#F3D44E" fill-rule="evenodd" d="M86.625 79.323h.466v-23.44h-.466v23.44z" clip-rule="evenodd"/>
    <path fill="#F3D552" fill-rule="evenodd" d="M87.09 79.323h.466v-23.44h-.466v23.44z" clip-rule="evenodd"/>
    <path fill="#F2D359" fill-rule="evenodd" d="M87.555 79.327h.62v-23.44h-.62v23.44z" clip-rule="evenodd"/>
    <path fill="#F1D65C" fill-rule="evenodd" d="M88.176 79.327h.466v-23.44h-.466v23.44z" clip-rule="evenodd"/>
    <path fill="#F4D760" fill-rule="evenodd" d="M88.644 79.323h.466v-23.44h-.466v23.44z" clip-rule="evenodd"/>
    <path fill="#F2DA67" fill-rule="evenodd" d="M89.106 79.323h.465v-23.44h-.465v23.44z" clip-rule="evenodd"/>
    <path fill="#F2DA6B" fill-rule="evenodd" d="M89.574 79.327h.466v-23.44h-.466v23.44z" clip-rule="evenodd"/>
    <path fill="#F5DB6F" fill-rule="evenodd" d="M90.04 79.327h.62v-23.44h-.62v23.44z" clip-rule="evenodd"/>
    <path fill="#F6DD72" fill-rule="evenodd" d="M90.664 79.323h.465v-23.44h-.465v23.44z" clip-rule="evenodd"/>
    <path fill="#F5DC77" fill-rule="evenodd" d="M91.125 79.323h.466v-23.44h-.466v23.44z" clip-rule="evenodd"/>
    <path fill="#F5DC7B" fill-rule="evenodd" d="M91.59 79.327h.466v-23.44h-.466v23.44z" clip-rule="evenodd"/>
    <path fill="#F5DC7F" fill-rule="evenodd" d="M92.059 79.327h.621v-23.44h-.621v23.44z" clip-rule="evenodd"/>
    <path fill="#F5DC80" fill-rule="evenodd" d="M92.68 79.323h.465v-23.44h-.465v23.44z" clip-rule="evenodd"/>
    <path fill="#F5DD84" fill-rule="evenodd" d="M93.144 79.327h.466v-23.44h-.466v23.44z" clip-rule="evenodd"/>
    <path fill="#F5DF88" fill-rule="evenodd" d="M93.61 79.327h.465v-23.44h-.466v23.44z" clip-rule="evenodd"/>
    <path fill="#F5DF8B" fill-rule="evenodd" d="M94.074 79.327h.62v-23.44h-.62v23.44z" clip-rule="evenodd"/>
    <path fill="#F5DF8D" fill-rule="evenodd" d="M94.695 79.323h.467v-23.44h-.467v23.44z" clip-rule="evenodd"/>
    <path fill="#F4E08E" fill-rule="evenodd" d="M95.16 79.327h.466v-23.44h-.466v23.44z" clip-rule="evenodd"/>
    <path fill="#F6E193" fill-rule="evenodd" d="M95.629 79.327h.466v-23.44h-.466v23.44z" clip-rule="evenodd"/>
    <path fill="#F4E297" fill-rule="evenodd" d="M96.098 79.323h.465v-23.44h-.465v23.44z" clip-rule="evenodd"/>
    <path fill="#F7E69B" fill-rule="evenodd" d="M96.559 79.323h.62v-23.44h-.62v23.44z" clip-rule="evenodd"/>
    <path fill="#F7E69D" fill-rule="evenodd" d="M97.18 79.327h.465v-23.44h-.465v23.44z" clip-rule="evenodd"/>
    <path fill="#F7E6A0" fill-rule="evenodd" d="M97.644 79.327h.466v-23.44h-.466v23.44z" clip-rule="evenodd"/>
    <path fill="#F7E6A4" fill-rule="evenodd" d="M98.113 79.323h.467v-23.44h-.467v23.44z" clip-rule="evenodd"/>
    <path fill="#F7E7A8" fill-rule="evenodd" d="M98.578 79.323h.62v-23.44h-.62v23.44z" clip-rule="evenodd"/>
    <path fill="#F7E7AB" fill-rule="evenodd" d="M99.2 79.327h.465v-23.44h-.466v23.44z" clip-rule="evenodd"/>
    <path fill="#F7E7AD" fill-rule="evenodd" d="M99.664 79.327h.466v-23.44h-.466v23.44z" clip-rule="evenodd"/>
    <path fill="#FAE9B1" fill-rule="evenodd" d="M100.129 79.323h.467v-23.44h-.467v23.44z" clip-rule="evenodd"/>
    <path fill="#F7E7B4" fill-rule="evenodd" d="M100.594 79.323h.465v-23.44h-.465v23.44z" clip-rule="evenodd"/>
    <path fill="#F7E8B6" fill-rule="evenodd" d="M101.062 79.327h.621v-23.44h-.621v23.44z" clip-rule="evenodd"/>
    <path fill="#F7E8B8" fill-rule="evenodd" d="M101.684 79.323h.464v-23.44h-.464v23.44z" clip-rule="evenodd"/>
    <path fill="#F7E8BC" fill-rule="evenodd" d="M102.145 79.323h.466v-23.44h-.466v23.44z" clip-rule="evenodd"/>
    <path fill="#F7E8BF" fill-rule="evenodd" d="M102.613 79.327h.466v-23.44h-.466v23.44z" clip-rule="evenodd"/>
    <path fill="#F7EAC4" fill-rule="evenodd" d="M103.078 79.327h.621v-23.44h-.621v23.44z" clip-rule="evenodd"/>
    <path fill="#F7EBC5" fill-rule="evenodd" d="M103.703 79.323h.466v-23.44h-.466v23.44z" clip-rule="evenodd"/>
    <path fill="#F7EBC7" fill-rule="evenodd" d="M104.164 79.323h.467v-23.44h-.467v23.44z" clip-rule="evenodd"/>
    <path fill="#F8EDCC" fill-rule="evenodd" d="M104.629 79.327h.466v-23.44h-.466v23.44z" clip-rule="evenodd"/>
    <path fill="#FBEFD0" fill-rule="evenodd" d="M105.098 79.327h.465v-23.44h-.465v23.44z" clip-rule="evenodd"/>
    <path fill="#F8EFD2" fill-rule="evenodd" d="M105.566 79.323h.621v-23.44h-.621v23.44z" clip-rule="evenodd"/>
    <path fill="#F8F0D6" fill-rule="evenodd" d="M106.184 79.323h.466v-23.44h-.466v23.44z" clip-rule="evenodd"/>
    <path fill="#F8F0D9" fill-rule="evenodd" d="M106.652 79.327h.464v-23.44h-.464v23.44z" clip-rule="evenodd"/>
    <path fill="#F8F0DB" fill-rule="evenodd" d="M107.113 79.327h.466v-23.44h-.466v23.44z" clip-rule="evenodd"/>
    <path fill="#F8F0DF" fill-rule="evenodd" d="M107.582 79.323h.621v-23.44h-.621v23.44z" clip-rule="evenodd"/>
    <path fill="#F9F3E4" fill-rule="evenodd" d="M108.199 79.323h.467v-23.44h-.467v23.44z" clip-rule="evenodd"/>
    <path fill="#F9F3E6" fill-rule="evenodd" d="M108.668 79.327h.466v-23.44h-.466v23.44z" clip-rule="evenodd"/>
    <path fill="#F9F3E9" fill-rule="evenodd" d="M109.137 79.323h.465v-23.44h-.465v23.44z" clip-rule="evenodd"/>
    <path fill="#F9F6EB" fill-rule="evenodd" d="M109.598 79.323h.62v-23.44h-.62v23.44z" clip-rule="evenodd"/>
    <path fill="#F9F6EE" fill-rule="evenodd" d="M110.219 79.327h.466v-23.44h-.466v23.44z" clip-rule="evenodd"/>
    <path fill="#F9F6F0" fill-rule="evenodd" d="M110.688 79.327h.465v-23.44h-.465v23.44z" clip-rule="evenodd"/>
    <path fill="#FAF9F4" fill-rule="evenodd" d="M111.152 79.323h.466v-23.44h-.466v23.44z" clip-rule="evenodd"/>
    <path fill="#FFFFFB" fill-rule="evenodd" d="M111.617 79.323h.465v-23.44h-.465v23.44z" clip-rule="evenodd"/>
    <path fill="#fff" fill-rule="evenodd" d="M112.082 79.327h.622v-23.44h-.622v23.44z" clip-rule="evenodd"/>
    <path fill="#769FD2" fill-rule="evenodd" d="M37.414 37.879h22.354v-.621h-21.89l-.464.62z" clip-rule="evenodd"/>
    <path fill="#76A1D3" fill-rule="evenodd" d="M36.945 38.34h22.82v-.465H37.413l-.467.466z" clip-rule="evenodd"/>
    <path fill="#7AA2D3" fill-rule="evenodd" d="M36.48 38.81h23.287v-.466h-22.82l-.467.465z" clip-rule="evenodd"/>
    <path fill="#7CA3D3" fill-rule="evenodd" d="M36.016 39.274h23.75v-.465H36.482l-.465.465z" clip-rule="evenodd"/>
    <path fill="#80A4D1" fill-rule="evenodd" d="M35.55 39.895h24.218v-.622h-23.75l-.467.622z" clip-rule="evenodd"/>
    <path fill="#80A4D1" fill-rule="evenodd" d="M35.082 40.36h24.683v-.465H35.548l-.466.464z" clip-rule="evenodd"/>
    <path fill="#80A3D0" fill-rule="evenodd" d="M34.617 40.826h25.15v-.467H35.082l-.466.467z" clip-rule="evenodd"/>
    <path fill="#84A6D1" fill-rule="evenodd" d="M34.152 41.293h25.615v-.465H34.618l-.466.465zm-.465.621h26.08v-.621H34.152l-.465.621z" clip-rule="evenodd"/>
    <path fill="#88A9D2" fill-rule="evenodd" d="M33.223 42.38h26.545v-.466h-26.08l-.465.466z" clip-rule="evenodd"/>
    <path fill="#8AABD5" fill-rule="evenodd" d="M32.754 42.844h27.011v-.465H33.22l-.466.465z" clip-rule="evenodd"/>
    <path fill="#8CACD5" fill-rule="evenodd" d="M32.293 43.31h27.478v-.466H32.76l-.467.465z" clip-rule="evenodd"/>
    <path fill="#8DAED9" fill-rule="evenodd" d="M31.98 43.775h27.788v-.466H32.29l-.31.466z" clip-rule="evenodd"/>
    <path fill="#8FAFD9" fill-rule="evenodd" d="M31.512 44.398h28.253v-.62H31.977l-.465.62z" clip-rule="evenodd"/>
    <path fill="#91AFD7" fill-rule="evenodd" d="M31.047 44.864h28.719v-.466H31.513l-.466.466z" clip-rule="evenodd"/>
    <path fill="#93B0D9" fill-rule="evenodd" d="M30.586 45.329H59.77v-.466H31.05l-.465.466z" clip-rule="evenodd"/>
    <path fill="#96B4D9" fill-rule="evenodd" d="M30.117 45.795h29.65v-.467H30.584l-.466.467z" clip-rule="evenodd"/>
    <path fill="#9AB5DA" fill-rule="evenodd" d="M29.648 46.417h30.117v-.62h-29.65l-.467.62z" clip-rule="evenodd"/>
    <path fill="#9BB6DA" fill-rule="evenodd" d="M29.184 46.88h30.582v-.466H29.649l-.465.466z" clip-rule="evenodd"/>
    <path fill="#9DB6DA" fill-rule="evenodd" d="M28.723 47.349H59.77v-.466H29.188l-.465.465z" clip-rule="evenodd"/>
    <path fill="#9FB7DA" fill-rule="evenodd" d="M28.254 47.813h31.513v-.465H28.72l-.466.465z" clip-rule="evenodd"/>
    <path fill="#A2BBDD" fill-rule="evenodd" d="M27.945 48.433H59.77v-.62H28.256l-.31.465v.155z" clip-rule="evenodd"/>
    <path fill="#A3BADC" fill-rule="evenodd" d="M27.945 48.9H59.77v-.466H27.945v.465z" clip-rule="evenodd"/>
    <path fill="#A4BDDE" fill-rule="evenodd" d="M27.945 49.364H59.77v-.466H27.945v.466z" clip-rule="evenodd"/>
    <path fill="#A8BDDD" fill-rule="evenodd" d="M27.945 49.83H59.77v-.467H27.945v.467z" clip-rule="evenodd"/>
    <path fill="#A8BFDE" fill-rule="evenodd" d="M27.945 50.294H59.77v-.466H27.945v.466z" clip-rule="evenodd"/>
    <path fill="#AAC0DE" fill-rule="evenodd" d="M27.945 50.917H59.77v-.62H27.945v.62z" clip-rule="evenodd"/>
    <path fill="#AEC3E2" fill-rule="evenodd" d="M27.945 51.384H59.77v-.466H27.945v.466zm0 .466H59.77v-.466H27.945v.466z" clip-rule="evenodd"/>
    <path fill="#B1C5E3" fill-rule="evenodd" d="M27.945 52.312H59.77v-.464H27.945v.464z" clip-rule="evenodd"/>
    <path fill="#B3C6E4" fill-rule="evenodd" d="M27.945 52.935H59.77v-.623H27.945v.623z" clip-rule="evenodd"/>
    <path fill="#B5C9E5" fill-rule="evenodd" d="M27.945 53.4H59.77v-.466H27.945v.465z" clip-rule="evenodd"/>
    <path fill="#B7C9E5" fill-rule="evenodd" d="M27.945 53.867H59.77v-.465H27.945v.465z" clip-rule="evenodd"/>
    <path fill="#B9C9E4" fill-rule="evenodd" d="M27.945 54.333H59.77v-.466H27.945v.466z" clip-rule="evenodd"/>
    <path fill="#BBCBE3" fill-rule="evenodd" d="M27.945 54.953H59.77v-.621H27.945v.62z" clip-rule="evenodd"/>
    <path fill="#BDCCE3" fill-rule="evenodd" d="M27.945 55.417H59.77v-.62H27.945v.62z" clip-rule="evenodd"/>
    <path fill="#C0CEE5" fill-rule="evenodd" d="M27.945 55.885H59.77v-.467H27.945v.467z" clip-rule="evenodd"/>
    <path fill="#C4D0E5" fill-rule="evenodd" d="M27.945 56.352H59.77v-.465H27.945v.465zm0 .466H59.77v-.466H27.945v.466z" clip-rule="evenodd"/>
    <path fill="#C6D3E6" fill-rule="evenodd" d="M27.945 57.437H59.77v-.62H27.945v.62z" clip-rule="evenodd"/>
    <path fill="#C9D5E8" fill-rule="evenodd" d="M27.945 57.904H59.77v-.467H27.945v.467zm0 .464H59.77v-.464H27.945v.464z" clip-rule="evenodd"/>
    <path fill="#CCD8E9" fill-rule="evenodd" d="M27.945 58.833H59.77v-.466H27.945v.466z" clip-rule="evenodd"/>
    <path fill="#CDD7EB" fill-rule="evenodd" d="M27.945 59.457H59.77v-.621H27.945v.62z" clip-rule="evenodd"/>
    <path fill="#D0DCED" fill-rule="evenodd" d="M27.945 59.92H59.77v-.467H27.945v.467z" clip-rule="evenodd"/>
    <path fill="#D2DDED" fill-rule="evenodd" d="M27.945 60.388H59.77v-.466H27.945v.466z" clip-rule="evenodd"/>
    <path fill="#D4DEEE" fill-rule="evenodd" d="M27.945 60.852H59.77v-.465H27.945v.465z" clip-rule="evenodd"/>
    <path fill="#D6DFF1" fill-rule="evenodd" d="M27.945 61.318H59.77v-.466H27.945v.466z" clip-rule="evenodd"/>
    <path fill="#D7E0EF" fill-rule="evenodd" d="M27.945 61.941H59.77v-.62H27.945v.62z" clip-rule="evenodd"/>
    <path fill="#DBE2ED" fill-rule="evenodd" d="M27.945 62.403H59.77v-.465H27.945v.465z" clip-rule="evenodd"/>
    <path fill="#DEE3ED" fill-rule="evenodd" d="M27.945 62.872H59.77v-.466H27.945v.466z" clip-rule="evenodd"/>
    <path fill="#E0E6EF" fill-rule="evenodd" d="M27.945 63.336H59.77v-.465H27.945v.465z" clip-rule="evenodd"/>
    <path fill="#E2E7EF" fill-rule="evenodd" d="M27.945 63.958H59.77v-.622H27.945v.622zm0 .464H59.77v-.464H27.945v.464z" clip-rule="evenodd"/>
    <path fill="#E5E8EF" fill-rule="evenodd" d="M27.945 64.888H59.77v-.466H27.945v.466z" clip-rule="evenodd"/>
    <path fill="#E7EBF0" fill-rule="evenodd" d="M27.945 65.353H59.77v-.466H27.945v.466z" clip-rule="evenodd"/>
    <path fill="#EAECF1" fill-rule="evenodd" d="M27.945 65.976H59.77v-.62H27.945v.62z" clip-rule="evenodd"/>
    <path fill="#ECEFF2" fill-rule="evenodd" d="M27.945 66.438H59.77v-.465H27.945v.465zm0 .466H59.77v-.466H27.945v.466z" clip-rule="evenodd"/>
    <path fill="#F2F3F4" fill-rule="evenodd" d="M27.945 67.372H59.77v-.466H27.945v.466zm0 .467H59.77v-.467H27.945v.467z" clip-rule="evenodd"/>
    <path fill="#F4F4F7" fill-rule="evenodd" d="M27.945 68.46H59.77v-.62H27.945v.62z" clip-rule="evenodd"/>
    <path fill="#F7F8F8" fill-rule="evenodd" d="M27.945 68.923H59.77v-.466H27.945v.466z" clip-rule="evenodd"/>
    <path fill="#FBFDFF" fill-rule="evenodd" d="M27.945 69.39H59.77v-.464H27.945v.465z" clip-rule="evenodd"/>
    <path fill="#fff" fill-rule="evenodd" d="M27.945 69.856H59.77v-.465H27.945v.465z" clip-rule="evenodd"/>
    <path fill="#DA884E" fill-rule="evenodd" d="M113.793 37.879h23.44v-.621h-23.44v.62z" clip-rule="evenodd"/>
    <path fill="#DB8A51" fill-rule="evenodd" d="M113.793 38.34h23.44v-.465h-23.44v.466z" clip-rule="evenodd"/>
    <path fill="#DA8F56" fill-rule="evenodd" d="M113.793 38.81h23.44v-.466h-23.44v.465z" clip-rule="evenodd"/>
    <path fill="#DB925D" fill-rule="evenodd" d="M113.793 39.274h23.44v-.465h-23.44v.465z" clip-rule="evenodd"/>
    <path fill="#DB9461" fill-rule="evenodd" d="M113.793 39.895h23.44v-.622h-23.44v.622z" clip-rule="evenodd"/>
    <path fill="#DC9865" fill-rule="evenodd" d="M113.793 40.36h23.44v-.465h-23.44v.464z" clip-rule="evenodd"/>
    <path fill="#DF9B68" fill-rule="evenodd" d="M113.793 40.826h23.44v-.467h-23.44v.467z" clip-rule="evenodd"/>
    <path fill="#E39D6D" fill-rule="evenodd" d="M113.793 41.293h23.44v-.465h-23.44v.465z" clip-rule="evenodd"/>
    <path fill="#E09F73" fill-rule="evenodd" d="M113.793 41.914h23.44v-.621h-23.44v.621z" clip-rule="evenodd"/>
    <path fill="#E2A475" fill-rule="evenodd" d="M113.793 42.38h23.44v-.466h-23.44v.466z" clip-rule="evenodd"/>
    <path fill="#E0A779" fill-rule="evenodd" d="M113.793 42.844h23.44v-.465h-23.44v.465z" clip-rule="evenodd"/>
    <path fill="#E1A97B" fill-rule="evenodd" d="M113.793 43.31h23.44v-.466h-23.44v.465z" clip-rule="evenodd"/>
    <path fill="#E1AB80" fill-rule="evenodd" d="M113.793 43.775h23.44v-.466h-23.44v.466z" clip-rule="evenodd"/>
    <path fill="#E3AF86" fill-rule="evenodd" d="M113.793 44.398h23.44v-.62h-23.44v.62z" clip-rule="evenodd"/>
    <path fill="#E3B188" fill-rule="evenodd" d="M113.793 44.86h23.44v-.465h-23.44v.465z" clip-rule="evenodd"/>
    <path fill="#E6B48D" fill-rule="evenodd" d="M113.793 45.329h23.44v-.466h-23.44v.466z" clip-rule="evenodd"/>
    <path fill="#E7B892" fill-rule="evenodd" d="M113.793 45.795h23.44v-.467h-23.44v.467z" clip-rule="evenodd"/>
    <path fill="#E9BE96" fill-rule="evenodd" d="M113.793 46.417h23.44v-.62h-23.44v.62z" clip-rule="evenodd"/>
    <path fill="#E7C09B" fill-rule="evenodd" d="M113.793 46.88h23.44v-.466h-23.44v.466z" clip-rule="evenodd"/>
    <path fill="#E8C29E" fill-rule="evenodd" d="M113.793 47.349h23.44v-.466h-23.44v.465z" clip-rule="evenodd"/>
    <path fill="#E8C4A2" fill-rule="evenodd" d="M113.793 47.813h23.44v-.465h-23.44v.465z" clip-rule="evenodd"/>
    <path fill="#EAC8A8" fill-rule="evenodd" d="M113.793 48.433h23.44v-.62h-23.44v.62z" clip-rule="evenodd"/>
    <path fill="#EBCCAD" fill-rule="evenodd" d="M113.793 48.9h23.44v-.466h-23.44v.465z" clip-rule="evenodd"/>
    <path fill="#EBCEB0" fill-rule="evenodd" d="M113.793 49.364h23.44v-.466h-23.44v.466z" clip-rule="evenodd"/>
    <path fill="#ECD0B4" fill-rule="evenodd" d="M113.793 49.83h23.44v-.467h-23.44v.467z" clip-rule="evenodd"/>
    <path fill="#EFD3B7" fill-rule="evenodd" d="M113.793 50.294h23.44v-.466h-23.44v.466z" clip-rule="evenodd"/>
    <path fill="#F3D7BD" fill-rule="evenodd" d="M113.793 50.917h23.44v-.62h-23.44v.62z" clip-rule="evenodd"/>
    <path fill="#F4D9C1" fill-rule="evenodd" d="M113.793 51.384h23.44v-.466h-23.44v.466z" clip-rule="evenodd"/>
    <path fill="#F2DCC6" fill-rule="evenodd" d="M113.793 51.85h23.44v-.467h-23.44v.466z" clip-rule="evenodd"/>
    <path fill="#F0DFCB" fill-rule="evenodd" d="M113.793 52.312h23.44v-.464h-23.44v.464z" clip-rule="evenodd"/>
    <path fill="#F1E1CE" fill-rule="evenodd" d="M113.793 52.935h23.44v-.623h-23.44v.623z" clip-rule="evenodd"/>
    <path fill="#F2E5D6" fill-rule="evenodd" d="M113.793 53.4h23.44v-.466h-23.44v.465z" clip-rule="evenodd"/>
    <path fill="#F3E7DA" fill-rule="evenodd" d="M113.793 53.867h23.44v-.465h-23.44v.465z" clip-rule="evenodd"/>
    <path fill="#F3E9DF" fill-rule="evenodd" d="M113.793 54.333h23.44v-.466h-23.44v.466z" clip-rule="evenodd"/>
    <path fill="#F4EEE3" fill-rule="evenodd" d="M113.793 54.953h23.44v-.621h-23.44v.62z" clip-rule="evenodd"/>
    <path fill="#F4EEE7" fill-rule="evenodd" d="M113.793 55.417h23.44v-.62h-23.44v.62z" clip-rule="evenodd"/>
    <path fill="#F5F0EA" fill-rule="evenodd" d="M113.793 55.885h23.44v-.467h-23.44v.467z" clip-rule="evenodd"/>
    <path fill="#F9F6F0" fill-rule="evenodd" d="M113.793 56.352h23.44v-.465h-23.44v.465z" clip-rule="evenodd"/>
    <path fill="#F9F6F4" fill-rule="evenodd" d="M113.793 56.817h23.44v-.465h-23.44v.465z" clip-rule="evenodd"/>
    <path fill="#fff" fill-rule="evenodd" d="M113.793 57.437h23.44v-.62h-23.44v.62z" clip-rule="evenodd"/>
    <path fill="#0C0E0F" fill-rule="evenodd" d="M113.791 69.235c-3.105 6.987-7.297 10.09-13.972 10.09-5.434 0-10.71-3.103-13.04-7.761-1.552-3.26-2.173-6.055-2.173-11.952h37.411c0-6.832-.776-11.023-2.794-15.37-3.57-7.916-10.711-12.419-19.56-12.419-14.127 0-23.907 11.022-23.907 27.323 0 15.99 9.47 26.7 23.595 26.7 10.401 0 18.474-5.588 21.735-15.058l-7.295-1.553zM85.073 53.556c.463-4.968 1.396-7.452 3.57-10.246 2.949-3.415 6.674-5.433 11.176-5.433 8.228 0 13.195 5.9 13.507 15.68H85.073zm74.048 25.46c-2.795.465-4.348.62-6.211.62-5.432 0-8.228-2.64-8.228-8.073V19.559l-7.917.31v50.453c0 10.4 4.968 15.678 14.748 15.678 2.329 0 4.036-.155 7.608-.62v-6.365zM0 77.461c0-4.501 3.57-8.073 8.072-8.073 4.502 0 8.073 3.572 8.073 8.073 0 4.502-3.571 8.073-8.073 8.073-4.501 0-8.072-3.57-8.072-8.073zm63.648 8.383V54.023c0-7.298-.621-11.178-1.707-13.662-2.794-5.743-8.383-9.314-15.058-9.314-6.986 0-11.176 2.64-16.455 10.866v-9.47H23.13v53.402h7.918V55.573c0-10.09 6.053-17.696 14.436-17.696 6.83 0 10.556 4.502 10.556 12.885v35.083h7.607z" clip-rule="evenodd"/>
    <path fill="#0C0E0F" fill-rule="evenodd" d="M99.509 31.822h57.902v6.055H99.509v-6.055zM62.872 79.791H99.82v5.9H62.871v-5.9zm-41.45-57.748V.464h-4.036l-6.364 17.232L4.502.464H.622v21.58h2.173V3.103l7.14 18.94H11.8l6.985-18.94v18.94h2.639zm5.28 0h2.483V6.053h-2.483v15.99zm0-18.94h2.639V.464h-2.64v2.64zm16.92 13.351c-.466 2.64-1.863 4.036-3.881 4.036-2.64 0-4.191-2.483-4.191-6.52 0-3.88 1.707-6.364 4.347-6.364 2.018 0 3.415 1.397 3.725 4.035l2.328-.465c-.62-3.571-2.794-5.59-6.053-5.59-4.192 0-6.986 3.416-6.986 8.384 0 5.123 2.64 8.383 6.83 8.383 1.708 0 3.105-.466 4.347-1.708.932-.931 1.398-1.863 1.863-3.88l-2.33-.31zm8.228 5.59v-8.539c.155-3.26 2.483-5.744 5.433-5.434V5.588h-.93c-1.088 0-2.33.621-3.106 1.397-.466.776-.776 1.242-1.552 2.794V6.054H49.52v15.99h2.329zM65.666 5.586c-2.329 0-4.192.931-5.589 2.794-1.086 1.397-1.707 3.26-1.707 5.589 0 2.329.466 4.191 1.552 5.744 1.242 1.863 2.95 2.639 5.434 2.639 4.347 0 7.296-3.415 7.296-8.228 0-4.967-2.794-8.538-6.986-8.538zm-.155 2.019c1.242 0 2.483.775 3.26 1.707.776 1.087 1.242 2.64 1.242 4.657 0 4.036-1.707 6.52-4.502 6.52s-4.502-2.483-4.502-6.52c0-1.863.465-3.57 1.086-4.502.777-1.087 2.174-1.862 3.416-1.862zM74.36 17.85c.31 1.397.775 2.173 1.707 2.794 1.242 1.242 3.105 1.708 5.433 1.708 3.881 0 6.52-1.863 6.52-4.812 0-2.64-1.553-4.192-4.813-4.657l-3.104-.622c-1.863-.31-2.64-1.086-2.64-2.173 0-1.552 1.398-2.483 3.572-2.483 1.862 0 3.26.775 4.036 2.639l2.329-.62c-.933-2.64-3.105-4.037-6.365-4.037-3.726 0-6.055 1.863-6.055 4.657 0 2.329 1.552 4.037 4.347 4.501l3.415.622c1.707.31 2.639 1.242 2.639 2.484 0 1.552-1.553 2.639-3.726 2.639-1.552 0-2.95-.466-3.88-1.241-.466-.466-.777-.933-1.087-1.863l-2.329.464zM97.802 5.587c-2.33 0-4.193.931-5.745 2.794-1.086 1.397-1.707 3.26-1.707 5.589 0 2.329.62 4.191 1.553 5.744 1.396 1.863 3.103 2.639 5.434 2.639 4.347 0 7.295-3.415 7.295-8.228 0-4.967-2.64-8.538-6.83-8.538zm-.312 2.019c1.398 0 2.639.775 3.415 1.707.777 1.087 1.086 2.64 1.086 4.657 0 4.036-1.707 6.52-4.501 6.52-2.794 0-4.347-2.483-4.347-6.52 0-1.863.311-3.57 1.086-4.502.621-1.087 2.02-1.862 3.26-1.862zm17.697-1.552h-3.88c0-1.708 0-1.863.311-2.484.31-1.086 1.397-1.552 2.95-1.552.62 0 .932 0 1.553.155V.155C115.034 0 114.413 0 113.792 0c-2.019 0-3.726.931-4.347 2.484-.312.931-.312 1.552-.466 3.57h-2.794v2.018h2.794v13.972h2.328V8.072h3.881V6.054h-.001zm11.334 14.281c-.778.155-1.399.155-1.864.155-1.707 0-2.64-.775-2.64-2.483V8.07h3.572V6.054h-3.572V1.862l-2.328.155-.155 4.036h-2.795V8.07h2.795v9.626c0 3.104 1.553 4.812 4.656 4.812.621 0 1.243-.155 2.33-.155v-2.018h.001zm33.687 14.748v-2.95h.929v-.31h-2.327v.31h.931v2.95h.467zm4.501 0v-3.26h-.777l-.931 2.639-.931-2.64h-.621v3.26h.466v-2.794l1.086 2.795h.155l1.087-2.795v2.795h.466z" clip-rule="evenodd"/>
</svg>
