<svg xmlns="http://www.w3.org/2000/svg" width="229" height="30" fill="none" viewBox="0 0 229 30">
    <path fill="#EA1B22" d="M98.86 19.518h15.133l-8.001-12.973L91.307 30h-6.683l17.861-28.173C103.262.688 104.556 0 105.992 0c1.388 0 2.682.664 3.436 1.779l17.932 28.22h-6.683l-3.153-5.24h-15.321l-3.342-5.241zm69.424 5.24V.284h-5.671v26.87c0 .735.282 1.447.823 1.992.541.545 1.271.854 2.071.854h25.863l3.342-5.241h-26.428zm-93.827-4.387c5.507 0 9.978-4.482 9.978-10.031 0-5.55-4.471-10.056-9.978-10.056H49.646V30h5.67V5.526H74.08c2.635 0 4.753 2.158 4.753 4.814s-2.118 4.814-4.753 4.814l-15.989-.023L75.022 30h8.236l-11.39-9.628h2.59l-.001-.001zM14.747 30C6.606 30 0 23.36 0 15.154S6.606.284 14.746.284h17.14c8.142 0 14.743 6.664 14.743 14.87S40.028 30 31.885 30H14.746zm16.758-5.241c5.273 0 9.545-4.293 9.545-9.605s-4.272-9.628-9.545-9.628h-16.38c-5.271 0-9.545 4.316-9.545 9.628s4.274 9.605 9.545 9.605h16.379zm107.692 5.24c-8.142 0-14.755-6.64-14.755-14.845 0-8.206 6.613-14.87 14.755-14.87h20.357l-3.319 5.242h-16.661c-5.272 0-9.555 4.316-9.555 9.628s4.283 9.605 9.555 9.605h20.45l-3.342 5.24h-17.485zm69.353-5.24c-4.354 0-8.048-2.94-9.178-6.997h24.239l3.342-5.24h-27.581c1.13-4.032 4.824-6.996 9.178-6.996h16.638l3.365-5.242h-20.38c-8.142 0-14.755 6.664-14.755 14.87 0 8.205 6.613 14.845 14.755 14.845h17.485L229 24.76h-20.45z"/>
</svg>
