<svg xmlns="http://www.w3.org/2000/svg" width="48" height="48" fill="none" viewBox="0 0 48 48">
    <path fill="#2083D2" d="M24.2 7.9L23.1 13H14l.6 4h2l-.3-2h9.3l-2.4 15H22c-.1.2-.8 2-.8 2H25l3-19h-2.9l1.1-4.6-2-.5z"/>
    <path fill="#2083D2" d="M10.1 19h-.6C7.6 19 6 20.3 6 22h14c0-1.7-1.6-3-3.5-3h-6.4zM9.5 32h7c.3 0 .6 0 .8-.1h.1c.3-.1.5-.1.7-.3h.1c.7-.4 1.3-.9 1.5-1.6.1-.3.2-.7.2-1H6c0 1.6 1.6 3 3.5 3zM6 26.1c0 1 .9 1.9 1.9 1.9H18c1.1 0 1.9-.9 1.9-1.9V25c0-1.1-.9-1.9-1.9-1.9h-1.2c.1.2.1.3.1.5 0 .7-.5 1.3-1.1 1.4-.1 0-.3.1-.4.1-.8 0-1.5-.7-1.5-1.5 0-.2 0-.3.1-.5H7.9c-1-.1-1.9.8-1.9 1.8v1.2z"/>
    <path fill="#004279" d="M46 0H2C.9 0 0 .9 0 2v44c0 1.1.9 2 2 2h24v-2H2V2h44v23h2V2c0-1.1-.9-2-2-2z"/>
    <path fill="#004279" d="M46 32c-.8 0-1.5.5-1.8 1.1-.1 0-.2-.1-.2-.1 0-1.1-.9-2-2-2s-2 .9-2 2v-1c0-1.1-.9-2-2-2s-2 .9-2 2v-8c0-1.1-.9-2-2-2s-2 .9-2 2v15.5c-1.9-1-3-1.3-4-1.5h-1c-1.5 0-3 .6-3 2.5l4 1.8.5.2 3.2 3.2c1.5 1.5 3.5 2.3 5.7 2.3H44c2.2 0 4-1.8 4-4V34c0-1.1-.9-2-2-2z"/>
</svg>
