<svg xmlns="http://www.w3.org/2000/svg" width="97" height="96" fill="none" viewBox="0 0 97 96">
    <path fill="url(#prefix__paint0_linear)" d="M47.903 0C23.405 0 24.935 10.624 24.935 10.624l.027 11.007H48.34v3.304H15.676S0 23.157 0 47.875c0 24.72 13.683 23.843 13.683 23.843h8.166v-11.47s-.44-13.683 13.464-13.683H58.5s13.027.21 13.027-12.59V12.808S73.506 0 47.903 0zm-12.89 7.402c.552 0 1.1.108 1.61.319.51.211.974.52 1.364.911.391.391.7.855.912 1.365.211.51.32 1.058.32 1.61 0 .553-.109 1.1-.32 1.61-.211.511-.52.975-.912 1.365-.39.391-.854.7-1.364.912-.51.211-1.058.32-1.61.32-.553 0-1.1-.109-1.61-.32-.511-.211-.975-.52-1.365-.912-.391-.39-.7-.854-.912-1.365-.211-.51-.32-1.057-.32-1.61 0-.552.109-1.1.32-1.61.211-.51.52-.974.912-1.365.39-.39.854-.7 1.365-.911.51-.211 1.057-.32 1.61-.32z"/>
    <path fill="url(#prefix__paint1_linear)" d="M48.597 96c24.498 0 22.969-10.624 22.969-10.624l-.028-11.007H48.16v-3.304h32.664S96.5 72.843 96.5 48.123c0-24.718-13.683-23.842-13.683-23.842h-8.166v11.47s.44 13.683-13.464 13.683H38s-13.027-.21-13.027 12.591v21.166s-1.978 12.808 23.624 12.808zm12.89-7.401c-.552 0-1.099-.109-1.61-.32-.51-.21-.974-.52-1.364-.911-.39-.39-.7-.855-.912-1.365-.21-.51-.32-1.058-.319-1.61 0-.553.108-1.1.32-1.61.21-.51.52-.975.91-1.365.391-.391.855-.701 1.366-.912.51-.211 1.057-.32 1.61-.32.552 0 1.1.109 1.61.32.51.211.974.52 1.365.911.39.391.7.855.912 1.365.21.51.32 1.058.319 1.61 0 .553-.108 1.1-.32 1.61-.21.51-.52.975-.911 1.365-.39.391-.855.7-1.365.912-.51.211-1.058.32-1.61.32z"/>
    <defs>
        <linearGradient id="prefix__paint0_linear" x1="9.274" x2="57.097" y1="8.635" y2="55.981" gradientUnits="userSpaceOnUse">
            <stop stop-color="#387EB8"/>
            <stop offset="1" stop-color="#366994"/>
        </linearGradient>
        <linearGradient id="prefix__paint1_linear" x1="38.626" x2="89.983" y1="39.037" y2="87.586" gradientUnits="userSpaceOnUse">
            <stop stop-color="#FFE052"/>
            <stop offset="1" stop-color="#FFC331"/>
        </linearGradient>
    </defs>
</svg>
