<svg xmlns="http://www.w3.org/2000/svg" width="48" height="48" fill="none" viewBox="0 0 48 48">
    <path fill="#333" fill-rule="evenodd" d="M46 2H2v2h44V2zm0 4h2V0H0v6h2v33H0v2h48v-2h-2V6zm-2 0H4v33h40V6zM25 41h-2v1.17c-1.165.413-2 1.524-2 2.83 0 1.657 1.343 3 3 3s3-1.343 3-3c0-1.306-.835-2.417-2-2.83V41zm0 4c0 .552-.448 1-1 1s-1-.448-1-1 .448-1 1-1 1 .448 1 1z" clip-rule="evenodd"/>
    <path fill="#2083D2" fill-rule="evenodd" d="M9 30v4h4v-4H9zm-1-2c-.552 0-1 .448-1 1v6c0 .552.448 1 1 1h6c.552 0 1-.448 1-1v-6c0-.552-.448-1-1-1H8zM35 11v4h4v-4h-4zm-1-2c-.552 0-1 .448-1 1v6c0 .552.448 1 1 1h6c.552 0 1-.448 1-1v-6c0-.552-.448-1-1-1h-6zM27 14v2l4-3-4-3v2h-.24c-2.761 0-5 2.239-5 5v11c0 1.657-1.343 3-3 3H17v2h1.76c2.761 0 5-2.239 5-5V17c0-1.657 1.343-3 3-3H27z" clip-rule="evenodd"/>
    <path fill="#333" fill-rule="evenodd" d="M11.002 13l-.866 1.5h1.732l-.866-1.5zm.866-2.5c-.385-.667-1.347-.667-1.732 0L7.538 15c-.385.667.096 1.5.866 1.5H13.6c.77 0 1.25-.833.866-1.5l-2.598-4.5zM37 34c1.105 0 2-.895 2-2s-.895-2-2-2-2 .895-2 2 .895 2 2 2zm0 2c2.21 0 4-1.79 4-4s-1.79-4-4-4-4 1.79-4 4 1.79 4 4 4zM27.235 20.318l-1.415 1.415 1.768 1.767-1.767 1.768 1.414 1.414 1.767-1.767 1.768 1.767 1.414-1.414-1.767-1.768 1.768-1.767-1.415-1.415-1.768 1.768-1.767-1.768z" clip-rule="evenodd"/>
    <path fill="#333" d="M12 21c0-.552.448-1 1-1h5c.552 0 1 .448 1 1s-.448 1-1 1h-5c-.552 0-1-.448-1-1zM18 9c0-.552.448-1 1-1h3c.552 0 1 .448 1 1s-.448 1-1 1h-3c-.552 0-1-.448-1-1zM24 35c0-.552.448-1 1-1h3c.552 0 1 .448 1 1s-.448 1-1 1h-3c-.552 0-1-.448-1-1zM36 22c0-.552.448-1 1-1h3c.552 0 1 .448 1 1s-.448 1-1 1h-3c-.552 0-1-.448-1-1z"/>
</svg>
