<svg xmlns="http://www.w3.org/2000/svg" width="48" height="48" fill="none" viewBox="0 0 48 48">
    <path fill="#004279" d="M46 0H2C.9 0 0 .9 0 2v44c0 1.1.9 2 2 2h24v-2H2V2h44v23h2V2c0-1.1-.9-2-2-2z"/>
    <path fill="#004279" d="M48 37h-3v-1.1c1.7-.5 3-2 3-3.9h-3v-1c0-.5-.5-1-1-1h-8c-.5 0-1 .5-1 1v1h-3c0 1.9 1.3 3.4 3 3.9V37h-3c0 1.9 1.3 3.4 3 3.9V42h-3c0 1.9 1.3 3.4 3 3.9V47c0 .5.5 1 1 1h8c.5 0 1-.5 1-1v-1.1c1.7-.5 3-2 3-3.9h-3v-1.1c1.7-.5 3-2 3-3.9zm-8 9c-1.1 0-2-.9-2-2s.9-2 2-2 2 .9 2 2-.9 2-2 2zm0-5c-1.1 0-2-.9-2-2s.9-2 2-2 2 .9 2 2-.9 2-2 2zm0-5c-1.1 0-2-.9-2-2s.9-2 2-2 2 .9 2 2-.9 2-2 2z"/>
    <path fill="#2083D2" d="M10.8 7.505c-1.1 0-2 .84-2 1.867V30c-.3-.187-.5-.467-.5-.747L6 8.44c0-.56.4-1.027.9-1.027l14.9-1.4c.6-.093 1.1.373 1.1.84l.1.653H10.8z"/>
    <path fill="#2083D2" d="M27 9H12c-.5 0-1 .5-1 1v23c0 .5.5 1 1 1h15c.5 0 1-.5 1-1V10c0-.5-.5-1-1-1zm-7.5 4.5c2.2 0 4 1.8 4 4s-1.8 4-4 4-4-1.8-4-4 1.8-4 4-4zm-4 11h8c.5 0 1 .5 1 1s-.5 1-1 1h-8c-.5 0-1-.5-1-1s.5-1 1-1zm0 4h8c.5 0 1 .5 1 1s-.5 1-1 1h-8c-.5 0-1-.5-1-1s.5-1 1-1z"/>
</svg>
