<svg xmlns="http://www.w3.org/2000/svg" width="48" height="48" fill="none" viewBox="0 0 48 48">
    <path fill="#333" fill-rule="evenodd" d="M40 0H2C.9 0 0 .9 0 2v31c0 1.1.9 2 2 2h2v-2H2V2h38v9h2V2c0-1.1-.9-2-2-2z" clip-rule="evenodd"/>
    <path fill="#333" fill-rule="evenodd" d="M8.5 2H2v5h38V2h-1.5c.8 0 1.5.7 1.5 1.5S39.3 5 38.5 5h-11c-.8 0-1.5-.7-1.5-1.5S26.7 2 27.5 2h-19zm0 0c.828 0 1.5.672 1.5 1.5S9.328 5 8.5 5 7 4.328 7 3.5 7.672 2 8.5 2zm5 0c.828 0 1.5.672 1.5 1.5S14.328 5 13.5 5 12 4.328 12 3.5 12.672 2 13.5 2zM2 3.5C2 4.328 2.672 5 3.5 5S5 4.328 5 3.5 4.328 2 3.5 2 2 2.672 2 3.5zM8 13h38c1.1 0 2 .9 2 2v31c0 1.1-.9 2-2 2H8c-1.1 0-2-.9-2-2V15c0-1.1.9-2 2-2zm0 33h38V15H8v31z" clip-rule="evenodd"/>
    <path fill="#2083D2" d="M32.017 37.591c-.74.74-1.94.74-2.679 0-.74-.74-.74-1.94 0-2.679.74-.74 6.252-3.572 6.252-3.572s-2.833 5.511-3.573 6.251z"/>
    <path fill="#2083D2" fill-rule="evenodd" d="M36.657 43C38.697 41.35 40 38.827 40 36c0-4.97-4.03-9-9-9s-9 4.03-9 9c0 2.827 1.304 5.35 3.343 7h-2.829C20.944 41.098 20 38.66 20 36c0-6.075 4.925-11 11-11s11 4.925 11 11c0 2.66-.944 5.098-2.514 7h-2.829z" clip-rule="evenodd"/>
    <path fill="#333" fill-rule="evenodd" d="M14.5 15H8v5h38v-5h-1.5c.8 0 1.5.7 1.5 1.5s-.7 1.5-1.5 1.5h-11c-.8 0-1.5-.7-1.5-1.5s.7-1.5 1.5-1.5h-19zm0 0c.828 0 1.5.672 1.5 1.5s-.672 1.5-1.5 1.5-1.5-.672-1.5-1.5.672-1.5 1.5-1.5zm5 0c.828 0 1.5.672 1.5 1.5s-.672 1.5-1.5 1.5-1.5-.672-1.5-1.5.672-1.5 1.5-1.5zM8 16.5c0 .828.672 1.5 1.5 1.5s1.5-.672 1.5-1.5-.672-1.5-1.5-1.5-1.5.672-1.5 1.5z" clip-rule="evenodd"/>
</svg>
