<svg xmlns="http://www.w3.org/2000/svg" width="48" height="48" fill="none" viewBox="0 0 48 48">
    <path fill="#2083D2" d="M48 29h-2.81c-.45-.78-1.07-1.45-1.82-1.96L45 25.41 43.59 24l-2.17 2.17c-.46-.11-.93-.17-1.42-.17-.49 0-.96.06-1.41.17L36.41 24 35 25.41l1.62 1.63c-.74.51-1.36 1.18-1.81 1.96H32v2h2.09c-.05.33-.09.66-.09 1v1h-2v2h2v1c0 .34.04.67.09 1H32v2h2.81c1.04 1.79 2.97 3 5.19 3s4.15-1.21 5.19-3H48v-2h-2.09c.05-.33.09-.66.09-1v-1h2v-2h-2v-1c0-.34-.04-.67-.09-1H48v-2zm-6 8h-4v-2h4v2zm0-4h-4v-2h4v2z"/>
    <path fill="#333" fill-rule="evenodd" d="M2 2h30v3h2V2c0-1.105-.895-2-2-2H2C.895 0 0 .895 0 2v38c0 1.105.895 2 2 2h3v-2H2V2z" clip-rule="evenodd"/>
    <path fill="#2083D2" fill-rule="evenodd" d="M14 14v3h12v-3H14zm-1-2c-.552 0-1 .448-1 1v5c0 .552.448 1 1 1h14c.552 0 1-.448 1-1v-5c0-.552-.448-1-1-1H13z" clip-rule="evenodd"/>
    <path fill="#2083D2" d="M12 22c0-.552.448-1 1-1h14c.552 0 1 .448 1 1s-.448 1-1 1H13c-.552 0-1-.448-1-1zM12 26c0-.552.448-1 1-1h14c.552 0 1 .448 1 1s-.448 1-1 1H13c-.552 0-1-.448-1-1zM12 34c0-.552.448-1 1-1h14c.552 0 1 .448 1 1s-.448 1-1 1H13c-.552 0-1-.448-1-1zM12 38c0-.552.448-1 1-1h14c.552 0 1 .448 1 1s-.448 1-1 1H13c-.552 0-1-.448-1-1zM12 42c0-.552.448-1 1-1h14c.552 0 1 .448 1 1s-.448 1-1 1H13c-.552 0-1-.448-1-1z"/>
    <path fill="#333" fill-rule="evenodd" d="M9 9h30v14h2V9c0-1.105-.895-2-2-2H9c-1.105 0-2 .895-2 2v37c0 1.105.895 2 2 2h30c1.105 0 2-.895 2-2v-2h-2v2H9V9z" clip-rule="evenodd"/>
</svg>
