<svg xmlns="http://www.w3.org/2000/svg" width="47" height="47" fill="none" viewBox="0 0 47 47">
    <path fill="#8CC440" d="M4 34.769v6h4l5 5v-16l-5 5H4zm13.5 3c0-1.77-1.02-3.29-2.5-4.03v8.05c1.48-.73 2.5-2.25 2.5-4.02zm-2.5-8.77v2.06c2.89.86 5 3.54 5 6.71s-2.11 5.85-5 6.71v2.06c4.01-.91 7-4.49 7-8.77 0-4.28-2.99-7.86-7-8.77z"/>
    <path fill="#fff" fill-rule="evenodd" d="M22.986.219L47 18.999v2h-4v26H21v-2h5V29h11v16h4V19h2.739L23.014 2.78 3.191 19H6v14H4V21H0v-2L22.986.218zM35 44.999h-7V31h7v14zM4 1h10v4h-2V3H6v9H4V1zm22 15c0 1.657-1.343 3-3 3s-3-1.343-3-3 1.343-3 3-3 3 1.343 3 3zm2 0c0 2.762-2.239 5-5 5s-5-2.238-5-5c0-2.761 2.239-5 5-5s5 2.239 5 5z" clip-rule="evenodd"/>
</svg>
