<svg xmlns="http://www.w3.org/2000/svg" width="49" height="47" fill="none" viewBox="0 0 49 47">
    <path fill="#fff" fill-rule="evenodd" d="M46.594 43H2.411v2h44.183v-2zM.402 41v6h48.2v-6H.402z" clip-rule="evenodd"/>
    <path fill="#8CC440" fill-rule="evenodd" d="M42.576 2H6.426v4h36.15V2zM4.418 0v8h40.167V0H4.418z" clip-rule="evenodd"/>
    <path fill="#fff" fill-rule="evenodd" d="M21.491 26h-9.037v15h9.037V26zm-11.046-2v19H23.5V24H10.445zM36.553 26h-7.029v6h7.03v-6zm-9.037-2v10h11.046V24H27.516z" clip-rule="evenodd"/>
    <path fill="#8CC440" fill-rule="evenodd" d="M2.41 14l4.017-6H4.42L.402 14c0 3.314 2.698 6 6.025 6 2.986 0 5.464-2.162 5.942-5h.167c.478 2.838 2.956 5 5.941 5 2.986 0 5.464-2.162 5.942-5h.168c.478 2.838 2.957 5 5.942 5 2.985 0 5.463-2.162 5.942-5h.163c.478 2.838 2.956 5 5.942 5 3.327 0 6.025-2.686 6.025-6h.001l-4.016-6h-2.009l3.348 5h-3.348v2h3.889c-.446 1.725-2.019 3-3.89 3-2.18 0-3.956-1.73-4.015-3.887V13h-8.034v2h3.892c-.446 1.725-2.018 3-3.89 3-2.218 0-4.017-1.79-4.017-4h-.001v-1h-8.034v2h3.89c-.445 1.725-2.018 3-3.89 3-2.218 0-4.016-1.79-4.016-4h-.002v-1H6.426v2h3.892c-.446 1.725-2.019 3-3.89 3-2.219 0-4.017-1.79-4.017-4zm11.048-6h-2.009v3h2.009V8zM23.5 8h2.008v3H23.5V8zm14.055 0h-2.008v3h2.008V8z" clip-rule="evenodd"/>
    <path fill="#fff" d="M4.418 19h2.008v22H4.418V19zM42.578 19h2.008v22h-2.008V19z"/>
</svg>
