<svg xmlns="http://www.w3.org/2000/svg" width="48" height="49" fill="none" viewBox="0 0 48 49">
    <path fill="#000" fill-rule="evenodd" d="M24.004 0L48 9.07v2L23.996 2.139 0 11.069v-2L24.004 0zM7.8 18.926C8.54 18.2 9 17.19 9 16.07c0-2.21-1.79-4-4-4s-4 1.79-4 4c0 1.119.46 2.13 1.2 2.856-1.327.9-2.2 2.42-2.2 4.144v11c0 1.104.895 2 2 2v10c0 1.104.895 2 2 2h2c1.105 0 2-.896 2-2v-10c1.105 0 2-.896 2-2v-9.488l2.615 3.31 4.76-2.975-1.06-1.696-3.241 2.026-3.79-4.797-.016.013c-.374-.611-.876-1.136-1.468-1.537zM7 16.07c0 1.104-.895 2-2 2s-2-.896-2-2c0-1.105.895-2 2-2s2 .895 2 2zm1 7v11H6v12H4v-12H2v-11c0-1.657 1.343-3 3-3s3 1.343 3 3zm24.458-4.36c.407 1.042 1.204 1.817 2.159 2.223-.388.563-.657 1.202-.79 1.874l-2.56 3.51-3.714 1.858.894 1.789 4.285-2.143 1.425-2.025 3.929 10.04c.18.46.51.816.914 1.033v9.2c0 1.105.895 2 2 2h2c1.105 0 2-.895 2-2V35.304l1.264-.52c1.03-.402 1.537-1.563 1.134-2.591L43.39 21.949c-.628-1.606-1.995-2.704-3.559-3.057.425-.946.484-2.055.077-3.097-.805-2.058-3.126-3.073-5.183-2.268-2.057.805-3.072 3.125-2.267 5.182zm3.284 4.834c-.034.435.028.885.198 1.32l3.853 10.205s1.177-.44 1.207-.44v11.44h2V33.914l2.536-.993-4.008-10.243c-.604-1.543-2.344-2.305-3.887-1.701-1.095.428-1.796 1.428-1.896 2.524l.02.01-.023.033zm1.17-4.43c-1.03.403-2.19-.105-2.592-1.133-.402-1.029.105-2.189 1.134-2.592 1.029-.402 2.189.106 2.591 1.134.403 1.029-.105 2.19-1.134 2.592z" clip-rule="evenodd"/>
    <path fill="#2083D2" fill-rule="evenodd" d="M14.73 17.802l5.197-3 3 5.196-5.196 3-3-5.196zm-1.731 1c-.553-.957-.225-2.18.732-2.732l5.196-3c.957-.553 2.18-.225 2.732.732l3 5.196c.552.956.225 2.18-.732 2.732l-5.196 3c-.957.552-2.18.224-2.732-.732l-3-5.196zm14 9.268h-6v6h6v-6zm-6-2c-1.105 0-2 .895-2 2v6c0 1.104.895 2 2 2h6c1.104 0 2-.896 2-2v-6c0-1.105-.896-2-2-2h-6zm6 14h-6v6h6v-6zm-6-2c-1.105 0-2 .895-2 2v6c0 1.104.895 2 2 2h6c1.104 0 2-.896 2-2v-6c0-1.105-.896-2-2-2h-6z" clip-rule="evenodd"/>
</svg>
