<svg xmlns="http://www.w3.org/2000/svg" width="133" height="108" fill="none" viewBox="0 0 133 108">
    <path fill="url(#prefix__paint0_linear)" d="M90.158 34.39l-14.686 4.818-12.777 5.664-3.575.948c-.91.87-1.865 1.75-2.897 2.643-1.132.981-2.187 1.873-2.997 2.52-.9.714-2.231 2.052-2.908 2.899-1.01 1.271-1.81 2.62-2.154 3.657-.61 1.874-.31 3.77.866 5.52 1.51 2.23 4.518 4.505 8.026 6.055 1.787.791 4.795 1.806 7.06 2.375 3.763.959 11.045 1.996 15.052 2.152.81.033 1.898.033 1.943 0 .088-.056.71-1.249 1.432-2.732 2.464-5.051 4.24-9.79 5.206-13.838.577-2.453 1.032-5.72 1.332-9.59.078-1.08.11-4.705.044-5.931-.1-2.008-.277-3.635-.555-5.23-.044-.234-.055-.446-.033-.457.044-.034.177-.078 1.987-.602l-.366-.87zm-3.352 1.974c.133 0 .488 3.424.577 5.587.022.457.01.758-.011.758-.09 0-1.876-1.06-3.153-1.862-1.11-.702-3.219-2.108-3.552-2.375-.111-.078-.1-.09.81-.401 1.543-.525 5.206-1.707 5.329-1.707zm-7.482 2.476c.1 0 .355.145.965.524 2.287 1.438 5.395 3.178 6.727 3.758.411.178.455.111-.488.758-2.02 1.383-4.54 2.743-7.626 4.114-.544.246-1 .435-1.01.435-.022 0 .044-.278.133-.613.743-2.777 1.165-5.586 1.188-7.839.01-1.115.01-1.115.11-1.148-.022.01-.01.01 0 .01zm-1.543.59c.066.068.022 2.566-.067 3.246-.2 1.628-.51 3.144-1.021 4.85-.122.412-.233.758-.255.78-.045.056-1.566-1.438-2.065-2.018-.866-1.003-1.543-2.007-2.043-2.988-.255-.502-.655-1.483-.621-1.516.177-.123 6.027-2.398 6.072-2.353zm-7.26 2.867c.01 0 .022 0 .033.01.022.023.1.201.167.402.355.97 1.154 2.397 1.842 3.312.755 1.003 1.743 2.074 2.564 2.776.267.223.511.435.544.469.067.067.09.055-1.72.747-2.098.803-4.385 1.605-7.005 2.453-.626.202-1.25.407-1.876.613-.1.034-.066-.022.222-.48 1.3-2.04 3.275-6.043 4.385-8.875.189-.49.377-.981.41-1.093.045-.156.1-.212.245-.29.078-.022.156-.044.189-.044zm-2.22.925c.033.022-.533 1.215-1.088 2.308-1.077 2.108-2.254 4.182-3.83 6.702-.266.434-.522.836-.555.88-.055.079-.078.056-.255-.29-.378-.746-.689-1.705-.855-2.586-.167-.87-.133-2.386.055-3.323.145-.691.134-.68.467-.848 1.42-.724 6.016-2.888 6.06-2.843zm19.148.78v.469c0 2.487-.266 5.899-.655 8.385-.066.435-.122.792-.133.803 0 0-.322-.09-.7-.2-1.664-.525-3.474-1.294-5.105-2.197-1.077-.591-2.642-1.562-2.598-1.606.01-.011.477-.256 1.021-.547 2.176-1.137 4.263-2.363 6.072-3.579.677-.457 1.698-1.193 1.92-1.394l.178-.133zm-27.53 3.301c.045 0 .034.09-.033.49-.044.29-.1.826-.122 1.194-.089 1.628.178 2.832.977 4.482.222.457.4.837.389.848-.078.067-7.427 2.23-9.736 2.865-.688.19-1.287.357-1.332.368-.078.023-.089.012-.055-.178.255-1.64 1.498-3.78 3.23-5.587 1.154-1.204 2.076-1.906 3.652-2.81 1.132-.646 2.875-1.616 3.008-1.66 0-.012.011-.012.023-.012zm17.318 3.111c.01-.011.277.134.6.323 2.375 1.383 5.683 2.666 8.502 3.323l.256.056-.356.2c-1.476.826-6.327 2.855-11.289 4.717-.722.268-1.432.536-1.565.591-.134.056-.256.09-.256.078 0-.01.2-.401.455-.88 1.388-2.61 2.787-5.788 3.497-7.995.09-.212.144-.402.156-.413zm-1.765.58c.011.011-.078.245-.189.513-.966 2.353-2.231 4.917-3.852 7.794-.41.736-.755 1.327-.766 1.327-.011 0-.344-.2-.744-.446-2.353-1.45-4.44-3.234-5.805-4.962l-.2-.245 1.01-.28c3.619-.991 6.694-2.062 9.746-3.377.433-.179.789-.324.8-.324zm10.967 3.847s.011.011 0 0c.011.256-.555 2.553-1.021 4.215-.389 1.394-.722 2.486-1.332 4.415-.267.848-.5 1.55-.51 1.55-.012 0-.078-.01-.145-.033-3.297-.602-6.25-1.439-9.025-2.554-.777-.312-1.887-.814-1.954-.87-.022-.022.644-.334 1.488-.702 5.05-2.219 10.29-4.739 12.088-5.82.211-.134.378-.201.411-.201zm-25.32.87c.022.022-1.388 2.063-3.364 4.839-.688.97-1.488 2.107-1.787 2.531-.3.424-.755 1.093-1.01 1.494l-.467.725-.5-.424c-.588-.49-1.609-1.538-2.064-2.118-.955-1.193-1.598-2.453-1.854-3.602-.122-.535-.122-.803-.011-.836.166-.045 3.13-.747 5.906-1.394 1.543-.357 3.33-.78 3.974-.937.644-.156 1.166-.278 1.176-.278zm1.42.546l.355.401c1.6 1.796 3.23 3.123 5.207 4.282.355.201.621.38.6.39-.078.056-6.861 2.476-10.002 3.569-1.765.624-3.22 1.126-3.23 1.126-.012 0-.112-.067-.223-.145l-.2-.145.322-.468c1.044-1.517 2.354-3.178 5.207-6.635l1.964-2.375zm8.859 6.367c.01-.011.5.167 1.099.39 1.443.547 2.586.892 4.118 1.283 1.887.48 4.618.948 6.228 1.081.244.022.377.045.333.078-.078.045-1.71.591-2.909.97-1.91.602-7.737 2.33-12.488 3.702-.877.257-1.632.469-1.676.48-.111.022-.478-.078-.478-.123 0-.022.267-.368.589-.747 1.598-1.918 3.186-4.059 4.507-6.088.366-.558.677-1.015.677-1.026zm-1.954.056c.011.01-.777 1.282-2.153 3.467-.589.926-1.244 1.974-1.477 2.342-.222.357-.555.915-.744 1.227l-.322.569-.166-.045c-.4-.112-3.208-1.104-3.952-1.405-.921-.368-1.876-.814-2.587-1.193-.887-.48-1.998-1.194-1.909-1.216.022-.01 1.543-.424 3.375-.925 4.862-1.327 7.56-2.097 9.325-2.654.321-.1.599-.178.61-.167zm13.82 3.256h.011c.045.111-1.753 5.129-2.409 6.712-.144.357-.199.446-.277.435-.189-.01-2.797-.379-4.385-.613-2.764-.424-7.404-1.238-8.57-1.505l-.266-.056 1.654-.38c3.552-.802 5.262-1.237 6.993-1.772 2.187-.67 4.352-1.506 6.539-2.531.344-.157.633-.28.71-.29z"/>
    <path fill="url(#prefix__paint1_linear)" d="M75.018 0c-.245-.033-4.185 1.395-6.727 2.431-3.43 1.406-6.095 2.744-7.737 3.903-.611.435-1.377 1.204-1.499 1.505-.044.112-.067.246-.067.38l1.488 1.416 3.54 1.137 8.426 1.517 9.636 1.661.1-.836c-.034 0-.056-.011-.089-.011l-1.266-.201-.255-.457c-1.31-2.32-2.753-5.196-3.596-7.137-.655-1.505-1.277-3.244-1.621-4.493-.189-.759-.211-.803-.333-.814zm-.178.57h.011c.011.01.056.323.1.69.189 1.562.533 3.067 1.077 4.695.41 1.227.41 1.16-.067 1.015-1.132-.312-6.205-1.193-9.88-1.706-.588-.078-1.087-.156-1.087-.167-.045-.045 2.653-1.461 3.84-2.019C70.356 2.376 74.53.625 74.84.57zM64.139 5.564l.433.145c2.353.803 8.27 1.94 11.534 2.208.366.033.677.067.688.067.01.01-.3.178-.7.367-1.576.792-3.308 1.762-4.506 2.51-.356.222-.678.4-.722.4-.044 0-.277-.044-.522-.077l-.444-.067-1.11-1.093c-1.953-1.907-3.485-3.379-4.074-3.936l-.577-.524zm-.444.345l1.565 1.963c.855 1.082 1.72 2.14 1.91 2.375.188.234.344.424.333.435-.045.033-2.265-.402-3.442-.669-1.21-.279-1.71-.413-2.453-.647l-.61-.2V9.01c.01-.747.954-1.862 2.553-3l.144-.1zm13.299 2.677c.044 0 .1.1.233.401.377.836 1.554 3.089 1.842 3.524.09.145.245.156-1.32-.1-3.763-.614-4.974-.815-4.974-.837 0-.011.111-.09.256-.167 1.165-.647 2.342-1.472 3.385-2.353.256-.212.489-.413.533-.446.011-.022.034-.034.045-.022z"/>
    <path fill="url(#prefix__paint2_radial)" d="M59.131 7.684s-.244.39-.01.97c.144.357.566.791 1.043 1.238 0 0 4.94 4.839 5.54 5.53 2.73 3.167 3.918 6.29 4.029 10.593.066 2.766-.456 5.196-1.754 8.017-2.31 5.063-7.183 10.65-14.698 16.85l1.1-.369c.71-.535 1.676-1.104 3.94-2.353 5.228-2.877 11.112-5.52 18.327-8.24 10.39-3.925 27.475-8.52 37.199-10.013l1.01-.156-.155-.246c-.888-1.383-1.499-2.241-2.232-3.155-2.131-2.654-4.717-4.806-7.881-6.59-4.352-2.442-9.98-4.349-17.106-5.765-1.344-.268-4.296-.78-6.694-1.149-5.084-.791-8.37-1.338-11.989-1.962-1.299-.223-3.241-.558-4.529-.836-.666-.145-1.943-.446-2.942-.792-.799-.312-1.953-.625-2.198-1.572zm2.864 2.787c.012-.01.19.056.422.134.422.145.966.312 1.61.49.487.135.976.265 1.465.391.666.167 1.221.323 1.232.323.078.078 1.2 3.68 1.577 5.063.144.524.255.97.244.97-.011.011-.133-.179-.278-.435-1.298-2.297-3.352-4.628-5.728-6.501-.31-.223-.544-.424-.544-.435zm5.462 1.517c.056 0 .3.033.6.1 1.886.424 5.272 1.07 7.437 1.439.366.055.655.122.655.145 0 .022-.133.1-.3.19-.366.189-1.843 1.07-2.33 1.404-1.233.825-2.343 1.717-3.143 2.52-.321.323-.599.591-.599.591s-.066-.19-.122-.424c-.4-1.55-1.232-3.847-1.987-5.463-.122-.257-.222-.491-.222-.513 0 .022 0 .01.011.01zm9.613 1.84c.067.022.178.401.4 1.237.41 1.617.6 3.424.533 5.107-.023.469-.045.903-.067.96l-.033.11-.578-.189c-1.187-.379-3.119-.948-4.773-1.416-.943-.256-1.71-.49-1.71-.513 0-.067 1.377-1.45 1.966-1.973 1.12-.993 4.162-3.357 4.262-3.323zm.766.111c.034-.033 4.596.758 6.672 1.16 1.543.3 3.785.77 3.918.825.067.022-.166.156-.91.49-2.93 1.327-5.107 2.52-7.27 3.97-.567.38-1.044.691-1.055.691-.011 0-.023-.323-.023-.713 0-2.119-.422-4.26-1.199-6.066-.077-.178-.144-.346-.133-.357zm11.8 2.342c.034.033-.11.937-.244 1.472-.4 1.661-1.476 4.125-2.797 6.445-.233.412-.444.747-.467.758-.022.011-.322-.156-.666-.357-1.287-.758-2.752-1.472-4.351-2.14-.444-.19-.833-.347-.844-.369-.078-.067 3.497-2.442 5.384-3.58 1.499-.913 3.94-2.274 3.985-2.23zm.844.134c.1 0 2.12.557 3.174.87 2.61.78 5.606 1.884 7.56 2.776l.81.368-.566.134c-4.773 1.103-8.858 2.375-12.799 3.98-.322.134-.61.246-.632.246-.023 0 .088-.257.233-.57 1.188-2.53 1.953-5.173 2.142-7.425.011-.212.044-.38.078-.38zm-20.115 4.638c.034-.033 1.577.335 2.41.569 1.265.357 3.951 1.26 3.951 1.327 0 .01-.3.267-.655.58-1.454 1.215-2.853 2.497-4.529 4.125-.5.48-.921.87-.943.87-.023 0-.034-.067-.023-.156.256-1.873.2-4.282-.155-6.724-.033-.312-.067-.58-.056-.59zm32.426.034c.022.022-.711 1.182-1.177 1.84-.666.958-1.643 2.23-3.852 5.017-1.165 1.472-2.476 3.134-2.908 3.691-.445.558-.81 1.026-.822 1.026-.011 0-.155-.2-.31-.446-1.244-1.873-2.732-3.513-4.497-4.984-.333-.28-.699-.58-.82-.67-.123-.089-.223-.178-.223-.189 0-.033 1.887-.848 3.32-1.427 2.508-1.026 5.927-2.253 8.491-3.044 1.343-.424 2.775-.837 2.798-.814zm.854.223c.045-.011.311.122.633.312 2.698 1.55 5.339 3.546 7.427 5.598.588.58 2.042 2.096 2.02 2.107 0 0-.511.044-1.11.089-4.674.357-10.657 1.35-16.407 2.743-.389.09-.733.167-.755.167-.022 0 .41-.435.955-.959 3.374-3.267 4.918-5.33 6.738-9.01.255-.546.477-1.014.499-1.047-.011 0-.011 0 0 0zm-24.721 2.542c.155.033 1.599.714 2.686 1.26 1 .502 2.498 1.305 2.576 1.371.01.011-.522.29-1.177.614-2.087 1.048-3.874 2.04-5.739 3.178-.533.323-.977.59-.988.59-.044 0-.033-.044.267-.59.999-1.829 1.798-4.014 2.253-6.144.044-.168.089-.279.122-.279zm-1.443.268c.033.033-.344 1.404-.577 2.152-.456 1.416-1.221 3.189-1.965 4.527-.178.312-.444.77-.588 1.026l-.278.445-.622-.602c-.721-.702-1.31-1.137-2.064-1.527-.3-.156-.533-.29-.533-.312 0-.09 1.898-1.818 3.352-3.067 1.044-.903 3.242-2.676 3.275-2.642zm8.825 3.646l.544.357c1.243.814 2.708 1.895 3.83 2.843.632.524 1.853 1.628 2.098 1.896l.133.145-.9.256c-5.083 1.416-9.013 2.676-13.598 4.371-.51.19-.943.346-.977.346-.066 0-.122.055 1.022-1.004 2.93-2.71 5.528-5.698 7.46-8.608l.388-.602zm-2.32.58c.022.022-1.499 2.174-2.409 3.39-1.088 1.449-3.02 3.88-4.351 5.463-.555.658-1.033 1.204-1.055 1.216-.033.01-.044-.157-.044-.413 0-1.35-.344-2.788-.944-4.014-.255-.513-.3-.636-.244-.691.21-.19 3.441-2.041 5.484-3.145 1.376-.736 3.53-1.829 3.563-1.806zm-14.031 3.456c.033 0 .288.134.577.29.71.39 1.343.825 1.91 1.294.021.022-.267.256-.645.535-1.054.758-2.653 1.974-3.585 2.72-.977.781-1.01.803-.9.636.734-1.126 1.1-1.761 1.488-2.575.344-.725.688-1.584.933-2.33.088-.324.2-.57.222-.57zm3.74 2.944c.056-.011.123.09.422.535.633.948 1.122 2.22 1.244 3.245l.022.223-1.52.591c-2.72 1.06-5.23 2.108-6.928 2.888-.477.223-1.31.624-1.853.892-.544.279-.988.49-.988.48 0-.011.344-.268.765-.58 3.32-2.42 6.195-5.074 8.348-7.728.233-.278.444-.535.466-.546h.023zm-1.72.424c.044.044-1.22 1.483-2.087 2.364-2.142 2.196-4.263 3.914-6.894 5.586l-.666.424c-.077.045.023-.067 1.177-1.327.733-.792 1.288-1.46 1.92-2.286.422-.546.5-.624 1.11-1.06 1.633-1.181 5.396-3.746 5.44-3.701z"/>
    <path fill="#231F1F" d="M23.908 81.34c-.205 0-.41.02-.613.02-4.136.22-6.926 2.05-8.557 5.62-1.395 3.23-1.242 7.45.016 10.7 1.463 3.174 3.828 4.85 7.774 5.483.835.137 1.395.597 3.013 2.494l1.99 2.342h3.609l-2.4-2.43c-1.327-1.332-2.4-2.493-2.4-2.595 0-.102.508-.325 1.122-.513 2.025-.616 3.707-2.187 4.883-4.596.952-1.934 1.089-2.531 1.226-4.938.357-7.162-3.403-11.64-9.663-11.59v.003zm3.164 18.73c-1.756.855-4.305 1.025-5.97.412-1.72-.635-3.386-2.43-4.136-4.462-.833-2.222-.714-6.322.238-8.168 1.532-2.94 3.557-4.292 6.516-4.292 4.39 0 6.887 2.7 7.213 7.776.258 4.237-1.155 7.416-3.86 8.733l-.001.001zm62.347-12.612c-1.513 0-2.672.615-3.453 1.828l-.612.96V87.75h-2.62v14.972h2.618v-4.786c0-4.376.054-4.887.663-6.085.839-1.642 2.282-2.46 3.678-2.069l.936.275v-2.595h-1.21v-.004zm-15.392-.137c-.514 0-1.058.068-1.6.188-3.506.92-5.482 4.291-5.361 7.76 0 2.904.561 4.356 1.957 5.879 2.858 2.356 5.443 2.544 8.93 1.28.596-.255 1.244-.549 1.244-.549v-2.355l-1.243.646c-2.823 1.235-4.95 1.235-6.653-.22-1.086-1.11-1.564-2.443-1.785-3.963H80.08v-2.02c0-4.114-2.466-6.713-6.055-6.646h.002zm-4.273 6.565s.39-2.567 1.838-3.575c.697-.494 1.496-.733 2.279-.733.784 0 1.566.255 2.212.75 1.327 1.026 1.55 3.538 1.55 3.538h-7.879v.02zm-63.165-2.7c-2.84-1.73-4.1-2.976-3.946-4.445.44-4.067 5.443-3.504 8.213-1.966l.02-2.735s-1.532-.667-3.727-.702c-3.367-.051-5.544 1.058-6.564 3.316-1.499 3.331-.172 5.843 4.623 8.646 2.693 1.573 3.883 2.94 3.883 4.429 0 3.076-3.694 4.15-7.504 2.22-.784-.392-1.447-.72-1.482-.72-.137.873-.066 2.96-.066 2.96s1.17.494 2.926.834c4.354.872 8.317-1.179 8.691-4.51.326-3.128-.8-4.769-5.067-7.33v.002zm106.019-3.9c-.511 0-1.054.07-1.619.19-3.502.92-5.475 4.291-5.34 7.76 0 2.9.56 4.339 1.955 5.859 2.858 2.358 5.443 2.548 8.949 1.282.593-.255 1.239-.544 1.239-.544v-2.36l-1.241.65c-2.829 1.231-4.956 1.231-6.653-.223-1.092-1.109-1.566-2.426-1.787-3.964h10.547v-2.019c0-4.095-2.466-6.696-6.056-6.627l.006-.005zm-4.273 6.564s.395-2.563 1.84-3.59c.695-.496 1.494-.735 2.277-.735.78 0 1.566.255 2.212.753 1.327 1.025 1.549 3.555 1.549 3.555h-7.875l-.003.017zM60.312 91.22c-2.84-1.725-4.097-2.975-3.945-4.445.44-4.069 5.443-3.504 8.213-1.966l.02-2.735s-1.532-.667-3.726-.698c-3.368-.05-5.545 1.058-6.567 3.316-1.496 3.331-.152 5.843 4.627 8.646 2.689 1.572 3.879 2.92 3.879 4.41 0 3.076-3.691 4.168-7.501 2.22-.78-.392-1.444-.716-1.483-.716-.137.872-.066 2.959-.066 2.959s1.157.477 2.907.835c4.358.874 8.322-1.176 8.695-4.507.324-3.112-.8-4.752-5.053-7.316v-.003zm67.691-3.796c-1.514 0-2.687.617-3.453 1.83l-.613.956v-2.492h-2.62v14.968h2.618v-4.786c0-4.374.052-4.887.663-6.083.839-1.64 2.283-2.46 3.678-2.067l.936.274v-2.6h-1.209zm-88.527 3.71v-9.537h-2.641v21.122h11.108v-2.495h-8.467v-9.09zm61.087 2.972l-2.177 5.691-2.094-5.722-2.126-6.342h-2.704c1.752 4.99 3.658 10.065 5.58 14.986.833.019 1.668 0 2.5 0l2.941-7.416 2.994-7.568h-2.585s-1.141 3.006-2.331 6.373l.002-.002zm-55-18.264c.425 0 .78-.137 1.073-.431.288-.29.44-.631.44-1.058 0-.428-.152-.784-.44-1.059-.293-.274-.63-.411-1.054-.411-.429 0-.784.137-1.073.427-.292.29-.425.647-.425 1.058 0 .431.137.788.425 1.059.273.274.629.411 1.054.411v.004zm-.937-2.43c.254-.255.562-.373.956-.373.371 0 .68.118.937.373.254.255.39.564.39.94 0 .377-.136.702-.39.957-.258.254-.566.376-.937.376-.376 0-.682-.117-.936-.376-.254-.255-.39-.58-.39-.956 0-.377.117-.686.37-.941zm.63 1.078h.172c.121 0 .24.117.342.34l.205.463h.321l-.253-.513c-.103-.206-.205-.326-.324-.36.15-.034.27-.085.355-.187.086-.088.117-.208.117-.343 0-.157-.049-.274-.152-.36-.117-.099-.305-.151-.547-.151h-.542v1.914h.273v-.803h.034zm0-.89h.239c.171 0 .292.035.359.086.064.051.081.118.081.24 0 .22-.136.325-.39.325h-.292v-.65h.004zm-43.634.72c0-.667-.02-1.163-.035-1.455h.016c.068.345.152.602.22.772l2.536 5.691h.426l2.536-5.742c.068-.156.136-.392.22-.719h.02c-.05.569-.068 1.062-.068 1.456v5.023h.868v-7.466H7.272l-2.331 5.193c-.086.205-.205.513-.357.92h-.036c-.05-.201-.17-.509-.339-.885L1.93 71.86H.773v7.466h.835v-5.005l.014-.004zm8.64.013h.75v4.65h-.75v-4.65zm.375-1.705c.157 0 .29-.053.39-.157.104-.102.172-.235.172-.391 0-.153-.05-.29-.17-.392-.105-.104-.24-.157-.393-.157-.152 0-.29.053-.39.156-.104.102-.172.24-.172.392 0 .171.052.29.171.392.118.104.238.157.39.157h.002zm5.717 6.457v-.819c-.41.308-.85.46-1.307.46-.546 0-.99-.187-1.313-.548-.322-.357-.494-.853-.494-1.47 0-.646.172-1.16.527-1.552.341-.376.784-.564 1.327-.564.442 0 .867.137 1.26.412v-.873c-.357-.188-.765-.274-1.225-.274-.851 0-1.514.274-2.01.804-.492.529-.745 1.248-.745 2.116 0 .772.22 1.42.679 1.917.478.51 1.089.768 1.838.768.579-.016 1.053-.138 1.463-.377zm2.144-2.479c0-.613.136-1.109.39-1.45.238-.308.527-.462.868-.462.289 0 .494.053.644.172v-.89c-.117-.05-.287-.068-.507-.068-.307 0-.58.103-.82.294-.253.201-.456.51-.575.901h-.02V74.01h-.848v5.33h.85v-2.735h.018zm4.883 2.842c.8 0 1.444-.259 1.921-.772.476-.51.715-1.196.715-2.05 0-.872-.219-1.539-.664-2.035-.44-.495-1.053-.734-1.853-.734s-1.444.239-1.922.701c-.511.51-.78 1.23-.78 2.152 0 .804.218 1.47.679 1.966.476.513 1.106.77 1.904.77v.002zm-1.21-4.343c.324-.343.75-.513 1.276-.513.547 0 .956.17 1.26.513.307.359.46.87.46 1.554 0 .65-.138 1.162-.426 1.505-.289.359-.714.549-1.276.549-.546 0-.97-.19-1.294-.549-.322-.36-.476-.854-.476-1.505-.033-.647.137-1.176.476-1.554zm7.57 3.878c.324-.29.496-.646.496-1.093 0-.392-.137-.718-.39-.974-.208-.206-.527-.392-.99-.58-.41-.172-.663-.326-.8-.445-.136-.137-.22-.308-.22-.549 0-.221.086-.392.254-.529.171-.137.39-.203.682-.203.459 0 .85.12 1.21.378v-.855c-.343-.172-.716-.254-1.142-.254-.546 0-1.006.15-1.346.442-.357.29-.526.667-.526 1.11 0 .391.117.717.339.956.187.204.507.412.952.598.425.188.714.358.868.495.152.138.22.308.22.51 0 .498-.339.754-1.002.754-.511 0-.97-.168-1.38-.51v.922c.371.223.816.325 1.308.325.63-.033 1.123-.188 1.463-.496l.004-.002zm4.05-5.126c-.8 0-1.444.239-1.922.701-.507.51-.78 1.23-.78 2.152 0 .804.22 1.47.679 1.966.478.513 1.106.77 1.906.77.82 0 1.444-.259 1.922-.772.478-.51.716-1.196.716-2.05 0-.872-.223-1.538-.664-2.034-.46-.496-1.073-.735-1.853-.735l-.004.002zm1.65 2.802c0 .65-.136 1.162-.425 1.505-.289.359-.714.549-1.276.549-.546 0-.97-.19-1.293-.549-.322-.36-.476-.854-.476-1.505 0-.686.17-1.215.51-1.572.323-.34.748-.513 1.277-.513.526 0 .95.172 1.256.513.273.377.425.888.425 1.572h.002zm2.299 2.667h.848V74.71h1.243v-.717h-1.243v-.823c0-.749.289-1.125.886-1.125.201 0 .406.051.558.137v-.77c-.152-.068-.357-.084-.613-.084-.458 0-.833.137-1.14.427-.356.341-.545.784-.545 1.384v.874h-.898v.717h.898v4.598l.006-.003zm3.486-1.454c0 1.043.459 1.574 1.395 1.574.34 0 .595-.055.8-.176v-.733c-.156.117-.342.172-.546.172-.289 0-.492-.069-.611-.223-.121-.153-.19-.412-.19-.769v-3.008h1.347v-.717h-1.346v-1.572c-.293.102-.58.189-.851.275v1.297h-.917v.717h.917v3.161l.002.002zm91.303 9.826c-.289-.274-.63-.412-1.054-.412-.429 0-.784.138-1.073.432-.288.288-.425.646-.425 1.058 0 .427.137.784.423 1.058.289.274.644.412 1.073.412.423 0 .781-.138 1.073-.428.287-.294.439-.633.439-1.058-.015-.43-.17-.788-.458-1.062h.002zm-.137 2.019c-.253.254-.562.372-.936.372-.371 0-.679-.118-.937-.372-.253-.26-.39-.582-.39-.96 0-.373.117-.683.375-.941.253-.255.56-.373.952-.373.371 0 .679.118.936.373.254.258.39.568.39.94 0 .396-.117.702-.39.96zm-.765-.873c.153-.035.274-.103.357-.188.086-.088.118-.208.118-.344 0-.153-.049-.275-.152-.36-.117-.097-.307-.15-.547-.15h-.542v1.912h.273v-.803h.17c.117 0 .234.118.339.34l.203.462h.324l-.253-.514c-.088-.223-.19-.325-.293-.359l.003.004zm-.187-.172h-.292v-.647h.24c.169 0 .288.032.357.085.068.05.083.117.083.239 0 .221-.136.323-.39.323h.002zm-47.464-14.9h.239v-1.914h.63v-.24h-1.499v.24h.63v1.915zm1.444-1.438c0-.186 0-.339-.014-.425.016.102.051.17.067.221l.731 1.643h.118l.733-1.658c.02-.051.035-.118.068-.206-.015.17-.015.307-.015.412v1.45h.253v-2.152h-.306l-.663 1.485c-.016.053-.069.157-.102.275h-.02c-.013-.069-.048-.138-.097-.255l-.663-1.505h-.343v2.156h.24v-1.439l.013-.002z"/>
    <defs>
        <linearGradient id="prefix__paint0_linear" x1="58.904" x2="64.227" y1="66.379" y2="63.248" gradientUnits="userSpaceOnUse">
            <stop stop-color="#909CA9"/>
            <stop offset="1" stop-color="#EDEDEE"/>
        </linearGradient>
        <linearGradient id="prefix__paint1_linear" x1="59.027" x2="63.3" y1="6.954" y2="6.954" gradientUnits="userSpaceOnUse">
            <stop stop-color="#939FAB"/>
            <stop offset="1" stop-color="#DCDEE1"/>
        </linearGradient>
        <radialGradient id="prefix__paint2_radial" cx="0" cy="0" r="1" gradientTransform="rotate(-171.42 41.293 10.297) scale(5.50964 11.0693)" gradientUnits="userSpaceOnUse">
            <stop stop-color="#EE352C"/>
            <stop offset="1" stop-color="#A91D22"/>
        </radialGradient>
    </defs>
</svg>
