<svg xmlns="http://www.w3.org/2000/svg" width="48" height="48" fill="none" viewBox="0 0 48 48">
    <path fill="#333" fill-rule="evenodd" d="M8 13h38c1.1 0 2 .9 2 2v31c0 1.1-.9 2-2 2H8c-1.1 0-2-.9-2-2V15c0-1.1.9-2 2-2zm0 33h38V15H8v31z" clip-rule="evenodd"/>
    <path fill="#333" fill-rule="evenodd" d="M14.5 15H8v5h38v-5h-1.5c.8 0 1.5.7 1.5 1.5s-.7 1.5-1.5 1.5h-11c-.8 0-1.5-.7-1.5-1.5s.7-1.5 1.5-1.5h-19zm0 0c.828 0 1.5.672 1.5 1.5s-.672 1.5-1.5 1.5-1.5-.672-1.5-1.5.672-1.5 1.5-1.5zm5 0c.828 0 1.5.672 1.5 1.5s-.672 1.5-1.5 1.5-1.5-.672-1.5-1.5.672-1.5 1.5-1.5zM8 16.5c0 .828.672 1.5 1.5 1.5s1.5-.672 1.5-1.5-.672-1.5-1.5-1.5-1.5.672-1.5 1.5z" clip-rule="evenodd"/>
    <path fill="#333" fill-rule="evenodd" d="M40 0H2C.9 0 0 .9 0 2v31c0 1.1.9 2 2 2h2v-2H2V2h38v9h2V2c0-1.1-.9-2-2-2z" clip-rule="evenodd"/>
    <path fill="#333" fill-rule="evenodd" d="M8.5 2H2v5h38V2h-1.5c.8 0 1.5.7 1.5 1.5S39.3 5 38.5 5h-11c-.8 0-1.5-.7-1.5-1.5S26.7 2 27.5 2h-19zm0 0c.828 0 1.5.672 1.5 1.5S9.328 5 8.5 5 7 4.328 7 3.5 7.672 2 8.5 2zm5 0c.828 0 1.5.672 1.5 1.5S14.328 5 13.5 5 12 4.328 12 3.5 12.672 2 13.5 2zM2 3.5C2 4.328 2.672 5 3.5 5S5 4.328 5 3.5 4.328 2 3.5 2 2 2.672 2 3.5z" clip-rule="evenodd"/>
    <path fill="#2083D2" fill-rule="evenodd" d="M35 36v3h-4.8v-2L26 40l4.2 3v-2H37v-5h-2zM28.2 26L24 23v2h-7v5h2v-3h5v2l4.2-3z" clip-rule="evenodd"/>
    <path fill="#2083D2" d="M18 36.286c-.97 0-1.762.771-1.762 1.714s.793 1.714 1.762 1.714c.97 0 1.762-.771 1.762-1.714S18.97 36.286 18 36.286zM22.627 38c0 .197-.018.394-.044.583l1.304.994c.114.094.15.257.07.386l-1.233 2.074c-.08.129-.239.18-.38.129l-1.533-.6c-.317.24-.67.437-1.04.591l-.229 1.586c-.026.146-.158.257-.308.257h-2.468c-.15 0-.282-.111-.308-.249l-.23-1.585c-.378-.155-.722-.352-1.04-.592l-1.533.6c-.14.052-.3 0-.378-.128l-1.234-2.075c-.08-.128-.044-.291.07-.385l1.305-.995c-.027-.197-.044-.394-.044-.591 0-.197.017-.394.043-.583l-1.304-.994c-.114-.094-.15-.257-.07-.386l1.234-2.074c.079-.129.238-.18.379-.129l1.533.6c.317-.24.67-.437 1.04-.591l.229-1.586c.026-.146.158-.257.308-.257h2.468c.15 0 .282.111.308.249l.23 1.585c.378.155.722.352 1.04.592l1.532-.6c.141-.052.3 0 .38.128l1.233 2.075c.08.128.044.291-.07.385l-1.305.995c.027.197.044.394.044.591zM36 26.286c-.97 0-1.763.771-1.763 1.714s.794 1.714 1.763 1.714c.97 0 1.763-.771 1.763-1.714s-.794-1.714-1.763-1.714zM40.627 28c0 .197-.018.394-.044.583l1.304.994c.114.094.15.257.07.386l-1.233 2.074c-.08.129-.238.18-.38.129l-1.533-.6c-.317.24-.67.437-1.04.591l-.229 1.586c-.026.146-.158.257-.308.257h-2.468c-.15 0-.282-.111-.308-.249l-.23-1.585c-.378-.155-.722-.352-1.04-.592l-1.533.6c-.14.052-.3 0-.379-.128l-1.233-2.075c-.08-.128-.044-.291.07-.385l1.305-.995c-.027-.197-.044-.394-.044-.591 0-.197.017-.394.044-.583l-1.305-.994c-.114-.094-.15-.257-.07-.386l1.233-2.074c.08-.129.239-.18.38-.129l1.533.6c.317-.24.67-.437 1.04-.591l.229-1.586c.026-.146.158-.257.308-.257h2.468c.15 0 .282.111.308.249l.23 1.585c.378.155.722.352 1.04.592l1.532-.6c.142-.052.3 0 .38.128l1.233 2.075c.08.128.044.291-.07.385l-1.304.995c.026.197.044.394.044.591z"/>
</svg>
