<svg width="48" height="48" viewBox="0 0 48 48" fill="none" xmlns="http://www.w3.org/2000/svg">
<path fill-rule="evenodd" clip-rule="evenodd" d="M2 0H46C47.1 0 48 0.9 48 2V39C48 40.1 47.1 41 46 41H45V39H46V2H2V39H23V41H2C0.9 41 0 40.1 0 39V2C0 0.9 0.9 0 2 0Z" fill="#333333"/>
<path d="M46 9H2V11H46V9Z" fill="#333333"/>
<path d="M6.5 7C7.32843 7 8 6.32843 8 5.5C8 4.67157 7.32843 4 6.5 4C5.67157 4 5 4.67157 5 5.5C5 6.32843 5.67157 7 6.5 7Z" fill="#333333"/>
<path d="M11.5 7C12.3284 7 13 6.32843 13 5.5C13 4.67157 12.3284 4 11.5 4C10.6716 4 10 4.67157 10 5.5C10 6.32843 10.6716 7 11.5 7Z" fill="#333333"/>
<path d="M16.5 7C17.3284 7 18 6.32843 18 5.5C18 4.67157 17.3284 4 16.5 4C15.6716 4 15 4.67157 15 5.5C15 6.32843 15.6716 7 16.5 7Z" fill="#333333"/>
<path d="M41.5 7H30.5C29.7 7 29 6.3 29 5.5C29 4.7 29.7 4 30.5 4H41.5C42.3 4 43 4.7 43 5.5C43 6.3 42.3 7 41.5 7Z" fill="#333333"/>
<path d="M41.5 36.3077C40.9 36.3077 40.375 36.6731 40.15 37.1115C40.075 37.1115 40 37.0385 40 37.0385C40 36.2346 39.325 35.5769 38.5 35.5769C37.675 35.5769 37 36.2346 37 37.0385V36.3077C37 35.5038 36.325 34.8462 35.5 34.8462C34.675 34.8462 34 35.5038 34 36.3077V32.6538V30.4615C34 29.6577 33.325 29 32.5 29C31.675 29 31 29.6577 31 30.4615V32.6538V41.7885C29.575 41.0577 28.75 40.8385 28 40.6923C27.775 40.6923 27.475 40.6923 27.25 40.6923C26.125 40.6923 25 41.1308 25 42.5192L28 43.8346L28.375 43.9808L30.775 46.3192C31.9 47.4154 33.4 48 35.05 48H40C41.65 48 43 46.6846 43 45.0769V37.7692C43 36.9654 42.325 36.3077 41.5 36.3077Z" fill="#2083D2"/>
<path d="M15 14H8C6.34 14 5 15.34 5 17V25C5 26.66 6.34 28 8 28L7 29V30H8L10 27.97L12 28V23H7V15.98L16 16V18H18V17C18 15.34 16.66 14 15 14ZM8 24C8.55 24 9 24.45 9 25C9 25.55 8.55 26 8 26C7.45 26 7 25.55 7 25C7 24.45 7.45 24 8 24ZM23.57 19.66C23.43 19.26 23.05 19 22.6 19H15.41C14.95 19 14.58 19.26 14.43 19.66L13 23.77L13.01 29.28C13.01 29.66 13.32 30 13.7 30H14.32C14.7 30 15 29.62 15 29.24V28H23V29.24C23 29.62 23.31 30 23.69 30H24.3C24.68 30 24.99 29.66 24.99 29.28L25 27.91V23.77L23.57 19.66V19.66ZM15.41 20H22.6L23.63 23H14.38L15.41 20V20ZM15 26C14.45 26 14 25.55 14 25C14 24.45 14.45 24 15 24C15.55 24 16 24.45 16 25C16 25.55 15.55 26 15 26ZM23 26C22.45 26 22 25.55 22 25C22 24.45 22.45 24 23 24C23.55 24 24 24.45 24 25C24 25.55 23.55 26 23 26Z" fill="#2083D2"/>
<rect x="28" y="15" width="15" height="2" rx="1" fill="#2083D2"/>
<rect x="28" y="19" width="15" height="2" rx="1" fill="#2083D2"/>
</svg>
