<svg xmlns="http://www.w3.org/2000/svg" width="47" height="47" fill="none" viewBox="0 0 47 47">
    <path fill="#fff" fill-rule="evenodd" d="M12 2h8c.552 0 1 .448 1 1v1h2V3c0-1.657-1.343-3-3-3h-8c-1.657 0-3 1.343-3 3v1h2V3c0-.552.448-1 1-1zm-1 4H9v5H6c-3.314 0-6 2.686-6 6v21c0 2.617 1.675 4.842 4.011 5.663.046-.694.234-1.348.534-1.936C3.055 41.145 2 39.696 2 38V17c0-2.21 1.79-4 4-4h20c2.21 0 4 1.79 4 4v21c0 1.696-1.055 3.145-2.545 3.727.3.588.488 1.242.534 1.936C30.325 42.842 32 40.617 32 38V17c0-3.314-2.686-6-6-6h-3V6h-2v5H11V6zm12 41c-1.657 0-3-1.343-3-3 0-.768.289-1.47.764-2 .55-.614 1.348-1 2.236-1 .889 0 1.687.386 2.236 1 .475.53.764 1.232.764 2 0 1.657-1.343 3-3 3zm-5-3c0-.711.148-1.388.416-2h-4.832c.268.612.416 1.289.416 2h4zm-6.764-2c-.55-.614-1.348-1-2.236-1-.889 0-1.687.386-2.236 1-.475.53-.764 1.232-.764 2 0 1.657 1.343 3 3 3s3-1.343 3-3c0-.768-.289-1.47-.764-2z" clip-rule="evenodd"/>
    <rect width="18" height="2" x="7" y="19" fill="#8CC440" rx="1"/>
    <rect width="18" height="2" x="7" y="31" fill="#8CC440" rx="1"/>
    <rect width="18" height="2" x="7" y="25" fill="#8CC440" rx="1"/>
    <rect width="3" height="13" x="40" y="26" fill="#8CC440" rx="1.5"/>
    <path fill="#fff" fill-rule="evenodd" d="M35 5h3v14c-.768 0-1.47.289-2 .764V7h-1V5zm9 18h-5c-.552 0-1 .448-1 1v17c0 .552.448 1 1 1h5c.552 0 1-.448 1-1V24c0-.552-.448-1-1-1zm-8 18c0 1.306.835 2.417 2 2.83V47h2v-3h3v3h2v-3.17c1.165-.413 2-1.524 2-2.83V24c0-1.657-1.343-3-3-3h-5c-1.657 0-3 1.343-3 3v17z" clip-rule="evenodd"/>
</svg>
