<svg xmlns="http://www.w3.org/2000/svg" width="48" height="48" fill="none" viewBox="0 0 48 48">
    <path fill="#37474F" fill-rule="evenodd" d="M2 0h44c1.1 0 2 .9 2 2v36c0 1.1-.9 2-2 2H34v-2h12V2H2v36h12v2H2c-1.1 0-2-.9-2-2V2C0 .9.9 0 2 0z" clip-rule="evenodd"/>
    <path fill="#37474F" d="M46 9H2v2h44V9zM6.5 7C7.328 7 8 6.328 8 5.5S7.328 4 6.5 4 5 4.672 5 5.5 5.672 7 6.5 7zM11.5 7c.828 0 1.5-.672 1.5-1.5S12.328 4 11.5 4 10 4.672 10 5.5 10.672 7 11.5 7zM16.5 7c.828 0 1.5-.672 1.5-1.5S17.328 4 16.5 4 15 4.672 15 5.5 15.672 7 16.5 7zM41.5 7h-11c-.8 0-1.5-.7-1.5-1.5S29.7 4 30.5 4h11c.8 0 1.5.7 1.5 1.5S42.3 7 41.5 7z"/>
    <path fill="#2083D2" fill-rule="evenodd" d="M26 37c0 1.105-.895 2-2 2s-2-.895-2-2 .895-2 2-2 2 .895 2 2zm1.45 2.025c.35-.594.55-1.286.55-2.025 0-2.21-1.79-4-4-4s-4 1.79-4 4c0 .739.2 1.431.55 2.025C18.553 39.25 17 40.943 17 43v5h14v-5c0-2.057-1.553-3.751-3.55-3.975zM24 41h-3c-1.105 0-2 .895-2 2v3h10v-3c0-1.105-.895-2-2-2h-3z" clip-rule="evenodd"/>
    <path fill="#2083D2" d="M6 15H22V23H6zM6 25H22V27H6zM26 15H42V17H26zM26 19H42V21H26z"/>
    <path fill="#2083D2" fill-rule="evenodd" d="M31 24l2 8 1.529-3.057 3.043 3.043 1.414-1.414-3.043-3.043L39 26l-8-2z" clip-rule="evenodd"/>
</svg>
