<svg xmlns="http://www.w3.org/2000/svg" width="40" height="47" fill="none" viewBox="0 0 40 47">
    <path fill="#fff" fill-rule="evenodd" d="M12 2h13c1.105 0 2 .895 2 2v1H10V4c0-1.105.895-2 2-2zm19 3h-2V4c0-2.21-1.79-4-4-4H12C9.79 0 8 1.79 8 4v1H6c-3.314 0-6 2.686-6 6v25c0 3.314 2.686 6 6 6h2v1c0 2.21 1.79 4 4 4h13c2.21 0 4-1.79 4-4v-1h2c3.314 0 6-2.686 6-6v-3h2c.552 0 1-.448 1-1v-5c0-.552-.448-1-1-1h-2v-3h2c.552 0 1-.448 1-1v-6c0-.552-.448-1-1-1h-2v-4c0-3.314-2.686-6-6-6zM10 43v-1h17v1c0 1.105-.895 2-2 2H12c-1.105 0-2-.895-2-2zM31 7H6c-2.21 0-4 1.79-4 4v25c0 2.21 1.79 4 4 4h25c2.21 0 4-1.79 4-4V11c0-2.21-1.79-4-4-4zm6 21v3h1v-3h-1zm1-7h-1v-4h1v4zM7 12h23v23H7V12zM5 37V10h27v27H5z" clip-rule="evenodd"/>
    <path fill="#8CC440" fill-rule="evenodd" d="M20.618 20H27c.552 0 1 .448 1 1 0 .553-.448 1-1 1h-6l-1.045 2.09c-.38.759-1.47.731-1.81-.046L15.5 18l-2.7 3.6c-.189.252-.485.4-.8.4h-2c-.552 0-1-.447-1-1 0-.552.448-1 1-1h1.5l3.405-4.54c.474-.631 1.459-.49 1.736.25L19 22l.724-1.447c.169-.339.515-.553.894-.553zM10 27c-.552 0-1 .448-1 1 0 .553.448 1 1 1h11c.552 0 1-.447 1-1 0-.552-.448-1-1-1H10zm14 1c0-.552.448-1 1-1h2c.552 0 1 .448 1 1 0 .553-.448 1-1 1h-2c-.552 0-1-.447-1-1zm-11 3c-.552 0-1 .448-1 1 0 .553.448 1 1 1h8c.552 0 1-.447 1-1 0-.552-.448-1-1-1h-8z" clip-rule="evenodd"/>
</svg>
