<svg xmlns="http://www.w3.org/2000/svg" width="48" height="49" fill="none" viewBox="0 0 48 49">
    <path fill="#333" fill-rule="evenodd" d="M2 0h44c1.1 0 2 .9 2 2v35c0 1.1-.9 2-2 2H32v-2h14V2H2v35h13v2H2c-1.1 0-2-.9-2-2V2C0 .9.9 0 2 0z" clip-rule="evenodd"/>
    <path fill="#2083D2" d="M21 16h-2.81c-.45-.78-1.07-1.45-1.82-1.96L18 12.41 16.59 11l-2.17 2.17c-.46-.11-.93-.17-1.42-.17-.49 0-.96.06-1.41.17L9.41 11 8 12.41l1.62 1.63c-.74.51-1.36 1.18-1.81 1.96H5v2h2.09c-.05.33-.09.66-.09 1v1H5v2h2v1c0 .34.04.67.09 1H5v2h2.81c1.04 1.79 2.97 3 5.19 3s4.15-1.21 5.19-3H21v-2h-2.09c.05-.33.09-.66.09-1v-1h2v-2h-2v-1c0-.34-.04-.67-.09-1H21v-2zm-6 8h-4v-2h4v2zm0-4h-4v-2h4v2z"/>
    <rect width="16" height="2" x="26" y="15" fill="#2083D2" rx="1"/>
    <rect width="16" height="2" x="26" y="19" fill="#2083D2" rx="1"/>
    <rect width="16" height="2" x="26" y="23" fill="#2083D2" rx="1"/>
    <path fill="#2083D2" d="M29.5 42h-.79l-.28-.27c.98-1.14 1.57-2.62 1.57-4.23 0-3.59-2.91-6.5-6.5-6.5S17 33.91 17 37.5s2.91 6.5 6.5 6.5c1.61 0 3.09-.59 4.23-1.57l.27.28v.79l5 4.99L34.49 47l-4.99-5zm-6 0c-2.49 0-4.5-2.01-4.5-4.5s2.01-4.5 4.5-4.5 4.5 2.01 4.5 4.5-2.01 4.5-4.5 4.5z"/>
    <path fill="#333" fill-rule="evenodd" d="M8.5 2H2v5h44V2h-1.5c.8 0 1.5.7 1.5 1.5S45.3 5 44.5 5h-11c-.8 0-1.5-.7-1.5-1.5S32.7 2 33.5 2h-25zm0 0c.828 0 1.5.672 1.5 1.5S9.328 5 8.5 5 7 4.328 7 3.5 7.672 2 8.5 2zm5 0c.828 0 1.5.672 1.5 1.5S14.328 5 13.5 5 12 4.328 12 3.5 12.672 2 13.5 2zM2 3.5C2 4.328 2.672 5 3.5 5S5 4.328 5 3.5 4.328 2 3.5 2 2 2.672 2 3.5z" clip-rule="evenodd"/>
</svg>
