<svg width="48" height="48" viewBox="0 0 48 48" fill="none" xmlns="http://www.w3.org/2000/svg">
<path fill-rule="evenodd" clip-rule="evenodd" d="M2 0H46C47.1 0 48 0.9 48 2V39C48 40.1 47.1 41 46 41H45V39H46V2H2V39H23V41H2C0.9 41 0 40.1 0 39V2C0 0.9 0.9 0 2 0Z" fill="#333333"/>
<path d="M46 9H2V11H46V9Z" fill="#333333"/>
<path d="M6.5 7C7.32843 7 8 6.32843 8 5.5C8 4.67157 7.32843 4 6.5 4C5.67157 4 5 4.67157 5 5.5C5 6.32843 5.67157 7 6.5 7Z" fill="#333333"/>
<path d="M11.5 7C12.3284 7 13 6.32843 13 5.5C13 4.67157 12.3284 4 11.5 4C10.6716 4 10 4.67157 10 5.5C10 6.32843 10.6716 7 11.5 7Z" fill="#333333"/>
<path d="M16.5 7C17.3284 7 18 6.32843 18 5.5C18 4.67157 17.3284 4 16.5 4C15.6716 4 15 4.67157 15 5.5C15 6.32843 15.6716 7 16.5 7Z" fill="#333333"/>
<path d="M41.5 7H30.5C29.7 7 29 6.3 29 5.5C29 4.7 29.7 4 30.5 4H41.5C42.3 4 43 4.7 43 5.5C43 6.3 42.3 7 41.5 7Z" fill="#333333"/>
<path fill-rule="evenodd" clip-rule="evenodd" d="M17.5261 16C14.7963 16 12.4837 17.9229 11.8543 20.5429L11.6407 21.4321L10.736 21.2986C10.5957 21.2779 10.4433 21.2682 10.2752 21.2682C8.48577 21.2682 7 22.7571 7 24.6313C7 26.5179 8.46354 28 10.2411 28H12.51V30H10.2411C7.29598 30 5 27.5584 5 24.6313C5 21.7344 7.27502 19.3382 10.1487 19.2697C11.2348 16.2072 14.1181 14 17.5261 14C21.8741 14 25.3664 17.5864 25.3664 21.9715C25.3664 22.2325 25.3541 22.4908 25.3298 22.7458C26.8797 23.177 28 24.6229 28 26.3046C28 28.3157 26.3962 30 24.3664 30H21.96V28H24.3664C25.2452 28 26 27.2581 26 26.3046C26 25.3539 25.2479 24.615 24.3664 24.615C24.3425 24.615 24.3202 24.6147 24.3037 24.6144L24.2633 24.6139C24.2539 24.6139 24.2486 24.6139 24.2464 24.614L22.8836 24.7183L23.2015 23.3847C23.3093 22.9325 23.3664 22.4599 23.3664 21.9715C23.3664 18.6551 20.734 16 17.5261 16Z" fill="#2083D2"/>
<rect x="28" y="14" width="15" height="2" rx="1" fill="#2083D2"/>
<rect x="28" y="18" width="15" height="2" rx="1" fill="#2083D2"/>
<path d="M41.5 36.3077C40.9 36.3077 40.375 36.6731 40.15 37.1115C40.075 37.1115 40 37.0385 40 37.0385C40 36.2346 39.325 35.5769 38.5 35.5769C37.675 35.5769 37 36.2346 37 37.0385V36.3077C37 35.5038 36.325 34.8462 35.5 34.8462C34.675 34.8462 34 35.5038 34 36.3077V32.6538V30.4615C34 29.6577 33.325 29 32.5 29C31.675 29 31 29.6577 31 30.4615V32.6538V41.7885C29.575 41.0577 28.75 40.8385 28 40.6923C27.775 40.6923 27.475 40.6923 27.25 40.6923C26.125 40.6923 25 41.1308 25 42.5192L28 43.8346L28.375 43.9808L30.775 46.3192C31.9 47.4154 33.4 48 35.05 48H40C41.65 48 43 46.6846 43 45.0769V37.7692C43 36.9654 42.325 36.3077 41.5 36.3077Z" fill="#2083D2"/>
<rect x="14" y="27" width="2" height="2" fill="#2083D2"/>
<rect x="18" y="27" width="2" height="2" fill="#2083D2"/>
<rect x="14" y="30" width="2" height="2" fill="#2083D2"/>
<rect x="18" y="30" width="2" height="2" fill="#2083D2"/>
<rect x="14" y="33" width="2" height="2" fill="#2083D2"/>
<rect x="18" y="33" width="2" height="2" fill="#2083D2"/>
<circle cx="8" cy="16" r="2" fill="#2083D2"/>
</svg>
