<svg xmlns="http://www.w3.org/2000/svg" width="74" height="80" fill="none"><g clip-path="url(#prefix__clip0)"><path fill="#004279" d="M45.417 3.261H3.332v65.62c.255.015.526.031.813.031h39.614c.271 0 .526-.016.797.016.925.096 1.515.78 1.467 1.67-.048.844-.654 1.448-1.578 1.448-3.46.016-6.903.016-10.362.016H1.88C.62 72.046.03 71.458.015 70.201 0 67.4 0 64.617 0 61.833V2.195C0 .493.494.015 2.184.015c14.746 0 29.492 0 44.237-.015.861 0 1.515.239 2.12.843 3.38 3.261 6.776 6.522 10.171 9.752.654.62.973 1.32.973 2.242-.016 6.364-.016 12.727-.016 19.09 0 1.145-.415 1.797-1.244 1.94-1.068.192-1.865-.445-1.88-1.59-.017-2.673-.017-5.361-.017-8.034 0-3.181-.016-6.363.016-9.544 0-.668-.191-.875-.86-.86a178.88 178.88 0 01-5.022.017c-3.157-.048-5.26-2.196-5.277-5.345.032-1.718.032-3.436.032-5.25zm3.3 2.132c0 1.416-.08 2.656.032 3.881a1.447 1.447 0 001.339 1.289c1.275.095 2.55.032 4.017.032-1.833-1.766-3.539-3.42-5.388-5.202z"/><path fill="#2083D2" d="M58.01 36.206c8.019.111 14.746 5.822 15.83 13.744.813 5.981-1.26 10.929-5.946 14.763-.446.366-.622.7-.606 1.256.016 4.009.032 8.002 0 12.01 0 .494-.143 1.082-.414 1.464-.463.652-1.291.668-2.168.16a373.86 373.86 0 01-5.946-3.532c-.479-.302-.83-.27-1.292.016a579.375 579.375 0 01-5.946 3.531c-1.45.86-2.566.207-2.566-1.495 0-4.057-.016-8.113 0-12.17 0-.509-.144-.859-.558-1.209-5.23-4.327-7.302-9.862-5.644-16.448 1.642-6.49 6.026-10.404 12.594-11.82.845-.175 1.77-.175 2.662-.27zm6.17 30.734c-4.002 1.527-7.971 1.527-11.988 0v8.67c1.562-.923 3.044-1.735 4.463-2.657 1.052-.684 1.961-.668 3.013.016 1.435.922 2.95 1.734 4.528 2.656-.016-2.927-.016-5.71-.016-8.685z"/><path fill="#004279" d="M40.62 18.421H24.996a1.598 1.598 0 01-1.595-1.59v-.032c0-.875.718-1.591 1.595-1.591h15.622c.877 0 1.594.716 1.594 1.59v.033c0 .874-.717 1.59-1.594 1.59zm0 11.422H24.996a1.598 1.598 0 01-1.595-1.59v-.033c0-.875.718-1.59 1.595-1.59h15.622c.877 0 1.594.715 1.594 1.59v.032c0 .875-.717 1.59-1.594 1.59zm-2.631 11.835H24.997a1.597 1.597 0 01-1.595-1.59v-.032c0-.875.718-1.591 1.595-1.591h12.992c.877 0 1.594.716 1.594 1.59v.033c0 .874-.718 1.59-1.594 1.59zm0 12.408H24.997a1.598 1.598 0 01-1.595-1.59v-.032c0-.875.718-1.591 1.595-1.591h12.992c.877 0 1.594.716 1.594 1.59v.032c0 .875-.718 1.591-1.594 1.591zm-24.9-25.341c1.052-1.48 2.024-2.927 3.076-4.295.303-.397.845-.795 1.323-.843.463-.048 1.18.223 1.403.589.271.445.383 1.288.128 1.67-1.419 2.195-2.965 4.327-4.512 6.443-.526.716-1.562.747-2.263.111a58.208 58.208 0 01-2.471-2.37c-.606-.62-.558-1.527.032-2.148.605-.636 1.45-.7 2.152-.159.366.287.701.62 1.132 1.002zm0 11.454l2.47-3.484c.24-.35.479-.7.734-1.034.606-.78 1.578-.938 2.327-.413.702.509.861 1.431.32 2.258-.447.684-.941 1.353-1.42 2.02-.924 1.305-1.833 2.61-2.758 3.898-.749 1.05-1.753 1.161-2.71.27a66.04 66.04 0 01-2.168-2.1c-.701-.7-.717-1.606-.08-2.274.638-.684 1.483-.7 2.264-.048.32.286.638.573 1.02.907zm-.002-22.844c1.053-1.495 2.073-2.91 3.077-4.343.415-.588.94-.954 1.674-.875 1.132.112 1.833 1.432 1.195 2.403-1.45 2.179-2.98 4.31-4.527 6.426-.494.668-1.562.716-2.216.128a40.577 40.577 0 01-2.518-2.418c-.606-.62-.526-1.527.063-2.148.59-.604 1.483-.652 2.152-.111.351.286.702.604 1.1.938zm.001 34.202c1.069-1.511 2.105-2.943 3.125-4.39.415-.59.956-.94 1.69-.812 1.148.191 1.77 1.48 1.1 2.45-1.435 2.132-2.933 4.215-4.448 6.3-.526.715-1.594.795-2.264.206a40.577 40.577 0 01-2.518-2.418c-.59-.62-.542-1.543.048-2.147.573-.605 1.498-.653 2.152-.128.366.27.717.589 1.115.939z"/><path fill="#fff" d="M52.797 47.612c1.93 0 1.93 0 2.503-1.814.144-.43.271-.859.43-1.272.415-1.098 1.292-1.718 2.424-1.718 1.147 0 2.104.652 2.486 1.75.271.78.558 1.543.75 2.338.143.589.446.748 1.004.716.797-.048 1.594-.016 2.391 0 1.26.032 2.216.684 2.567 1.766.35 1.097-.016 2.179-1.02 2.943-.686.509-1.355 1.018-2.073 1.495-.414.27-.478.54-.303.986.287.764.526 1.56.765 2.339.367 1.209 0 2.338-.956 3.038-.989.716-1.977.684-3.077-.111-.685-.493-1.387-.987-2.056-1.496-.335-.254-.59-.238-.909.016-.654.51-1.323.986-1.992 1.448-1.02.716-2.296.763-3.205.095-.956-.7-1.275-1.797-.893-3.038.24-.78.495-1.56.766-2.339.143-.413.08-.668-.303-.922-.733-.477-1.435-1.002-2.136-1.527-.989-.748-1.34-1.798-1.005-2.88.32-1.05 1.26-1.734 2.471-1.797.478-.032.925-.016 1.371-.016zm2.423 8.526c.989-.43 1.913-1.129 2.838-1.129.94 0 1.881.684 2.933 1.114-1.307-2.275-.43-3.914 1.706-5.234-2.63.382-4.033-.827-4.48-3.102-.59.907-.972 1.988-1.737 2.53-.75.524-1.881.508-2.997.763 2.39 1.113 2.98 2.847 1.737 5.058z"/></g><defs><clipPath id="prefix__clip0"><path fill="#fff" d="M0 0h74v80H0z"/></clipPath></defs></svg>