<svg xmlns="http://www.w3.org/2000/svg" width="507" height="457" fill="none" viewBox="0 0 507 457">
    <rect width="54.079" height="54.079" x="130.284" y="298.436" fill="#3F4B52" rx="10"/>
    <rect width="100.146" height="100.146" x="406.688" y="88.129" fill="#3F4B52" rx="16"/>
    <rect width="100.146" height="100.146" x="25.131" y="273.399" fill="#3F4B52" rx="16"/>
    <rect width="33.048" height="33.048" x="106.249" y="31.045" fill="#3F4B52" rx="4"/>
    <rect width="45.066" height="45.066" x="348.603" y="6.009" fill="#3F4B52" rx="10"/>
    <rect width="63.092" height="63.092" x="374.641" y="283.414" fill="#3F4B52" rx="10"/>
    <rect width="37.054" height="37.054" x="157.351" y="203.297" fill="#3F4B52" rx="4"/>
    <path fill="#000" d="M278.835 427.848l-.011-4.96v4.96c-11.249 0-17.511-3.825-20.782-7.037-7.22-7.074-8.49-14.208-8.49-26.587V69.677c0-12.374 1.27-19.513 8.49-26.587 3.271-3.207 9.538-7.037 20.787-7.037h131.657c11.26 0 17.522 3.825 20.793 7.037 7.22 7.074 8.49 14.208 8.49 26.587v324.547c0 12.373-1.27 19.507-8.49 26.587-3.271 3.207-9.533 7.037-20.788 7.037H278.835z"/>
    <path fill="#000" d="M440.306 125.896h-.831c-1.346 0-2.438 1.092-2.438 2.438v42.151c0 1.347 1.092 2.438 2.438 2.438h.831c1.346 0 2.438-1.091 2.438-2.438v-42.151c0-1.346-1.092-2.438-2.438-2.438z"/>
    <rect width="25.285" height="3.766" x="331.993" y="46.199" fill="#fff" rx="1.88"/>
    <circle cx="366.423" cy="48.351" r="3.228" fill="#fff"/>
    <mask id="prefix__a" width="174" height="377" x="258" y="44" maskUnits="userSpaceOnUse">
        <path fill="#494949" d="M425.524 49.259c-2.157-2.117-6.488-4.638-14.903-4.638h-15.015c-.764.097-1.873.56-1.98 2.391-.151 2.521-.463 5.845-2.959 8.404-1.926 1.972-4.412 2.909-7 2.909h-77.349c-2.588 0-5.079-.937-7.005-2.909-2.497-2.559-2.803-5.883-2.954-8.404-.108-1.837-1.221-2.294-1.98-2.391H278.96c-8.409 0-12.746 2.52-14.898 4.638-5.062 4.972-5.966 9.718-5.966 20.605v324.972c0 10.881.898 15.632 5.966 20.605 2.158 2.111 6.489 4.638 14.903 4.638h131.662c8.414 0 12.745-2.521 14.897-4.638 5.068-4.973 5.967-9.724 5.967-20.605V69.864c0-10.882-.899-15.633-5.967-20.605z"/>
    </mask>
    <g mask="url(#prefix__a)">
        <path fill="#F9F6F0" d="M258.096 44.621H431.491V420.079H258.096z"/>
    </g>
    <rect width="63.809" height="2.312" x="313.118" y="413.138" fill="#000" rx="1.154"/>
    <path fill="#000" d="M249.18 88.905h-.01c-.882 0-1.597.715-1.597 1.597v12.286c0 .882.715 1.597 1.597 1.597h.01c.882 0 1.597-.715 1.597-1.597V90.502c0-.882-.715-1.597-1.597-1.597zM249.265 117.246h-.01c-.994 0-1.8.806-1.8 1.8v23.348c0 .994.806 1.8 1.8 1.8h.01c.994 0 1.8-.806 1.8-1.8v-23.348c0-.994-.806-1.8-1.8-1.8zM249.235 153.617h-.011c-.947 0-1.714.767-1.714 1.714v23.753c0 .947.767 1.715 1.714 1.715h.011c.947 0 1.714-.768 1.714-1.715v-23.753c0-.947-.767-1.714-1.714-1.714z"/>
    <path fill="#000" d="M111.59 457l-.01-4.96V457c-11.25 0-17.512-3.825-20.783-7.037-7.22-7.074-8.49-14.208-8.49-26.587V98.829c0-12.374 1.27-19.513 8.49-26.587 3.271-3.207 9.539-7.037 20.788-7.037h131.657c11.26 0 17.522 3.825 20.793 7.037 7.22 7.074 8.489 14.208 8.489 26.587v324.547c0 12.373-1.269 19.507-8.489 26.587-3.271 3.207-9.533 7.037-20.788 7.037H111.59z"/>
    <path fill="#000" d="M273.061 155.048h-.83c-1.347 0-2.438 1.092-2.438 2.438v42.151c0 1.347 1.091 2.438 2.438 2.438h.83c1.347 0 2.438-1.091 2.438-2.438v-42.151c0-1.346-1.091-2.438-2.438-2.438z"/>
    <rect width="25.285" height="3.766" x="164.749" y="75.351" fill="#fff" rx="1.88"/>
    <circle cx="199.178" cy="77.503" r="3.228" fill="#fff"/>
    <mask id="prefix__b" width="175" height="377" x="90" y="73" maskUnits="userSpaceOnUse">
        <path fill="#494949" d="M258.28 78.41c-2.157-2.116-6.488-4.637-14.903-4.637h-15.016c-.764.097-1.872.56-1.98 2.391-.15 2.522-.462 5.845-2.959 8.404-1.926 1.972-4.411 2.909-6.999 2.909h-77.35c-2.588 0-5.079-.937-7.005-2.909-2.496-2.559-2.803-5.882-2.953-8.404-.108-1.837-1.222-2.294-1.98-2.391h-15.42c-8.409 0-12.745 2.52-14.897 4.638-5.063 4.972-5.966 9.718-5.966 20.605v324.971c0 10.882.898 15.633 5.966 20.605 2.157 2.112 6.488 4.639 14.903 4.639h131.662c8.414 0 12.745-2.521 14.897-4.639 5.068-4.972 5.967-9.723 5.967-20.605V99.016c0-10.882-.899-15.633-5.967-20.605z"/>
    </mask>
    <g mask="url(#prefix__b)">
        <path fill="#F9F6F0" d="M90.852 73.773H264.247V449.231H90.852z"/>
    </g>
    <rect width="63.809" height="2.312" x="145.873" y="442.29" fill="#000" rx="1.154"/>
    <path fill="#000" d="M81.936 118.057h-.01c-.883 0-1.598.715-1.598 1.597v12.286c0 .882.715 1.597 1.597 1.597h.011c.882 0 1.597-.715 1.597-1.597v-12.286c0-.882-.715-1.597-1.597-1.597zM82.02 146.398h-.01c-.994 0-1.8.806-1.8 1.8v23.348c0 .994.806 1.8 1.8 1.8h.01c.995 0 1.8-.806 1.8-1.8v-23.348c0-.994-.805-1.8-1.8-1.8zM81.99 182.769h-.01c-.947 0-1.714.767-1.714 1.714v23.753c0 .947.767 1.714 1.714 1.714h.01c.947 0 1.715-.767 1.715-1.714v-23.753c0-.947-.768-1.714-1.715-1.714z"/>
    <path fill="#FF8F00" d="M402.393 52.27l13.391 1.706-8.172 10.745-5.219-12.45zM45.872 104.347l13.391 1.705-8.172 10.745-5.219-12.45z"/>
    <path fill="#06AAF5" d="M4.782 141.457l8.54 10.455-13.324 2.169 4.784-12.624zM484.145 334.713l-8.34 10.614-5.022-12.53 13.362 1.916z"/>
    <path fill="#FFF9C4" d="M330.258 10.265l8.54 10.455-13.324 2.169 4.784-12.624zM448.43 242.605l8.541 10.454-13.324 2.169 4.783-12.623z"/>
    <path fill="#FFD037" d="M217.414 47.612l-9.668 9.421-3.325-13.083 12.993 3.662z"/>
    <path fill="#8CC440" d="M32.823 296.684l8.54 10.454-13.324 2.169 4.784-12.623zM141.983 3.255l8.54 10.455-13.324 2.168 4.784-12.623z"/>
    <circle cx="35.145" cy="64.094" r="4.006" fill="#8CC440"/>
    <circle cx="491.812" cy="169.247" r="4.006" fill="#8CC440"/>
    <circle cx="76.205" cy="226.331" r="4.006" fill="#FF8F00"/>
    <circle cx="280.504" cy="4.006" r="4.006" fill="#FF8F00"/>
    <circle cx="450.752" cy="25.037" r="4.006" fill="#FF8F00"/>
</svg>
