<svg xmlns="http://www.w3.org/2000/svg" width="457" height="376" fill="none"><rect width="100.067" height="100.067" x="356.333" y="18.762" fill="#581E9F" rx="16"/><rect width="67.045" height="67.045" x="76.146" y="20.764" fill="#581E9F" rx="10"/><path fill="#FF8F00" d="M27.851 78.996l13.38 1.704-8.165 10.736-5.215-12.44z"/><path fill="#06AAF5" d="M4.78 183.122l8.534 10.446L0 195.735l4.78-12.613z"/><path fill="#FFF9C4" d="M276.962 0l8.533 10.446-13.313 2.167L276.962 0z"/><path fill="#8CC440" d="M434.092 138.092l8.533 10.446-13.313 2.167 4.78-12.613zM121.176 18.762a4.003 4.003 0 11-8.006 0 4.003 4.003 0 018.006 0z"/><circle cx="172.236" cy="224.899" r="4.003" fill="#FF8F00"/><circle cx="300.296" cy="140.843" r="4.003" fill="#E57373"/><rect width="82.055" height="82.055" x="205.232" y="124.833" fill="#581E9F" rx="10"/><rect width="100.067" height="100.067" x="5.099" y="275.933" fill="#581E9F" rx="16"/><rect width="100.067" height="100.067" x="258.268" y="270.93" fill="#581E9F" rx="16"/><rect width="44.029" height="44.029" x="386.353" y="225.9" fill="#581E9F" rx="10"/><path fill="#8CC440" d="M219.019 295.844c5.463 5.862 5.746 14.478 5.746 14.478s-8.575-.889-14.038-6.751c-5.462-5.861-5.745-14.477-5.745-14.477s8.575.888 14.037 6.75z"/><path fill="#8CC440" d="M236.217 304.994c-5.862 5.463-14.478 5.745-14.478 5.745s.889-8.575 6.751-14.037c5.862-5.463 14.477-5.745 14.477-5.745s-.888 8.574-6.75 14.037z"/><path fill="#8D6E63" d="M234.759 322.392h-21.56a2.21 2.21 0 01-1.983-1.241l-4.694-9.649a2.197 2.197 0 01.113-2.134 2.203 2.203 0 011.87-1.036h30.949a2.207 2.207 0 011.983 3.17l-4.695 9.649a2.21 2.21 0 01-1.983 1.241z"/><path fill="#FFB8B8" d="M331.587 204.713c9.915 0 17.952-8.038 17.952-17.952 0-9.915-8.037-17.953-17.952-17.953-9.915 0-17.952 8.038-17.952 17.953 0 9.914 8.037 17.952 17.952 17.952z"/><path fill="#FFB8B8" d="M318.188 195.737s3.382 25.497-1.821 28.359c-5.204 2.862 30.961 3.122 30.961 3.122s-8.065-22.115-4.423-28.879l-24.717-2.602z"/><path fill="#FDD835" d="M373.736 227.347l-3.007 13.696-6.36 28.975-.19 1.587-2.195 18.371-1.46 12.204-.979 8.197c-5.952 3.059-10.265 5.171-10.265 5.171s-.371-1.86-.97-4.24c-4.177 1.252-11.906 3.329-18.456 3.744 2.386 2.659 3.482 5.156 1.995 7-4.487 5.556-23.012-6.084-29.491-10.425a17.544 17.544 0 00-.171 3.14l-4.958-3.813.491-8.774.827-14.846 1.04-18.617a19.67 19.67 0 01-.822-2.449c-1.519-5.4-3.362-16.183-4.775-25.225a871.895 871.895 0 01-2.173-14.736l-.037-.259 27.447-12.128c1.951 4.524 11.059 5.884 11.059 5.884 7.546-.52 13.462-4.5 13.462-4.5l29.988 12.043z"/><path fill="#FFB8B8" d="M351.362 310.346s-1.162.398-3.051.962c-4.177 1.252-11.906 3.329-18.456 3.744-5.64.362-10.405-.507-11.276-4.186-.374-1.582.156-2.883 1.311-3.953 3.447-3.195 12.45-4.34 19.591-4.733a131.668 131.668 0 019.799-.162l.042.162 2.04 8.166z"/><path fill="#000" d="M316.653 169.78l-3.356-1.344s7.018-7.727 16.783-7.055l-2.747-3.024s6.714-2.687 12.817 4.368c3.208 3.708 6.92 8.068 9.234 12.978h3.594l-1.5 3.304 5.251 3.303-5.389-.593a18.47 18.47 0 01.146 5.479 7.09 7.09 0 01-2.596 4.638s-4.163-8.616-4.163-9.96v3.359s-3.357-3.023-3.357-5.039l-1.831 2.352-.915-3.696-11.29 3.696 1.83-3.024-7.018 1.008 2.746-3.695s-7.933 4.367-8.239 8.062c-.305 3.696-2.627 7.197-2.627 7.197s-6.222-17.275 2.627-22.314z"/><path fill="#FDD835" d="M393.248 290.31c-1.828 1.982-6.359 4.968-11.852 8.2a299.53 299.53 0 01-6.438 3.67c-5.295 2.936-10.839 5.846-15.414 8.197-5.952 3.059-10.266 5.171-10.266 5.171s-.371-1.86-.969-4.241c-.8-3.185-2.006-7.304-3.264-9.127a4.731 4.731 0 00-.132-.181c-.366-.481-.734-.762-1.098-.762l18.168-11.261 7.851-4.868-5.656-13.503-7.095-16.938 4.282-13.624 4.304-13.696h8.066s2.671 5.83 6.086 13.959c.51 1.216 1.038 2.483 1.575 3.792 7.026 17.089 15.785 40.952 11.852 45.212z"/><path fill="#FFB8B8" d="M331.85 322.051c-4.488 5.557-23.012-6.083-29.491-10.424a106.046 106.046 0 01-2.251-1.543l5.927-7.904 1.878-2.503s1.679.891 4.162 2.341l.274.162c2.141 1.257 4.828 2.9 7.541 4.733 3.742 2.532 7.526 5.42 9.965 8.139 2.385 2.659 3.481 5.156 1.995 6.999z"/><path fill="#FDD835" d="M312.074 302.018a11.797 11.797 0 00-1.977.161c-5.613.965-7.268 6.045-7.739 9.448a17.539 17.539 0 00-.171 3.14l-4.958-3.814-1.807-1.389c-4.348-1.516-8.222-4.208-11.581-7.385a58.24 58.24 0 01-7.8-9.25 81.434 81.434 0 01-6.035-10.351 7.603 7.603 0 01-.105-6.457l6.14-13.683 8.974-19.999c.066-.476.138-.941.217-1.396 1.78-10.205 6.548-14.736 6.548-14.736h3.642l2.437 14.736 3.027 18.307-2.122 6.918-4.902 15.978 4.685 5.088 13.527 14.684z"/><path fill="#3F3D56" d="M387.183 319.073v1.482a3.245 3.245 0 01-.459 1.677 3.281 3.281 0 01-2.82 1.602H274.889a3.29 3.29 0 01-1.621-.428 3.266 3.266 0 01-1.657-2.851v-1.482a3.26 3.26 0 01.96-2.318 3.275 3.275 0 012.318-.96h6.284v-.691a.16.16 0 01.01-.053.143.143 0 01.074-.074.139.139 0 01.053-.01h3.278c.018 0 .036.003.053.01a.143.143 0 01.074.074c.007.017.01.035.01.053v.691h2.048v-.691a.14.14 0 01.085-.127.13.13 0 01.052-.01h3.279a.134.134 0 01.126.084c.007.017.01.035.01.053v.691h2.051v-.691a.16.16 0 01.01-.053.143.143 0 01.074-.074.139.139 0 01.053-.01h3.278c.018 0 .036.003.053.01a.143.143 0 01.074.074c.007.017.01.035.01.053v.691h2.048v-.691a.14.14 0 01.085-.127.13.13 0 01.052-.01h3.279a.134.134 0 01.126.084c.007.017.01.035.01.053v.691h2.049v-.691c0-.018.003-.036.01-.053a.143.143 0 01.074-.074.134.134 0 01.052-.01h3.279a.137.137 0 01.137.137v.691h2.05v-.691a.14.14 0 01.085-.127.13.13 0 01.052-.01h3.279a.134.134 0 01.126.084c.007.017.01.035.01.053v.691h2.049v-.691c0-.018.003-.036.01-.053a.143.143 0 01.074-.074.134.134 0 01.052-.01h25.683a.134.134 0 01.126.084c.007.017.01.035.01.053v.691h2.051v-.691c0-.018.003-.036.01-.053a.143.143 0 01.074-.074.139.139 0 01.053-.01h3.278c.036 0 .071.015.097.04a.14.14 0 01.04.097v.691h2.048v-.691a.14.14 0 01.085-.127.13.13 0 01.052-.01h3.279a.134.134 0 01.126.084c.007.017.01.035.01.053v.691h2.049v-.691c0-.018.003-.036.01-.053a.143.143 0 01.074-.074.134.134 0 01.052-.01h3.279a.137.137 0 01.137.137v.691h2.05v-.691a.14.14 0 01.085-.127.13.13 0 01.052-.01h3.279a.136.136 0 01.134.137v.691h2.051v-.691c0-.018.003-.036.01-.053a.143.143 0 01.074-.074.134.134 0 01.052-.01h3.279a.137.137 0 01.137.137v.691h2.048v-.691c0-.018.003-.036.01-.053a.143.143 0 01.074-.074.139.139 0 01.053-.01h3.278c.018 0 .036.003.053.01a.143.143 0 01.074.074.16.16 0 01.01.053v.691h9.562a3.269 3.269 0 013.03 2.023c.164.398.249.825.249 1.255z"/><path fill="#000" stroke="#fff" d="M337.271 256.667v.5h41.133a2.249 2.249 0 012.248 2.248v55.64a2.248 2.248 0 01-2.248 2.248h-99.859a2.248 2.248 0 01-2.248-2.248v-55.64a2.248 2.248 0 012.248-2.248h41.302v-.837h17.424v.337z"/><path stroke="#D0CDE1" stroke-miterlimit="10" stroke-width="2" d="M328.554 282.195a6.102 6.102 0 100-12.206 6.103 6.103 0 000 12.206z"/><path fill="#D0CDE1" d="M326.602 284.392a6.103 6.103 0 100-12.206 6.103 6.103 0 000 12.206z"/><path fill="#000" d="M147.399 229.707a8.886 8.886 0 100-17.772 8.886 8.886 0 000 17.772z"/><path fill="#000" d="M149.874 212.181a8.886 8.886 0 017.822 13.102 8.883 8.883 0 10-14.759-9.761 8.871 8.871 0 016.937-3.341z"/><path fill="#000" d="M130.795 220.803c14.415 0 26.1-11.686 26.1-26.1 0-14.415-11.685-26.101-26.1-26.101-14.415 0-26.1 11.686-26.1 26.101 0 14.414 11.685 26.1 26.1 26.1z"/><path fill="#000" d="M110.31 178.508a26.096 26.096 0 0136.172-2.736c-.213-.203-.424-.408-.646-.605a26.098 26.098 0 00-36.848 2.166 26.1 26.1 0 002.166 36.848c.221.197.449.382.676.571a26.095 26.095 0 01-1.52-36.244z"/><path fill="#FFB8B8" d="M130.574 220.582c9.284 0 16.81-7.527 16.81-16.811 0-9.284-7.526-16.81-16.81-16.81-9.284 0-16.811 7.526-16.811 16.81 0 9.284 7.527 16.811 16.811 16.811z"/><path fill="#FFB8B8" d="M118.63 209.08s2.212 20.349-1.327 22.561c-3.539 2.212 20.349 5.309 20.349 5.309s-3.539-22.119 5.309-27.87H118.63z"/><path fill="#FAFAFA" d="M139.863 228.102s6.588-3.076-2.899-1.98c-9.487 1.095-17.672-3.107-17.672-3.107s-2.875-2.876-3.317.221c-.442 3.097 1.327 8.847-8.405 9.732-9.732.885-18.58-1.769-22.12 4.866-3.538 6.636-1.769 35.391-1.769 35.391s6.636 23.888 11.945 27.427c5.308 3.539 51.758-1.327 51.758-1.327l13.271-23.889v-27.869s-1.769-9.733-14.156-7.078c0 0-7.963-1.77-7.52-5.751.442-3.982.884-6.636.884-6.636z"/><path fill="#2F2E41" d="M97.381 317.557c.274-1.191.457-1.865.457-1.865l-.142-.969-1.457-9.897-.613-4.174c5.308-2.212 6.636-12.388 6.636-12.388l.2-.119.905-.542v-.003l3.252-1.95.066-.039 1.314.874 2.668 1.779a31.369 31.369 0 0024.708 5.662 27.182 27.182 0 005.815-1.68l6.435-2.146.201-.066.197.03 3.775.571.068.012.312.047-.874 6.042-1.267 8.781c3.347 1.772 6.323 5.102 8.926 9.206a53.018 53.018 0 011.674 2.834 69.312 69.312 0 012.014 3.943c.079.161.154.325.23.488.246.53.491 1.065.727 1.602H96.21a183.47 183.47 0 01.27-1.602 94.38 94.38 0 01.901-4.431z"/><path fill="#2F2E41" d="M94.74 232.526s4.867 8.847 3.098 19.907c-1.77 11.059 5.308 38.487 5.308 38.487l5.309-1.328s-3.539-23.003-2.655-28.312c.885-5.308.885-26.1-3.539-28.754-4.423-2.655-7.52 0-7.52 0zm51.448 9.194l1.86 48.978 3.539 2.212s5.087-53.749 2.433-53.749h-5.401a2.437 2.437 0 00-2.431 2.559z"/><path fill="#6C63FF" d="M105.58 289.814a2.212 2.212 0 10-.002-4.424 2.212 2.212 0 00.002 4.424zm44.238 2.212a2.212 2.212 0 100-4.424 2.212 2.212 0 000 4.424z"/><path fill="#000" d="M116.197 182.758v16.811h3.893l4.954-5.309-.664 5.309h17.209l-1.062-5.309 2.124 5.309h2.742v-16.811h-29.196z"/><path fill="#FFB8B8" d="M113.542 202.665c.733 0 1.328-1.089 1.328-2.433 0-1.344-.595-2.433-1.328-2.433-.732 0-1.327 1.089-1.327 2.433 0 1.344.595 2.433 1.327 2.433zm34.064 0c.733 0 1.327-1.089 1.327-2.433 0-1.344-.594-2.433-1.327-2.433s-1.327 1.089-1.327 2.433c0 1.344.594 2.433 1.327 2.433z"/><path fill="#A0616A" d="M156.675 289.592s-20.128-3.76-21.455 2.876c-1.327 6.636 22.34 3.76 22.34 3.76l-.885-6.636z"/><path fill="#FAFAFA" d="M156.232 244.028s48.219 38.486 39.371 47.776c-8.847 9.29-42.468 6.636-42.468 6.636l2.212-11.059 19.465-2.212-9.733-9.733-8.847.885v-32.293z"/><path fill="#A0616A" d="M85.01 308.172l6.193 4.867s4.424 13.713 11.059 9.732c6.636-3.981-6.193-18.138-6.193-18.138l-7.52-2.654-3.54 6.193z"/><path fill="#FAFAFA" d="M91.203 236.95l-6.177 1.858s-42.927 31.762-44.697 40.61c-1.77 8.847 8.405 13.714 8.405 13.714l38.487 18.137 3.982-10.617-18.138-9.29s1.327-2.654-3.981-3.097c-5.309-.442-6.194-6.193-6.194-6.193s10.617-16.368 16.368-12.829c5.751 3.539 7.52 6.194 7.52 6.194l4.425-38.487z"/><path fill="#3F3D56" d="M179.298 319.074v1.481a3.333 3.333 0 01-.458 1.678 3.281 3.281 0 01-2.82 1.601H67.005a3.28 3.28 0 01-3.057-2.09 3.266 3.266 0 01-.222-1.189v-1.481a3.275 3.275 0 01.96-2.319 3.269 3.269 0 012.319-.96h6.284v-.691a.137.137 0 01.136-.137h3.279c.018 0 .036.004.052.011a.134.134 0 01.045.029.177.177 0 01.03.045.15.15 0 01.01.052v.691h2.048v-.691a.137.137 0 01.136-.137h3.28a.13.13 0 01.051.011.134.134 0 01.085.126v.691h2.05v-.691a.15.15 0 01.01-.052.177.177 0 01.03-.045.134.134 0 01.045-.029.135.135 0 01.052-.011h3.279c.018 0 .036.004.052.011a.134.134 0 01.045.029.177.177 0 01.03.045.15.15 0 01.01.052v.691h2.048v-.691a.137.137 0 01.136-.137h3.28a.139.139 0 01.136.137v.691h2.048v-.691a.137.137 0 01.137-.137h3.279a.139.139 0 01.136.137v.691h2.051v-.691a.137.137 0 01.137-.137h3.278a.14.14 0 01.127.085.15.15 0 01.01.052v.691h2.048v-.691a.137.137 0 01.137-.137h25.682c.018 0 .036.004.052.011a.134.134 0 01.045.029.12.12 0 01.029.045.131.131 0 01.011.052v.691h2.05v-.691a.151.151 0 01.04-.097.134.134 0 01.045-.029.131.131 0 01.052-.011h3.279a.138.138 0 01.096.041c.026.025.04.06.041.096v.691h2.048v-.691a.137.137 0 01.136-.137h3.279c.018 0 .036.004.052.011a.134.134 0 01.045.029.12.12 0 01.029.045.131.131 0 01.011.052v.691h2.048v-.691a.137.137 0 01.137-.137h3.278a.14.14 0 01.127.085.13.13 0 01.01.052v.691h2.051v-.691a.137.137 0 01.136-.137h3.279c.036.001.07.015.095.041a.13.13 0 01.039.096v.691h2.051v-.691a.137.137 0 01.137-.137h3.278a.14.14 0 01.127.085.13.13 0 01.01.052v.691h2.048v-.691a.151.151 0 01.04-.097.134.134 0 01.045-.029.131.131 0 01.052-.011h3.279c.018 0 .035.004.052.011a.137.137 0 01.084.126v.691h9.563a3.265 3.265 0 012.318.96 3.269 3.269 0 01.96 2.319z"/><path fill="#000" stroke="#fff" d="M129.386 256.666v.5h41.134a2.249 2.249 0 012.248 2.248v55.64c0 .596-.237 1.168-.658 1.59a2.252 2.252 0 01-1.59.658H70.661a2.252 2.252 0 01-1.59-.658 2.252 2.252 0 01-.658-1.59v-55.64a2.248 2.248 0 012.248-2.248h41.301v-.837h17.424v.337z"/><path stroke="#D0CDE1" stroke-miterlimit="10" stroke-width="2" d="M120.672 282.194a6.103 6.103 0 100-12.206 6.103 6.103 0 000 12.206z"/><path fill="#D0CDE1" d="M118.719 284.391a6.102 6.102 0 100-12.206 6.103 6.103 0 000 12.206z"/><circle cx="199.228" cy="45.78" r="16.011" fill="#7E57C2"/><path fill="url(#prefix__paint0_linear)" d="M199.229 57.64c6.55 0 11.859-5.31 11.859-11.86s-5.309-11.86-11.859-11.86-11.86 5.31-11.86 11.86 5.31 11.86 11.86 11.86z" opacity=".5"/><path fill="#F5F5F5" d="M199.228 57.325c6.412 0 11.609-5.198 11.609-11.61 0-6.41-5.197-11.608-11.609-11.608-6.411 0-11.609 5.197-11.609 11.609 0 6.411 5.198 11.609 11.609 11.609z"/><path fill="#6C63FF" d="M199.261 57.357c2.269.004 4.488-.66 6.382-1.91-.428-2.337-2.056-2.47-2.056-2.47h-8.976s-1.535.125-2.016 2.276a11.552 11.552 0 006.666 2.104z"/><path fill="#333" d="M199.139 50.606a5.146 5.146 0 100-10.292 5.146 5.146 0 000 10.292z"/><path fill="#000" d="M197.331 50.127h3.591V53a1.797 1.797 0 01-3.59-.001v-2.872h-.001z" opacity=".1"/><path fill="#BE7C5E" d="M197.674 49.994h2.906a.342.342 0 01.343.343v2.53a1.798 1.798 0 01-1.795 1.795 1.798 1.798 0 01-1.795-1.796v-2.53a.341.341 0 01.341-.341z"/><path fill="#000" d="M197.338 51.483a5.165 5.165 0 003.591.01v-.44h-3.591v.43z" opacity=".1"/><path fill="#BE7C5E" d="M199.139 51.724a5.146 5.146 0 100-10.293 5.146 5.146 0 000 10.293z"/><path fill="#333" d="M196.022 44.455c.061-.222.136-.467.336-.583.157-.092.353-.078.535-.068 1.423.078 2.833-.247 4.216-.586.791-.193 1.638-.429 2.149-1.066.512-.638-.155-2.641-.934-2.878-.512-.156-1.105.135-1.59-.094-.216-.102-.375-.294-.561-.443-.382-.307-.872-.43-1.347-.547-.554-.138-1.154-.272-1.681-.052-.409.17-.708.53-1.096.742-.738.41-1.638.22-2.483.217-.285 0-.626.058-.74.32-.076.178-.015.38-.007.574.025.614-.482 1.092-.907 1.535-.424.443-.825 1.075-.557 1.626.102.21.289.368.396.576.183.36.091.795.157 1.193.067.302.18.592.335.86.315.614 1.898 3.92 2.626 3.08.352-.41.409-1.593.551-2.125.197-.765.398-1.525.602-2.281z"/><path fill="#BE7C5E" d="M195.478 47.288c.264 0 .479-.402.479-.898s-.215-.897-.479-.897c-.265 0-.479.401-.479.897s.214.898.479.898z"/><circle cx="242.257" cy="133.839" r="16.011" fill="#7E57C2"/><path fill="url(#prefix__paint1_linear)" d="M242.257 145.698c6.55 0 11.86-5.309 11.86-11.859s-5.31-11.86-11.86-11.86-11.859 5.31-11.859 11.86 5.309 11.859 11.859 11.859z" opacity=".5"/><path fill="#F5F5F5" d="M242.28 145.372c6.412 0 11.609-5.198 11.609-11.609s-5.197-11.609-11.609-11.609c-6.411 0-11.609 5.198-11.609 11.609s5.198 11.609 11.609 11.609z"/><path fill="#6C63FF" d="M242.291 145.418a11.547 11.547 0 006.377-1.91c-.427-2.337-2.055-2.471-2.055-2.471h-8.973s-1.535.126-2.016 2.277a11.555 11.555 0 006.667 2.104z"/><path fill="#F55F44" d="M242.168 139.122a5.604 5.604 0 100-11.208 5.604 5.604 0 000 11.208z"/><path fill="#000" d="M240.359 138.186h3.591v2.872c0 .477-.189.933-.525 1.27a1.8 1.8 0 01-2.539 0 1.794 1.794 0 01-.526-1.27v-2.872h-.001z" opacity=".1"/><path fill="#FDA57D" d="M240.701 138.053h2.905a.353.353 0 01.243.1.343.343 0 01.1.243v2.529a1.798 1.798 0 01-1.108 1.659 1.798 1.798 0 01-2.345-.972 1.8 1.8 0 01-.137-.687v-2.529a.341.341 0 01.343-.343h-.001z"/><path fill="#000" d="M240.365 139.542a5.17 5.17 0 003.591.01v-.441h-3.591v.431z" opacity=".1"/><path fill="#FDA57D" d="M242.168 139.783a5.147 5.147 0 10-.002-10.294 5.147 5.147 0 00.002 10.294z"/><path fill="#F55F44" d="M242.161 129.89a2.072 2.072 0 10-.001-4.143 2.072 2.072 0 00.001 4.143z"/><path fill="#F55F44" d="M242.161 127.139a1.36 1.36 0 100-2.72 1.36 1.36 0 000 2.72z"/><path fill="#F55F44" d="M241.262 128.954a2.073 2.073 0 01-1.08-2.648c-.014.028-.029.058-.042.088a2.08 2.08 0 00-.046 1.585 2.073 2.073 0 002.673 1.199 2.077 2.077 0 001.191-1.179 2.07 2.07 0 01-2.696.955z"/><path fill="#000" d="M238.503 129.955s2.168 4.401 8.289 1.842l-1.425-2.234-2.524-.907-4.34 1.299z" opacity=".1"/><path fill="#F55F44" d="M238.503 129.889s2.168 4.401 8.289 1.842l-1.425-2.234-2.524-.906-4.34 1.298z"/><path fill="#333" d="M240.174 128.287a25.55 25.55 0 014.009 0s-2.961.275-4.009 0z"/><path fill="#F55F44" d="M242.47 124.336a1.373 1.373 0 00-.307.023h.079a1.359 1.359 0 01.205 2.695 1.358 1.358 0 001.371-1.347 1.36 1.36 0 00-1.347-1.371h-.001z"/><path fill="#FDA57D" d="M237.019 135.528c.265 0 .479-.402.479-.897 0-.496-.214-.898-.479-.898-.264 0-.479.402-.479.898 0 .495.215.897.479.897zm10.294 0c.265 0 .479-.402.479-.897 0-.496-.214-.898-.479-.898-.264 0-.479.402-.479.898 0 .495.215.897.479.897z"/><path fill="#F55F44" d="M238.178 130.019l1.004-.517.226.83-.615.418-.615-.731z"/><circle cx="60.136" cy="152.851" r="16.011" fill="#7E57C2"/><path fill="#BE7C5E" d="M55.005 154.326c.265 0 .48-.402.48-.898 0-.495-.215-.897-.48-.897-.264 0-.479.402-.479.897 0 .496.215.898.48.898z"/><path fill="url(#prefix__paint2_linear)" d="M60.136 164.711c6.55 0 11.86-5.31 11.86-11.86s-5.31-11.859-11.86-11.859-11.86 5.309-11.86 11.859 5.31 11.86 11.86 11.86z" opacity=".5"/><path fill="#F5F5F5" d="M60.136 164.396c6.411 0 11.608-5.198 11.608-11.609 0-6.412-5.197-11.609-11.608-11.609-6.412 0-11.61 5.197-11.61 11.609 0 6.411 5.198 11.609 11.61 11.609z"/><path fill="#333" d="M55.607 152.89s-1.316 6.484-2.034 6.125c0 0 6.928 5.985 13.046 0 0 0-1.078-4.569-2.633-6.125h-8.379z"/><path fill="#6C63FF" d="M60.17 164.431a11.56 11.56 0 006.381-1.91c-.427-2.337-2.056-2.471-2.056-2.471h-8.977s-1.535.125-2.016 2.277a11.57 11.57 0 006.668 2.104z"/><path fill="#333" d="M60.046 157.677a5.146 5.146 0 10.001-10.293 5.146 5.146 0 00-.001 10.293z"/><path fill="#000" d="M58.238 157.199h3.591v2.872a1.793 1.793 0 11-3.587 0v-2.872h-.004z" opacity=".1"/><path fill="#BE7C5E" d="M58.58 157.065h2.906a.345.345 0 01.342.343v2.53a1.792 1.792 0 11-3.586 0v-2.531a.34.34 0 01.1-.24.341.341 0 01.239-.102z"/><path fill="#000" d="M58.244 158.554a5.162 5.162 0 003.59.011v-.441h-3.59v.43z" opacity=".1"/><path fill="#BE7C5E" d="M60.046 158.794a5.147 5.147 0 10.001-10.293 5.147 5.147 0 00-.001 10.293z"/><path fill="#333" d="M55.127 151.693h9.814s-.838-3.963-4.548-3.71c-3.71.253-5.266 3.71-5.266 3.71z"/><path fill="#BE7C5E" d="M65.059 154.326c.265 0 .479-.402.479-.898 0-.495-.214-.897-.479-.897-.264 0-.479.402-.479.897 0 .496.215.898.479.898z"/><path fill="#000" d="M55.127 151.826h9.814s-.838-3.962-4.548-3.71c-3.71.253-5.266 3.71-5.266 3.71z" opacity=".1"/><circle cx="436.386" cy="180.87" r="16.011" fill="#7E57C2"/><path fill="url(#prefix__paint3_linear)" d="M436.387 192.73c6.55 0 11.859-5.31 11.859-11.86s-5.309-11.86-11.859-11.86-11.86 5.31-11.86 11.86 5.31 11.86 11.86 11.86z" opacity=".5"/><path fill="#F5F5F5" d="M436.409 192.402c6.412 0 11.609-5.197 11.609-11.609 0-6.411-5.197-11.609-11.609-11.609-6.411 0-11.609 5.198-11.609 11.609 0 6.412 5.198 11.609 11.609 11.609z"/><path fill="#6C63FF" d="M436.419 192.449c2.269.004 4.488-.66 6.382-1.909-.429-2.339-2.056-2.473-2.056-2.473h-8.976s-1.535.126-2.016 2.277a11.55 11.55 0 006.666 2.105z"/><path fill="#72351C" d="M436.297 186.153a5.604 5.604 0 100-11.208 5.604 5.604 0 000 11.208z"/><path fill="#000" d="M434.489 185.216h3.591v2.873a1.803 1.803 0 01-.525 1.271 1.793 1.793 0 01-2.54.001 1.797 1.797 0 01-.525-1.269v-2.876h-.001z" opacity=".1"/><path fill="#FDA57D" d="M434.828 185.083h2.906a.342.342 0 01.343.343v2.53a1.798 1.798 0 01-1.795 1.795 1.796 1.796 0 01-1.795-1.795v-2.53a.342.342 0 01.342-.343h-.001z"/><path fill="#000" d="M434.492 186.572a5.165 5.165 0 003.591.01v-.441h-3.591v.431z" opacity=".1"/><path fill="#FDA57D" d="M436.297 186.812a5.146 5.146 0 100-10.292 5.146 5.146 0 000 10.292z"/><path fill="#000" d="M432.632 176.985s2.168 4.401 8.289 1.843l-1.424-2.234-2.525-.907-4.34 1.298z" opacity=".1"/><path fill="#72351C" d="M432.632 176.921s2.168 4.4 8.289 1.842l-1.424-2.234-2.525-.907-4.34 1.299z"/><path fill="#72351C" d="M432.612 176.623c.146-.453.399-.863.737-1.198 1.012-1.001 2.672-1.212 3.523-2.354a.667.667 0 01-.307.94c.819-.006 1.762-.077 2.222-.749a1.532 1.532 0 01-.257 1.611c.723.033 1.494.523 1.541 1.246.031.481-.27.936-.666 1.212-.396.277-.873.4-1.343.503-1.374.307-6.346 1.577-5.45-1.211zm8.832 5.088h-.136l-2.655 2.365c-2.558-1.197-4.435 0-4.435 0l-2.783-2.266-.281.035a5.148 5.148 0 008.803 3.476 5.15 5.15 0 001.488-3.608l-.001-.002zm-5.153 3.27c-1.001 0-1.813-.205-1.813-.454 0-.248.812-.453 1.813-.453 1 0 1.812.205 1.812.453 0 .249-.812.454-1.813.454h.001z"/><path fill="#FDA57D" d="M431.149 182.559c.264 0 .478-.402.478-.898s-.214-.897-.478-.897c-.265 0-.479.401-.479.897s.214.898.479.898zm10.293 0c.265 0 .479-.402.479-.898s-.214-.897-.479-.897c-.264 0-.478.401-.478.897s.214.898.478.898z"/><circle cx="24.112" cy="78.802" r="16.011" fill="#7E57C2"/><path fill="url(#prefix__paint4_linear)" d="M24.112 90.662c6.55 0 11.86-5.31 11.86-11.86s-5.31-11.86-11.86-11.86-11.86 5.31-11.86 11.86 5.31 11.86 11.86 11.86z" opacity=".5"/><path fill="#F5F5F5" d="M24.135 90.335c6.411 0 11.609-5.197 11.609-11.609 0-6.411-5.198-11.609-11.61-11.609-6.41 0-11.608 5.198-11.608 11.61 0 6.41 5.198 11.608 11.609 11.608z"/><path fill="#6C63FF" d="M24.144 90.381a11.54 11.54 0 006.38-1.91c-.427-2.337-2.055-2.47-2.055-2.47h-8.98s-1.535.125-2.016 2.276a11.55 11.55 0 006.67 2.104z"/><path fill="#333" d="M24.022 84.086a5.605 5.605 0 10-.001-11.21 5.605 5.605 0 00.001 11.21z"/><path fill="#000" d="M22.214 83.15h3.591v2.872a1.795 1.795 0 11-3.59-.001V83.15h-.001z" opacity=".1"/><path fill="#FDB797" d="M22.557 83.016h2.905c.091 0 .178.036.243.1.064.065.1.152.1.243v2.532a1.798 1.798 0 01-1.795 1.795 1.79 1.79 0 01-1.796-1.795v-2.533c0-.091.036-.178.1-.243a.346.346 0 01.243-.1v.001z"/><path fill="#000" d="M22.22 84.505a5.162 5.162 0 003.59.01v-.444h-3.59v.434z" opacity=".1"/><path fill="#FDB797" d="M24.022 84.746a5.147 5.147 0 10.001-10.293 5.147 5.147 0 00-.001 10.293z"/><path fill="#000" d="M20.357 74.918s2.169 4.4 8.29 1.841l-1.425-2.234-2.525-.906-4.34 1.299z" opacity=".1"/><path fill="#333" d="M20.357 74.853s2.169 4.4 8.29 1.842l-1.425-2.234-2.525-.907-4.34 1.299z"/><path fill="#333" d="M20.338 74.554a2.96 2.96 0 01.736-1.198c1.013-1.001 2.672-1.212 3.524-2.354a.673.673 0 01.055.538.674.674 0 01-.362.401c.819-.005 1.761-.077 2.222-.748.114.265.15.558.104.843a1.52 1.52 0 01-.361.768c.722.033 1.494.523 1.54 1.245.032.481-.27.937-.665 1.213-.396.276-.874.402-1.345.507-1.373.304-6.345 1.575-5.448-1.215z"/><path fill="#FDB797" d="M18.874 80.492c.265 0 .479-.402.479-.898s-.215-.897-.479-.897-.479.401-.479.897.215.898.479.898zm10.294 0c.265 0 .479-.402.479-.898s-.214-.897-.479-.897c-.264 0-.479.401-.479.897s.215.898.479.898z"/><circle cx="416.373" cy="40.777" r="16.011" fill="#7E57C2"/><path fill="url(#prefix__paint5_linear)" d="M416.373 52.636c6.55 0 11.86-5.31 11.86-11.86s-5.31-11.859-11.86-11.859-11.86 5.31-11.86 11.86 5.31 11.86 11.86 11.86z" opacity=".5"/><path fill="#F5F5F5" d="M416.396 52.31c6.412 0 11.609-5.198 11.609-11.609 0-6.412-5.197-11.609-11.609-11.609-6.411 0-11.609 5.197-11.609 11.609 0 6.411 5.198 11.61 11.609 11.61z"/><path fill="#333" d="M422.784 41.845c0 3.862-2.775 5.763-6.378 5.763s-6.668-1.9-6.668-5.763c0-3.862 2.92-6.993 6.523-6.993 3.602 0 6.523 3.128 6.523 6.993z"/><path fill="#6C63FF" d="M416.406 52.356a11.55 11.55 0 006.383-1.91c-.428-2.337-2.056-2.471-2.056-2.471h-8.977s-1.535.126-2.016 2.277a11.55 11.55 0 006.666 2.104z"/><path fill="#000" d="M414.476 45.12h3.591v2.873a1.798 1.798 0 01-1.11 1.663 1.805 1.805 0 01-1.958-.39 1.794 1.794 0 01-.526-1.27v-2.875h.003z" opacity=".1"/><path fill="#FDA57D" d="M414.818 44.99h2.905a.345.345 0 01.343.344v2.53a1.784 1.784 0 01-.527 1.27 1.784 1.784 0 01-1.271.524 1.797 1.797 0 01-1.795-1.795v-2.53a.343.343 0 01.343-.343h.002z"/><path fill="#000" d="M414.483 46.48a5.17 5.17 0 003.591.01v-.441h-3.591v.43z" opacity=".1"/><path fill="#FDA57D" d="M416.284 46.72a5.147 5.147 0 10-.002-10.292 5.147 5.147 0 00.002 10.291z"/><path fill="#000" d="M410.353 41.91s3.205-.39 5.629-3.496c0 0 3.205 3.528 5.438 3.14 0 0 1.295-1.36 0-2.72-1.295-1.359-2.299-3.075-4.014-2.849-1.715.226-3.82.324-4.726 1.133-.905.81-2.327 4.791-2.327 4.791z" opacity=".1"/><path fill="#333" d="M410.353 41.845s3.205-.389 5.629-3.496c0 0 3.205 3.529 5.438 3.14 0 0 1.295-1.36 0-2.72-1.295-1.358-2.299-3.074-4.014-2.848-1.715.226-3.816.32-4.721 1.138-.906.819-2.332 4.786-2.332 4.786z"/><path fill="#FDA57D" d="M411.135 42.466c.265 0 .479-.402.479-.897 0-.496-.214-.898-.479-.898-.264 0-.479.402-.479.898 0 .495.215.897.479.897zm10.294 0c.265 0 .479-.402.479-.897 0-.496-.214-.898-.479-.898-.264 0-.479.402-.479.898 0 .495.215.897.479.897z"/><path fill="#fff" stroke="#7E57C2" stroke-width="3" d="M236.253 196.38a3.502 3.502 0 013.502 3.503v13.46a3.502 3.502 0 01-3.502 3.503h-12.396c-.069 0-.194.026-.367.174-.178.153-.348.39-.458.66a6.77 6.77 0 01-.315.67c-.317.587-.812 1.063-1.467 1.287a2.564 2.564 0 01-1.814-.07c-1.008-.415-1.752-1.39-1.958-2.527l-.007-.013a.77.77 0 00-.119-.153l-.029-.028h-5.086a3.502 3.502 0 01-3.502-3.503v-13.46a3.502 3.502 0 013.502-3.503h24.016z"/><rect width="16.221" height="2.212" x="216.134" y="202.305" fill="#4A148C" rx="1.105"/><rect width="16.221" height="2.212" x="216.134" y="206.729" fill="#4A148C" rx="1.105"/><path fill="#fff" stroke="#7E57C2" stroke-width="3" d="M144.192 89.31a3.501 3.501 0 013.502 3.501v13.461a3.502 3.502 0 01-3.502 3.502h-12.396c-.069 0-.194.027-.367.175a1.754 1.754 0 00-.458.66 6.652 6.652 0 01-.315.669c-.318.588-.812 1.063-1.467 1.288a2.558 2.558 0 01-1.814-.071c-1.009-.415-1.752-1.389-1.958-2.526l-.007-.014a.839.839 0 00-.119-.152l-.03-.029h-5.085a3.502 3.502 0 01-3.503-3.502v-13.46a3.503 3.503 0 013.503-3.503h24.016z"/><rect width="16.221" height="2.212" x="124.073" y="95.234" fill="#4A148C" rx="1.105"/><rect width="16.221" height="2.212" x="124.073" y="99.658" fill="#4A148C" rx="1.105"/><path fill="#fff" stroke="#7E57C2" stroke-width="3" d="M338.321 86.307a3.502 3.502 0 013.502 3.502v13.461a3.502 3.502 0 01-3.502 3.502h-12.396c-.069 0-.194.027-.367.175a1.765 1.765 0 00-.458.66 6.652 6.652 0 01-.315.669c-.317.588-.812 1.063-1.467 1.288a2.558 2.558 0 01-1.814-.071c-1.009-.415-1.752-1.389-1.958-2.526l-.007-.014a.796.796 0 00-.119-.152l-.029-.029h-5.086a3.502 3.502 0 01-3.502-3.502V89.81a3.502 3.502 0 013.502-3.503h24.016z"/><rect width="16.221" height="2.212" x="318.202" y="92.232" fill="#4A148C" rx="1.105"/><rect width="16.221" height="2.212" x="318.202" y="96.656" fill="#4A148C" rx="1.105"/><path stroke="#fff" stroke-dasharray="8 4" stroke-miterlimit="16" d="M237.754 155.854c-4.67 7.838-10.507 23.515-12.008 34.022m-6.004-65.043c-8.506-5.003-52.535-24.517-62.041-24.517m146.597-.5c-12.341 4.503-38.525 14.91-44.529 20.514m-47.532-53.536c8.839 8.172 27.118 28.219 29.52 43.029m108.572-6.004c13.009 3.335 45.43 19.513 71.047 57.538M395.359 46.28c-22.515 5.004-47.532 21.515-59.54 35.524M111.67 103.318c-10.007 5.671-31.621 19.914-38.025 31.521M45.126 75.3c19.513-.667 54.436 2.902 72.048 10.507m2.001 241.661c41.528 41.527 164.41 43.228 209.64 0"/><defs><linearGradient id="prefix__paint0_linear" x1="199.229" x2="199.229" y1="57.64" y2="33.921" gradientUnits="userSpaceOnUse"><stop stop-color="gray" stop-opacity=".25"/><stop offset=".54" stop-color="gray" stop-opacity=".12"/><stop offset="1" stop-color="gray" stop-opacity=".1"/></linearGradient><linearGradient id="prefix__paint1_linear" x1="9364.3" x2="9364.3" y1="11749.5" y2="6252.05" gradientUnits="userSpaceOnUse"><stop stop-color="gray" stop-opacity=".25"/><stop offset=".54" stop-color="gray" stop-opacity=".12"/><stop offset="1" stop-color="gray" stop-opacity=".1"/></linearGradient><linearGradient id="prefix__paint2_linear" x1="9179.57" x2="9179.57" y1="5650.79" y2="153.089" gradientUnits="userSpaceOnUse"><stop stop-color="gray" stop-opacity=".25"/><stop offset=".54" stop-color="gray" stop-opacity=".12"/><stop offset="1" stop-color="gray" stop-opacity=".1"/></linearGradient><linearGradient id="prefix__paint3_linear" x1="16108.6" x2="16108.6" y1="5666.48" y2="169.01" gradientUnits="userSpaceOnUse"><stop stop-color="gray" stop-opacity=".25"/><stop offset=".54" stop-color="gray" stop-opacity=".12"/><stop offset="1" stop-color="gray" stop-opacity=".1"/></linearGradient><linearGradient id="prefix__paint4_linear" x1="2761.1" x2="2761.1" y1="11514.4" y2="6016.98" gradientUnits="userSpaceOnUse"><stop stop-color="gray" stop-opacity=".25"/><stop offset=".54" stop-color="gray" stop-opacity=".12"/><stop offset="1" stop-color="gray" stop-opacity=".1"/></linearGradient><linearGradient id="prefix__paint5_linear" x1="9703.27" x2="9703.27" y1="17971.3" y2="12473.8" gradientUnits="userSpaceOnUse"><stop stop-color="gray" stop-opacity=".25"/><stop offset=".54" stop-color="gray" stop-opacity=".12"/><stop offset="1" stop-color="gray" stop-opacity=".1"/></linearGradient></defs></svg>