<svg xmlns="http://www.w3.org/2000/svg" width="389" height="367" fill="none" viewBox="0 0 389 367">
    <path fill="#FF8F00" d="M60.711 118.944l13.372 1.702-8.16 10.73-5.212-12.432z"/>
    <path fill="#44C4FF" d="M25.681 230l8.528 10.439-13.304 2.166L25.68 230z"/>
    <path fill="#FFF9C4" d="M311.681 37l8.528 10.44-13.304 2.165L311.681 37z"/>
    <path fill="#8CC440" d="M377.681 184l8.528 10.439-13.304 2.166L377.681 184z"/>
    <path fill="#FDD835" d="M235.681 0l8.528 10.44-13.304 2.165L235.681 0z"/>
    <circle cx="171" cy="135.75" r="4" fill="#8CC440"/>
    <circle cx="263" cy="204.75" r="4" fill="#FF8F00"/>
    <circle cx="86" cy="20.75" r="4" fill="#B28DF2"/>
    <rect width="67" height="67" x="88" y="16.75" fill="#0E67C0" rx="10"/>
    <rect width="65" height="65" x="223" y="62.75" fill="#0E67C0" rx="10"/>
    <rect width="100" height="100" y="263.75" fill="#0E67C0" rx="16"/>
    <rect width="44" height="44" x="151" y="319.75" fill="#0E67C0" rx="10"/>
    <rect width="59" height="59" x="131" y="203.75" fill="#0E67C0" rx="10"/>
    <rect width="100" height="100" x="289" y="245.75" fill="#0E67C0" rx="16"/>
    <path fill="#FFF9C4" d="M314.681 243l8.528 10.439-13.304 2.166L314.681 243z"/>
    <path fill="#094786" d="M387.002 219.305l-128.578 20.703-.545-124.999 128.578-82.26.545 186.556z"/>
    <path fill="#fff" d="M375.014 200.781l-111.143 23.972V120.148l111.143-60.324V200.78z"/>
    <path fill="#094786" d="M364.116 104.893l-93.71 41.964v-14.723l93.71-46.294v19.053z"/>
    <path fill="#1976D2" d="M364.116 144.12l-93.71 33.052v-14.528l93.71-37.324v18.8zM306.611 125.917c.018-.074.06-.141.12-.189.059-.048.133-.076.209-.078.077-.003.152.02.215.064.062.044.109.108.132.181l1.517 4.782 1.818 5.728c.026.084.02.175-.017.254-.036.08-.102.143-.183.177l-3.513 1.463-3.087 1.287c-.06.025-.126.033-.19.022-.064-.01-.124-.037-.173-.08-.05-.042-.086-.097-.106-.159-.02-.062-.022-.128-.007-.191l1.689-6.859 1.576-6.402z"/>
    <path fill="#FF8F00" d="M300.976 161.572c.03-.122.099-.232.197-.311.099-.08.22-.125.346-.129.127-.005.251.033.354.106.103.072.179.177.218.298l1.272 4.008 1.754 5.529c.044.138.034.288-.027.419-.061.132-.169.236-.303.291l-3.319 1.384-2.669 1.112c-.099.041-.208.054-.314.037-.106-.016-.205-.062-.287-.132-.081-.07-.141-.161-.174-.263-.033-.102-.037-.212-.011-.316l1.58-6.418 1.383-5.615z"/>
    <path fill="#F2F2F2" d="M364.116 183.347l-93.71 24.139v-15.422l93.71-28.673v19.956z"/>
    <path fill="#3F3D56" d="M361.939 115.492c0 3.281-1.47 6.543-3.269 7.281-1.783.73-3.217-1.3-3.217-4.529s1.434-6.477 3.217-7.259c1.799-.789 3.269 1.225 3.269 4.507z"/>
    <path fill="#fff" d="M359.759 116.416c0 1.094-.488 2.186-1.089 2.438-.6.251-1.084-.427-1.084-1.515 0-1.088.484-2.178 1.084-2.435.601-.258 1.089.419 1.089 1.512z"/>
    <path fill="#1976D2" d="M361.939 153.629c0 3.281-1.47 6.544-3.269 7.281-1.783.731-3.217-1.299-3.217-4.529 0-3.229 1.434-6.476 3.217-7.259 1.799-.789 3.269 1.226 3.269 4.507z"/>
    <path fill="#fff" d="M359.759 154.554c0 1.093-.488 2.185-1.089 2.437-.6.252-1.084-.427-1.084-1.515 0-1.088.484-2.178 1.084-2.435.601-.258 1.089.419 1.089 1.513z"/>
    <path fill="#F2F2F2" d="M361.939 191.766c0 3.281-1.47 6.544-3.269 7.281-1.783.731-3.217-1.299-3.217-4.528 0-3.23 1.434-6.477 3.217-7.259 1.799-.79 3.269 1.225 3.269 4.506z"/>
    <path fill="#fff" d="M359.759 192.691c0 1.094-.488 2.185-1.089 2.437-.6.252-1.084-.427-1.084-1.515 0-1.088.484-2.178 1.084-2.435.601-.258 1.089.419 1.089 1.513z"/>
    <path fill="#1976D2" d="M309.687 193.173c.03-.123.099-.232.197-.311.098-.08.22-.125.346-.13.126-.004.251.034.354.106.103.073.179.178.218.298l1.271 4.009 1.755 5.529c.044.138.034.288-.027.419-.061.132-.169.236-.303.291l-3.319 1.383-2.67 1.113c-.099.041-.207.054-.313.037-.106-.017-.205-.062-.287-.132-.081-.07-.142-.161-.174-.263-.033-.102-.037-.212-.011-.316l1.58-6.418 1.383-5.615z"/>
    <path fill="#F0BCC4" d="M287.572 186.47l5.069-4.676s11.475-7.904 7.467-12.249c-4.009-4.345-12.087 5.787-12.087 5.787l-5.013 3.284 4.564 7.854z"/>
    <path fill="#2F2E41" d="M220.546 188.646l-2.953 4.064s-4.127 15.87 16.756 16.713c0 0 26.671 12.929 33.273 4.828 6.602-8.1 24.819-27.585 24.819-27.585l-10.716-10.89-21.839 22.824-21.185-10.616s-10.913-6.018-18.155.662z"/>
    <path fill="#E6E6E6" d="M206.65 263.953L179 365.823l3.483.697 29.043-102.567h-4.876zM240.17 263.953l27.649 101.87-3.483.697-29.043-102.567h4.877zM221.281 261.863l4.637 104.131 4.027.179-5.18-105.703-3.484 1.393z"/>
    <path fill="#E6E6E6" d="M234.168 260.216c0 2.641-7.23 5.476-16.72 6.387-10.185.978-19.007-.609-19.007-3.612 0-3.002 8.822-5.96 19.007-6.565 9.49-.563 16.72 1.148 16.72 3.79z"/>
    <path fill="#2F2E41" d="M244.268 242.356l6.967 4.877s29.957 21.597 27.17 29.957c-2.786 8.36-18.113 41.8-18.113 41.8l-19.507-6.27 22.293-35.53-11.843-11.147-6.27-15.327-.697-8.36z"/>
    <path fill="#2F2E41" d="M217.1 229.816s-13.933 21.597-5.573 27.867 32.046 30.653 32.046 30.653l4.877 11.147 17.417 56.43 21.596-11.147-19.506-43.89s-2.09-16.023-9.057-25.08c-6.967-9.056-9.753-22.293-9.753-22.293l2.09-6.27-12.474-19.959-21.663 2.542z"/>
    <path fill="#2F2E41" d="M254.986 314.997l-12.522-3.811s-13.521-.556-12.825 4.32c.697 4.877 11.844 36.924 15.327 34.834 3.483-2.09.697-11.844.697-11.844l9.323-23.499z"/>
    <path fill="#6C63FF" d="M233.82 188.713l-12.373-20.491-4.347.984v6.967l-1.393 58.52 22.99-3.483s1.393-37.62-4.877-42.497z"/>
    <path fill="#2F2E41" d="M227.549 188.016l-10.45-18.81-9.057 4.18-16.023 65.487-9.753 18.81s32.046 16.023 39.71 0c7.663-16.023 8.36-51.553 8.36-51.553l-2.787-18.114z"/>
    <path fill="#2F2E41" d="M212.224 176.173l-4.18-2.787s-16.023-3.483-16.023 17.417c0 0-11.843 27.17-3.483 33.44 8.36 6.27 28.563 23.687 28.563 23.687l10.45-11.147-23.687-20.9 9.754-21.597s5.573-11.146-1.394-18.113z"/>
    <path fill="#F0BCC4" d="M217.102 243.053l4.876 4.877s8.36 11.147 12.54 6.967c4.18-4.18-6.27-11.844-6.27-11.844l-3.483-4.876-7.663 4.876z"/>
    <path fill="#2F2E41" d="M233.014 182.391l11.955 29.312s4.876 14.63 4.876 20.203v15.327l-13.236-17.417s-7.189-45.388-3.595-47.425zM271.075 350.357s-3.452 13.589 1.078 14.739c4.53 1.151 42.535 2.124 42.559-4.299.024-6.423-24.666-11.729-24.666-11.729l-9.121-5.853-9.85 7.142z"/>
    <path fill="#F0BCC3" fill-rule="evenodd" d="M248.449 162.24c0 6.925-5.614 12.54-12.54 12.54h-.017l-4.511 12.888-11.147-18.114 3.592-3.95c-.298-1.071-.457-2.199-.457-3.364 0-6.926 5.614-12.54 12.54-12.54 6.926 0 12.54 5.614 12.54 12.54z" clip-rule="evenodd"/>
    <path fill="#2F2E41" d="M249.283 159.988s2.449-10.615 0-13.064v1.633s-1.633-5.715-4.899-4.082c0 0-4.082-3.266-4.899-1.633-4.804-4.344-26.106-.272-15.766 22.532 0 0 1.886-7.019 1.886-4.57 0 0 4.899-4.899 5.715-6.532.817-1.633 14.697 8.982 17.963 5.716z"/>
    <circle cx="167" cy="58.75" r="13.5" fill="#fff" stroke="#0E67C0" stroke-width="3"/>
    <path fill="#094786" d="M170.693 58.69c-.019-1.93 1.574-2.856 1.645-2.903-.895-1.309-2.29-1.488-2.786-1.508-1.186-.121-2.315.698-2.917.698-.6 0-1.53-.68-2.513-.664-1.294.02-2.486.753-3.152 1.911-1.344 2.33-.344 5.785.965 7.677.64.924 1.404 1.964 2.405 1.926.965-.038 1.329-.624 2.496-.624s1.494.624 2.515.605c1.038-.019 1.696-.942 2.331-1.87.735-1.075 1.037-2.115 1.055-2.168-.022-.01-2.023-.777-2.044-3.08z"/>
    <path fill="#094786" d="M168.775 53.182c.531-.645.891-1.54.793-2.432-.767.03-1.694.509-2.244 1.153-.493.572-.924 1.482-.809 2.357.855.067 1.727-.435 2.26-1.078z"/>
    <circle cx="90" cy="47.75" r="13.5" fill="#fff" stroke="#0E67C0" stroke-width="3"/>
    <path fill="#094786" d="M85.902 45.226v5.603h.004c.039.473.474.85 1.001.85h5.634c.527 0 .963-.377 1.002-.85h.003v-5.603h-7.644zM85.61 49.33c0 .552-.385 1.004-.856 1.004-.47 0-.856-.452-.856-1.004v-3.29c0-.552.386-1.004.856-1.004s.856.452.856 1.005v3.289z"/>
    <path fill="#094786" d="M89.176 53.411c0 .553-.385 1.005-.856 1.005-.47 0-.855-.452-.855-1.005v-3.288c0-.553.385-1.005.855-1.005.471 0 .856.452.856 1.005v3.288zM92.028 53.411c0 .553-.385 1.005-.856 1.005-.47 0-.856-.452-.856-1.005v-3.288c0-.553.385-1.005.856-1.005.47 0 .856.452.856 1.005v3.288zM95.586 49.33c0 .552-.385 1.004-.855 1.004s-.856-.452-.856-1.004v-3.29c0-.552.385-1.004.856-1.004.47 0 .855.452.855 1.005v3.289zM91.614 41.857l.549-.985c.045-.08.032-.175-.03-.209-.06-.033-.147.005-.192.085l-.562 1.008c-.5-.197-1.062-.308-1.655-.308-.597 0-1.163.112-1.666.312l-.565-1.012c-.044-.08-.131-.118-.192-.085-.06.034-.074.128-.03.209l.552.99c-1.147.539-1.92 1.551-1.92 2.711 0 .118.008.234.023.349h7.596c.016-.115.024-.231.024-.349 0-1.164-.778-2.179-1.932-2.716zm-3.624 1.72c-.185 0-.334-.15-.334-.335 0-.185.15-.334.334-.334.184 0 .334.15.334.334 0 .184-.15.334-.334.334zm3.488 0c-.185 0-.335-.15-.335-.335 0-.185.15-.334.335-.334.184 0 .334.15.334.334 0 .184-.15.334-.334.334z"/>
    <circle cx="264" cy="52.75" r="13.5" fill="#fff" stroke="#0E67C0" stroke-width="3"/>
    <path fill="#094786" d="M264.408 45.805c-.535.002-1.046.048-1.495.128-1.324.233-1.564.723-1.564 1.626v1.192h3.128v.398h-4.302c-.91 0-1.706.546-1.955 1.585-.287 1.192-.3 1.936 0 3.18.223.926.754 1.586 1.663 1.586h1.075v-1.43c0-1.032.894-1.943 1.955-1.943h3.125c.869 0 1.564-.716 1.564-1.59V47.56c0-.848-.715-1.485-1.564-1.627-.538-.089-1.096-.13-1.63-.127zm-1.692.959c.323 0 .587.268.587.598 0 .328-.264.594-.587.594-.324 0-.587-.266-.587-.594 0-.33.263-.598.587-.598z"/>
    <path fill="#094786" d="M267.991 49.148v1.39c0 1.077-.913 1.983-1.954 1.983h-3.125c-.856 0-1.564.733-1.564 1.59v2.979c0 .847.737 1.346 1.564 1.59.99.29 1.94.343 3.125 0 .787-.228 1.564-.688 1.564-1.59v-1.193h-3.125V55.5h4.689c.909 0 1.248-.634 1.564-1.586.327-.98.313-1.922 0-3.18-.225-.904-.654-1.586-1.564-1.586h-1.174zm-1.757 7.544c.324 0 .587.266.587.594 0 .33-.263.599-.587.599-.324 0-.587-.269-.587-.599 0-.328.263-.594.587-.594z"/>
    <circle cx="121" cy="124.75" r="13.5" fill="#fff" stroke="#0E67C0" stroke-width="3"/>
    <path fill="#094786" d="M127 121.246v7.002l-1.716.997v-6.993l-4.289-2.504-4.293 2.504.011 6.996-1.713-1v-6.996l6.005-3.502 5.995 3.496zm-5.145 7.999l-.855.503-.861-.497v-6.999l-1.713 1.001.003 6.996 2.568 1.501 2.574-1.501v-6.999l-1.716-1v6.995z"/>
    <circle cx="90" cy="212.75" r="13.5" fill="#fff" stroke="#0E67C0" stroke-width="3"/>
    <path fill="#094786" d="M89.81 205.046L83 207.475l1.039 9.005 5.772 3.197 5.771-3.197 1.04-9.005-6.811-2.429z"/>
    <path fill="#093D73" d="M89.813 205.046v1.624-.007 13.014l5.771-3.197 1.04-9.005-6.811-2.429z"/>
    <path fill="#fff" d="M89.812 206.663l-4.257 9.547h1.587l.856-2.137h3.614l.856 2.137h1.587l-4.243-9.547zm1.244 6.094h-2.487l1.243-2.992 1.244 2.992z"/>
    <circle cx="157" cy="283.75" r="13.5" fill="#fff" stroke="#0E67C0" stroke-width="3"/>
    <path fill="#094786" d="M150.543 287.113h.948l1.002 2.443h.042l1.002-2.443h.948v3.637h-.746v-2.367h-.03l-.941 2.349h-.508l-.941-2.358h-.03v2.376h-.746v-3.637zM156.336 290.803c-.276 0-.514-.059-.715-.176-.2-.118-.355-.283-.464-.493-.109-.212-.163-.458-.163-.737 0-.282.054-.528.163-.739.109-.212.264-.376.464-.494.201-.118.439-.177.715-.177.276 0 .514.059.714.177.201.118.356.282.465.494.109.211.164.457.164.739 0 .279-.055.525-.164.737-.109.21-.264.375-.465.493-.2.117-.438.176-.714.176zm.004-.586c.125 0 .23-.036.314-.107.084-.072.147-.17.19-.294.044-.125.066-.266.066-.425 0-.158-.022-.3-.066-.424-.043-.124-.106-.223-.19-.295-.084-.072-.189-.108-.314-.108-.127 0-.233.036-.32.108-.085.072-.15.171-.193.295-.043.124-.064.266-.064.424 0 .159.021.3.064.425.043.124.108.222.193.294.087.071.193.107.32.107zM158.17 290.75v-2.728h.734v.476h.028c.05-.169.133-.297.25-.383.118-.088.253-.132.405-.132.038 0 .079.003.123.007.044.005.082.012.115.02v.671c-.035-.011-.084-.02-.147-.028-.063-.009-.12-.013-.172-.013-.112 0-.211.025-.299.073-.086.047-.155.114-.206.199-.049.085-.074.183-.074.295v1.543h-.757zM161.332 290.803c-.28 0-.522-.057-.724-.171-.201-.114-.357-.277-.465-.486-.109-.211-.164-.46-.164-.748 0-.28.055-.526.164-.738.108-.212.262-.377.459-.496.199-.118.433-.177.7-.177.18 0 .347.029.503.087.156.057.292.143.408.257.117.115.208.26.273.434.065.172.098.375.098.607v.208h-2.303v-.469h1.591c0-.109-.024-.206-.071-.29-.047-.084-.113-.149-.197-.197-.083-.048-.179-.073-.29-.073-.114 0-.216.027-.305.08-.088.052-.156.123-.206.212-.05.087-.075.185-.076.293v.445c0 .135.025.252.074.35.051.098.123.174.215.227.092.054.202.08.329.08.084 0 .161-.012.23-.035.07-.024.13-.059.18-.107.05-.047.087-.105.113-.174l.7.046c-.036.168-.108.315-.218.441-.109.124-.25.221-.423.291-.172.069-.37.103-.595.103z"/>
    <circle cx="157" cy="277.75" r="1" fill="#094786"/>
    <circle cx="157" cy="280.75" r="1" fill="#094786"/>
    <circle cx="157" cy="283.75" r="1" fill="#094786"/>
    <circle cx="161" cy="184.75" r="13.5" fill="#fff" stroke="#0E67C0" stroke-width="3"/>
    <path fill="#094786" d="M157.661 178.104h.623v.682h.681v-2.036h-.681v.673h-.623v-.673h-.681v2.036h.681v-.682zM159.861 178.786h.68v-1.36h.599v-.676h-1.878v.676h.599v1.36zM162.103 177.777l.469.724h.011l.469-.724v1.009h.678v-2.036h-.71l-.437.716-.436-.716h-.709v2.036h.665v-1.009zM165.708 178.114h-.957v-1.364h-.681v2.036h1.638v-.672zM156 179.68l.974 10.919 4.37 1.213 4.374-1.212.975-10.92H156zm8.581 3.571h-5.125l.122 1.372h4.881l-.367 4.112-2.746.761-.002.001-2.743-.762-.192-2.151h1.345l.099 1.116 1.492.403h.002l1.493-.404.155-1.737h-4.641l-.362-4.05h6.708l-.119 1.339z"/>
    <circle cx="207" cy="106.75" r="13.5" fill="#fff" stroke="#0E67C0" stroke-width="3"/>
    <path fill="#094786" d="M201 110.156l4.438.643v-4.246H201v3.603zm0-4.21h4.438V101.7l-4.438.643v3.603zm5.045 4.941l5.955.863v-5.197h-5.955v4.334zm0-9.275v4.334H212v-5.196l-5.955.862z"/>
</svg>
