<svg xmlns="http://www.w3.org/2000/svg" width="478" height="369" fill="none"><rect width="100" height="100" x="41" y="269" fill="#233843" rx="16"/><rect width="100" height="100" x="374" y="89" fill="#233843" rx="16"/><rect width="100" height="100" x="101" y="17" fill="#233843" rx="16"/><rect width="161" height="208" x="217" y="49" fill="#0E171B" rx="4"/><rect width="45" height="45" x="316" y="7" fill="#233843" rx="10"/><rect width="45" height="45" x="234" y="118" fill="#557382" rx="10"/><rect width="63" height="63" x="415" fill="#233843" rx="10"/><rect width="37" height="37" x="125.027" y="204" fill="#3B4C55" rx="4"/><path fill="url(#prefix__paint0_linear)" fill-opacity=".3" d="M229 242l117 89 42-102-25.5-172H229v185z"/><path stroke="#fff" stroke-dasharray="8 4" stroke-linecap="round" stroke-linejoin="round" stroke-width="2" d="M159 267v11a8 8 0 008 8h160.5"/><path stroke="#fff" stroke-dasharray="8 4" stroke-linecap="round" stroke-linejoin="round" stroke-width="2" d="M122 96v196a8 8 0 008 8h197"/><path stroke="#fff" stroke-dasharray="8 4" stroke-linecap="round" stroke-linejoin="round" stroke-width="2" d="M56 211v111a8 8 0 008 8h263"/><path stroke="#fff" stroke-dasharray="8 4" stroke-linecap="round" stroke-linejoin="round" stroke-width="2" d="M91 307v0a8 8 0 008 8h228"/><path fill="#FF8F00" d="M408.711 90.194l13.372 1.703-8.16 10.729-5.212-12.432z"/><path fill="#06AAF5" d="M10.681 197.25l8.528 10.439-13.304 2.166 4.776-12.605z"/><path fill="#FFF9C4" d="M302.681 14.263l8.528 10.44-13.304 2.165 4.776-12.605zm115 283.987l8.528 10.439-13.304 2.166 4.776-12.605z"/><path fill="#FFD037" d="M231.003 15.542l-9.655 9.408-3.319-13.065 12.974 3.657z"/><path fill="#8CC440" d="M70.681 346.25l8.528 10.439-13.304 2.166 4.776-12.605z"/><path fill="#FF8F00" d="M57.899 95.194l13.372 1.703-8.16 10.729-5.212-12.432z"/><path fill="#8CC440" d="M339.681 159.25l8.528 10.439-13.304 2.166 4.776-12.605z"/><circle cx="153.027" cy="26" r="4" fill="#8CC440"/><circle cx="419" cy="200" r="4" fill="#8CC440"/><circle cx="27" cy="269" r="4" fill="#FF8F00"/><circle cx="282" cy="142" r="4" fill="#FF8F00"/><circle cx="197" cy="257" r="4" fill="#FF8F00"/><circle cx="161" cy="138" r="24" fill="#7E57C2"/><circle cx="161" cy="138" r="18" fill="#fff"/><path fill="#094786" d="M166.364 138.24c-.025-2.489 2.029-3.683 2.121-3.743-1.154-1.688-2.953-1.92-3.593-1.946-1.53-.156-2.986.901-3.762.901-.775 0-1.974-.878-3.242-.856-1.669.025-3.207.97-4.065 2.464-1.733 3.006-.444 7.461 1.245 9.901.825 1.192 1.81 2.534 3.101 2.485 1.245-.049 1.715-.805 3.22-.805 1.505 0 1.927.805 3.244.78 1.339-.024 2.187-1.215 3.006-2.413.948-1.385 1.338-2.727 1.361-2.794-.029-.014-2.61-1.002-2.636-3.974z"/><path fill="#094786" d="M163.888 131.137c.685-.832 1.149-1.987 1.023-3.137-.988.039-2.185.656-2.895 1.487-.635.737-1.191 1.911-1.042 3.041 1.102.085 2.227-.562 2.914-1.391z"/><circle cx="55" cy="182" r="24" fill="#FF8F00"/><circle cx="55" cy="182" r="18" fill="#fff"/><path fill="#094786" d="M47 187.682l6.456.935v-6.176H47v5.241zm0-6.123h6.456v-6.177l-6.456.935v5.242zm7.338 7.186L63 190v-7.559h-8.662v6.304zm0-13.492v6.306H63V174l-8.662 1.253z"/><circle cx="122" cy="62.999" r="24" fill="#7E57C2"/><circle cx="122" cy="62.999" r="18" fill="#fff"/><path fill="#094786" fill-rule="evenodd" d="M132.856 62.365a4.998 4.998 0 013.117 4.634c0 2.756-2.239 5-5 5h-17.001a4.995 4.995 0 01-4.999-5 5.005 5.005 0 013.012-4.588 7 7 0 0113.081-3.859 5.503 5.503 0 017.79 3.813z" clip-rule="evenodd"/><circle cx="90" cy="277" r="24" fill="#7E57C2"/><circle cx="90" cy="277" r="18" fill="#fff"/><path fill="#094786" d="M100 276.975a9.345 9.345 0 00-1.112-4.429c.2-.497.436-1.175.693-2.089.829-2.954-1.078-4.714-4.004-4.427-1.776.174-3.449.646-5.066 1.35-.13-.005-.262-.008-.393-.008-4.866 0-8.91 3.417-9.73 7.916 2.032-2.854 4.998-4.366 4.998-4.366-2.025 2.061-3.771 4.089-5.068 6.227-.025.038-.05.077-.073.117-1.083 1.81-1.84 3.702-2.166 5.761-.447 2.824 1.013 4.332 4.133 3.899 1.072-.149 3.014-1.058 3.564-1.324 1.31.624 2.784.975 4.342.975 4.302 0 7.962-2.672 9.319-6.402h-5.349a4.421 4.421 0 01-3.82 2.154c-2.362 0-4.288-1.806-4.397-4.074h14.041c.058-.419.088-.846.088-1.28zm-17.728 9.253c-1.669.171-3.823-1.596-1.368-5.775a9.709 9.709 0 004.087 4.731c-.51.279-1.82.952-2.72 1.044zm3.631-10.825c.28-2.101 2.126-3.724 4.364-3.724 2.239 0 4.086 1.623 4.365 3.724h-8.729zm7.916-7.334c4.166-1.898 5.68.129 5.223 2.196-.063.285-.292 1.042-.495 1.695a9.846 9.846 0 00-4.728-3.891z"/><circle cx="158" cy="235" r="24" fill="#8CC440"/><circle cx="158" cy="235" r="18" fill="#fff"/><path fill="#094786" d="M152.715 232.262v7.67h.004c.054.648.65 1.163 1.372 1.163h7.712c.722 0 1.318-.515 1.372-1.163h.004v-7.67h-10.464zm-.4 5.618c0 .757-.527 1.376-1.171 1.376s-1.171-.619-1.171-1.376v-4.502c0-.757.527-1.376 1.171-1.376s1.171.619 1.171 1.376v4.502z"/><path fill="#094786" d="M157.198 243.468c0 .757-.527 1.376-1.171 1.376s-1.172-.619-1.172-1.376v-4.502c0-.757.528-1.376 1.172-1.376.644 0 1.171.619 1.171 1.376v4.502zm3.903 0c0 .757-.528 1.376-1.172 1.376-.644 0-1.171-.619-1.171-1.376v-4.502c0-.757.527-1.376 1.171-1.376s1.172.619 1.172 1.376v4.502zm4.871-5.588c0 .757-.527 1.376-1.172 1.376-.644 0-1.171-.619-1.171-1.376v-4.502c0-.757.527-1.376 1.171-1.376.645 0 1.172.619 1.172 1.376v4.502zm-5.438-10.23l.752-1.349c.061-.11.043-.238-.041-.284-.083-.047-.202.005-.263.115l-.769 1.38a6.189 6.189 0 00-2.266-.421c-.818 0-1.592.154-2.282.427l-.772-1.386c-.061-.11-.18-.162-.263-.115-.084.046-.102.174-.04.284l.755 1.356c-1.572.738-2.63 2.124-2.63 3.712 0 .161.011.32.032.477h10.4c.021-.157.032-.316.032-.477 0-1.593-1.065-2.983-2.645-3.719zm-4.961 2.354a.458.458 0 110-.916.458.458 0 010 .916zm4.774 0a.458.458 0 11.001-.915.458.458 0 01-.001.915z"/><path fill="#06AAF5" d="M223.681 349.25l8.528 10.439-13.304 2.166 4.776-12.605z"/><path fill="#F06292" d="M7.681 66.25l8.528 10.44-13.304 2.165L7.68 66.25z"/><path fill="url(#prefix__paint1_linear)" d="M228.898 57v189h135.938V57H228.898z"/><path fill="#F6F7F9" d="M363.647 58.658H230.094v7.205h133.553v-7.205z"/><path fill="#06AAF5" d="M363.647 58.658H230.094v7.205h133.553v-7.205z"/><path fill="#DADADA" d="M363.647 65.863H230.094v178.479h133.553V65.862z"/><path fill="#F6F7F9" d="M233.604 63.48a1.221 1.221 0 10.002-2.444 1.221 1.221 0 00-.002 2.445zm3.313 0a1.221 1.221 0 10.002-2.444 1.221 1.221 0 00-.002 2.445zm3.309 0a1.22 1.22 0 100-2.444 1.22 1.22 0 000 2.445z"/><path fill="#fff" d="M339.808 76.866H253.93v3.362h85.878v-3.362z"/><path fill="#6C63FF" d="M339.805 76.866h-11.41v3.362h11.41v-3.362z"/><path fill="#fff" d="M291.664 145.576h-46.043a4 4 0 00-4 4v30.711a4 4 0 004 4h46.043a4 4 0 004-4v-30.711a4 4 0 00-4-4zm0-50.214h-46.043a4 4 0 00-4 4v30.71a4 4 0 004 4h46.043a4 4 0 004-4v-30.71a4 4 0 00-4-4zm0 99.775h-46.043a4 4 0 00-4 4v30.711a4 4 0 004 4h46.043a4 4 0 004-4v-30.711a4 4 0 00-4-4zm56.453-49.561h-46.043a4 4 0 00-4 4v30.711a4 4 0 004 4h46.043a4 4 0 004-4v-30.711a4 4 0 00-4-4zm0-50.214h-46.043a4 4 0 00-4 4v30.71a4 4 0 004 4h46.043a4 4 0 004-4v-30.71a4 4 0 00-4-4zm0 99.775h-46.043a4 4 0 00-4 4v30.711a4 4 0 004 4h46.043a4 4 0 004-4v-30.711a4 4 0 00-4-4z"/><path fill="#6C63FF" d="M311.89 102.842s-.49-1.224 2.816-.919c3.306.306 12.798 1.361 16.902.437 4.105-.924 6.551-1.219 6.307 0-.244 1.219-7.102 3.973-7.102 3.973l-8.882.919-6.55-1.042-3.518-2.082.027-1.286z"/><path fill="#000" d="M337.922 102.36c-.247 1.219-7.103 3.973-7.103 3.973l-8.881.919-6.55-1.04-3.515-2.081.024-1.286a.534.534 0 01.187-.592c.303-.268 1.01-.477 2.629-.327 3.308.305 12.798 1.358 16.902.434 3.344-.753 5.589-1.088 6.162-.536a.532.532 0 01.145.536z" opacity=".1"/><path fill="#6C63FF" d="M343.199 120.907a38.338 38.338 0 00-15.758 6.979 2.93 2.93 0 00-1.257-1.492 4.446 4.446 0 00-1.275-.536c-.41-.104-.804.145-1.166.504-.416.46-.765.977-1.036 1.535-6.245-4.286-15.719-7.022-15.719-7.022v-.857c0-.169.03-.373.062-.603.032-.23.072-.434.123-.683.804-4.088 3.981-13.43 3.981-13.43h3.593l6.966 1.446 7.836-.479 7.893-1.643 1.023-.214c1.707 1.34 3.644 10.717 4.405 14.708.096.507.171.925.227 1.233.067.348.102.554.102.554z"/><path fill="#6C63FF" d="M308.287 119.137c.207-3.925 3.325-12.431 3.853-13.843h-.983s-3.365 9.912-4.048 13.781a.07.07 0 000 .029c-.019.105-.038.207-.051.303a6.945 6.945 0 00-.062.603v.857s9.473 2.738 15.718 7.022a6.62 6.62 0 011.037-1.535c-2.387-2.17-11.44-5.706-15.464-7.217zm34.812 1.205a34.656 34.656 0 00-.086-.469 67.25 67.25 0 00-.142-.764c-.76-3.997-2.697-13.376-4.404-14.708l-1.023.214c.621 1.67 4.626 12.568 4.286 14.695-6.698 1.34-13.486 5.693-15.539 7.084a2.925 2.925 0 011.257 1.492 38.338 38.338 0 0115.758-6.979l-.107-.565z"/><path fill="#000" d="M308.534 118.89c.203-3.925 3.324-12.431 3.852-13.84h-.986s-3.365 9.912-4.048 13.778v.03c-.02.107-.036.209-.048.305a6.945 6.945 0 00-.062.603v.857s9.471 2.736 15.718 7.022a6.5 6.5 0 011.035-1.535c-2.387-2.164-11.437-5.709-15.461-7.22z" opacity=".1"/><path fill="#6C63FF" d="M308.287 119.137c.207-3.925 3.325-12.431 3.853-13.843h-.983s-3.365 9.912-4.048 13.781a.07.07 0 000 .029c-.019.105-.038.207-.051.303a6.945 6.945 0 00-.062.603v.857s9.473 2.738 15.718 7.022a6.62 6.62 0 011.037-1.535c-2.387-2.17-11.44-5.706-15.464-7.217z"/><path fill="#000" d="M342.854 120.095l-.085-.468c-.043-.225-.089-.477-.142-.764-.759-3.994-2.698-13.374-4.405-14.708l-1.021.217c.622 1.669 4.627 12.567 4.287 14.695-6.698 1.339-13.489 5.693-15.539 7.081a2.926 2.926 0 011.257 1.494 38.29 38.29 0 0115.756-6.981s-.041-.201-.108-.566z" opacity=".1"/><path fill="#6C63FF" d="M343.099 120.342a34.656 34.656 0 00-.086-.469 67.25 67.25 0 00-.142-.764c-.76-3.997-2.697-13.376-4.404-14.708l-1.023.214c.621 1.67 4.626 12.568 4.286 14.695-6.698 1.34-13.486 5.693-15.539 7.084a2.925 2.925 0 011.257 1.492 38.338 38.338 0 0115.758-6.979l-.107-.565z"/><path fill="#000" d="M310.616 110.137s6.215 3.912 7.667-1.816l1.383.37s.455 6.347-9.463 2.724l.413-1.278z" opacity=".1"/><path fill="#6C63FF" d="M310.616 109.647s6.215 3.912 7.667-1.816l1.383.37s.455 6.346-9.463 2.724l.413-1.278z"/><path fill="#000" d="M330.172 108.506s.804 4.68 9.32 2.411l-.3-.884s-5.816 2.411-7.924-1.776l-1.096.249z" opacity=".1"/><path fill="#6C63FF" d="M330.172 108.015s.804 4.681 9.32 2.411l-.3-.884s-5.816 2.412-7.924-1.776l-1.096.249z"/><path fill="#000" d="M324.504 108.444v9.768h1.511s2.09-.753 2.041-5.144c-.048-4.391-.367-5.572-.367-5.572l-3.185.948z" opacity=".1"/><path fill="#6C63FF" d="M324.258 108.201v9.768h1.511s2.09-.753 2.041-5.144c-.048-4.391-.369-5.573-.369-5.573l-3.183.949z"/><path fill="#000" d="M338.46 104.894c-.616 1.147-6.21 3.03-7.199 3.354l-.15.048s-.353.092-.946.215c-1.8.375-5.813 1.071-8.841.461-.439-.086-.894-.18-1.358-.268l-1.072-.233c-3.482-.775-7.086-1.787-7.726-2.68 0 0 .174-2.912.761-2.834.587.078 7.137 2.834 7.137 2.834l.094.014c.169.021.552.07 1.09.131 2.127.233 6.609.603 9.021-.043a17.065 17.065 0 00.894-.3c3.103-1.098 7.748-3.065 7.748-3.065s1.227 1.104.547 2.366z" opacity=".1"/><path fill="#000" d="M337.922 102.36c-.247 1.219-7.103 3.973-7.103 3.973l-8.881.919-6.55-1.039-3.515-2.082.024-1.286a.534.534 0 01.187-.592c1.166.354 6.966 2.794 6.966 2.794l.094.014c.169.021.552.069 1.09.131 2.127.233 6.61.603 9.021-.043a15.724 15.724 0 00.895-.3c2.805-.994 6.874-2.698 7.627-3.014a.53.53 0 01.145.525z" opacity=".1"/><path fill="#6C63FF" d="M338.46 104.402c-.616 1.146-6.21 3.027-7.199 3.351l-.15.051s-.353.088-.946.212c-1.8.375-5.813 1.071-8.841.46-.439-.085-.894-.179-1.358-.267l-1.072-.234c-3.482-.774-7.086-1.787-7.726-2.679 0 0 .174-2.912.761-2.831.587.08 7.137 2.831 7.137 2.831l.094.014c.169.021.552.072 1.09.131 2.127.233 6.609.603 9.021-.043a15.048 15.048 0 00.894-.3c3.103-1.098 7.748-3.065 7.748-3.065s1.227 1.112.547 2.369z"/><path fill="#000" d="M325.563 108.476a.98.98 0 100-1.96.98.98 0 000 1.96z" opacity=".1"/><path fill="#6C63FF" d="M325.563 108.23a.98.98 0 100-1.96.98.98 0 000 1.96z"/><path fill="#000" d="M320.484 105.43l-.268 2.765-1.071-.233.267-2.663c.15.026.536.077 1.072.131z" opacity=".1"/><path fill="#6C63FF" d="M320.242 105.43l-.268 2.765-1.072-.233.268-2.663c.148.026.536.077 1.072.131z"/><path fill="#000" d="M331.021 107.753l-.15.051s-.351.088-.946.211l-.913-2.623a13.54 13.54 0 00.897-.3l1.112 2.661z" opacity=".1"/><path fill="#6C63FF" d="M331.267 107.753l-.15.051s-.354.088-.946.211l-.913-2.623a14.061 14.061 0 00.895-.3l1.114 2.661z"/><g opacity=".5"><path fill="#6C63FF" d="M262.168 100.607a7.086 7.086 0 013.561.989s3.263.397 5.042 0c1.779-.396 2.679-1.779 3.016-1.385.338.394.346 4.104.346 4.104l-1.532 4.105-3.462 2.569-5.487-1.581-1.816-4.643.332-4.158z" opacity=".5"/><path fill="#000" d="M274.133 104.32l-1.532 4.105-3.462 2.569-5.487-1.581-1.816-4.648.346-4.153h.08a7.278 7.278 0 013.483.992s3.263.396 5.042 0c1.69-.375 2.58-1.645 2.947-1.431.021.01.041.025.056.043.343.391.343 4.104.343 4.104z" opacity=".1"/><path fill="#000" d="M274.133 104.321l-1.532 4.104-3.462 2.569-5.487-1.58-1.816-4.648.346-4.153h.08c.305 1.31 1.607 5.447 5.755 5.739 4.265.297 5.476-4.777 5.728-6.176.021.01.04.025.056.043.332.389.332 4.102.332 4.102z" opacity=".1"/><path fill="#6C63FF" d="M262.167 100.607s.89 5.785 5.835 6.13c4.946.346 5.784-6.526 5.784-6.526s7.17 2.35 8.841 6.54c1.672 4.19 2.918 7.552 2.918 7.552s-.536.938-1.139 1.037c-.602.099-4.696 2.917-4.696 2.917s-.048 8.011.396 8.504c.445.493.298 2.62-1.039 2.521-1.337-.099-10.58-2.176-18.486-.445 0 0-3.311 1.187-3.215-.742.097-1.929.247-9.492.247-9.492s-4.994-2.175-5.289-2.175c-.295 0-1.039-.392-.249-1.68.79-1.289 1.782-5.685 1.782-5.685s1.982-6.312 8.31-8.456z" opacity=".5"/><path fill="#000" d="M277.543 110.994s1.484 1.088 1.139 1.929c-.346.842-1.139-1.929-1.139-1.929zm2.174 1.045a2.683 2.683 0 000 1.476v-1.476zm.989 2.714s.199 1.34-.394 1.482l.394-1.482zm-20.171-4.104s-2.767 2.411-1.829 3.362l1.829-3.362zm-1.73 5.834s-.045 2.521.718 2.72l-.718-2.72zm7.961 8.453s1.875-1.283 2.373-1.235l-2.373 1.235zm1.875 1.337s2.03-1.436 2.574-1.34l-2.574 1.34z" opacity=".1"/></g><g opacity=".5"><path fill="#6C63FF" d="M312.738 149.273s16.177.767 24.219.295l-.176 2.122-14.232 1.875-4.211-1.296-5.6-2.996z" opacity=".5"/><path fill="#000" d="M336.968 149.568l-.177 2.122-14.228 1.875-4.215-1.296-5.61-2.996s.332.019.925.043c3.509.153 16.147.646 23.085.268l.22-.016z" opacity=".1"/><path fill="#6C63FF" d="M342.567 179.741c-3.124 1.875-13.966.059-13.966.059l-3.006-10.717-3.359 10.901c-4.772 1.71-14.615-.766-14.615-.766l3.831-23.576.662-3.25.624-3.118 6.071 1.827s1.824 1.238 9.428.884c7.603-.353 8.72-2.411 8.72-2.411.335.096.654 1.278.975 2.746.467 2.143.941 4.892 1.501 5.8.954 1.527 3.134 21.621 3.134 21.621z" opacity=".5"/><path fill="#000" d="M337.943 152.55c-6.779 3.721-12.614 3.619-12.614 3.619-1.444.177-13.216-3.544-13.216-3.544l.625-3.116 6.07 1.827s1.825 1.238 9.428.884c7.603-.354 8.721-2.411 8.721-2.411.345.094.664 1.272.986 2.741z" opacity=".1"/><path fill="#000" d="M336.968 149.568l-.177 2.122-14.228 1.875-4.215-1.296-5.61-2.996s.332.019.925.043l5.143 1.549s1.825 1.238 9.428.884c5.972-.268 7.944-1.608 8.514-2.167l.22-.014z" opacity=".1"/><path fill="#6C63FF" d="M337.943 152.314c-6.779 3.721-12.614 3.62-12.614 3.62-1.444.177-13.216-3.545-13.216-3.545l.625-3.116 6.07 1.828s1.825 1.237 9.428.884c7.603-.354 8.721-2.412 8.721-2.412.345.092.664 1.273.986 2.741z" opacity=".5"/><path fill="#000" d="M326.478 155.371a.619.619 0 100-1.238.619.619 0 000 1.238z" opacity=".1"/><path stroke="#6C63FF" stroke-miterlimit="10" d="M326.478 155.135a.619.619 0 100-1.238.619.619 0 000 1.238z" opacity=".5"/><path fill="#000" d="M310.656 165.597s1.091 3.242 1.857 3.183c.766-.059-1.857-3.183-1.857-3.183zm-.707 3.183s.678 1.945 1.385 2.269l-1.385-2.269zm0 2.033s1.072 1.356 1.707 1.68l-1.707-1.68zm28.778-12.256s1.002 1.503 0 1.827v-1.827zm.453 2.443c-1.163-1.38-.445 1.875-.445 1.875s.742-1.521.445-1.875zm.586 1.68s-1.768 2.623-1.415 2.917l1.415-2.917zm-23.391-4.068c-2.168 0-4.429-.98-4.555-1.039l.097-.217c.043.021 4.369 1.899 6.711.49.884-.536 1.38-1.479 1.476-2.813l.236.019c-.102 1.415-.638 2.411-1.592 2.995a4.55 4.55 0 01-2.373.565z" opacity=".1"/><path fill="#6C63FF" d="M316.375 158.377c-2.168 0-4.429-.98-4.555-1.039l.097-.215c.043.019 4.369 1.897 6.711.488.884-.536 1.38-1.479 1.476-2.813l.236.019c-.102 1.414-.638 2.411-1.592 2.995a4.55 4.55 0 01-2.373.565z" opacity=".5"/><path fill="#000" d="M334.17 158.789a3.667 3.667 0 01-1.607-.345c-1.758-.847-2.042-2.921-2.055-3.009l.236-.029c0 .021.281 2.038 1.923 2.826 1.463.705 3.539.268 6.162-1.34l.121.201c-1.868 1.131-3.467 1.696-4.78 1.696z" opacity=".1"/><path fill="#6C63FF" d="M334.17 158.554a3.654 3.654 0 01-1.607-.346c-1.758-.846-2.042-2.92-2.055-3.008l.236-.03c0 .022.281 2.039 1.923 2.827 1.463.704 3.539.268 6.162-1.34l.121.201c-1.868 1.131-3.467 1.696-4.78 1.696z" opacity=".5"/></g><path fill="#6C63FF" d="M263.535 149.635s3.041 4.246 5.107 3.834c2.065-.413 2.269-.866 4.104-3.834l1.506 3.464-1.774 4.287-2.1 2.719-4.453-.699-1.441-4.866-.949-4.905z"/><path fill="#000" d="M274.252 153.097l-1.774 4.286-2.1 2.719-4.453-.699-1.441-4.865-.949-4.903s.268.37.686.879c1.021 1.219 2.963 3.244 4.421 2.947 2.036-.407 2.263-.855 4.032-3.713l.072-.121 1.506 3.47z" opacity=".1"/><path fill="#000" d="M274.252 153.096l-1.774 4.287-2.1 2.719-4.453-.699-1.441-4.865-.949-4.903s.268.37.686.879c.664 2.143 2.092 5.58 4.421 5.551 2.628-.03 3.689-4.383 4.032-6.309l.072-.121 1.506 3.461z" opacity=".1"/><path fill="#6C63FF" d="M261.928 149.509s-1.032-.123-.496 1.155 1.524 5.481 1.031 6.347c-.493.865-.246 3.215-2.389 3.67l.616 2.43s.123 5.358-.123 6.143c-.247.785-.29 5.109-.207 5.562.083.453.043 3.421-.286 3.547-.33.126-.536 1.565.535 1.811 1.072.247 5.645.373 6.47.619.826.247 6.677 0 6.677 0s2.473-.329 3.092-.536c.618-.206.742-.699.535-1.647-.206-.949-1.154-7.831-.948-8.697.206-.865.249-9.315.249-9.315s-1.607-.536-1.607-2.103c0-1.567-.619-5.771.659-8.407 0 0-1.032-.707-1.195-.581-.164.126-1.72-.327-1.72-.327s-.804 7.172-4.166 7.212c-3.362.04-4.86-7.212-4.86-7.212s.029-.659-1.867.329z"/><path fill="#000" d="M266.789 172.51s.694 1.69 1.851 1.937c1.158.246-1.851-1.937-1.851-1.937zm-1.07 1.318s2.239 1.814 2.143 2.186l-2.143-2.186zm-4.492-10.717s1.773 1.195 1.773 2.061l-1.773-2.061zm1.193 3.751s-.493-1.731-.822-2.101l.822 2.101zm-.822.659s.742 1.484.822 1.897l-.822-1.897zm14.385-3.009s-2.307.702-2.103 1.568l2.103-1.568zm-2.116 7.998s3.022-3.504 2.114-3.421c-.908.083-2.114 3.421-2.114 3.421zM275.074 158.495c0-.724-.131-2.01-.147-3.443-.016 1.645.147 3.167.147 3.978 0 1.533 1.535 2.077 1.608 2.101v-.536s-1.608-.533-1.608-2.1zm2.303 20.65c.032.141.056.283.073.426.034-.322.01-.648-.073-.962-.176-.803-.894-5.963-.969-7.978-.081 1.377.782 7.614.969 8.514zm-17.052-5.345c0-1.471.083-3.499.244-4.018.131-.418.158-2.128.155-3.639 0 1.356-.04 2.733-.155 3.103-.183.584-.252 3.097-.244 4.554zm1.605-23.755c1.894-.989 1.854-.33 1.854-.33s1.484 7.255 4.86 7.213c3.375-.043 4.179-7.213 4.179-7.213s1.567.453 1.731.327c.163-.126.712.268 1.015.461.056-.142.115-.281.182-.415 0 0-1.031-.708-1.197-.582-.166.126-1.731-.326-1.731-.326s-.804 7.172-4.166 7.212c-3.362.04-4.86-7.212-4.86-7.212s.04-.659-1.854.329c0 0-.838-.096-.605.828.134-.346.592-.292.592-.292zm-1.858 28.854c.268-.099.34-1.934.324-2.947-.014 1.018-.107 2.328-.324 2.411-.217.083-.322.536-.239.973.043-.231.129-.399.239-.437zm2.391-21.353c.131-.351.174-.729.126-1.101a1.436 1.436 0 01-.126.566c-.496.865-.249 3.215-2.393 3.67l.129.504c2.004-.52 1.779-2.789 2.264-3.639z" opacity=".1"/><path fill="#6C63FF" d="M274.371 199.906c-1.013 1.843-11.293 0-11.293 0l.027-.185.204-1.428h10.831l.206 1.425.025.188z"/><path fill="#000" d="M274.371 199.906c-1.013 1.843-11.293 0-11.293 0l.027-.185c.493 0 7.93-.177 11.252 0l.014.185z" opacity=".1"/><path fill="#6C63FF" d="M263.077 199.906s-1.844.461-4.702 8.203c-2.859 7.743-3.872 17.747-3.872 17.747s-1.607 2.722 5.254 2.904c0 0-.552 1.797 3.32 1.522 3.871-.276 3.314-.274 3.314-.274s2.489-1.567 3.595-1.291c1.106.276 1.798.37 2.995 1.382 1.198 1.013 5.026.6 5.072-.182.031-.384.031-.77 0-1.155 0 0 5.854.37 4.747-3.871-1.106-4.241-2.028-11.201-2.028-11.201s-2.995-13.597-6.408-13.781c-3.413-.185-11.287-.003-11.287-.003z"/><path fill="#000" d="M261.844 205.257l-2.168 23.509.184.017 2.168-23.509-.184-.017zm4.544-.017l-.095 24.752.185.001.095-24.752-.185-.001zm5.785-.006l-.185.007.924 24.845.185-.007-.924-24.845zm5.792 23.529c-.321-14.159-2.732-23.852-2.762-23.938l.18-.045c.024.096 2.448 9.808 2.767 23.991l-.185-.008zm-14.568-27.475s-.322.185 0 1.072v-1.072zm.926 0s-.876.552 0 1.477v-1.477zm8.204 0s1.198 1.152.922 1.477l-.922-1.477zm.965-.275s.188 1.382.879 1.752l-.879-1.752z" opacity=".1"/><g opacity=".5"><path fill="#6C63FF" d="M322.415 198.802s4.522-1.8 6.478.397c1.956 2.196-1.34 4.87-1.34 4.87l-1.382 2.76-3.252-.357-.767-3.815.263-3.855z" opacity=".5"/><path fill="#000" d="M327.553 204.056l-1.382 2.76-3.252-.346-.767-3.812.268-3.856.073-.026c.573-.212 4.444-1.562 6.295.297.039.035.076.073.11.112 1.951 2.187-1.345 4.871-1.345 4.871z" opacity=".1"/><path fill="#000" d="M327.553 204.056l-1.382 2.76-3.252-.346-.767-3.812.268-3.856.073-.026c.56 3.067 2.054 4.361 2.306 4.554l.038.027.919-.075c1.787-.986 2.73-3.33 3.032-4.217.039.035.076.073.11.113 1.951 2.194-1.345 4.878-1.345 4.878z" opacity=".1"/><path fill="#6C63FF" d="M335.453 214.564s-.997 12.693-.726 14.226c.27 1.532-.576 1.647-.576 1.647s-3.606.804-4.287.268c-.68-.536-1.84-.64-1.84-.64s-2.679.614-3.874.155c-1.195-.458-3.183-.268-3.183-.268s-1.532.922-1.956.729c-.423-.193-.959-.115-2.186-.458-1.227-.343-1.918-.654-1.267-2.762.651-2.109.08-8.782.04-9.589-.04-.806-.421-2.759-.959-5.09-.539-2.331.919-1.84.919-1.84 3.416-1.763 1.996-5.217 1.46-6.749-.536-1.533.305-1.608.726-1.608s2.033-1.379 2.033-1.379l.654-.587 1.993-1.79c.496 3.352 2.104 4.758 2.371 4.967l.038.03.919-.078c2.224-1.224 3.142-4.554 3.142-4.554.268.455.866.975 1.533 1.457a26.23 26.23 0 002.725 1.688c1.607.959.423 1.918.423 1.918-1.956 6.671.804 6.966.804 6.966 2.033.3 1.074 3.341 1.074 3.341z" opacity=".5"/><path fill="#000" d="M320.385 202.598s-.576.308-.576.651l.576-.651zm.345.652s-.766.804-.632 1.037l.632-1.037zm-.002 1.039s-.576.614-.345.959l.345-.959zm3.838-.032l-2.411 2.328c-.088-2.588-1.34-4.659-1.956-5.532l1.993-1.79c.488 3.378 2.109 4.785 2.374 4.994z" opacity=".1"/><path fill="#6C63FF" d="M324.794 203.796l-2.411 2.331c-.086-2.591-1.34-4.659-1.953-5.535l1.993-1.79c.496 3.379 2.103 4.785 2.371 4.994z" opacity=".5"/><path fill="#000" d="M330.656 201.104c-.965 1.505-2.757 5.481-2.757 5.481l-1.919-2.376c2.224-1.227 3.143-4.555 3.143-4.555.268.445.865.965 1.533 1.45z" opacity=".1"/><path fill="#6C63FF" d="M330.424 200.643c-.962 1.508-2.757 5.484-2.757 5.484l-1.913-2.374c2.224-1.224 3.142-4.555 3.142-4.555.268.443.866.962 1.528 1.445z" opacity=".5"/><path fill="#000" d="M329.013 225.224s-.41 3.483-.646 3.681l.646-3.681zm3.374.613s.461 2.492.268 3.068l-.268-3.068zm-9.817.153s-.421 2.339 0 2.607v-2.607zm-2.489-.346s-.349 2.762-.268 3.261l.268-3.261zm12.88-13.46s-1.071.844-.996 1.072l.996-1.072zm.766.539s-2.052 1.725-1.026 1.532c1.026-.193 1.026-1.532 1.026-1.532z" opacity=".1"/></g><path fill="#464353" d="M218.632 165.557l-.02-.014a.046.046 0 00-.064.012l-.521.756a.046.046 0 00.012.064l.02.013c.02.015.049.009.063-.011l.521-.757a.045.045 0 00-.011-.063z"/><path fill="#3ACC6C" d="M354.164 132.55a4.63 4.63 0 01-5.523 4.55 4.629 4.629 0 01-3.641-3.632 4.621 4.621 0 011.965-4.753 4.626 4.626 0 017.199 3.835zm-5.163 2.449l3.435-3.432a.3.3 0 000-.42l-.424-.424a.286.286 0 00-.21-.088.298.298 0 00-.21.088l-2.8 2.8-1.307-1.302a.306.306 0 00-.424 0l-.42.423a.297.297 0 000 .421l1.94 1.939a.29.29 0 00.324.066.29.29 0 00.096-.066v-.005zm-50.888 48.331a4.622 4.622 0 01-2.856 4.275 4.624 4.624 0 01-5.042-1.003 4.622 4.622 0 01-1.003-5.042 4.626 4.626 0 018.901 1.77zm-5.163 2.449l3.446-3.432a.298.298 0 000-.423l-.434-.407a.304.304 0 00-.212-.089.304.304 0 00-.212.089l-2.799 2.786-1.308-1.307a.29.29 0 00-.324-.066.29.29 0 00-.096.066l-.424.42a.306.306 0 000 .423l1.94 1.94a.299.299 0 00.423 0zm5.163 48.096a4.621 4.621 0 01-2.856 4.274 4.63 4.63 0 01-6.045-6.045 4.624 4.624 0 014.274-2.856 4.627 4.627 0 014.627 4.627zm-5.163 2.448l3.446-3.432a.298.298 0 000-.423l-.421-.421a.3.3 0 00-.326-.065.28.28 0 00-.097.065l-2.8 2.8-1.307-1.307a.294.294 0 00-.421 0l-.423.42a.301.301 0 00-.086.212c0 .079.03.155.086.212l1.939 1.939a.304.304 0 00.212.089.303.303 0 00.212-.089h-.014z"/><path fill="#0E171B" d="M395.548 251.989v12.271a.428.428 0 01-.428.428h-.304v63.921a6.67 6.67 0 01-6.67 6.669h-39.94a6.665 6.665 0 01-6.668-6.669v-61.68h-.22a.3.3 0 01-.303-.3v-6.984a.292.292 0 01.089-.214.295.295 0 01.098-.065.286.286 0 01.116-.023h.22v-2.631h-.222a.318.318 0 01-.316-.317v-6.889a.315.315 0 01.316-.315h.222V245.6h-.226a.28.28 0 01-.28-.28v-3.759a.28.28 0 01.28-.282h.226v-7.611a6.668 6.668 0 016.668-6.668h39.94a6.668 6.668 0 016.67 6.668v17.893h.304a.428.428 0 01.428.428z"/><path fill="#E6E8EC" d="M370.102 230.42h-6.49a.475.475 0 00-.475.475v.561c0 .262.212.475.475.475h6.49a.475.475 0 00.475-.475v-.561a.475.475 0 00-.475-.475zm2.454 1.612a.857.857 0 100-1.714.857.857 0 000 1.714z"/><path fill="#fff" d="M391.622 234.987v94.175a4.233 4.233 0 01-4.232 4.229h-38.233a4.209 4.209 0 01-2.993-1.236 4.227 4.227 0 01-1.238-2.993v-94.175a4.23 4.23 0 014.231-4.232h5.723v.734a3.486 3.486 0 003.484 3.485h19.444a3.487 3.487 0 003.485-3.485v-.734h6.097a4.23 4.23 0 014.232 4.232z"/><path fill="#06AAF5" d="M385.651 245.987a3.737 3.737 0 10-.001-7.473 3.737 3.737 0 00.001 7.473z"/><path fill="#3F3D56" d="M387.332 242.13h-1.562v-1.561h-.24v1.561h-1.561v.24h1.561v1.562h.24v-1.562h1.562v-.24z"/><path fill="#fff" d="M378.018 265.503h-.373v13.902h.373v-13.902z"/><path fill="#fff" d="M377.831 274.071s-.281-6.041-6.038-5.338l6.038 5.338z"/><path fill="#FBBEBE" d="M438.151 324.689l-24.042 7.522-29.908-18.873-.002-.001-.098-.061-.016-.01-.238-.149-2.847-1.792a1.293 1.293 0 01.314-.739c.052-.061.109-.118.17-.169h.001a1.37 1.37 0 01.177-.132c.551-.369 1.381-.526 2.246-.573a10.69 10.69 0 015.39 1.168c3.362 1.701 10.588 5.046 11.715 2.997 1.477-2.686-15.312-32.639-15.312-32.639-1.382-3.552-.371-4.713.263-5.078l.055-.031a1.6 1.6 0 01.323-.122l.031-.007 2.227 2.96.033.045.12.159.036.049 13.5 17.942c20.684-11.149 27.803 18.669 27.803 18.669l8.059 8.865z"/><path fill="#3F3D56" d="M388.636 270.217a.581.581 0 01-.541.329.898.898 0 01-.22-.03c-.5-.134-1.079-.682-1.511-1.43-.422-.731-.595-1.466-.497-1.953a1.53 1.53 0 01.322-.123c-.173.34-.07 1.113.408 1.941.391.679.92 1.192 1.346 1.305a.37.37 0 00.324-.021.365.365 0 00.18-.271l.033.044.12.16.036.049zm-4.685 34.063l-.016-.011-.238-.149c.002-.382-.289-1.01-.929-1.64-.542-.527-1.17-.874-1.604-.89a1.42 1.42 0 01.169-.169h.002c.026-.023.055-.046.084-.067a3.496 3.496 0 011.537.934c.704.692 1.09 1.48.995 1.992z"/><rect width="16" height="16" x="351" y="250" fill="#486674" rx="1"/><rect width="16" height="16" x="351" y="270" fill="#486674" rx="1"/><rect width="16" height="16" x="351" y="290" fill="#486674" rx="1"/><rect width="41" height="6" x="348" y="324" fill="#3F3D56" rx="3"/><rect width="16" height="16" x="370" y="250" fill="#486674" rx="1"/><rect width="16" height="16" x="370" y="270" fill="#06AAF5" rx="1"/><rect width="16" height="16" x="370" y="290" fill="#486674" rx="1"/><path stroke="#fff" stroke-dasharray="8 4" stroke-linecap="round" stroke-linejoin="round" stroke-width="2" d="M160.5 167.5V203"/><defs><linearGradient id="prefix__paint0_linear" x1="310.5" x2="310.5" y1="57" y2="331" gradientUnits="userSpaceOnUse"><stop stop-color="#486674" stop-opacity=".43"/><stop offset="0" stop-color="#567888" stop-opacity=".573"/><stop offset="1" stop-color="#7BA9BE" stop-opacity=".97"/><stop offset="1" stop-color="#7EADC2"/></linearGradient><linearGradient id="prefix__paint1_linear" x1="296.867" x2="296.867" y1="246" y2="57" gradientUnits="userSpaceOnUse"><stop stop-color="gray" stop-opacity=".25"/><stop offset=".54" stop-color="gray" stop-opacity=".12"/><stop offset="1" stop-color="gray" stop-opacity=".1"/></linearGradient></defs></svg>