<svg xmlns="http://www.w3.org/2000/svg" width="424" height="377" fill="none" viewBox="0 0 424 377">
    <rect width="100" height="100" x="38" y="108" fill="#364045" rx="16"/>
    <path fill="#FF8F00" d="M7.711 137.194l13.372 1.703-8.16 10.729-5.212-12.432z"/>
    <path fill="#06AAF5" d="M57.681 229.25l8.528 10.44-13.304 2.165 4.776-12.605z"/>
    <path fill="#FFF9C4" d="M215.681 91.25l8.528 10.44-13.304 2.165 4.776-12.605z"/>
    <path fill="#8CC440" d="M413.681 196.25l8.528 10.44-13.304 2.165 4.776-12.605z"/>
    <path fill="#FDD835" d="M313.681 20.25l8.528 10.44-13.304 2.165 4.776-12.605z"/>
    <circle cx="128" cy="179" r="4" fill="#8CC440"/>
    <circle cx="299" cy="217" r="4" fill="#FF8F00"/>
    <circle cx="128" cy="30" r="4" fill="#B28DF2"/>
    <rect width="67" height="67" x="212" y="4" fill="#364045" rx="10"/>
    <rect width="82" height="82" x="262" y="126" fill="#364045" rx="10"/>
    <rect width="100" height="100" y="277" fill="#364045" rx="16"/>
    <rect width="100" height="100" x="315" y="272" fill="#364045" rx="16"/>
    <rect width="44" height="44" x="194" y="333" fill="#364045" rx="10"/>
    <path fill="#886F2E" fill-rule="evenodd" d="M222.786 200.453c4.522-3.258 7.466-8.568 7.466-14.566 0-9.909-8.033-17.941-17.941-17.941s-17.94 8.032-17.94 17.941c0 4.788 1.876 9.139 4.934 12.356.71 7.031 1.814 22.745-2.204 24.954-5.2 2.86 30.941 3.12 30.941 3.12s-6.259-17.161-5.256-25.864z" clip-rule="evenodd"/>
    <path fill="#7E57C2" d="M254.433 226.446l-3.006 13.687-6.355 28.956-.19 1.586-2.194 18.358-1.459 12.196-.978 8.192c-5.948 3.057-10.259 5.167-10.259 5.167s-.37-1.859-.968-4.237c-4.174 1.251-11.898 3.327-18.444 3.742 2.384 2.657 3.479 5.153 1.993 6.995-4.484 5.552-22.996-6.08-29.471-10.418-.15 1.039-.208 2.089-.171 3.138l-4.954-3.811.49-8.768.827-14.836 1.039-18.605c-.327-.796-.602-1.614-.822-2.446-1.517-5.397-3.359-16.173-4.772-25.209-1.137-7.273-1.991-13.418-2.171-14.726l-.037-.259 27.429-12.12c1.95 4.521 11.052 5.88 11.052 5.88 7.541-.52 13.452-4.497 13.452-4.497l29.969 12.035z"/>
    <path fill="#FFB8B8" d="M232.072 309.389s-1.161.398-3.05.962c-4.174 1.251-11.898 3.327-18.443 3.742-5.636.361-10.398-.507-11.269-4.184-.374-1.581.156-2.881 1.31-3.95 3.445-3.193 12.442-4.337 19.578-4.73 2.015-.11 3.879-.161 5.431-.181 2.635-.034 4.362.02 4.362.02l.041.161 2.04 8.16z"/>
    <path fill="#000" d="M197.386 168.917l-3.355-1.343s7.014-7.722 16.772-7.05l-2.744-3.022s6.709-2.686 12.808 4.365c3.206 3.706 6.915 8.062 9.227 12.97h3.593l-1.5 3.301 5.248 3.301-5.386-.593c.321 1.808.37 3.654.146 5.476-.231 1.823-1.161 3.485-2.594 4.635 0 0-4.16-8.611-4.16-9.954v3.357s-3.355-3.021-3.355-5.036l-1.829 2.35-.915-3.693-11.283 3.693 1.83-3.021-7.014 1.007 2.744-3.693s-7.928 4.365-8.233 8.058c-.305 3.693-2.626 7.192-2.626 7.192s-6.217-17.264 2.626-22.3z"/>
    <path fill="#7E57C2" d="M273.932 289.367c-1.828 1.981-6.356 4.965-11.845 8.195-2.042 1.2-4.216 2.437-6.433 3.667-5.292 2.935-10.832 5.843-15.404 8.192-5.948 3.057-10.259 5.167-10.259 5.167s-.371-1.859-.968-4.237c-.801-3.184-2.006-7.3-3.262-9.122-.044-.064-.088-.122-.132-.181-.366-.48-.734-.761-1.098-.761l18.156-11.254 7.846-4.865-5.653-13.494-7.089-16.926 4.279-13.616 4.301-13.686h8.061s2.669 5.826 6.082 13.95c.51 1.215 1.037 2.481 1.573 3.789 7.022 17.077 15.775 40.925 11.845 45.182z"/>
    <path fill="#FFB8B8" d="M212.572 321.087c-4.484 5.553-22.996-6.079-29.471-10.417-1.41-.944-2.249-1.542-2.249-1.542l5.923-7.899 1.876-2.501s1.679.891 4.16 2.34l.273.161c2.14 1.256 4.826 2.898 7.536 4.73 3.74 2.53 7.522 5.416 9.959 8.134 2.383 2.657 3.479 5.152 1.993 6.994z"/>
    <path fill="#7E57C2" d="M192.812 301.068c-.662-.003-1.323.051-1.976.161-5.609.963-7.263 6.04-7.734 9.441-.151 1.039-.208 2.089-.171 3.137l-4.955-3.81-1.805-1.388c-4.345-1.515-8.217-4.206-11.574-7.38-2.912-2.803-5.524-5.901-7.795-9.244-2.261-3.296-4.276-6.753-6.03-10.344-.49-1.002-.753-2.1-.771-3.215-.018-1.115.209-2.221.666-3.238l6.135-13.674 8.969-19.986c.065-.476.138-.941.217-1.396 1.778-10.197 6.543-14.725 6.543-14.725h3.64l2.435 14.725 3.025 18.295-2.12 6.914-4.899 15.968 4.682 5.084 13.518 14.675z"/>
    <path fill="#E0E0E0" d="M267.871 318.111v1.481c0 .406-.075.809-.222 1.188-.066.169-.145.332-.237.488-.291.488-.703.892-1.197 1.173-.494.28-1.053.428-1.621.427H155.651c-.568.001-1.126-.147-1.62-.427-.494-.281-.907-.685-1.197-1.173-.092-.156-.171-.319-.237-.488-.148-.379-.223-.782-.222-1.188v-1.481c0-.43.085-.856.249-1.254.165-.397.406-.759.71-1.063.305-.304.666-.546 1.063-.71.398-.165.824-.25 1.254-.249h6.28v-.691c0-.018.004-.036.01-.052.007-.017.017-.032.03-.044.013-.013.028-.023.044-.03.017-.007.035-.01.053-.01h3.276c.018 0 .036.003.053.01.016.007.031.017.044.03.013.012.023.027.029.044.007.016.011.034.011.052v.691h2.047v-.691c0-.018.003-.036.01-.052.007-.017.017-.032.03-.044.012-.013.027-.023.044-.03.017-.007.034-.01.052-.01h3.277c.018 0 .035.003.052.01.017.007.032.017.044.03.013.012.023.027.03.044.007.016.01.034.01.052v.691h2.05v-.691c0-.018.003-.036.01-.052.007-.017.017-.032.03-.044.012-.013.027-.023.044-.03.017-.007.034-.01.052-.01h3.277c.018 0 .035.003.052.01.017.007.032.017.044.03.013.012.023.027.03.044.007.016.01.034.01.052v.691h2.047v-.691c0-.018.004-.036.011-.052.006-.017.016-.032.029-.044.013-.013.028-.023.045-.03.016-.007.034-.01.052-.01h3.276c.018 0 .036.003.053.01.016.007.031.017.044.03.013.012.023.027.03.044.006.016.01.034.01.052v.691h2.047v-.691c0-.018.003-.036.01-.052.007-.017.017-.032.03-.044.012-.013.028-.023.044-.03.017-.007.034-.01.052-.01h3.277c.018 0 .036.003.052.01.017.007.032.017.045.03.012.012.022.027.029.044.007.016.011.034.011.052v.691h2.049v-.691c0-.018.003-.036.01-.052.007-.017.017-.032.03-.044.012-.013.028-.023.044-.03.017-.007.034-.01.052-.01h3.277c.018 0 .036.003.052.01.017.007.032.017.045.03.012.012.022.027.029.044.007.016.011.034.011.052v.691h2.046v-.691c0-.018.004-.036.011-.052.007-.017.017-.032.029-.044.013-.013.028-.023.045-.03.016-.007.034-.01.052-.01h25.665c.018 0 .036.003.052.01.017.007.032.017.045.03.012.012.023.027.029.044.007.016.011.034.011.052v.691h2.049v-.691c0-.018.004-.036.01-.052.007-.017.017-.032.03-.044.013-.013.028-.023.044-.03.017-.007.035-.01.053-.01h3.276c.036 0 .071.014.096.04.026.026.04.06.041.096v.691h2.047v-.691c0-.018.003-.036.01-.052.007-.017.017-.032.03-.044.012-.013.027-.023.044-.03.016-.007.034-.01.052-.01h3.277c.018 0 .035.003.052.01.017.007.032.017.044.03.013.012.023.027.03.044.007.016.01.034.01.052v.691h2.047v-.691c0-.018.004-.036.01-.052.007-.017.017-.032.03-.044.013-.013.028-.023.044-.03.017-.007.035-.01.053-.01h3.276c.018 0 .036.003.053.01.016.007.031.017.044.03.013.012.023.027.03.044.006.016.01.034.01.052v.691h2.049v-.691c0-.018.004-.036.01-.052.007-.017.017-.032.03-.044.013-.013.028-.023.044-.03.017-.007.035-.01.053-.01h3.276c.036 0 .07.015.095.04.026.026.04.06.039.096v.691h2.05v-.691c0-.018.003-.036.01-.052.007-.017.017-.032.03-.044.012-.013.027-.023.044-.03.017-.007.034-.01.052-.01h3.277c.018 0 .036.003.052.01.017.007.032.017.044.03.013.012.023.027.03.044.007.016.01.034.01.052v.691h2.047v-.691c0-.018.004-.036.011-.052.006-.017.017-.032.029-.044.013-.013.028-.023.045-.03.016-.007.034-.01.052-.01h3.276c.018 0 .036.003.053.01.016.007.031.017.044.03.013.012.023.027.03.044.006.016.01.034.01.052v.691h9.556c.43-.001.856.084 1.254.249.398.164.759.406 1.063.71.304.304.546.666.71 1.063.165.398.25.824.25 1.254z"/>
    <path fill="#E0E0E0" stroke="#fff" d="M217.991 255.746v.5h41.107c.295 0 .587.058.859.171.273.113.521.279.729.487.209.209.374.457.487.729.113.273.171.565.171.86v55.603c0 .595-.236 1.167-.658 1.588-.421.422-.993.658-1.588.658h-99.793c-.596 0-1.167-.236-1.588-.658-.422-.421-.658-.993-.658-1.588v-55.603c0-.295.058-.587.171-.86.112-.272.278-.52.487-.729.208-.208.456-.374.729-.487.272-.113.564-.171.859-.171h41.274v-.837h17.412v.337z"/>
    <path stroke="#263238" stroke-miterlimit="10" stroke-width="2" d="M209.283 281.258c3.368 0 6.099-2.731 6.099-6.099 0-3.369-2.731-6.099-6.099-6.099-3.369 0-6.099 2.73-6.099 6.099 0 3.368 2.73 6.099 6.099 6.099z"/>
    <path fill="#263238" d="M207.33 283.453c3.368 0 6.099-2.73 6.099-6.099 0-3.368-2.731-6.099-6.099-6.099-3.369 0-6.1 2.731-6.1 6.099 0 3.369 2.731 6.099 6.1 6.099z"/>
    <path fill="#FDD835" fill-rule="evenodd" d="M196.979 175.001c-2.721-.042-5.373.853-7.511 2.537-2.141 1.685-3.634 4.057-4.23 6.715l-.004.018c-.344 1.684-.308 3.423.103 5.092.411 1.668 1.189 3.224 2.276 4.555 1.087 1.331 2.456 2.404 4.009 3.14 1.552.737 3.249 1.119 4.968 1.118h3.705c.552 0 1-.447 1-1v-21.175c0-.552-.448-1-1-1h-3.316zM228.318 175.001c2.721-.042 5.373.853 7.511 2.537 2.141 1.685 3.634 4.057 4.23 6.715l.004.018c.343 1.684.308 3.423-.103 5.092-.411 1.668-1.189 3.224-2.276 4.555-1.087 1.331-2.456 2.404-4.009 3.14-1.552.737-3.249 1.119-4.968 1.118h-3.705c-.553 0-1-.447-1-1v-21.175c0-.552.447-1 1-1h3.316z" clip-rule="evenodd"/>
    <path fill="#FDD835" fill-rule="evenodd" d="M208.813 155.493c-4.014.999-7.57 3.329-10.089 6.61-2.52 3.281-3.852 7.321-3.78 11.458v2.516c0 .552-.447 1-1 1-.552 0-1-.448-1-1v-2.49c-.078-4.586 1.4-9.064 4.194-12.702 2.795-3.641 6.742-6.227 11.197-7.334l.009-.003c2.954-.705 6.029-.73 8.994-.074 2.965.657 5.743 1.978 8.123 3.865 2.38 1.886 4.3 4.288 5.616 7.025 1.316 2.736 1.994 5.736 1.982 8.772v2.941c0 .552-.448 1-1 1s-1-.448-1-1v-2.947c.011-2.734-.599-5.435-1.784-7.899-1.185-2.464-2.914-4.627-5.057-6.325-2.142-1.698-4.643-2.888-7.312-3.479-2.668-.591-5.435-.568-8.093.066zM200.297 196.252c.552 0 1 .447 1 1 0 1.419.564 2.781 1.568 3.784 1.003 1.004 2.365 1.568 3.784 1.568.553 0 1 .448 1 1s-.447 1-1 1c-1.95 0-3.82-.774-5.199-2.153-1.378-1.379-2.153-3.249-2.153-5.199 0-.553.448-1 1-1z" clip-rule="evenodd"/>
    <path fill="#FDD835" d="M213 205.722c1.17 0 2.118-.948 2.118-2.118 0-1.169-.948-2.117-2.118-2.117-1.169 0-2.117.948-2.117 2.117 0 1.17.948 2.118 2.117 2.118z"/>
    <circle cx="210" cy="24" r="24" fill="#7E57C2"/>
    <circle cx="210" cy="24" r="18" fill="#fff"/>
    <path fill="#263238" d="M213.808 27.754c-.371 0-.606.158-.739.29l-1.483 1.485c-.012.012-.076.043-.222.043-.818 0-2.553-.909-4.29-2.647-2.334-2.333-2.849-4.266-2.604-4.51l1.485-1.485c.979-.978-.753-3.002-1.872-4.121-.508-.508-2.252-2.164-3.383-2.164-.37 0-.605.159-.738.292l-2.969 2.969c-.891.89-.573 2.62.945 5.14 1.311 2.176 3.384 4.725 5.837 7.179 3.623 3.622 8.423 7.278 10.981 7.278.695 0 1.112-.27 1.338-.496l2.969-2.97c.979-.977-.753-3-1.872-4.12-.508-.508-2.251-2.163-3.383-2.163zM217.967 16.034c-1.633-1.634-3.807-2.534-6.121-2.534h-.002c-.414 0-.75.336-.75.75s.336.75.75.75h.002c1.913 0 3.71.743 5.06 2.094 1.351 1.351 2.094 3.148 2.094 5.062 0 .415.336.75.75.75s.75-.335.75-.75c.001-2.314-.899-4.488-2.533-6.122z"/>
    <path fill="#263238" d="M210.856 17.966h.002c1.384 0 2.684.539 3.662 1.515.977.978 1.515 2.279 1.515 3.665 0 .414.336.75.75.75s.75-.336.75-.75c.001-1.787-.693-3.464-1.954-4.725-1.261-1.26-2.938-1.955-4.723-1.955h-.002c-.415 0-.751.336-.751.75 0 .415.336.75.751.75zM209.863 20.933h.002c.856 0 1.661.333 2.264.936.605.605.937 1.41.937 2.266 0 .414.336.75.75.75s.75-.336.75-.75c.001-1.257-.488-2.438-1.376-3.326-.887-.888-2.068-1.376-3.325-1.376h-.002c-.414 0-.75.336-.75.75s.336.75.75.75z"/>
    <circle cx="100" cy="107" r="24" fill="#7E57C2"/>
    <circle cx="100" cy="107" r="18" fill="#fff"/>
    <path fill="#263238" d="M107.888 115.252c-.639.593-1.341 1.104-2.098 1.541-.766.438-1.577.775-2.425 1.012-.848.238-1.742.365-2.663.365-1.395 0-2.754-.228-4.03-.675-1.25-.437-2.362-1.103-3.292-1.969-.93-.848-1.906-2.271-2.48-3.611-.502-1.167-.712-2.426-.712-4.368 0-1.377.32-2.9.867-4.194.529-1.241 1.267-2.335 2.188-3.247.912-.902 2.025-1.641 3.31-2.188 1.15-.483 2.508-.72 4.158-.72 1.304 0 2.553.21 3.693.62 1.113.4 2.088.975 2.9 1.714.748.684 1.213 1.514 1.705 2.635.429.958.593 1.806.593 3.128 0 1.076-.192 2.106-.566 3.045-.373.921-.656 1.487-1.221 2.189-.593.711-.921 1.103-1.551 1.468-.729.429-1.285.629-1.732.629-.356 0-.465-.082-.474-.091-.055-.046-.101-.109-.128-.264-.027-.21 0-.493.082-.812.091-.365.228-.711.429-1.195l3.647-9.793h-2.398l-.419 1.113c-.329-.383-.721-.712-1.159-.967-1.039-.602-1.914-.848-3.027-.848-1.295 0-2.507.337-3.584 1.003-1.048.647-1.95 1.486-2.671 2.489-.712.985-.894 1.514-1.222 2.49l-.055.164c-.392 1.167-.593 2.316-.593 3.419 0 .739.137 1.459.402 2.125.264.675.629 1.258 1.085 1.732.447.493 1.003.885 1.66 1.186.638.292 1.34.447 2.097.447.839 0 1.605-.137 2.498-.447.493-.173.93-.42 1.35-.775.091.155.209.292.346.419.529.529 1.231.803 2.07.803.839 0 1.742-.283 2.827-.894.966-.547 1.532-1.176 2.225-2.006.784-.939 1.176-1.742 1.596-2.809.474-1.176.711-2.462.711-3.811 0-1.696-.228-2.854-.812-4.131-.62-1.35-1.249-2.434-2.279-3.346-1.022-.912-2.244-1.614-3.63-2.107-1.367-.483-2.835-.72-4.377-.72-1.878 0-3.483.283-4.896.857-1.532.62-2.89 1.496-4.04 2.59-1.149 1.112-2.07 2.444-2.726 3.939-.684 1.55-1.067 3.429-1.067 5.17 0 2.344.292 3.985.976 5.48.757 1.642 1.987 3.329 3.127 4.314 1.195 1.039 2.563 1.805 4.067 2.279 1.486.474 3.028.721 4.559.721 1.049 0 2.125-.146 3.201-.429 1.085-.301 2.097-.711 3.009-1.231.93-.52 1.824-1.167 2.645-1.933.82-.766 1.75-1.961 2.079-2.544.173-.319.282-.556.337-.702h-2.517c-.483.592-1.003 1.185-1.595 1.741zm-6.402-4.331c-.41.52-.674.83-.994 1.039-.355.247-.638.402-1.003.484h-.009c-.365.091-.757.146-1.158.146-.465 0-.884-.082-1.258-.247-.383-.164-.702-.383-.985-.683-.273-.292-.501-.639-.666-1.04-.155-.401-.237-.848-.237-1.322 0-.821.155-1.714.465-2.645.037-.109.073-.227.1-.31.247-.756.374-.993.83-1.75.42-.693 1.076-1.332 1.988-1.943.72-.483 1.523-.729 2.398-.729.356 0 .73.046 1.122.128.283.063.429.146.711.31l.019.009c.036.018.072.036.118.064l.027.018c.32.182.602.419.848.711.192.228.347.52.465.885l-1.832 5.152c-.283.693-.602 1.276-.949 1.723z"/>
    <circle cx="327" cy="108" r="24" fill="#7E57C2"/>
    <circle cx="327" cy="108" r="18" fill="#fff"/>
    <path fill="#263238" d="M316.85 100.718l8.429 6.677c.382.303.909.437 1.42.412.512.024 1.039-.109 1.421-.412l8.429-6.677c.673-.532.521-.967-.336-.967h-19.026c-.858 0-1.01.435-.337.967z"/>
    <path fill="#263238" d="M337.157 102.48l-9.211 6.993c-.345.259-.796.385-1.246.38-.45.005-.901-.122-1.246-.38l-9.211-6.993c-.684-.518-1.243-.24-1.243.617v11.475c0 .857.702 1.559 1.56 1.559h20.28c.858 0 1.56-.703 1.56-1.559v-11.475c.001-.857-.558-1.135-1.243-.617z"/>
    <path fill="#fff" stroke="#7E57C2" stroke-width="3" d="M234 86.5c1.933 0 3.5 1.567 3.5 3.5v25.917c0 1.933-1.567 3.5-3.5 3.5h-23.789c-.249 0-.7.26-.865.865-.315 1.153-.913 2.613-2.058 3.964-.534.631-1.257 1.012-2.071 1.028-.766.015-1.431-.294-1.927-.67-.968-.733-1.676-1.998-1.759-3.325-.036-.567-.138-1.159-.336-1.757-.001-.004-.005-.02-.044-.045-.046-.03-.127-.06-.232-.06H190c-1.933 0-3.5-1.567-3.5-3.5V90c0-1.933 1.567-3.5 3.5-3.5h44z"/>
    <rect width="27.79" height="3.789" x="198.105" y="95.579" fill="#263238" rx="1.895"/>
    <rect width="27.79" height="3.789" x="198.105" y="103.158" fill="#263238" rx="1.895"/>
</svg>
