<svg width="475" height="404" fill="none" xmlns="http://www.w3.org/2000/svg"><rect x="30" y="52" width="100" height="100" rx="16" fill="#485BC6"/><rect x="165" width="100" height="100" rx="16" fill="#485BC6"/><rect x="173" y="186" width="100" height="100" rx="16" fill="#485BC6"/><rect x="372" y="46" width="100" height="100" rx="16" fill="#485BC6"/><path d="M15.722 295.533l-3.154 37.917a47.595 47.595 0 01-2.788 12.267 11.535 11.535 0 00-1.115 4.461v28.437s-2.23 0-1.673 2.23c.557 2.231 1.115 6.134 1.115 6.134h8.364s-.558-1.673 1.115-2.23c1.673-.558 0-5.019 0-5.019l8.922-33.455 13.382-27.88s7.806 25.092 9.479 27.88c0 0 6.134 31.225 7.249 34.013 1.115 2.788 1.673 2.788 1.115 3.903-.558 1.115-.558 2.23 0 2.788.558.558 11.152 0 11.152 0l-2.788-39.589-5.018-47.396-25.65-7.806-19.707 3.345z" fill="#2F2E41"/><path d="M14.24 382.518s-2.787-10.036-7.248-2.23c-4.46 7.806-4.46 10.594-4.46 10.594s-7.25 10.595 2.787 9.479c10.037-1.115 7.806-6.133 7.806-6.133s3.904-2.231 3.904-3.903c0-1.673-2.788-7.807-2.788-7.807zM59.405 381.403s2.788-10.037 7.249-2.23c4.46 7.806 4.46 10.594 4.46 10.594s7.25 10.594-2.787 9.479c-10.037-1.115-7.807-6.133-7.807-6.133s-3.903-2.231-3.903-3.903c0-1.673 2.788-7.807 2.788-7.807z" fill="#2F2E41"/><path d="M33.199 220.258s1.115 7.249-2.23 8.922c-3.346 1.673 7.248 7.806 10.036 7.806 2.788 0 7.807-5.576 7.807-5.576s-2.788-8.364-2.23-10.037l-13.383-1.115z" fill="#FFB9B9"/><path d="M39.333 225.834c6.467 0 11.709-5.242 11.709-11.709s-5.242-11.71-11.71-11.71c-6.466 0-11.709 5.243-11.709 11.71 0 6.467 5.243 11.709 11.71 11.709z" fill="#FFB9B9"/><path d="M62.193 238.101l-13.94-8.445s-7.93 9.003-16.511-1.034l-14.714 3.903 2.23 37.917s-3.345 15.055-2.23 17.843c1.115 2.788-2.788 3.903-1.673 4.461 1.115.557 0 4.46 0 4.46s21.746 11.152 45.723 2.788l-2.23-7.248a5.854 5.854 0 00-1.116-5.576s2.23-3.346-.557-6.134c0 0 1.115-5.018-1.673-7.249l-.558-7.806 1.673-3.903 5.576-23.977z" fill="#2AB7F6"/><path d="M33.34 208.688s-1.396 3.021 4.188 1.812c0 0 2.094 1.209 2.094-.604 0 0 2.792 3.021 3.49 1.208.698-1.812 2.094.605 2.094.605l1.396-3.021 1.396 1.812h4.886s1.396-12.084-15.356-10.876c-16.752 1.209-8.51 20.355-8.51 20.355s.134-3.437 1.53-1.624c1.396 1.813 2.792-9.667 2.792-9.667z" fill="#2F2E41"/><path d="M67.212 260.405l.558 11.71s2.23 21.746-2.23 31.225v5.018s-1.116 12.825-6.692 12.267c-5.575-.557 1.673-18.4 1.673-18.4l-1.115-24.534-1.115-13.94 8.921-3.346z" fill="#FFB9B9"/><path d="M56.061 238.659l5.563-.904a27.158 27.158 0 017.82 14.286c1.672 8.922 2.23 10.594 2.23 10.594l-13.382 3.346-7.249-13.94 5.018-13.382z" fill="#2AB7F6"/><path d="M8.664 253.714s-5.019 21.188 1.115 21.188 20.631-23.976 20.631-23.976 15.055-7.806 8.921-10.594c-6.133-2.788-13.94 4.46-13.94 4.46l-9.007 12.506-.471-6.372-7.25 2.788z" fill="#FFB9B9"/><path d="M20.373 235.871l-3.345-3.346s-6.691 3.904-7.249 7.807c-.557 3.903-3.345 16.17-3.345 16.17l10.315.836 3.346-5.018.279-16.449z" fill="#2AB7F6"/><path d="M432.553 243.706a1.445 1.445 0 012.098.137c.17.202.283.448.327.71l.533 3.136s2.409 12.544.346 20.513c-2.062 7.968-3.526 18.465-9.099 19.583-4.769.957-22.902-.559-28.036-1.016a1.456 1.456 0 01-.961-.487 1.496 1.496 0 01-.372-1.021l.096-4.578c.008-.36.145-.706.386-.971a1.45 1.45 0 01.922-.472l20.761-2.244c.325-.034.628-.178.863-.407.234-.23.386-.532.431-.86.494-3.579 2.091-14.677 3.677-20.512 1.282-4.714 5.492-9.166 8.028-11.511z" fill="#FF8F00"/><path d="M419.28 376.652v9.287l5.372 1.161 3.583-1.741-.398-7.352-8.557-1.355zM450.623 376.652v9.287l5.672 1.161 3.781-1.741-.42-7.352-9.033-1.355z" fill="#FFB8B8"/><path d="M429.957 299.041s-7.246 14.527-7.045 25.87a153.765 153.765 0 01-1.006 20.498l-3.623 34.029 11.674.597 5.434-36.616 10.465-28.259 4.026 33.632 1.006 33.83h10.063s4.629-32.039 2.013-39.203c0 0 6.038-40.199 1.207-42.189-4.83-1.99-34.214-2.189-34.214-2.189z" fill="#2F2E41"/><path d="M422.799 383.756s-1.971-7.291-4.73-3.547c-2.759 3.744-10.642 10.049-10.642 10.049s-11.824 6.305-.985 7.881c10.839 1.576 12.021-1.97 12.021-1.97s1.774-.986 3.351-.395c1.576.592 8.474.395 8.868-1.97.394-2.364-2.168-15.368-2.956-13.004-.788 2.364-4.927 2.956-4.927 2.956zM459.411 383.51s0-2.172-3.688-2.369c-3.688-.198-4.271 2.369-4.271 2.369s-.97.988-1.164 3.95c-.194 2.962 0 10.664 0 10.664s-1.747 5.924 6.211 4.74c7.958-1.185 5.047-7.307 5.047-7.307l-2.135-12.047z" fill="#2F2E41"/><path d="M444.934 224.912l-.989 11.295-1.781 4.236 4.748 6.857 11.67-11.093s-2.176-6.051-.791-9.479l-12.857-1.816z" fill="#FFB8B8"/><path d="M471.518 244.088l-.091.988-3.491 37.489s-.137 1.744-.392 4.068c-.43 3.932-1.194 9.526-2.195 11.163-1.592 2.605-.398 4.809-.398 4.809-9.154 5.411-36.218-2.404-36.218-2.404l6.169-24.85s-5.572-25.852-4.975-28.257c.597-2.405 13.134-11.022 13.134-11.022l.37 1.002c5.343 7.214 10.774 1.002 12.366-.401l3.184-2.806 12.537 10.221z" fill="#FF8F00"/><path d="M451.865 230.882c5.633 0 10.199-4.566 10.199-10.199 0-5.632-4.566-10.199-10.199-10.199s-10.199 4.567-10.199 10.199c0 5.633 4.566 10.199 10.199 10.199z" fill="#FFB8B8"/><path opacity=".2" d="M471.019 245.399l-3.5 37.475s-.138 1.743-.393 4.067c-7.43 1.783-27.944 3.145-27.944 3.145l-.998-7.212 22.75-6.21s-2.794-15.626.399-22.036a49.826 49.826 0 002.095-4.793 6.945 6.945 0 013.006-3.581 6.898 6.898 0 014.585-.855z" fill="#000"/><path d="M440.715 281.414s-16.36-3.32-14.289 3.734c2.071 7.055 15.739 2.49 15.739 2.49l-1.45-6.224z" fill="#FFB8B8"/><path d="M465.205 243.32l6.136.993s4.355 11.914 3.563 20.055c-.792 8.141-.594 18.665-5.938 20.651-5.344 1.986-29.294 3.574-29.294 3.574l-.99-7.148 22.564-6.156s-2.771-15.488.396-21.842c3.167-6.354 3.563-10.127 3.563-10.127z" fill="#FF8F00"/><path d="M442.969 209.953l-1.974-.781s4.128-4.491 9.872-4.101l-1.616-1.757s3.949-1.562 7.539 2.538c1.887 2.156 4.07 4.689 5.431 7.544h2.115l-.883 1.92 3.089 1.92-3.17-.345c.189 1.051.218 2.124.086 3.184a4.11 4.11 0 01-1.527 2.696s-2.449-5.008-2.449-5.789v1.952s-1.974-1.757-1.974-2.928l-1.077 1.366h-7.18l1.077-1.757-4.128.586 1.616-2.148-6.392 8.869s-3.66-10.04 1.545-12.969z" fill="#2F2E41"/><rect x="30.926" y="247.595" width="395.701" height="76.92" rx="10" fill="#8CC440"/><path d="M61.262 277.617h7.125v19.216h4.864v-19.216h7.125v-4.057H61.262v4.057zm22.261 19.216h4.92v-8.25h3.592l4.409 8.25h5.432l-4.943-9.045c2.647-1.137 4.113-3.443 4.113-6.625 0-4.625-3.057-7.603-8.34-7.603h-9.183v23.273zm4.92-12.204v-7.046h3.32c2.84 0 4.215 1.262 4.215 3.58 0 2.307-1.375 3.466-4.193 3.466h-3.341zm21.001-11.069h-4.921v23.273h4.921V273.56zm8.06 23.273l1.727-5.307h8.398l1.727 5.307h5.273l-8.023-23.273h-6.341l-8.034 23.273h5.273zm2.977-9.148l2.864-8.806h.181l2.864 8.806h-5.909zm16.699 9.148h17.818v-4.057H143.35l11.625-16.295v-2.921h-17.818v4.057h11.636l-11.613 16.296v2.92zm26.514-23.273h-4.92v23.273h4.92V273.56zm23.514 0h-4.898v14.637h-.204L172.06 273.56h-4.318v23.273h4.921v-14.648h.17l10.125 14.648h4.25V273.56zm4.066 23.273h15.727v-4.057h-10.807v-5.556h9.955v-4.057h-9.955v-5.546h10.761v-4.057h-15.681v23.273zm39.625-16.579h4.715c-.068-4.148-3.477-7.012-8.659-7.012-5.102 0-8.841 2.818-8.818 7.046-.011 3.432 2.409 5.397 6.341 6.341l2.534.636c2.534.614 3.943 1.341 3.955 2.909-.012 1.705-1.625 2.864-4.125 2.864-2.557 0-4.398-1.182-4.557-3.512h-4.761c.125 5.034 3.727 7.637 9.375 7.637 5.681 0 9.022-2.716 9.034-6.978-.012-3.875-2.932-5.931-6.978-6.84l-2.091-.5c-2.022-.466-3.715-1.216-3.681-2.887 0-1.5 1.329-2.602 3.738-2.602 2.353 0 3.796 1.068 3.978 2.898zm29.73 4.943c0-7.614-4.728-11.955-10.898-11.955-6.205 0-10.898 4.341-10.898 11.955 0 7.579 4.693 11.954 10.898 11.954 6.17 0 10.898-4.341 10.898-11.954zm-4.989 0c0 4.932-2.341 7.602-5.909 7.602-3.58 0-5.909-2.67-5.909-7.602s2.329-7.602 5.909-7.602c3.568 0 5.909 2.67 5.909 7.602zm8.634 11.636h4.92v-9.613h9.466v-4.057h-9.466v-5.546h10.489v-4.057h-15.409v23.273zm17.832-19.216h7.125v19.216h4.864v-19.216h7.125v-4.057h-19.114v4.057zm27.5 19.216h4.795l4.421-15.216h.182l4.432 15.216h4.795l6.659-23.273h-5.375l-3.852 16.205h-.205l-4.238-16.205h-4.603l-4.25 16.171h-.193l-3.852-16.171h-5.375l6.659 23.273zm29.554 0l1.727-5.307h8.398l1.727 5.307h5.273l-8.023-23.273h-6.341l-8.034 23.273h5.273zm2.977-9.148l2.864-8.806h.182l2.863 8.806h-5.909zm16.949 9.148h4.921v-8.25h3.591l4.409 8.25h5.431l-4.943-9.045c2.648-1.137 4.114-3.443 4.114-6.625 0-4.625-3.057-7.603-8.341-7.603h-9.182v23.273zm4.921-12.204v-7.046h3.318c2.841 0 4.216 1.262 4.216 3.58 0 2.307-1.375 3.466-4.193 3.466h-3.341zm16.079 12.204h15.727v-4.057h-10.806v-5.556h9.954v-4.057h-9.954v-5.546h10.761v-4.057h-15.682v23.273z" fill="#fff"/><rect x="94.365" y="150.057" width="64.232" height="64.232" rx="16" fill="#303FA0"/><rect x="158.598" y="69.965" width="64.232" height="64.232" rx="16" fill="#303FA0"/><rect x="214.108" y="150.057" width="64.232" height="64.232" rx="16" fill="#303FA0"/><rect x="333.848" y="151.643" width="64.232" height="64.232" rx="16" fill="#303FA0"/><rect x="291.82" y="66" width="64.232" height="64.232" rx="16" fill="#303FA0"/><path opacity=".5" d="M366.36 207.945c13.139 0 23.79-10.651 23.79-23.79 0-13.138-10.651-23.789-23.79-23.789-13.138 0-23.789 10.651-23.789 23.789 0 13.139 10.651 23.79 23.789 23.79z" fill="url(#paint0_linear)"/><path d="M366.359 207.313c12.861 0 23.287-10.426 23.287-23.287 0-12.861-10.426-23.287-23.287-23.287-12.861 0-23.287 10.426-23.287 23.287 0 12.861 10.426 23.287 23.287 23.287z" fill="#F5F5F5"/><path d="M357.276 184.233s-2.639 13.007-4.08 12.286c0 0 13.897 12.005 26.168 0 0 0-2.161-9.166-5.281-12.286h-16.807z" fill="#333"/><path d="M366.425 207.382a23.174 23.174 0 0012.801-3.83c-.858-4.689-4.124-4.958-4.124-4.958h-18.007s-3.079.253-4.044 4.568a23.177 23.177 0 0013.374 4.22z" fill="#1A237F"/><path d="M366.179 193.836c5.702 0 10.324-4.622 10.324-10.323 0-5.702-4.622-10.324-10.324-10.324-5.701 0-10.323 4.622-10.323 10.324 0 5.701 4.622 10.323 10.323 10.323z" fill="#333"/><path opacity=".1" d="M362.553 192.876h7.203v5.762a3.6 3.6 0 01-3.594 3.6 3.6 3.6 0 01-3.601-3.6v-5.762h-.008z" fill="#000"/><path d="M363.24 192.609h5.828a.687.687 0 01.688.687v5.075a3.6 3.6 0 01-3.595 3.6 3.602 3.602 0 01-3.6-3.6v-5.077a.686.686 0 01.679-.685z" fill="#BE7C5E"/><path opacity=".1" d="M362.567 195.596c2.321.867 4.876.875 7.203.02v-.884h-7.203v.864z" fill="#000"/><path d="M366.179 196.076c5.702 0 10.324-4.622 10.324-10.324 0-5.701-4.622-10.323-10.324-10.323-5.701 0-10.323 4.622-10.323 10.323 0 5.702 4.622 10.324 10.323 10.324z" fill="#BE7C5E"/><path d="M356.313 181.832h19.686s-1.681-7.949-9.123-7.442c-7.441.507-10.563 7.442-10.563 7.442z" fill="#333"/><path d="M376.236 187.113c.531 0 .961-.806.961-1.8s-.43-1.8-.961-1.8c-.53 0-.96.806-.96 1.8s.43 1.8.96 1.8z" fill="#BE7C5E"/><path opacity=".1" d="M356.313 182.098h19.686s-1.681-7.948-9.123-7.441c-7.441.507-10.563 7.441-10.563 7.441z" fill="#000"/><path opacity=".5" d="M246.62 205.566c13.139 0 23.79-10.651 23.79-23.79 0-13.138-10.651-23.789-23.79-23.789s-23.79 10.651-23.79 23.789c0 13.139 10.651 23.79 23.79 23.79z" fill="url(#paint1_linear)"/><path d="M246.666 204.909c12.861 0 23.286-10.426 23.286-23.286 0-12.861-10.425-23.287-23.286-23.287s-23.287 10.426-23.287 23.287c0 12.86 10.426 23.286 23.287 23.286z" fill="#F5F5F5"/><path d="M246.686 205.004a23.183 23.183 0 0012.802-3.831c-.861-4.69-4.125-4.959-4.125-4.959h-18.004s-3.08.252-4.044 4.567a23.186 23.186 0 0013.371 4.223z" fill="#1A237F"/><path d="M246.442 192.373c6.209 0 11.241-5.033 11.241-11.241 0-6.208-5.032-11.241-11.241-11.241-6.208 0-11.241 5.033-11.241 11.241 0 6.208 5.033 11.241 11.241 11.241z" fill="#72351C"/><path opacity=".1" d="M242.813 190.495h7.203v5.762a3.606 3.606 0 01-3.601 3.607 3.603 3.603 0 01-3.6-3.601v-5.768h-.002z" fill="#000"/><path d="M243.494 190.228h5.828a.684.684 0 01.688.687v5.075a3.597 3.597 0 01-3.601 3.6 3.602 3.602 0 01-3.6-3.6v-5.075a.687.687 0 01.687-.687h-.002z" fill="#FDA57D"/><path opacity=".1" d="M242.82 193.215c2.322.867 4.877.874 7.204.02v-.885h-7.204v.865z" fill="#000"/><path d="M246.441 193.697c5.701 0 10.323-4.622 10.323-10.324 0-5.701-4.622-10.323-10.323-10.323-5.702 0-10.324 4.622-10.324 10.323 0 5.702 4.622 10.324 10.324 10.324z" fill="#FDA57D"/><path opacity=".1" d="M239.088 173.984s4.35 8.827 16.628 3.695l-2.858-4.481-5.064-1.819-8.706 2.605z" fill="#000"/><path d="M239.088 173.855s4.35 8.827 16.628 3.695l-2.858-4.482-5.064-1.818-8.706 2.605z" fill="#72351C"/><path d="M239.049 173.257a5.975 5.975 0 011.478-2.403c2.031-2.008 5.36-2.431 7.068-4.722a1.333 1.333 0 01-.167 1.559 1.33 1.33 0 01-.449.326c1.643-.011 3.533-.154 4.457-1.501a3.066 3.066 0 01-.515 3.231c1.449.066 2.997 1.049 3.091 2.498.062.965-.542 1.879-1.336 2.433-.795.554-1.751.803-2.695 1.008-2.755.616-12.73 3.163-10.932-2.429zM256.764 183.464h-.273l-5.325 4.744c-5.132-2.402-8.897 0-8.897 0l-5.583-4.545-.563.07a10.32 10.32 0 0010.452 10.032 10.323 10.323 0 0010.191-10.297l-.002-.004zm-10.338 6.558c-2.008 0-3.635-.41-3.635-.909 0-.499 1.627-.909 3.635-.909s3.636.41 3.636.909c0 .499-1.628.909-3.638.909h.002z" fill="#72351C"/><path d="M236.113 185.164c.531 0 .961-.806.961-1.801 0-.994-.43-1.8-.961-1.8-.53 0-.961.806-.961 1.8 0 .995.431 1.801.961 1.801zM256.764 185.164c.53 0 .96-.806.96-1.801 0-.994-.43-1.8-.96-1.8-.531 0-.961.806-.961 1.8 0 .995.43 1.801.961 1.801z" fill="#FDA57D"/><path opacity=".5" d="M324.333 123.095c13.138 0 23.789-10.651 23.789-23.79 0-13.138-10.651-23.79-23.789-23.79-13.139 0-23.79 10.652-23.79 23.79 0 13.139 10.651 23.79 23.79 23.79z" fill="url(#paint2_linear)"/><path d="M324.334 122.463c12.861 0 23.286-10.426 23.286-23.287 0-12.86-10.425-23.286-23.286-23.286s-23.287 10.425-23.287 23.286 10.426 23.287 23.287 23.287z" fill="#F5F5F5"/><path d="M324.399 122.529a23.178 23.178 0 0012.801-3.831c-.858-4.688-4.124-4.957-4.124-4.957h-18.004s-3.08.252-4.044 4.567a23.176 23.176 0 0013.371 4.221z" fill="#1A237F"/><path d="M324.154 108.987c5.701 0 10.323-4.622 10.323-10.324 0-5.701-4.622-10.323-10.323-10.323-5.702 0-10.324 4.622-10.324 10.323 0 5.702 4.622 10.324 10.324 10.324z" fill="#333"/><path opacity=".1" d="M320.528 108.026h7.203v5.762a3.601 3.601 0 01-7.201 0v-5.762h-.002z" fill="#000"/><path d="M321.215 107.759h5.828a.687.687 0 01.688.688v5.074a3.601 3.601 0 01-7.202 0v-5.074a.691.691 0 01.686-.688z" fill="#BE7C5E"/><path opacity=".1" d="M320.541 110.746c2.322.867 4.877.875 7.203.02v-.884h-7.203v.864z" fill="#000"/><path d="M324.154 111.228c5.701 0 10.323-4.622 10.323-10.323 0-5.702-4.622-10.324-10.323-10.324-5.702 0-10.324 4.622-10.324 10.324 0 5.701 4.622 10.323 10.324 10.323z" fill="#BE7C5E"/><path d="M317.9 96.647c.121-.445.273-.936.673-1.168.317-.184.709-.156 1.074-.137 2.853.156 5.682-.495 8.457-1.174 1.587-.388 3.285-.86 4.311-2.14 1.027-1.278-.312-5.298-1.874-5.772-1.026-.314-2.217.271-3.19-.189-.433-.205-.751-.589-1.125-.889-.766-.615-1.749-.864-2.701-1.098-1.113-.275-2.316-.544-3.373-.102-.821.34-1.421 1.06-2.199 1.488-1.48.82-3.284.44-4.98.435-.572 0-1.256.115-1.484.64-.154.358-.031.764-.014 1.152.049 1.232-.967 2.19-1.819 3.08-.852.888-1.656 2.157-1.119 3.261.206.42.581.74.795 1.156.367.722.182 1.595.316 2.393.134.606.36 1.188.671 1.725.632 1.231 3.808 7.862 5.268 6.177.706-.822.821-3.195 1.106-4.262.394-1.534.797-3.06 1.207-4.576z" fill="#333"/><path d="M316.809 102.329c.53 0 .96-.806.96-1.8s-.43-1.8-.96-1.8c-.531 0-.961.806-.961 1.8s.43 1.8.961 1.8z" fill="#BE7C5E"/><path opacity=".5" d="M126.878 205.566c13.138 0 23.789-10.651 23.789-23.79 0-13.138-10.651-23.789-23.789-23.789-13.139 0-23.79 10.651-23.79 23.789 0 13.139 10.651 23.79 23.79 23.79z" fill="url(#paint3_linear)"/><path d="M126.925 204.911c12.861 0 23.287-10.426 23.287-23.286 0-12.861-10.426-23.287-23.287-23.287-12.86 0-23.286 10.426-23.286 23.287 0 12.86 10.426 23.286 23.286 23.286z" fill="#F5F5F5"/><path d="M139.735 183.92c0 7.747-5.565 11.559-12.793 11.559-7.227 0-13.376-3.812-13.376-11.559 0-7.748 5.859-14.027 13.085-14.027 7.226 0 13.084 6.273 13.084 14.027z" fill="#333"/><path d="M126.944 205.004a23.179 23.179 0 0012.803-3.831c-.858-4.688-4.124-4.957-4.124-4.957h-18.007s-3.079.252-4.044 4.567a23.182 23.182 0 0013.372 4.221z" fill="#1A237F"/><path opacity=".1" d="M123.073 190.49h7.203v5.763a3.595 3.595 0 01-2.227 3.334 3.6 3.6 0 01-1.382.272 3.6 3.6 0 01-3.601-3.6v-5.769h.007z" fill="#000"/><path d="M123.758 190.23h5.828a.687.687 0 01.688.688v5.074a3.606 3.606 0 01-2.227 3.328 3.613 3.613 0 01-3.926-.782 3.601 3.601 0 01-1.055-2.546v-5.077a.688.688 0 01.688-.687l.004.002z" fill="#FDA57D"/><path opacity=".1" d="M123.086 193.217c2.321.867 4.877.875 7.203.02v-.885h-7.203v.865z" fill="#000"/><path d="M126.698 193.697c5.702 0 10.324-4.622 10.324-10.324 0-5.701-4.622-10.323-10.324-10.323-5.701 0-10.323 4.622-10.323 10.323 0 5.702 4.622 10.324 10.323 10.324z" fill="#FDA57D"/><path opacity=".1" d="M114.801 184.049s6.429-.78 11.29-7.012c0 0 6.429 7.078 10.909 6.297 0 0 2.596-2.728 0-5.454-2.597-2.726-4.611-6.168-8.051-5.715-3.441.454-7.663.649-9.48 2.273-1.817 1.623-4.668 9.611-4.668 9.611z" fill="#000"/><path d="M114.801 183.92s6.429-.78 11.29-7.013c0 0 6.429 7.078 10.909 6.298 0 0 2.596-2.728 0-5.454-2.597-2.726-4.611-6.169-8.051-5.715-3.441.454-7.655.641-9.472 2.283-1.817 1.642-4.676 9.601-4.676 9.601z" fill="#333"/><path d="M116.371 185.166c.531 0 .961-.806.961-1.801 0-.994-.43-1.8-.961-1.8-.531 0-.961.806-.961 1.8 0 .995.43 1.801.961 1.801zM137.021 185.166c.531 0 .961-.806.961-1.801 0-.994-.43-1.8-.961-1.8-.53 0-.96.806-.96 1.8 0 .995.43 1.801.96 1.801z" fill="#FDA57D"/><path opacity=".5" d="M191.11 126.267c13.139 0 23.79-10.651 23.79-23.789 0-13.14-10.651-23.79-23.79-23.79s-23.79 10.65-23.79 23.79c0 13.138 10.651 23.789 23.79 23.789z" fill="url(#paint4_linear)"/><path d="M191.156 125.612c12.861 0 23.287-10.425 23.287-23.286s-10.426-23.287-23.287-23.287c-12.861 0-23.287 10.426-23.287 23.287 0 12.861 10.426 23.286 23.287 23.286z" fill="#F5F5F5"/><path d="M191.177 125.705a23.175 23.175 0 0012.793-3.831c-.858-4.688-4.124-4.957-4.124-4.957h-17.999s-3.079.252-4.044 4.567a23.178 23.178 0 0013.374 4.221z" fill="#1A237F"/><path d="M190.929 113.076c6.208 0 11.241-5.033 11.241-11.241 0-6.208-5.033-11.241-11.241-11.241-6.209 0-11.241 5.033-11.241 11.241 0 6.208 5.032 11.241 11.241 11.241z" fill="#F55F44"/><path opacity=".1" d="M187.303 111.198h7.203v5.762a3.601 3.601 0 01-7.201 0v-5.762h-.002z" fill="#000"/><path d="M187.99 110.931h5.828a.693.693 0 01.636.424.702.702 0 01.052.264v5.074a3.6 3.6 0 11-7.201 0v-5.074a.688.688 0 01.687-.688h-.002z" fill="#FDA57D"/><path opacity=".1" d="M187.317 113.918c2.321.867 4.876.875 7.203.02v-.884h-7.203v.864z" fill="#000"/><path d="M190.929 114.4c5.701 0 10.323-4.622 10.323-10.323 0-5.702-4.622-10.324-10.323-10.324-5.701 0-10.323 4.622-10.323 10.324 0 5.701 4.622 10.323 10.323 10.323z" fill="#FDA57D"/><path d="M190.915 94.556a4.155 4.155 0 100-8.31 4.155 4.155 0 000 8.31z" fill="#F55F44"/><path d="M190.916 89.038a2.728 2.728 0 100-5.457 2.728 2.728 0 000 5.457z" fill="#F55F44"/><path d="M189.112 92.68a4.153 4.153 0 01-2.166-5.313 4.166 4.166 0 00-.176 3.356 4.162 4.162 0 002.183 2.313 4.155 4.155 0 005.492-2.091c.027-.06.051-.12.076-.18a4.152 4.152 0 01-5.409 1.915z" fill="#F55F44"/><path opacity=".1" d="M183.578 94.687s4.35 8.827 16.628 3.695l-2.858-4.48-5.064-1.82-8.706 2.605z" fill="#000"/><path d="M183.578 94.556s4.35 8.827 16.628 3.695l-2.858-4.481-5.064-1.819-8.706 2.605z" fill="#F55F44"/><path d="M186.93 91.341c2.677-.21 5.366-.21 8.043 0 0 0-5.941.553-8.043 0z" fill="#333"/><path d="M191.54 83.416a2.735 2.735 0 00-.616.047h.158a2.727 2.727 0 01.411 5.405 2.723 2.723 0 002.75-2.702 2.722 2.722 0 00-2.701-2.75h-.002z" fill="#F55F44"/><path d="M180.603 105.867c.531 0 .961-.806.961-1.801 0-.994-.43-1.8-.961-1.8-.53 0-.96.806-.96 1.8 0 .995.43 1.801.96 1.801zM201.252 105.867c.53 0 .961-.806.961-1.801 0-.994-.431-1.8-.961-1.8-.531 0-.961.806-.961 1.8 0 .995.43 1.801.961 1.801z" fill="#FDA57D"/><path d="M182.928 94.817l2.014-1.04.453 1.666-1.233.84-1.234-1.466z" fill="#F55F44"/><path d="M48.711 64.194l13.372 1.703-8.16 10.729-5.212-12.432z" fill="#FF8F00"/><path d="M40.656 148.224l8.528 10.44-13.305 2.165 4.777-12.605z" fill="#06AAF5"/><path d="M256.682 18.25l8.527 10.44-13.304 2.165 4.777-12.605z" fill="#FFF9C4"/><path d="M454.682 123.25l8.528 10.44-13.305 2.165 4.777-12.605z" fill="#8CC440"/><circle cx="177" cy="37" r="4" fill="#8CC440"/><circle cx="193" cy="210" r="4" fill="#FF8F00"/><defs><linearGradient id="paint0_linear" x1="18659.2" y1="11212.6" x2="18659.2" y2="184.631" gradientUnits="userSpaceOnUse"><stop stop-color="gray" stop-opacity=".25"/><stop offset=".54" stop-color="gray" stop-opacity=".12"/><stop offset="1" stop-color="gray" stop-opacity=".1"/></linearGradient><linearGradient id="paint1_linear" x1="31683.7" y1="11185.4" x2="31683.7" y2="157.987" gradientUnits="userSpaceOnUse"><stop stop-color="gray" stop-opacity=".25"/><stop offset=".54" stop-color="gray" stop-opacity=".12"/><stop offset="1" stop-color="gray" stop-opacity=".1"/></linearGradient><linearGradient id="paint2_linear" x1="324.333" y1="123.095" x2="324.333" y2="75.518" gradientUnits="userSpaceOnUse"><stop stop-color="gray" stop-opacity=".25"/><stop offset=".54" stop-color="gray" stop-opacity=".12"/><stop offset="1" stop-color="gray" stop-opacity=".1"/></linearGradient><linearGradient id="paint3_linear" x1="18755.6" y1="36148.9" x2="18755.6" y2="25121.4" gradientUnits="userSpaceOnUse"><stop stop-color="gray" stop-opacity=".25"/><stop offset=".54" stop-color="gray" stop-opacity=".12"/><stop offset="1" stop-color="gray" stop-opacity=".1"/></linearGradient><linearGradient id="paint4_linear" x1="18489.2" y1="23402.5" x2="18489.2" y2="12375.1" gradientUnits="userSpaceOnUse"><stop stop-color="gray" stop-opacity=".25"/><stop offset=".54" stop-color="gray" stop-opacity=".12"/><stop offset="1" stop-color="gray" stop-opacity=".1"/></linearGradient></defs></svg>