<svg width="509" height="457" viewBox="0 0 509 457" fill="none" xmlns="http://www.w3.org/2000/svg">
<rect x="133" y="298" width="54" height="54" rx="10" fill="#3F4B52"/>
<rect x="409" y="88" width="100" height="100" rx="16" fill="#0D6AB4"/>
<rect x="28" y="273" width="100" height="100" rx="16" fill="#0D6AB4"/>
<rect x="109" y="31" width="33" height="33" rx="4" fill="#0D6AB4"/>
<rect x="351" y="6" width="45" height="45" rx="10" fill="#0D6AB4"/>
<rect x="377" y="283" width="63" height="63" rx="10" fill="#3F4B52"/>
<rect x="160.027" y="203" width="37" height="37" rx="4" fill="#3F4B52"/>
<path d="M281.334 427.223L281.323 422.27V427.223C270.09 427.223 263.837 423.403 260.571 420.196C253.362 413.132 252.094 406.009 252.094 393.648V69.5751C252.094 57.2195 253.362 50.0908 260.571 43.0266C263.837 39.8249 270.095 36 281.328 36H412.792C424.036 36 430.289 39.8195 433.555 43.0266C440.765 50.0908 442.032 57.2141 442.032 69.5751V393.648C442.032 406.003 440.765 413.127 433.555 420.196C430.289 423.398 424.036 427.223 412.798 427.223H281.334Z" fill="#F9F6F0"/>
<path d="M442.569 125.712H441.739C440.395 125.712 439.305 126.802 439.305 128.147V170.236C439.305 171.581 440.395 172.671 441.739 172.671H442.569C443.913 172.671 445.003 171.581 445.003 170.236V128.147C445.003 126.802 443.913 125.712 442.569 125.712Z" fill="#F9F6F0"/>
<rect x="334.414" y="46.1316" width="25.2485" height="3.76042" rx="1.88021" fill="white"/>
<circle cx="368.794" cy="48.2805" r="3.22321" fill="white"/>
<mask id="mask0" mask-type="alpha" maskUnits="userSpaceOnUse" x="260" y="44" width="174" height="376">
<path d="M427.809 49.1868C425.655 47.0728 421.33 44.5554 412.928 44.5554H397.934C397.171 44.6522 396.064 45.1148 395.957 46.9437C395.807 49.4611 395.495 52.78 393.002 55.335C391.079 57.3038 388.597 58.2397 386.013 58.2397C380.431 58.2397 314.358 58.2397 308.776 58.2397C306.192 58.2397 303.705 57.3038 301.782 55.335C299.289 52.78 298.983 49.4611 298.832 46.9437C298.725 45.1095 297.613 44.6522 296.855 44.5554H281.459C273.062 44.5554 268.732 47.0728 266.583 49.1868C261.528 54.1517 260.625 58.8906 260.625 69.7617V394.259C260.625 405.124 261.522 409.869 266.583 414.834C268.737 416.942 273.062 419.465 281.464 419.465H412.933C421.335 419.465 425.66 416.948 427.809 414.834C432.87 409.869 433.767 405.124 433.767 394.259V69.7617C433.767 58.896 432.87 54.1517 427.809 49.1868Z" fill="#494949"/>
</mask>
<g mask="url(#mask0)">
<rect x="260.625" y="44.5554" width="173.142" height="374.909" fill="#0D6AB4"/>
</g>
<rect x="315.566" y="412.535" width="63.7162" height="2.30856" rx="1.15428" fill="black"/>
<path d="M251.723 88.7749H251.712C250.831 88.7749 250.117 89.4889 250.117 90.3696V102.638C250.117 103.519 250.831 104.233 251.712 104.233H251.723C252.603 104.233 253.317 103.519 253.317 102.638V90.3696C253.317 89.4889 252.603 88.7749 251.723 88.7749Z" fill="black"/>
<path d="M251.807 117.075H251.797C250.804 117.075 250 117.879 250 118.872V142.186C250 143.179 250.804 143.983 251.797 143.983H251.807C252.8 143.983 253.604 143.179 253.604 142.186V118.872C253.604 117.879 252.8 117.075 251.807 117.075Z" fill="black"/>
<path d="M251.777 153.392H251.766C250.821 153.392 250.055 154.159 250.055 155.104V178.823C250.055 179.768 250.821 180.534 251.766 180.534H251.777C252.722 180.534 253.489 179.768 253.489 178.823V155.104C253.489 154.159 252.722 153.392 251.777 153.392Z" fill="black"/>
<path d="M114.334 456.332L114.323 451.379V456.332C103.09 456.332 96.837 452.513 93.5708 449.306C86.3615 442.242 85.0938 435.118 85.0938 422.757V98.6845C85.0938 86.3289 86.3615 79.2002 93.5708 72.136C96.837 68.9343 103.095 65.1094 114.328 65.1094H245.792C257.036 65.1094 263.289 68.9289 266.555 72.136C273.765 79.2002 275.032 86.3235 275.032 98.6845V422.757C275.032 435.113 273.765 442.236 266.555 449.306C263.289 452.507 257.036 456.332 245.798 456.332H114.334Z" fill="#F9F6F0"/>
<path d="M275.569 154.821H274.739C273.395 154.821 272.305 155.911 272.305 157.256V199.346C272.305 200.69 273.395 201.78 274.739 201.78H275.569C276.913 201.78 278.003 200.69 278.003 199.346V157.256C278.003 155.911 276.913 154.821 275.569 154.821Z" fill="#F9F6F0"/>
<rect x="167.414" y="75.241" width="25.2485" height="3.76042" rx="1.88021" fill="white"/>
<circle cx="201.794" cy="77.3898" r="3.22321" fill="white"/>
<mask id="mask1" mask-type="alpha" maskUnits="userSpaceOnUse" x="93" y="73" width="174" height="376">
<path d="M260.809 78.2962C258.655 76.1822 254.33 73.6648 245.928 73.6648H230.934C230.171 73.7616 229.064 74.2242 228.957 76.0531C228.807 78.5705 228.495 81.8894 226.002 84.4444C224.079 86.4132 221.597 87.3491 219.013 87.3491C213.431 87.3491 147.358 87.3491 141.776 87.3491C139.192 87.3491 136.705 86.4132 134.782 84.4444C132.289 81.8894 131.983 78.5705 131.832 76.0531C131.725 74.2188 130.613 73.7616 129.855 73.6648H114.459C106.062 73.6648 101.732 76.1822 99.5828 78.2962C94.5275 83.261 93.625 88 93.625 98.8711V423.368C93.625 434.234 94.5222 438.978 99.5828 443.943C101.737 446.052 106.062 448.574 114.464 448.574H245.933C254.335 448.574 258.66 446.057 260.809 443.943C265.87 438.978 266.767 434.234 266.767 423.368V98.8711C266.767 88.0054 265.87 83.261 260.809 78.2962Z" fill="#494949"/>
</mask>
<g mask="url(#mask1)">
<rect x="93.625" y="73.6648" width="173.142" height="374.909" fill="#0D6AB4"/>
</g>
<rect x="148.566" y="441.644" width="63.7162" height="2.30856" rx="1.15428" fill="black"/>
<path d="M84.7225 117.884H84.7119C83.8312 117.884 83.1172 118.598 83.1172 119.479V131.748C83.1172 132.628 83.8312 133.342 84.7119 133.342H84.7225C85.6033 133.342 86.3172 132.628 86.3172 131.748V119.479C86.3172 118.598 85.6033 117.884 84.7225 117.884Z" fill="#F9F6F0"/>
<path d="M84.8073 146.184H84.7967C83.8044 146.184 83 146.989 83 147.981V171.296C83 172.288 83.8044 173.092 84.7967 173.092H84.8073C85.7996 173.092 86.6041 172.288 86.6041 171.296V147.981C86.6041 146.989 85.7996 146.184 84.8073 146.184Z" fill="#F9F6F0"/>
<path d="M84.777 182.502H84.7663C83.821 182.502 83.0547 183.268 83.0547 184.213V207.932C83.0547 208.877 83.821 209.644 84.7663 209.644H84.777C85.7223 209.644 86.4886 208.877 86.4886 207.932V184.213C86.4886 183.268 85.7223 182.502 84.777 182.502Z" fill="#F9F6F0"/>
<path d="M404.711 52.1945L418.083 53.897L409.923 64.626L404.711 52.1945Z" fill="#FF8F00"/>
<path d="M48.7113 104.194L62.0831 105.897L53.9228 116.626L48.7113 104.194Z" fill="#FF8F00"/>
<path d="M7.68141 141.251L16.2093 151.69L2.90467 153.856L7.68141 141.251Z" fill="#06AAF5"/>
<path d="M486.344 334.224L478.016 344.823L473.001 332.311L486.344 334.224Z" fill="#06AAF5"/>
<path d="M332.681 10.2504L341.209 20.6896L327.905 22.8553L332.681 10.2504Z" fill="#FFF9C4"/>
<path d="M450.681 242.25L459.209 252.69L445.905 254.855L450.681 242.25Z" fill="#FFF9C4"/>
<path d="M220.003 47.5428L210.348 56.9501L207.029 43.8855L220.003 47.5428Z" fill="#FFD037"/>
<path d="M35.6814 296.25L44.2093 306.69L30.9047 308.855L35.6814 296.25Z" fill="#8CC440"/>
<path d="M144.681 3.25036L153.209 13.6896L139.905 15.8553L144.681 3.25036Z" fill="#8CC440"/>
<circle cx="38" cy="64" r="4" fill="#8CC440"/>
<circle cx="494" cy="169" r="4" fill="#8CC440"/>
<circle cx="79" cy="226" r="4" fill="#FF8F00"/>
<circle cx="283" cy="4" r="4" fill="#FF8F00"/>
<circle cx="453" cy="25" r="4" fill="#FF8F00"/>
</svg>
