<svg xmlns="http://www.w3.org/2000/svg" width="180" height="140" fill="none" viewBox="0 0 180 140">
    <path fill="#FF8F00" d="M17.913 25.397l5.117.651-3.123 4.106-1.994-4.757z"/>
    <path fill="#FFF9C4" d="M97.499 7.815l3.263 3.994-5.091.83 1.828-4.824z"/>
    <path fill="#8CC440" d="M35.124 132.951l3.263 3.995-5.091.829 1.828-4.824zM61.269 35.654c0 .846-.686 1.531-1.531 1.531-.846 0-1.531-.685-1.531-1.53 0-.846.685-1.532 1.53-1.532.846 0 1.532.686 1.532 1.531z"/>
    <path fill="#FF8F00" d="M29.89 91.908c0 .846-.686 1.53-1.531 1.53-.846 0-1.53-.684-1.53-1.53 0-.845.684-1.53 1.53-1.53.845 0 1.53.685 1.53 1.53zM126.706 23.026c0 .845-.685 1.53-1.531 1.53-.845 0-1.53-.685-1.53-1.53 0-.846.685-1.53 1.53-1.53.846 0 1.531.684 1.531 1.53z"/>
    <path fill="#FFEB3B" fill-rule="evenodd" d="M80.592 53.684c-1.423 0-2.723.094-3.91.265l-.285-1.98c1.288-.186 2.684-.285 4.195-.285v2zm-7.657 1.167c-2.863 1.014-4.8 2.58-6.084 4.268l-1.592-1.211c1.523-2.002 3.783-3.8 7.008-4.942l.668 1.885zm-7.819 7.551c-.453 1.357-.597 2.636-.554 3.633l-1.998.085c-.054-1.244.126-2.767.655-4.352l1.897.634z" clip-rule="evenodd"/>
    <path fill="#FFEB3B" d="M82.7 52.684L79.254 55.5v-5.634l3.444 2.817z"/>
    <path fill="#06AAF5" d="M42.01 61.007l3.264 3.995-5.091.829 1.828-4.824z"/>
    <path fill="#31650D" d="M10.754 33.914c0-2.21 1.79-4 4-4h30.268c2.209 0 4 1.79 4 4v30.268c0 2.21-1.791 4-4 4H14.754c-2.21 0-4-1.79-4-4V33.914zM62.414 4.83c0-2.209 1.79-4 4-4h30.268c2.21 0 4 1.791 4 4V35.1c0 2.209-1.79 4-4 4H66.414c-2.21 0-4-1.791-4-4V4.83zM76.191 54.961c0-2.209 1.791-4 4-4h9.221c2.21 0 4 1.791 4 4v9.221c0 2.21-1.79 4-4 4h-9.22c-2.21 0-4-1.79-4-4v-9.22zM141.629 22.434c0-2.21 1.791-4 4-4h30.268c2.209 0 4 1.79 4 4v30.268c0 2.21-1.791 4-4 4h-30.268c-2.209 0-4-1.79-4-4V22.434z"/>
    <path fill="#fff" d="M2.762 115.435v7.724h.004c.054.652.654 1.171 1.381 1.171h7.767c.726 0 1.326-.519 1.38-1.171h.005v-7.724H2.762zM2.36 121.093c0 .761-.532 1.385-1.18 1.385-.65 0-1.18-.624-1.18-1.385v-4.534c0-.762.53-1.386 1.18-1.386.648 0 1.18.624 1.18 1.386v4.534z"/>
    <path fill="#fff" d="M7.277 126.719c0 .762-.53 1.386-1.18 1.386-.648 0-1.179-.624-1.179-1.386v-4.533c0-.762.53-1.386 1.18-1.386.648 0 1.179.624 1.179 1.386v4.533zM11.207 126.719c0 .762-.531 1.386-1.18 1.386-.648 0-1.18-.624-1.18-1.386v-4.533c0-.762.532-1.386 1.18-1.386.649 0 1.18.624 1.18 1.386v4.533zM16.113 121.093c0 .761-.53 1.385-1.18 1.385-.648 0-1.18-.624-1.18-1.385v-4.534c0-.762.532-1.386 1.18-1.386.65 0 1.18.624 1.18 1.386v4.534zM10.636 110.791l.756-1.358c.062-.111.044-.24-.04-.287-.084-.047-.204.006-.265.117l-.775 1.389c-.69-.272-1.464-.424-2.282-.424-.823 0-1.603.155-2.297.43l-.778-1.395c-.062-.111-.181-.164-.265-.117-.084.047-.102.176-.04.287l.76 1.365c-1.582.743-2.648 2.139-2.648 3.738 0 .162.011.322.032.48h10.472c.022-.158.033-.318.033-.48 0-1.604-1.073-3.004-2.663-3.745zm-4.997 2.37c-.254 0-.46-.206-.46-.46 0-.255.206-.461.46-.461.255 0 .461.206.461.461 0 .254-.206.46-.46.46zm4.809 0c-.255 0-.461-.206-.461-.46 0-.255.206-.461.46-.461.255 0 .461.206.461.461 0 .254-.206.46-.46.46zM173.897 139.479h-64.893c-2.263 0-4.09-1.854-4.09-4.09V38.213c0-2.263 1.854-4.09 4.09-4.09h64.893c2.263 0 4.09 1.855 4.09 4.09v97.176c0 2.263-1.827 4.09-4.09 4.09z"/>
    <path fill="#31650D" d="M174.58 39.63h-66.256v85.425h66.256V39.631z"/>
    <path fill="#fff" fill-opacity=".25" d="M114.457 52.901c0-2.209 1.791-4 4-4h.998c2.209 0 4 1.791 4 4v.998c0 2.21-1.791 4-4 4h-.998c-2.209 0-4-1.79-4-4v-.998zM114.457 67.897c0-2.209 1.791-4 4-4h.998c2.209 0 4 1.791 4 4v.998c0 2.21-1.791 4-4 4h-.998c-2.209 0-4-1.79-4-4v-.998zM114.457 82.894c0-2.21 1.791-4 4-4h.998c2.209 0 4 1.79 4 4v.998c0 2.209-1.791 4-4 4h-.998c-2.209 0-4-1.791-4-4v-.998zM114.457 97.89c0-2.209 1.791-4 4-4h.998c2.209 0 4 1.791 4 4v.998c0 2.209-1.791 4-4 4h-.998c-2.209 0-4-1.791-4-4v-.998zM114.457 112.886c0-2.209 1.791-4 4-4h.998c2.209 0 4 1.791 4 4v.998c0 2.209-1.791 4-4 4h-.998c-2.209 0-4-1.791-4-4v-.998zM129.453 52.901c0-2.209 1.791-4 4-4h.998c2.209 0 4 1.791 4 4v.998c0 2.21-1.791 4-4 4h-.998c-2.209 0-4-1.79-4-4v-.998zM129.453 67.897c0-2.209 1.791-4 4-4h.998c2.209 0 4 1.791 4 4v.998c0 2.21-1.791 4-4 4h-.998c-2.209 0-4-1.79-4-4v-.998zM129.453 82.894c0-2.21 1.791-4 4-4h.998c2.209 0 4 1.79 4 4v.998c0 2.209-1.791 4-4 4h-.998c-2.209 0-4-1.791-4-4v-.998zM129.453 97.89c0-2.209 1.791-4 4-4h.998c2.209 0 4 1.791 4 4v.998c0 2.209-1.791 4-4 4h-.998c-2.209 0-4-1.791-4-4v-.998zM129.453 112.886c0-2.209 1.791-4 4-4h.998c2.209 0 4 1.791 4 4v.998c0 2.209-1.791 4-4 4h-.998c-2.209 0-4-1.791-4-4v-.998zM144.449 52.901c0-2.209 1.791-4 4-4h.998c2.209 0 4 1.791 4 4v.998c0 2.21-1.791 4-4 4h-.998c-2.209 0-4-1.79-4-4v-.998zM144.449 67.897c0-2.209 1.791-4 4-4h.998c2.209 0 4 1.791 4 4v.998c0 2.21-1.791 4-4 4h-.998c-2.209 0-4-1.79-4-4v-.998zM144.449 82.894c0-2.21 1.791-4 4-4h.998c2.209 0 4 1.79 4 4v.998c0 2.209-1.791 4-4 4h-.998c-2.209 0-4-1.791-4-4v-.998zM144.449 97.89c0-2.209 1.791-4 4-4h.998c2.209 0 4 1.791 4 4v.998c0 2.209-1.791 4-4 4h-.998c-2.209 0-4-1.791-4-4v-.998zM144.449 112.886c0-2.209 1.791-4 4-4h.998c2.209 0 4 1.791 4 4v.998c0 2.209-1.791 4-4 4h-.998c-2.209 0-4-1.791-4-4v-.998zM159.445 52.901c0-2.209 1.791-4 4-4h.998c2.209 0 4 1.791 4 4v.998c0 2.21-1.791 4-4 4h-.998c-2.209 0-4-1.79-4-4v-.998zM159.445 67.897c0-2.209 1.791-4 4-4h.998c2.209 0 4 1.791 4 4v.998c0 2.21-1.791 4-4 4h-.998c-2.209 0-4-1.79-4-4v-.998zM159.445 82.894c0-2.21 1.791-4 4-4h.998c2.209 0 4 1.79 4 4v.998c0 2.209-1.791 4-4 4h-.998c-2.209 0-4-1.791-4-4v-.998zM159.445 97.89c0-2.209 1.791-4 4-4h.998c2.209 0 4 1.791 4 4v.998c0 2.209-1.791 4-4 4h-.998c-2.209 0-4-1.791-4-4v-.998zM159.445 112.886c0-2.209 1.791-4 4-4h.998c2.209 0 4 1.791 4 4v.998c0 2.209-1.791 4-4 4h-.998c-2.209 0-4-1.791-4-4v-.998z"/>
    <path fill="#5D932F" d="M141.124 136.78c2.485 0 4.499-2.015 4.499-4.499 0-2.485-2.014-4.499-4.499-4.499s-4.499 2.014-4.499 4.499c0 2.484 2.014 4.499 4.499 4.499zM141.262 38.54c.798 0 1.445-.647 1.445-1.445s-.647-1.445-1.445-1.445c-.799 0-1.446.647-1.446 1.445s.647 1.445 1.446 1.445z"/>
    <path fill="#31650D" d="M49.406 80.776h35.972v48.983H49.406V80.776z"/>
    <path fill="#fff" fill-opacity=".25" d="M52.836 89.133c0-1.89 1.532-3.422 3.422-3.422 1.89 0 3.423 1.532 3.423 3.422 0 1.89-1.533 3.423-3.423 3.423-1.89 0-3.422-1.533-3.422-3.423zM52.836 99.89c0-1.891 1.532-3.423 3.422-3.423 1.89 0 3.423 1.532 3.423 3.422 0 1.89-1.533 3.422-3.423 3.422-1.89 0-3.422-1.532-3.422-3.422zM52.836 110.645c0-1.89 1.532-3.422 3.422-3.422 1.89 0 3.423 1.532 3.423 3.422 0 1.89-1.533 3.422-3.423 3.422-1.89 0-3.422-1.532-3.422-3.422zM52.836 121.401c0-1.89 1.532-3.422 3.422-3.422 1.89 0 3.423 1.532 3.423 3.422 0 1.89-1.533 3.423-3.423 3.423-1.89 0-3.422-1.533-3.422-3.423zM63.594 89.133c0-1.89 1.532-3.422 3.422-3.422 1.89 0 3.422 1.532 3.422 3.422 0 1.89-1.532 3.423-3.422 3.423-1.89 0-3.422-1.533-3.422-3.423zM63.594 99.89c0-1.891 1.532-3.423 3.422-3.423 1.89 0 3.422 1.532 3.422 3.422 0 1.89-1.532 3.422-3.422 3.422-1.89 0-3.422-1.532-3.422-3.422zM63.594 110.645c0-1.89 1.532-3.422 3.422-3.422 1.89 0 3.422 1.532 3.422 3.422 0 1.89-1.532 3.422-3.422 3.422-1.89 0-3.422-1.532-3.422-3.422zM63.594 121.401c0-1.89 1.532-3.422 3.422-3.422 1.89 0 3.422 1.532 3.422 3.422 0 1.89-1.532 3.423-3.422 3.423-1.89 0-3.422-1.533-3.422-3.423zM74.348 89.133c0-1.89 1.532-3.422 3.422-3.422 1.89 0 3.422 1.532 3.422 3.422 0 1.89-1.532 3.423-3.422 3.423-1.89 0-3.422-1.533-3.422-3.423zM74.348 99.89c0-1.891 1.532-3.423 3.422-3.423 1.89 0 3.422 1.532 3.422 3.422 0 1.89-1.532 3.422-3.422 3.422-1.89 0-3.422-1.532-3.422-3.422zM74.348 110.645c0-1.89 1.532-3.422 3.422-3.422 1.89 0 3.422 1.532 3.422 3.422 0 1.89-1.532 3.422-3.422 3.422-1.89 0-3.422-1.532-3.422-3.422zM74.348 121.401c0-1.89 1.532-3.422 3.422-3.422 1.89 0 3.422 1.532 3.422 3.422 0 1.89-1.532 3.423-3.422 3.423-1.89 0-3.422-1.533-3.422-3.423z"/>
    <path fill="#fff" d="M83.603 74.26H51.024c-2.168 0-3.915 1.746-3.915 3.914v57.377c0 2.167 1.747 3.914 3.915 3.914h32.579c2.168 0 3.915-1.747 3.915-3.914V78.174c0-2.152-1.764-3.915-3.915-3.915zm-22.21 3.008h11.84c.26 0 .47.21.47.47 0 .258-.21.468-.47.468h-11.84c-.259 0-.47-.21-.47-.469s.211-.469.47-.469zm-1.44 58.493H55.36c-.68 0-1.245-.55-1.245-1.245 0-.696.55-1.246 1.245-1.246h4.594c.68 0 1.246.55 1.246 1.246 0 .695-.55 1.245-1.246 1.245zm9.949-.226c0 .873-.712 1.585-1.586 1.585h-2.022c-.873 0-1.585-.712-1.585-1.585v-2.022c0-.874.712-1.586 1.585-1.586h2.022c.874 0 1.586.712 1.586 1.586v2.022zm9.366.226h-4.594c-.68 0-1.246-.55-1.246-1.245 0-.696.55-1.246 1.246-1.246h4.594c.679 0 1.245.55 1.245 1.246 0 .695-.566 1.245-1.245 1.245zm6.228-6.082H49.13V81.377h36.365v48.302z"/>
</svg>
