<svg xmlns="http://www.w3.org/2000/svg" width="484" height="375" fill="none" viewBox="0 0 484 375">
    <rect width="100" height="100" x="42" y="52" fill="#343434" rx="16"/>
    <rect width="100" height="100" x="177" fill="#343434" rx="16"/>
    <rect width="100" height="100" x="185" y="186" fill="#343434" rx="16"/>
    <rect width="100" height="100" x="384" y="46" fill="#343434" rx="16"/>
    <path fill="#F5F5F5" d="M469.694 96h-206.31c-6.796 0-12.306 5.51-12.306 12.306v253.472c0 6.796 5.51 12.306 12.306 12.306h206.31c6.797 0 12.307-5.51 12.307-12.306V108.306c0-6.796-5.51-12.306-12.307-12.306z"/>
    <path fill="#343434" d="M470.193 124.056H261.359v221.979h208.834V124.056z"/>
    <rect width="24" height="24" x="295" y="143" fill="#fff" fill-opacity=".15" rx="4"/>
    <rect width="24" height="24" x="295" y="183" fill="#fff" fill-opacity=".15" rx="4"/>
    <rect width="24" height="24" x="295" y="223" fill="#fff" fill-opacity=".15" rx="4"/>
    <rect width="24" height="24" x="295" y="263" fill="#fff" fill-opacity=".15" rx="4"/>
    <rect width="24" height="24" x="295" y="303" fill="#fff" fill-opacity=".15" rx="4"/>
    <rect width="24" height="24" x="335" y="143" fill="#fff" fill-opacity=".15" rx="4"/>
    <rect width="24" height="24" x="335" y="183" fill="#fff" fill-opacity=".15" rx="4"/>
    <rect width="24" height="24" x="335" y="223" fill="#fff" fill-opacity=".15" rx="4"/>
    <rect width="24" height="24" x="335" y="263" fill="#fff" fill-opacity=".15" rx="4"/>
    <rect width="24" height="24" x="335" y="303" fill="#fff" fill-opacity=".15" rx="4"/>
    <rect width="24" height="24" x="375" y="143" fill="#fff" fill-opacity=".15" rx="4"/>
    <rect width="24" height="24" x="375" y="183" fill="#fff" fill-opacity=".15" rx="4"/>
    <rect width="24" height="24" x="375" y="223" fill="#fff" fill-opacity=".15" rx="4"/>
    <rect width="24" height="24" x="375" y="263" fill="#fff" fill-opacity=".15" rx="4"/>
    <rect width="24" height="24" x="375" y="303" fill="#fff" fill-opacity=".15" rx="4"/>
    <rect width="24" height="24" x="415" y="143" fill="#fff" fill-opacity=".15" rx="4"/>
    <rect width="24" height="24" x="415" y="183" fill="#fff" fill-opacity=".15" rx="4"/>
    <rect width="24" height="24" x="415" y="223" fill="#fff" fill-opacity=".15" rx="4"/>
    <rect width="24" height="24" x="415" y="263" fill="#fff" fill-opacity=".15" rx="4"/>
    <rect width="24" height="24" x="415" y="303" fill="#fff" fill-opacity=".15" rx="4"/>
    <path fill="#212121" d="M366.54 368.795c4.49 0 8.129-3.64 8.129-8.13s-3.639-8.129-8.129-8.129-8.13 3.639-8.13 8.129 3.64 8.13 8.13 8.13z"/>
    <path fill="#fff" d="M366.538 116.019c-.738 0-1.459-.218-2.072-.628-.613-.41-1.091-.992-1.374-1.674-.282-.681-.356-1.431-.212-2.154.144-.724.499-1.388 1.021-1.91.521-.521 1.186-.876 1.909-1.02.724-.144 1.473-.07 2.155.212.681.282 1.264.76 1.673 1.373.41.614.629 1.335.629 2.072 0 .989-.393 1.938-1.092 2.637-.7.699-1.648 1.092-2.637 1.092z"/>
    <path fill="#212121" d="M366.538 108.816c.683-.001 1.35.2 1.918.578.568.379 1.011.917 1.274 1.547.262.63.331 1.324.198 1.994-.132.669-.46 1.284-.942 1.767-.482.483-1.097.813-1.766.946-.67.134-1.364.066-1.994-.195-.631-.261-1.17-.703-1.549-1.27-.38-.568-.582-1.235-.582-1.918 0-.913.362-1.79 1.008-2.436.646-.647 1.521-1.011 2.435-1.013zm0-.622c-.805-.001-1.593.237-2.263.684-.671.446-1.193 1.081-1.502 1.825-.309.744-.391 1.563-.235 2.353.157.79.544 1.516 1.113 2.086.569.57 1.295.958 2.084 1.116.79.157 1.609.077 2.353-.231.745-.308 1.381-.83 1.828-1.499.448-.67.687-1.457.687-2.263.001-.534-.104-1.063-.308-1.557-.204-.494-.503-.943-.88-1.321-.378-.378-.826-.678-1.32-.883-.493-.204-1.023-.31-1.557-.31z"/>
    <path fill="#3F3D56" d="M231.79 224.681h-.412c-.668 0-1.21.542-1.21 1.21v20.921c0 .668.542 1.21 1.21 1.21h.412c.669 0 1.21-.542 1.21-1.21v-20.921c0-.668-.541-1.21-1.21-1.21zM136.857 206.397h-.006c-.438 0-.792.355-.792.792v6.099c0 .437.354.792.792.792h.006c.437 0 .792-.355.792-.792v-6.099c0-.437-.355-.792-.792-.792zM136.898 220.464h-.005c-.493 0-.893.399-.893.893v11.588c0 .494.4.893.893.893h.005c.494 0 .893-.399.893-.893v-11.588c0-.494-.399-.893-.893-.893zM136.883 238.515h-.005c-.47 0-.851.381-.851.851v11.789c0 .47.381.851.851.851h.005c.47 0 .851-.381.851-.851v-11.789c0-.47-.381-.851-.851-.851z"/>
    <path fill="#FFEE57" d="M221.903 181h-75.149c-5.411 0-9.797 4.386-9.797 9.797V363.75c0 5.41 4.386 9.797 9.797 9.797h75.149c5.411 0 9.798-4.387 9.798-9.797V190.797c0-5.411-4.387-9.797-9.798-9.797z"/>
    <path fill="#212121" d="M187.077 186.749H176.53c-.742 0-1.342.601-1.342 1.342 0 .742.6 1.343 1.342 1.343h10.547c.742 0 1.343-.601 1.343-1.343 0-.741-.601-1.342-1.343-1.342zM191.94 189.619c.84 0 1.522-.682 1.522-1.522 0-.841-.682-1.522-1.522-1.522-.841 0-1.522.681-1.522 1.522 0 .84.681 1.522 1.522 1.522z"/>
    <path fill="#343434" d="M218.318 186.02h-10.843v1.305c-.002 1.641-.653 3.214-1.812 4.374-1.159 1.161-2.731 1.815-4.371 1.82h-34.591c-1.644 0-3.221-.653-4.383-1.816-1.163-1.162-1.816-2.739-1.816-4.383v-1.3H150.33c-1.996.002-3.909.795-5.32 2.206-1.411 1.411-2.204 3.324-2.205 5.319v167.462c0 .988.194 1.967.572 2.88.379.913.933 1.742 1.632 2.441.698.699 1.528 1.253 2.441 1.631.913.378 1.891.573 2.88.573h67.988c.989.001 1.968-.194 2.881-.572.913-.377 1.743-.932 2.442-1.631.699-.698 1.253-1.528 1.631-2.442.378-.913.572-1.892.571-2.88V193.54c-.001-1.995-.794-3.908-2.206-5.318-1.411-1.41-3.324-2.202-5.319-2.202z"/>
    <rect width="14" height="14" x="156" y="215" fill="#fff" fill-opacity=".15" rx="4"/>
    <rect width="14" height="14" x="156" y="237" fill="#fff" fill-opacity=".15" rx="4"/>
    <rect width="14" height="14" x="156" y="259" fill="#fff" fill-opacity=".15" rx="4"/>
    <rect width="14" height="14" x="156" y="281" fill="#fff" fill-opacity=".15" rx="4"/>
    <rect width="14" height="14" x="156" y="303" fill="#fff" fill-opacity=".15" rx="4"/>
    <rect width="14" height="14" x="156" y="325" fill="#fff" fill-opacity=".15" rx="4"/>
    <rect width="14" height="14" x="178" y="215" fill="#fff" fill-opacity=".15" rx="4"/>
    <rect width="14" height="14" x="178" y="237" fill="#fff" fill-opacity=".15" rx="4"/>
    <rect width="14" height="14" x="178" y="259" fill="#fff" fill-opacity=".15" rx="4"/>
    <rect width="14" height="14" x="178" y="281" fill="#fff" fill-opacity=".15" rx="4"/>
    <rect width="14" height="14" x="178" y="303" fill="#fff" fill-opacity=".15" rx="4"/>
    <rect width="14" height="14" x="178" y="325" fill="#fff" fill-opacity=".15" rx="4"/>
    <rect width="14" height="14" x="200" y="215" fill="#fff" fill-opacity=".15" rx="4"/>
    <rect width="14" height="14" x="200" y="237" fill="#fff" fill-opacity=".15" rx="4"/>
    <rect width="14" height="14" x="200" y="259" fill="#fff" fill-opacity=".15" rx="4"/>
    <rect width="14" height="14" x="200" y="281" fill="#fff" fill-opacity=".15" rx="4"/>
    <rect width="14" height="14" x="200" y="303" fill="#fff" fill-opacity=".15" rx="4"/>
    <rect width="14" height="14" x="200" y="325" fill="#fff" fill-opacity=".15" rx="4"/>
    <path fill="#fff" d="M33.67 306.801c-.062-6.271 5.114-9.278 5.346-9.43-2.91-4.254-7.442-4.837-9.055-4.904-3.853-.391-7.523 2.27-9.478 2.27-1.951 0-4.972-2.212-8.168-2.156-4.204.062-8.079 2.445-10.242 6.208-4.367 7.574-1.117 18.799 3.137 24.946 2.08 3.005 4.56 6.386 7.814 6.262 3.137-.124 4.32-2.029 8.112-2.029 3.791 0 4.856 2.029 8.173 1.965 3.373-.061 5.512-3.062 7.574-6.078 2.388-3.491 3.371-6.871 3.43-7.042-.074-.034-6.575-2.524-6.643-10.012z"/>
    <path fill="#fff" d="M27.436 288.904c1.726-2.095 2.895-5.006 2.577-7.904-2.49.101-5.505 1.655-7.293 3.748-1.602 1.858-3.003 4.815-2.627 7.661 2.778.215 5.611-1.414 7.343-3.505z"/>
    <path fill="#FF8F00" d="M142.711 117.194l13.372 1.703-8.16 10.729-5.212-12.432zM454.409 44.403l-3.488 13.02-9.532-9.532 13.02-3.488z"/>
    <path fill="#06AAF5" d="M57.681 134.25l8.528 10.44-13.304 2.165 4.776-12.605z"/>
    <path fill="#1EBDE0" d="M328.6 59.258l-12.652 4.652 2.297-13.283 10.355 8.63z"/>
    <path fill="#8CC440" d="M83.681 328.25l8.528 10.44-13.304 2.165 4.776-12.605z"/>
    <circle cx="189" cy="37" r="4" fill="#8CC440"/>
    <circle cx="116" cy="238" r="4" fill="#FF8F00"/>
    <circle cx="367" cy="23" r="4" fill="#FFEB3B"/>
    <path stroke="#FFEB3B" stroke-dasharray="8 4" stroke-miterlimit="16" stroke-width="2" d="M180.002 170.5c-.5-11.667 7.7-35 44.5-35"/>
    <path fill="#FFEB3B" d="M230 135.5l-9 7.361v-14.722l9 7.361z"/>
</svg>
