<svg width="389" height="392" fill="none" xmlns="http://www.w3.org/2000/svg"><path d="M60.711 135.194l13.372 1.703-8.16 10.729-5.212-12.432z" fill="#FF8F00"/><path d="M25.681 246.25l8.528 10.44-13.304 2.165 4.776-12.605z" fill="#44C4FF"/><path d="M89.681 94.25l8.528 10.44-13.304 2.165L89.68 94.25zM314.681 259.25l8.528 10.44-13.304 2.165 4.776-12.605z" fill="#FFF9C4"/><path d="M377.681 200.251l8.528 10.439-13.304 2.166 4.776-12.605z" fill="#8CC440"/><path d="M107.681 173.25l8.528 10.44-13.304 2.165 4.776-12.605z" fill="#FFEB3B"/><path d="M235.681 16.25l8.528 10.44-13.304 2.165 4.776-12.605z" fill="#FDD835"/><circle cx="78" cy="179" r="4" fill="#8CC440"/><circle cx="232" cy="253" r="4" fill="#FF8F00"/><circle cx="86" cy="37" r="4" fill="#B28DF2"/><rect x="16" y="129" width="67" height="67" rx="10" fill="#48312A"/><rect x="138" width="65" height="65" rx="10" fill="#48312A"/><rect y="280" width="100" height="100" rx="16" fill="#48312A"/><rect x="151" y="336" width="44" height="44" rx="10" fill="#48312A"/><rect x="131" y="220" width="59" height="59" rx="10" fill="#48312A"/><rect x="289" y="262" width="100" height="100" rx="16" fill="#48312A"/><path d="M325.831 24H165.169c-1.198 0-2.169 1.926-2.169 4.301v176.783c0 2.375.971 4.301 2.169 4.301h160.662c1.198 0 2.169-1.926 2.169-4.301V28.301c0-2.375-.971-4.301-2.169-4.301z" fill="url(#paint0_linear)"/><path d="M325.59 26.878H165.407c-1.198 0-2.169 1.922-2.169 4.292v173.203c0 2.371.971 4.293 2.169 4.293H325.59c1.198 0 2.169-1.922 2.169-4.293V31.17c0-2.37-.971-4.292-2.169-4.292z" fill="#A87F72"/><path d="M325.59 26.878H165.407c-1.198 0-2.169 1.922-2.169 4.292v173.203c0 2.371.971 4.293 2.169 4.293H325.59c1.198 0 2.169-1.922 2.169-4.293V31.17c0-2.37-.971-4.292-2.169-4.292z" fill="#A87F72"/><path opacity=".04" d="M325.59 26.878H165.407c-1.198 0-2.169 1.922-2.169 4.292v173.203c0 2.371.971 4.293 2.169 4.293H325.59c1.198 0 2.169-1.922 2.169-4.293V31.17c0-2.37-.971-4.292-2.169-4.292z" fill="#5D4037"/><path d="M326.93 24.24H164.074a.784.784 0 00-.591.282c-.157.18-.245.426-.245.681v4.073h164.521v-4.065a1.096 1.096 0 00-.061-.37.985.985 0 00-.179-.314.844.844 0 00-.27-.21.74.74 0 00-.319-.077z" fill="#5A5773"/><path d="M167.969 28.138c.861 0 1.559-.586 1.559-1.308 0-.722-.698-1.307-1.559-1.307s-1.559.585-1.559 1.307.698 1.308 1.559 1.308zM172.164 28.137c.861 0 1.559-.585 1.559-1.307s-.698-1.307-1.559-1.307-1.559.585-1.559 1.307.698 1.307 1.559 1.307zM176.364 28.137c.86 0 1.558-.585 1.558-1.307s-.698-1.307-1.558-1.307c-.861 0-1.559.585-1.559 1.307s.698 1.307 1.559 1.307z" fill="#A87F72"/><path d="M311.397 37.67H180.325c-.958 0-1.735 1.841-1.735 4.113v150.299c0 2.272.777 4.113 1.735 4.113h131.072c.958 0 1.735-1.841 1.735-4.113v-150.3c0-2.27-.777-4.112-1.735-4.112z" fill="#fff"/><path d="M257.342 48.589h-52.647a.925.925 0 00-.925.925v3.869c0 .51.414.925.925.925h52.647a.926.926 0 00.926-.925v-3.869a.926.926 0 00-.926-.925zM287.941 64.604h-83.246a.925.925 0 00-.925.926v3.868c0 .512.414.926.925.926h83.246a.926.926 0 00.926-.926V65.53a.926.926 0 00-.926-.926zM287.941 73.957h-83.246a.925.925 0 00-.925.926v3.868c0 .512.414.926.925.926h83.246a.926.926 0 00.926-.926v-3.868a.926.926 0 00-.926-.926zM287.941 83.31h-83.246a.925.925 0 00-.925.926v3.869c0 .511.414.925.925.925h83.246a.926.926 0 00.926-.925v-3.869a.926.926 0 00-.926-.925zM287.941 92.664h-83.246a.925.925 0 00-.925.926v3.868c0 .511.414.926.925.926h83.246a.926.926 0 00.926-.926V93.59a.926.926 0 00-.926-.926zM288.443 155.425h-84.209c-.256 0-.464.417-.464.931v3.893c0 .514.208.931.464.931h84.209c.257 0 .465-.417.465-.931v-3.893c0-.514-.208-.931-.465-.931zM288.443 164.778h-84.209c-.256 0-.464.417-.464.931v3.893c0 .514.208.931.464.931h84.209c.257 0 .465-.417.465-.931v-3.893c0-.514-.208-.931-.465-.931zM288.443 174.131h-84.209c-.256 0-.464.417-.464.932v3.892c0 .515.208.932.464.932h84.209c.257 0 .465-.417.465-.932v-3.892c0-.515-.208-.932-.465-.932z" fill="#48312A"/><path d="M309.52 127.834c0 .655.074 1.185.165 1.185.091 0 .163-.53.163-1.185s-.091-.34-.18-.34-.148-.315-.148.34z" fill="#FFD037"/><path d="M308.614 128.616c.575.312 1.076.501 1.12.422.043-.079-.389-.398-.96-.719-.571-.322-.348-.087-.391 0-.043.086-.345-.017.231.297z" fill="#FFD037"/><path d="M286.511 105.061h-80.345c-1.324 0-2.396.672-2.396 1.5v36.092c0 .828 1.072 1.5 2.396 1.5h80.345c1.324 0 2.397-.672 2.397-1.5v-36.092c0-.828-1.073-1.5-2.397-1.5z" fill="#48312A"/><g opacity=".1"><path opacity=".1" d="M328.527 291.055s1.079-22.689 13.535-35.343a34.412 34.412 0 009.706-19.488c.464-3.505.606-7.045.424-10.576" stroke="#535461" stroke-width="2" stroke-miterlimit="10"/><path opacity=".1" d="M360.003 217.626c-.875 2.522-7.98 8.252-7.98 8.252s-2.029-8.9-1.157-11.423a4.846 4.846 0 119.137 3.171zM362.707 234.21c-2.12 1.645-11.187 2.593-11.187 2.593s3.134-8.577 5.239-10.219a4.844 4.844 0 015.948 7.626zM354.095 257.987c-2.647.355-10.966-3.41-10.966-3.41s7.035-5.83 9.67-6.175a4.845 4.845 0 011.284 9.585h.012zM343.526 274.505c-2.547.797-11.381-1.514-11.381-1.514s5.948-6.926 8.498-7.723a4.852 4.852 0 013.85.158 4.858 4.858 0 012.518 2.919 4.86 4.86 0 01.193 1.958 4.845 4.845 0 01-3.678 4.196v.006zM341.761 233.974c1.212 2.383 9.001 7.132 9.001 7.132s.839-9.086-.36-11.478a4.846 4.846 0 10-8.641 4.346zM329.647 253.444c1.86 1.917 10.721 4.113 10.721 4.113s-1.917-8.925-3.776-10.842a4.855 4.855 0 00-3.459-1.706 4.846 4.846 0 00-3.486 8.435zM320.47 273.987c1.514 2.204 9.873 5.863 9.873 5.863s-.385-9.122-1.89-11.324a4.844 4.844 0 00-6.918-1.56 4.844 4.844 0 00-1.065 7.012v.009z" fill="#6C63FF"/></g><path d="M332.046 285.789l-5.012 13.059-.703-.575-2.792 4.334 8.507 1.06v-17.878z" fill="#F1D2D7"/><path opacity=".1" d="M332.041 285.789l-5.015 13.059-1.26-.339-2.235 4.098 8.51 1.06v-17.878z" fill="#000"/><path d="M324.191 294.145h7.856l2.884-23.732h-10.74v23.732z" fill="#F1D2D7"/><path opacity=".1" d="M324.191 294.145h7.856l2.884-23.732h-10.74v23.732z" fill="#000"/><path d="M308.846 276.034l1.693-.303 3.898-.636s11.705-2.635 14.131-2.847c1.514-.133 3.189-.757 4.24-1.211.633-.27 1.036-.479 1.036-.479l-4.216-7.701-6.542-4.846s-4.137-.881-5.89-3.289a3.873 3.873 0 01-.738-1.768 3.873 3.873 0 01.196-1.905c1.069-3.314-6.379 3.164-6.379 3.164s.073 1.551 0 3.529c0 .39-.036.796-.063 1.211-.018.273-.043.545-.067.824-.184 1.962-.557 3.985-1.29 5.194-1.787 2.94-.009 11.063-.009 11.063z" fill="#FFBEC7"/><path opacity=".1" d="M310.27 257.891h.163c.303 0 .536-.63.827-.661 2.329-.224 4.455-.711 5.933-2.359a3.902 3.902 0 01-.542-3.673c1.069-3.314-6.36 3.161-6.36 3.161s.057 1.551-.021 3.532z" fill="#000"/><path d="M301.203 248.505a9.083 9.083 0 009.97 9.025 9.073 9.073 0 005.208-15.748 9.074 9.074 0 00-9.768-1.572 9.07 9.07 0 00-5.395 8.295h-.015z" fill="#FFBEC7"/><path opacity=".1" d="M301.203 248.505a9.083 9.083 0 009.97 9.025c.161-.067.305-.171.418-.303a1.342 1.342 0 00.164-1.106c-.358-1.771-1.966-3.043-2.544-4.758-.509-1.514-.128-3.231.654-4.63.781-1.399 1.935-2.553 3.074-3.686.191-.222.431-.396.702-.509.969-.303 2.423.545 3.192-.321a9.088 9.088 0 00-15.615 6.281l-.015.007z" fill="#000"/><path d="M313.31 242.387a1.85 1.85 0 00-.703.509c-1.135 1.133-2.289 2.283-3.07 3.686-.782 1.402-1.163 3.107-.655 4.627.576 1.717 2.187 2.989 2.541 4.761a1.336 1.336 0 01-.163 1.103c-.303.378-.879.399-1.272.684-.503.366-.606 1.093-.455 1.696.206.587.485 1.144.833 1.66.848 1.499 1.212 3.449.303 4.906a7.837 7.837 0 01-1.514 1.578 23.162 23.162 0 00-2.641 2.765 13.61 13.61 0 00-1.763 2.695c-.478 1.009-.781 2.096-1.262 3.104-1.13 2.36-3.353 4.24-5.936 4.667-2.584.427-5.434-.766-6.703-3.052-.957-1.727-.969-3.832-.59-5.755.269-1.375.727-2.753.569-4.146-.115-.993-.536-1.923-.908-2.856-1.781-4.542-2.347-9.642-.966-14.312a7.61 7.61 0 011.047-2.323 14.111 14.111 0 011.654-1.724c1.887-1.844 3.277-4.124 4.74-6.32 1.462-2.196 3.055-4.376 5.221-5.888 2.165-1.511 5.015-2.259 7.492-1.353 2.593.948 4.195 3.364 5.994 5.309.73.793 2.147 1.802 1.738 3.065-.596 1.78-2.395.557-3.531.914z" fill="#000"/><path opacity=".1" d="M297.076 280.395c2.58-.427 4.803-2.308 5.932-4.67.485-1.005.785-2.093 1.266-3.101a13.633 13.633 0 011.76-2.696 23.685 23.685 0 012.644-2.768 7.68 7.68 0 001.514-1.578c.909-1.456.56-3.407-.285-4.903a7.376 7.376 0 01-.835-1.662c-.158-.606-.049-1.33.454-1.693.397-.285.966-.303 1.275-.685a1.319 1.319 0 00.163-1.102c-.357-1.775-1.968-3.044-2.544-4.761-.508-1.514-.13-3.228.655-4.631.784-1.402 1.932-2.547 3.058-3.685.193-.222.434-.395.706-.506 1.133-.357 2.935.866 3.516-.924.409-1.263-1.008-2.274-1.738-3.065-1.548-1.674-2.953-3.698-4.97-4.845 2.365 1.035 3.898 3.304 5.603 5.148.73.791 2.147 1.799 1.738 3.062-.581 1.79-2.383.566-3.516.924a1.88 1.88 0 00-.706.508c-1.135 1.133-2.286 2.284-3.071 3.686-.784 1.402-1.163 3.107-.654 4.631.576 1.714 2.187 2.986 2.544 4.758a1.333 1.333 0 01-.163 1.102c-.303.379-.882.4-1.275.688-.503.363-.606 1.09-.455 1.692.205.588.486 1.146.836 1.66.845 1.499 1.212 3.45.285 4.906a7.785 7.785 0 01-1.514 1.578 23.741 23.741 0 00-2.644 2.765 13.678 13.678 0 00-1.76 2.696c-.481 1.011-.781 2.095-1.266 3.104-1.129 2.359-3.352 4.24-5.933 4.667a6.84 6.84 0 01-4.43-.806 6.832 6.832 0 003.81.506z" fill="#000"/><path d="M306.684 386.242l1.584 1.045.239.161.048.033 1.875 1.239 4.373.738 3.852-.263s1.109-2.32-.633-2.268a3.642 3.642 0 01-1.593-.455l-.236-.124a10.253 10.253 0 01-.751-.439 21.22 21.22 0 01-2.359-1.772l-6.399 2.105z" fill="#FFBEC7"/><path opacity=".1" d="M308.277 387.294l.24.16.048.033 1.875 1.239 4.373.739 3.852-.263s1.109-2.32-.633-2.269a3.624 3.624 0 01-1.593-.454c.279.162.493.416.606.718.07.605-2.847 1.665-2.847 1.665l-4.116-1.087s-.699-.197-1.659-.445l-.091-.024-.055-.012z" fill="#000"/><path d="M301.254 388.305s3.374.736 5.642.527c2.268-.209 6.169 1.75 6.169 1.75s1.321.606 5.379.887c4.058.282 4.07-1.795 4.07-1.795-.466-2.802-6.878-3.741-7.08-3.765.081.042.405.215.751.439.454.303.948.688.984 1 .07.605-2.847 1.665-2.847 1.665l-4.113-1.084s-.699-.2-1.662-.448l-.091-.024a35.655 35.655 0 00-4.313-.909c-1.772-.188-2.68 1.321-2.865 1.669a.945.945 0 01-.024.088z" fill="#BD577A"/><path d="M248.098 313.897l1.793 1.372s.52-.024 1.296-.051h.248c1.115-.04 2.647-.079 3.952-.082 1.212 0 2.217.036 2.52.142.909.303 2.477-5.115 2.477-5.115l-1.799-.424-.605-.139-.418-.097-1.46-.342-4.431.499-3.11 2.005-.463 2.232z" fill="#FFBEC7"/><path opacity=".1" d="M248.098 313.897l1.793 1.372s.52-.024 1.296-.051a1.572 1.572 0 01-.821-.742c-1.16-3.217 4.588-4.586 4.588-4.586l2.677-.118.518-.021.436-.021-.605-.139-.418-.097-1.46-.343-4.431.5-3.11 2.005-.463 2.241z" fill="#000"/><path d="M244.562 315.344c1.084 1.006 8.177.019 8.48-.024a4.415 4.415 0 01-1.611-.112c-.991-.279-1.23-.89-1.23-.89-1.157-3.217 4.588-4.589 4.588-4.589l2.681-.115.517-.024 6.506-.281.318-1.793s-2.12.203-5.433.466c-1.869.151-4.122.321-6.591.482-6.859.454-8.479 4.906-8.479 4.906s-.839.948.254 1.974z" fill="#BD577A"/><path d="M324.193 237.681c.044.096.096.189.154.278l1.584 2.32 4.113.424.045-1.629.691-24.531s2.849-16.454-2.529-15.503c-5.379.951-2.005 15.503-2.005 15.503s-.606 7.383-1.045 9.597c-.415 2.138-2.293 10.836-1.008 13.541zM314.965 298.603l1.169 2.005 2.62 4.482s4.754 1.742 5.966.421c.669-.727 1.387-3.249 1.893-5.366.415-1.724.69-3.177.69-3.177l-12.338 1.635z" fill="#FFBEC7"/><path opacity=".1" d="M314.965 298.603l1.169 2.005c.074-.064.142-.135.203-.212 1.32-1.69 7.15-.357 10.276-.251.415-1.724.69-3.177.69-3.177l-12.338 1.635zM255.387 315.126c1.211 0 2.217.037 2.519.143.909.303 2.478-5.116 2.478-5.116l-2.378-.563 6.506-.281.318-1.793s-2.12.203-5.434.466a6.732 6.732 0 00-1.817 1.514l-.1.121c-1.384 1.699-1.895 3.892-2.092 5.509zM306.684 386.242l1.817 1.212c2.725-.491 5.212-1.263 5.506-2.472a.6.6 0 000-.06c-.576-.445-.96-.785-.96-.785l-6.363 2.105zM301.285 388.233a61.962 61.962 0 007.178-.77 35.652 35.652 0 00-4.313-.908c-1.772-.179-2.68 1.329-2.865 1.678z" fill="#000"/><path d="M255.582 317.219c0 1.318 3.634 2.163 3.634 2.163l11.076 9.861s6.965 3.11 11.39 7.592c4.425 4.483 8.338.648 8.338.648 4.691-1.16 18.192-17.508 18.192-17.508s.318 18.668.951 20.04c.633 1.372-.212 5.115-.582 6.699-.369 1.584-.263 4.007-.263 4.007s-5.064 19.352-4.64 21.039c.424 1.687-2.744 9.598-2.744 9.598v6.593s12.393-.476 13.078-3.271c.684-2.795-3.111-4.007-3.111-4.007v-.699c2.478-1.266 2.953-9.967 2.953-9.967s3.692-10.761 4.219-12.535c.527-1.775 0-4.486 0-4.486l.369-2.319s.791-1.581.791-1.896a4.72 4.72 0 01.908-2.217c.582-.685-.633-2.32-.633-2.32l1.057-2.726v-3.007l2.478-10.903s2.583-12.72 1.687-16.875c-.897-4.155 1.056-6.278 1.056-6.278-4.239 2.223-6.359-2.726-7.065-4.846a11.806 11.806 0 01-.267-.908s-5.811-2.144-11.226-1.635a13.165 13.165 0 00-3.223.684c-6.011 2.162-6.965 11.127-6.965 11.127l-5.328 8.122c-2.725 7.223-6.856 7.962-6.856 7.962s-9.649-6.487-9.913-6.802c-.263-.315-3.955-1.899-3.955-1.899a4.183 4.183 0 00-1.899-1.741c-1.266-.527-1.369-2.477-1.369-2.477-.16-4.589-2.849-4.958-2.849-4.958-9.34-.824-9.289 8.828-9.289 10.145z" fill="#1565C0"/><path d="M309.268 291.431h5.697v-17.665h-5.697v17.665z" fill="#F1D2D7"/><path opacity=".1" d="M308.741 290.708h5.697v-17.666h-5.697v17.666zM324.192 237.642a.254.254 0 000 .039c.045.096.096.19.154.279l1.584 2.319 4.113.424.046-1.629c-1.285-.112-4.204-.463-5.897-1.432z" fill="#000"/><path d="M324.35 237.959s.212 9.28-2.12 10.546c-2.332 1.266-3.222 7.874-3.222 7.874s7.02 4.628 8.601 6.663c1.581 2.035 5.167 6.884 4.431 8.043-.736 1.16 1.805 6.433 1.805 6.433s-4.643 9.495-3.586 13.08c1.057 3.586 1.16 13.078 1.16 13.078h1.999s-.633-7.805-.633-10.97c0-3.165 2.12-14.449 2.12-14.449s.948-11.075 0-11.39c-.948-.315-6.539-4.746-6.966-6.751-.427-2.005 2.953-20.673 2.953-20.673s-4.325-.218-6.542-1.484z" fill="#039BE5"/><path opacity=".1" d="M309.164 272.13a8.985 8.985 0 001.375 3.616l3.898-.651s11.705-2.635 14.131-2.847c1.514-.133 3.189-.757 4.24-1.211a18.647 18.647 0 00-5.236-8.583l-1.488-1.378a25.197 25.197 0 00-7.486-4.791c.173.148 12.453 10.633 9.764 12.689-2.689 2.057-9.925-2.964-9.925-2.964l-8.234-7.075-.303-.258-.479.739c.244.101.481.216.712.343a12.113 12.113 0 015.776 7.198c1.699 5.694-6.745 5.173-6.745 5.173zM306.633 298.497s7.804 4.325 9.691 1.899c.418-.533 1.284-.766 2.375-.83a11.736 11.736 0 01-.267-.909s-5.812-2.144-11.227-1.635l-.572 1.475z" fill="#000"/><path d="M310.22 258.684l8.531 7.326s7.214 5.027 9.922 2.956c2.707-2.072-9.764-12.693-9.764-12.693a25.159 25.159 0 017.489 4.791l1.487 1.378c3.907 3.62 4.789 3.62 4.919 8.944.033 1.308-.412 3.192-.754 3.534-1.266 1.254-2.157 10.255-1.96 11.309.197 1.053-2.365 10.157-1.514 12.689.851 2.532-10.333-1.266-12.232 1.16-1.899 2.426-9.692-1.899-9.692-1.899s4.325-11.075 5.379-11.811c1.054-.736 2.32-6.436 0-9.086-2.32-2.65-2.541-5.151-2.541-5.151s8.444.524 6.751-5.167a11.947 11.947 0 00-6.487-7.541l.466-.739z" fill="#FFEB3B"/><path opacity=".1" d="M321.605 277.352s-3.271 6.172-7.508 7.774a9.036 9.036 0 01-.402.136c-4.428 1.342 8.228-6.011 7.91-7.91z" fill="#000"/><path d="M275.833 222.771s1.581 4.01 2.846 5.379c1.266 1.369 10.652 15.082 10.652 15.082l.796 1.645.682 1.414 6.011-.633.421-2.423-.23-.282c-.606-.723-2.25-2.668-3.355-3.516-1.369-1.054-4.113-4.542-4.113-4.542s-8.544-8.862-9.174-11.285c-.63-2.423-9.176-16.981-11.075-14.449-1.899 2.532 6.539 13.61 6.539 13.61z" fill="#FFBEC7"/><path opacity=".1" d="M290.129 244.877l.681 1.414 6.012-.633.421-2.423-.23-.282c-.648.318-5.455 2.623-6.884 1.924z" fill="#000"/><path opacity=".1" d="M312.326 260.74s-1.475-2.32-2.32-1.687c-.845.633-1.172-1.899-1.642-1.478-.469.421-1.892 1.599-2.471-.048-.46-1.309-5.451-9.577-7.486-12.908l-.845-1.387s-5.697 2.85-7.066 1.899v2.005l1.16.106 6.221 11.599s1.956 3.104 1.817 4.191c-.14 1.088 2.501 5.83 2.922 6.145.421.315 4.958 5.591 4.958 5.591s2.32 11.39.303 14.555c-2.017 3.165-5.485 5.485-5.485 5.485s-1.045 3.056-.908 3.374c.136.318-1.212 1.687-.585 2.12.627.433 1.478 3.376 1.478 3.376s2.953-4.745 4.543-5.484c1.59-.739 3.634-10.443 3.634-10.443s.582-5.721.63-9.412c.048-3.692-.124-17.599 1.142-17.599z" fill="#000"/><path d="M312.008 260.74s-1.477-2.32-2.319-1.687c-.842.633-1.172-1.899-1.642-1.478-.469.421-1.893 1.599-2.471-.048-.463-1.309-5.451-9.577-7.487-12.908-.521-.857-.848-1.387-.848-1.387s-5.693 2.85-7.065 1.899v2.005l1.16.106 6.223 11.599s1.954 3.104 1.817 4.191c-.136 1.088 2.505 5.83 2.926 6.145.421.315 4.958 5.591 4.958 5.591s2.32 11.39.303 14.555a19.313 19.313 0 01-3.828 4.216 7.402 7.402 0 00-2.472 3.982 1.56 1.56 0 00-.072.661c.154.303-1.212 1.687-.585 2.12.627.433 1.475 3.376 1.475 3.376s2.953-4.745 4.543-5.484c1.59-.739 3.634-10.443 3.634-10.443s.578-5.721.627-9.412c.048-3.692-.142-17.599 1.123-17.599z" fill="#039BE5"/><path opacity=".1" d="M297.562 308.727s4.431.845 6.224 2.12c1.793 1.275-6.751-2.005-6.751-2.005l.527-.115zM308.211 319.96s4.64 3.849 3.798 7.332c-.842 3.483-2.968 12.235-2.968 12.235l-.83-19.567zM267.793 312.552s-6.515.712-6.094 1.554c.421.842 6.094-.776 6.094-.776v-.778zM317.812 344.588s.424.527-2.002 0c-2.426-.527-.633-2.15-.633-2.15l2.635 2.15zM316.97 351.865s-3.332.527-5.091 0c-1.76-.527 5.091 0 5.091 0zM310.164 380.34s-.579-.633-3.48.53-4.061 1.211-4.903.842c-.842-.37 8.383-1.372 8.383-1.372zM313.381 311.656l-4.115 5.721s2.217-5.009 4.115-5.721zM305.367 259.044s-.175 1.899-2.828 2.638c-2.653.739-3.156 1.342-3.156 1.342M298.492 245.282s-3.498 2.49-7.156 1.96l7.156-1.96zM301.16 298.445s1.024.642 3.477-2.165l-3.477 2.165zM326.644 268.696c.1-.512-.258-.99-.606-1.39l-.687-.821a3.222 3.222 0 00-.449-.463c-.406-.318-.945-.415-1.375-.7" fill="#000"/><defs><linearGradient id="paint0_linear" x1="245.501" y1="209.385" x2="245.501" y2="24" gradientUnits="userSpaceOnUse"><stop stop-color="gray" stop-opacity=".25"/><stop offset=".54" stop-color="gray" stop-opacity=".12"/><stop offset="1" stop-color="gray" stop-opacity=".1"/></linearGradient></defs></svg>