<svg xmlns="http://www.w3.org/2000/svg" width="476" height="369" fill="none"><rect width="100" height="100" x="38.094" y="269" fill="#233843" rx="16"/><rect width="100" height="100" x="371.094" y="89" fill="#233843" rx="16"/><rect width="100" height="100" x="98.094" y="17" fill="#233843" rx="16"/><rect width="161" height="208" x="214.094" y="49" fill="#0E171B" rx="4"/><rect width="45" height="45" x="313.094" y="7" fill="#233843" rx="10"/><rect width="45" height="45" x="231.094" y="118" fill="#557382" rx="10"/><rect width="63" height="63" x="412.094" fill="#233843" rx="10"/><rect width="37" height="37" x="122.121" y="204" fill="#3B4C55" rx="4"/><path fill="url(#prefix__paint0_linear)" fill-opacity=".3" d="M226.094 242l117 89 42-102-25.5-172h-133.5v185z"/><path stroke="#fff" stroke-dasharray="8 4" stroke-linecap="round" stroke-linejoin="round" stroke-width="2" d="M156.094 267v11a8 8 0 008 8h160.5"/><path stroke="#fff" stroke-dasharray="8 4" stroke-linecap="round" stroke-linejoin="round" stroke-width="2" d="M119.094 96v196a8 8 0 008 8h197"/><path stroke="#fff" stroke-dasharray="8 4" stroke-linecap="round" stroke-linejoin="round" stroke-width="2" d="M53.094 211v111a8 8 0 008 8h263"/><path stroke="#fff" stroke-dasharray="8 4" stroke-linecap="round" stroke-linejoin="round" stroke-width="2" d="M88.094 307v0a8 8 0 008 8h228"/><path fill="#FF8F00" d="M405.805 90.194l13.372 1.703-8.16 10.729-5.212-12.432z"/><path fill="#06AAF5" d="M7.775 197.25l8.528 10.439-13.305 2.166 4.777-12.605z"/><path fill="#FFF9C4" d="M299.775 14.263l8.528 10.44-13.305 2.165 4.777-12.605zm115 283.987l8.528 10.439-13.305 2.166 4.777-12.605z"/><path fill="#FFD037" d="M228.096 15.542l-9.654 9.408-3.32-13.065 12.974 3.657z"/><path fill="#8CC440" d="M67.775 346.25l8.528 10.439-13.305 2.166 4.777-12.605z"/><path fill="#FF8F00" d="M54.993 95.194l13.371 1.703-8.16 10.729-5.211-12.432z"/><path fill="#8CC440" d="M336.775 159.25l8.528 10.439-13.305 2.166 4.777-12.605z"/><circle cx="150.121" cy="26" r="4" fill="#8CC440"/><circle cx="416.094" cy="199.999" r="4" fill="#8CC440"/><circle cx="24.094" cy="268.999" r="4" fill="#FF8F00"/><circle cx="279.094" cy="141.999" r="4" fill="#FF8F00"/><circle cx="194.094" cy="256.999" r="4" fill="#FF8F00"/><circle cx="158.094" cy="137.999" r="24" fill="#7E57C2"/><circle cx="158.094" cy="137.999" r="18" fill="#fff"/><path fill="#094786" d="M163.457 138.24c-.024-2.489 2.03-3.683 2.122-3.743-1.155-1.688-2.953-1.92-3.594-1.946-1.529-.156-2.986.901-3.762.901-.774 0-1.973-.879-3.241-.856-1.669.025-3.207.97-4.066 2.464-1.733 3.006-.443 7.461 1.246 9.901.825 1.192 1.81 2.534 3.101 2.485 1.245-.049 1.715-.805 3.219-.805 1.505 0 1.928.805 3.245.78 1.338-.024 2.187-1.215 3.006-2.413.947-1.385 1.338-2.727 1.361-2.795-.029-.013-2.61-1.002-2.637-3.973z"/><path fill="#094786" d="M160.982 131.136c.685-.831 1.149-1.986 1.023-3.137-.989.04-2.185.657-2.895 1.488-.636.737-1.192 1.911-1.043 3.04 1.103.086 2.228-.561 2.915-1.391z"/><circle cx="52.094" cy="181.999" r="24" fill="#FF8F00"/><circle cx="52.094" cy="181.999" r="18" fill="#fff"/><path fill="#094786" d="M44.094 187.682l6.455.935v-6.176h-6.455v5.241zm0-6.124h6.455v-6.176l-6.455.935v5.241zm7.338 7.187l8.662 1.254v-7.558h-8.662v6.304zm0-13.492v6.305h8.662v-7.559l-8.662 1.254z"/><circle cx="119.094" cy="62.999" r="24" fill="#7E57C2"/><circle cx="119.094" cy="62.999" r="18" fill="#fff"/><path fill="#094786" fill-rule="evenodd" d="M129.949 62.365a4.997 4.997 0 013.117 4.634c0 2.756-2.238 5-4.999 5h-17.001c-2.767 0-5-2.238-5-5 0-2.05 1.24-3.818 3.012-4.588a7 7 0 0113.082-3.859 5.503 5.503 0 017.789 3.813z" clip-rule="evenodd"/><circle cx="87.094" cy="276.999" r="24" fill="#7E57C2"/><circle cx="87.094" cy="276.999" r="18" fill="#fff"/><path fill="#094786" d="M97.094 276.974a9.344 9.344 0 00-1.112-4.428c.2-.497.436-1.175.692-2.09.83-2.954-1.077-4.713-4.003-4.426-1.776.174-3.45.645-5.066 1.35-.13-.005-.262-.008-.394-.008-4.865 0-8.91 3.417-9.73 7.915 2.033-2.853 4.999-4.365 4.999-4.365-2.025 2.061-3.771 4.089-5.068 6.227-.025.038-.05.077-.073.116-1.083 1.811-1.84 3.703-2.166 5.762-.447 2.824 1.013 4.332 4.132 3.899 1.072-.149 3.014-1.058 3.565-1.324a10.07 10.07 0 004.341.975c4.303 0 7.963-2.672 9.32-6.402h-5.35a4.419 4.419 0 01-3.82 2.154c-2.36 0-4.287-1.806-4.397-4.074h14.042c.058-.419.088-.846.088-1.281zm-17.729 9.254c-1.668.17-3.822-1.596-1.367-5.775a9.704 9.704 0 004.087 4.731c-.511.279-1.82.952-2.72 1.044zm3.632-10.825c.279-2.101 2.126-3.724 4.364-3.724s4.085 1.623 4.364 3.724h-8.728zm7.915-7.334c4.167-1.898 5.681.129 5.223 2.196-.063.284-.292 1.042-.494 1.695a9.848 9.848 0 00-4.729-3.891z"/><circle cx="155.094" cy="234.999" r="24" fill="#8CC440"/><circle cx="155.094" cy="234.999" r="18" fill="#fff"/><path fill="#094786" d="M149.809 232.262v7.67h.004c.054.648.65 1.163 1.371 1.163h7.713c.722 0 1.318-.515 1.371-1.163h.005v-7.67h-10.464zm-.4 5.618c0 .757-.527 1.376-1.171 1.376s-1.172-.619-1.172-1.376v-4.502c0-.757.528-1.376 1.172-1.376.644 0 1.171.619 1.171 1.376v4.502z"/><path fill="#094786" d="M154.292 243.468c0 .756-.527 1.375-1.172 1.375-.644 0-1.171-.619-1.171-1.375v-4.503c0-.756.527-1.375 1.171-1.375.645 0 1.172.619 1.172 1.375v4.503zm3.902 0c0 .756-.527 1.375-1.171 1.375s-1.171-.619-1.171-1.375v-4.503c0-.756.527-1.375 1.171-1.375s1.171.619 1.171 1.375v4.503zm4.871-5.588c0 .757-.527 1.376-1.171 1.376s-1.171-.619-1.171-1.376v-4.502c0-.757.527-1.376 1.171-1.376s1.171.619 1.171 1.376v4.502zm-5.437-10.23l.751-1.349c.062-.11.044-.238-.04-.285-.083-.046-.202.006-.263.116l-.769 1.38a6.189 6.189 0 00-2.266-.421c-.818 0-1.592.153-2.282.427l-.772-1.386c-.062-.11-.18-.162-.264-.116-.083.047-.101.175-.04.285l.756 1.356c-1.572.738-2.63 2.124-2.63 3.712 0 .161.011.32.032.477h10.399c.022-.157.033-.316.033-.477 0-1.593-1.065-2.983-2.645-3.719zm-4.962 2.354a.458.458 0 11.001-.915.458.458 0 01-.001.915zm4.775 0a.458.458 0 110-.916.458.458 0 010 .916z"/><path fill="#06AAF5" d="M220.775 349.25l8.528 10.439-13.305 2.166 4.777-12.605z"/><path fill="#F06292" d="M4.775 66.25l8.528 10.44-13.305 2.165L4.775 66.25z"/><path fill="url(#prefix__paint1_linear)" d="M225.992 57v189H361.93V57H225.992z"/><path fill="#F6F7F9" d="M360.741 58.659H227.188v7.204h133.553v-7.204z"/><path fill="#06AAF5" d="M360.741 58.659H227.188v7.204h133.553v-7.204z"/><path fill="#DADADA" d="M360.741 65.863H227.188v178.479h133.553V65.862z"/><path fill="#F6F7F9" d="M230.698 63.48a1.221 1.221 0 10.002-2.444 1.221 1.221 0 00-.002 2.445zm3.313 0a1.22 1.22 0 100-2.444 1.22 1.22 0 000 2.445zm3.308 0a1.221 1.221 0 10.002-2.444 1.221 1.221 0 00-.002 2.445z"/><path fill="#fff" d="M336.902 76.866h-85.879v3.362h85.879v-3.362z"/><path fill="#6C63FF" d="M336.899 76.866h-11.411v3.362h11.411v-3.362z"/><path fill="#fff" d="M288.758 145.576h-46.043a4 4 0 00-4 4v30.711a4 4 0 004 4h46.043a4 4 0 004-4v-30.711a4 4 0 00-4-4zm0-50.214h-46.043a4 4 0 00-4 4v30.71a4 4 0 004 4h46.043a4 4 0 004-4v-30.71a4 4 0 00-4-4zm0 99.775h-46.043a4 4 0 00-4 4v30.711a4 4 0 004 4h46.043a4 4 0 004-4v-30.711a4 4 0 00-4-4zm56.453-49.561h-46.043a4 4 0 00-4 4v30.711a4 4 0 004 4h46.043a4 4 0 004-4v-30.711a4 4 0 00-4-4zm0-50.214h-46.043a4 4 0 00-4 4v30.71a4 4 0 004 4h46.043a4 4 0 004-4v-30.71a4 4 0 00-4-4zm0 99.775h-46.043a4 4 0 00-4 4v30.711a4 4 0 004 4h46.043a4 4 0 004-4v-30.711a4 4 0 00-4-4z"/><path fill="#6C63FF" d="M308.984 102.842s-.49-1.224 2.816-.919c3.306.306 12.798 1.361 16.902.437 4.104-.924 6.55-1.219 6.307 0-.244 1.219-7.103 3.973-7.103 3.973l-8.881.919-6.55-1.042-3.518-2.082.027-1.286z"/><path fill="#000" d="M335.015 102.36c-.246 1.219-7.102 3.973-7.102 3.973l-8.881.919-6.55-1.04-3.515-2.081.024-1.286a.534.534 0 01.187-.592c.303-.268 1.01-.477 2.628-.327 3.309.305 12.798 1.358 16.903.434 3.343-.753 5.588-1.088 6.162-.536a.532.532 0 01.144.536z" opacity=".1"/><path fill="#6C63FF" d="M340.293 120.907a38.336 38.336 0 00-15.759 6.979 2.923 2.923 0 00-1.256-1.492 4.446 4.446 0 00-1.275-.536c-.41-.104-.804.145-1.166.504a6.6 6.6 0 00-1.037 1.535c-6.245-4.286-15.718-7.022-15.718-7.022v-.857c0-.169.03-.373.062-.603.032-.23.072-.434.123-.683.804-4.088 3.981-13.43 3.981-13.43h3.593l6.965 1.446 7.837-.479 7.892-1.643 1.024-.214c1.706 1.34 3.643 10.717 4.404 14.708.097.507.172.925.228 1.233.067.348.102.554.102.554z"/><path fill="#6C63FF" d="M305.381 119.137c.206-3.925 3.325-12.431 3.853-13.843h-.984s-3.364 9.912-4.048 13.781v.029c-.018.105-.037.207-.051.303a6.902 6.902 0 00-.061.603v.857s9.473 2.738 15.718 7.022a6.62 6.62 0 011.037-1.535c-2.387-2.17-11.44-5.706-15.464-7.217zm34.812 1.205c-.024-.137-.054-.295-.086-.469a67.25 67.25 0 00-.142-.764c-.761-3.997-2.698-13.376-4.404-14.708l-1.024.214c.622 1.67 4.627 12.568 4.287 14.695-6.698 1.34-13.487 5.693-15.539 7.084a2.925 2.925 0 011.257 1.492 38.338 38.338 0 0115.758-6.979l-.107-.565z"/><path fill="#000" d="M305.627 118.89c.204-3.925 3.325-12.431 3.853-13.84h-.986s-3.365 9.912-4.048 13.778v.03c-.02.107-.036.209-.048.305a6.573 6.573 0 00-.062.603v.857s9.471 2.736 15.718 7.022a6.526 6.526 0 011.034-1.535c-2.387-2.165-11.437-5.709-15.461-7.22z" opacity=".1"/><path fill="#6C63FF" d="M305.381 119.137c.206-3.925 3.325-12.431 3.853-13.843h-.984s-3.364 9.912-4.048 13.781v.029c-.018.105-.037.207-.051.303a6.902 6.902 0 00-.061.603v.857s9.473 2.738 15.718 7.022a6.62 6.62 0 011.037-1.535c-2.387-2.17-11.44-5.706-15.464-7.217z"/><path fill="#000" d="M339.948 120.095l-.086-.469-.142-.763c-.758-3.995-2.697-13.374-4.404-14.708l-1.021.217c.622 1.669 4.627 12.567 4.287 14.695-6.698 1.339-13.49 5.693-15.539 7.08.578.34 1.021.868 1.256 1.495a38.302 38.302 0 0115.756-6.981s-.04-.201-.107-.566z" opacity=".1"/><path fill="#6C63FF" d="M340.193 120.342c-.024-.137-.054-.295-.086-.469a67.25 67.25 0 00-.142-.764c-.761-3.997-2.698-13.376-4.404-14.708l-1.024.214c.622 1.67 4.627 12.568 4.287 14.695-6.698 1.34-13.487 5.693-15.539 7.084a2.925 2.925 0 011.257 1.492 38.338 38.338 0 0115.758-6.979l-.107-.565z"/><path fill="#000" d="M307.709 110.137s6.216 3.912 7.668-1.816l1.382.37s.456 6.347-9.462 2.724l.412-1.278z" opacity=".1"/><path fill="#6C63FF" d="M307.709 109.647s6.216 3.912 7.668-1.816l1.382.369s.456 6.347-9.462 2.725l.412-1.278z"/><path fill="#000" d="M327.266 108.506s.803 4.68 9.32 2.411l-.3-.884s-5.816 2.411-7.925-1.776l-1.095.249z" opacity=".1"/><path fill="#6C63FF" d="M327.266 108.015s.803 4.681 9.32 2.412l-.3-.885s-5.816 2.412-7.925-1.776l-1.095.249z"/><path fill="#000" d="M321.598 108.444v9.768h1.511s2.089-.753 2.041-5.144c-.048-4.391-.367-5.573-.367-5.573l-3.185.949z" opacity=".1"/><path fill="#6C63FF" d="M321.352 108.2v9.768h1.511s2.089-.752 2.041-5.143c-.048-4.391-.37-5.573-.37-5.573l-3.182.948z"/><path fill="#000" d="M335.554 104.894c-.616 1.147-6.21 3.03-7.199 3.354l-.15.049s-.354.091-.946.214c-1.8.375-5.813 1.072-8.841.461-.439-.086-.895-.18-1.358-.268l-1.072-.233c-3.483-.775-7.086-1.787-7.726-2.679 0 0 .174-2.913.761-2.835.586.078 7.137 2.835 7.137 2.835l.093.013c.169.021.552.07 1.091.131 2.127.233 6.609.603 9.02-.043.116-.032.223-.064.327-.101.182-.062.373-.126.568-.199 3.103-1.098 7.748-3.065 7.748-3.065s1.227 1.104.547 2.366z" opacity=".1"/><path fill="#000" d="M335.015 102.36c-.246 1.219-7.102 3.973-7.102 3.973l-8.881.919-6.55-1.04-3.515-2.081.024-1.286a.534.534 0 01.187-.592c1.166.353 6.966 2.794 6.966 2.794l.094.013c.168.022.551.07 1.09.132 2.127.233 6.609.603 9.021-.043a14.483 14.483 0 00.894-.3c2.805-.994 6.875-2.698 7.628-3.014a.533.533 0 01.144.525z" opacity=".1"/><path fill="#6C63FF" d="M335.554 104.402c-.616 1.146-6.21 3.027-7.199 3.351l-.15.051s-.354.088-.946.212c-1.8.375-5.813 1.071-8.841.46-.439-.085-.895-.179-1.358-.267l-1.072-.234c-3.483-.774-7.086-1.787-7.726-2.679 0 0 .174-2.912.761-2.831.586.08 7.137 2.831 7.137 2.831l.093.014c.169.021.552.072 1.091.131 2.127.233 6.609.603 9.02-.043a15.078 15.078 0 00.895-.3c3.103-1.098 7.748-3.065 7.748-3.065s1.227 1.112.547 2.369z"/><path fill="#000" d="M322.656 108.476a.98.98 0 10.001-1.961.98.98 0 00-.001 1.961z" opacity=".1"/><path fill="#6C63FF" d="M322.656 108.23a.98.98 0 100-1.961.98.98 0 000 1.961z"/><path fill="#000" d="M317.578 105.43l-.268 2.765-1.072-.233.268-2.663c.15.026.536.077 1.072.131z" opacity=".1"/><path fill="#6C63FF" d="M317.336 105.43l-.268 2.765-1.072-.233.268-2.663c.147.026.536.077 1.072.131z"/><path fill="#000" d="M328.115 107.753l-.15.051s-.351.088-.946.211l-.914-2.623a14.061 14.061 0 00.898-.3l1.112 2.661z" opacity=".1"/><path fill="#6C63FF" d="M328.361 107.753l-.15.051s-.354.088-.946.211l-.913-2.623a13.057 13.057 0 00.894-.3l1.115 2.661z"/><g opacity=".5"><path fill="#6C63FF" d="M259.262 100.607a7.072 7.072 0 013.56.989s3.264.396 5.042 0c1.779-.397 2.68-1.78 3.017-1.385.338.394.346 4.104.346 4.104l-1.533 4.104-3.461 2.57-5.487-1.581-1.816-4.643.332-4.158z" opacity=".5"/><path fill="#000" d="M271.227 104.32l-1.533 4.105-3.461 2.569-5.487-1.581-1.816-4.648.345-4.153h.081a7.27 7.27 0 013.482.992s3.264.396 5.043 0c1.69-.375 2.58-1.645 2.947-1.431.021.01.04.025.056.043.343.391.343 4.104.343 4.104z" opacity=".1"/><path fill="#000" d="M271.227 104.321l-1.533 4.104-3.461 2.569-5.487-1.58-1.816-4.648.345-4.153h.081c.305 1.31 1.607 5.447 5.754 5.739 4.266.297 5.476-4.777 5.728-6.176.022.01.041.025.057.043.332.389.332 4.102.332 4.102z" opacity=".1"/><path fill="#6C63FF" d="M259.261 100.607s.889 5.785 5.835 6.13c4.946.346 5.784-6.526 5.784-6.526s7.169 2.35 8.841 6.54c1.672 4.19 2.918 7.552 2.918 7.552s-.536.938-1.139 1.037c-.603.099-4.696 2.917-4.696 2.917s-.049 8.011.396 8.504c.445.493.298 2.62-1.039 2.521-1.337-.099-10.58-2.176-18.486-.445 0 0-3.312 1.187-3.215-.742.096-1.929.246-9.492.246-9.492s-4.993-2.175-5.288-2.175c-.295 0-1.04-.392-.249-1.68.79-1.289 1.781-5.685 1.781-5.685s1.983-6.312 8.311-8.456z" opacity=".5"/><path fill="#000" d="M274.637 110.994s1.484 1.088 1.138 1.929c-.345.842-1.138-1.929-1.138-1.929zm2.174 1.045a2.664 2.664 0 000 1.476v-1.476zm.989 2.714s.198 1.34-.394 1.482l.394-1.482zm-20.171-4.104s-2.767 2.411-1.83 3.362l1.83-3.362zm-1.73 5.834s-.046 2.521.718 2.72l-.718-2.72zm7.96 8.453s1.876-1.283 2.374-1.235l-2.374 1.235zm1.875 1.337s2.031-1.436 2.575-1.34l-2.575 1.34z" opacity=".1"/></g><g opacity=".5"><path fill="#6C63FF" d="M309.832 149.273s16.176.767 24.219.295l-.177 2.122-14.231 1.875-4.212-1.296-5.599-2.996z" opacity=".5"/><path fill="#000" d="M334.062 149.568l-.177 2.122-14.229 1.875-4.214-1.296-5.61-2.996s.332.019.924.043c3.51.153 16.147.646 23.086.268l.22-.016z" opacity=".1"/><path fill="#6C63FF" d="M339.661 179.741c-3.124 1.875-13.966.059-13.966.059l-3.006-10.717-3.36 10.901c-4.771 1.71-14.614-.766-14.614-.766l3.831-23.576.662-3.25.624-3.118 6.071 1.827s1.824 1.238 9.428.884c7.603-.354 8.72-2.411 8.72-2.411.335.096.654 1.278.975 2.746.466 2.143.941 4.892 1.501 5.8.953 1.527 3.134 21.621 3.134 21.621z" opacity=".5"/><path fill="#000" d="M335.036 152.55c-6.778 3.721-12.613 3.619-12.613 3.619-1.444.177-13.216-3.544-13.216-3.544l.624-3.116 6.071 1.827s1.825 1.238 9.428.884c7.603-.353 8.72-2.411 8.72-2.411.346.094.665 1.273.986 2.741z" opacity=".1"/><path fill="#000" d="M334.062 149.568l-.177 2.122-14.229 1.875-4.214-1.296-5.61-2.996s.332.019.924.043l5.144 1.549s1.825 1.238 9.428.884c5.972-.268 7.944-1.608 8.514-2.167l.22-.014z" opacity=".1"/><path fill="#6C63FF" d="M335.036 152.314c-6.778 3.721-12.613 3.62-12.613 3.62-1.444.177-13.216-3.545-13.216-3.545l.624-3.116 6.071 1.828s1.825 1.237 9.428.884c7.603-.354 8.72-2.412 8.72-2.412.346.092.665 1.273.986 2.741z" opacity=".5"/><path fill="#000" d="M323.572 155.371a.619.619 0 100-1.238.619.619 0 000 1.238z" opacity=".1"/><path stroke="#6C63FF" stroke-miterlimit="10" d="M323.572 155.135a.619.619 0 100-1.238.619.619 0 000 1.238z" opacity=".5"/><path fill="#000" d="M307.75 165.597s1.09 3.242 1.857 3.183c.766-.059-1.857-3.183-1.857-3.183zm-.707 3.183s.678 1.945 1.385 2.269l-1.385-2.269zm0 2.034s1.072 1.355 1.707 1.679l-1.707-1.679zm28.777-12.257s1.002 1.502 0 1.827v-1.827zm.453 2.443c-1.162-1.38-.444 1.875-.444 1.875s.742-1.521.444-1.875zm.587 1.68s-1.768 2.623-1.415 2.917l1.415-2.917zm-23.391-4.068c-2.168 0-4.429-.98-4.555-1.039l.097-.217c.042.021 4.369 1.899 6.711.49.884-.536 1.379-1.479 1.476-2.813l.236.019c-.102 1.415-.638 2.411-1.592 2.995a4.552 4.552 0 01-2.373.565z" opacity=".1"/><path fill="#6C63FF" d="M313.469 158.377c-2.168 0-4.429-.981-4.555-1.039l.097-.215c.042.019 4.369 1.897 6.711.488.884-.536 1.379-1.479 1.476-2.813l.236.018c-.102 1.415-.638 2.412-1.592 2.996a4.552 4.552 0 01-2.373.565z" opacity=".5"/><path fill="#000" d="M331.264 158.789a3.675 3.675 0 01-1.608-.345c-1.757-.847-2.041-2.92-2.054-3.009l.235-.029c0 .021.282 2.038 1.924 2.826 1.463.705 3.539.268 6.162-1.339l.12.2c-1.867 1.131-3.466 1.696-4.779 1.696z" opacity=".1"/><path fill="#6C63FF" d="M331.264 158.554a3.661 3.661 0 01-1.608-.346c-1.757-.846-2.041-2.92-2.054-3.008l.235-.03c0 .022.282 2.039 1.924 2.827 1.463.704 3.539.268 6.162-1.34l.12.201c-1.867 1.131-3.466 1.696-4.779 1.696z" opacity=".5"/></g><path fill="#6C63FF" d="M260.629 149.635s3.041 4.247 5.106 3.834c2.066-.413 2.269-.865 4.105-3.834l1.505 3.464-1.773 4.287-2.101 2.719-4.452-.699-1.442-4.865-.948-4.906z"/><path fill="#000" d="M271.345 153.097l-1.773 4.286-2.101 2.719-4.452-.699-1.442-4.865-.948-4.903s.268.37.686.879c1.02 1.219 2.963 3.244 4.42 2.947 2.036-.407 2.264-.855 4.032-3.713l.073-.121 1.505 3.47z" opacity=".1"/><path fill="#000" d="M271.345 153.097l-1.773 4.286-2.101 2.719-4.452-.699-1.442-4.865-.948-4.903s.268.37.686.879c.664 2.143 2.092 5.58 4.42 5.551 2.628-.029 3.689-4.383 4.032-6.309l.073-.121 1.505 3.462z" opacity=".1"/><path fill="#6C63FF" d="M259.021 149.509s-1.031-.123-.495 1.155c.536 1.278 1.524 5.481 1.031 6.347-.493.865-.246 3.215-2.39 3.67l.617 2.43s.123 5.358-.124 6.143c-.246.785-.289 5.109-.206 5.562.083.453.043 3.421-.287 3.547-.329.126-.535 1.565.536 1.811 1.072.247 5.645.373 6.47.619.825.247 6.677 0 6.677 0s2.472-.329 3.091-.536c.619-.206.742-.699.536-1.647-.206-.949-1.155-7.831-.948-8.697.206-.865.249-9.315.249-9.315s-1.608-.536-1.608-2.103c0-1.567-.619-5.771.659-8.407 0 0-1.031-.707-1.194-.581-.164.126-1.72-.327-1.72-.327s-.804 7.172-4.166 7.212c-3.363.04-4.86-7.212-4.86-7.212s.029-.659-1.868.329z"/><path fill="#000" d="M263.883 172.509s.694 1.691 1.851 1.937c1.157.247-1.851-1.937-1.851-1.937zm-1.071 1.319s2.24 1.814 2.144 2.186l-2.144-2.186zm-4.492-10.717s1.774 1.195 1.774 2.061l-1.774-2.061zm1.194 3.751s-.493-1.731-.823-2.101l.823 2.101zm-.823.659s.743 1.484.823 1.897l-.823-1.897zm14.386-3.009s-2.307.702-2.103 1.568l2.103-1.568zm-2.116 7.998s3.022-3.504 2.114-3.421c-.908.083-2.114 3.421-2.114 3.421zM272.168 158.495c0-.724-.131-2.01-.147-3.443-.016 1.645.147 3.167.147 3.979 0 1.532 1.535 2.076 1.607 2.1v-.536s-1.607-.533-1.607-2.1zm2.303 20.65c.032.141.056.283.073.426a2.69 2.69 0 00-.073-.962c-.177-.803-.895-5.963-.97-7.978-.08 1.377.783 7.614.97 8.514zm-17.052-5.345c0-1.471.083-3.499.243-4.018.132-.418.158-2.128.156-3.639 0 1.356-.04 2.733-.156 3.103-.182.584-.251 3.097-.243 4.554zm1.605-23.755c1.894-.989 1.854-.33 1.854-.33s1.484 7.255 4.859 7.213c3.376-.043 4.18-7.213 4.18-7.213s1.567.453 1.731.327c.163-.126.712.268 1.015.461.056-.142.115-.281.182-.415 0 0-1.031-.708-1.197-.582-.167.126-1.731-.326-1.731-.326s-.804 7.172-4.166 7.212c-3.362.04-4.86-7.212-4.86-7.212s.04-.659-1.854.329c0 0-.839-.096-.605.828.134-.346.592-.292.592-.292zm-1.859 28.854c.268-.099.341-1.934.325-2.947-.014 1.018-.108 2.328-.325 2.411-.217.083-.321.536-.238.973.043-.231.128-.399.238-.437zm2.391-21.353c.131-.351.175-.729.126-1.101a1.402 1.402 0 01-.126.566c-.495.865-.249 3.215-2.392 3.67l.129.504c2.004-.52 1.779-2.789 2.263-3.639z" opacity=".1"/><path fill="#6C63FF" d="M271.464 199.906c-1.012 1.843-11.292 0-11.292 0l.027-.185.203-1.428h10.832l.206 1.425.024.188z"/><path fill="#000" d="M271.464 199.906c-1.012 1.843-11.292 0-11.292 0l.027-.185c.493 0 7.93-.177 11.252 0l.013.185z" opacity=".1"/><path fill="#6C63FF" d="M260.17 199.906s-1.843.461-4.701 8.203c-2.859 7.743-3.872 17.747-3.872 17.747s-1.607 2.722 5.254 2.904c0 0-.552 1.798 3.319 1.522 3.872-.276 3.314-.274 3.314-.274s2.489-1.567 3.596-1.291c1.106.276 1.797.37 2.995 1.382 1.198 1.013 5.026.601 5.072-.182.03-.384.03-.77 0-1.154 0 0 5.853.369 4.747-3.872-1.107-4.241-2.028-11.201-2.028-11.201s-2.995-13.596-6.409-13.781c-3.413-.185-11.287-.003-11.287-.003z"/><path fill="#000" d="M258.938 205.258l-2.168 23.508.184.017 2.168-23.508-.184-.017zm4.544-.018l-.095 24.752.185.001.095-24.752-.185-.001zm5.785-.006l-.185.007.924 24.845.185-.007-.924-24.845zm5.792 23.529c-.321-14.159-2.733-23.852-2.762-23.938l.179-.046c.024.097 2.449 9.809 2.768 23.992l-.185-.008zm-14.568-27.475s-.322.185 0 1.072v-1.072zm.926 0s-.876.552 0 1.477v-1.477zm8.204 0s1.198 1.152.922 1.477l-.922-1.477zm.965-.275s.187 1.382.879 1.752l-.879-1.752z" opacity=".1"/><g opacity=".5"><path fill="#6C63FF" d="M319.509 198.802s4.522-1.8 6.478.397c1.955 2.196-1.34 4.87-1.34 4.87l-1.382 2.76-3.253-.357-.766-3.815.263-3.855z" opacity=".5"/><path fill="#000" d="M324.647 204.056l-1.382 2.76-3.253-.346-.766-3.812.268-3.856.072-.026c.574-.212 4.445-1.562 6.296.297.039.035.076.073.11.112 1.95 2.187-1.345 4.871-1.345 4.871z" opacity=".1"/><path fill="#000" d="M324.647 204.056l-1.382 2.76-3.253-.346-.766-3.812.268-3.856.072-.026c.56 3.067 2.055 4.361 2.307 4.554l.038.027.918-.075c1.787-.986 2.73-3.33 3.033-4.217.039.035.076.073.11.113 1.95 2.194-1.345 4.878-1.345 4.878z" opacity=".1"/><path fill="#6C63FF" d="M332.547 214.564s-.997 12.693-.726 14.226c.27 1.532-.576 1.647-.576 1.647s-3.606.804-4.287.268c-.68-.536-1.841-.64-1.841-.64s-2.679.613-3.873.155c-1.195-.458-3.183-.268-3.183-.268s-1.533.922-1.956.729c-.423-.193-.959-.115-2.186-.458-1.227-.343-1.918-.654-1.267-2.762.651-2.109.08-8.782.04-9.589-.04-.806-.421-2.759-.959-5.09-.539-2.331.919-1.841.919-1.841 3.415-1.762 1.996-5.216 1.46-6.748-.536-1.533.305-1.608.726-1.608.42 0 2.033-1.379 2.033-1.379l.654-.587 1.993-1.79c.496 3.352 2.103 4.758 2.371 4.967l.038.03.919-.078c2.223-1.224 3.142-4.554 3.142-4.554.268.455.866.975 1.533 1.457a26.322 26.322 0 002.724 1.688c1.608.959.424 1.918.424 1.918-1.956 6.671.803 6.966.803 6.966 2.034.3 1.075 3.341 1.075 3.341z" opacity=".5"/><path fill="#000" d="M317.478 202.598s-.576.308-.576.651l.576-.651zm.346.652s-.766.804-.632 1.037l.632-1.037zm-.002 1.039s-.576.614-.346.959l.346-.959zm3.838-.032l-2.411 2.328c-.089-2.588-1.34-4.659-1.956-5.532l1.993-1.79c.488 3.378 2.109 4.785 2.374 4.994z" opacity=".1"/><path fill="#6C63FF" d="M321.888 203.796l-2.412 2.331c-.085-2.591-1.339-4.659-1.953-5.535l1.994-1.79c.495 3.379 2.103 4.785 2.371 4.994z" opacity=".5"/><path fill="#000" d="M327.749 201.104c-.964 1.505-2.757 5.481-2.757 5.481l-1.918-2.376c2.224-1.227 3.143-4.555 3.143-4.555.268.445.865.965 1.532 1.45z" opacity=".1"/><path fill="#6C63FF" d="M327.517 200.643c-.961 1.508-2.756 5.484-2.756 5.484l-1.913-2.374c2.223-1.224 3.142-4.555 3.142-4.555.268.443.866.962 1.527 1.445z" opacity=".5"/><path fill="#000" d="M326.107 225.224s-.41 3.483-.646 3.681l.646-3.681zm3.373.613s.461 2.492.268 3.068l-.268-3.068zm-9.816.153s-.421 2.339 0 2.607v-2.607zm-2.49-.346s-.348 2.762-.267 3.261l.267-3.261zm12.881-13.46s-1.072.844-.997 1.072l.997-1.072zm.766.539s-2.052 1.725-1.026 1.532c1.026-.193 1.026-1.532 1.026-1.532z" opacity=".1"/></g><path fill="#464353" d="M215.725 165.556l-.02-.013a.046.046 0 00-.063.011l-.521.757a.046.046 0 00.012.064l.019.013a.046.046 0 00.064-.011l.521-.757a.046.046 0 00-.012-.064z"/><path fill="#3ACC6C" d="M351.258 132.55a4.63 4.63 0 01-5.523 4.55 4.625 4.625 0 01-1.676-8.385 4.626 4.626 0 017.199 3.835zm-5.163 2.449l3.434-3.432a.296.296 0 000-.42l-.423-.424a.286.286 0 00-.21-.088.298.298 0 00-.21.088l-2.8 2.8-1.307-1.302a.306.306 0 00-.424 0l-.42.423a.3.3 0 00-.089.21.3.3 0 00.089.211l1.939 1.939a.293.293 0 00.421 0v-.005zm-50.888 48.331a4.63 4.63 0 01-2.856 4.275 4.627 4.627 0 112.856-4.275zm-5.163 2.449l3.445-3.432a.298.298 0 000-.423l-.434-.407a.298.298 0 00-.423 0l-2.8 2.786-1.307-1.307a.29.29 0 00-.324-.066.304.304 0 00-.097.066l-.423.42a.306.306 0 000 .423l1.94 1.94a.298.298 0 00.326.066.309.309 0 00.097-.066zm5.163 48.096a4.63 4.63 0 01-5.53 4.538 4.634 4.634 0 01-3.635-3.636 4.632 4.632 0 011.967-4.749 4.624 4.624 0 015.843.575 4.631 4.631 0 011.355 3.272zm-5.163 2.448l3.445-3.432a.298.298 0 000-.423l-.42-.421a.3.3 0 00-.327-.065.286.286 0 00-.096.065l-2.8 2.8-1.308-1.307a.298.298 0 00-.324-.066.305.305 0 00-.096.066l-.423.42a.302.302 0 000 .424l1.939 1.939a.304.304 0 00.212.089.304.304 0 00.212-.089h-.014z"/><path fill="#0E171B" d="M392.642 251.989v12.271a.431.431 0 01-.428.428h-.304v63.921a6.67 6.67 0 01-6.67 6.669h-39.941a6.65 6.65 0 01-2.551-.508 6.659 6.659 0 01-4.116-6.161v-61.68h-.221a.299.299 0 01-.302-.3v-6.984a.311.311 0 01.088-.214.299.299 0 01.099-.065.285.285 0 01.115-.023h.221v-2.631h-.223a.317.317 0 01-.315-.317v-6.889c0-.083.033-.163.092-.223a.318.318 0 01.223-.092h.223V245.6h-.226a.285.285 0 01-.199-.082.28.28 0 01-.082-.198v-3.759a.284.284 0 01.281-.282h.226v-7.611a6.664 6.664 0 016.667-6.668h39.941a6.668 6.668 0 016.67 6.668v17.893h.304a.431.431 0 01.428.428z"/><path fill="#E6E8EC" d="M367.195 230.42h-6.49a.475.475 0 00-.475.475v.561c0 .262.213.475.475.475h6.49a.475.475 0 00.475-.475v-.561a.475.475 0 00-.475-.475zm2.455 1.612a.857.857 0 100-1.714.857.857 0 000 1.714z"/><path fill="#fff" d="M388.716 234.987v94.175a4.233 4.233 0 01-4.232 4.229h-38.233a4.226 4.226 0 01-3.911-2.609 4.227 4.227 0 01-.32-1.62v-94.175a4.23 4.23 0 014.231-4.232h5.722v.734a3.487 3.487 0 003.485 3.485h19.444a3.488 3.488 0 003.484-3.485v-.734h6.098a4.23 4.23 0 014.232 4.232z"/><path fill="#06AAF5" d="M382.744 245.987a3.737 3.737 0 100-7.474 3.737 3.737 0 000 7.474z"/><path fill="#3F3D56" d="M384.425 242.13h-1.561v-1.561h-.24v1.561h-1.562v.24h1.562v1.562h.24v-1.562h1.561v-.24z"/><path fill="#fff" d="M375.112 265.503h-.374v13.902h.374v-13.902z"/><path fill="#fff" d="M374.925 274.071s-.281-6.04-6.038-5.338l6.038 5.338z"/><path fill="#FBBEBE" d="M435.245 324.689l-24.043 7.522-29.908-18.873-.001-.001-.098-.061-.016-.01-.238-.149-2.847-1.792a1.293 1.293 0 01.314-.739 1.42 1.42 0 01.169-.169h.002c.026-.023.055-.046.084-.067.03-.023.061-.045.093-.065.551-.369 1.381-.526 2.246-.573a10.69 10.69 0 015.39 1.168c3.362 1.701 10.588 5.046 11.715 2.997 1.477-2.686-15.312-32.639-15.312-32.639-1.382-3.552-.371-4.713.263-5.078l.055-.031a1.587 1.587 0 01.322-.122l.031-.007 2.227 2.96.034.045.119.159.037.049 13.5 17.942c20.684-11.149 27.803 18.669 27.803 18.669l8.059 8.865z"/><path fill="#3F3D56" d="M385.73 270.217a.581.581 0 01-.541.329.912.912 0 01-.221-.03c-.499-.134-1.078-.682-1.511-1.43-.422-.731-.595-1.466-.497-1.953a1.587 1.587 0 01.323-.123c-.174.34-.07 1.113.408 1.941.391.679.92 1.192 1.346 1.305a.368.368 0 00.445-.136.353.353 0 00.058-.156l.034.044.12.16.036.049zm-4.685 34.063l-.016-.011-.238-.149c.001-.382-.289-1.01-.929-1.64-.542-.527-1.17-.874-1.604-.89.051-.061.108-.118.169-.169h.001a1.14 1.14 0 01.085-.067 3.502 3.502 0 011.537.934c.703.692 1.09 1.48.995 1.992z"/><rect width="16" height="16" x="348.094" y="250" fill="#486674" rx="1"/><rect width="16" height="16" x="348.094" y="270" fill="#486674" rx="1"/><rect width="16" height="16" x="348.094" y="290" fill="#486674" rx="1"/><rect width="41" height="6" x="345.094" y="324" fill="#3F3D56" rx="3"/><rect width="16" height="16" x="367.094" y="250" fill="#486674" rx="1"/><rect width="16" height="16" x="367.094" y="270" fill="#06AAF5" rx="1"/><rect width="16" height="16" x="367.094" y="290" fill="#486674" rx="1"/><path stroke="#fff" stroke-dasharray="8 4" stroke-linecap="round" stroke-linejoin="round" stroke-width="2" d="M157.594 167.5V203"/><defs><linearGradient id="prefix__paint0_linear" x1="307.594" x2="307.594" y1="57" y2="331" gradientUnits="userSpaceOnUse"><stop stop-color="#486674" stop-opacity=".43"/><stop offset="0" stop-color="#567888" stop-opacity=".573"/><stop offset="1" stop-color="#7BA9BE" stop-opacity=".97"/><stop offset="1" stop-color="#7EADC2"/></linearGradient><linearGradient id="prefix__paint1_linear" x1="293.961" x2="293.961" y1="246" y2="57" gradientUnits="userSpaceOnUse"><stop stop-color="gray" stop-opacity=".25"/><stop offset=".54" stop-color="gray" stop-opacity=".12"/><stop offset="1" stop-color="gray" stop-opacity=".1"/></linearGradient></defs></svg>