<svg xmlns="http://www.w3.org/2000/svg" width="440" height="370" fill="none" viewBox="0 0 440 370">
    <rect width="100" height="100" y="270" fill="#005F4F" rx="16"/>
    <rect width="100" height="100" x="60" y="18" fill="#005F4F" rx="16"/>
    <rect width="45" height="45" x="170" y="121" fill="#005F4F" rx="10"/>
    <rect width="63" height="63" x="358" y="20" fill="#005F4F" rx="10"/>
    <rect width="227" height="300" x="92.5" y="60.5" stroke="#fff" stroke-dasharray="8 4" rx="9.5"/>
    <rect width="60" height="60" x="176.5" y="33.5" fill="#00342B" stroke="#FFD037" rx="9.5"/>
    <path fill="#fff" d="M217.727 64.48c-.049-4.977 4.06-7.364 4.243-7.485-2.309-3.376-5.906-3.84-7.187-3.892-3.059-.311-5.972 1.802-7.524 1.802-1.549 0-3.947-1.757-6.483-1.712-3.338.05-6.414 1.94-8.131 4.928-3.466 6.012-.886 14.922 2.491 19.802 1.651 2.385 3.62 5.069 6.203 4.97 2.489-.098 3.429-1.61 6.438-1.61 3.01 0 3.855 1.61 6.489 1.56 2.677-.048 4.374-2.43 6.012-4.825 1.895-2.77 2.676-5.454 2.722-5.59-.058-.027-5.219-2.004-5.273-7.947z"/>
    <path fill="#fff" d="M212.78 50.274c1.37-1.663 2.298-3.974 2.046-6.274-1.977.08-4.37 1.314-5.789 2.975-1.272 1.475-2.384 3.822-2.086 6.081 2.205.171 4.455-1.122 5.829-2.782z"/>
    <rect width="60" height="60" x="64.5" y="263.5" fill="#00342B" stroke="#26C6DA" rx="9.5"/>
    <path fill="#fff" d="M79 305.365l12.911 1.87v-12.352H79v10.482zm0-12.247h12.911v-12.354L79 282.634v10.484zm14.676 14.373L111 310v-15.117H93.676v12.608zm0-26.983v12.61H111V278l-17.324 2.508z"/>
    <rect width="37" height="37" x="118" y="205" fill="#005F4F" rx="4"/>
    <rect width="60" height="60" x="64.5" y="126.5" fill="#00342B" stroke="#8BC34A" rx="9.5"/>
    <path fill="#fff" d="M83.484 150.526v15.34h.01c.107 1.296 1.299 2.326 2.742 2.326h15.426c1.443 0 2.634-1.03 2.742-2.326h.009v-15.34H83.484zM82.685 161.762c0 1.513-1.054 2.751-2.342 2.751-1.289 0-2.343-1.238-2.343-2.751v-9.005c0-1.514 1.054-2.752 2.343-2.752 1.288 0 2.342 1.238 2.342 2.752v9.005z"/>
    <path fill="#fff" d="M92.451 172.937c0 1.513-1.054 2.751-2.343 2.751-1.288 0-2.342-1.238-2.342-2.751v-9.005c0-1.513 1.054-2.751 2.342-2.751 1.289 0 2.343 1.238 2.343 2.751v9.005zM100.26 172.937c0 1.513-1.055 2.751-2.343 2.751s-2.343-1.238-2.343-2.751v-9.005c0-1.513 1.055-2.751 2.343-2.751s2.343 1.238 2.343 2.751v9.005zM110.002 161.762c0 1.513-1.054 2.751-2.343 2.751-1.288 0-2.343-1.238-2.343-2.751v-9.005c0-1.514 1.055-2.752 2.343-2.752 1.289 0 2.343 1.238 2.343 2.752v9.005zM99.123 141.301l1.503-2.697c.123-.22.087-.477-.08-.57-.167-.093-.405.011-.527.231l-1.538 2.76c-1.371-.539-2.909-.842-4.532-.842-1.636 0-3.184.307-4.563.855l-1.545-2.773c-.123-.22-.36-.324-.527-.231-.167.093-.203.35-.08.57l1.51 2.711c-3.142 1.476-5.26 4.247-5.26 7.424 0 .322.023.641.065.954h20.799c.043-.313.065-.631.065-.954 0-3.186-2.131-5.966-5.29-7.438zm-9.923 4.708c-.506 0-.915-.41-.915-.915 0-.506.41-.915.915-.915.505 0 .915.409.915.915 0 .505-.41.915-.915.915zm9.55 0c-.506 0-.916-.41-.916-.915 0-.506.41-.915.916-.915.505 0 .915.409.915.915 0 .505-.41.915-.915.915z"/>
    <path fill="#FF8F00" d="M17.711 54.194l13.372 1.703-8.16 10.729-5.212-12.432z"/>
    <path fill="#06AAF5" d="M9.658 138.224l8.528 10.44-13.305 2.165 4.777-12.605z"/>
    <path fill="#FFF9C4" d="M273.681 1.25l8.528 10.44-13.304 2.165 4.776-12.605zM180.475 211.015l-9.654 9.407-3.32-13.064 12.974 3.657z"/>
    <path fill="#8CC440" d="M62.681 335.25l8.528 10.44-13.304 2.165 4.776-12.605z"/>
    <circle cx="146" cy="27" r="4" fill="#8CC440"/>
    <circle cx="45" cy="228" r="4" fill="#FF8F00"/>
    <circle cx="340" cy="48" r="4" fill="#FF8F00"/>
    <circle cx="179" cy="317" r="4" fill="#FF8F00"/>
    <path fill="#005F4F" d="M393.772 234.48l.022-.023c.046-.055.08-.117.109-.183.005-.01.007-.018.009-.027.055-.144.062-.303.017-.453-.017-.054-.035-.11-.064-.16l-.11-.19 27.107-15.651c6.55-3.781 10.173-6.866 11.812-13.242.763-2.967.918-7.812-2.694-14.069l-37.332-64.661c-3.608-6.248-7.885-8.542-10.836-9.364-6.336-1.768-10.822-.171-17.372 3.611l-8.168 4.715-.138-.24c-.022-.037-.055-.064-.083-.094l.008-.005c-.01-.011-.022-.015-.033-.026-.021-.019-.044-.034-.068-.052-.029-.019-.061-.032-.093-.045-.024-.011-.051-.02-.076-.027-.04-.009-.078-.008-.118-.009-.02.001-.044-.003-.065.002-.063.008-.126.027-.184.06l-6.603 3.813c-.058.033-.106.078-.144.129-.015.016-.021.036-.035.055-.02.033-.038.068-.051.107-.007.025-.013.05-.014.079-.005.034-.009.064-.008.103.002.027.005.057.011.085.003.012.002.027.006.042l.008-.004c.012.038.019.08.04.117l.139.241-6.502 3.754-.139-.24c-.022-.037-.055-.064-.082-.094l.008-.004c-.011-.012-.023-.015-.034-.027-.021-.019-.044-.034-.068-.052-.029-.019-.061-.032-.093-.045-.027-.009-.051-.02-.076-.027-.04-.008-.078-.008-.118-.009-.02.001-.044-.003-.065.002-.063.008-.126.027-.184.061l-13.298 7.677c-.058.034-.104.078-.144.129-.016.016-.021.037-.035.056-.023.034-.041.069-.051.107-.009.026-.014.05-.015.078-.007.036-.008.065-.007.103-.001.029.005.058.011.086 0 .013.001.027.005.039l.008-.004c.012.039.018.081.039.118l.139.24-3.757 2.169-.137-.238c-.022-.037-.055-.063-.082-.093l.008-.005c-.011-.011-.023-.015-.034-.026-.021-.02-.044-.035-.068-.052-.029-.019-.061-.032-.093-.045-.027-.01-.051-.02-.076-.027-.04-.009-.078-.008-.118-.01-.02.002-.044-.002-.065.003-.063.008-.126.027-.184.06l-13.298 7.678c-.058.034-.104.077-.144.129-.016.016-.021.037-.035.055-.023.035-.041.07-.051.107-.009.027-.014.05-.015.079-.007.036-.008.065-.007.103-.001.029.005.057.011.086 0 .013.001.027.005.039l.008-.005c.012.039.018.081.039.118l.139.241-105.055 60.653c-6.55 3.782-10.173 6.867-11.814 13.24-.763 2.967-.914 7.813 2.697 14.067l37.332 64.661c3.611 6.254 7.886 8.546 10.834 9.369 6.341 1.769 10.827.172 17.375-3.608l109.903-63.453.11.19c.029.05.066.096.104.137.108.114.252.186.401.213l.028.005c.069.009.142.009.213-.003l.031-.008c.073-.014.144-.037.212-.077l21.112-12.188c.066-.038.124-.09.173-.146z"/>
    <path fill="#CE93D8" d="M198.075 238.162l2.433-1.412-2.436 1.406c-3.19-5.525-3.087-9.685-2.437-12.202 1.427-5.552 4.571-8.198 10.651-11.709l159.395-92.027c6.077-3.508 9.944-4.909 15.466-3.369 2.502.697 6.16 2.689 9.35 8.214l37.332 64.661c3.193 5.53 3.09 9.69 2.44 12.208-1.427 5.551-4.571 8.198-10.651 11.708l-159.395 92.027c-6.077 3.509-9.941 4.908-15.465 3.37-2.503-.698-6.16-2.687-9.351-8.215l-37.332-64.66z"/>
    <g fill="#005F4F" opacity=".2">
        <rect width="14.34" height="2.136" x="400.59" y="156.051" rx="1.068" transform="rotate(60 400.59 156.051)"/>
        <circle cx="409.295" cy="173.571" r="1.831" transform="rotate(60 409.295 173.571)"/>
    </g>
    <mask id="prefix__a" width="227" height="185" x="199" y="123" maskUnits="userSpaceOnUse">
        <path fill="#494949" d="M425.608 202.855c.428-1.66.438-4.502-1.948-8.635l-4.258-7.375c-.264-.347-.806-.76-1.736-.294-1.281.641-3.002 1.43-4.967.93-1.514-.387-2.679-1.342-3.413-2.613l-21.933-37.989c-.734-1.271-.98-2.76-.558-4.265.549-1.952 2.095-3.045 3.29-3.834.872-.573.781-1.25.614-1.65l-4.373-7.573c-2.384-4.13-4.852-5.545-6.502-6.002-3.877-1.076-6.465-.174-11.812 2.913l-159.604 92.147c-5.344 3.086-7.423 4.874-8.428 8.773-.425 1.659-.438 4.502 1.948 8.635l37.333 64.663c2.386 4.133 4.853 5.545 6.503 6.001 3.879 1.08 6.467.174 11.811-2.912l159.605-92.147c5.344-3.086 7.423-4.874 8.428-8.773z"/>
    </mask>
    <g mask="url(#prefix__a)">
        <path fill="#005F4F" d="M380.41 119.31H478.744V332.236H380.41z" transform="rotate(60 380.41 119.31)"/>
    </g>
    <rect width="36.187" height="1.311" x="215.02" y="250.827" fill="#000" rx=".656" transform="rotate(60 215.02 250.827)"/>
    <path fill="#005F4F" d="M396.062 212.911l.015-.028c.03-.065.047-.134.058-.205.002-.011.002-.02.002-.028.015-.153-.019-.309-.101-.443-.03-.047-.063-.097-.104-.138l-.155-.155 22.132-22.133c5.349-5.348 8.05-9.265 7.983-15.848-.03-3.063-1.135-7.783-6.244-12.892l-52.795-52.795c-5.102-5.103-9.827-6.212-12.89-6.242-6.578-.067-10.498 2.637-15.846 7.985l-6.669 6.668-.196-.196c-.03-.03-.069-.048-.104-.069l.007-.007c-.013-.008-.026-.008-.039-.017-.026-.013-.052-.021-.08-.032-.032-.011-.067-.015-.101-.02-.026-.004-.054-.006-.08-.006-.041.002-.078.013-.116.021-.02.007-.044.009-.063.02-.058.024-.114.058-.162.106l-5.391 5.391c-.048.047-.082.103-.106.162-.011.019-.011.041-.019.062-.011.037-.02.076-.022.117 0 .026 0 .051.007.08.004.034.008.064.019.101.009.026.019.054.032.08.007.011.009.026.018.039l.006-.007c.022.035.039.073.069.104l.196.196-5.309 5.309-.196-.196c-.03-.03-.069-.047-.104-.069l.007-.007c-.013-.008-.026-.008-.039-.017-.026-.013-.052-.021-.08-.032-.032-.011-.067-.015-.101-.02-.028-.002-.054-.006-.08-.006-.041.002-.078.013-.117.022-.019.006-.043.008-.062.019-.058.024-.114.058-.162.106l-10.858 10.858c-.047.047-.08.101-.106.162-.011.019-.011.041-.019.062-.013.039-.022.078-.022.117-.002.028 0 .051.007.079.002.037.008.065.019.102.007.028.02.054.033.08.004.013.008.026.015.036l.006-.006c.022.034.039.073.069.103l.196.197-3.067 3.068-.195-.195c-.03-.03-.069-.047-.103-.069l.006-.006c-.013-.009-.025-.009-.038-.017-.026-.013-.052-.022-.08-.033-.033-.011-.067-.015-.102-.019-.028-.002-.054-.007-.079-.007-.041.002-.078.013-.117.022-.019.006-.043.009-.063.019-.058.024-.114.059-.161.106l-10.858 10.858c-.048.048-.08.101-.106.162-.011.019-.011.041-.02.062-.012.039-.021.078-.021.117-.002.028 0 .052.006.08.003.036.009.065.02.101.006.028.019.054.032.08.004.013.009.026.015.037l.007-.007c.021.035.039.074.069.104l.196.196-85.777 85.777c-5.348 5.349-8.049 9.266-7.985 15.846.031 3.064 1.139 7.784 6.246 12.891l52.795 52.795c5.107 5.106 9.829 6.213 12.891 6.246 6.582.066 10.502-2.637 15.848-7.983l89.736-89.736.155.156c.041.041.089.075.136.105.134.082.291.115.442.102l.028-.003c.069-.008.141-.028.205-.058l.028-.015c.067-.032.13-.073.186-.129l17.237-17.238c.054-.054.097-.118.13-.185z"/>
    <path fill="#26C6DA" d="M207.985 267.117l1.985-1.994-1.989 1.989c-4.511-4.511-5.489-8.556-5.512-11.155-.059-5.733 2.293-9.102 7.257-14.066l130.146-130.146c4.962-4.962 8.334-7.316 14.066-7.258 2.597.026 6.647 1.003 11.158 5.514l52.795 52.796c4.516 4.515 5.493 8.56 5.517 11.16.058 5.732-2.294 9.102-7.258 14.066L286.004 318.169c-4.962 4.962-8.331 7.313-14.066 7.257-2.597-.026-6.644-1.001-11.158-5.514l-52.795-52.795z"/>
    <g fill="#005F4F" opacity=".2">
        <rect width="14.34" height="2.136" x="382.348" y="135.39" rx="1.068" transform="rotate(45 382.348 135.39)"/>
        <circle cx="395.289" cy="150.06" r="1.831" transform="rotate(45 395.289 150.06)"/>
    </g>
    <mask id="prefix__b" width="212" height="212" x="207" y="109" maskUnits="userSpaceOnUse">
        <path fill="#494949" d="M418.628 174.123c-.016-1.714-.742-4.461-4.116-7.836l-6.022-6.021c-.345-.268-.975-.526-1.753.165-1.071.951-2.529 2.158-4.556 2.183-1.563.019-2.936-.602-3.974-1.64l-31.018-31.018c-1.037-1.038-1.66-2.412-1.642-3.975.025-2.028 1.235-3.483 2.185-4.555.694-.779.431-1.41.166-1.753l-6.184-6.183c-3.372-3.372-6.122-4.1-7.834-4.114-4.024-.036-6.289 1.504-10.655 5.87L212.909 245.562c-4.364 4.364-5.909 6.63-5.871 10.656.019 1.712.742 4.462 4.117 7.836l52.797 52.797c3.374 3.374 6.122 4.1 7.834 4.114 4.026.039 6.292-1.506 10.655-5.87l130.317-130.316c4.363-4.364 5.908-6.629 5.87-10.656z"/>
    </mask>
    <g mask="url(#prefix__b)">
        <path fill="#004D40" d="M353.348 105.123H451.682V318.049H353.348z" transform="rotate(45 353.348 105.123)"/>
    </g>
    <rect width="36.187" height="1.311" x="227.633" y="274.965" fill="#000" rx=".656" transform="rotate(45 227.633 274.965)"/>
    <path fill="#005F4F" d="M392.692 191.484l.007-.031c.012-.071.011-.142.003-.213l-.005-.028c-.025-.152-.099-.293-.212-.401-.042-.038-.086-.078-.136-.107l-.19-.109 15.65-27.107c3.781-6.55 5.376-11.034 3.608-17.374-.822-2.951-3.111-7.225-9.367-10.837l-64.661-37.332c-6.249-3.608-11.1-3.456-14.067-2.693-6.371 1.638-9.457 5.264-13.239 11.814l-4.715 8.167-.241-.139c-.037-.021-.079-.028-.118-.04l.005-.008c-.015-.005-.027-.001-.042-.006-.029-.006-.056-.008-.086-.011-.034-.002-.068.003-.103.008-.026.002-.053.007-.078.014-.039.013-.072.033-.107.051-.017.011-.04.02-.056.035-.05.038-.095.086-.129.144l-3.812 6.603c-.033.058-.052.121-.06.184-.006.021 0 .042-.003.065-.001.038.001.078.01.118.006.025.013.05.027.076.013.032.025.06.045.093.015.022.032.047.051.068.009.009.015.023.027.033l.005-.008c.03.028.056.061.093.083l.241.138-3.755 6.503-.24-.139c-.037-.021-.079-.028-.118-.04l.005-.008c-.015-.005-.028-.001-.042-.006-.029-.006-.056-.008-.086-.011-.034-.002-.068.003-.103.008-.027.005-.054.007-.079.014-.039.013-.071.033-.106.051-.018.011-.04.02-.056.035-.05.038-.095.086-.129.144l-7.678 13.298c-.033.058-.05.119-.06.184-.005.022 0 .042-.002.065-.003.041-.001.081.009.119.005.027.013.05.027.075.011.035.025.06.045.093.013.025.033.047.052.069.007.011.015.022.024.031l.004-.008c.03.028.057.061.094.082l.24.139-2.169 3.757-.238-.137c-.037-.021-.079-.028-.118-.04l.005-.008c-.015-.005-.027-.001-.042-.006-.028-.006-.056-.008-.086-.011-.034-.002-.068.003-.102.008-.028.005-.054.007-.079.014-.039.013-.072.033-.107.051-.017.011-.04.02-.056.035-.05.038-.095.086-.129.144l-7.677 13.298c-.034.058-.051.119-.061.184-.005.022.001.042-.002.065-.003.041-.001.081.009.119.005.027.014.05.027.075.012.035.025.06.045.093.014.025.033.047.052.069.007.011.015.022.024.031l.005-.008c.029.028.056.061.093.082l.241.139-60.654 105.055c-3.782 6.551-5.377 11.034-3.611 17.373.822 2.951 3.115 7.224 9.369 10.835l64.661 37.332c6.254 3.61 11.102 3.457 14.067 2.696 6.375-1.639 9.462-5.265 13.242-11.812l63.453-109.904.19.11c.051.029.105.05.159.067.151.045.311.035.454-.017l.026-.009c.065-.026.128-.063.183-.109l.023-.022c.056-.049.106-.104.146-.173l12.189-21.112c.038-.066.063-.139.077-.212z"/>
    <path fill="#26A69A" d="M225.055 292.521l1.402-2.439-1.407 2.436c-5.525-3.19-7.516-6.844-8.211-9.349-1.54-5.522-.141-9.386 3.369-15.466l92.027-159.395c3.509-6.077 6.157-9.224 11.709-10.65 2.515-.648 6.68-.752 12.205 2.438l64.66 37.332c5.531 3.192 7.522 6.847 8.217 9.352 1.54 5.521.141 9.385-3.369 15.465L313.63 321.64c-3.509 6.078-6.155 9.221-11.709 10.651-2.515.647-6.677.753-12.205-2.438l-64.661-37.332z"/>
    <g fill="#005F4F" opacity=".2">
        <rect width="14.34" height="2.136" x="359.383" y="120.153" rx="1.068" transform="rotate(30 359.383 120.153)"/>
        <circle cx="375.682" cy="130.974" r="1.831" transform="rotate(30 375.682 130.974)"/>
    </g>
    <mask id="prefix__c" width="185" height="227" x="220" y="102" maskUnits="userSpaceOnUse">
        <path fill="#494949" d="M404.45 148.178c-.46-1.652-1.872-4.118-6.005-6.504l-7.374-4.258c-.403-.169-1.079-.256-1.651.614-.789 1.195-1.884 2.739-3.836 3.288-1.505.422-2.992.177-4.263-.556l-37.988-21.933c-1.271-.734-2.229-1.901-2.616-3.415-.5-1.965.291-3.684.932-4.965.468-.933.051-1.473-.294-1.736l-7.573-4.372c-4.13-2.385-6.974-2.376-8.632-1.947-3.896 1.007-5.686 3.081-8.773 8.428L224.23 270.427c-3.086 5.344-3.992 7.932-2.913 11.811.461 1.649 1.872 4.118 6.005 6.504l64.663 37.333c4.133 2.386 6.974 2.376 8.632 1.947 3.899-1.005 5.687-3.084 8.773-8.428l92.147-159.605c3.086-5.344 3.992-7.932 2.913-11.811z"/>
    </mask>
    <g mask="url(#prefix__c)">
        <path fill="#005F4F" d="M323.535 98.425H421.869V311.351H323.535z" transform="rotate(30 323.535 98.425)"/>
    </g>
    <rect width="36.187" height="1.311" x="246.062" y="295.017" fill="#000" rx=".656" transform="rotate(30 246.062 295.017)"/>
    <path fill="#005F4F" d="M383.891 171.659l-.001-.031c-.007-.072-.026-.14-.052-.207-.004-.01-.008-.018-.013-.025-.063-.141-.171-.258-.309-.333-.049-.026-.102-.052-.158-.067l-.212-.057 8.101-30.234c1.957-7.306 2.337-12.049-1.012-17.716-1.557-2.638-4.874-6.174-11.853-8.043l-72.12-19.325c-6.969-1.867-11.615-.465-14.284 1.04-5.73 3.231-7.773 7.532-9.73 14.838l-2.441 9.109-.268-.072c-.042-.011-.084-.006-.124-.008l.002-.009c-.016-.001-.027.006-.042.005-.029.002-.056.007-.086.012-.033.007-.065.02-.097.034-.025.009-.05.021-.073.034-.034.022-.06.05-.09.077-.013.015-.033.029-.044.048-.039.05-.07.108-.087.172l-1.974 7.365c-.017.065-.019.131-.01.193 0 .022.011.041.014.064.009.037.021.075.04.112.013.022.026.045.045.066.021.027.04.051.068.078.02.018.043.037.068.053.011.006.02.018.034.025l.002-.009c.036.019.071.044.112.055l.268.072-1.943 7.252-.268-.071c-.042-.011-.084-.007-.125-.008l.003-.009c-.016-.001-.027.005-.043.004-.028.002-.055.007-.085.012-.033.007-.065.02-.097.034-.026.012-.05.021-.073.034-.034.023-.061.05-.09.077-.013.016-.033.029-.044.048-.039.05-.07.108-.088.173l-3.974 14.832c-.017.065-.018.128-.011.193.001.022.012.041.015.064.008.04.02.078.039.112.013.025.026.045.046.066.02.03.04.051.068.078.019.021.043.037.067.053.011.009.021.018.032.024l.002-.009c.036.019.071.044.112.055l.268.072-1.123 4.191-.265-.071c-.041-.011-.084-.007-.124-.008l.002-.009c-.016-.001-.027.005-.042.004-.029.002-.056.007-.086.012-.033.007-.065.021-.097.034-.025.012-.05.021-.072.034-.035.023-.061.05-.091.077-.013.016-.033.029-.044.048-.039.05-.07.108-.087.173l-3.975 14.832c-.017.065-.018.128-.01.193 0 .022.011.041.014.064.008.04.02.078.04.112.012.025.026.045.045.066.02.03.04.051.068.078.019.021.044.037.068.053.01.009.02.018.031.024l.003-.009c.035.019.07.044.111.055l.268.072-31.396 117.174c-1.958 7.306-2.338 12.049 1.008 17.715 1.558 2.638 4.878 6.172 11.854 8.041l72.12 19.324c6.975 1.869 11.618.467 14.286-1.036 5.734-3.233 7.777-7.534 9.733-14.837l32.846-122.582.212.057c.056.015.115.021.171.024.157.004.309-.047.434-.134.007-.004.015-.011.023-.015.055-.042.107-.095.148-.153l.017-.028c.042-.061.075-.128.096-.204l6.309-23.547c.02-.074.025-.151.02-.226z"/>
    <path fill="#8BC34A" d="M248.115 312.641l.722-2.718-.728 2.717c-6.162-1.651-9.031-4.666-10.351-6.905-2.917-4.936-2.565-9.03-.748-15.811l47.637-177.782c1.816-6.779 3.559-10.503 8.553-13.319 2.262-1.276 6.258-2.454 12.42-.803l72.12 19.324c6.168 1.653 9.037 4.668 10.357 6.907 2.916 4.935 2.565 9.029.748 15.81l-47.637 177.783c-1.816 6.778-3.559 10.5-8.553 13.318-2.262 1.277-6.255 2.456-12.42.804l-72.12-19.325z"/>
    <g fill="#005F4F" opacity=".2">
        <rect width="14.34" height="2.136" x="333.254" y="111.382" rx="1.068" transform="rotate(15 333.254 111.382)"/>
        <circle cx="351.798" cy="117.614" r="1.831" transform="rotate(15 351.798 117.614)"/>
    </g>
    <mask id="prefix__d" width="146" height="227" x="240" y="102" maskUnits="userSpaceOnUse">
        <path fill="#494949" d="M384.038 126.786c-.871-1.477-2.873-3.493-7.482-4.728l-8.226-2.205c-.433-.059-1.108.033-1.436 1.02-.452 1.359-1.111 3.134-2.854 4.169-1.344.797-2.844.946-4.261.566l-42.371-11.353c-1.418-.38-2.645-1.259-3.411-2.622-.991-1.768-.672-3.634-.384-5.037.211-1.022-.332-1.436-.734-1.6l-8.446-2.264c-4.606-1.234-7.352-.489-8.841.354-3.504 1.981-4.695 4.448-6.293 10.412L241.6 291.513c-1.598 5.961-1.803 8.696.244 12.163.872 1.474 2.873 3.493 7.482 4.728l72.123 19.325c4.609 1.235 7.352.49 8.841-.354 3.507-1.979 4.696-4.45 6.293-10.411l47.699-178.015c1.598-5.961 1.803-8.696-.244-12.163z"/>
    </mask>
    <g mask="url(#prefix__d)">
        <path fill="#005F4F" d="M293.004 99.67H391.338V312.596H293.004z" transform="rotate(15 293.004 99.67)"/>
    </g>
    <rect width="36.187" height="1.311" x="269.055" y="309.615" fill="#000" rx=".656" transform="rotate(15 269.055 309.615)"/>
    <path fill="#004D40" d="M370.256 154.789l-.009-.031c-.025-.067-.062-.128-.104-.186-.006-.009-.012-.015-.019-.021-.097-.119-.231-.205-.384-.241-.055-.013-.113-.025-.171-.025h-.219v-31.3c0-7.563-.861-12.244-5.562-16.851-2.188-2.144-6.307-4.701-13.532-4.701h-74.663c-7.216 0-11.341 2.557-13.529 4.701-4.698 4.604-5.558 9.288-5.558 16.851v9.431h-.278c-.043 0-.082.015-.122.024v-.009c-.015.003-.025.012-.04.015-.027.009-.052.022-.079.034-.031.015-.058.036-.086.058-.021.015-.042.033-.061.052-.027.03-.045.064-.067.097-.009.019-.024.037-.03.058-.025.058-.04.122-.04.189v7.625c0 .067.015.131.04.189.006.021.021.037.03.058.019.033.04.067.067.098.019.018.037.036.061.051.028.022.052.04.086.058.024.013.052.025.079.034.012.003.025.012.04.015v-.009c.04.009.079.024.122.024h.278v7.509h-.278c-.043 0-.082.015-.122.024v-.009c-.015.003-.025.012-.04.015-.027.01-.052.022-.079.034-.031.015-.058.037-.086.058-.021.018-.042.034-.061.052-.027.03-.045.064-.067.097-.009.019-.024.037-.03.058-.025.058-.04.122-.04.19v15.355c0 .067.015.128.04.189.006.022.021.037.03.058.019.037.04.071.067.098.019.021.037.037.061.052.028.024.052.04.086.058.024.015.052.024.079.033.012.007.025.013.037.016v-.009c.039.009.079.024.122.024h.277v4.338h-.274c-.043 0-.082.016-.122.025v-.009c-.015.003-.025.012-.04.015-.027.009-.052.021-.079.034-.031.015-.058.036-.086.057-.021.019-.042.034-.061.052-.027.031-.045.064-.067.098-.009.018-.024.037-.03.058-.025.058-.04.122-.04.189v15.356c0 .067.015.128.04.189.006.021.021.037.03.058.019.036.04.07.067.097.019.022.037.037.061.052.028.025.052.04.086.058.024.016.052.025.079.034.012.006.025.012.037.015v-.009c.039.009.079.024.122.024h.277v121.308c0 7.563.861 12.243 5.559 16.85 2.188 2.145 6.31 4.699 13.532 4.699h74.663c7.222 0 11.344-2.557 13.532-4.699 4.701-4.607 5.562-9.29 5.562-16.85V180.112h.219c.058 0 .116-.009.171-.022.153-.036.287-.125.384-.241.007-.006.013-.015.019-.021.042-.055.079-.119.104-.186l.009-.031c.024-.07.039-.143.039-.222v-24.378c0-.076-.015-.152-.039-.222z"/>
    <path fill="#FFD037" d="M275.595 326.108l-.006-2.813v2.813c-6.38 0-9.931-2.169-11.786-3.991-4.095-4.012-4.815-8.057-4.815-15.078V122.985c0-7.017.72-11.066 4.815-15.078 1.855-1.818 5.409-3.99 11.789-3.99h74.664c6.385 0 9.937 2.169 11.792 3.99 4.094 4.012 4.814 8.058 4.814 15.078v184.054c0 7.018-.72 11.063-4.814 15.078-1.855 1.819-5.407 3.991-11.789 3.991h-74.664z"/>
    <g fill="#005F4F" opacity=".2">
        <rect width="14.34" height="2.136" x="305.742" y="109.671" rx="1.068"/>
        <circle cx="325.268" cy="110.891" r="1.831"/>
    </g>
    <mask id="prefix__e" width="100" height="214" x="263" y="108" maskUnits="userSpaceOnUse">
        <path fill="#494949" d="M358.787 111.405c-1.224-1.2-3.68-2.63-8.452-2.63h-8.516c-.433.055-1.062.318-1.123 1.357-.085 1.429-.262 3.314-1.678 4.765-1.092 1.118-2.502 1.65-3.969 1.65h-43.866c-1.468 0-2.88-.532-3.972-1.65-1.416-1.451-1.59-3.336-1.676-4.765-.061-1.042-.692-1.302-1.122-1.357h-8.745c-4.769 0-7.228 1.43-8.448 2.63-2.871 2.82-3.384 5.512-3.384 11.686v184.295c0 6.171.509 8.865 3.384 11.685 1.223 1.198 3.679 2.631 8.451 2.631h74.667c4.772 0 7.228-1.43 8.449-2.631 2.874-2.82 3.383-5.514 3.383-11.685V123.091c0-6.171-.509-8.866-3.383-11.686z"/>
    </mask>
    <g mask="url(#prefix__e)">
        <path fill="#005F4F" d="M263.836 108.775h98.334v212.927h-98.334V108.775z"/>
        <rect width="18.828" height="18.828" x="274" y="131.621" fill="#fff" fill-opacity=".15" rx="4"/>
        <rect width="18.828" height="18.828" x="274" y="161.207" fill="#fff" fill-opacity=".15" rx="4"/>
        <rect width="18.828" height="18.828" x="274" y="190.793" fill="#fff" fill-opacity=".15" rx="4"/>
        <rect width="18.828" height="18.828" x="274" y="220.379" fill="#fff" fill-opacity=".15" rx="4"/>
        <rect width="18.828" height="18.828" x="274" y="249.965" fill="#fff" fill-opacity=".15" rx="4"/>
        <rect width="18.828" height="18.828" x="274" y="279.552" fill="#fff" fill-opacity=".15" rx="4"/>
        <rect width="18.828" height="18.828" x="303.586" y="131.621" fill="#fff" fill-opacity=".15" rx="4"/>
        <rect width="18.828" height="18.828" x="303.586" y="161.207" fill="#fff" fill-opacity=".15" rx="4"/>
        <rect width="18.828" height="18.828" x="303.586" y="190.793" fill="#fff" fill-opacity=".15" rx="4"/>
        <rect width="18.828" height="18.828" x="303.586" y="220.379" fill="#fff" fill-opacity=".15" rx="4"/>
        <rect width="18.828" height="18.828" x="303.586" y="249.965" fill="#fff" fill-opacity=".15" rx="4"/>
        <rect width="18.828" height="18.828" x="303.586" y="279.552" fill="#fff" fill-opacity=".15" rx="4"/>
        <rect width="18.828" height="18.828" x="333.172" y="131.621" fill="#fff" fill-opacity=".15" rx="4"/>
        <rect width="18.828" height="18.828" x="333.172" y="161.207" fill="#fff" fill-opacity=".15" rx="4"/>
        <rect width="18.828" height="18.828" x="333.172" y="190.793" fill="#fff" fill-opacity=".15" rx="4"/>
        <rect width="18.828" height="18.828" x="333.172" y="220.379" fill="#fff" fill-opacity=".15" rx="4"/>
        <rect width="18.828" height="18.828" x="333.172" y="249.965" fill="#fff" fill-opacity=".15" rx="4"/>
        <rect width="18.828" height="18.828" x="333.172" y="279.552" fill="#fff" fill-opacity=".15" rx="4"/>
    </g>
    <rect width="36.187" height="1.311" x="295.039" y="317.766" fill="#000" rx=".656"/>
</svg>
