<svg width="507" height="457" viewBox="0 0 507 457" fill="none" xmlns="http://www.w3.org/2000/svg">
<rect x="130.284" y="298.436" width="54.079" height="54.079" rx="10" fill="#3F4B52"/>
<rect x="406.688" y="88.1288" width="100.146" height="100.146" rx="16" fill="#3F4B52"/>
<rect x="25.1305" y="273.399" width="100.146" height="100.146" rx="16" fill="#3F4B52"/>
<rect x="106.249" y="31.0454" width="33.0483" height="33.0483" rx="4" fill="#3F4B52"/>
<rect x="348.603" y="6.00878" width="45.0658" height="45.0658" rx="10" fill="#3F4B52"/>
<rect x="374.641" y="283.414" width="63.0922" height="63.0922" rx="10" fill="#3F4B52"/>
<rect x="157.351" y="203.297" width="37.0541" height="37.0541" rx="4" fill="#3F4B52"/>
<path d="M278.835 427.848L278.824 422.888V427.848C267.575 427.848 261.313 424.023 258.042 420.811C250.822 413.737 249.552 406.603 249.552 394.224V69.6769C249.552 57.3032 250.822 50.1641 258.042 43.0896C261.313 39.8831 267.58 36.0527 278.829 36.0527H410.486C421.746 36.0527 428.008 39.8778 431.279 43.0896C438.499 50.1641 439.769 57.2978 439.769 69.6769V394.224C439.769 406.597 438.499 413.731 431.279 420.811C428.008 424.018 421.746 427.848 410.491 427.848H278.835Z" fill="black"/>
<path d="M440.306 125.896H439.475C438.129 125.896 437.037 126.988 437.037 128.334V170.485C437.037 171.832 438.129 172.923 439.475 172.923H440.306C441.652 172.923 442.744 171.832 442.744 170.485V128.334C442.744 126.988 441.652 125.896 440.306 125.896Z" fill="black"/>
<rect x="331.993" y="46.1991" width="25.2854" height="3.76592" rx="1.88021" fill="white"/>
<circle cx="366.423" cy="48.3511" r="3.22793" fill="white"/>
<mask id="mask0" mask-type="alpha" maskUnits="userSpaceOnUse" x="258" y="44" width="174" height="377">
<path d="M425.524 49.2588C423.367 47.1417 419.036 44.6206 410.621 44.6206H395.606C394.842 44.7176 393.733 45.1808 393.626 47.0124C393.475 49.5335 393.163 52.8572 390.667 55.416C388.741 57.3876 386.255 58.325 383.667 58.325C378.077 58.325 311.908 58.325 306.318 58.325C303.73 58.325 301.239 57.3876 299.313 55.416C296.816 52.8572 296.51 49.5335 296.359 47.0124C296.251 45.1755 295.138 44.7176 294.379 44.6206H278.96C270.551 44.6206 266.214 47.1417 264.062 49.2588C259 54.2309 258.096 58.9768 258.096 69.8637V394.836C258.096 405.717 258.994 410.468 264.062 415.441C266.22 417.552 270.551 420.079 278.965 420.079H410.627C419.041 420.079 423.372 417.558 425.524 415.441C430.592 410.468 431.491 405.717 431.491 394.836V69.8637C431.491 58.9822 430.592 54.2309 425.524 49.2588Z" fill="#494949"/>
</mask>
<g mask="url(#mask0)">
<rect x="258.096" y="44.6206" width="173.395" height="375.458" fill="#F9F6F0"/>
</g>
<rect x="313.118" y="413.138" width="63.8094" height="2.31193" rx="1.15428" fill="black"/>
<path d="M249.18 88.9048H249.17C248.288 88.9048 247.573 89.6198 247.573 90.5018V102.788C247.573 103.67 248.288 104.385 249.17 104.385H249.18C250.062 104.385 250.777 103.67 250.777 102.788V90.5018C250.777 89.6198 250.062 88.9048 249.18 88.9048Z" fill="black"/>
<path d="M249.265 117.246H249.255C248.261 117.246 247.455 118.052 247.455 119.046V142.394C247.455 143.388 248.261 144.194 249.255 144.194H249.265C250.259 144.194 251.065 143.388 251.065 142.394V119.046C251.065 118.052 250.259 117.246 249.265 117.246Z" fill="black"/>
<path d="M249.235 153.617H249.224C248.277 153.617 247.51 154.384 247.51 155.331V179.084C247.51 180.031 248.277 180.799 249.224 180.799H249.235C250.182 180.799 250.949 180.031 250.949 179.084V155.331C250.949 154.384 250.182 153.617 249.235 153.617Z" fill="black"/>
<path d="M111.59 457L111.58 452.04V457C100.33 457 94.0682 453.175 90.7972 449.963C83.5774 442.889 82.3077 435.755 82.3077 423.376V98.8289C82.3077 86.4552 83.5774 79.3161 90.7972 72.2415C94.0682 69.0351 100.336 65.2046 111.585 65.2046H243.242C254.502 65.2046 260.764 69.0297 264.035 72.2415C271.255 79.3161 272.524 86.4498 272.524 98.8289V423.376C272.524 435.749 271.255 442.883 264.035 449.963C260.764 453.17 254.502 457 243.247 457H111.59Z" fill="black"/>
<path d="M273.061 155.048H272.231C270.884 155.048 269.793 156.14 269.793 157.486V199.637C269.793 200.984 270.884 202.075 272.231 202.075H273.061C274.408 202.075 275.499 200.984 275.499 199.637V157.486C275.499 156.14 274.408 155.048 273.061 155.048Z" fill="black"/>
<rect x="164.749" y="75.3511" width="25.2854" height="3.76592" rx="1.88021" fill="white"/>
<circle cx="199.178" cy="77.5031" r="3.22793" fill="white"/>
<mask id="mask1" mask-type="alpha" maskUnits="userSpaceOnUse" x="90" y="73" width="175" height="377">
<path d="M258.28 78.4107C256.123 76.2937 251.792 73.7726 243.377 73.7726H228.361C227.597 73.8695 226.489 74.3328 226.381 76.1644C226.231 78.6855 225.919 82.0092 223.422 84.568C221.496 86.5396 219.011 87.4769 216.423 87.4769C210.833 87.4769 144.663 87.4769 139.073 87.4769C136.485 87.4769 133.994 86.5396 132.068 84.568C129.572 82.0092 129.265 78.6855 129.115 76.1644C129.007 74.3274 127.893 73.8695 127.135 73.7726H111.715C103.306 73.7726 98.97 76.2937 96.818 78.4107C91.7553 83.3829 90.8515 88.1287 90.8515 99.0157V423.987C90.8515 434.869 91.75 439.62 96.818 444.592C98.9754 446.704 103.306 449.231 111.721 449.231H243.383C251.797 449.231 256.128 446.71 258.28 444.592C263.348 439.62 264.247 434.869 264.247 423.987V99.0157C264.247 88.1341 263.348 83.3829 258.28 78.4107Z" fill="#494949"/>
</mask>
<g mask="url(#mask1)">
<rect x="90.8515" y="73.7726" width="173.395" height="375.458" fill="#F9F6F0"/>
</g>
<rect x="145.873" y="442.29" width="63.8094" height="2.31193" rx="1.15428" fill="black"/>
<path d="M81.936 118.057H81.9253C81.0433 118.057 80.3283 118.772 80.3283 119.654V131.94C80.3283 132.822 81.0433 133.537 81.9253 133.537H81.936C82.818 133.537 83.533 132.822 83.533 131.94V119.654C83.533 118.772 82.818 118.057 81.936 118.057Z" fill="black"/>
<path d="M82.0209 146.398H82.0103C81.0165 146.398 80.2109 147.204 80.2109 148.198V171.546C80.2109 172.54 81.0165 173.346 82.0103 173.346H82.0209C83.0147 173.346 83.8203 172.54 83.8203 171.546V148.198C83.8203 147.204 83.0147 146.398 82.0209 146.398Z" fill="black"/>
<path d="M81.9905 182.769H81.9798C81.0331 182.769 80.2657 183.536 80.2657 184.483V208.236C80.2657 209.183 81.0331 209.95 81.9798 209.95H81.9905C82.9372 209.95 83.7046 209.183 83.7046 208.236V184.483C83.7046 183.536 82.9372 182.769 81.9905 182.769Z" fill="black"/>
<path d="M402.393 52.2709L415.784 53.9758L407.612 64.7206L402.393 52.2709Z" fill="#FF8F00"/>
<path d="M45.8721 104.347L59.2634 106.052L51.0912 116.797L45.8721 104.347Z" fill="#FF8F00"/>
<path d="M4.78215 141.457L13.3225 151.912L-0.00158345 154.081L4.78215 141.457Z" fill="#06AAF5"/>
<path d="M484.145 334.713L475.805 345.327L470.783 332.797L484.145 334.713Z" fill="#06AAF5"/>
<path d="M330.258 10.2654L338.798 20.7199L325.474 22.8888L330.258 10.2654Z" fill="#FFF9C4"/>
<path d="M448.43 242.605L456.971 253.059L443.647 255.228L448.43 242.605Z" fill="#FFF9C4"/>
<path d="M217.414 47.6124L207.746 57.0334L204.421 43.9497L217.414 47.6124Z" fill="#FFD037"/>
<path d="M32.8231 296.684L41.3634 307.138L28.0394 309.307L32.8231 296.684Z" fill="#8CC440"/>
<path d="M141.983 3.25512L150.523 13.7097L137.199 15.8785L141.983 3.25512Z" fill="#8CC440"/>
<circle cx="35.1451" cy="64.0936" r="4.00585" fill="#8CC440"/>
<circle cx="491.812" cy="169.247" r="4.00585" fill="#8CC440"/>
<circle cx="76.2051" cy="226.331" r="4.00585" fill="#FF8F00"/>
<circle cx="280.504" cy="4.00585" r="4.00585" fill="#FF8F00"/>
<circle cx="450.752" cy="25.0366" r="4.00585" fill="#FF8F00"/>
</svg>
