<svg xmlns="http://www.w3.org/2000/svg" width="471" height="363" fill="none" viewBox="0 0 471 363">
    <path fill="#FF8F00" d="M47.711 64.195l13.372 1.702-8.16 10.729-5.212-12.431z"/>
    <path fill="#FFF9C4" d="M255.681 18.25l8.528 10.44-13.304 2.165 4.776-12.605z"/>
    <path fill="#8CC440" d="M92.681 345.25l8.528 10.44-13.304 2.165 4.776-12.605z"/>
    <circle cx="157" cy="91" r="4" fill="#8CC440"/>
    <circle cx="75" cy="238" r="4" fill="#FF8F00"/>
    <circle cx="328" cy="58" r="4" fill="#FF8F00"/>
    <path stroke="#FFEB3B" stroke-dasharray="8 4" stroke-miterlimit="16" stroke-width="2" d="M167.002 170.5c-.5-11.667 7.7-35 44.5-35"/>
    <path fill="#FFEB3B" d="M217 135.5l-9 7.361v-14.722l9 7.361z"/>
    <path fill="#06AAF5" d="M110.681 157.25l8.528 10.44-13.304 2.165 4.776-12.605z"/>
    <rect width="100" height="100" x="29" y="76" fill="#31650D" rx="16"/>
    <rect width="100" height="100" x="164" fill="#31650D" rx="16"/>
    <rect width="45" height="45" x="200" y="131" fill="#31650D" rx="10"/>
    <rect width="100" height="100" x="371" y="46" fill="#31650D" rx="16"/>
    <path fill="#fff" d="M8.113 299.48v20.183h.012c.141 1.705 1.71 3.06 3.608 3.06H32.03c1.898 0 3.467-1.355 3.608-3.06h.012V299.48H8.113zM7.063 314.263c0 1.991-1.387 3.62-3.082 3.62-1.695 0-3.083-1.629-3.083-3.62v-11.847c0-1.992 1.387-3.621 3.083-3.621 1.695 0 3.082 1.629 3.082 3.621v11.847z"/>
    <path fill="#fff" d="M19.91 328.966c0 1.991-1.387 3.62-3.082 3.62-1.695 0-3.082-1.629-3.082-3.62v-11.847c0-1.991 1.387-3.62 3.082-3.62 1.695 0 3.083 1.629 3.083 3.62v11.847zM30.184 328.966c0 1.991-1.387 3.62-3.082 3.62-1.695 0-3.082-1.629-3.082-3.62v-11.847c0-1.991 1.387-3.62 3.082-3.62 1.695 0 3.082 1.629 3.082 3.62v11.847zM43 314.263c0 1.991-1.386 3.62-3.082 3.62-1.695 0-3.082-1.629-3.082-3.62v-11.847c0-1.992 1.387-3.621 3.082-3.621 1.696 0 3.083 1.629 3.083 3.621v11.847zM28.689 287.343l1.977-3.548c.162-.29.114-.628-.105-.75-.22-.123-.532.014-.694.304l-2.023 3.631c-1.804-.71-3.827-1.108-5.963-1.108-2.152 0-4.189.404-6.003 1.125l-2.033-3.648c-.161-.29-.474-.427-.693-.304-.22.122-.267.46-.106.75l1.988 3.566c-4.135 1.942-6.92 5.589-6.92 9.768 0 .424.03.843.085 1.255h27.364c.056-.412.086-.83.086-1.255 0-4.192-2.803-7.849-6.96-9.786zm-13.056 6.194c-.665 0-1.204-.539-1.204-1.204 0-.665.539-1.204 1.204-1.204.665 0 1.204.539 1.204 1.204 0 .665-.539 1.204-1.204 1.204zm12.565 0c-.666 0-1.205-.539-1.205-1.204 0-.665.54-1.204 1.205-1.204s1.204.539 1.204 1.204c0 .665-.54 1.204-1.204 1.204zM455.313 362.31H285.738c-5.913 0-10.687-4.845-10.687-10.687V97.688c0-5.914 4.845-10.688 10.687-10.688h169.575c5.914 0 10.688 4.845 10.688 10.688v253.935c0 5.913-4.774 10.687-10.688 10.687z"/>
    <path fill="#31650D" d="M457.095 101.393H283.957v223.226h173.138V101.393z"/>
    <rect width="23.512" height="23.512" x="299.988" y="125.618" fill="#fff" fill-opacity=".25" rx="4"/>
    <rect width="23.512" height="23.512" x="299.988" y="164.805" fill="#fff" fill-opacity=".25" rx="4"/>
    <rect width="23.512" height="23.512" x="299.988" y="203.992" fill="#fff" fill-opacity=".25" rx="4"/>
    <rect width="23.512" height="23.512" x="299.988" y="243.18" fill="#fff" fill-opacity=".25" rx="4"/>
    <rect width="23.512" height="23.512" x="299.988" y="282.367" fill="#fff" fill-opacity=".25" rx="4"/>
    <rect width="23.512" height="23.512" x="339.176" y="125.617" fill="#fff" fill-opacity=".25" rx="4"/>
    <rect width="23.512" height="23.512" x="339.176" y="164.805" fill="#fff" fill-opacity=".25" rx="4"/>
    <rect width="23.512" height="23.512" x="339.176" y="203.992" fill="#fff" fill-opacity=".25" rx="4"/>
    <rect width="23.512" height="23.512" x="339.176" y="243.18" fill="#fff" fill-opacity=".25" rx="4"/>
    <rect width="23.512" height="23.512" x="339.176" y="282.367" fill="#fff" fill-opacity=".25" rx="4"/>
    <rect width="23.512" height="23.512" x="378.363" y="125.617" fill="#fff" fill-opacity=".25" rx="4"/>
    <rect width="23.512" height="23.512" x="378.363" y="164.805" fill="#fff" fill-opacity=".25" rx="4"/>
    <rect width="23.512" height="23.512" x="378.363" y="203.992" fill="#fff" fill-opacity=".25" rx="4"/>
    <rect width="23.512" height="23.512" x="378.363" y="243.18" fill="#fff" fill-opacity=".25" rx="4"/>
    <rect width="23.512" height="23.512" x="378.363" y="282.367" fill="#fff" fill-opacity=".25" rx="4"/>
    <rect width="23.512" height="23.512" x="417.551" y="125.617" fill="#fff" fill-opacity=".25" rx="4"/>
    <rect width="23.512" height="23.512" x="417.551" y="164.805" fill="#fff" fill-opacity=".25" rx="4"/>
    <rect width="23.512" height="23.512" x="417.551" y="203.992" fill="#fff" fill-opacity=".25" rx="4"/>
    <rect width="23.512" height="23.512" x="417.551" y="243.18" fill="#fff" fill-opacity=".25" rx="4"/>
    <rect width="23.512" height="23.512" x="417.551" y="282.367" fill="#fff" fill-opacity=".25" rx="4"/>
    <path fill="#5D932F" d="M369.67 355.256c6.493 0 11.757-5.263 11.757-11.756s-5.264-11.756-11.757-11.756c-6.492 0-11.756 5.263-11.756 11.756s5.264 11.756 11.756 11.756zM370.026 98.543c2.086 0 3.777-1.691 3.777-3.777 0-2.085-1.691-3.776-3.777-3.776-2.085 0-3.776 1.69-3.776 3.776s1.691 3.776 3.776 3.776z"/>
    <path fill="#31650D" d="M130 208.91H224V336.90999999999997H130z"/>
    <rect width="17.886" height="17.886" x="138.961" y="221.805" fill="#fff" fill-opacity=".25" rx="4"/>
    <rect width="17.886" height="17.886" x="138.961" y="249.912" fill="#fff" fill-opacity=".25" rx="4"/>
    <rect width="17.886" height="17.886" x="138.961" y="278.019" fill="#fff" fill-opacity=".25" rx="4"/>
    <rect width="17.886" height="17.886" x="138.961" y="306.125" fill="#fff" fill-opacity=".25" rx="4"/>
    <rect width="17.886" height="17.886" x="167.066" y="221.805" fill="#fff" fill-opacity=".25" rx="4"/>
    <rect width="17.886" height="17.886" x="167.066" y="249.912" fill="#fff" fill-opacity=".25" rx="4"/>
    <rect width="17.886" height="17.886" x="167.066" y="278.019" fill="#fff" fill-opacity=".25" rx="4"/>
    <rect width="17.886" height="17.886" x="167.066" y="306.125" fill="#fff" fill-opacity=".25" rx="4"/>
    <rect width="17.886" height="17.886" x="195.176" y="221.805" fill="#fff" fill-opacity=".25" rx="4"/>
    <rect width="17.886" height="17.886" x="195.176" y="249.912" fill="#fff" fill-opacity=".25" rx="4"/>
    <rect width="17.886" height="17.886" x="195.176" y="278.019" fill="#fff" fill-opacity=".25" rx="4"/>
    <rect width="17.886" height="17.886" x="195.176" y="306.125" fill="#fff" fill-opacity=".25" rx="4"/>
    <path fill="#fff" d="M219.363 191.88H134.23c-5.665 0-10.23 4.565-10.23 10.229v149.935c0 5.664 4.565 10.229 10.23 10.229h85.133c5.664 0 10.229-4.565 10.229-10.229V202.109c0-5.622-4.607-10.229-10.229-10.229zm-58.038 7.862h30.942c.677 0 1.226.55 1.226 1.226 0 .676-.549 1.226-1.226 1.226h-30.942c-.676 0-1.226-.55-1.226-1.226 0-.676.55-1.226 1.226-1.226zm-3.762 152.851h-12.005c-1.775 0-3.255-1.437-3.255-3.254 0-1.818 1.437-3.255 3.255-3.255h12.005c1.775 0 3.255 1.437 3.255 3.255 0 1.817-1.437 3.254-3.255 3.254zm25.997-.591c0 2.282-1.86 4.142-4.143 4.142h-5.284c-2.282 0-4.142-1.86-4.142-4.142v-5.284c0-2.283 1.86-4.143 4.142-4.143h5.284c2.283 0 4.143 1.86 4.143 4.143v5.284zm24.474.591h-12.005c-1.775 0-3.254-1.437-3.254-3.254 0-1.818 1.437-3.255 3.254-3.255h12.005c1.776 0 3.255 1.437 3.255 3.255 0 1.817-1.479 3.254-3.255 3.254zm16.275-15.893h-95.025V210.479h95.025V336.7z"/>
</svg>
