<svg width="24" height="24" fill="none" xmlns="http://www.w3.org/2000/svg"><path fill-rule="evenodd" clip-rule="evenodd" d="M18.735 17.655V12.97c0-2.51-1.34-3.678-3.126-3.678a2.7 2.7 0 00-2.448 1.35V9.484h-2.716c.036.767 0 8.171 0 8.171h2.716v-4.563c-.01-.224.02-.449.09-.662a1.486 1.486 0 011.393-.993c.983 0 1.376.749 1.376 1.847v4.372h2.716l-.001-.001zM7.584 8.369A1.416 1.416 0 107.6 5.545a1.416 1.416 0 10-.035 2.824h.019zM12 24a12 12 0 110-24 12 12 0 010 24zm-3.058-6.345V9.484H6.226v8.171h2.716z" fill="#fff"/></svg>