<svg xmlns="http://www.w3.org/2000/svg" width="157" height="82" fill="none" viewBox="0 0 157 82">
    <path fill="#0C0E0F" fill-rule="evenodd" d="M122.818 5.178c-.889 0-1.628.592-1.628 1.48 0 1.035.74 1.627 1.628 1.627.887 0 1.627-.592 1.627-1.628.001-.887-.739-1.48-1.627-1.48zm0 .147c.175 0 .348.034.51.1.162.067.309.165.433.289.123.124.221.27.288.433.066.162.1.335.1.51 0 .888-.592 1.48-1.331 1.48-.889 0-1.481-.592-1.481-1.48.001-.74.593-1.332 1.481-1.332zm.739 2.369l-.444-.888c.297-.148.444-.297.444-.444 0-.296-.295-.592-.739-.592h-.741v1.924h.297v-.74h.444l.444.74h.295zm-1.183-1.037v-.591h.444c.295 0 .444.147.444.147 0 .296-.15.444-.444.444h-.444z" clip-rule="evenodd"/>
    <path fill="#A1C677" fill-rule="evenodd" d="M55.638 76.206h24.416v-.445H55.638v.445z" clip-rule="evenodd"/>
    <path fill="#A4C67F" fill-rule="evenodd" d="M55.638 75.761h24.416v-.444H55.638v.444z" clip-rule="evenodd"/>
    <path fill="#A9C983" fill-rule="evenodd" d="M55.638 75.317h24.416v-.591H55.638v.591z" clip-rule="evenodd"/>
    <path fill="#AECC8B" fill-rule="evenodd" d="M55.638 74.726h24.416v-.444H55.638v.444z" clip-rule="evenodd"/>
    <path fill="#B1CF92" fill-rule="evenodd" d="M55.638 74.282h24.416v-.445H55.638v.445z" clip-rule="evenodd"/>
    <path fill="#B6D296" fill-rule="evenodd" d="M55.638 73.837h24.416v-.444H55.638v.444z" clip-rule="evenodd"/>
    <path fill="#B9D29B" fill-rule="evenodd" d="M55.638 73.393h24.416v-.592H55.638v.592z" clip-rule="evenodd"/>
    <path fill="#BDD4A0" fill-rule="evenodd" d="M55.638 72.802h24.416v-.444H55.638v.444z" clip-rule="evenodd"/>
    <path fill="#C4D9A8" fill-rule="evenodd" d="M55.638 72.358h24.416v-.445H55.638v.445z" clip-rule="evenodd"/>
    <path fill="#C5DAAD" fill-rule="evenodd" d="M55.638 71.913h24.416v-.442H55.638v.442z" clip-rule="evenodd"/>
    <path fill="#C8DAB2" fill-rule="evenodd" d="M55.638 71.47h24.416v-.593H55.638v.594z" clip-rule="evenodd"/>
    <path fill="#CEDEB9" fill-rule="evenodd" d="M55.638 70.877h24.416v-.442H55.638v.442z" clip-rule="evenodd"/>
    <path fill="#D2E0BE" fill-rule="evenodd" d="M55.638 70.435h24.416v-.445H55.638v.445z" clip-rule="evenodd"/>
    <path fill="#D6E2C4" fill-rule="evenodd" d="M55.638 69.99h24.416v-.444H55.638v.444z" clip-rule="evenodd"/>
    <path fill="#DAE7CB" fill-rule="evenodd" d="M55.638 69.546h24.416v-.444H55.638v.444z" clip-rule="evenodd"/>
    <path fill="#DCE8D0" fill-rule="evenodd" d="M55.638 69.102h24.416v-.591H55.638v.591z" clip-rule="evenodd"/>
    <path fill="#E2EBD6" fill-rule="evenodd" d="M55.638 68.511h24.416v-.445H55.638v.445z" clip-rule="evenodd"/>
    <path fill="#E5EBDC" fill-rule="evenodd" d="M55.638 68.066h24.416v-.444H55.638v.444z" clip-rule="evenodd"/>
    <path fill="#ECEEE0" fill-rule="evenodd" d="M55.638 67.622h24.416v-.444H55.638v.444z" clip-rule="evenodd"/>
    <path fill="#F0F1E8" fill-rule="evenodd" d="M55.638 67.178h24.416v-.591H55.638v.591z" clip-rule="evenodd"/>
    <path fill="#F2F2EE" fill-rule="evenodd" d="M55.638 66.587h24.416v-.444H55.638v.444z" clip-rule="evenodd"/>
    <path fill="#F7F8F6" fill-rule="evenodd" d="M55.638 66.143h24.416v-.444H55.638v.444z" clip-rule="evenodd"/>
    <path fill="#fff" fill-rule="evenodd" d="M55.638 65.7h24.416v-.445H55.638v.444z" clip-rule="evenodd"/>
    <path fill="#F3D23D" fill-rule="evenodd" d="M80.202 75.613h.445V53.27h-.445v22.343zm.445 0h.444V53.27h-.444v22.343z" clip-rule="evenodd"/>
    <path fill="#F3D43F" fill-rule="evenodd" d="M81.091 75.613h.443V53.27h-.443v22.343z" clip-rule="evenodd"/>
    <path fill="#F3D244" fill-rule="evenodd" d="M81.534 75.613h.592V53.27h-.592v22.343z" clip-rule="evenodd"/>
    <path fill="#F3D44A" fill-rule="evenodd" d="M82.126 75.613h.445V53.27h-.445v22.343z" clip-rule="evenodd"/>
    <path fill="#F3D44E" fill-rule="evenodd" d="M82.569 75.613h.444V53.27h-.444v22.343z" clip-rule="evenodd"/>
    <path fill="#F3D552" fill-rule="evenodd" d="M83.016 75.613h.444V53.27h-.444v22.343z" clip-rule="evenodd"/>
    <path fill="#F2D359" fill-rule="evenodd" d="M83.455 75.613h.591V53.27h-.591v22.343z" clip-rule="evenodd"/>
    <path fill="#F1D65C" fill-rule="evenodd" d="M84.05 75.613h.445V53.27h-.445v22.343z" clip-rule="evenodd"/>
    <path fill="#F4D760" fill-rule="evenodd" d="M84.493 75.613h.444V53.27h-.444v22.343z" clip-rule="evenodd"/>
    <path fill="#F2DA67" fill-rule="evenodd" d="M84.936 75.613h.444V53.27h-.444v22.343z" clip-rule="evenodd"/>
    <path fill="#F2DA6B" fill-rule="evenodd" d="M85.383 75.613h.444V53.27h-.444v22.343z" clip-rule="evenodd"/>
    <path fill="#F5DB6F" fill-rule="evenodd" d="M85.826 75.613h.591V53.27h-.591v22.343z" clip-rule="evenodd"/>
    <path fill="#F6DD72" fill-rule="evenodd" d="M86.417 75.613h.444V53.27h-.444v22.343z" clip-rule="evenodd"/>
    <path fill="#F5DC77" fill-rule="evenodd" d="M86.86 75.613h.444V53.27h-.444v22.343z" clip-rule="evenodd"/>
    <path fill="#F5DC7B" fill-rule="evenodd" d="M87.303 75.613h.444V53.27h-.444v22.343z" clip-rule="evenodd"/>
    <path fill="#F5DC7F" fill-rule="evenodd" d="M87.746 75.613h.592V53.27h-.592v22.343z" clip-rule="evenodd"/>
    <path fill="#F5DC80" fill-rule="evenodd" d="M88.342 75.613h.444V53.27h-.444v22.343z" clip-rule="evenodd"/>
    <path fill="#F5DD84" fill-rule="evenodd" d="M88.784 75.613h.444V53.27h-.444v22.343z" clip-rule="evenodd"/>
    <path fill="#F5DF88" fill-rule="evenodd" d="M89.227 75.613h.444V53.27h-.444v22.343z" clip-rule="evenodd"/>
    <path fill="#F5DF8B" fill-rule="evenodd" d="M89.67 75.613h.592V53.27h-.592v22.343z" clip-rule="evenodd"/>
    <path fill="#F5DF8D" fill-rule="evenodd" d="M90.262 75.613h.445V53.27h-.445v22.343z" clip-rule="evenodd"/>
    <path fill="#F4E08E" fill-rule="evenodd" d="M90.709 75.613h.444V53.27h-.444v22.343z" clip-rule="evenodd"/>
    <path fill="#F6E193" fill-rule="evenodd" d="M91.151 75.613h.444V53.27h-.444v22.343z" clip-rule="evenodd"/>
    <path fill="#F4E297" fill-rule="evenodd" d="M91.598 75.613h.443V53.27h-.443v22.343z" clip-rule="evenodd"/>
    <path fill="#F7E69B" fill-rule="evenodd" d="M92.037 75.613h.592V53.27h-.592v22.343z" clip-rule="evenodd"/>
    <path fill="#F7E69D" fill-rule="evenodd" d="M92.629 75.613h.444V53.27h-.444v22.343z" clip-rule="evenodd"/>
    <path fill="#F7E6A0" fill-rule="evenodd" d="M93.076 75.613h.444V53.27h-.444v22.343z" clip-rule="evenodd"/>
    <path fill="#F7E6A4" fill-rule="evenodd" d="M93.519 75.613h.444V53.27h-.444v22.343z" clip-rule="evenodd"/>
    <path fill="#F7E7A8" fill-rule="evenodd" d="M93.965 75.613h.592V53.27h-.592v22.343z" clip-rule="evenodd"/>
    <path fill="#F7E7AB" fill-rule="evenodd" d="M94.557 75.613h.444V53.27h-.444v22.343z" clip-rule="evenodd"/>
    <path fill="#F7E7AD" fill-rule="evenodd" d="M94.996 75.613h.444V53.27h-.444v22.343z" clip-rule="evenodd"/>
    <path fill="#FAE9B1" fill-rule="evenodd" d="M95.443 75.613h.445V53.27h-.445v22.343z" clip-rule="evenodd"/>
    <path fill="#F7E7B4" fill-rule="evenodd" d="M95.89 75.613h.444V53.27h-.444v22.343z" clip-rule="evenodd"/>
    <path fill="#F7E8B6" fill-rule="evenodd" d="M96.332 75.613h.592V53.27h-.592v22.343z" clip-rule="evenodd"/>
    <path fill="#F7E8B8" fill-rule="evenodd" d="M96.924 75.613h.442V53.27h-.442v22.343z" clip-rule="evenodd"/>
    <path fill="#F7E8BC" fill-rule="evenodd" d="M97.363 75.613h.445V53.27h-.445v22.343z" clip-rule="evenodd"/>
    <path fill="#F7E8BF" fill-rule="evenodd" d="M97.81 75.613h.444V53.27h-.444v22.343z" clip-rule="evenodd"/>
    <path fill="#F7EAC4" fill-rule="evenodd" d="M98.257 75.613h.591V53.27h-.591v22.343z" clip-rule="evenodd"/>
    <path fill="#F7EBC5" fill-rule="evenodd" d="M98.848 75.613h.444V53.27h-.444v22.343z" clip-rule="evenodd"/>
    <path fill="#F7EBC7" fill-rule="evenodd" d="M99.291 75.613h.445V53.27h-.445v22.343z" clip-rule="evenodd"/>
    <path fill="#F8EDCC" fill-rule="evenodd" d="M99.734 75.613h.444V53.27h-.444v22.343z" clip-rule="evenodd"/>
    <path fill="#FBEFD0" fill-rule="evenodd" d="M100.181 75.613h.444V53.27h-.444v22.343z" clip-rule="evenodd"/>
    <path fill="#F8EFD2" fill-rule="evenodd" d="M100.624 75.613h.591V53.27h-.591v22.343z" clip-rule="evenodd"/>
    <path fill="#F8F0D6" fill-rule="evenodd" d="M101.215 75.613h.445V53.27h-.445v22.343z" clip-rule="evenodd"/>
    <path fill="#F8F0D9" fill-rule="evenodd" d="M101.658 75.613h.443V53.27h-.443v22.343z" clip-rule="evenodd"/>
    <path fill="#F8F0DB" fill-rule="evenodd" d="M102.101 75.613h.444V53.27h-.444v22.343z" clip-rule="evenodd"/>
    <path fill="#F8F0DF" fill-rule="evenodd" d="M102.544 75.613h.592V53.27h-.592v22.343z" clip-rule="evenodd"/>
    <path fill="#F9F3E4" fill-rule="evenodd" d="M103.136 75.613h.445V53.27h-.445v22.343z" clip-rule="evenodd"/>
    <path fill="#F9F3E6" fill-rule="evenodd" d="M103.583 75.613h.443V53.27h-.443v22.343z" clip-rule="evenodd"/>
    <path fill="#F9F3E9" fill-rule="evenodd" d="M104.025 75.613h.444V53.27h-.444v22.343z" clip-rule="evenodd"/>
    <path fill="#F9F6EB" fill-rule="evenodd" d="M104.468 75.613h.592V53.27h-.592v22.343z" clip-rule="evenodd"/>
    <path fill="#F9F6EE" fill-rule="evenodd" d="M105.06 75.613h.445V53.27h-.445v22.343z" clip-rule="evenodd"/>
    <path fill="#F9F6F0" fill-rule="evenodd" d="M105.507 75.613h.444V53.27h-.444v22.343z" clip-rule="evenodd"/>
    <path fill="#FAF9F4" fill-rule="evenodd" d="M105.95 75.613h.444V53.27h-.444v22.343z" clip-rule="evenodd"/>
    <path fill="#FFFFFB" fill-rule="evenodd" d="M106.396 75.613h.443V53.27h-.443v22.343z" clip-rule="evenodd"/>
    <path fill="#fff" fill-rule="evenodd" d="M106.835 75.613h.594V53.27h-.594v22.343z" clip-rule="evenodd"/>
    <path fill="#769FD2" fill-rule="evenodd" d="M35.663 36.104H56.97v-.591H36.106l-.443.591z" clip-rule="evenodd"/>
    <path fill="#76A1D3" fill-rule="evenodd" d="M35.216 36.548h21.752v-.444H35.661l-.445.444z" clip-rule="evenodd"/>
    <path fill="#7AA2D3" fill-rule="evenodd" d="M34.773 36.992H56.97v-.444H35.217l-.444.444z" clip-rule="evenodd"/>
    <path fill="#7CA3D3" fill-rule="evenodd" d="M34.33 37.436h22.64v-.444H34.773l-.443.444z" clip-rule="evenodd"/>
    <path fill="#80A4D1" fill-rule="evenodd" d="M33.887 38.028h23.085v-.592h-22.64l-.445.592zM33.445 38.471h23.528v-.443H33.889l-.444.443z" clip-rule="evenodd"/>
    <path fill="#80A3D0" fill-rule="evenodd" d="M32.998 38.916H56.97v-.445H33.442l-.444.445z" clip-rule="evenodd"/>
    <path fill="#84A6D1" fill-rule="evenodd" d="M32.555 39.36h24.416v-.444H33l-.444.444zm-.443.592h24.86v-.593H32.554l-.443.593z" clip-rule="evenodd"/>
    <path fill="#88A9D2" fill-rule="evenodd" d="M31.665 40.396h25.303v-.444H32.11l-.444.444z" clip-rule="evenodd"/>
    <path fill="#8AABD5" fill-rule="evenodd" d="M31.223 40.839h25.746v-.444H31.666l-.444.444z" clip-rule="evenodd"/>
    <path fill="#8CACD5" fill-rule="evenodd" d="M30.78 41.282H56.97v-.443H31.224l-.444.443z" clip-rule="evenodd"/>
    <path fill="#8DAED9" fill-rule="evenodd" d="M30.482 41.728h26.487v-.445H30.777l-.295.445z" clip-rule="evenodd"/>
    <path fill="#8FAFD9" fill-rule="evenodd" d="M30.039 42.319H56.97v-.592H30.483l-.444.592z" clip-rule="evenodd"/>
    <path fill="#91AFD7" fill-rule="evenodd" d="M29.596 42.763h27.375v-.444H30.04l-.444.444z" clip-rule="evenodd"/>
    <path fill="#93B0D9" fill-rule="evenodd" d="M29.153 43.207h27.82v-.444H29.596l-.444.444z" clip-rule="evenodd"/>
    <path fill="#96B4D9" fill-rule="evenodd" d="M28.706 43.651H56.97v-.444H29.15l-.444.444z" clip-rule="evenodd"/>
    <path fill="#9AB5DA" fill-rule="evenodd" d="M28.264 44.243H56.97v-.591H28.708l-.444.591z" clip-rule="evenodd"/>
    <path fill="#9BB6DA" fill-rule="evenodd" d="M27.817 44.687h29.15v-.444H28.262l-.444.444z" clip-rule="evenodd"/>
    <path fill="#9DB6DA" fill-rule="evenodd" d="M27.378 45.131h29.594v-.444h-29.15l-.444.444z" clip-rule="evenodd"/>
    <path fill="#9FB7DA" fill-rule="evenodd" d="M26.931 45.574H56.97v-.443H27.375l-.444.443z" clip-rule="evenodd"/>
    <path fill="#A2BBDD" fill-rule="evenodd" d="M26.637 46.166h30.335v-.592H26.933l-.296.444v.148z" clip-rule="evenodd"/>
    <path fill="#A3BADC" fill-rule="evenodd" d="M26.637 46.61h30.335v-.444H26.637v.444z" clip-rule="evenodd"/>
    <path fill="#A4BDDE" fill-rule="evenodd" d="M26.637 47.053h30.335v-.443H26.637v.444z" clip-rule="evenodd"/>
    <path fill="#A8BDDD" fill-rule="evenodd" d="M26.637 47.498h30.335v-.445H26.637v.445z" clip-rule="evenodd"/>
    <path fill="#A8BFDE" fill-rule="evenodd" d="M26.637 47.942h30.335v-.444H26.637v.444z" clip-rule="evenodd"/>
    <path fill="#AAC0DE" fill-rule="evenodd" d="M26.637 48.534h30.335v-.591H26.637v.591z" clip-rule="evenodd"/>
    <path fill="#AEC3E2" fill-rule="evenodd" d="M26.637 48.978h30.335v-.444H26.637v.444zm0 .445h30.335v-.445H26.637v.445z" clip-rule="evenodd"/>
    <path fill="#B1C5E3" fill-rule="evenodd" d="M26.637 49.865h30.335v-.442H26.637v.442z" clip-rule="evenodd"/>
    <path fill="#B3C6E4" fill-rule="evenodd" d="M26.637 50.458h30.335v-.593H26.637v.593z" clip-rule="evenodd"/>
    <path fill="#B5C9E5" fill-rule="evenodd" d="M26.637 50.902h30.335v-.444H26.637v.444z" clip-rule="evenodd"/>
    <path fill="#B7C9E5" fill-rule="evenodd" d="M26.637 51.346h30.335v-.444H26.637v.444z" clip-rule="evenodd"/>
    <path fill="#B9C9E4" fill-rule="evenodd" d="M26.637 51.79h30.335v-.445H26.637v.444z" clip-rule="evenodd"/>
    <path fill="#BBCBE3" fill-rule="evenodd" d="M26.637 52.38h30.335v-.59H26.637v.59z" clip-rule="evenodd"/>
    <path fill="#BDCCE3" fill-rule="evenodd" d="M26.637 52.825h30.335v-.592H26.637v.592z" clip-rule="evenodd"/>
    <path fill="#C0CEE5" fill-rule="evenodd" d="M26.637 53.27h30.335v-.445H26.637v.445z" clip-rule="evenodd"/>
    <path fill="#C4D0E5" fill-rule="evenodd" d="M26.637 53.714h30.335v-.444H26.637v.444zm0 .443h30.335v-.443H26.637v.443z" clip-rule="evenodd"/>
    <path fill="#C6D3E6" fill-rule="evenodd" d="M26.637 54.749h30.335v-.592H26.637v.592z" clip-rule="evenodd"/>
    <path fill="#C9D5E8" fill-rule="evenodd" d="M26.637 55.194h30.335v-.445H26.637v.445zm0 .442h30.335v-.442H26.637v.442z" clip-rule="evenodd"/>
    <path fill="#CCD8E9" fill-rule="evenodd" d="M26.637 56.08h30.335v-.444H26.637v.444z" clip-rule="evenodd"/>
    <path fill="#CDD7EB" fill-rule="evenodd" d="M26.637 56.672h30.335v-.592H26.637v.592z" clip-rule="evenodd"/>
    <path fill="#D0DCED" fill-rule="evenodd" d="M26.637 57.116h30.335v-.445H26.637v.445z" clip-rule="evenodd"/>
    <path fill="#D2DDED" fill-rule="evenodd" d="M26.637 57.56h30.335v-.444H26.637v.444z" clip-rule="evenodd"/>
    <path fill="#D4DEEE" fill-rule="evenodd" d="M26.637 58.004h30.335v-.444H26.637v.444z" clip-rule="evenodd"/>
    <path fill="#D6DFF1" fill-rule="evenodd" d="M26.637 58.449h30.335v-.445H26.637v.445z" clip-rule="evenodd"/>
    <path fill="#D7E0EF" fill-rule="evenodd" d="M26.637 59.04h30.335v-.591H26.637v.592z" clip-rule="evenodd"/>
    <path fill="#DBE2ED" fill-rule="evenodd" d="M26.637 59.484h30.335v-.444H26.637v.444z" clip-rule="evenodd"/>
    <path fill="#DEE3ED" fill-rule="evenodd" d="M26.637 59.928h30.335v-.444H26.637v.444z" clip-rule="evenodd"/>
    <path fill="#E0E6EF" fill-rule="evenodd" d="M26.637 60.371h30.335v-.443H26.637v.443z" clip-rule="evenodd"/>
    <path fill="#E2E7EF" fill-rule="evenodd" d="M26.637 60.965h30.335v-.594H26.637v.594zm0 .442h30.335v-.442H26.637v.442z" clip-rule="evenodd"/>
    <path fill="#E5E8EF" fill-rule="evenodd" d="M26.637 61.851h30.335v-.444H26.637v.444z" clip-rule="evenodd"/>
    <path fill="#E7EBF0" fill-rule="evenodd" d="M26.637 62.295h30.335v-.444H26.637v.444z" clip-rule="evenodd"/>
    <path fill="#EAECF1" fill-rule="evenodd" d="M26.637 62.888h30.335v-.592H26.637v.592z" clip-rule="evenodd"/>
    <path fill="#ECEFF2" fill-rule="evenodd" d="M26.637 63.331h30.335v-.444H26.637v.444zm0 .444h30.335v-.444H26.637v.444z" clip-rule="evenodd"/>
    <path fill="#F2F3F4" fill-rule="evenodd" d="M26.637 64.219h30.335v-.444H26.637v.444zm0 .445h30.335v-.445H26.637v.445z" clip-rule="evenodd"/>
    <path fill="#F4F4F7" fill-rule="evenodd" d="M26.637 65.256h30.335v-.592H26.637v.592z" clip-rule="evenodd"/>
    <path fill="#F7F8F8" fill-rule="evenodd" d="M26.637 65.7h30.335v-.445H26.637v.444z" clip-rule="evenodd"/>
    <path fill="#FBFDFF" fill-rule="evenodd" d="M26.637 66.143h30.335v-.444H26.637v.444z" clip-rule="evenodd"/>
    <path fill="#fff" fill-rule="evenodd" d="M26.637 66.587h30.335v-.444H26.637v.444z" clip-rule="evenodd"/>
    <path fill="#DA884E" fill-rule="evenodd" d="M108.466 36.104h22.343v-.591h-22.343v.591z" clip-rule="evenodd"/>
    <path fill="#DB8A51" fill-rule="evenodd" d="M108.466 36.548h22.343v-.444h-22.343v.444z" clip-rule="evenodd"/>
    <path fill="#DA8F56" fill-rule="evenodd" d="M108.466 36.992h22.343v-.444h-22.343v.444z" clip-rule="evenodd"/>
    <path fill="#DB925D" fill-rule="evenodd" d="M108.466 37.436h22.343v-.444h-22.343v.444z" clip-rule="evenodd"/>
    <path fill="#DB9461" fill-rule="evenodd" d="M108.466 38.028h22.343v-.592h-22.343v.592z" clip-rule="evenodd"/>
    <path fill="#DC9865" fill-rule="evenodd" d="M108.466 38.471h22.343v-.443h-22.343v.443z" clip-rule="evenodd"/>
    <path fill="#DF9B68" fill-rule="evenodd" d="M108.466 38.916h22.343v-.445h-22.343v.445z" clip-rule="evenodd"/>
    <path fill="#E39D6D" fill-rule="evenodd" d="M108.466 39.36h22.343v-.444h-22.343v.444z" clip-rule="evenodd"/>
    <path fill="#E09F73" fill-rule="evenodd" d="M108.466 39.952h22.343v-.593h-22.343v.593z" clip-rule="evenodd"/>
    <path fill="#E2A475" fill-rule="evenodd" d="M108.466 40.396h22.343v-.444h-22.343v.444z" clip-rule="evenodd"/>
    <path fill="#E0A779" fill-rule="evenodd" d="M108.466 40.839h22.343v-.444h-22.343v.444z" clip-rule="evenodd"/>
    <path fill="#E1A97B" fill-rule="evenodd" d="M108.466 41.282h22.343v-.443h-22.343v.443z" clip-rule="evenodd"/>
    <path fill="#E1AB80" fill-rule="evenodd" d="M108.466 41.728h22.343v-.445h-22.343v.445z" clip-rule="evenodd"/>
    <path fill="#E3AF86" fill-rule="evenodd" d="M108.466 42.319h22.343v-.592h-22.343v.592z" clip-rule="evenodd"/>
    <path fill="#E3B188" fill-rule="evenodd" d="M108.466 42.763h22.343v-.444h-22.343v.444z" clip-rule="evenodd"/>
    <path fill="#E6B48D" fill-rule="evenodd" d="M108.466 43.207h22.343v-.444h-22.343v.444z" clip-rule="evenodd"/>
    <path fill="#E7B892" fill-rule="evenodd" d="M108.466 43.651h22.343v-.444h-22.343v.444z" clip-rule="evenodd"/>
    <path fill="#E9BE96" fill-rule="evenodd" d="M108.466 44.243h22.343v-.591h-22.343v.591z" clip-rule="evenodd"/>
    <path fill="#E7C09B" fill-rule="evenodd" d="M108.466 44.687h22.343v-.444h-22.343v.444z" clip-rule="evenodd"/>
    <path fill="#E8C29E" fill-rule="evenodd" d="M108.466 45.131h22.343v-.444h-22.343v.444z" clip-rule="evenodd"/>
    <path fill="#E8C4A2" fill-rule="evenodd" d="M108.466 45.574h22.343v-.443h-22.343v.443z" clip-rule="evenodd"/>
    <path fill="#EAC8A8" fill-rule="evenodd" d="M108.466 46.166h22.343v-.592h-22.343v.592z" clip-rule="evenodd"/>
    <path fill="#EBCCAD" fill-rule="evenodd" d="M108.466 46.61h22.343v-.444h-22.343v.444z" clip-rule="evenodd"/>
    <path fill="#EBCEB0" fill-rule="evenodd" d="M108.466 47.053h22.343v-.443h-22.343v.444z" clip-rule="evenodd"/>
    <path fill="#ECD0B4" fill-rule="evenodd" d="M108.466 47.498h22.343v-.445h-22.343v.445z" clip-rule="evenodd"/>
    <path fill="#EFD3B7" fill-rule="evenodd" d="M108.466 47.942h22.343v-.444h-22.343v.444z" clip-rule="evenodd"/>
    <path fill="#F3D7BD" fill-rule="evenodd" d="M108.466 48.534h22.343v-.591h-22.343v.591z" clip-rule="evenodd"/>
    <path fill="#F4D9C1" fill-rule="evenodd" d="M108.466 48.978h22.343v-.444h-22.343v.444z" clip-rule="evenodd"/>
    <path fill="#F2DCC6" fill-rule="evenodd" d="M108.466 49.423h22.343v-.445h-22.343v.445z" clip-rule="evenodd"/>
    <path fill="#F0DFCB" fill-rule="evenodd" d="M108.466 49.865h22.343v-.442h-22.343v.442z" clip-rule="evenodd"/>
    <path fill="#F1E1CE" fill-rule="evenodd" d="M108.466 50.458h22.343v-.593h-22.343v.593z" clip-rule="evenodd"/>
    <path fill="#F2E5D6" fill-rule="evenodd" d="M108.466 50.902h22.343v-.444h-22.343v.444z" clip-rule="evenodd"/>
    <path fill="#F3E7DA" fill-rule="evenodd" d="M108.466 51.346h22.343v-.444h-22.343v.444z" clip-rule="evenodd"/>
    <path fill="#F3E9DF" fill-rule="evenodd" d="M108.466 51.79h22.343v-.445h-22.343v.444z" clip-rule="evenodd"/>
    <path fill="#F4EEE3" fill-rule="evenodd" d="M108.466 52.38h22.343v-.59h-22.343v.59z" clip-rule="evenodd"/>
    <path fill="#F4EEE7" fill-rule="evenodd" d="M108.466 52.825h22.343v-.592h-22.343v.592z" clip-rule="evenodd"/>
    <path fill="#F5F0EA" fill-rule="evenodd" d="M108.466 53.27h22.343v-.445h-22.343v.445z" clip-rule="evenodd"/>
    <path fill="#F9F6F0" fill-rule="evenodd" d="M108.466 53.714h22.343v-.444h-22.343v.444z" clip-rule="evenodd"/>
    <path fill="#F9F6F4" fill-rule="evenodd" d="M108.466 54.157h22.343v-.444h-22.343v.444z" clip-rule="evenodd"/>
    <path fill="#fff" fill-rule="evenodd" d="M108.466 54.749h22.343v-.592h-22.343v.592z" clip-rule="evenodd"/>
    <path fill="#0C0E0F" fill-rule="evenodd" d="M108.466 65.995c-2.96 6.66-6.956 9.617-13.319 9.617-5.18 0-10.21-2.958-12.429-7.398-1.48-3.107-2.072-5.77-2.072-11.392h35.66c0-6.513-.739-10.507-2.663-14.65-3.403-7.547-10.21-11.838-18.644-11.838-13.467 0-22.788 10.505-22.788 26.044 0 15.24 9.026 25.45 22.49 25.45 9.915 0 17.61-5.327 20.718-14.353l-6.953-1.48zM81.091 51.05c.442-4.736 1.33-7.104 3.403-9.768 2.811-3.255 6.362-5.178 10.653-5.178 7.843 0 12.578 5.623 12.875 14.946H81.091zm70.583 24.267c-2.664.444-4.144.592-5.921.592-5.178 0-7.843-2.516-7.843-7.696v-49.57l-7.546.296V67.03c0 9.914 4.736 14.945 14.058 14.945 2.22 0 3.847-.147 7.252-.591v-6.067zM0 73.837c0-4.291 3.404-7.696 7.694-7.696 4.291 0 7.695 3.405 7.695 7.696 0 4.29-3.404 7.695-7.695 7.695-4.29 0-7.694-3.404-7.694-7.695zm60.67 7.99V51.495c0-6.956-.593-10.655-1.628-13.022-2.663-5.475-7.99-8.879-14.353-8.879-6.659 0-10.654 2.516-15.685 10.359v-9.027h-6.955v50.903h7.546V52.971c0-9.618 5.77-16.868 13.761-16.868 6.51 0 10.062 4.291 10.062 12.282v33.441h7.251z" clip-rule="evenodd"/>
    <path fill="#0C0E0F" fill-rule="evenodd" d="M94.851 30.333h55.193v5.771H94.851v-5.771zM59.93 76.057h35.218v5.623H59.928v-5.623zM20.42 21.01V.442h-3.847l-6.066 16.425L4.29.442H.59v20.57h2.073V2.957L9.47 21.011h1.776l6.659-18.053v18.053h2.515zm5.033 0h2.367V5.771h-2.367v15.24zm0-18.053h2.515V.442h-2.515v2.516zM41.58 15.684c-.444 2.516-1.776 3.847-3.7 3.847-2.515 0-3.995-2.367-3.995-6.215 0-3.699 1.628-6.066 4.144-6.066 1.924 0 3.255 1.331 3.55 3.847l2.22-.444c-.591-3.404-2.663-5.328-5.77-5.328-3.995 0-6.659 3.256-6.659 7.991 0 4.883 2.516 7.99 6.51 7.99 1.629 0 2.96-.443 4.145-1.627.888-.888 1.331-1.776 1.775-3.7l-2.22-.295zm7.843 5.327v-8.138c.148-3.107 2.367-5.475 5.18-5.18V5.327h-.889c-1.036 0-2.22.593-2.96 1.332-.443.74-.74 1.184-1.479 2.664v-3.55h-2.072v15.24h2.22zm13.17-15.686c-2.22 0-3.996.888-5.328 2.664-1.035 1.332-1.627 3.108-1.627 5.327 0 2.22.444 3.995 1.48 5.475 1.183 1.776 2.811 2.516 5.179 2.516 4.144 0 6.955-3.255 6.955-7.843-.001-4.735-2.664-8.139-6.66-8.139zm-.149 1.925c1.184 0 2.368.739 3.108 1.627.74 1.036 1.184 2.516 1.184 4.44 0 3.846-1.627 6.214-4.292 6.214-2.663 0-4.291-2.367-4.291-6.215 0-1.776.444-3.403 1.035-4.291.741-1.036 2.072-1.775 3.256-1.775zm8.435 9.765c.296 1.332.74 2.072 1.628 2.664 1.183 1.184 2.959 1.628 5.179 1.628 3.699 0 6.215-1.776 6.215-4.587 0-2.516-1.48-3.995-4.588-4.44l-2.96-.592c-1.775-.296-2.515-1.035-2.515-2.071 0-1.48 1.332-2.367 3.404-2.367 1.775 0 3.107.739 3.847 2.516l2.22-.592c-.889-2.516-2.96-3.848-6.067-3.848-3.552 0-5.771 1.776-5.771 4.44 0 2.22 1.48 3.847 4.143 4.29l3.255.593c1.627.296 2.516 1.184 2.516 2.367 0 1.48-1.48 2.516-3.552 2.516-1.48 0-2.81-.444-3.699-1.183-.444-.444-.74-.889-1.035-1.776l-2.22.442zm22.345-11.69c-2.22 0-3.996.888-5.476 2.664-1.035 1.332-1.627 3.108-1.627 5.327 0 2.22.592 3.995 1.48 5.475 1.331 1.776 2.959 2.516 5.18 2.516 4.144 0 6.954-3.255 6.954-7.843 0-4.735-2.517-8.139-6.511-8.139zm-.297 1.925c1.332 0 2.516.739 3.255 1.627.741 1.036 1.036 2.516 1.036 4.44 0 3.846-1.628 6.214-4.291 6.214-2.664 0-4.144-2.367-4.144-6.215 0-1.776.297-3.403 1.035-4.291.593-1.036 1.926-1.775 3.109-1.775zm16.869-1.48h-3.699c0-1.627 0-1.775.297-2.367.295-1.036 1.331-1.48 2.811-1.48.592 0 .889 0 1.481.148V.148C109.65 0 109.058 0 108.466 0c-1.924 0-3.551.888-4.144 2.367-.297.888-.297 1.48-.444 3.404h-2.663v1.923h2.663v13.318h2.22V7.694h3.699V5.77h-.001zm10.803 13.613c-.741.148-1.333.148-1.777.148-1.627 0-2.516-.74-2.516-2.367v-9.47h3.405V5.77h-3.405V1.775l-2.219.148-.148 3.846h-2.663v1.924h2.663v9.175c0 2.959 1.48 4.587 4.439 4.587.591 0 1.184-.148 2.22-.148v-1.924h.001zm32.11 14.058v-2.812h.886v-.296h-2.218v.296h.888v2.811h.444zm4.291 0v-3.108h-.741l-.887 2.516-.888-2.516h-.591v3.108h.443v-2.664l1.036 2.663h.148l1.036-2.663v2.663H157z" clip-rule="evenodd"/>
</svg>
