<svg xmlns="http://www.w3.org/2000/svg" width="42" height="71" fill="none"><path fill="#2083D2" d="M36.067 69.99H5.495a4.484 4.484 0 01-4.485-4.485v-2.11h39.547v2.11a4.5 4.5 0 01-1.316 3.173 4.473 4.473 0 01-3.174 1.311z"/><path fill="#fff" d="M40.552 9.735H1.01v53.661h39.542V9.735z"/><g clip-path="url(#prefix__clip0)"><path fill="#004279" d="M30.312 48.534H11.113c-.606 0-1.01-.404-1.01-1.01 0-.505.404-1.01 1.01-1.01h19.199c.505 0 1.01.404 1.01 1.01s-.404 1.01-1.01 1.01zm0 4.042H11.113c-.606 0-1.01-.404-1.01-1.01 0-.505.404-1.01 1.01-1.01h19.199c.505 0 1.01.404 1.01 1.01s-.404 1.01-1.01 1.01zm0 4.042H11.113c-.505 0-1.01-.404-1.01-1.01 0-.506.404-1.01 1.01-1.01h19.199c.505 0 1.01.403 1.01 1.01 0 .606-.404 1.01-1.01 1.01z"/></g><g clip-path="url(#prefix__clip1)"><path fill="#004279" d="M10.103 28.426c1.92 0 2.223-1.111 2.223-2.02 0-.809-.101-1.516-.202-2.325-.101-.707-.202-1.515-.202-2.223 0-2.526 1.617-3.637 4.042-3.637h.606v1.515h-.606c-1.617 0-2.223.91-2.223 2.325 0 .606.1 1.313.202 1.92.202.808.202 1.414.202 2.121 0 1.718-.707 2.628-2.021 2.93v.102c1.212.303 2.02 1.212 2.02 3.031 0 .707-.1 1.415-.201 2.122-.101.707-.202 1.314-.202 2.02 0 1.517.606 2.426 2.223 2.426h.505v1.516h-.607c-2.323 0-4.041-1.01-4.041-3.739 0-.707.1-1.516.202-2.223.1-.707.202-1.516.202-2.223 0-.808-.303-2.02-2.223-2.02v-1.618h.101zm21.724 1.415c-1.92 0-2.223 1.213-2.223 2.02 0 .708.101 1.517.202 2.224.101.707.202 1.516.202 2.223 0 2.83-1.718 3.739-4.042 3.739h-.606V38.53h.505c1.516 0 2.223-.808 2.223-2.425 0-.708-.1-1.314-.202-2.021-.1-.707-.202-1.314-.202-2.122 0-1.718.707-2.728 2.021-3.031v-.101c-1.213-.303-2.02-1.213-2.02-2.93 0-.708.1-1.415.201-2.123.101-.707.202-1.313.202-1.92 0-1.515-.505-2.324-2.223-2.324h-.505V18.22h.606c2.324 0 4.042 1.111 4.042 3.637 0 .809-.1 1.516-.202 2.325-.101.808-.202 1.515-.202 2.323 0 1.011.303 2.021 2.223 2.021v1.314z"/></g><path fill="#2083D2" d="M35.304 1.01H6.717a5.705 5.705 0 00-4.036 1.673 5.705 5.705 0 00-1.673 4.036v3.017h40.005V6.719a5.709 5.709 0 00-5.709-5.708z"/><path stroke="#004279" stroke-linecap="round" stroke-linejoin="round" stroke-miterlimit="10" stroke-width="2" d="M35.706 69.99H5.861a4.85 4.85 0 01-4.849-4.849V5.86a4.85 4.85 0 014.849-4.849h29.846a4.852 4.852 0 014.852 4.849v59.28a4.853 4.853 0 01-4.853 4.849v0z"/><path stroke="#004279" stroke-linecap="round" stroke-linejoin="round" stroke-miterlimit="10" stroke-width="2" d="M40.552 9.735H1.01v53.661h39.542V9.735z"/><path fill="#fff" d="M20.781 68.066a1.479 1.479 0 100-2.957 1.479 1.479 0 000 2.957zm6.607-62.01c.462 0 .837-.337.837-.753s-.375-.753-.837-.753c-.463 0-.838.337-.838.753s.375.753.838.753z"/><path stroke="#fff" stroke-linecap="round" stroke-linejoin="round" stroke-miterlimit="10" stroke-width=".7" d="M13.34 5.304h8.53"/><defs><clipPath id="prefix__clip0"><path fill="#fff" d="M10.103 46.514h21.22v10.104h-21.22z"/></clipPath><clipPath id="prefix__clip1"><path fill="#fff" d="M10.103 18.221h21.725v21.927H10.103z"/></clipPath></defs></svg>