<svg xmlns="http://www.w3.org/2000/svg" width="219" height="56" fill="none" viewBox="0 0 219 56">
    <path fill="#F98012" d="M51.527 54.91V36.05c0-3.943-1.66-5.914-4.982-5.916-3.32 0-4.985 1.97-4.992 5.915V54.91H31.74V36.05c0-3.943-1.636-5.914-4.906-5.916-3.327 0-4.988 1.972-4.982 5.915V54.91H12.04V34.936c0-4.115 1.459-7.23 4.377-9.344 2.57-1.887 6.042-2.83 10.42-2.83 4.437 0 7.706 1.114 9.806 3.343 1.81-2.23 5.109-3.344 9.896-3.344 4.377 0 7.85.944 10.416 2.831 2.918 2.113 4.377 5.228 4.379 9.344V54.91h-9.806zM171.715 54.823V.942h9.814v53.881h-9.814zM159.207 54.823V51.65c-.877 1.143-2.366 2.058-4.468 2.746-1.717.6-3.524.92-5.347.942-4.673 0-8.426-1.573-11.259-4.72-2.832-3.146-4.249-7.037-4.25-11.672 0-4.573 1.38-8.415 4.163-11.499 2.464-2.726 6.468-4.632 11.083-4.632 5.199 0 8.234 1.916 10.078 4.116V.942h9.55v53.881h-9.55zm0-17.93c0-1.717-.831-3.362-2.491-4.936-1.661-1.574-3.369-2.36-5.125-2.36-2.509 0-4.495 1-5.956 3.003-1.287 1.777-1.93 3.95-1.929 6.52 0 2.519.643 4.664 1.929 6.437 1.459 2.061 3.444 3.09 5.956 3.088 1.52 0 3.17-.7 4.952-2.102s2.671-2.846 2.669-4.331l-.005-5.32zM115.397 55.68c-4.967 0-9.07-1.544-12.311-4.632-3.24-3.089-4.864-7.064-4.871-11.927 0-4.859 1.621-8.834 4.864-11.926 3.243-3.092 7.347-4.636 12.311-4.633 4.964 0 9.082 1.545 12.355 4.633 3.272 3.088 4.908 7.064 4.907 11.926 0 4.864-1.636 8.84-4.907 11.927-3.272 3.087-7.388 4.631-12.348 4.632zm0-25.396c-2.365 0-4.183.877-5.453 2.63-1.271 1.755-1.906 3.838-1.906 6.252 0 2.413.593 4.454 1.779 6.12 1.36 1.898 3.222 2.846 5.587 2.844 2.365-.003 4.227-.95 5.585-2.844 1.241-1.665 1.861-3.705 1.861-6.12s-.593-4.455-1.779-6.12c-1.36-1.843-3.251-2.763-5.674-2.762zM79.91 55.68c-4.966 0-9.07-1.544-12.313-4.632-3.243-3.089-4.864-7.064-4.863-11.927 0-4.859 1.621-8.834 4.863-11.926 3.242-3.092 7.346-4.636 12.312-4.633 4.962 0 9.08 1.545 12.355 4.633 3.275 3.088 4.91 7.064 4.906 11.926 0 4.864-1.636 8.84-4.906 11.927-3.27 3.087-7.388 4.631-12.355 4.632zm0-25.396c-2.366 0-4.184.877-5.456 2.63-1.271 1.755-1.907 3.838-1.905 6.252 0 2.413.593 4.454 1.779 6.12 1.36 1.898 3.222 2.846 5.588 2.844 2.367-.003 4.228-.95 5.585-2.844 1.239-1.665 1.858-3.705 1.858-6.12s-.593-4.455-1.78-6.12c-1.356-1.843-3.246-2.763-5.67-2.762zM193.148 42.039c.21 2.288 3.247 7.208 8.24 7.208 4.859 0 7.157-2.748 7.271-3.861l10.339-.087c-1.128 3.378-5.711 10.554-17.792 10.554-5.024 0-9.622-1.531-12.924-4.59-3.302-3.06-4.95-7.048-4.95-11.97 0-5.09 1.65-9.137 4.95-12.14 3.3-3.002 7.579-4.503 12.839-4.503 5.723 0 10.191 1.858 13.404 5.575 2.981 3.43 4.471 8.034 4.47 13.812l-25.847.002zm16.036-5.924c-.409-2.06-1.286-3.744-2.628-5.062-1.52-1.429-3.273-2.144-5.257-2.145-2.046 0-3.756.686-5.128 2.06-1.372 1.372-2.292 3.088-2.758 5.147h15.771z"/>
    <path fill="#333" d="M31.09 21.308l9.74-6.969-.125-.425C23.13 16.024 15.138 17.52 0 26.111l.14.39 1.203.013c-.11 1.186-.302 4.119-.057 8.528-1.68 4.76-.042 7.993 1.495 11.511.244-3.659.219-7.666-.929-11.654-.24-4.38-.043-7.26.066-8.38l10.035.094c-.027 1.924.072 3.848.297 5.76 8.967 3.086 17.986-.01 22.774-7.617-1.329-1.458-3.934-3.448-3.934-3.448z"/>
</svg>
