<svg xmlns="http://www.w3.org/2000/svg" width="133" height="108" fill="none" viewBox="0 0 133 108">
    <g clip-path="url(#prefix__clip0)">
        <path fill="url(#prefix__paint0_linear)" d="M90.166 34.389L75.48 39.206 62.703 44.87l-3.575.948c-.91.87-1.865 1.751-2.897 2.643-1.132.981-2.187 1.874-2.997 2.52-.9.714-2.232 2.052-2.909 2.9-1.01 1.27-1.81 2.62-2.153 3.657-.61 1.873-.311 3.769.866 5.52 1.51 2.23 4.518 4.504 8.025 6.054 1.788.792 4.796 1.806 7.06 2.375 3.763.96 11.046 1.996 15.053 2.152.81.034 1.898.034 1.942 0 .09-.056.711-1.249 1.433-2.732 2.464-5.05 4.24-9.79 5.206-13.837.577-2.453 1.032-5.72 1.332-9.59.078-1.081.11-4.705.044-5.932-.1-2.007-.277-3.635-.555-5.23-.044-.234-.055-.446-.033-.457.044-.033.177-.078 1.987-.602l-.366-.87zm-3.353 1.974c.134 0 .489 3.423.578 5.586.022.457.01.759-.012.759-.088 0-1.876-1.06-3.152-1.862-1.11-.703-3.22-2.108-3.552-2.376-.111-.078-.1-.089.81-.401 1.543-.524 5.206-1.706 5.328-1.706zm-7.481 2.475c.1 0 .355.145.965.524 2.287 1.439 5.395 3.178 6.727 3.758.41.178.455.111-.488.758-2.02 1.383-4.54 2.743-7.627 4.115-.543.245-.999.435-1.01.435-.022 0 .045-.279.133-.613.744-2.777 1.166-5.587 1.189-7.84.01-1.115.01-1.115.11-1.148-.022.011-.01.011 0 .011zm-1.543.591c.066.067.022 2.565-.067 3.245-.2 1.628-.51 3.144-1.021 4.85-.122.413-.234.759-.256.781-.044.056-1.565-1.438-2.064-2.018-.866-1.004-1.543-2.007-2.043-2.989-.255-.501-.655-1.483-.622-1.516.178-.123 6.028-2.397 6.073-2.353zm-7.26 2.866c.01 0 .022 0 .033.01.022.023.1.202.166.402.356.97 1.155 2.398 1.843 3.312.755 1.004 1.743 2.074 2.564 2.777.267.223.51.434.544.468.067.067.09.056-1.72.747-2.098.803-4.385 1.606-7.005 2.453-.626.203-1.251.407-1.876.613-.1.034-.066-.022.222-.479 1.299-2.04 3.275-6.044 4.385-8.876.189-.49.377-.981.41-1.093.045-.156.1-.212.245-.29.078-.022.155-.044.188-.044zm-2.22.925c.033.023-.533 1.216-1.088 2.309-1.077 2.107-2.254 4.181-3.83 6.701-.267.435-.522.836-.555.881-.056.078-.078.056-.255-.29-.378-.747-.689-1.706-.855-2.587-.167-.87-.133-2.386.055-3.323.145-.691.133-.68.467-.847 1.42-.725 6.016-2.888 6.06-2.844zm19.148.781v.468c0 2.487-.266 5.899-.655 8.386-.066.434-.122.791-.133.802 0 0-.322-.089-.7-.2-1.664-.525-3.474-1.294-5.106-2.197-1.077-.591-2.642-1.561-2.597-1.606.01-.01.477-.256 1.02-.546 2.177-1.137 4.264-2.364 6.073-3.58.677-.457 1.698-1.192 1.92-1.393l.178-.134zm-27.53 3.3c.045 0 .034.09-.033.491-.044.29-.1.825-.122 1.193-.089 1.628.178 2.832.977 4.483.222.457.4.836.388.847-.077.067-7.426 2.23-9.735 2.866-.688.19-1.288.357-1.332.368-.078.022-.089.01-.056-.179.256-1.639 1.499-3.78 3.23-5.586 1.155-1.204 2.077-1.907 3.653-2.81 1.132-.647 2.875-1.617 3.008-1.661 0-.012.011-.012.022-.012zm17.318 3.111c.01-.01.277.134.599.324 2.376 1.383 5.684 2.665 8.503 3.323l.255.056-.355.2c-1.476.825-6.327 2.855-11.29 4.717-.72.267-1.431.535-1.565.59-.133.056-.255.09-.255.079 0-.011.2-.402.455-.881 1.388-2.61 2.787-5.787 3.497-7.995.089-.212.144-.401.156-.413zm-1.766.58c.012.012-.077.246-.188.513-.966 2.353-2.231 4.918-3.852 7.794-.41.736-.755 1.328-.766 1.328-.011 0-.344-.201-.744-.447-2.353-1.45-4.44-3.233-5.805-4.962l-.2-.245 1.01-.279c3.619-.992 6.693-2.063 9.746-3.378.433-.179.788-.324.8-.324zm10.968 3.847s.011.011 0 0c.011.257-.555 2.554-1.021 4.215-.389 1.394-.722 2.487-1.332 4.416-.267.847-.5 1.55-.511 1.55-.011 0-.078-.011-.144-.034-3.297-.602-6.25-1.438-9.025-2.553-.777-.313-1.887-.814-1.954-.87-.022-.023.644-.335 1.488-.703 5.05-2.219 10.29-4.739 12.088-5.82.211-.134.378-.2.411-.2zm-25.32.87c.022.022-1.388 2.063-3.364 4.84-.688.97-1.488 2.107-1.787 2.53-.3.424-.755 1.093-1.01 1.495l-.467.725-.5-.424c-.588-.49-1.609-1.539-2.064-2.119-.955-1.193-1.599-2.453-1.854-3.601-.122-.536-.122-.803-.011-.837.166-.044 3.13-.747 5.905-1.394 1.544-.356 3.33-.78 3.974-.936.644-.157 1.166-.279 1.177-.279zm1.42.546l.355.402c1.599 1.795 3.23 3.122 5.207 4.282.355.2.621.379.599.39-.078.056-6.86 2.475-10.002 3.568-1.765.624-3.219 1.126-3.23 1.126-.01 0-.11-.067-.222-.145l-.2-.145.322-.468c1.044-1.517 2.354-3.178 5.206-6.635l1.965-2.375zm8.859 6.367c.01-.01.499.167 1.098.39 1.444.547 2.587.893 4.119 1.283 1.887.48 4.618.948 6.227 1.082.245.022.378.044.334.078-.078.044-1.71.59-2.909.97-1.91.602-7.737 2.33-12.488 3.702-.877.256-1.632.468-1.677.48-.11.022-.477-.079-.477-.124 0-.022.267-.367.589-.746 1.598-1.918 3.186-4.06 4.507-6.089.366-.557.677-1.015.677-1.026zm-1.954.056c.01.011-.777 1.282-2.154 3.468-.588.925-1.243 1.974-1.476 2.341-.222.357-.555.915-.744 1.227l-.322.569-.166-.045c-.4-.111-3.208-1.104-3.952-1.405-.922-.368-1.876-.814-2.587-1.193-.888-.48-1.998-1.193-1.909-1.215.022-.011 1.543-.424 3.374-.926 4.863-1.327 7.56-2.096 9.325-2.654.322-.1.6-.178.61-.167zm13.82 3.256h.011c.045.112-1.754 5.13-2.409 6.713-.144.356-.2.446-.277.434-.189-.01-2.797-.379-4.385-.613-2.764-.424-7.404-1.238-8.57-1.505l-.266-.056 1.654-.38c3.552-.802 5.262-1.237 6.993-1.772 2.187-.669 4.352-1.505 6.539-2.531.344-.156.633-.279.71-.29z"/>
        <path fill="url(#prefix__paint1_linear)" d="M75.026 0c-.245-.033-4.185 1.395-6.727 2.431-3.43 1.406-6.095 2.744-7.738 3.903-.61.435-1.376 1.204-1.498 1.505-.045.112-.067.246-.067.38l1.488 1.416 3.54 1.137 8.426 1.517 9.636 1.661.1-.836c-.034 0-.056-.011-.089-.011l-1.266-.201-.255-.457c-1.31-2.32-2.753-5.196-3.597-7.137-.654-1.505-1.276-3.244-1.62-4.493-.19-.759-.211-.803-.333-.814zm-.178.57h.011c.011.01.056.323.1.69.188 1.562.533 3.067 1.077 4.695.41 1.227.41 1.16-.067 1.015-1.132-.312-6.205-1.193-9.88-1.706-.588-.078-1.087-.156-1.087-.167-.045-.045 2.653-1.461 3.84-2.019C70.363 2.376 74.537.625 74.848.57zM64.147 5.564l.433.145c2.353.803 8.27 1.94 11.533 2.208.367.033.677.067.689.067.01.01-.3.178-.7.367-1.576.792-3.308 1.762-4.507 2.51-.355.222-.677.4-.721.4-.045 0-.278-.044-.522-.077l-.444-.067-1.11-1.093c-1.954-1.907-3.486-3.379-4.074-3.936l-.577-.524zm-.444.345l1.565 1.963c.855 1.082 1.72 2.14 1.91 2.375.188.234.344.424.332.435-.044.033-2.264-.402-3.44-.669-1.21-.279-1.71-.413-2.454-.647l-.61-.2V9.01c.01-.747.954-1.862 2.553-3l.144-.1zM77 8.587c.045 0 .1.1.233.401.378.836 1.555 3.089 1.843 3.524.09.145.244.156-1.32-.1-3.764-.614-4.974-.815-4.974-.837 0-.011.111-.09.255-.167 1.166-.647 2.343-1.472 3.386-2.353.256-.212.489-.413.533-.446.011-.022.033-.034.044-.022z"/>
        <path fill="url(#prefix__paint2_radial)" d="M59.14 7.683s-.245.39-.012.97c.145.357.566.792 1.044 1.238 0 0 4.94 4.84 5.539 5.531 2.73 3.167 3.918 6.289 4.03 10.593.066 2.765-.456 5.196-1.754 8.017-2.31 5.063-7.183 10.65-14.698 16.849l1.1-.368c.71-.535 1.675-1.104 3.94-2.353 5.228-2.877 11.112-5.52 18.327-8.24 10.39-3.925 27.474-8.52 37.199-10.013l1.01-.157-.156-.245c-.888-1.383-1.498-2.241-2.231-3.155-2.131-2.654-4.718-4.806-7.881-6.59-4.352-2.442-9.98-4.349-17.107-5.765-1.343-.268-4.296-.78-6.693-1.149-5.084-.791-8.37-1.338-11.99-1.962-1.298-.223-3.24-.558-4.528-.836-.666-.145-1.943-.446-2.942-.792-.799-.312-1.954-.625-2.198-1.573zm2.863 2.788c.011-.01.189.056.422.134.422.145.966.312 1.61.49.487.135.975.265 1.465.39.666.168 1.221.324 1.232.324.078.078 1.2 3.68 1.577 5.062.144.525.255.97.244.97-.012.012-.133-.178-.278-.434-1.299-2.297-3.352-4.628-5.728-6.501-.31-.223-.544-.424-.544-.435zm5.462 1.517c.055 0 .3.033.6.1 1.886.424 5.272 1.07 7.437 1.439.366.055.655.122.655.144 0 .023-.134.1-.3.19-.366.19-1.843 1.07-2.331 1.405-1.232.825-2.342 1.717-3.142 2.52-.322.323-.6.59-.6.59s-.066-.189-.121-.423c-.4-1.55-1.232-3.847-1.987-5.464-.122-.256-.222-.49-.222-.513 0 .023 0 .012.01.012zm9.613 1.84c.067.022.178.4.4 1.237.41 1.617.6 3.423.532 5.107-.022.468-.044.903-.066.96l-.033.11-.578-.189c-1.187-.379-3.119-.948-4.773-1.416-.944-.256-1.71-.49-1.71-.513 0-.067 1.377-1.45 1.966-1.974 1.12-.992 4.162-3.356 4.262-3.322zm.766.11c.033-.032 4.596.76 6.672 1.16 1.543.302 3.785.77 3.918.826.067.022-.166.156-.91.49-2.93 1.327-5.107 2.52-7.271 3.97-.566.38-1.044.691-1.055.691-.01 0-.022-.323-.022-.713 0-2.119-.422-4.26-1.199-6.066-.078-.179-.144-.346-.133-.357zm11.8 2.343c.033.033-.111.936-.244 1.472-.4 1.661-1.477 4.125-2.797 6.445-.234.412-.444.747-.467.758-.022.01-.322-.156-.666-.357-1.287-.758-2.753-1.472-4.351-2.141-.444-.19-.833-.346-.844-.368-.078-.067 3.497-2.442 5.384-3.58 1.498-.914 3.94-2.274 3.985-2.23zm.844.133c.1 0 2.12.558 3.174.87 2.61.78 5.606 1.885 7.56 2.777l.81.368-.566.134c-4.773 1.103-8.858 2.375-12.799 3.98-.322.134-.61.246-.632.246-.023 0 .088-.257.233-.57 1.187-2.53 1.953-5.173 2.142-7.425.011-.212.044-.38.078-.38zm-20.115 4.64c.033-.034 1.576.334 2.41.568 1.264.357 3.95 1.26 3.95 1.327 0 .01-.299.267-.654.58-1.454 1.215-2.853 2.497-4.53 4.125-.499.48-.92.87-.943.87-.022 0-.033-.067-.022-.156.255-1.874.2-4.282-.155-6.724-.034-.312-.067-.58-.056-.59zm32.425.033c.022.022-.71 1.181-1.176 1.84-.666.958-1.643 2.23-3.852 5.017-1.166 1.472-2.476 3.134-2.909 3.691-.444.558-.81 1.026-.821 1.026-.011 0-.155-.2-.31-.446-1.244-1.874-2.732-3.513-4.497-4.985-.333-.278-.699-.58-.821-.669-.122-.089-.222-.178-.222-.19 0-.032 1.887-.847 3.319-1.426 2.509-1.026 5.927-2.253 8.492-3.045 1.343-.423 2.775-.836 2.797-.813zm.855.223c.044-.012.311.122.633.312 2.697 1.55 5.339 3.546 7.426 5.597.589.58 2.043 2.097 2.02 2.108 0 0-.51.044-1.109.089-4.674.357-10.657 1.35-16.407 2.743-.389.089-.733.167-.755.167-.022 0 .41-.435.955-.959 3.374-3.267 4.917-5.33 6.738-9.01.255-.546.477-1.014.499-1.047-.011 0-.011 0 0 0zm-24.721 2.542c.155.033 1.598.714 2.686 1.26 1 .502 2.498 1.305 2.576 1.371.01.011-.522.29-1.177.614-2.087 1.048-3.874 2.04-5.74 3.177-.532.324-.976.592-.987.592-.044 0-.033-.045.266-.591 1-1.83 1.799-4.015 2.254-6.144.044-.168.089-.279.122-.279zm-1.443.267c.033.034-.344 1.405-.577 2.152-.456 1.417-1.222 3.19-1.965 4.528-.178.312-.444.769-.589 1.025l-.277.446-.622-.602c-.721-.702-1.31-1.137-2.064-1.527-.3-.156-.533-.29-.533-.312 0-.09 1.898-1.818 3.352-3.067 1.043-.903 3.241-2.676 3.275-2.643zm8.825 3.647l.544.357c1.243.814 2.708 1.895 3.83 2.843.632.524 1.853 1.628 2.098 1.895l.133.146-.9.256c-5.084 1.416-9.013 2.676-13.598 4.371-.51.19-.943.346-.977.346-.066 0-.122.055 1.022-1.004 2.93-2.71 5.528-5.698 7.46-8.608l.388-.602zm-2.32.58c.022.022-1.499 2.174-2.41 3.39-1.087 1.449-3.019 3.88-4.35 5.463-.555.658-1.033 1.204-1.055 1.215-.033.011-.044-.156-.044-.412 0-1.35-.345-2.788-.944-4.014-.255-.513-.3-.636-.244-.692.21-.19 3.441-2.04 5.483-3.144 1.377-.736 3.53-1.829 3.564-1.806zm-14.032 3.456c.034 0 .29.134.578.29.71.39 1.343.825 1.909 1.294.022.022-.266.256-.644.535-1.054.758-2.653 1.974-3.585 2.72-.977.781-1.01.803-.9.636.733-1.126 1.1-1.762 1.488-2.576.344-.724.688-1.583.932-2.33.09-.323.2-.569.222-.569zm3.742 2.944c.055-.011.122.09.421.535.633.948 1.121 2.22 1.244 3.245l.022.223-1.52.591c-2.72 1.06-5.23 2.108-6.928 2.888-.477.223-1.31.624-1.854.892-.544.279-.988.49-.988.48 0-.011.344-.268.766-.58 3.32-2.42 6.194-5.074 8.348-7.728.233-.279.444-.535.466-.546h.023zm-1.721.424c.044.044-1.221 1.483-2.087 2.363-2.142 2.197-4.263 3.915-6.894 5.587l-.666.424c-.077.045.022-.067 1.177-1.327.733-.792 1.288-1.46 1.92-2.286.422-.546.5-.624 1.11-1.06 1.632-1.181 5.395-3.746 5.44-3.701z"/>
        <path fill="#231F1F" d="M23.916 81.34c-.205 0-.41.02-.613.02-4.136.222-6.926 2.05-8.557 5.62-1.395 3.23-1.242 7.451.016 10.7 1.463 3.175 3.828 4.85 7.774 5.483.835.138 1.395.598 3.012 2.495l1.99 2.342h3.61l-2.4-2.43c-1.327-1.333-2.4-2.493-2.4-2.595 0-.102.508-.325 1.122-.513 2.025-.616 3.707-2.187 4.883-4.596.952-1.934 1.089-2.532 1.225-4.938.357-7.163-3.402-11.64-9.663-11.59v.003zm3.164 18.731c-1.756.854-4.306 1.025-5.97.412-1.72-.635-3.387-2.43-4.136-4.463-.833-2.222-.714-6.321.238-8.167 1.532-2.94 3.557-4.292 6.516-4.292 4.39 0 6.887 2.7 7.213 7.776.257 4.237-1.155 7.415-3.86 8.732l-.001.002zm62.347-12.612c-1.514 0-2.673.615-3.453 1.828l-.613.96v-2.496h-2.62v14.972h2.619v-4.786c0-4.376.054-4.887.663-6.085.839-1.642 2.282-2.461 3.678-2.07l.936.275v-2.594h-1.21v-.004zm-15.392-.138c-.514 0-1.058.07-1.6.189-3.506.92-5.482 4.291-5.361 7.76 0 2.904.561 4.356 1.957 5.879 2.858 2.355 5.442 2.544 8.93 1.28.596-.255 1.243-.549 1.243-.549v-2.355l-1.242.646c-2.823 1.235-4.95 1.235-6.653-.22-1.087-1.11-1.565-2.443-1.785-3.964h10.564V93.97c0-4.116-2.466-6.714-6.056-6.648h.003zm-4.273 6.565s.39-2.567 1.838-3.574c.697-.494 1.496-.733 2.278-.733.785 0 1.567.255 2.213.75 1.327 1.026 1.549 3.538 1.549 3.538h-7.878v.02zm-63.165-2.7c-2.84-1.729-4.1-2.975-3.947-4.445.441-4.066 5.444-3.504 8.214-1.965l.02-2.736s-1.532-.666-3.727-.701c-3.367-.051-5.544 1.058-6.565 3.315-1.498 3.332-.171 5.844 4.624 8.647 2.692 1.573 3.882 2.939 3.882 4.428 0 3.077-3.693 4.151-7.503 2.22-.784-.391-1.447-.719-1.482-.719-.137.873-.067 2.96-.067 2.96s1.171.493 2.927.834c4.354.872 8.316-1.18 8.69-4.51.327-3.129-.8-4.769-5.066-7.33v.002zm106.019-3.9c-.511 0-1.054.07-1.62.19-3.501.921-5.474 4.292-5.339 7.76 0 2.901.56 4.34 1.955 5.86 2.858 2.358 5.443 2.548 8.949 1.282.593-.255 1.238-.545 1.238-.545v-2.36l-1.24.651c-2.829 1.231-4.956 1.231-6.653-.223-1.093-1.11-1.567-2.426-1.787-3.965h10.547v-2.018c0-4.096-2.466-6.696-6.056-6.628l.006-.004zm-4.273 6.565s.394-2.563 1.84-3.59c.695-.496 1.494-.735 2.277-.735.78 0 1.566.255 2.212.752 1.327 1.025 1.549 3.555 1.549 3.555h-7.876l-.002.018zM60.319 91.22c-2.84-1.724-4.096-2.975-3.944-4.444.44-4.069 5.443-3.504 8.213-1.966l.02-2.736s-1.532-.666-3.727-.697c-3.367-.051-5.544 1.058-6.566 3.316-1.497 3.33-.152 5.843 4.627 8.646 2.689 1.571 3.879 2.92 3.879 4.409 0 3.077-3.691 4.168-7.502 2.22-.78-.392-1.443-.715-1.482-.715-.137.872-.066 2.959-.066 2.959s1.156.476 2.906.835c4.359.874 8.323-1.176 8.696-4.508.323-3.112-.8-4.752-5.053-7.315v-.004zm67.691-3.796c-1.513 0-2.686.618-3.453 1.83l-.612.957v-2.493h-2.62v14.968h2.618V97.9c0-4.374.052-4.888.663-6.083.839-1.64 2.283-2.461 3.678-2.067l.936.274v-2.6h-1.21zm-88.526 3.71v-9.536h-2.642v21.122h11.109v-2.495h-8.467v-9.091zm61.087 2.973l-2.177 5.69-2.094-5.722-2.126-6.341H91.47c1.752 4.99 3.658 10.065 5.58 14.986.832.019 1.667 0 2.5 0l2.941-7.416 2.994-7.568H102.9s-1.141 3.006-2.331 6.373l.002-.002zm-55-18.264c.425 0 .78-.137 1.073-.431.288-.29.44-.632.44-1.059 0-.427-.152-.784-.44-1.058-.293-.274-.63-.412-1.054-.412-.429 0-.784.138-1.073.428-.293.29-.425.647-.425 1.058 0 .431.136.788.425 1.058.273.275.628.412 1.054.412v.004zm-.937-2.43c.254-.255.562-.373.956-.373.37 0 .68.118.937.373.253.254.39.564.39.94s-.137.702-.39.957c-.258.254-.566.376-.937.376-.376 0-.683-.118-.936-.376-.254-.255-.39-.58-.39-.957 0-.376.117-.686.37-.94zm.63 1.078h.172c.121 0 .24.117.341.34l.205.463h.322l-.253-.514c-.104-.205-.205-.325-.324-.358.15-.036.269-.087.355-.189.085-.088.117-.207.117-.343 0-.156-.049-.274-.152-.36-.117-.098-.305-.15-.547-.15h-.542v1.914h.273v-.804h.033zm0-.89h.238c.172 0 .293.035.36.086.064.05.081.118.081.239 0 .221-.136.326-.39.326h-.292V73.6h.003zm-43.634.719c0-.666-.02-1.162-.035-1.454h.016c.068.345.152.602.22.772l2.536 5.69h.425l2.537-5.74c.068-.157.136-.393.22-.72h.02c-.051.568-.069 1.062-.069 1.456v5.023h.868v-7.467H7.28l-2.331 5.193c-.086.206-.205.514-.358.921h-.035c-.05-.201-.17-.51-.34-.885L1.939 71.86H.781v7.467h.835v-5.005l.014-.004zm8.64.014h.75v4.65h-.75v-4.65zm.375-1.705c.156 0 .289-.053.39-.157.104-.102.172-.235.172-.392 0-.153-.05-.29-.17-.392-.105-.104-.24-.157-.394-.157-.152 0-.288.053-.39.157-.103.102-.171.24-.171.392 0 .17.052.29.171.392.117.104.238.157.39.157h.002zm5.717 6.457v-.82c-.41.308-.851.462-1.308.462-.546 0-.989-.189-1.313-.55-.321-.356-.493-.852-.493-1.469 0-.647.172-1.16.527-1.552.341-.376.784-.565 1.326-.565.443 0 .868.138 1.26.412v-.872c-.356-.188-.764-.274-1.225-.274-.85 0-1.513.274-2.009.803-.492.53-.745 1.249-.745 2.117 0 .772.22 1.42.679 1.916.478.51 1.088.769 1.838.769.579-.017 1.053-.138 1.463-.377zm2.144-2.479c0-.613.136-1.11.39-1.45.238-.308.526-.463.868-.463.289 0 .493.053.643.173v-.89c-.116-.05-.286-.069-.507-.069-.306 0-.579.104-.819.294-.253.202-.456.51-.575.902h-.02V74.01h-.849v5.33h.851v-2.735h.018zm4.883 2.841c.8 0 1.443-.258 1.921-.772.476-.51.714-1.195.714-2.05 0-.871-.218-1.538-.663-2.034-.44-.495-1.053-.735-1.854-.735-.8 0-1.443.24-1.921.702-.511.51-.78 1.229-.78 2.152 0 .803.218 1.47.679 1.965.476.514 1.106.77 1.904.77v.002zm-1.21-4.342c.324-.343.75-.514 1.276-.514.546 0 .956.17 1.26.514.307.358.459.87.459 1.554 0 .65-.137 1.162-.425 1.505-.29.358-.714.549-1.276.549-.547 0-.97-.19-1.294-.55-.322-.36-.476-.854-.476-1.504-.033-.647.137-1.176.476-1.554zm7.57 3.878c.324-.29.495-.647.495-1.094 0-.391-.136-.717-.39-.974-.207-.205-.526-.391-.989-.58-.41-.172-.663-.325-.8-.444-.137-.138-.22-.308-.22-.55 0-.22.085-.391.253-.528.172-.137.39-.204.683-.204.459 0 .85.122 1.21.378v-.854c-.344-.172-.716-.255-1.142-.255-.546 0-1.006.151-1.346.443-.357.29-.526.666-.526 1.11 0 .391.116.717.339.956.187.203.507.411.952.597.425.188.714.359.868.496.152.137.22.308.22.51 0 .497-.339.754-1.002.754-.511 0-.97-.168-1.38-.51v.921c.37.224.816.326 1.307.326.63-.033 1.124-.188 1.464-.496l.004-.002zm4.05-5.127c-.8 0-1.444.24-1.922.702-.507.51-.78 1.229-.78 2.152 0 .803.22 1.47.679 1.966.478.513 1.106.77 1.906.77.82 0 1.444-.259 1.921-.773.478-.509.716-1.195.716-2.05 0-.871-.222-1.538-.663-2.034-.46-.495-1.073-.734-1.853-.734l-.004.001zm1.65 2.803c0 .65-.136 1.162-.425 1.505-.289.359-.714.549-1.276.549-.546 0-.97-.19-1.294-.55-.321-.36-.476-.854-.476-1.504 0-.686.17-1.215.512-1.572.321-.34.747-.513 1.276-.513.526 0 .95.172 1.256.513.273.376.425.888.425 1.572h.002zm2.299 2.667h.848v-4.615h1.243v-.717h-1.243v-.823c0-.749.289-1.125.886-1.125.2 0 .406.05.558.137v-.77c-.152-.069-.357-.084-.613-.084-.458 0-.833.137-1.14.427-.356.341-.545.784-.545 1.384v.874h-.898v.717h.898v4.598l.006-.003zm3.486-1.454c0 1.043.458 1.573 1.395 1.573.34 0 .595-.054.8-.176v-.733c-.156.118-.342.173-.547.173-.288 0-.491-.069-.61-.224-.121-.152-.19-.411-.19-.768V74.71h1.346v-.717h-1.345V72.42c-.293.102-.58.188-.851.274v1.298h-.917v.717h.917v3.161l.002.002zm91.303 9.826c-.289-.275-.631-.412-1.054-.412-.429 0-.784.137-1.073.431-.289.288-.425.647-.425 1.059 0 .427.136.784.423 1.058.289.274.644.412 1.073.412.423 0 .78-.138 1.073-.428.287-.294.439-.633.439-1.058-.016-.431-.17-.788-.458-1.062h.002zm-.137 2.018c-.254.255-.562.373-.936.373-.371 0-.679-.118-.937-.373-.253-.258-.39-.582-.39-.96 0-.373.117-.682.375-.94.253-.255.56-.373.952-.373.37 0 .679.118.936.372.254.26.39.569.39.94 0 .397-.117.703-.39.961zm-.765-.872c.152-.035.273-.104.357-.188.086-.088.118-.208.118-.345 0-.153-.049-.274-.153-.358-.117-.098-.306-.151-.546-.151h-.542v1.912h.273v-.803h.17c.117 0 .234.117.339.34l.203.461h.324l-.254-.513c-.087-.224-.189-.326-.292-.36l.003.005zm-.187-.172h-.293v-.647h.24c.17 0 .289.031.357.084.069.051.084.118.084.24 0 .22-.136.323-.39.323h.002zm-47.464-14.9h.238v-1.914h.63v-.24h-1.498v.24h.63v1.914zm1.444-1.438c0-.186 0-.34-.014-.425.016.101.051.17.067.221l.731 1.642h.117l.734-1.658c.02-.05.035-.117.068-.205-.016.17-.016.307-.016.411v1.45h.254V71.62h-.306l-.663 1.485c-.016.053-.069.157-.102.275h-.02c-.013-.07-.048-.138-.097-.255l-.663-1.505h-.344v2.155h.24v-1.438l.014-.002z"/>
    </g>
    <defs>
        <linearGradient id="prefix__paint0_linear" x1="58.912" x2="64.235" y1="66.377" y2="63.246" gradientUnits="userSpaceOnUse">
            <stop stop-color="#909CA9"/>
            <stop offset="1" stop-color="#EDEDEE"/>
        </linearGradient>
        <linearGradient id="prefix__paint1_linear" x1="59.035" x2="63.308" y1="6.954" y2="6.954" gradientUnits="userSpaceOnUse">
            <stop stop-color="#939FAB"/>
            <stop offset="1" stop-color="#DCDEE1"/>
        </linearGradient>
        <radialGradient id="prefix__paint2_radial" cx="0" cy="0" r="1" gradientTransform="rotate(-171.42 41.297 10.297) scale(5.50964 11.0693)" gradientUnits="userSpaceOnUse">
            <stop stop-color="#EE352C"/>
            <stop offset="1" stop-color="#A91D22"/>
        </radialGradient>
        <clipPath id="prefix__clip0">
            <path fill="#fff" d="M0 0H133V108H0z"/>
        </clipPath>
    </defs>
</svg>
