<svg width="418" height="362" fill="none" xmlns="http://www.w3.org/2000/svg"><path d="M0 288c0-8.837 7.163-16 16-16h43c8.837 0 16 7.163 16 16v43c0 8.837-7.163 16-16 16H16c-8.837 0-16-7.163-16-16v-43zM313 233c0-8.837 7.163-16 16-16h68c8.837 0 16 7.163 16 16v68c0 8.837-7.163 16-16 16h-68c-8.837 0-16-7.163-16-16v-68zM30 64c0-8.837 7.163-16 16-16h68c8.837 0 16 7.163 16 16v68c0 8.837-7.163 16-16 16H46c-8.837 0-16-7.163-16-16V64zM275 15c0-5.523 4.477-10 10-10h25c5.523 0 10 4.477 10 10v25c0 5.523-4.477 10-10 10h-25c-5.523 0-10-4.477-10-10V15zM350 90c0-5.523 4.477-10 10-10h43c5.523 0 10 4.477 10 10v43c0 5.523-4.477 10-10 10h-43c-5.523 0-10-4.477-10-10V90zM196.027 318a4 4 0 014-4h29a4 4 0 014 4v29a4 4 0 01-4 4h-29a4 4 0 01-4-4v-29z" fill="#DC400F"/><path d="M340.08 5.366l13.372 1.702-8.16 10.73-5.212-12.432zM75.08 49.366l13.372 1.702-8.16 10.73-5.212-12.432z" fill="#FF8F00"/><path d="M59.652 144.081l8.528 10.439-13.304 2.166 4.776-12.605zM403.652 272.081l8.528 10.439-13.304 2.166 4.776-12.605zM308.652 343.081l8.528 10.439-13.304 2.166 4.776-12.605z" fill="#FFF9C4"/><path d="M218.972 12.532l-9.654 9.407-3.32-13.064 12.974 3.657z" fill="#FFD037"/><path d="M110.652 345.081l8.528 10.439-13.304 2.166 4.776-12.605zM266.652 46.081l8.528 10.44-13.304 2.165 4.776-12.605zM111 111a4 4 0 11-8 0 4 4 0 018 0zM334 70a4 4 0 11-8 0 4 4 0 018 0zM406 121a4 4 0 11-8 0 4 4 0 018 0z" fill="#8CC440"/><path d="M178 51a4 4 0 11-8 0 4 4 0 018 0zM248 330a4 4 0 11-8 0 4 4 0 018 0zM86 192a4 4 0 11-8 0 4 4 0 018 0z" fill="#FF8F00"/><path d="M58.041 215.133c7.994 0 14.475-6.481 14.475-14.475s-6.48-14.474-14.475-14.474c-7.994 0-14.475 6.48-14.475 14.474s6.48 14.475 14.475 14.475z" fill="#FDD835"/><path d="M142.562 204.878h-17.363v-15.784l17.363 15.784z" fill="#3F3D56"/><path d="M144.59 204.363H57.246v120.671h87.344V204.363z" fill="#C82C14"/><path d="M76.237 212.824H65.96v21.653h10.276v-21.653zM92.131 212.824H81.856v21.653H92.13v-21.653zM74.881 243.512H64.606v21.652H74.88v-21.652zM92.131 243.512H81.856v21.652H92.13v-21.652zM74.881 271.906H64.606v21.653H74.88v-21.653zM91.745 271.52H81.469v21.652h10.276V271.52z" fill="#DC403C"/><path d="M106.678 303.43H96.402v21.652h10.276V303.43z" fill="#F05450"/><path d="M122.205 271.52H111.93v21.652h10.275V271.52zM139.452 271.523h-10.276v21.653h10.276v-21.653zM122.592 243.281h-10.276v21.653h10.276v-21.653zM139.842 243.281h-10.276v21.653h10.276v-21.653zM122.592 212.824h-10.276v21.653h10.276v-21.653zM139.842 212.82h-10.276v21.653h10.276V212.82z" fill="#DC403C"/><path d="M144.59 232.254H57.246v3.303h87.344v-3.303zM144.59 257.945H57.246v1.835h87.344v-1.835zM144.59 252.07H57.246v1.835h87.344v-1.835zM65.871 295.008v-14.68h-1.835v14.68h1.835zM76.148 295.008v-14.68h-1.834v14.68h1.834zM86.422 295.008v-14.68h-1.835v14.68h1.835zM96.7 295.008v-14.68h-1.836v14.68H96.7zM106.973 295.008v-14.68h-1.835v14.68h1.835zM117.25 295.008v-14.68h-1.835v14.68h1.835zM127.527 295.008v-14.68h-1.835v14.68h1.835zM137.801 295.008v-14.68h-1.835v14.68h1.835z" fill="#FA5E2D"/><path d="M66.055 267.117v-14.679H64.22v14.679h1.835zM76.332 267.117v-14.679h-1.835v14.679h1.835zM86.606 267.117v-14.679H84.77v14.679h1.835zM96.883 267.117v-14.679h-1.835v14.679h1.835zM107.156 267.117v-14.679h-1.835v14.679h1.835zM117.434 267.117v-14.679h-1.835v14.679h1.835zM127.711 267.117v-14.679h-1.835v14.679h1.835zM137.984 267.117v-14.679h-1.835v14.679h1.835zM66.055 234.457v-14.68H64.22v14.68h1.835zM76.332 234.453v-14.68h-1.835v14.68h1.835zM86.606 234.453v-14.68H84.77v14.68h1.835zM96.883 234.457v-14.68h-1.835v14.68h1.835zM107.156 234.453v-14.68h-1.835v14.68h1.835zM117.434 234.457v-14.68h-1.835v14.68h1.835zM127.711 234.453v-14.68h-1.835v14.68h1.835zM137.984 234.457v-14.68h-1.835v14.68h1.835z" fill="#FA5E2D"/><path d="M144.59 224.914H57.246v1.835h87.344v-1.835zM144.59 219.039H57.246v1.835h87.344v-1.835zM144.59 264.18H57.246v3.303h87.344v-3.303z" fill="#FA5E2D"/><path d="M148.609 203.004H53.227v4.922h95.382v-4.922z" fill="#3F3D56"/><path d="M76.255 308.112v-4.682h-5.618v4.682h5.618zM75.787 311.859h-5.15v4.682h5.618v-4.682h-.468zM85.622 303.43h-5.618v4.682h5.618v-4.682zM85.622 311.859h-5.618v4.682h5.618v-4.682zM122.079 308.112v-4.682h-5.618v4.682h5.618zM121.611 311.859h-5.15v4.682h5.618v-4.682h-.468zM131.447 303.43h-5.619v4.682h5.619v-4.682zM131.447 311.859h-5.619v4.682h5.619v-4.682z" fill="#F05450"/><path d="M144.59 292.07H57.246v3.303h87.344v-3.303zM144.59 286.203H57.246v1.835h87.344v-1.835zM144.59 280.328H57.246v1.835h87.344v-1.835z" fill="#FA5E2D"/><path d="M83.692 323.458c0-.102-.001-.204-.004-.305-.079-2.705-2.763-3.439-4.201-2.158a2.497 2.497 0 00-3.273 0c-1.445-1.261-4.075-.579-4.162 2.095-.003.102-.005.203-.005.305.004.563.039 1.125.103 1.683h11.44c.062-.538.096-1.078.102-1.62zM129.157 323.458c0-.102-.002-.204-.005-.305-.078-2.705-2.762-3.439-4.2-2.158a2.499 2.499 0 00-3.273 0c-1.445-1.261-4.075-.579-4.162 2.095a10.34 10.34 0 00-.005.305c.004.563.038 1.125.103 1.683h11.44c.062-.538.096-1.078.102-1.62z" fill="#8CC440"/><path d="M191.898 325.263h-1.769l.59-34.56h.589l.59 34.56z" fill="#E6E6E6"/><path d="M193.373 268.946l2.855-4.414a65.953 65.953 0 00-2.93-6.859l-1.846 1.492 1.462-2.26c-1.394-2.743-2.49-4.471-2.49-4.471s-5.728 9.025-7.641 18.582l3.665 5.663-4.057-3.277a26.744 26.744 0 00-.223 3.357c0 11.318 3.696 20.493 8.256 20.493 4.56 0 8.256-9.175 8.256-20.493 0-3.508-.794-7.179-1.889-10.575l-3.418 2.762zM137.936 336.277h-33.487v1.324h33.487v-1.324zM199 336.277h-33.668v1.324H199v-1.324zM77.096 336.277h-33.53v1.324h33.53v-1.324z" fill="#E6E6E6"/><path d="M198.862 325.051H3v.369h195.862v-.369zM199.51 358.803l3.943.002v-.626l-3.943-.002v.626z" fill="#3F3D56"/><path d="M171 358.318l.814.188 30.92.017.278-.648a6.534 6.534 0 00.48-3.536c-.133-.894-.466-1.783-1.224-2.169l-1.373-9.139-17.106-.031-6.618 5.338s-3.122-.056-4.819 2.056a4.956 4.956 0 00-1.036 2.729l-.067 1.099-.249 4.096z" fill="#1A237E"/><path d="M177.791 361.984a3.819 3.819 0 10-.002-7.638 3.819 3.819 0 00.002 7.638z" fill="#3F3D56"/><path d="M177.791 360.175a2.008 2.008 0 100-4.019 2.01 2.01 0 000 4.019z" fill="#CCC"/><path d="M196.631 361.996a3.819 3.819 0 10-.002-7.638 3.819 3.819 0 00.002 7.638z" fill="#3F3D56"/><path d="M196.631 360.183a2.01 2.01 0 10-.001-4.02 2.01 2.01 0 00.001 4.02z" fill="#CCC"/><path d="M179.801 347.714l9.236.004h1.127l1.904.002v-.139l.001-1.674.002-1.88h-1.267l-1.127-.001-1.997-.001h-1.128l-2.305-.002-4.446 3.691zM193.57 347.72l4.882.002.001-.958v-1.673l.001-1.061h-.714l-1.128-.001-3.04-.002-.002 3.693z" fill="#fff"/><path d="M191.44 351.664h.626l.001-1.189-.626-.001-.001 1.19zM182.304 349.407l.001-.626h-1.19v.626h1.189z" fill="#3F3D56"/><path d="M181.863 349.055h-.069a1.312 1.312 0 01-1.307-1.309 1.305 1.305 0 011.309-1.308h.069l-.002 2.617zM171.25 354.223a2.026 2.026 0 002.161-1.45 2.019 2.019 0 00-1.057-2.378 4.957 4.957 0 00-1.037 2.729l-.067 1.099z" fill="#3F3D56"/><path d="M189.676 344.023l2.391 3.555.001-1.674-1.265-1.879-1.127-.002zM196.613 344.031l1.841 2.736v-1.674l-.713-1.06-1.128-.002zM186.551 344.023l2.485 3.694h1.127l-2.485-3.694h-1.127z" fill="#F2F2F2"/><path d="M93.531 178.231l-.025.014a1.882 1.882 0 01-1.799.006l-.047-.025a1.892 1.892 0 00-1.797.006l-.023.013a1.882 1.882 0 01-1.8.006l-.048-.026a1.89 1.89 0 00-1.78-.003c-.836.45-1.967 1.221-1.962 2.091 0 .034.002.068.006.102.097.904 3.044 1.134 4.662.708a8.22 8.22 0 003.667 0c1.612.433 4.618.185 4.706-.729a1.03 1.03 0 00.005-.103c-.005-.87-1.146-1.632-1.988-2.076a1.878 1.878 0 00-1.777.016zM174.707 208.059l-.025.014c-.276.151-.585.23-.899.232a1.897 1.897 0 01-.947-.251 1.894 1.894 0 00-1.797.006l-.024.013a1.89 1.89 0 01-1.798.007l-.05-.027a1.886 1.886 0 00-1.779-.003c-.836.45-1.967 1.221-1.962 2.091 0 .034.002.068.006.103.097.903 3.044 1.133 4.662.707a8.224 8.224 0 003.667 0c1.612.433 4.618.185 4.706-.729.003-.034.005-.068.005-.103-.005-.87-1.146-1.632-1.988-2.076a1.882 1.882 0 00-1.777.016zM34.282 219.231l-.026.014a1.882 1.882 0 01-1.799.006l-.047-.025a1.892 1.892 0 00-1.797.006l-.023.013a1.882 1.882 0 01-1.8.006l-.048-.026a1.89 1.89 0 00-1.78-.003c-.836.45-1.967 1.221-1.962 2.091 0 .034.002.068.006.102.097.904 3.044 1.134 4.663.708a8.22 8.22 0 003.666 0c1.612.433 4.618.185 4.706-.729a1.03 1.03 0 00.005-.103c-.005-.87-1.146-1.632-1.988-2.076a1.878 1.878 0 00-1.776.016z" fill="#E6E6E6"/><path d="M27.299 338.301h-3.944v.626H27.3v-.626z" fill="#3F3D56"/><path d="M55.807 338.439l-.813.188-30.92.017-.278-.648a6.537 6.537 0 01-.48-3.535c.132-.895.466-1.784 1.224-2.17l1.372-9.139 17.107-.031 6.618 5.338s3.122-.056 4.818 2.056a4.955 4.955 0 011.037 2.729l.067 1.099.248 4.096z" fill="#1A237E"/><path d="M49.017 342.105a3.818 3.818 0 100-7.637 3.818 3.818 0 000 7.637z" fill="#3F3D56"/><path d="M49.017 340.296a2.009 2.009 0 10.001-4.018 2.009 2.009 0 000 4.018z" fill="#CCC"/><path d="M30.177 342.117a3.818 3.818 0 100-7.637 3.818 3.818 0 000 7.637z" fill="#3F3D56"/><path d="M30.177 340.308a2.01 2.01 0 100-4.02 2.01 2.01 0 000 4.02z" fill="#CCC"/><path d="M47.008 327.835l-9.236.005h-1.128l-1.903.001v-.139l-.001-1.674-.002-1.879h1.267l1.127-.002 1.997-.001h1.128l2.305-.001 4.446 3.69zM33.24 327.845l-4.882.002-.001-.958v-1.673l-.002-1.061h.715l1.128-.001 3.04-.002.001 3.693z" fill="#fff"/><path d="M35.368 330.594h-.626v1.189h.626v-1.189zM45.696 329.524v-.626l-1.19.001v.626l1.19-.001z" fill="#3F3D56"/><path d="M44.945 326.559h.07a1.303 1.303 0 011.208.807 1.31 1.31 0 01-1.209 1.809h-.069v-2.616zM55.56 334.344a2.026 2.026 0 01-2.16-1.45 2.022 2.022 0 011.057-2.378 4.956 4.956 0 011.037 2.729l.067 1.099z" fill="#3F3D56"/><path d="M37.135 324.148l-2.392 3.555v-1.674l1.264-1.879 1.128-.002zM30.196 324.152l-1.84 2.736v-1.674l.713-1.06 1.127-.002zM40.257 324.145l-2.485 3.693h-1.127l2.484-3.693h1.128z" fill="#F2F2F2"/><path d="M4.398 283.957h37.745v27.792h-.023v5.533l-5.533-5.533H4.398v-27.792z" fill="#8CC440"/><path d="M22.199 304.436l-4.82-6.196 2.803-2.181 2.282 2.935 7.71-8.139 2.578 2.443-10.553 11.138zM306.116 134.628h-1.378V96.86a21.87 21.87 0 00-6.403-15.457A21.865 21.865 0 00282.878 75H202.86A21.86 21.86 0 00181 96.86v207.202a21.853 21.853 0 006.403 15.458 21.852 21.852 0 0015.457 6.402h80.018a21.848 21.848 0 0015.457-6.402 21.87 21.87 0 006.403-15.458V161.513h1.378v-26.885z" fill="#fff"/><path d="M283.728 80.688h-10.445a7.763 7.763 0 01-3.534 9.774 7.756 7.756 0 01-3.647.91h-45.841a7.759 7.759 0 01-7.715-6.964 7.77 7.77 0 01.534-3.72h-9.755a16.33 16.33 0 00-11.544 4.78A16.315 16.315 0 00187 97.013v206.899c0 2.144.422 4.266 1.243 6.247a16.311 16.311 0 008.834 8.835 16.336 16.336 0 006.248 1.242h80.403a16.327 16.327 0 0015.082-10.077 16.313 16.313 0 001.243-6.247V97.012a16.323 16.323 0 00-16.325-16.325z" fill="#D2361E"/><path d="M328.811 265.579l-65.031-16.348V249H155.406h33.593l-.161 16.579.189 4.421h139.972v-4.421h-.188z" fill="#960A0A"/><path d="M274.505 234.752a2.63 2.63 0 00-1.496.504l-4.737-38.689a6.55 6.55 0 00-6.498-5.751h-32.348a6.546 6.546 0 00-6.498 5.751l-4.737 38.689a2.636 2.636 0 00-1.496-.504c-2.554 0-4.625 4.141-4.625 9.249 0 5.108 2.071 9.25 4.625 9.25 1.94 0 3.599-2.393 4.286-5.781h49.238c.687 3.388 2.345 5.781 4.286 5.781 2.554 0 4.624-4.142 4.624-9.25s-2.07-9.249-4.624-9.249zm-43.936 2.312a5.78 5.78 0 01-4.087-9.869 5.78 5.78 0 118.175 8.176 5.79 5.79 0 01-4.088 1.693zm28.905 0a5.785 5.785 0 01-5.341-3.569 5.785 5.785 0 011.253-6.3 5.788 5.788 0 016.3-1.253 5.785 5.785 0 013.569 5.341 5.789 5.789 0 01-1.693 4.088 5.783 5.783 0 01-4.088 1.693zm6.937-22.086a3.597 3.597 0 01-1.05 2.536 3.588 3.588 0 01-2.537 1.051h-34.449a3.588 3.588 0 01-3.587-3.587v-11.325a3.593 3.593 0 011.051-2.536 3.588 3.588 0 012.536-1.051h34.449a3.593 3.593 0 012.537 1.051 3.58 3.58 0 011.05 2.536v11.325z" fill="#fff"/><path d="M251.654 192.647h-12.111l2.595-3.893h6.921l2.595 3.893zM246.577 183.154c7.498 0 13.577-6.079 13.577-13.577S254.075 156 246.577 156 233 162.079 233 169.577s6.079 13.577 13.577 13.577z" fill="#8CC440"/><path d="M245.282 175.31l-4.063-5.225 2.363-1.838 1.924 2.474 6.5-6.862 2.174 2.06-8.898 9.391zM211 249h-4v2h4v-2zM211 265h-4v-3.667h4V265zm0-7.333h-4V254h4v3.667zM211 268h-4v2h4v-2z" fill="#fff"/><path opacity=".2" d="M245.323 123.039a1.916 1.916 0 11-3.835 0" fill="#fff"/><path d="M339.752 335.357c42.941 0 77.751-2.838 77.751-6.339 0-3.501-34.81-6.338-77.751-6.338S262 325.517 262 329.018s34.811 6.339 77.752 6.339z" fill="#D23605"/><path d="M299.914 214.805l-3.896 3.654s-10.558 8.61-5.658 11.768c4.901 3.158 10.365-9.505 10.365-9.505l2.105-3.267-2.916-2.65z" fill="#FFB8B8"/><path d="M322.498 151.988l-5.507 1.296s-1.295 5.506-.971 10.689c.323 5.182-1.268 14.801-1.268 14.801l-3.734 8.685-15.635 29.579 9.719 4.226 17.396-33.97 1.619-21.702-1.619-13.604z" fill="#039BE5"/><path d="M330.685 136.602c9.522 0 17.24-8.194 17.24-18.301 0-10.107-7.718-18.301-17.24-18.301-9.521 0-17.24 8.194-17.24 18.301 0 10.107 7.719 18.301 17.24 18.301z" fill="#2F2E41"/><path d="M345.98 145.994a9.07 9.07 0 10-.002-18.138 9.07 9.07 0 00.002 18.138z" fill="#2F2E41"/><path d="M339.664 124.777l4.859 12.633-12.309 5.182-1.08-2.449-3.779-8.564 12.309-6.802z" fill="#FFB8B8"/><path d="M356.185 194.097l4.534 21.378 6.155 47.938-4.535 43.728s-13.604 4.534-18.787-3.887l6.154-35.954-12.308-42.432-1.944 41.784 3.24 36.278s-10.042 5.83-18.139 0l-5.507-71.908s-4.21-31.419 5.507-41.784l35.63 4.859z" fill="#2F2E41"/><path d="M329.949 133.038c5.992 0 10.85-4.858 10.85-10.851 0-5.993-4.858-10.851-10.85-10.851-5.993 0-10.851 4.858-10.851 10.851 0 5.993 4.858 10.851 10.851 10.851z" fill="#FFB8B8"/><path d="M329.946 143.243l1.061-3.382s9.776-1.611 12.617-4.783l5.109 5.25s13.928 4.534 15.871 6.478c1.943 1.943-7.774 32.067-7.774 32.067s2.268 5.182-1.619 7.449c0 0 5.83 8.746 1.295 9.718-4.534.971-37.249-5.831-37.249-5.831s-2.267-3.887 2.915-5.506c0 0-1.943-4.535.324-6.154 2.267-1.62.324-10.689.324-10.689s-6.802-13.604-5.83-14.576c.971-.972 12.956-10.041 12.956-10.041z" fill="#039BE5"/><path d="M361.691 222.6l-.324 2.591s.324 15.548-5.506 14.9c-5.831-.648-2.268-15.872-2.268-15.872l.972-3.563 7.126 1.944z" fill="#FFB8B8"/><path d="M354.563 304.225s-1.296 12.957.972 13.928c2.267.972 17.491 9.07 12.956 12.633-4.535 3.563-19.758-5.831-21.378-4.211-1.619 1.619-6.802.324-7.126-2.591-.324-2.915.324-8.098 2.915-11.337 2.592-3.239 2.592-9.717 2.592-9.717l9.069 1.295z" fill="#2F2E41"/><path d="M336.103 299.367l2.267 10.689s4.859 10.689.648 12.956c-4.211 2.268-4.859 2.592-5.183 3.887-.323 1.296-9.069 8.098-11.66 2.916-2.592-5.183 6.802-12.633 6.802-12.633l1.619-3.563-1.619-12.632 7.126-1.62zM321.08 120.997c6.82-4.551 8.859-5.639 16.676-3.881l.469-11.405-20.202 4.238 3.057 11.048z" fill="#2F2E41"/><path d="M361.691 147.129l3.239-.324s3.239 8.421 3.239 12.632v27.856l-5.183 36.602-10.041-1.62 5.507-32.714-1.62-19.759 4.859-22.673z" fill="#039BE5"/><path d="M397.22 198.867h-5.493v128.882h5.493V198.867z" fill="#B41800"/><path d="M409.686 162.949h-30.424v40.566h30.424v-40.566z" fill="#B41800"/><path d="M405.037 187.882a.958.958 0 00-.546.184l-1.732-14.14a2.394 2.394 0 00-2.375-2.102h-11.822a2.396 2.396 0 00-2.375 2.102l-1.731 14.14a.963.963 0 00-.547-.184c-.934 0-1.69 1.513-1.69 3.38s.756 3.381 1.69 3.381c.709 0 1.315-.875 1.566-2.113h17.996c.251 1.238.857 2.113 1.566 2.113.934 0 1.69-1.514 1.69-3.381 0-1.867-.756-3.38-1.69-3.38zm-16.057.845a2.113 2.113 0 110-4.226 2.113 2.113 0 010 4.226zm10.564 0a2.113 2.113 0 110-4.226 2.113 2.113 0 010 4.226zm2.535-8.072a1.306 1.306 0 01-.384.927 1.315 1.315 0 01-.927.384h-12.59a1.31 1.31 0 01-1.311-1.311v-4.139a1.31 1.31 0 011.311-1.311h12.59a1.31 1.31 0 011.311 1.311v4.139z" fill="#fff"/><path d="M290.783 213.141l1.233 2.396a.09.09 0 01.006.072.096.096 0 01-.046.055l-.06.03 6.423 12.481a1.465 1.465 0 01-.632 1.972l-7.798 4.014a1.468 1.468 0 01-1.617-.185 1.469 1.469 0 01-.355-.447l-6.198-12.043-.043.022a.067.067 0 01-.089-.028l-.702-1.364a.055.055 0 01-.007-.025.06.06 0 01.003-.026.059.059 0 01.012-.022.065.065 0 01.021-.016l.043-.023-.265-.513-.043.022a.066.066 0 01-.053.004.07.07 0 01-.041-.034l-.692-1.345a.07.07 0 01.03-.093l.043-.023-.36-.701-.044.023a.067.067 0 01-.024.007.085.085 0 01-.023-.003.072.072 0 01-.021-.012.04.04 0 01-.015-.019l-.378-.734a.059.059 0 01-.004-.047.066.066 0 01.03-.036l.044-.022-.764-1.487a1.463 1.463 0 01.632-1.971l7.798-4.014a1.463 1.463 0 011.972.632l1.798 3.494.06-.031a.093.093 0 01.126.04z" fill="#3F3D56"/><path d="M288.31 210.215l9.464 18.388a.932.932 0 01-.402 1.251l-7.465 3.842a.918.918 0 01-.708.059.916.916 0 01-.543-.46l-9.463-18.388a.923.923 0 01.117-1.025.916.916 0 01.284-.226l1.117-.575.074.143a.763.763 0 001.03.33l3.797-1.953a.768.768 0 00.33-1.031l-.074-.143 1.191-.613a.923.923 0 011.026.117.94.94 0 01.225.284z" fill="#fff"/><path d="M228.744 308H191v27.792h.023v5.533l5.533-5.533h32.188V308z" fill="#8CC440"/><path d="M208.55 327.819l-4.82-6.197 2.803-2.18 2.282 2.934 7.71-8.138 2.578 2.443-10.553 11.138zM161.666 155.714c-4.818-8.685-4.412-18.899.232-26.959l-5.067-8.776c-8.875 11.376-10.49 27.449-2.832 40.714a37.157 37.157 0 002.176 3.338l5.491-8.317zM142.049 162.974c-8.939-15.482-6.649-34.365 4.342-47.22l-4.786-8.29c-15.261 15.691-18.943 40.179-7.458 60.072a50.342 50.342 0 006.128 8.46l5.238-7.933a41.455 41.455 0 01-3.464-5.089z" fill="#fff"/></svg>