<svg xmlns="http://www.w3.org/2000/svg" width="528" height="346" fill="none" viewBox="0 0 528 346">
    <rect width="54" height="54" x="152" y="292" fill="#3F4B52" rx="10"/>
    <rect width="100" height="100" x="428" y="82" fill="#3F4B52" rx="16"/>
    <rect width="33" height="33" x="85" y="36" fill="#3F4B52" rx="4"/>
    <rect width="142" height="142" y="79" fill="#1976D2" rx="16"/>
    <rect width="45" height="45" x="370" fill="#3F4B52" rx="10"/>
    <rect width="63" height="63" x="396" y="277" fill="#3F4B52" rx="10"/>
    <rect width="37" height="37" x="179.027" y="197" fill="#3F4B52" rx="4"/>
    <rect width="112" height="112" x="128" y="36" fill="#0097A7" rx="16"/>
    <rect width="112" height="112" x="214" y="77" fill="#7CB342" rx="16"/>
    <rect width="112" height="112" x="303" y="120" fill="#C2185B" rx="16"/>
    <rect width="112" height="112" x="397" y="152" fill="#F9A825" rx="16"/>
    <rect width="112" height="112" x="274" y="180" fill="#AB47BC" rx="16"/>
    <rect width="112" height="112" x="162" y="162" fill="#6D4C41" rx="16"/>
    <path fill="#FF8F00" d="M423.711 46.194l13.372 1.703-8.16 10.729-5.212-12.432zM67.711 98.194l13.372 1.703-8.16 10.729-5.212-12.432z"/>
    <path fill="#06AAF5" d="M26.681 135.25l8.528 10.44-13.304 2.165 4.776-12.605z"/>
    <path fill="#FFF9C4" d="M272.681 46.25l8.528 10.44-13.304 2.165 4.776-12.605zM471.681 291.251l8.528 10.439-13.304 2.166 4.776-12.605z"/>
    <path fill="#FFD037" d="M213.003 164.543l-9.655 9.407-3.319-13.064 12.974 3.657z"/>
    <path fill="#8CC440" d="M98.681 309.25l8.528 10.44-13.304 2.165 4.776-12.605zM368.681 131.25l8.528 10.44-13.304 2.165 4.776-12.605z"/>
    <circle cx="57" cy="58" r="4" fill="#8CC440"/>
    <circle cx="486" cy="136" r="4" fill="#8CC440"/>
    <circle cx="106.027" cy="220" r="4" fill="#FF8F00"/>
    <circle cx="359" cy="83" r="4" fill="#FF8F00"/>
    <circle cx="240.027" cy="309" r="4" fill="#FF8F00"/>
    <rect width="112" height="112" x="61" y="176" fill="#EF514E" rx="16"/>
    <path fill="#D0D2D5" d="M223.693 260.49l-46.49-.595.138-1.193 2.247-19.669h40.828l3.003 19.669.229 1.49.045.298z"/>
    <path fill="#000" d="M223.648 260.192h-23.199l-23.246-.297.138-1.193h46.078l.229 1.49z" opacity=".1"/>
    <path fill="#D0D2D5" d="M231.143 259h-61.69v1.49h61.69V259z"/>
    <path fill="#fff" d="M290 120.895c.004-1.028-.4-2.016-1.124-2.747-.724-.73-1.709-1.143-2.737-1.148H113.861c-.509.002-1.013.105-1.483.302-.47.197-.896.485-1.255.847-.358.362-.642.791-.835 1.263-.192.471-.29.976-.288 1.486v104.428h180V120.895z"/>
    <path fill="#fff" d="M110 224.282v12.231c0 1.024.407 2.006 1.131 2.73.724.724 1.706 1.131 2.73 1.131h172.278c1.024 0 2.006-.407 2.73-1.131.724-.724 1.131-1.706 1.131-2.73v-12.231H110z"/>
    <path fill="#232C31" d="M283.445 123.554H117.453v93.874h165.992v-93.874z"/>
    <path fill="#000" d="M204.918 240.374L223.465 259l-2.846-18.626h-15.701z" opacity=".1"/>
    <path fill="#232C31" d="M249.938 170.263H370.015V252.296H249.938z"/>
    <path fill="#fff" d="M300.576 259.86c0-.668.533-1.204 1.199-1.204h17.268c.667 0 1.204.535 1.204 1.204 0 .667-.537 1.206-1.204 1.206h-17.268c-.664-.002-1.199-.54-1.199-1.206zm69.441-7.66H250.31v-80.184h119.707V252.2zm23.802 8.25c0-1.784-1.442-3.229-3.218-3.229v-.23h-17.076c.87-.39 1.481-1.263 1.481-2.286v-85.2c0-1.384-1.115-2.505-2.496-2.505H247.815c-1.373 0-2.493 1.121-2.493 2.505v85.199c0 1.016.61 1.896 1.48 2.286h-16.585v.224c-1.776-.002-3.217 1.447-3.217 3.232 0 1.786 1.441 3.234 3.217 3.234h160.384c1.779-.002 3.218-1.447 3.218-3.23z"/>
    <path fill="#3F3D56" d="M408.629 221.055h-.123c-.2 0-.361.162-.361.362v6.252c0 .2.161.362.361.362h.123c.2 0 .362-.162.362-.362v-6.252c0-.2-.162-.362-.362-.362zM380.254 215.59h-.001c-.131 0-.237.106-.237.237v1.823c0 .131.106.237.237.237h.001c.131 0 .237-.106.237-.237v-1.823c0-.131-.106-.237-.237-.237zM380.268 219.794h-.001c-.147 0-.267.12-.267.267v3.464c0 .147.12.267.267.267h.001c.148 0 .267-.12.267-.267v-3.464c0-.147-.119-.267-.267-.267zM380.264 225.19h-.002c-.14 0-.254.114-.254.254v3.523c0 .141.114.255.254.255h.002c.14 0 .254-.114.254-.255v-3.523c0-.14-.114-.254-.254-.254z"/>
    <path fill="#fff" d="M405.673 208h-22.46c-1.617 0-2.928 1.311-2.928 2.928v51.691c0 1.617 1.311 2.928 2.928 2.928h22.46c1.617 0 2.928-1.311 2.928-2.928v-51.691c0-1.617-1.311-2.928-2.928-2.928z"/>
    <path fill="#212121" d="M395.264 209.718h-3.152c-.221 0-.401.18-.401.402 0 .221.18.401.401.401h3.152c.222 0 .402-.18.402-.401 0-.222-.18-.402-.402-.402zM396.72 210.576c.252 0 .455-.204.455-.455s-.203-.455-.455-.455c-.251 0-.454.204-.454.455s.203.455.454.455z"/>
    <path fill="#232C31" d="M404.604 209.5h-3.241v.39c0 .491-.195.961-.541 1.308-.347.347-.816.542-1.307.543h-10.338c-.491 0-.963-.195-1.31-.542-.347-.348-.543-.819-.543-1.31v-.389h-3.04c-.596.001-1.168.238-1.59.66-.421.421-.658.993-.659 1.589v50.05c0 .295.058.588.171.861.113.272.279.52.488.729.209.209.457.375.729.488.273.113.566.171.861.171h20.32c.295 0 .588-.058.861-.171.273-.113.521-.278.73-.487.209-.209.374-.457.487-.73.113-.273.171-.566.171-.861v-50.051c0-.596-.238-1.168-.659-1.589-.422-.422-.994-.659-1.59-.659z"/>
</svg>
