<svg width="48" height="48" viewBox="0 0 48 48" fill="none" xmlns="http://www.w3.org/2000/svg">
<path d="M46 0H2C0.9 0 0 0.9 0 2V46C0 47.1 0.9 48 2 48H46C47.1 48 48 47.1 48 46V2C48 0.9 47.1 0 46 0ZM46 46H2V2H46V46Z" fill="#37474F"/>
<path d="M46 9H2V11H46V9Z" fill="#37474F"/>
<path d="M6.5 7C7.32843 7 8 6.32843 8 5.5C8 4.67157 7.32843 4 6.5 4C5.67157 4 5 4.67157 5 5.5C5 6.32843 5.67157 7 6.5 7Z" fill="#37474F"/>
<path d="M11.5 7C12.3284 7 13 6.32843 13 5.5C13 4.67157 12.3284 4 11.5 4C10.6716 4 10 4.67157 10 5.5C10 6.32843 10.6716 7 11.5 7Z" fill="#37474F"/>
<path d="M16.5 7C17.3284 7 18 6.32843 18 5.5C18 4.67157 17.3284 4 16.5 4C15.6716 4 15 4.67157 15 5.5C15 6.32843 15.6716 7 16.5 7Z" fill="#37474F"/>
<path d="M41.5 7H30.5C29.7 7 29 6.3 29 5.5C29 4.7 29.7 4 30.5 4H41.5C42.3 4 43 4.7 43 5.5C43 6.3 42.3 7 41.5 7Z" fill="#37474F"/>
<path d="M24 17.9355C29.6129 17.9355 34.0645 22.4839 34.0645 28C34.0645 33.5161 29.6129 38.1613 24 38.1613C18.3871 38.1613 13.9355 33.6129 13.9355 28.0968C13.9355 22.5806 18.3871 17.9355 24 17.9355ZM24 16C17.3226 16 12 21.4194 12 28C12 34.5806 17.4194 40 24 40C30.5806 40 36 34.5806 36 28C36 21.4194 30.6774 16 24 16Z" fill="#2083D2"/>
<path fill-rule="evenodd" clip-rule="evenodd" d="M23.2932 27.4707V20.8386H25.2932V28.3356L20.1394 33.1802L18.7695 31.7229L23.2932 27.4707Z" fill="#2083D2"/>
</svg>
