<svg xmlns="http://www.w3.org/2000/svg" width="54" height="45" fill="none" viewBox="0 0 54 45">
    <path fill="#37474F" d="M52 0H2C.9 0 0 .9 0 2v41c0 1.1.9 2 2 2h50c1.1 0 2-.9 2-2V2c0-1.1-.9-2-2-2zm0 43H2V2h50v41z"/>
    <path fill="#37474F" d="M52 9H1v2h51V9zM6.5 7C7.328 7 8 6.328 8 5.5S7.328 4 6.5 4 5 4.672 5 5.5 5.672 7 6.5 7zM11.5 7c.828 0 1.5-.672 1.5-1.5S12.328 4 11.5 4 10 4.672 10 5.5 10.672 7 11.5 7zM16.5 7c.828 0 1.5-.672 1.5-1.5S17.328 4 16.5 4 15 4.672 15 5.5 15.672 7 16.5 7zM47.5 7h-11c-.8 0-1.5-.7-1.5-1.5S35.7 4 36.5 4h11c.8 0 1.5.7 1.5 1.5S48.3 7 47.5 7z"/>
</svg>
