<svg width="48" height="48" viewBox="0 0 48 48" fill="none" xmlns="http://www.w3.org/2000/svg">
<path d="M24 37.7143C22.7075 37.7143 21.65 38.7429 21.65 40C21.65 41.2571 22.7075 42.2857 24 42.2857C25.2925 42.2857 26.35 41.2571 26.35 40C26.35 38.7429 25.2925 37.7143 24 37.7143ZM30.1687 40C30.1687 40.2629 30.1452 40.5257 30.11 40.7771L31.849 42.1029C32.0017 42.2286 32.0487 42.4457 31.943 42.6171L30.298 45.3829C30.1922 45.5543 29.9807 45.6229 29.7927 45.5543L27.7482 44.7543C27.3252 45.0743 26.8552 45.3371 26.3617 45.5429L26.0562 47.6571C26.021 47.8514 25.8447 48 25.645 48H22.355C22.1553 48 21.979 47.8514 21.9438 47.6686L21.6383 45.5543C21.133 45.3486 20.6748 45.0857 20.2518 44.7657L18.2073 45.5657C18.0193 45.6343 17.8078 45.5657 17.702 45.3943L16.057 42.6286C15.9513 42.4571 15.9983 42.24 16.151 42.1143L17.89 40.7886C17.8548 40.5257 17.8313 40.2629 17.8313 40C17.8313 39.7371 17.8548 39.4743 17.89 39.2229L16.151 37.8971C15.9983 37.7714 15.9513 37.5543 16.057 37.3829L17.702 34.6171C17.8078 34.4457 18.0193 34.3771 18.2073 34.4457L20.2518 35.2457C20.6748 34.9257 21.1448 34.6629 21.6383 34.4571L21.9438 32.3429C21.979 32.1486 22.1553 32 22.355 32H25.645C25.8447 32 26.021 32.1486 26.0562 32.3314L26.3617 34.4457C26.867 34.6514 27.3252 34.9143 27.7482 35.2343L29.7927 34.4343C29.9807 34.3657 30.1922 34.4343 30.298 34.6057L31.943 37.3714C32.0487 37.5429 32.0017 37.76 31.849 37.8857L30.11 39.2114C30.1452 39.4743 30.1687 39.7371 30.1687 40Z" fill="#2083D2"/>
<path fill-rule="evenodd" clip-rule="evenodd" d="M2 0H46C47.1 0 48 0.9 48 2V39C48 40.1 47.1 41 46 41H36V39H46V2H2V39H12V41H2C0.9 41 0 40.1 0 39V2C0 0.9 0.9 0 2 0Z" fill="#37474F"/>
<path d="M46 9H2V11H46V9Z" fill="#37474F"/>
<path d="M6.5 7C7.32843 7 8 6.32843 8 5.5C8 4.67157 7.32843 4 6.5 4C5.67157 4 5 4.67157 5 5.5C5 6.32843 5.67157 7 6.5 7Z" fill="#37474F"/>
<path d="M11.5 7C12.3284 7 13 6.32843 13 5.5C13 4.67157 12.3284 4 11.5 4C10.6716 4 10 4.67157 10 5.5C10 6.32843 10.6716 7 11.5 7Z" fill="#37474F"/>
<path d="M16.5 7C17.3284 7 18 6.32843 18 5.5C18 4.67157 17.3284 4 16.5 4C15.6716 4 15 4.67157 15 5.5C15 6.32843 15.6716 7 16.5 7Z" fill="#37474F"/>
<path d="M41.5 7H30.5C29.7 7 29 6.3 29 5.5C29 4.7 29.7 4 30.5 4H41.5C42.3 4 43 4.7 43 5.5C43 6.3 42.3 7 41.5 7Z" fill="#37474F"/>
<path fill-rule="evenodd" clip-rule="evenodd" d="M18.2413 17.1768C18.5457 16.9271 19.0202 16.9439 19.3011 17.2145L23.8011 21.5478C24.0663 21.8032 24.0663 22.1968 23.8011 22.4522L19.3011 26.7855C19.0202 27.0561 18.5457 27.0729 18.2413 26.8232C17.9369 26.5735 17.9179 26.1517 18.1989 25.8811L22.2293 22L18.1989 18.1189C17.9179 17.8483 17.9369 17.4265 18.2413 17.1768Z" fill="#2083D2"/>
<path fill-rule="evenodd" clip-rule="evenodd" d="M11.7587 17.1768C11.4543 16.927 10.9798 16.9439 10.6989 17.2144L6.1989 21.5478C5.9337 21.8031 5.9337 22.1968 6.1989 22.4521L10.6989 26.7855C10.9798 27.056 11.4543 27.0729 11.7587 26.8232C12.0631 26.5734 12.0821 26.1516 11.8011 25.8811L7.77068 22L11.8011 18.1188C12.0821 17.8483 12.0631 17.4265 11.7587 17.1768Z" fill="#2083D2"/>
<path fill-rule="evenodd" clip-rule="evenodd" d="M16.4706 16.0124C16.8308 16.0774 17.0614 16.3804 16.9856 16.6893L14.3191 27.5462C14.2432 27.855 13.8897 28.0526 13.5294 27.9876C13.1692 27.9226 12.9386 27.6196 13.0144 27.3107L15.6809 16.4538C15.7568 16.145 16.1103 15.9474 16.4706 16.0124Z" fill="#2083D2"/>
<rect x="30" y="16" width="12" height="2" rx="1" fill="#2083D2"/>
<rect x="30" y="20" width="12" height="2" rx="1" fill="#2083D2"/>
<rect x="30" y="24" width="12" height="2" rx="1" fill="#2083D2"/>
</svg>
