<svg width="49" height="48" viewBox="0 0 49 48" fill="none" xmlns="http://www.w3.org/2000/svg">
<path fill-rule="evenodd" clip-rule="evenodd" d="M22 35H4L4 44H22V35ZM4 33C2.89543 33 2 33.8954 2 35V44C2 45.1046 2.89543 46 4 46H22C23.1046 46 24 45.1046 24 44V35C24 33.8954 23.1046 33 22 33H4Z" fill="#333333"/>
<path fill-rule="evenodd" clip-rule="evenodd" d="M23 2H3L3 12H23V2ZM3 0C1.89543 0 1 0.89543 1 2V13C1 14.1046 1.89543 15 3 15H23C24.1046 15 25 14.1046 25 13V2C25 0.895431 24.1046 0 23 0H3Z" fill="#333333"/>
<rect x="11" y="15" width="4" height="2" fill="#333333"/>
<rect x="9" y="17" width="8" height="2" fill="#333333"/>
<rect y="46" width="26" height="2" rx="1" fill="#333333"/>
<path d="M41.42 19C42.8 19 44.05 19.56 44.96 20.46L42.42 23H48.42V17L46.37 19.05C45.1 17.78 43.35 17 41.42 17C37.89 17 34.99 19.61 34.5 23H36.52C36.98 20.72 39 19 41.42 19Z" fill="#2083D2"/>
<path d="M41.5019 29C40.1219 29 38.8719 28.44 37.9619 27.54L40.5019 25H34.5019V31L36.5519 28.95C37.8219 30.22 39.5719 31 41.5019 31C45.0319 31 47.9319 28.39 48.4219 25H46.4019C45.9419 27.28 43.9219 29 41.5019 29Z" fill="#2083D2"/>
<path d="M29 7H43V14" stroke="#333333" stroke-width="2" stroke-dasharray="6 2"/>
<path d="M29 42H43V35" stroke="#333333" stroke-width="2" stroke-dasharray="6 2"/>
<path d="M27 7.14492L32 3V11L27 7.14492Z" fill="#333333"/>
<path d="M27 42.1449L32 38V46L27 42.1449Z" fill="#333333"/>
</svg>
