<svg xmlns="http://www.w3.org/2000/svg" width="48" height="47" fill="none" viewBox="0 0 48 47">
    <g fill="#fff" clip-path="url(#prefix__clip0)">
        <path d="M23.865 46.098C10.688 46.098 0 35.776 0 23.05S10.688 0 23.865 0c13.178 0 23.866 10.322 23.866 23.049h-2.075c0-11.625-9.754-21.045-21.79-21.045-12.037 0-21.79 9.42-21.79 21.045 0 11.625 9.753 21.045 21.79 21.045v2.004z"/>
        <path d="M44.618 30.064h-4.67c.83.802 1.35 1.804 1.453 3.006h3.217v2.005H41.4c-.415 2.405-2.387 4.309-4.773 4.91l5.914 5.712L41.09 47.1l-7.471-7.215-1.453-1.303 1.038-1.002.415-.4.934.901c.207 0 .415.1.726.1 1.971 0 3.528-1.303 4.047-3.006h-7.16V33.17h7.16c-.415-1.703-2.075-3.006-4.047-3.006h-3.113V28.16h12.452v1.904zM22.828 9.02v13.628L12.66 31.467l1.452 1.403 10.17-8.819.622-.601V9.019h-2.076z"/>
    </g>
    <defs>
        <clipPath id="prefix__clip0">
            <path fill="#fff" d="M0 0H47.731V47H0z"/>
        </clipPath>
    </defs>
</svg>
