<svg width="24" height="24" fill="none" xmlns="http://www.w3.org/2000/svg"><path fill-rule="evenodd" clip-rule="evenodd" d="M13.667 7.313a2.426 2.426 0 00-1.634 2.44l.025.415-.419-.051a6.811 6.811 0 01-3.99-1.966L7.1 7.6l-.142.407a2.449 2.449 0 00.52 2.508c.335.356.26.407-.318.195a1 1 0 00-.394-.093c.025.395.127.78.3 1.136.266.468.666.845 1.148 1.085l.411.195-.486.008c-.469 0-.486.008-.436.187a2.534 2.534 0 001.567 1.39l.52.178-.452.271a4.704 4.704 0 01-2.246.627 2.455 2.455 0 00-.688.068 6.4 6.4 0 001.618.746 7.073 7.073 0 005.5-.627 7.367 7.367 0 002.791-3.288 8.743 8.743 0 00.57-2.542c0-.39.025-.441.494-.907a5.53 5.53 0 00.587-.652c.084-.161.075-.161-.352-.017-.712.254-.813.22-.461-.161a2.47 2.47 0 00.57-.907c0-.025-.126.017-.268.093a4.63 4.63 0 01-.738.288l-.452.144-.411-.28a3.408 3.408 0 00-.712-.373 2.863 2.863 0 00-1.473.034zM12 24a12 12 0 110-24 12 12 0 010 24z" fill="#fff"/></svg>