<svg width="217" height="52" viewBox="0 0 217 52" fill="none" xmlns="http://www.w3.org/2000/svg">
<g clip-path="url(#clip0)">
<path d="M26.7514 4.70904H15.6301V39.0751H11.1214V4.70904H0V0.601132H26.6513V4.70904H26.7514Z" fill="black"/>
<path d="M48.094 11.6224L35.4698 43.4836C33.1653 49.1946 30.0594 52 25.9515 52C24.8493 52 23.8474 51.8998 23.0459 51.6994V47.7919C23.9476 48.0925 24.8493 48.2929 25.6509 48.2929C27.8551 48.2929 29.5584 46.9904 30.6605 44.2852L32.8648 39.0751L22.1441 11.6224H27.0536L34.4678 32.763C34.568 33.0636 34.7684 33.7649 35.069 34.867H35.2694C35.3696 34.4663 35.57 33.7649 35.7703 32.8632L43.5854 11.6224H48.094ZM55.5083 35.1676H55.4081V51.7996H50.9996V11.7226H55.4081V16.5318H55.5083C57.7125 12.9249 60.8185 11.0212 65.0266 11.0212C68.5334 11.0212 71.3387 12.2235 73.3426 14.7283C75.3465 17.2332 76.3484 20.4393 76.3484 24.6474C76.3484 29.2563 75.2463 32.9634 73.042 35.6686C70.8378 38.3738 67.7318 39.7765 63.8243 39.7765C60.2174 39.7765 57.5122 38.2736 55.5083 35.1676ZM55.4081 24.0462V27.8536C55.4081 30.158 56.1095 32.0617 57.6124 33.6647C59.1152 35.2678 60.9187 36.0694 63.2231 36.0694C65.9283 36.0694 67.9322 35.0674 69.5353 32.9634C71.1384 30.8593 71.8397 28.0539 71.8397 24.447C71.8397 21.341 71.1384 19.0366 69.7357 17.2332C68.333 15.5299 66.4293 14.6281 64.0247 14.6281C61.4197 14.6281 59.4158 15.5299 57.8127 17.3333C56.2097 19.1368 55.4081 21.341 55.4081 24.0462ZM103.501 26.4509H84.0632C84.1634 29.5568 84.965 31.8613 86.568 33.5645C88.1711 35.2678 90.2752 36.0694 93.0806 36.0694C96.1865 36.0694 98.9919 35.0674 101.597 32.9634V37.0713C99.1923 38.8748 95.9861 39.6763 91.9784 39.6763C88.0709 39.6763 85.0651 38.474 82.8609 35.9692C80.6567 33.4643 79.5545 29.9576 79.5545 25.4489C79.5545 21.1406 80.7569 17.7341 83.1615 15.0289C85.5661 12.3237 88.5719 11.0212 92.1788 11.0212C95.7858 11.0212 98.5912 12.2235 100.495 14.5279C102.499 16.8324 103.4 20.0385 103.4 24.2466V26.4509H103.501ZM98.9919 22.7437C98.9919 20.2389 98.3908 18.2351 97.1885 16.8324C95.9861 15.4297 94.2829 14.7283 92.1788 14.7283C90.0748 14.7283 88.3715 15.4297 86.8686 16.9326C85.4659 18.4354 84.5642 20.3391 84.1634 22.7437H98.9919ZM105.905 37.7727V34.7669C108.711 36.5703 111.416 37.3719 114.321 37.3719C117.327 37.3719 119.632 36.7707 121.135 35.4682C122.738 34.2659 123.439 32.4624 123.439 30.2582C123.439 28.2543 122.938 26.7514 121.836 25.5491C120.834 24.3468 118.529 22.7437 115.023 20.7399C111.115 18.4355 108.61 16.5318 107.609 15.0289C106.607 13.526 106.005 11.7226 106.005 9.7187C106.005 7.0135 107.108 4.70904 109.212 2.80538C111.316 0.901722 114.121 0 117.628 0C119.932 0 122.237 0.400783 124.541 1.20232V4.00771C122.237 3.00578 119.832 2.50482 117.327 2.50482C114.722 2.50482 112.618 3.20617 111.115 4.50867C109.612 5.81118 108.811 7.51445 108.811 9.5183C108.811 11.5222 109.312 13.0251 110.414 14.2274C111.416 15.4297 113.72 16.9326 117.227 18.9364C120.834 20.9403 123.239 22.7437 124.441 24.3468C125.643 25.9499 126.244 27.7534 126.244 29.8574C126.244 32.763 125.242 35.1676 123.138 37.0713C121.135 38.975 118.229 39.8767 114.422 39.8767C113.119 39.8767 111.616 39.6763 109.813 39.2755C108.21 38.7746 106.907 38.2736 105.905 37.7727ZM149.489 37.8728C147.485 39.0751 144.98 39.7765 142.175 39.7765C138.468 39.7765 135.462 38.474 133.158 35.9692C130.853 33.3642 129.751 30.0578 129.751 25.8497C129.751 21.4412 131.054 17.9345 133.659 15.1291C136.264 12.3237 139.57 10.921 143.578 10.921C145.682 10.921 147.686 11.3218 149.689 12.2235V15.0289C147.686 13.8266 145.582 13.2254 143.177 13.2254C139.971 13.2254 137.366 14.4278 135.362 16.7322C133.358 19.0366 132.356 22.0424 132.356 25.7495C132.356 29.3565 133.258 32.1618 135.061 34.3661C136.865 36.5703 139.269 37.5723 142.275 37.5723C144.98 37.5723 147.385 36.8709 149.489 35.368V37.8728ZM166.121 14.2274C165.319 13.6262 164.318 13.3256 163.215 13.3256C161.011 13.3256 159.208 14.4278 157.805 16.632C156.302 18.8362 155.601 22.0424 155.601 26.1503V39.0751H153.196V11.6224H155.601V17.7341H155.701C156.302 15.6301 157.304 14.027 158.707 12.8247C160.109 11.6223 161.612 11.1214 163.416 11.1214C164.418 11.1214 165.319 11.3218 166.121 11.6224V14.2274ZM170.329 4.70907C169.828 4.70907 169.327 4.50868 168.926 4.10791C168.526 3.70714 168.325 3.20617 168.325 2.60502C168.325 2.00386 168.526 1.5029 168.926 1.20232C169.327 0.801554 169.828 0.701361 170.329 0.701361C170.93 0.701361 171.331 0.901746 171.832 1.20232C172.233 1.6031 172.433 2.00386 172.433 2.60502C172.433 3.20617 172.233 3.70714 171.832 4.10791C171.331 4.50868 170.93 4.70907 170.329 4.70907ZM169.127 39.1753V11.7226H171.632V39.1753H169.127ZM180.248 34.2659H180.148V51.7996H177.643V11.7226H180.148V17.4335H180.248C181.25 15.4297 182.653 13.8266 184.456 12.7245C186.26 11.6224 188.264 11.1214 190.468 11.1214C193.975 11.1214 196.68 12.3237 198.684 14.7283C200.687 17.133 201.589 20.4393 201.589 24.5472C201.589 29.1561 200.487 32.8632 198.183 35.6686C195.978 38.474 192.973 39.8767 189.266 39.8767C185.258 39.7765 182.252 37.973 180.248 34.2659ZM180.148 24.0462V27.553C180.148 30.3584 181.05 32.6628 182.753 34.6667C184.456 36.6705 186.761 37.6725 189.566 37.6725C192.372 37.6725 194.676 36.4701 196.379 34.0655C198.082 31.6609 198.984 28.4547 198.984 24.5472C198.984 21.1407 198.183 18.3352 196.58 16.3314C194.977 14.3275 192.772 13.3256 190.167 13.3256C186.961 13.3256 184.456 14.4277 182.753 16.5318C181.05 18.6358 180.148 21.1407 180.148 24.0462ZM216.919 38.7746C215.616 39.3757 214.414 39.6763 213.312 39.6763C209.204 39.6763 207.2 37.2717 207.2 32.3622V13.9268H202.291V11.6224H207.2V4.50867C207.601 4.40848 208.002 4.2081 208.402 4.10791C208.803 4.00771 209.204 3.80733 209.605 3.70714V11.7226H216.819V14.027H209.605V32.1619C209.605 34.0655 209.905 35.4682 210.506 36.2698C211.108 37.0713 212.109 37.5723 213.512 37.5723C214.514 37.5723 215.616 37.2717 216.819 36.5703V38.7746H216.919Z" fill="black"/>
</g>
<defs>
<clipPath id="clip0">
<rect width="216.917" height="52" fill="white"/>
</clipPath>
</defs>
</svg>
