<svg xmlns="http://www.w3.org/2000/svg" width="64" height="90" fill="none"><path fill="#2083D2" fill-opacity=".1" d="M57.998 45.694L44.554 32.325c-7.424-7.383-19.462-7.383-26.886 0l-12.1 12.032c-7.424 7.383-7.424 19.354 0 26.737l13.444 13.369c7.425 7.383 19.462 7.383 26.887 0L57.998 72.43c7.425-7.383 7.425-19.354 0-26.737z"/><path fill="#2083D2" d="M33.492 46.099c7.632 0 13.819-6.153 13.819-13.743 0-7.59-6.187-13.742-13.82-13.742-7.632 0-13.819 6.153-13.819 13.742 0 7.59 6.187 13.743 13.82 13.743z"/><path stroke="#004279" stroke-linecap="round" stroke-linejoin="round" stroke-width="2.5" d="M37.277 68.8v3.385c0 .706-.282 1.383-.784 1.883-.503.5-1.184.78-1.894.78h-2.68c-.71 0-1.39-.28-1.893-.78a2.657 2.657 0 01-.784-1.883V68.8c.813.47 1.736.72 2.678.723h2.678a5.39 5.39 0 002.68-.723v0z"/><path stroke="#004279" stroke-linecap="round" stroke-linejoin="round" stroke-width="2.5" d="M39.955 58.865v5.327a5.316 5.316 0 01-1.57 3.768 5.37 5.37 0 01-3.788 1.56H31.92a5.374 5.374 0 01-3.788-1.56 5.316 5.316 0 01-1.57-3.768v-5.327h13.394zm13.395-28.21a19.89 19.89 0 01-1.932 8.784 19.996 19.996 0 01-5.608 7.052 14.976 14.976 0 00-4.262 5.148 14.895 14.895 0 00-1.59 6.478v.746H26.565v-.746a14.12 14.12 0 00-1.404-6.296 14.197 14.197 0 00-4.062-5.028 20.002 20.002 0 01-6.227-7.86 19.873 19.873 0 011.791-19.292 20.051 20.051 0 017.569-6.592 20.173 20.173 0 019.834-2.116 20.15 20.15 0 019.633 2.892 20.023 20.023 0 017.014 7.174 19.884 19.884 0 012.636 9.656v0zM33.238 57.671v-8.68m0-41.949V1.256M16.21 13.943l-3.79-3.77M9.964 30.187H4.145m52.367 0h5.818M50.309 13.943l3.79-3.77"/><path fill="#fff" d="M36.095 21.925l-7.398 9.76a1.896 1.896 0 00-.271 1.758 1.287 1.287 0 001.135 1.012h4.414l-2.811 3.743a1.92 1.92 0 000 2.277 1.001 1.001 0 001.726 0l4.933-6.51a1.892 1.892 0 00.271-1.757 1.286 1.286 0 00-1.135-1.013h-4.416l5.277-6.996a1.989 1.989 0 000-2.277 1.013 1.013 0 00-.863-.475 1.026 1.026 0 00-.864.475l.002.003z"/></svg>