<svg width="48" height="48" viewBox="0 0 48 48" fill="none" xmlns="http://www.w3.org/2000/svg">
<path fill-rule="evenodd" clip-rule="evenodd" d="M2 0H46C47.1 0 48 0.9 48 2V38C48 39.1 47.1 40 46 40H34V38H46V2H2V38H14V40H2C0.9 40 0 39.1 0 38V2C0 0.9 0.9 0 2 0Z" fill="#37474F"/>
<path d="M46 9H2V11H46V9Z" fill="#37474F"/>
<path d="M6.5 7C7.32843 7 8 6.32843 8 5.5C8 4.67157 7.32843 4 6.5 4C5.67157 4 5 4.67157 5 5.5C5 6.32843 5.67157 7 6.5 7Z" fill="#37474F"/>
<path d="M11.5 7C12.3284 7 13 6.32843 13 5.5C13 4.67157 12.3284 4 11.5 4C10.6716 4 10 4.67157 10 5.5C10 6.32843 10.6716 7 11.5 7Z" fill="#37474F"/>
<path d="M16.5 7C17.3284 7 18 6.32843 18 5.5C18 4.67157 17.3284 4 16.5 4C15.6716 4 15 4.67157 15 5.5C15 6.32843 15.6716 7 16.5 7Z" fill="#37474F"/>
<path d="M41.5 7H30.5C29.7 7 29 6.3 29 5.5C29 4.7 29.7 4 30.5 4H41.5C42.3 4 43 4.7 43 5.5C43 6.3 42.3 7 41.5 7Z" fill="#37474F"/>
<path fill-rule="evenodd" clip-rule="evenodd" d="M26 37C26 38.1046 25.1046 39 24 39C22.8954 39 22 38.1046 22 37C22 35.8954 22.8954 35 24 35C25.1046 35 26 35.8954 26 37ZM27.4503 39.0251C27.7996 38.4311 28 37.7389 28 37C28 34.7909 26.2091 33 24 33C21.7909 33 20 34.7909 20 37C20 37.7389 20.2004 38.4311 20.5497 39.0251C18.5526 39.2488 17 40.9431 17 43V46V48H19H29H31V46V43C31 40.9431 29.4474 39.2488 27.4503 39.0251ZM24 41H21C19.8954 41 19 41.8954 19 43V46H29V43C29 41.8954 28.1046 41 27 41H24Z" fill="#2083D2"/>
<rect x="7" y="16" width="24" height="11" stroke="#2083D2" stroke-width="2"/>
<rect x="34" y="15" width="8" height="2" fill="#2083D2"/>
<path fill-rule="evenodd" clip-rule="evenodd" d="M34 20L36 28L37.5286 24.9428L40.5723 27.9865L41.9865 26.5723L38.9428 23.5286L42 22L34 20Z" fill="#2083D2"/>
</svg>
