<svg xmlns="http://www.w3.org/2000/svg" width="470" height="381" fill="none" viewBox="0 0 470 381">
    <rect width="100.066" height="100.066" x="29.113" y="268.926" fill="#3C4D55" rx="16"/>
    <rect width="100.066" height="100.066" x="369.336" y="260.921" fill="#3C4D55" rx="16"/>
    <rect width="100.066" height="100.066" x="89.152" y="16.761" fill="#3C4D55" rx="16"/>
    <rect width="45.03" height="45.03" x="199.225" y="119.828" fill="#3C4D55" rx="10"/>
    <rect width="63.041" height="63.041" x="387.348" y="18.762" fill="#3B4C55" rx="10"/>
    <rect width="37.024" height="37.024" x="113.195" y="203.884" fill="#3B4C55" rx="4"/>
    <path fill="#FF8F00" d="M397.066 90.003l13.381 1.704-8.166 10.736-5.215-12.44zM71.852 88.002l13.38 1.704-8.165 10.736-5.215-12.44z"/>
    <path fill="#06AAF5" d="M4.778 137.064l8.534 10.446-13.314 2.167 4.78-12.613z"/>
    <path fill="#FFF9C4" d="M268.979 0l8.534 10.446-13.314 2.167L268.979 0zM406.042 298.196l8.533 10.446-13.313 2.167 4.78-12.613z"/>
    <path fill="#FFD037" d="M147.193 171.405l-9.661 9.414-3.322-13.074 12.983 3.66z"/>
    <path fill="#8CC440" d="M57.84 334.22l8.534 10.446-13.313 2.167 4.78-12.613zM327.991 159.105l8.533 10.446-13.313 2.167 4.78-12.613z"/>
    <circle cx="141.214" cy="25.767" r="4.003" fill="#8CC440"/>
    <circle cx="428.375" cy="157.853" r="4.003" fill="#8CC440"/>
    <circle cx="40.148" cy="226.899" r="4.003" fill="#FF8F00"/>
    <circle cx="335.341" cy="46.78" r="4.003" fill="#FF8F00"/>
    <circle cx="174.236" cy="315.957" r="4.003" fill="#FF8F00"/>
    <circle cx="233.274" cy="213.89" r="146.597" stroke="#fff" stroke-dasharray="8 4"/>
    <path fill="#3B4C55" d="M173.172 169.124H293.328V251.211H173.172z"/>
    <path fill="#FFD037" fill-rule="evenodd" d="M216.029 191.169c.39-.391 1.024-.391 1.415 0l8.505 8.505c.391.391.391 1.025 0 1.416l-8.505 8.505c-.391.391-1.025.391-1.415 0-.391-.391-.391-1.024 0-1.415l7.798-7.798-7.798-7.798c-.391-.391-.391-1.024 0-1.415zM202.434 191.169c-.391-.391-1.024-.391-1.415 0l-8.506 8.505c-.391.391-.391 1.025 0 1.416l8.506 8.505c.391.391 1.024.391 1.415 0s.391-1.024 0-1.415l-7.798-7.798 7.798-7.798c.391-.391.391-1.024 0-1.415zM214.056 185.925c.524.178.804.746.626 1.27l-9.006 26.517c-.178.523-.746.804-1.269.626-.524-.178-.804-.746-.626-1.269l9.006-26.518c.178-.523.746-.803 1.269-.626z" clip-rule="evenodd"/>
    <path fill="#fff" d="M223.845 258.78c0-.669.533-1.205 1.199-1.205h17.28c.667 0 1.204.535 1.204 1.205 0 .667-.537 1.206-1.204 1.206h-17.28c-.664-.001-1.199-.54-1.199-1.206zm69.486-7.665H173.546v-80.237h119.785v80.237zm23.818 8.255c0-1.785-1.443-3.231-3.221-3.231v-.23h-17.087c.871-.39 1.483-1.264 1.483-2.288v-85.256c0-1.385-1.116-2.506-2.499-2.506H171.048c-1.374 0-2.494 1.121-2.494 2.506v85.255c0 1.017.61 1.898 1.481 2.288h-16.596v.224c-1.777-.002-3.219 1.447-3.219 3.234s1.442 3.236 3.219 3.236h160.489c1.78-.002 3.221-1.448 3.221-3.232z"/>
    <circle cx="177.238" cy="74.799" r="24.016" fill="#7E57C2"/>
    <circle cx="177.238" cy="74.799" r="18.012" fill="#fff"/>
    <path fill="#263238" d="M184.448 78.139c-1.075 0-2.042.46-2.729 1.194l-8.024-3.995c.028-.188.047-.378.047-.573 0-.191-.018-.377-.044-.56l8.011-3.95c.687.74 1.659 1.204 2.739 1.204 2.082 0 3.769-1.716 3.769-3.834 0-2.117-1.687-3.833-3.769-3.833s-3.77 1.716-3.77 3.833c0 .19.019.376.045.56l-8.012 3.95c-.687-.74-1.658-1.204-2.739-1.204-2.082 0-3.769 1.716-3.769 3.834 0 2.117 1.687 3.833 3.769 3.833 1.076 0 2.043-.46 2.73-1.194l8.023 3.995c-.028.187-.047.378-.047.573 0 2.118 1.688 3.834 3.77 3.834s3.769-1.716 3.769-3.834c0-2.117-1.687-3.833-3.769-3.833z"/>
    <circle cx="213.261" cy="356.984" r="24.016" fill="#7E57C2"/>
    <circle cx="213.261" cy="356.984" r="18.012" fill="#fff"/>
    <path fill="#263238" d="M212.142 364.357c0-.111.086-.2.194-.2h2.796c.109 0 .195.089.195.2 0 .11-.086.2-.195.2h-2.796c-.108-.001-.194-.09-.194-.2zm15.101.098c0-.296-.233-.535-.521-.535v-.038h-2.766c.141-.065.24-.209.24-.379v-14.109c0-.229-.18-.415-.404-.415h-20.196c-.222 0-.403.186-.403.415v14.109c0 .168.098.314.239.379h-2.686v.037c-.287-.001-.521.239-.521.535 0 .296.234.535.521.535h25.976c.288 0 .521-.239.521-.534z"/>
    <circle cx="103.189" cy="286.938" r="24.016" fill="#7E57C2"/>
    <circle cx="103.189" cy="286.938" r="18.012" fill="#fff"/>
    <path fill="#263238" d="M97.003 285.983c0 .343.037.621.102.824.074.204.167.427.297.667.046.075.064.149.064.214 0 .092-.055.185-.175.277l-.584.39c-.083.055-.167.083-.241.083-.093 0-.185-.046-.278-.13-.13-.139-.24-.287-.333-.435-.093-.158-.186-.334-.288-.547-.722.853-1.63 1.279-2.723 1.279-.778 0-1.4-.223-1.853-.667-.454-.445-.686-1.038-.686-1.779 0-.787.278-1.427.843-1.908.566-.482 1.316-.723 2.27-.723.315 0 .64.028.982.074.343.046.695.121 1.066.204v-.676c0-.704-.149-1.195-.436-1.483-.296-.287-.797-.426-1.51-.426-.324 0-.658.037-1 .121-.343.083-.677.185-1.001.315-.148.065-.26.102-.324.12-.065.019-.111.028-.148.028-.13 0-.195-.093-.195-.287v-.454c0-.148.019-.26.065-.324.046-.065.13-.13.26-.195.323-.167.713-.306 1.166-.417.454-.12.936-.176 1.446-.176 1.102 0 1.908.25 2.427.75.51.501.769 1.26.769 2.279v3.002h.018zm-3.76 1.408c.305 0 .62-.055.953-.167.334-.111.63-.315.88-.593.149-.176.26-.37.315-.592.056-.223.093-.491.093-.806v-.389c-.269-.065-.556-.121-.852-.158-.297-.037-.584-.056-.871-.056-.62 0-1.075.121-1.38.371-.306.25-.454.602-.454 1.065 0 .436.11.76.342.982.223.232.547.343.973.343zm7.438 1.001c-.167 0-.278-.028-.352-.093-.074-.056-.139-.185-.194-.361l-2.178-7.161c-.055-.186-.083-.306-.083-.371 0-.148.074-.232.223-.232h.907c.176 0 .297.028.362.093.074.056.13.185.185.361l1.556 6.133 1.445-6.133c.047-.185.102-.305.176-.361.075-.055.204-.093.371-.093h.741c.176 0 .297.028.371.093.074.056.139.185.176.361l1.463 6.207 1.603-6.207c.056-.185.121-.305.185-.361.074-.055.195-.093.362-.093h.861c.148 0 .232.075.232.232 0 .046-.009.093-.019.148-.009.056-.028.13-.065.232l-2.232 7.161c-.056.185-.121.306-.195.361-.074.056-.194.093-.352.093h-.796c-.176 0-.297-.028-.371-.093-.074-.065-.139-.185-.176-.37l-1.436-5.976-1.427 5.966c-.046.186-.102.306-.176.371s-.203.093-.37.093h-.797zm11.904.25c-.481 0-.963-.056-1.426-.167-.464-.111-.825-.232-1.066-.371-.148-.083-.25-.176-.287-.259-.037-.083-.055-.176-.055-.259v-.473c0-.194.074-.287.213-.287.055 0 .111.009.166.028.056.018.139.055.232.092.315.139.658.251 1.019.325.371.074.732.111 1.102.111.584 0 1.038-.102 1.353-.306.315-.204.482-.5.482-.88 0-.259-.084-.472-.25-.648-.167-.176-.482-.334-.936-.482l-1.343-.417c-.677-.213-1.177-.528-1.483-.945-.305-.408-.463-.862-.463-1.343 0-.389.084-.732.25-1.029.167-.296.389-.555.667-.759.278-.213.593-.371.964-.482.37-.111.759-.157 1.167-.157.204 0 .417.009.621.037.213.027.407.064.602.102.185.046.361.092.528.148.167.055.296.111.389.167.13.074.222.148.278.231.056.074.083.176.083.306v.435c0 .195-.074.297-.213.297-.074 0-.194-.037-.352-.111-.528-.241-1.121-.362-1.778-.362-.529 0-.945.084-1.233.26-.287.176-.435.444-.435.824 0 .26.093.482.278.658.185.176.528.352 1.019.509l1.315.417c.667.213 1.149.51 1.436.89.288.379.427.815.427 1.297 0 .398-.084.759-.241 1.074-.167.315-.389.593-.677.815-.287.232-.63.399-1.028.519-.417.13-.852.195-1.325.195z"/>
    <path fill="#263238" fill-rule="evenodd" d="M114.335 293.144c-3.048 2.251-7.476 3.446-11.284 3.446-5.336 0-10.144-1.973-13.775-5.253-.287-.259-.028-.611.315-.407 3.928 2.279 8.773 3.659 13.785 3.659 3.381 0 7.096-.704 10.514-2.149.51-.232.945.333.445.704z" clip-rule="evenodd"/>
    <path fill="#263238" fill-rule="evenodd" d="M115.602 291.699c-.389-.5-2.575-.241-3.566-.121-.297.038-.343-.222-.074-.416 1.741-1.223 4.604-.871 4.937-.464.334.417-.092 3.28-1.723 4.651-.25.213-.491.102-.38-.176.371-.917 1.195-2.983.806-3.474z" clip-rule="evenodd"/>
    <circle cx="377.369" cy="190.875" r="24.016" fill="#7E57C2"/>
    <circle cx="377.369" cy="190.875" r="18.012" fill="#fff"/>
    <path fill="#37474F" stroke="#37474F" stroke-miterlimit="10" d="M389.85 191.776c0-2.302-1.801-4.203-4.103-4.403.701-.601 1.101-1.501 1.101-2.502 0-1.901-1.601-3.502-3.502-3.502-1.902 0-3.503 1.601-3.503 3.502 0 1.001.401 1.901 1.101 2.502-.3 0-.7.1-1.001.2-.6-.701-1.601-1.201-2.601-1.201-1.001 0-2.002.5-2.602 1.201-.3-.1-.6-.1-1.001-.2.701-.601 1.101-1.501 1.101-2.502 0-1.901-1.601-3.502-3.502-3.502-1.901 0-3.503 1.601-3.503 3.502 0 1.001.401 1.901 1.101 2.502-2.301.2-4.103 2.101-4.103 4.403v3.602h6.205c-.201.4-.201.901-.201 1.401v3.602h13.009v-3.602c0-.5-.1-1.001-.2-1.401h6.204v-3.602zm-9.006-6.905c0-1.401 1.101-2.502 2.502-2.502 1.401 0 2.501 1.101 2.501 2.502 0 1.401-1.1 2.502-2.501 2.502-1.401 0-2.502-1.101-2.502-2.502zm-3.502 2.502c.6 0 1.201.2 1.701.6.3.2.5.5.6.801.1.3.2.7.2 1.1 0 1.201-.9 2.202-2.001 2.402-.2 0-.3.1-.5.1s-.3 0-.501-.1c-1.1-.2-2.001-1.201-2.001-2.402 0-.4.1-.8.2-1.1.2-.301.4-.601.601-.801.5-.4 1.1-.6 1.701-.6zm-8.506-2.502c0-1.401 1.101-2.502 2.502-2.502 1.401 0 2.501 1.101 2.501 2.502 0 1.401-1.1 2.502-2.501 2.502-1.401 0-2.502-1.101-2.502-2.502zm-3.002 9.506v-2.601c0-1.902 1.501-3.403 3.402-3.403h4.203c.3 0 .5 0 .701.1-.201.401-.301.901-.301 1.401 0 1.001.401 1.902 1.101 2.502-1.401.1-2.602.901-3.402 2.001h-5.704zm17.011 2.402v2.602h-11.007v-2.602c0-.5.1-1.001.3-1.401.2-.4.401-.7.701-1.001.6-.6 1.501-1 2.401-1H379.443c.901 0 1.801.4 2.402 1 .3.301.5.601.7 1.001.2.4.3.901.3 1.401zm6.004-2.402h-5.703c-.701-1.1-2.002-1.901-3.403-2.001.701-.6 1.101-1.501 1.101-2.502 0-.5-.1-1-.3-1.401.2 0 .5-.1.7-.1h4.203c1.901 0 3.402 1.501 3.402 3.403v2.601z"/>
    <circle cx="307.323" cy="87.807" r="24.016" fill="#7E57C2"/>
    <circle cx="307.323" cy="87.807" r="18.012" fill="#fff"/>
    <path fill="#263238" fill-rule="evenodd" d="M307.296 77.8c-5.504 0-10.007 4.504-10.007 10.007 0 5.504 4.503 10.007 10.007 10.007 5.503 0 10.006-4.503 10.006-10.007 0-5.503-4.503-10.006-10.006-10.006zm6.904 6.005h-2.902c-.3-1.301-.8-2.402-1.401-3.603 1.802.7 3.403 1.902 4.303 3.603zm-6.904-4.003c.8 1.2 1.501 2.502 1.901 4.003h-3.803c.401-1.401 1.101-2.802 1.902-4.003zm-7.705 10.007c-.201-.6-.301-1.301-.301-2.002 0-.7.1-1.4.301-2.001h3.402c-.1.7-.1 1.3-.1 2.001 0 .7.1 1.301.1 2.002h-3.402zm.8 2.001h2.902c.3 1.3.801 2.401 1.401 3.602-1.801-.7-3.402-1.9-4.303-3.602zm2.902-8.005h-2.902c1.001-1.701 2.502-2.902 4.303-3.603-.6 1.201-1.101 2.302-1.401 3.603zm4.003 12.008c-.801-1.201-1.501-2.502-1.902-4.003h3.803c-.4 1.4-1.101 2.802-1.901 4.003zm2.301-6.004h-4.603c-.1-.7-.2-1.301-.2-2.002 0-.7.1-1.3.2-2.001h4.703c.1.7.2 1.3.2 2.001 0 .7-.2 1.301-.3 2.002zm.3 5.603c.601-1.1 1.101-2.301 1.401-3.602h2.902c-.9 1.701-2.501 2.902-4.303 3.602zm1.802-5.603c.1-.7.1-1.301.1-2.002 0-.7-.1-1.3-.1-2.001h3.402c.2.6.3 1.3.3 2.001 0 .7-.1 1.401-.3 2.002h-3.402z" clip-rule="evenodd"/>
    <circle cx="340.345" cy="312.955" r="24.016" fill="#7E57C2"/>
    <circle cx="340.345" cy="312.955" r="18.012" fill="#fff"/>
    <path fill="#263238" fill-rule="evenodd" d="M351.207 312.32c1.832.744 3.12 2.54 3.12 4.638 0 2.758-2.24 5.003-5.003 5.003h-17.012c-2.769 0-5.003-2.24-5.003-5.003 0-2.052 1.24-3.821 3.014-4.592-.008-.136-.012-.273-.012-.411 0-3.869 3.136-7.005 7.004-7.005 2.615 0 4.895 1.432 6.098 3.555.728-.354 1.545-.553 2.408-.553 2.65 0 4.863 1.873 5.386 4.368z" clip-rule="evenodd"/>
    <circle cx="92.182" cy="164.858" r="24.016" fill="#7E57C2"/>
    <circle cx="92.182" cy="164.858" r="18.012" fill="#fff"/>
    <path fill="#263238" d="M103.162 164.833c0-1.599-.403-3.106-1.113-4.432.2-.497.436-1.176.693-2.09.829-2.956-1.078-4.717-4.006-4.43-1.778.174-3.452.646-5.07 1.351-.13-.004-.261-.008-.393-.008-4.87 0-8.916 3.419-9.737 7.921 2.034-2.855 5.002-4.368 5.002-4.368-2.026 2.062-3.774 4.091-5.072 6.23-.024.039-.049.077-.072.117-1.084 1.812-1.842 3.705-2.168 5.765-.447 2.826 1.014 4.335 4.136 3.902 1.072-.149 3.016-1.059 3.566-1.325 1.312.625 2.786.976 4.345.976 4.305 0 7.967-2.674 9.325-6.406h-5.352c-.76 1.287-2.187 2.155-3.823 2.155-2.363 0-4.29-1.808-4.4-4.077h14.051c.057-.419.088-.847.088-1.281zm-17.74 9.259c-1.67.171-3.826-1.596-1.368-5.778.792 1.981 2.242 3.643 4.088 4.734-.51.279-1.82.952-2.72 1.044zm3.633-10.831c.28-2.103 2.128-3.727 4.367-3.727 2.24 0 4.088 1.624 4.368 3.727h-8.735zm7.921-7.34c4.17-1.899 5.685.13 5.227 2.198-.063.285-.293 1.043-.496 1.697-1.1-1.744-2.757-3.119-4.73-3.895z"/>
    <rect width="33.022" height="10.007" x="244.254" y="185.872" fill="#8CC440" rx="2"/>
    <rect width="10.007" height="10.007" x="191.219" y="224.897" fill="#8CC440" rx="2"/>
    <rect width="33.022" height="3.002" x="244.254" y="202.883" fill="#8CC440" rx="1.5"/>
    <rect width="33.022" height="3.002" x="244.254" y="224.897" fill="#8CC440" rx="1.5"/>
    <rect width="21.014" height="3.002" x="206.229" y="224.897" fill="#8CC440" rx="1.5"/>
    <rect width="33.022" height="3.002" x="244.254" y="209.888" fill="#8CC440" rx="1.5"/>
    <rect width="33.022" height="3.002" x="244.254" y="231.902" fill="#8CC440" rx="1.5"/>
    <rect width="21.014" height="3.002" x="206.229" y="231.902" fill="#8CC440" rx="1.5"/>
</svg>
