<svg xmlns="http://www.w3.org/2000/svg" width="72" height="72" fill="none"><path fill="#2083D2" d="M70.306 42.812H2.93v13.182h67.376V42.812z"/><path fill="#fff" d="M70.306 1.8H2.93v38.082h67.376V1.8z"/><path fill="#004279" d="M67.495 0H4.5A4.499 4.499 0 000 4.5v47.996a4.499 4.499 0 004.5 4.5h19.498v6.425l-3.48 1.155a1.497 1.497 0 00-1.026 1.425v3h-2.994V72h38.998v-3.006h-3v-3a1.5 1.5 0 00-1.025-1.424l-3.474-1.149v-6.425h19.498a4.498 4.498 0 003.181-1.318 4.498 4.498 0 001.318-3.182V4.5A4.502 4.502 0 0069.216.343 4.472 4.472 0 0067.495 0zM49.496 67.074v1.92H22.498v-1.92l3.24-1.08h16.258v-2.999H26.997V56.99h18v7.499a1.501 1.501 0 001.025 1.425l3.474 1.16zm19.498-14.58a1.49 1.49 0 01-.439 1.061 1.498 1.498 0 01-1.06.439H4.5a1.488 1.488 0 01-1.061-.439A1.487 1.487 0 013 52.495V43.5h65.994v8.994zm0-11.998H3V4.5a1.5 1.5 0 011.499-1.501h62.996a1.501 1.501 0 011.5 1.5v35.997z"/><path fill="#2083D2" d="M62.592 31.25l-2.21 2.212-5.853-5.853-.37-.37-.221.473-3.955 8.451-7.23-22.54 22.541 7.23-8.45 3.954-.474.222.37.369 5.852 5.853z"/><path fill="#fff" d="M62.075 31.25l-5.594-5.593-.739-.739.946-.442 7.606-3.56L43.32 14.19l6.727 20.974 3.56-7.606.442-.945.739.738 5.594 5.594 1.693-1.693zm1.036 0l-2.73 2.73-6.111-6.112-4.35 9.296-7.733-24.108 24.108 7.733-9.296 4.35 6.112 6.112z"/><g clip-path="url(#prefix__clip0)"><path fill="#004279" d="M19.7 16.8c-.4-.4-1-.4-1.4 0l-5 5c-.4.4-.4 1 0 1.4l5 5c.2.2.5.3.7.3.2 0 .5-.1.7-.3.4-.4.4-1 0-1.4l-4.3-4.3 4.3-4.3c.4-.4.4-1 0-1.4zm15 5l-5-5c-.4-.4-1-.4-1.4 0-.4.4-.4 1 0 1.4l4.3 4.3-4.3 4.3c-.4.4-.4 1 0 1.4.2.2.5.3.7.3.2 0 .5-.1.7-.3l5-5c.4-.4.4-1 0-1.4zm-7.9-7.7c-.5-.2-1.1.1-1.3.6l-5 15c-.2.5.1 1.1.6 1.3h.4c.4 0 .8-.3.9-.7l5-15c.2-.5-.1-1.1-.6-1.2z"/></g><defs><clipPath id="prefix__clip0"><path fill="#fff" d="M13 14h22v17H13z"/></clipPath></defs></svg>