<svg width="459" height="420" fill="none" xmlns="http://www.w3.org/2000/svg"><path fill="#F3F8FD" d="M7 36h430v361H7z"/><circle cx="269.5" cy="308.5" r="91" stroke="#575A89" stroke-linejoin="round" stroke-dasharray="8 4"/><circle cx="130.5" cy="157.5" r="91" stroke="#575A89" stroke-linejoin="round" stroke-dasharray="8 4"/><path d="M434.815 104H95v217.245h339.815V104z" fill="#E6E6E6"/><path d="M248.099 133.365H125.422v125.834h122.677V133.365zM416.658 135.805H293.98v152.833h122.678V135.805z" fill="#fff"/><path d="M415.023 337.233c12.136 0 21.975-1.403 21.975-3.134 0-1.731-9.839-3.134-21.975-3.134-12.137 0-21.976 1.403-21.976 3.134 0 1.731 9.839 3.134 21.976 3.134zM195.316 337.303c12.136 0 21.975-1.403 21.975-3.134 0-1.731-9.839-3.134-21.975-3.134-12.137 0-21.976 1.403-21.976 3.134 0 1.731 9.839 3.134 21.976 3.134zM57.435 333.446c27.855 0 50.436-1.079 50.436-2.411 0-1.331-22.58-2.41-50.436-2.41-27.854 0-50.435 1.079-50.435 2.41 0 1.332 22.58 2.411 50.435 2.411z" fill="#E6E6E6"/><path d="M435.041 104H95.227v14.411H435.04V104z" fill="#1976D2"/><path d="M105.957 114.039a2.674 2.674 0 002.676-2.671 2.674 2.674 0 00-2.676-2.671 2.674 2.674 0 00-2.676 2.671 2.674 2.674 0 002.676 2.671zM116.113 114.039a2.674 2.674 0 002.676-2.671 2.674 2.674 0 00-2.676-2.671 2.673 2.673 0 00-2.675 2.671 2.673 2.673 0 002.675 2.671zM126.269 114.039a2.674 2.674 0 002.676-2.671 2.674 2.674 0 00-2.676-2.671 2.673 2.673 0 00-2.675 2.671 2.673 2.673 0 002.675 2.671z" fill="#E6E6E6"/><path d="M389.611 176.8h-.743v-20.322a11.77 11.77 0 00-7.273-10.866 11.805 11.805 0 00-4.509-.895h-43.131a11.797 11.797 0 00-8.332 3.444 11.77 11.77 0 00-3.451 8.317v111.487a11.745 11.745 0 003.451 8.317 11.78 11.78 0 003.823 2.549 11.78 11.78 0 004.509.896h43.131a11.787 11.787 0 0010.885-7.261c.593-1.427.897-2.956.897-4.501v-76.7h.743V176.8z" fill="#3F3D56"/><path d="M377.079 147.776h-5.63a4.165 4.165 0 01-1.905 5.259c-.605.322-1.28.49-1.965.49H342.87a4.184 4.184 0 01-3.47-1.845 4.173 4.173 0 01-.401-3.904h-5.258c-1.156 0-2.3.228-3.368.669a8.79 8.79 0 00-5.432 8.115v111.323a8.768 8.768 0 002.578 6.211 8.79 8.79 0 002.854 1.904 8.824 8.824 0 003.368.669h43.338c1.156 0 2.3-.228 3.368-.669a8.79 8.79 0 005.432-8.115V156.56c0-2.33-.928-4.564-2.578-6.211a8.808 8.808 0 00-6.222-2.573z" fill="#fff"/><path d="M229.479 212.852h-85.268v3.882h85.268v-3.882z" fill="#E6E6E6"/><path d="M229.479 225.387h-85.268v3.882h85.268v-3.882z" fill="#1976D2"/><path d="M229.479 237.922h-85.268v3.882h85.268v-3.882zM380.782 221.323h-49.778v3.882h49.778v-3.882zM380.782 233.375h-49.778v3.883h49.778v-3.883zM380.782 245.429h-49.778v3.882h49.778v-3.882z" fill="#E6E6E6"/><path d="M385.984 305.716v-8.282h-8.296v8.282h8.296z" fill="#3F3D56"/><path d="M372.621 305.716v-8.282h-8.296v8.282h8.296z" fill="#1976D2"/><path d="M359.254 305.716v-8.282h-8.296v8.282h8.296zM345.887 305.716v-8.282h-8.297v8.282h8.297zM332.52 305.716v-8.282h-8.297v8.282h8.297z" fill="#3F3D56"/><path d="M369.236 171.01h-27.654v27.606h27.654V171.01z" fill="#1976D2"/><path d="M175.852 236.87l-.358.714-1.074-5.359s-1.431-5.717 1.432-5.717c2.864 0 2.148 5.717 2.148 5.717v3.93l-2.148.715zM222.817 236.138l.358.715 1.074-5.36s1.432-5.717-1.432-5.717-2.148 5.717-2.148 5.717v3.93l2.148.715z" fill="#A0616A"/><path d="M191.604 277.053l-4.295 26.442 2.147 25.727 5.011-2.144-.715-19.295 5.011-15.365 1.074 18.223-2.148 18.938 6.443.715 4.654-38.948-.358-13.221-16.824-1.072z" fill="#2F2E41"/><path d="M191.603 326.006l-2.505 3.93v8.783a1.065 1.065 0 00.896 1.051c1.228.201 3.367.344 4.115-.901 1.074-1.786.358-5.717.358-5.717s1.432-2.858.716-5.002c-.716-2.144-1.432-2.502-1.432-2.502l-2.148.358zM202.342 329.579l.716 1.072s1.074 1.072.358 1.787a13.987 13.987 0 00-1.432 1.786s-3.937 1.072-3.937-.357v-4.645l4.295.357z" fill="#2F2E41"/><path d="M201.054 247.971a4.74 4.74 0 004.744-4.736 4.74 4.74 0 00-4.744-4.737 4.74 4.74 0 00-4.745 4.737 4.74 4.74 0 004.745 4.736z" fill="#A0616A"/><path d="M197.866 244.716l-.358 6.789 6.443.357-.358-6.789-5.727-.357z" fill="#A0616A"/><path d="M204.847 252.041l-1.016-2.478s-4.711-1.81-6.143-.024l-.716 2.144-5.727-1.429-3.222 7.147 2.864 20.367s7.517 9.647 17.54.357l2.863-19.295-2.147-7.504-4.296.715z" fill="#575A89"/><path d="M208.426 252.756l.716-1.43 7.159-4.288 4.369-12.91 3.381 1.447-3.813 15.394-10.381 9.647-1.431-7.86zM191.96 250.969l-.716-.715-7.517-4.645-5.369-10.719-4.296 1.429 4.654 13.22 11.454 9.291 1.79-7.861z" fill="#575A89"/><path d="M204.575 235.981l.776-.387-1.164-.387v-.387s-5.818-2.324-6.594 1.548a7.777 7.777 0 000 9.294v1.161l6.206.775.776-2.324s3.879-6.969 0-9.293z" fill="#2F2E41"/><path d="M62.585 277.473l-1.38.688s-5.516 2.524-3.907 3.901c1.609 1.376 5.976-1.377 5.976-1.377l.92-1.147-1.61-2.065z" fill="#FFB8B8"/><path d="M102.935 277.13l-4.262 28.564-6.436 19.962-3.448-1.606 3.218-27.304-9.195-7.801.69-11.472 19.433-.343z" fill="#2F2E41"/><path d="M88.33 324.738s3.908-2.065 4.138.918l-.46 2.983s1.38 5.277-3.218 4.13c-4.597-1.147-1.379-4.589-1.379-4.589l.92-3.442zM85.8 286.421l-2.987 2.524s0 15.602 2.068 17.896c2.069 2.295 15.17 13.997 15.63 14.455.46.459 2.529-4.588 2.529-4.588l-12.413-14.455.92-8.949-5.746-6.883z" fill="#2F2E41"/><path d="M101.662 316.019s3.678-.688 3.678 1.836a55.38 55.38 0 00.46 5.965s.919 8.031-2.069 6.884c-2.988-1.148-4.137-9.178-4.137-9.178a3.417 3.417 0 011.379-1.606c.919-.459.689-3.901.689-3.901z" fill="#2F2E41"/><path d="M90.17 243.056l.69 8.49-1.84 3.212-5.056-4.819-.46-6.424 6.665-.459z" fill="#FFB8B8"/><path d="M86.032 245.809a5.511 5.511 0 005.517-5.506 5.512 5.512 0 00-5.517-5.507 5.512 5.512 0 00-5.516 5.507 5.511 5.511 0 005.516 5.506z" fill="#FFB8B8"/><path d="M88.33 251.316l2.298-6.654 4.137 4.589 7.585 29.139-5.746 3.442-2.528-3.671-.46 4.818-11.263-2.294-.92-30.746 2.298-3.23 4.598 4.607z" fill="#D0CDE1"/><path d="M85.11 283.897l-1.379-37.17-2.988 2.295-5.516 3.671 3.677 13.078 1.15 13.767 5.056 4.359z" fill="#2F2E41"/><path d="M76.838 252.922l-1.61-.229-4.596 13.537-9.195 11.472 3.448 3.671 10.573-10.325 3.908-8.489-2.528-9.637z" fill="#2F2E41"/><path d="M101.941 277.683l-.314 1.507s-1.435 5.885.645 5.478c2.079-.407 2.621-5.535 2.621-5.535l-.332-1.431-2.62-.019z" fill="#FFB8B8"/><path d="M90.271 244.29l11.392 4.502-1.378 13.767 2.758 15.143-2.758 2.983-10.2-34.445.186-1.95zM86.32 231.054l1.62-.808v.808l1.079-.539v1.347s4.048 2.964 3.238 6.466c-.81 3.502-.81 3.771-.81 3.771s-1.023-6.66-5.07-5.582c-4.05 1.077-4.375 1.272-5.454 4.235l-.293 1.271s-4.565-10.43 5.69-10.969z" fill="#2F2E41"/><path d="M100.054 248.792h1.838l2.988 16.061v13.996l-3.677-.688-2.988-21.109 1.839-8.26z" fill="#2F2E41"/><path d="M76.48 282.758H8.707v47.012H76.48v-47.012z" fill="#1976D2"/><path d="M42.593 291.931c-2.84 0-5.616.84-7.977 2.415a14.34 14.34 0 00-5.289 6.433 14.308 14.308 0 003.113 15.62 14.381 14.381 0 0015.648 3.107 14.355 14.355 0 006.444-5.279 14.315 14.315 0 002.42-7.963 14.363 14.363 0 00-4.218-10.123 14.41 14.41 0 00-10.141-4.21zm0 4.3a4.304 4.304 0 014.225 5.138 4.298 4.298 0 01-3.385 3.379 4.31 4.31 0 01-5.148-4.218 4.311 4.311 0 011.266-3.036 4.324 4.324 0 013.042-1.263zm0 20.7a10.475 10.475 0 01-8.615-4.59c.069-2.866 5.743-4.444 8.615-4.444s8.546 1.578 8.615 4.444a10.485 10.485 0 01-8.615 4.59z" fill="#fff"/><path d="M229.263 147.829h-85.005v48.694h85.005v-48.694z" fill="#E6E6E6"/><path d="M397.348 244.41l.394-2.535s2.295-5.21.481-5.491c-1.815-.281-3.328 4.679-3.328 4.679l.663 5.296 1.79-1.949z" fill="#FFB8B8"/><path d="M415.925 258.786l-16.219-3.252-1.885-11.792-4.774-.368.233 15.246 14.092 7.375 8.553-7.209z" fill="#575A89"/><path opacity=".2" d="M415.925 258.786l-16.219-3.252-1.885-11.792-4.774-.368.233 15.246 14.092 7.375 8.553-7.209z" fill="#000"/><path d="M371.804 241.292h49.778v-3.883h-49.778v3.883z" fill="#1976D2"/><path d="M394.177 243.541l.003-2.566s1.476-5.497-.361-5.5c-1.836-.002-2.577 5.13-2.577 5.13l1.463 5.134 1.472-2.198z" fill="#FFB8B8"/><path d="M415.29 250.891l2.225-.542a5.737 5.737 0 004.439-2.094 5.722 5.722 0 001.184-4.757 7.468 7.468 0 00-2.187-5.288 7.488 7.488 0 00-5.292-2.196 7.496 7.496 0 00-5.298 2.182 7.482 7.482 0 00-2.2 5.283 5.934 5.934 0 001.427 5.755 5.957 5.957 0 005.702 1.657zM402.203 287.91l1.812 19.799 3.28 19.433 5.509.007-.71-19.064-2.909-23.099-6.982 2.924z" fill="#2F2E41"/><path d="M408.031 326.044l-3.675 2.195s-5.877.726-4.778 2.56c1.1 1.834 13.955.751 13.956.017.001-.733-.361-4.766-1.096-4.767l-4.407-.005zM418.463 286.199s-.103 2.831-2.679 7.227l.35 13.564 13.2 16.881-4.779 4.026-16.137-18.35-4.012-22.001 5.148-5.126 8.909 3.779z" fill="#2F2E41"/><path d="M428.231 323.869s4.406.739 3.669 2.571c-.737 1.832-2.584 10.262-7.356 9.156 0 0-2.204-.003-1.468-1.468a26.38 26.38 0 011.473-2.565l.006-4.765 3.676-2.929z" fill="#2F2E41"/><path d="M412.907 251.263a5.504 5.504 0 005.509-5.499 5.504 5.504 0 00-5.509-5.499 5.504 5.504 0 00-5.509 5.499 5.504 5.504 0 005.509 5.499z" fill="#FFB8B8"/><path d="M415.474 249.433l-.008 6.232-5.876-.007.742-6.231 5.142.006z" fill="#FFB8B8"/><path d="M408.124 253.457l1.78-.437 5.565.446s2.934 2.936 2.566 3.669c-.368.733-2.227 18.694-2.227 18.694l3.289 12.835-11.753.719-5.875-.741 1.131-23.094s-2.563-6.236.744-8.065a14.46 14.46 0 004.78-4.026z" fill="#575A89"/><path d="M414.732 254.932l-16.526-.754-3.658-11.369-4.775.36 2.552 15.034 15.051 5.151 7.356-8.422z" fill="#575A89"/><path d="M423.539 241.713a3.551 3.551 0 003.554-3.548 3.551 3.551 0 00-3.554-3.548 3.552 3.552 0 00-3.555 3.548 3.552 3.552 0 003.555 3.548z" fill="#2F2E41"/><path d="M420.258 236.258a3.538 3.538 0 011.303-2.742 3.547 3.547 0 012.951-.732 3.564 3.564 0 00-4.135.808 3.545 3.545 0 00-.454 4.181 3.547 3.547 0 002.373 1.694 3.545 3.545 0 01-2.038-3.209zM417.211 238.27l-4.792-.881-3.684 2.306a5.57 5.57 0 00-2.575 5.445l3.69-.934.827-2.068.984 1.61 3.993 6.969 4.042-2.195 2.576-4.029-5.061-6.223z" fill="#2F2E41"/><path d="M144.496 147.41l-.48.837 85.004 48.694.481-.836-85.005-48.695z" fill="#fff"/><path d="M229.024 147.414l-85.008 48.688.48.836 85.009-48.688-.481-.836zM342.14 170.63l-.683.681 27.53 27.481.683-.681-27.53-27.481z" fill="#fff"/><path d="M368.987 170.63l-27.53 27.481.683.681 27.53-27.481-.683-.681z" fill="#fff"/><g filter="url(#filter0_d)"><rect x="184" y="60" width="215" height="59" rx="10" fill="#fff"/><path d="M260.159 86.5c-.648-3.58-3.511-5.693-7.023-5.693-4.466 0-7.704 3.443-7.704 8.966s3.238 8.966 7.704 8.966c3.512 0 6.375-2.114 7.023-5.694h-2.114c-.511 2.42-2.59 3.716-4.909 3.716-3.17 0-5.659-2.454-5.659-6.988 0-4.534 2.489-6.989 5.659-6.989 2.319 0 4.398 1.295 4.909 3.716h2.114zm3.143 12h2.011v-8.284c0-1.773 1.398-3.068 3.307-3.068a6.14 6.14 0 011.227.136V85.24c-.23-.017-.758-.035-1.057-.035-1.568 0-2.931.887-3.409 2.182h-.136V85.41h-1.943V98.5zm14.02.273c2.659 0 4.602-1.33 5.216-3.307l-1.944-.545c-.511 1.363-1.696 2.045-3.272 2.045-2.361 0-3.989-1.526-4.083-4.33h9.503v-.852c0-4.875-2.898-6.545-5.625-6.545-3.545 0-5.898 2.795-5.898 6.818 0 4.022 2.319 6.716 6.103 6.716zm-4.083-7.875c.137-2.037 1.577-3.852 3.878-3.852 2.182 0 3.58 1.636 3.58 3.852h-7.458zm16.415 7.909c2.284 0 3.477-1.228 3.886-2.08h.103V98.5h2.011v-8.625c0-4.16-3.17-4.636-4.841-4.636-1.977 0-4.227.681-5.25 3.068l1.909.682c.443-.955 1.492-1.978 3.409-1.978 1.85 0 2.762.98 2.762 2.66v.068c0 .971-.989.886-3.375 1.193-2.429.315-5.08.852-5.08 3.852 0 2.557 1.977 4.023 4.466 4.023zm.307-1.807c-1.602 0-2.761-.716-2.761-2.114 0-1.534 1.397-2.011 2.965-2.215.853-.103 3.137-.342 3.478-.75v1.84c0 1.637-1.296 3.239-3.682 3.239zm15.057-11.59h-2.795v-3.137h-2.011v3.136h-1.978v1.705h1.978v8.181c0 2.284 1.841 3.376 3.545 3.376.75 0 1.227-.137 1.5-.24l-.409-1.806c-.17.034-.443.102-.886.102-.887 0-1.739-.273-1.739-1.977v-7.636h2.795v-1.705zm3.026 13.09h2.011V85.41h-2.011V98.5zm1.023-15.273c.784 0 1.432-.613 1.432-1.363s-.648-1.364-1.432-1.364c-.784 0-1.432.614-1.432 1.364 0 .75.648 1.363 1.432 1.363zm15.377 2.182h-2.182l-3.614 10.432h-.136l-3.614-10.432h-2.181l4.841 13.091h2.045l4.841-13.09zm7.675 13.364c2.659 0 4.602-1.33 5.216-3.307l-1.944-.545c-.511 1.363-1.696 2.045-3.272 2.045-2.361 0-3.989-1.526-4.083-4.33h9.503v-.852c0-4.875-2.898-6.545-5.625-6.545-3.545 0-5.898 2.795-5.898 6.818 0 4.022 2.319 6.716 6.103 6.716zm-4.083-7.875c.137-2.037 1.577-3.852 3.878-3.852 2.182 0 3.58 1.636 3.58 3.852h-7.458z" fill="#000"/></g><g filter="url(#filter1_d)"><rect x="60" y="301" width="244" height="59" rx="10" fill="#fff"/><path d="M122.114 339.5h2.113v-6.375h3.818c4.066 0 5.898-2.472 5.898-5.557 0-3.085-1.832-5.523-5.932-5.523h-5.897V339.5zm2.113-8.25v-7.33h3.716c2.838 0 3.921 1.552 3.921 3.648 0 2.097-1.083 3.682-3.887 3.682h-3.75zm16.701 8.557c2.284 0 3.477-1.227 3.886-2.08h.102v1.773h2.012v-8.625c0-4.159-3.171-4.636-4.841-4.636-1.978 0-4.228.681-5.25 3.068l1.909.682c.443-.955 1.491-1.978 3.409-1.978 1.849 0 2.761.98 2.761 2.659v.069c0 .971-.988.886-3.375 1.193-2.429.315-5.079.852-5.079 3.852 0 2.557 1.977 4.023 4.466 4.023zm.306-1.807c-1.602 0-2.761-.716-2.761-2.114 0-1.534 1.398-2.011 2.966-2.216.852-.102 3.136-.34 3.477-.75v1.841c0 1.637-1.295 3.239-3.682 3.239zm18.637-8.659c-.63-1.858-2.045-3.102-4.636-3.102-2.761 0-4.807 1.568-4.807 3.784 0 1.807 1.074 3.017 3.478 3.579l2.181.512c1.321.306 1.944.937 1.944 1.841 0 1.125-1.194 2.045-3.069 2.045-1.645 0-2.676-.707-3.034-2.114l-1.909.478c.469 2.224 2.301 3.409 4.977 3.409 3.043 0 5.114-1.662 5.114-3.921 0-1.824-1.142-2.974-3.477-3.545l-1.943-.477c-1.552-.384-2.25-.904-2.25-1.91 0-1.125 1.193-1.943 2.795-1.943 1.756 0 2.48.972 2.83 1.875l1.806-.511zm12.54 0c-.631-1.858-2.046-3.102-4.637-3.102-2.761 0-4.807 1.568-4.807 3.784 0 1.807 1.074 3.017 3.478 3.579l2.181.512c1.321.306 1.944.937 1.944 1.841 0 1.125-1.194 2.045-3.069 2.045-1.644 0-2.676-.707-3.034-2.114l-1.909.478c.469 2.224 2.301 3.409 4.978 3.409 3.042 0 5.113-1.662 5.113-3.921 0-1.824-1.142-2.974-3.477-3.545l-1.943-.477c-1.551-.384-2.25-.904-2.25-1.91 0-1.125 1.193-1.943 2.795-1.943 1.756 0 2.48.972 2.83 1.875l1.807-.511zm3.266 10.159h2.011v-13.091h-2.011V339.5zm1.023-15.273c.784 0 1.431-.613 1.431-1.363s-.647-1.364-1.431-1.364c-.785 0-1.432.614-1.432 1.364 0 .75.647 1.363 1.432 1.363zm9.99 15.546c3.546 0 5.932-2.693 5.932-6.75 0-4.091-2.386-6.784-5.932-6.784-3.545 0-5.931 2.693-5.931 6.784 0 4.057 2.386 6.75 5.931 6.75zm0-1.807c-2.693 0-3.92-2.318-3.92-4.943 0-2.625 1.227-4.978 3.92-4.978 2.694 0 3.921 2.353 3.921 4.978 0 2.625-1.227 4.943-3.921 4.943zm11.014-6.341c0-2.284 1.415-3.58 3.341-3.58 1.866 0 3 1.219 3 3.273v8.182h2.011v-8.318c0-3.341-1.781-4.943-4.432-4.943-1.977 0-3.204.886-3.818 2.216h-.17v-2.046h-1.944V339.5h2.012v-7.875zm15.88 8.182c2.284 0 3.477-1.227 3.886-2.08h.102v1.773h2.012v-8.625c0-4.159-3.171-4.636-4.841-4.636-1.977 0-4.227.681-5.25 3.068l1.909.682c.443-.955 1.491-1.978 3.409-1.978 1.85 0 2.761.98 2.761 2.659v.069c0 .971-.988.886-3.375 1.193-2.429.315-5.079.852-5.079 3.852 0 2.557 1.977 4.023 4.466 4.023zm.307-1.807c-1.603 0-2.762-.716-2.762-2.114 0-1.534 1.398-2.011 2.966-2.216.852-.102 3.137-.34 3.477-.75v1.841c0 1.637-1.295 3.239-3.681 3.239zm15.057-11.591h-2.795v-3.136h-2.012v3.136h-1.977v1.705h1.977v8.181c0 2.285 1.841 3.375 3.546 3.375.75 0 1.227-.136 1.5-.238l-.409-1.807c-.171.034-.443.102-.887.102-.886 0-1.738-.272-1.738-1.977v-7.636h2.795v-1.705zm8.374 13.364c2.659 0 4.602-1.33 5.216-3.307l-1.944-.546c-.511 1.364-1.696 2.046-3.272 2.046-2.361 0-3.989-1.526-4.083-4.33h9.503v-.852c0-4.875-2.898-6.545-5.625-6.545-3.545 0-5.898 2.795-5.898 6.818s2.319 6.716 6.103 6.716zm-4.083-7.875c.137-2.037 1.577-3.853 3.878-3.853 2.182 0 3.58 1.637 3.58 3.853h-7.458z" fill="#000"/></g><path d="M42.711 63.194l13.372 1.703-8.16 10.729-5.212-12.432z" fill="#FF8F00"/><path d="M67.681 169.25l8.528 10.44-13.304 2.165 4.776-12.605z" fill="#44C4FF"/><path d="M361.681 371.25l8.528 10.44-13.304 2.165 4.776-12.605z" fill="#FF44CB"/><path d="M263.681 34.25l8.528 10.44-13.304 2.165 4.776-12.605z" fill="#44FF78"/><path d="M421.681 66.25l8.528 10.44-13.304 2.165 4.776-12.605z" fill="#FFEA2E"/><path d="M397.681 151.25l8.528 10.44-13.304 2.165 4.776-12.605z" fill="#FDD835"/><circle cx="42" cy="356" r="4" fill="#8CC440"/><circle cx="144" cy="87" r="4" fill="#FF44CB"/><circle cx="38" cy="228" r="4" fill="#B28DF2"/><defs><filter id="filter0_d" x="124" y="0" width="335" height="179" filterUnits="userSpaceOnUse" color-interpolation-filters="sRGB"><feFlood flood-opacity="0" result="BackgroundImageFix"/><feColorMatrix in="SourceAlpha" values="0 0 0 0 0 0 0 0 0 0 0 0 0 0 0 0 0 0 127 0"/><feOffset/><feGaussianBlur stdDeviation="30"/><feColorMatrix values="0 0 0 0 0 0 0 0 0 0 0 0 0 0 0 0 0 0 0.1 0"/><feBlend in2="BackgroundImageFix" result="effect1_dropShadow"/><feBlend in="SourceGraphic" in2="effect1_dropShadow" result="shape"/></filter><filter id="filter1_d" x="0" y="241" width="364" height="179" filterUnits="userSpaceOnUse" color-interpolation-filters="sRGB"><feFlood flood-opacity="0" result="BackgroundImageFix"/><feColorMatrix in="SourceAlpha" values="0 0 0 0 0 0 0 0 0 0 0 0 0 0 0 0 0 0 127 0"/><feOffset/><feGaussianBlur stdDeviation="30"/><feColorMatrix values="0 0 0 0 0 0 0 0 0 0 0 0 0 0 0 0 0 0 0.1 0"/><feBlend in2="BackgroundImageFix" result="effect1_dropShadow"/><feBlend in="SourceGraphic" in2="effect1_dropShadow" result="shape"/></filter></defs></svg>